<svg width="853" height="500" viewBox="0 0 853 500" fill="none" xmlns="http://www.w3.org/2000/svg">
<mask id="mask0_3892_33088" style="mask-type:alpha" maskUnits="userSpaceOnUse" x="0" y="0" width="853" height="500">
<path d="M0.388672 8.06055C0.388672 3.64227 3.97039 0.0605469 8.38867 0.0605469H844.819C849.237 0.0605469 852.819 3.64227 852.819 8.06055V491.531C852.819 495.95 849.237 499.531 844.819 499.531H8.38867C3.97039 499.531 0.388672 495.95 0.388672 491.531V8.06055Z" fill="#A8A8A8"/>
</mask>
<g mask="url(#mask0_3892_33088)">
<g clip-path="url(#clip0_3892_33088)">
<path d="M0.388672 0.0605469H852.819V641.035H0.388672V0.0605469Z" fill="#00008B"/>
<path d="M50.3357 0.0605469L212.83 120.911L374.659 0.0605469H426.604V41.4568L266.773 160.972L426.604 279.819V320.548H373.327L213.496 201.033L54.3315 320.548H0.388672V280.487L159.553 161.64L0.388672 42.7922V0.0605469H50.3357Z" fill="white"/>
<path d="M282.756 187.679L426.604 293.841V320.548L246.128 187.679H282.756ZM160.219 201.033L164.215 224.402L36.3506 320.548H0.388672L160.219 201.033ZM426.604 0.0605469V2.06359L260.779 127.588L262.111 98.2098L393.306 0.0605469H426.604ZM0.388672 0.0605469L159.553 117.573H119.596L0.388672 28.1032V0.0605469Z" fill="#FF0000"/>
<path d="M160.885 0.0605469V320.548H267.439V0.0605469H160.885ZM0.388672 106.89V213.719H426.604V106.89H0.388672Z" fill="white"/>
<path d="M0.388672 128.923V193.021H426.604V128.923H0.388672ZM182.196 0.0605469V320.548H246.128V0.0605469H182.196Z" fill="#FF0000"/>
<path d="M702.312 529.799L675.007 533.271L677.938 560.646L658.225 541.417L638.646 560.78L641.31 533.405L614.005 530.2L637.048 515.244L622.53 491.875L648.635 500.555L657.826 474.515L667.282 500.421L693.255 491.474L679.003 514.977L702.179 529.799H702.312ZM697.384 373.295L700.98 355.935L687.927 343.917L705.508 341.914L712.834 325.756L720.159 341.914L737.741 343.917L724.688 355.935L728.284 373.295L712.834 364.481L697.384 373.295ZM558.731 293.173L531.693 296.111L534.09 323.219L514.91 303.856L495.198 322.685L498.394 295.577L471.49 291.971L494.532 277.549L480.547 254.18L506.253 263.261L515.843 237.755L524.767 263.528L550.606 255.115L536.088 278.217L558.864 293.173H558.731ZM830.176 249.373L802.339 252.979L805.403 280.888L785.29 261.258L765.312 281.021L768.109 252.979L740.271 249.774L763.847 234.417L749.062 210.514L775.701 219.461L785.024 193.021L794.614 219.461L821.119 210.247L806.468 234.283L830.176 249.373ZM702.179 137.87L674.608 140.941L677.138 168.717L657.559 148.954L637.447 168.183L640.644 140.541L613.073 136.802L636.648 122.113L622.396 98.2099L648.635 107.424L658.358 81.3843L667.415 107.691L693.787 99.0111L679.003 122.513L702.179 137.87ZM312.059 515.11L251.057 522.321L257.183 583.615L213.496 540.349L169.543 583.347L176.069 522.054L115.067 514.309L166.879 481.192L134.913 428.579L192.985 448.609L214.029 390.655L234.674 448.743L292.879 429.113L260.513 481.459L312.192 514.977L312.059 515.11Z" fill="white"/>
</g>
</g>
<defs>
<clipPath id="clip0_3892_33088">
<path d="M0.388672 8.06053C0.388672 3.64226 3.97039 0.0605469 8.38867 0.0605469H844.819C849.237 0.0605469 852.819 3.64227 852.819 8.06055V633.035C852.819 637.453 849.237 641.035 844.819 641.035H8.38867C3.97039 641.035 0.388672 637.453 0.388672 633.035V8.06053Z" fill="white"/>
</clipPath>
</defs>
</svg>
