<svg width="853" height="500" viewBox="0 0 853 500" fill="none" xmlns="http://www.w3.org/2000/svg">
<mask id="mask0_3892_33100" style="mask-type:alpha" maskUnits="userSpaceOnUse" x="0" y="0" width="853" height="500">
<path d="M0.288086 8.06055C0.288086 3.64227 3.86981 0.0605469 8.28809 0.0605469H844.718C849.136 0.0605469 852.718 3.64227 852.718 8.06055V491.531C852.718 495.95 849.136 499.531 844.718 499.531H8.28808C3.8698 499.531 0.288086 495.95 0.288086 491.531V8.06055Z" fill="#A8A8A8"/>
</mask>
<g mask="url(#mask0_3892_33100)">
<g clip-path="url(#clip0_3892_33100)">
<path d="M659.867 -66.5352H193.274V592.766H660.004L659.867 -66.5352Z" fill="white"/>
<path d="M893.094 -66.5352H659.866V592.766H893.094V-66.5352ZM193.273 -66.5352H-39.9551V592.766H193.135L193.273 -66.5352ZM589.952 252.127L608.221 258.171L523.885 332.342C517.429 351.16 526.083 356.791 531.577 366.681L440.099 355.143L442.296 447.17L423.204 446.758L427.462 355.28L335.847 366.269C341.478 354.319 346.56 348.001 341.341 328.908L257.143 258.858L271.84 253.363C283.927 244.023 266.62 208.586 264.148 186.197C264.148 186.197 313.183 203.092 316.342 194.164L328.979 170.127L373.757 219.299C378.564 220.536 380.624 218.613 381.86 214.492L361.257 111.751L393.948 130.156C396.695 131.393 399.442 130.294 401.09 127.135L432.682 63.9516L465.097 129.607C467.57 131.942 470.042 132.217 471.965 130.568L503.419 113.124L484.602 214.904C486.112 219.025 489.684 220.124 493.804 217.926L536.659 169.44C542.153 178.368 545.999 192.927 553.416 196.224C560.833 199.383 585.694 190.043 602.314 186.609C596.545 206.938 578.964 241.001 589.952 252.127Z" fill="#D52B1E"/>
</g>
</g>
<defs>
<clipPath id="clip0_3892_33100">
<path d="M866.035 -58.5351C866.035 -62.9534 862.453 -66.5352 858.035 -66.5352H-5.03331C-9.45159 -66.5352 -13.0333 -62.9534 -13.0333 -58.5352V584.766C-13.0333 589.184 -9.4516 592.766 -5.03333 592.766H858.035C862.453 592.766 866.035 589.184 866.035 584.766V-58.5351Z" fill="white"/>
</clipPath>
</defs>
</svg>
