<svg width="853" height="500" viewBox="0 0 853 500" fill="none" xmlns="http://www.w3.org/2000/svg">
<mask id="mask0_3892_33108" style="mask-type:alpha" maskUnits="userSpaceOnUse" x="0" y="0" width="853" height="500">
<path d="M0.18457 8.06055C0.18457 3.64227 3.76629 0.0605469 8.18457 0.0605469H844.615C849.033 0.0605469 852.615 3.64227 852.615 8.06055V491.531C852.615 495.95 849.033 499.531 844.615 499.531H8.18457C3.76629 499.531 0.18457 495.95 0.18457 491.531V8.06055Z" fill="#A8A8A8"/>
</mask>
<g mask="url(#mask0_3892_33108)">
<g clip-path="url(#clip0_3892_33108)">
<path d="M-19.7939 373H879.253V599.426H-19.7939V373Z" fill="#FFCE00"/>
<path d="M-19.7939 -79.854H879.253V146.573H-19.7939V-79.854Z" fill="black"/>
<path d="M-19.7939 146.573H879.253V372.999H-19.7939V146.573Z" fill="#DD0000"/>
</g>
</g>
<defs>
<clipPath id="clip0_3892_33108">
<path d="M-19.7939 -71.854C-19.7939 -76.2723 -16.2122 -79.854 -11.7939 -79.854H871.253C875.672 -79.854 879.253 -76.2723 879.253 -71.854V591.426C879.253 595.844 875.672 599.426 871.253 599.426H-11.7939C-16.2122 599.426 -19.7939 595.844 -19.7939 591.426V-71.854Z" fill="white"/>
</clipPath>
</defs>
</svg>
