<svg width="853" height="500" viewBox="0 0 853 500" fill="none" xmlns="http://www.w3.org/2000/svg">
<mask id="mask0_3892_33117" style="mask-type:alpha" maskUnits="userSpaceOnUse" x="0" y="0" width="853" height="500">
<path d="M0 8.06055C0 3.64227 3.58172 0.0605469 8 0.0605469H844.43C848.848 0.0605469 852.43 3.64227 852.43 8.06055V491.531C852.43 495.95 848.848 499.531 844.43 499.531H8C3.58172 499.531 0 495.95 0 491.531V8.06055Z" fill="#A8A8A8"/>
</mask>
<g mask="url(#mask0_3892_33117)">
<g clip-path="url(#clip0_3892_33117)">
<path fill-rule="evenodd" clip-rule="evenodd" d="M0 -13.2583H852.43V632.724H0V-13.2583Z" fill="#00247D"/>
<path d="M653.207 130.995V151.41L693.616 130.995H653.207Z" fill="white"/>
<path d="M661.816 153.684L649.94 137.168L694.507 129.685L661.816 153.684Z" fill="white"/>
<path d="M653.208 130.995V151.41L612.799 130.995H653.208Z" fill="white"/>
<path d="M644.599 153.684L656.475 137.168L611.908 129.685L644.599 153.684Z" fill="white"/>
<path d="M664.801 139.459L645.522 145.813L677.224 178.245L664.801 139.459Z" fill="white"/>
<path d="M646.041 154.794L657.962 138.228L678.687 178.742L646.041 154.794Z" fill="white"/>
<path d="M641.679 139.413L660.958 145.767L654.102 100.628L641.679 139.413Z" fill="white"/>
<path d="M665.694 138.242L646.542 144.505L653.144 99.3657L665.694 138.242Z" fill="white"/>
<path d="M641.614 139.459L660.893 145.813L629.191 178.245L641.614 139.459Z" fill="white"/>
<path d="M660.374 154.794L648.453 138.228L627.728 178.742L660.374 154.794Z" fill="white"/>
<path d="M653.206 135.15V148.64L679.908 135.15H653.206Z" fill="#CC142B"/>
<path d="M658.895 150.143L651.048 139.229L680.497 134.284L658.895 150.143Z" fill="#CC142B"/>
<path d="M653.207 135.15V148.64L626.505 135.15H653.207Z" fill="#CC142B"/>
<path d="M647.518 150.143L655.365 139.229L625.916 134.284L647.518 150.143Z" fill="#CC142B"/>
<path d="M660.867 140.743L648.128 144.942L669.077 166.372L660.867 140.743Z" fill="#CC142B"/>
<path d="M648.471 150.876L656.349 139.929L670.044 166.701L648.471 150.876Z" fill="#CC142B"/>
<path d="M645.588 140.713L658.327 144.912L653.797 115.084L645.588 140.713Z" fill="#CC142B"/>
<path d="M661.458 139.94L648.803 144.078L653.165 114.25L661.458 139.94Z" fill="#CC142B"/>
<path d="M645.546 140.743L658.285 144.942L637.337 166.372L645.546 140.743Z" fill="#CC142B"/>
<path d="M657.942 150.876L650.064 139.929L636.369 166.701L657.942 150.876Z" fill="#CC142B"/>
<path d="M759.112 225.267L759.088 243.383L795.046 225.216L759.112 225.267Z" fill="white"/>
<path d="M766.728 245.407L756.182 230.735L795.84 224.025L766.728 245.407Z" fill="white"/>
<path d="M759.088 225.217L759.064 243.332L723.154 225.268L759.088 225.217Z" fill="white"/>
<path d="M751.405 245.407L761.995 230.684L722.336 224.076L751.405 245.407Z" fill="white"/>
<path d="M769.423 232.749L752.248 238.417L780.459 267.248L769.423 232.749Z" fill="white"/>
<path d="M752.71 246.411L763.332 231.652L781.748 267.705L752.71 246.411Z" fill="white"/>
<path d="M748.828 232.729L765.956 238.362L759.911 198.194L748.828 232.729Z" fill="white"/>
<path d="M770.199 231.646L753.129 237.24L759.059 197.071L770.199 231.646Z" fill="white"/>
<path d="M748.8 232.749L765.928 238.382L737.717 267.283L748.8 232.749Z" fill="white"/>
<path d="M765.465 246.372L754.877 231.652L736.395 267.705L765.465 246.372Z" fill="white"/>
<path d="M759.103 229.403L759.088 240.614L781.339 229.372L759.103 229.403Z" fill="#CC142B"/>
<path d="M763.815 241.866L757.289 232.787L781.83 228.635L763.815 241.866Z" fill="#CC142B"/>
<path d="M759.089 229.372L759.074 240.582L736.852 229.403L759.089 229.372Z" fill="#CC142B"/>
<path d="M754.335 241.865L760.888 232.755L736.346 228.666L754.335 241.865Z" fill="#CC142B"/>
<path d="M765.483 234.032L754.855 237.54L772.313 255.381L765.483 234.032Z" fill="#CC142B"/>
<path d="M755.142 242.487L761.715 233.354L773.111 255.664L755.142 242.487Z" fill="#CC142B"/>
<path d="M752.739 234.02L763.338 237.506L759.598 212.65L752.739 234.02Z" fill="#CC142B"/>
<path d="M765.965 233.35L755.401 236.812L759.071 211.955L765.965 233.35Z" fill="#CC142B"/>
<path d="M752.722 234.032L763.321 237.518L745.863 255.403L752.722 234.032Z" fill="#CC142B"/>
<path d="M763.035 242.462L756.482 233.354L745.045 255.664L763.035 242.462Z" fill="#CC142B"/>
<path d="M529.912 256.514L529.885 276.871L570.294 256.457L529.912 256.514Z" fill="white"/>
<path d="M538.469 279.145L526.618 262.658L571.185 255.118L538.469 279.145Z" fill="white"/>
<path d="M529.886 256.457L529.859 276.814L489.504 256.514L529.886 256.457Z" fill="white"/>
<path d="M521.252 279.145L533.152 262.601L488.585 255.175L521.252 279.145Z" fill="white"/>
<path d="M541.499 264.92L522.199 271.291L553.901 303.69L541.499 264.92Z" fill="white"/>
<path d="M522.719 280.274L534.655 263.689L555.35 304.204L522.719 280.274Z" fill="white"/>
<path d="M518.356 264.898L537.604 271.229L530.811 226.089L518.356 264.898Z" fill="white"/>
<path d="M542.373 263.681L523.189 269.967L529.853 224.828L542.373 263.681Z" fill="white"/>
<path d="M518.323 264.92L537.571 271.251L505.869 303.729L518.323 264.92Z" fill="white"/>
<path d="M537.051 280.229L525.152 263.688L504.383 304.203L537.051 280.229Z" fill="white"/>
<path d="M529.903 260.649L529.885 274.101L556.587 260.611L529.903 260.649Z" fill="#CC142B"/>
<path d="M535.558 275.604L527.727 264.709L557.176 259.727L535.558 275.604Z" fill="#CC142B"/>
<path d="M529.886 260.611L529.868 274.063L503.202 260.649L529.886 260.611Z" fill="#CC142B"/>
<path d="M524.18 275.604L532.044 264.671L502.594 259.764L524.18 275.604Z" fill="#CC142B"/>
<path d="M537.56 266.204L524.806 270.413L545.755 291.822L537.56 266.204Z" fill="#CC142B"/>
<path d="M525.15 276.349L533.037 265.39L546.712 292.162L525.15 276.349Z" fill="#CC142B"/>
<path d="M522.268 266.189L534.986 270.372L530.497 240.544L522.268 266.189Z" fill="#CC142B"/>
<path d="M538.137 265.385L525.461 269.539L529.864 239.711L538.137 265.385Z" fill="#CC142B"/>
<path d="M522.245 266.204L534.964 270.388L514.015 291.849L522.245 266.204Z" fill="#CC142B"/>
<path d="M534.62 276.32L526.758 265.39L513.033 292.162L534.62 276.32Z" fill="#CC142B"/>
<path d="M653.208 453.404V476.067L698.067 453.404H653.208Z" fill="white"/>
<path d="M662.765 478.592L649.581 460.257L699.056 451.95L662.765 478.592Z" fill="white"/>
<path d="M653.208 453.404V476.067L608.349 453.404H653.208Z" fill="white"/>
<path d="M643.651 478.592L656.835 460.257L607.36 451.95L643.651 478.592Z" fill="white"/>
<path d="M666.077 462.8L644.675 469.854L679.869 505.857L666.077 462.8Z" fill="white"/>
<path d="M645.253 479.824L658.486 461.433L681.494 506.409L645.253 479.824Z" fill="white"/>
<path d="M640.408 462.75L661.81 469.804L654.2 419.693L640.408 462.75Z" fill="white"/>
<path d="M667.07 461.45L645.809 468.403L653.138 418.292L667.07 461.45Z" fill="white"/>
<path d="M640.339 462.8L661.741 469.854L626.547 505.857L640.339 462.8Z" fill="white"/>
<path d="M661.163 479.824L647.93 461.433L624.922 506.409L661.163 479.824Z" fill="white"/>
<path d="M653.209 457.559V473.297L684.361 457.559H653.209Z" fill="#CC142B"/>
<path d="M659.846 475.05L650.69 462.318L685.048 456.549L659.846 475.05Z" fill="#CC142B"/>
<path d="M653.208 457.559V473.297L622.056 457.559H653.208Z" fill="#CC142B"/>
<path d="M646.571 475.05L655.727 462.318L621.369 456.549L646.571 475.05Z" fill="#CC142B"/>
<path d="M662.146 464.084L647.283 468.983L671.723 493.985L662.146 464.084Z" fill="#CC142B"/>
<path d="M647.684 475.906L656.874 463.134L672.852 494.368L647.684 475.906Z" fill="#CC142B"/>
<path d="M644.32 464.049L659.183 468.947L653.898 434.148L644.32 464.049Z" fill="#CC142B"/>
<path d="M662.835 463.146L648.07 467.975L653.16 433.175L662.835 463.146Z" fill="#CC142B"/>
<path d="M644.271 464.084L659.134 468.983L634.694 493.985L644.271 464.084Z" fill="#CC142B"/>
<path d="M658.733 475.906L649.543 463.134L633.565 494.368L658.733 475.906Z" fill="#CC142B"/>
<path d="M0 -13.2583H426.215V309.733H0V-13.2583Z" fill="#012169"/>
<path d="M49.9471 -13.2583L212.442 108.536L374.27 -13.2583H426.215V28.4614L266.384 148.91L426.215 268.686V309.733H372.938L213.107 189.284L53.9428 309.733H0V269.359L159.165 149.583L0 29.8072V-13.2583H49.9471Z" fill="white"/>
<path d="M282.367 175.826L426.215 282.817V309.733L245.74 175.826H282.367ZM159.831 189.284L163.826 212.835L35.9619 309.733H0L159.831 189.284ZM426.215 -13.2583V-11.2396L260.391 115.265L261.723 85.6577L392.917 -13.2583H426.215ZM0 -13.2583L159.165 105.172H119.207L0 15.0034V-13.2583Z" fill="#C8102E"/>
<path d="M160.497 -13.2583V309.733H267.05V-13.2583H160.497ZM0 94.4054V202.069H426.215V94.4054H0Z" fill="white"/>
<path d="M0 116.611V181.209H426.215V116.611H0ZM181.807 -13.2583V309.733H245.74V-13.2583H181.807Z" fill="#C8102E"/>
</g>
</g>
<defs>
<clipPath id="clip0_3892_33117">
<path d="M0 -5.25831C0 -9.67658 3.58172 -13.2583 8 -13.2583H844.43C848.848 -13.2583 852.43 -9.67658 852.43 -5.2583V624.724C852.43 629.142 848.848 632.724 844.43 632.724H8C3.58172 632.724 0 629.142 0 624.724V-5.25831Z" fill="white"/>
</clipPath>
</defs>
</svg>
