<svg width="854" height="500" viewBox="0 0 854 500" fill="none" xmlns="http://www.w3.org/2000/svg">
<mask id="mask0_3892_33061" style="mask-type:alpha" maskUnits="userSpaceOnUse" x="0" y="0" width="854" height="500">
<path d="M0.589844 8.06055C0.589844 3.64227 4.17157 0.0605469 8.58984 0.0605469H845.02C849.438 0.0605469 853.02 3.64227 853.02 8.06055V491.531C853.02 495.95 849.438 499.531 845.02 499.531H8.58984C4.17156 499.531 0.589844 495.95 0.589844 491.531V8.06055Z" fill="#A8A8A8"/>
</mask>
<g mask="url(#mask0_3892_33061)">
<g clip-path="url(#clip0_3892_33061)">
<path d="M-6.07129 -93.1743H859.678V546.148H-6.07129V-93.1743Z" fill="#012169"/>
<path d="M95.3837 -93.1743L425.451 147.904L754.165 -93.1743H859.678V-10.5952L535.022 227.819L859.678 464.901V546.148H751.459L426.803 307.734L103.5 546.148H-6.07129V466.233L317.232 229.151L-6.07129 -7.93131V-93.1743H95.3837Z" fill="white"/>
<path d="M567.488 281.096L859.678 492.871V546.148L493.087 281.096H567.488ZM318.585 307.734L326.701 354.351L66.9763 546.148H-6.07129L318.585 307.734ZM859.678 -93.1743V-89.1786L522.847 161.223L525.553 102.618L792.041 -93.1743H859.678ZM-6.07129 -93.1743L317.232 141.244H236.068L-6.07129 -37.2336V-93.1743Z" fill="#C8102E"/>
<path d="M319.937 -93.1743V546.148H536.375V-93.1743H319.937ZM-6.07129 119.933V333.041H859.678V119.933H-6.07129Z" fill="white"/>
<path d="M-6.07129 163.887V291.751H859.678V163.887H-6.07129ZM363.225 -93.1743V546.148H493.087V-93.1743H363.225Z" fill="#C8102E"/>
</g>
</g>
<defs>
<clipPath id="clip0_3892_33061">
<path d="M-6.07129 -85.1743C-6.07129 -89.5926 -2.48957 -93.1743 1.92871 -93.1743H851.678C856.096 -93.1743 859.678 -89.5926 859.678 -85.1743V538.148C859.678 542.566 856.096 546.148 851.678 546.148H1.92872C-2.48955 546.148 -6.07129 542.566 -6.07129 538.148V-85.1743Z" fill="white"/>
</clipPath>
</defs>
</svg>
