<svg width="853" height="500" viewBox="0 0 853 500" fill="none" xmlns="http://www.w3.org/2000/svg">
<mask id="mask0_3892_33073" style="mask-type:alpha" maskUnits="userSpaceOnUse" x="0" y="0" width="853" height="500">
<path d="M0.489258 8.06055C0.489258 3.64227 4.07098 0.0605469 8.48926 0.0605469H844.919C849.337 0.0605469 852.919 3.64227 852.919 8.06055V491.531C852.919 495.95 849.337 499.531 844.919 499.531H8.48925C4.07098 499.531 0.489258 495.95 0.489258 491.531V8.06055Z" fill="#A8A8A8"/>
</mask>
<g mask="url(#mask0_3892_33073)">
<g clip-path="url(#clip0_3892_33073)">
<mask id="mask1_3892_33073" style="mask-type:luminance" maskUnits="userSpaceOnUse" x="-7" y="0" width="867" height="653">
<path d="M-6.17188 0.0605469H859.62V652.702H-6.17188V0.0605469Z" fill="white"/>
</mask>
<g mask="url(#mask1_3892_33073)">
<path fill-rule="evenodd" clip-rule="evenodd" d="M-6.17188 0.0605469H1227.52V50.2834H-6.17188V0.0605469ZM-6.17188 100.506H1227.52V150.729H-6.17188V100.506ZM-6.17188 200.824H1227.52V251.175H-6.17188V200.824ZM-6.17188 301.27H1227.52V351.493H-6.17188V301.27ZM-6.17188 401.716H1227.52V451.938H-6.17188V401.716ZM-6.17188 502.034H1227.52V552.257H-6.17188V502.034ZM-6.17188 602.479H1227.52V652.702H-6.17188V602.479Z" fill="#BD3D44"/>
<path fill-rule="evenodd" clip-rule="evenodd" d="M-6.17188 50.2832H1227.52V100.506H-6.17188V50.2832ZM-6.17188 150.729H1227.52V200.824H-6.17188V150.729ZM-6.17188 251.047H1227.52V301.27H-6.17188V251.047ZM-6.17188 351.493H1227.52V401.715H-6.17188V351.493ZM-6.17188 451.938H1227.52V502.161H-6.17188V451.938ZM-6.17188 552.256H1227.52V602.479H-6.17188V552.256Z" fill="white"/>
<path fill-rule="evenodd" clip-rule="evenodd" d="M-6.17188 0.0605469H487.28V351.493H-6.17188V0.0605469Z" fill="#192F5D"/>
<path fill-rule="evenodd" clip-rule="evenodd" d="M34.9173 15.1021L39.4828 28.9962H53.9402L42.2728 37.5366L46.7115 51.5582L34.9173 42.8903L23.25 51.4307L27.6887 37.5366L15.8945 28.9962H30.6055L34.9173 15.1021ZM117.223 15.1021L121.661 28.9962H136.246L124.451 37.5366L128.89 51.5582L117.223 42.8903L105.429 51.4307L109.867 37.5366L98.1999 28.9962H112.657L117.223 15.1021ZM199.401 15.1021L203.967 28.9962H218.297L206.63 37.5366L211.069 51.5582L199.274 42.8903L187.607 51.4307L192.046 37.5366L180.252 28.9962H194.836L199.401 15.1021ZM281.707 15.1021L286.145 28.9962H300.729L288.935 37.5366L293.501 51.5582L281.707 42.8903L269.912 51.4307L274.478 37.5366L262.684 28.9962H277.141L281.707 15.1021ZM363.885 15.1021L368.451 28.9962H382.908L371.241 37.5366L375.679 51.5582L363.885 42.8903L352.218 51.4307L356.656 37.5366L344.989 28.9962H359.446L363.885 15.1021ZM446.191 15.1021L450.629 28.9962H465.213L453.419 37.5366L457.985 51.5582L446.191 42.8903L434.396 51.4307L438.962 37.5366L427.168 28.9962H441.752L446.191 15.1021ZM76.1334 50.2835L80.5721 64.1776H95.1562L83.3621 72.7181L87.6739 86.6122L76.2602 78.0718L64.4661 86.6122L68.6511 72.7181L57.2374 64.1776H71.6948L76.1334 50.2835ZM158.312 50.2835L162.877 64.1776H177.335L165.541 72.7181L170.106 86.6122L158.312 78.0718L146.518 86.6122L151.083 72.7181L139.289 64.1776H153.873L158.312 50.2835ZM240.617 50.2835L245.056 64.1776H259.64L247.846 72.7181L252.285 86.6122L240.617 78.0718L228.823 86.6122L233.262 72.7181L221.595 64.1776H236.052L240.617 50.2835ZM322.796 50.2835L327.361 64.1776H341.819L330.025 72.7181L334.59 86.6122L322.796 78.0718L311.129 86.6122L315.567 72.7181L303.773 64.1776H318.484L322.796 50.2835ZM405.101 50.2835L409.54 64.1776H424.124L412.33 72.7181L416.769 86.6122L405.101 78.0718L393.307 86.6122L397.746 72.7181L386.078 64.1776H400.536L405.101 50.2835ZM34.9173 85.3375L39.4828 99.4866H53.9402L42.2728 108.027L46.7115 121.921L34.9173 113.253L23.25 121.921L27.6887 107.9L15.8945 99.3591H30.6055L34.9173 85.3375ZM117.223 85.3375L121.661 99.3591H136.246L124.451 107.9L128.89 121.794L117.223 113.126L105.429 121.794L109.867 107.772L98.1999 99.2316H112.657L117.223 85.3375ZM199.401 85.3375L203.967 99.3591H218.297L206.63 107.9L211.069 121.794L199.274 113.126L187.607 121.794L192.046 107.772L180.252 99.2316H194.836L199.401 85.3375ZM281.707 85.3375L286.145 99.3591H300.729L288.935 107.9L293.501 121.794L281.707 113.126L269.912 121.794L274.478 107.772L262.684 99.2316H277.141L281.707 85.3375ZM363.885 85.3375L368.451 99.3591H382.908L371.241 107.9L375.679 121.794L363.885 113.126L352.218 121.794L356.656 107.772L344.989 99.2316H359.446L363.885 85.3375ZM446.191 85.3375L450.629 99.3591H465.213L453.419 107.9L457.985 121.794L446.191 113.126L434.396 121.794L438.962 107.772L427.168 99.2316H441.752L446.191 85.3375ZM76.1334 120.519L80.5721 134.413H95.1562L83.3621 142.954L87.8007 156.975L76.1334 148.307L64.3393 156.848L68.7779 142.954L57.1106 134.413H71.568L76.1334 120.519ZM158.312 120.519L162.877 134.413H177.335L165.541 142.954L170.106 156.975L158.312 148.307L146.518 156.848L151.083 142.954L139.289 134.413H153.873L158.312 120.519ZM240.617 120.519L245.056 134.413H259.64L247.846 142.954L252.285 156.975L240.617 148.307L228.823 156.848L233.262 142.954L221.595 134.413H236.052L240.617 120.519ZM322.796 120.519L327.361 134.413H341.819L330.151 142.954L334.59 156.975L322.796 148.307L311.129 156.848L315.567 142.954L303.773 134.413H318.484L322.796 120.519ZM405.101 120.519L409.54 134.413H424.124L412.33 142.954L416.769 156.975L405.101 148.307L393.307 156.848L397.746 142.954L386.078 134.413H400.536L405.101 120.519ZM34.9173 155.7L39.4828 169.595H53.9402L42.2728 178.135L46.7115 192.157L34.9173 183.489L23.25 192.029L27.6887 178.135L15.8945 169.595H30.6055L34.9173 155.7ZM117.223 155.7L121.661 169.595H136.246L124.451 178.135L128.89 192.029L117.223 183.489L105.429 192.029L109.867 178.135L98.1999 169.595H112.657L117.223 155.7ZM199.401 155.7L203.967 169.595H218.297L206.63 178.135L211.069 192.157L199.274 183.489L187.607 192.029L192.046 178.135L180.252 169.595H194.836L199.401 155.7ZM281.707 155.7L286.145 169.595H300.729L288.935 178.135L293.501 192.157L281.707 183.489L269.912 192.029L274.478 178.135L262.684 169.595H277.141L281.707 155.7ZM363.885 155.7L368.451 169.595H382.908L371.241 178.135L375.679 192.157L363.885 183.489L352.218 192.029L356.656 178.135L344.989 169.595H359.446L363.885 155.7ZM446.191 155.7L450.629 169.595H465.213L453.419 178.135L457.985 192.157L446.191 183.489L434.396 192.029L438.962 178.135L427.168 169.595H441.752L446.191 155.7ZM76.1334 190.882L80.5721 204.776H95.1562L83.3621 213.316L87.8007 227.211L76.1334 218.543L64.3393 227.211L68.7779 213.189L57.1106 204.649H71.568L76.1334 190.882ZM158.312 190.882L162.877 204.776H177.335L165.541 213.316L170.106 227.211L158.312 218.543L146.518 227.211L151.083 213.189L139.289 204.649H153.873L158.312 190.882ZM240.617 190.882L245.056 204.776H259.64L247.846 213.316L252.285 227.211L240.617 218.543L228.823 227.211L233.262 213.189L221.595 204.649H236.052L240.617 190.882ZM322.796 190.882L327.361 204.776H341.819L330.151 213.316L334.59 227.211L322.796 218.543L311.129 227.211L315.567 213.189L303.773 204.649H318.484L322.796 190.882ZM405.101 190.882L409.54 204.776H424.124L412.33 213.316L416.769 227.211L405.101 218.543L393.307 227.211L397.746 213.189L386.078 204.649H400.536L405.101 190.882ZM34.9173 225.936L39.4828 239.958H53.9402L42.2728 248.498L46.7115 262.265L34.9173 253.724L23.25 262.265L27.6887 248.37L15.8945 239.83H30.6055L34.9173 225.936ZM117.223 225.936L121.661 239.958H136.246L124.451 248.498L129.017 262.265L117.223 253.724L105.429 262.265L109.994 248.37L98.1999 239.83H112.657L117.223 225.936ZM199.401 225.936L203.967 239.958H218.297L206.63 248.498L211.069 262.265L199.274 253.724L187.607 262.265L192.046 248.37L180.252 239.83H194.836L199.401 225.936ZM281.707 225.936L286.145 239.958H300.729L288.935 248.498L293.501 262.265L281.707 253.724L269.912 262.265L274.478 248.37L262.684 239.83H277.141L281.707 225.936ZM363.885 225.936L368.451 239.958H382.908L371.241 248.498L375.679 262.265L363.885 253.724L352.218 262.265L356.656 248.37L344.989 239.83H359.446L363.885 225.936ZM446.191 225.936L450.629 239.958H465.213L453.419 248.498L457.985 262.265L446.191 253.724L434.396 262.265L438.962 248.37L427.168 239.83H441.752L446.191 225.936ZM76.1334 261.117L80.5721 275.012H95.1562L83.3621 283.552L87.8007 297.574L76.1334 288.906L64.3393 297.446L68.7779 283.552L57.1106 275.012H71.568L76.1334 261.117ZM158.312 261.117L162.877 275.012H177.335L165.541 283.552L170.106 297.574L158.312 288.906L146.518 297.446L151.083 283.552L139.289 275.012H153.873L158.312 261.117ZM240.617 261.117L245.056 275.012H259.64L247.846 283.552L252.285 297.574L240.617 288.906L228.823 297.446L233.262 283.552L221.595 275.012H236.052L240.617 261.117ZM322.796 261.117L327.361 275.012H341.819L330.151 283.552L334.59 297.574L322.796 288.906L311.129 297.446L315.567 283.552L303.773 275.012H318.484L322.796 261.117ZM405.101 261.117L409.54 275.012H424.124L412.33 283.552L416.769 297.574L405.101 288.906L393.307 297.446L397.746 283.552L386.078 275.012H400.536L405.101 261.117ZM34.9173 296.299L39.4828 310.193H53.9402L42.2728 318.733L46.7115 332.628L34.9173 324.087L23.25 332.628L27.6887 318.606L15.8945 310.066H30.6055L34.9173 296.299ZM117.223 296.299L121.661 310.193H136.246L124.451 318.733L129.017 332.628L117.223 324.087L105.429 332.628L109.994 318.606L98.1999 310.066H112.657L117.223 296.299ZM199.401 296.299L203.967 310.193H218.297L206.884 318.733L211.322 332.628L199.528 324.087L187.861 332.628L192.299 318.606L180.505 310.066H195.089L199.401 296.299ZM281.707 296.299L286.145 310.193H300.729L288.935 318.733L293.501 332.628L281.707 324.087L269.912 332.628L274.478 318.606L262.684 310.066H277.141L281.707 296.299ZM363.885 296.299L368.451 310.193H382.908L371.241 318.733L375.679 332.628L363.885 324.087L352.218 332.628L356.656 318.606L344.989 310.066H359.446L363.885 296.299ZM446.191 296.299L450.629 310.193H465.213L453.419 318.733L457.985 332.628L446.191 324.087L434.396 332.628L438.962 318.606L427.168 310.066H441.752L446.191 296.299Z" fill="white"/>
</g>
</g>
</g>
<defs>
<clipPath id="clip0_3892_33073">
<path d="M-6.17188 8.06055C-6.17188 3.64227 -2.59015 0.0605469 1.82812 0.0605469H851.577C855.996 0.0605469 859.577 3.64227 859.577 8.06055V644.702C859.577 649.121 855.996 652.702 851.577 652.702H1.82814C-2.59014 652.702 -6.17188 649.121 -6.17188 644.702V8.06055Z" fill="white"/>
</clipPath>
</defs>
</svg>
