<svg width="183" height="109" viewBox="0 0 183 109" fill="none" xmlns="http://www.w3.org/2000/svg">
<g clip-path="url(#clip0_1_2223)">
<path d="M102.137 25.334C102.137 25.2969 102.127 25.2584 102.107 25.2232C102.053 25.1293 101.943 25.0889 101.847 25.1267C100.457 25.6678 99.0968 25.4025 98.2081 24.416C98.1155 24.313 97.9616 24.3045 97.8495 24.3958C97.7849 24.4486 97.7504 24.5223 97.7504 24.5973C97.7504 24.6481 97.766 24.6996 97.7986 24.744C98.3059 25.4383 99.1222 25.9228 99.9809 26.0401C100.116 26.0584 100.251 26.0675 100.385 26.0675C101.004 26.0675 101.587 25.8706 102.059 25.497C102.11 25.4566 102.138 25.3966 102.137 25.334Z" fill="#00399F"/>
<path d="M100.903 27.1015C100.903 27.0768 100.899 27.052 100.891 27.0272C100.859 26.9229 100.765 26.8583 100.659 26.8675C98.9092 27.0057 97.8139 26.5271 97.2121 25.3614C97.1469 25.2349 97.0021 25.186 96.875 25.2473C96.7765 25.2949 96.7198 25.3914 96.7198 25.4931C96.7198 25.5309 96.7276 25.57 96.7446 25.6072C97.1299 26.4502 97.9625 27.1804 98.8668 27.4673C99.1439 27.5553 99.4158 27.599 99.6786 27.599C100.074 27.599 100.45 27.4999 100.788 27.3024C100.861 27.2606 100.902 27.1837 100.902 27.1015H100.903Z" fill="#00399F"/>
<path d="M3.11378 67.7529C2.99642 67.4836 2.87971 67.2117 2.763 66.9379C2.2877 65.8243 1.79674 64.6722 1.15779 63.6408C1.0815 63.5175 0.929587 63.4771 0.804403 63.5469C0.675308 63.6186 0.627712 63.7725 0.693564 63.9055C1.82021 66.1875 2.81386 68.5914 3.7749 70.9164C4.05265 71.5886 4.34018 72.2843 4.62641 72.965C5.30905 74.5904 5.99756 76.2458 6.6639 77.8471C7.71948 80.3847 8.81157 83.0083 9.90562 85.5798C10.0073 85.8184 10.1801 86.2318 10.4005 86.7573C11.4098 89.1664 13.5099 94.179 14.1188 95.2463C14.1638 95.3252 14.2453 95.3689 14.332 95.3689C14.3711 95.3689 14.4116 95.3597 14.45 95.3408C14.5681 95.2828 14.6176 95.1544 14.5681 95.035C9.29927 82.2657 5.44597 73.0862 3.11378 67.7522V67.7529Z" fill="#00399F"/>
<path d="M97.974 28.8939C97.3376 29.1579 96.8004 29.289 96.2455 29.0745C95.6737 28.8534 95.4462 28.4192 95.158 27.8696L95.0915 27.7431C95.0354 27.6368 94.9181 27.5853 94.8001 27.6147C94.6801 27.6446 94.596 27.7503 94.596 27.8715C94.596 28.6383 95.098 29.3196 95.9045 29.6508C96.2136 29.7773 96.5344 29.8393 96.8441 29.8393C97.382 29.8393 97.8859 29.6534 98.2341 29.3014C98.2798 29.2551 98.3026 29.1931 98.3026 29.1305C98.3026 29.0797 98.2876 29.0282 98.2576 28.9832C98.193 28.8874 98.0789 28.8521 97.974 28.8958V28.8939Z" fill="#00399F"/>
<path d="M94.0147 27.9537C94.0407 27.9603 94.0668 27.9635 94.0916 27.9635C94.2207 27.9635 94.3315 27.8807 94.3706 27.7471C95.421 24.1611 97.0282 21.2773 99.2847 18.9321C99.8631 18.3303 101.314 17.0485 102.939 15.9824C104.894 14.6993 106.444 14.1601 107.42 14.4222C108.018 14.5826 108.4 15.0351 108.589 15.8057C108.606 15.8729 108.642 15.9283 108.69 15.9674C108.673 15.9935 108.655 16.0196 108.636 16.0463C108.602 16.0946 108.585 16.148 108.585 16.2022C108.585 16.2817 108.622 16.3606 108.692 16.418C108.81 16.5151 108.976 16.5079 109.077 16.401C109.462 15.9929 109.713 15.3076 109.713 14.6895C109.713 14.6387 109.712 14.5878 109.708 14.5383C109.677 14.0858 109.504 13.7207 109.207 13.482C109.105 13.3992 108.963 13.3914 108.854 13.4612C108.772 13.514 108.726 13.602 108.726 13.6978C108.726 13.7226 108.73 13.7487 108.736 13.7741C108.775 13.9241 108.824 14.0604 108.873 14.1921C108.953 14.4085 109.028 14.6139 109.038 14.8512C108.928 14.6041 108.761 14.3883 108.537 14.2103C107.748 13.5831 106.487 13.5629 105.65 13.8093C104.051 14.2801 102.318 15.3141 100.353 16.9702C97.0099 19.7868 94.6177 23.659 93.791 27.5945C93.7865 27.6167 93.7838 27.6395 93.7838 27.661C93.7838 27.7986 93.8745 27.9192 94.0147 27.9537Z" fill="#00399F"/>
<path d="M121.562 18.6217C121.589 18.6289 121.615 18.6328 121.642 18.6328C121.745 18.6328 121.84 18.5787 121.888 18.4861C122.036 18.2057 122.17 17.928 122.301 17.66C122.727 16.7811 123.129 15.9511 123.877 15.2189C124.838 14.2781 126.028 13.6417 127.413 13.3262C127.554 13.2942 127.643 13.1814 127.642 13.0465C127.642 13.0263 127.64 13.0061 127.636 12.9852C127.607 12.8359 127.464 12.699 127.276 12.7296C125.974 12.9415 124.536 13.6391 123.428 14.5963C123.354 14.6608 123.28 14.726 123.209 14.7919C123.273 14.655 123.333 14.5193 123.391 14.3857C123.62 13.8667 123.835 13.3764 124.225 12.9304C124.6 12.5014 125.595 11.5606 126.728 12.0946C126.847 12.1513 126.993 12.1089 127.067 11.9968C127.096 11.9537 127.11 11.9061 127.11 11.8592C127.11 11.7907 127.08 11.7229 127.023 11.6721C126.587 11.2835 126.076 11.1413 125.523 11.2489C128.592 8.1878 132.058 5.4944 135.581 3.4367C138.003 2.02252 140.171 1.25251 142.211 1.08364C143.527 0.974758 144.766 1.17297 145.796 1.6574C146.554 2.01404 147.109 2.5552 147.697 3.12765C147.865 3.29195 148.039 3.46147 148.219 3.62708C148.303 3.70467 148.43 3.71445 148.528 3.65186C148.599 3.60622 148.639 3.53058 148.639 3.45104C148.639 3.42561 148.635 3.39953 148.627 3.37345C148.062 1.64697 145.917 0.623984 144.041 0.376225C141.877 0.0906508 139.472 0.62268 136.687 2.0023C134.372 3.14982 132.262 4.72569 130.3 6.24093C130.028 6.45088 129.746 6.66538 129.473 6.87272C127.728 8.19692 125.924 9.56677 124.694 11.3937C124.666 11.4354 124.652 11.4823 124.652 11.5286C124.652 11.5541 124.656 11.5788 124.665 11.603C123.44 12.3632 122.452 14.0662 122.451 15.1146C122.451 15.2378 122.528 15.3428 122.645 15.3819C121.864 16.2967 121.413 17.3197 121.354 18.3394C121.354 18.3446 121.354 18.3498 121.354 18.3544C121.354 18.4789 121.439 18.5871 121.563 18.6224L121.562 18.6217Z" fill="#00399F"/>
<path d="M99.7435 28.1611C99.7885 28.1089 99.8114 28.047 99.8114 27.985C99.8114 27.9322 99.7944 27.8794 99.7605 27.8338C99.6868 27.734 99.5538 27.6995 99.4371 27.751C97.9466 28.4101 96.7815 28.225 95.9743 27.2007C95.8909 27.0944 95.7475 27.0761 95.6334 27.157C95.5584 27.2105 95.5173 27.2913 95.5173 27.3735C95.5173 27.4198 95.5297 27.466 95.5564 27.5078C96.0226 28.2465 96.968 28.7902 97.9088 28.8607C97.9779 28.8659 98.0457 28.8685 98.1129 28.8685C98.7727 28.8685 99.3465 28.6214 99.7435 28.1617V28.1611Z" fill="#00399F"/>
<path d="M126.42 15.6655C125.28 15.6199 124.252 15.9889 123.362 16.7635C122.617 17.4122 121.865 18.4391 121.863 19.4608C121.863 19.5403 121.868 19.6199 121.877 19.6994C121.892 19.8233 121.992 19.9283 122.116 19.9485C122.129 19.9511 122.144 19.9517 122.157 19.9517C122.253 19.9517 122.339 19.897 122.383 19.8044C122.489 19.5814 122.581 19.3623 122.671 19.1504C122.93 18.5363 123.175 17.9566 123.692 17.452C124.415 16.7452 125.386 16.3156 126.425 16.2419C126.579 16.2308 126.695 16.1069 126.695 15.9524C126.695 15.9504 126.695 15.9485 126.695 15.9472C126.693 15.7907 126.577 15.6727 126.42 15.6662V15.6655Z" fill="#00399F"/>
<path d="M13.6057 89.6607C10.6932 82.5898 7.06815 73.7904 4.37605 67.6317C4.2587 67.3624 4.14199 67.0905 4.02593 66.8167C3.55063 65.7031 3.05967 64.551 2.42072 63.5189C2.34443 63.3956 2.19252 63.3552 2.06734 63.425C1.93824 63.4967 1.89064 63.6506 1.9565 63.7836C3.08249 66.0649 4.07614 68.4675 5.03653 70.7912C5.31493 71.4648 5.60246 72.1611 5.88934 72.8431C6.57133 74.4672 7.25918 76.1213 7.92487 77.7207C8.98111 80.2595 10.0739 82.8845 11.1686 85.4579C11.2976 85.7611 11.5037 86.2599 11.7423 86.8375C12.6173 88.9552 13.9395 92.1565 14.5139 93.1625C14.5589 93.2414 14.6404 93.2851 14.7272 93.2851C14.7663 93.2851 14.8067 93.276 14.8452 93.2571C14.9632 93.1991 15.0127 93.0706 14.9638 92.9513C14.5387 91.9211 14.0836 90.8167 13.607 89.66L13.6057 89.6607Z" fill="#00399F"/>
<path d="M115.161 80.2895C115.161 80.2034 115.117 80.1206 115.037 80.073C114.919 80.0026 114.771 80.0359 114.694 80.1506C114.421 80.5568 114.271 81.0836 114.271 81.5902C114.271 81.7682 114.29 81.9436 114.327 82.1105C114.44 82.6021 114.709 82.9842 115.105 83.215C115.142 83.2365 115.182 83.247 115.221 83.247C115.279 83.247 115.337 83.2248 115.381 83.1811C115.428 83.1355 115.453 83.0748 115.453 83.0136C115.453 82.9757 115.443 82.9373 115.423 82.9014C115.111 82.3322 114.901 81.8152 114.901 81.3021C114.901 81.0067 114.97 80.7127 115.129 80.4101C115.15 80.371 115.16 80.3293 115.16 80.2889L115.161 80.2895Z" fill="#00399F"/>
<path d="M81.6544 95.3943C84.2657 95.8233 86.9545 96.0867 89.5553 96.341C91.2362 96.5053 92.9744 96.6755 94.6702 96.8887C96.4371 97.1104 98.234 97.3829 99.9716 97.6463C102.608 98.046 105.333 98.4593 108.025 98.7071C108.033 98.7077 108.041 98.7084 108.049 98.7084C108.176 98.7084 108.281 98.6171 108.302 98.4828C108.304 98.4672 108.305 98.4515 108.305 98.4359C108.305 98.3107 108.225 98.2031 108.104 98.1751C104.65 97.3855 101.044 96.9493 97.5573 96.5268C96.7625 96.4303 95.9403 96.3312 95.1364 96.2289C94.2321 96.1141 93.3063 95.9902 92.4111 95.8703C88.9014 95.3995 85.2717 94.9125 81.717 94.8329C81.5716 94.8303 81.449 94.9431 81.4347 95.0976C81.434 95.1074 81.4334 95.1172 81.4334 95.127C81.4334 95.2619 81.5227 95.3721 81.6551 95.3943H81.6544Z" fill="#00399F"/>
<path d="M81.1712 95.1818C81.1712 95.1544 81.168 95.1257 81.1614 95.0976C81.1171 94.9086 80.9404 94.7932 80.7513 94.829C76.5094 95.6427 72.2291 96.7113 68.0896 97.7441C66.0905 98.2429 64.0237 98.7586 61.9921 99.2385C55.1911 100.844 49.063 102.307 43.2576 103.714C43.1259 103.746 43.0425 103.857 43.0425 103.986C43.0425 104.01 43.0451 104.033 43.0509 104.057C43.0894 104.22 43.2394 104.316 43.3998 104.279C43.4487 104.268 43.4976 104.257 43.5465 104.246C44.5023 104.793 45.7098 104.897 46.7817 104.99C46.8866 104.999 46.9903 105.008 47.0927 105.017C47.6286 105.066 48.173 105.11 48.6998 105.153C49.6961 105.235 50.7262 105.319 51.7362 105.434C54.2125 105.717 56.7051 106.163 59.1148 106.595C59.8861 106.733 60.6835 106.876 61.4698 107.012C61.4842 107.014 61.4985 107.015 61.5122 107.015C61.6211 107.015 61.7163 106.942 61.7417 106.831C61.7456 106.813 61.7476 106.795 61.7476 106.778C61.7476 106.677 61.6817 106.588 61.58 106.558C58.4335 105.646 55.272 105.189 52.5942 104.861C51.1794 104.687 49.7065 104.546 48.0902 104.43C47.2368 104.368 46.3826 104.227 45.5572 104.091C45.301 104.048 45.0408 104.005 44.7794 103.965C50.1766 102.728 55.8809 101.403 62.1668 99.9263C64.1978 99.4491 66.2764 98.9888 68.2865 98.5441C72.4521 97.6222 76.7598 96.6683 80.9215 95.5025C81.0747 95.4595 81.1706 95.3324 81.1706 95.1831L81.1712 95.1818Z" fill="#00399F"/>
<path d="M108.024 98.7547C106.504 99.2078 104.992 99.8011 103.529 100.376C102.354 100.837 101.139 101.314 99.9297 101.714C97.2963 102.585 94.5847 103.375 91.8698 104.063C90.4614 104.419 89.0199 104.743 87.6259 105.057C83.8522 105.905 79.95 106.783 76.3118 108.396C76.2147 108.439 76.1586 108.531 76.1586 108.634C76.1586 108.675 76.1671 108.717 76.1847 108.757C76.2316 108.865 76.3275 108.928 76.4298 108.928C76.4631 108.928 76.497 108.921 76.5302 108.907C80.0497 107.422 83.8535 106.596 87.5327 105.796C89.1522 105.444 90.8272 105.08 92.4539 104.666C95.1415 103.98 97.8583 103.18 100.53 102.289C100.959 102.146 101.403 102.002 101.832 101.862C104.013 101.152 106.269 100.417 108.27 99.3467C108.374 99.2906 108.433 99.1863 108.433 99.0735C108.433 99.0311 108.425 98.9874 108.407 98.945C108.342 98.7879 108.181 98.7077 108.025 98.7547H108.024Z" fill="#00399F"/>
<path d="M131.24 81.8707C131.198 81.9724 131.155 82.0773 131.118 82.1895C131.111 82.2123 131.107 82.2351 131.107 82.2579C131.107 82.3264 131.139 82.3923 131.197 82.4366C131.238 82.4685 131.288 82.4842 131.337 82.4842C131.379 82.4842 131.42 82.4724 131.456 82.4496C131.717 82.2814 131.893 82.0141 131.964 81.677C131.99 81.557 132.002 81.4345 132.002 81.3112C132.002 80.847 131.837 80.3841 131.64 80.0842C131.563 79.9662 131.408 79.9336 131.287 80.0105C131.211 80.0594 131.17 80.1376 131.17 80.2191C131.17 80.2641 131.183 80.3098 131.209 80.3528C131.354 80.5888 131.426 80.8392 131.426 81.1143C131.426 81.173 131.423 81.233 131.416 81.2936C131.395 81.4951 131.32 81.677 131.241 81.87L131.24 81.8707Z" fill="#00399F"/>
<path d="M182.989 49.9149C180.76 44.5861 177.804 39.9172 174.202 36.0365C172.375 34.0681 167.766 29.8171 162.36 30.2259C162.176 29.7239 161.971 29.229 161.773 28.7491C161.422 27.9002 161.059 27.022 160.811 26.1092C160.488 24.9258 160.228 23.6466 159.966 21.9612C159.835 21.124 159.719 20.2686 159.606 19.4412C159.305 17.2277 158.993 14.9385 158.386 12.742C157.71 10.2944 156.557 7.99479 155.14 6.26699C153.399 4.1454 151.282 2.9229 149.017 2.73057C148.855 2.71687 148.717 2.82837 148.69 2.99593C148.687 3.01614 148.685 3.037 148.685 3.05656C148.685 3.20652 148.777 3.33236 148.921 3.36822C154.857 4.8476 157.185 10.4456 158.092 14.8812C158.413 16.4531 158.632 18.072 158.843 19.6375C158.996 20.7726 159.155 21.9469 159.351 23.0963L159.353 23.1055C159.748 25.4194 160.236 28.268 161.592 30.3068C161.581 30.3107 161.571 30.3159 161.56 30.3211C161.537 30.325 161.513 30.3289 161.489 30.3328C161.489 30.3315 161.489 30.3309 161.489 30.3296C161.478 30.2018 161.389 30.0962 161.268 30.0662C161.15 30.0368 161.028 30.0864 160.96 30.1927C160.559 30.8147 159.116 30.5043 158.254 30.3185C158.077 30.2807 157.924 30.2474 157.798 30.2259C156.856 30.0649 156.094 29.8836 155.402 29.6561C153.817 29.1345 152.474 28.2334 151.298 26.902C151.218 26.8114 151.087 26.7971 150.987 26.8688C150.92 26.9164 150.885 26.9907 150.884 27.0663C150.884 27.1068 150.894 27.1472 150.915 27.1837C151.884 28.8782 153.763 30.0649 156.5 30.7116C156.556 30.7247 156.635 30.7449 156.732 30.769C158.42 31.1954 160.444 31.6062 161.199 31.0266C161.234 31.0233 161.27 31.02 161.305 31.0174C160.449 34.1438 159.018 37.1814 157.632 40.1252C157.249 40.9389 156.852 41.7812 156.478 42.6041C155.761 44.1825 154.883 46.0362 153.816 47.8155C153.22 48.8091 152.634 49.673 152.022 50.4574C151.814 50.7247 151.58 50.9848 151.353 51.2365C151.228 51.3767 151.1 51.5182 150.975 51.6636C150.829 50.8779 150.601 50.0975 150.379 49.3366C150.274 48.9741 150.165 48.5998 150.068 48.236L150.023 48.0639C149.804 47.2241 149.554 46.2715 148.855 45.6926C148.298 45.231 147.578 45.1625 146.825 45.5002C146.631 45.5876 146.426 45.6945 146.215 45.8171C146.395 45.5739 146.554 45.3464 146.69 45.1514C148.638 42.3648 149.712 39.0155 149.713 35.9407C149.713 35.0846 149.63 34.25 149.46 33.4546C149.427 33.3014 149.287 33.2049 149.127 33.2251C148.969 33.2447 148.857 33.3679 148.857 33.5205C148.857 33.525 148.857 33.5289 148.857 33.5335C148.873 33.9527 148.881 34.3609 148.881 34.7586C148.881 38.2781 148.243 40.9969 146.862 43.4536C145.663 45.5863 144.497 46.9398 143.296 47.5925C141.371 48.6402 139.395 47.1328 138.19 45.3724C137.905 44.9584 137.652 44.5046 137.382 44.0248C136.831 43.0402 136.26 42.0218 135.4 41.3346C134.584 40.6833 133.735 40.7811 132.914 40.8756C132.376 40.9376 131.819 41.0021 131.276 40.8476C130.412 40.6018 130.19 39.8683 130.19 39.0096C130.19 38.5343 130.258 38.0205 130.323 37.5302C130.38 37.1064 130.433 36.7055 130.435 36.3684C130.435 36.3586 130.435 36.3495 130.435 36.3397C130.435 34.7371 129.679 33.3385 128.904 32.043C127.882 30.3322 126.855 28.4518 126.272 26.2996C125.825 24.6507 125.605 22.9086 125.605 21.0054C125.605 20.5829 125.616 20.1526 125.637 19.7138C125.637 19.7086 125.637 19.7033 125.637 19.6981C125.637 19.5553 125.537 19.4445 125.395 19.4328C125.239 19.4204 125.101 19.5312 125.083 19.687C125.003 20.3592 124.963 21.038 124.963 21.72C124.963 22.6497 125.038 23.5847 125.183 24.5157C125.064 24.4238 124.942 24.3351 124.823 24.2471C124.363 23.91 123.928 23.5912 123.626 23.1341C123.383 22.7664 123.262 22.3433 123.262 21.8667C123.262 21.3099 123.429 20.68 123.762 19.983C124.463 18.5115 125.652 17.465 127.604 16.6083C129.036 19.9654 130.995 23.4791 134.533 24.7459C135.669 25.1527 136.789 25.0888 137.873 25.0269C138.514 24.9904 139.177 24.9519 139.84 25.0112C141.69 25.1755 142.86 27.082 143.892 28.7635C144.146 29.1782 144.387 29.5693 144.629 29.9214C144.771 30.1275 145.015 30.1314 145.173 30.0303C145.289 29.9566 145.35 29.8406 145.35 29.718C145.35 29.6509 145.332 29.5817 145.294 29.5165C145.294 29.5159 145.293 29.5152 145.292 29.5146C144.088 27.479 143.674 25.4214 143.456 23.4764C143.477 23.4908 143.501 23.5012 143.528 23.5064C143.627 23.526 143.726 23.4693 143.76 23.3747C144.047 22.5513 144.954 21.6919 146.015 21.2362C146.864 20.8717 147.66 20.8196 148.259 21.0895C149.5 21.6489 149.775 23.2359 149.876 24.5555C149.971 25.8002 150.025 27.1511 150.039 28.6852C150.039 28.7068 150.039 28.7283 150.039 28.7498C150.039 30.0968 149.637 30.8623 148.813 31.0885C147.856 31.3506 146.98 30.6758 146.405 30.1451C146.317 30.0642 146.186 30.059 146.092 30.1327C146.031 30.1803 145.999 30.2487 145.999 30.3198C145.999 30.3596 146.008 30.4 146.029 30.4385C146.472 31.2502 147.346 31.8174 148.258 31.8846C149.051 31.9426 149.751 31.6251 150.228 30.9907C150.678 30.3928 150.769 29.6567 150.769 28.935C150.769 28.682 150.757 28.4303 150.746 28.1871C150.743 28.1082 150.739 28.0306 150.737 27.9537C150.722 27.5951 150.712 27.228 150.703 26.8733C150.678 25.9116 150.652 24.918 150.533 23.9504C150.343 22.4046 149.721 20.5053 147.833 20.2393C146.855 20.1011 145.489 20.5659 144.513 21.3692C143.781 21.9716 143.5 22.5623 143.407 23.0168C143.404 22.9822 143.4 22.9483 143.397 22.9138C143.381 22.7436 143.25 22.621 143.085 22.621H143.084C142.92 22.621 142.79 22.7449 142.775 22.9151C142.752 23.1667 142.741 23.4223 142.741 23.6818C142.741 24.5438 142.864 25.4429 143.103 26.3524C142.757 25.8549 142.387 25.3588 141.899 24.9826C140.744 24.0932 139.364 24.208 138.03 24.3195C137.671 24.3495 137.3 24.3801 136.947 24.3892C132.32 24.5046 129.989 19.9837 128.116 16.3534L127.946 16.0235C127.878 15.8931 127.735 15.8422 127.604 15.9035C127.546 15.9309 127.5 15.9759 127.472 16.0287C125.518 16.4199 123.632 18.1496 122.848 20.2908C122.668 20.7824 122.578 21.2701 122.578 21.7421C122.578 22.2774 122.694 22.7925 122.924 23.2711C123.368 24.191 124.217 24.9037 125.319 25.2812C125.745 27.4256 126.551 29.5341 127.71 31.4895L127.742 31.5436C128.757 33.2551 129.649 34.7592 129.649 36.6722C129.649 36.8554 129.641 37.0419 129.624 37.2329C129.039 36.6742 128.25 36.4759 127.486 36.2843C126.427 36.0182 125.427 35.7666 125.046 34.5878C125.01 34.4756 124.921 34.4019 124.816 34.387C124.812 33.5426 124.647 32.6768 124.487 31.8363C124.44 31.5879 124.395 31.3532 124.354 31.1172C124.101 29.6606 123.821 28.3912 123.499 27.2365C122.806 24.7517 121.889 22.6686 120.697 20.8685C119.534 19.1126 117.984 17.5433 116.443 16.562C114.63 15.4073 112.833 15.0553 111.208 15.5293C111.355 15.3676 111.522 15.2209 111.707 15.0905C112.163 14.7697 112.616 14.6843 113.141 14.5852C113.279 14.5591 113.423 14.5317 113.571 14.4998C113.687 14.4743 113.769 14.3765 113.775 14.2559C113.775 14.2513 113.775 14.2468 113.775 14.2422C113.775 14.1203 113.699 14.0121 113.585 13.9755C112.983 13.7826 112.335 13.881 111.711 14.2598C111.158 14.5949 110.666 15.1322 110.336 15.7236C110.524 15.2469 110.644 14.724 110.644 14.2174C110.644 13.8699 110.588 13.5289 110.46 13.2153C110.401 13.0738 110.252 12.9923 110.103 13.0217C109.964 13.0491 109.871 13.1671 109.871 13.3151C109.871 13.5015 109.882 13.6822 109.893 13.8569C109.903 14.0284 109.914 14.1953 109.914 14.3622C109.914 14.5291 109.903 14.696 109.873 14.8675C109.79 15.3376 109.612 15.8044 109.33 16.2947C109.3 16.3475 109.285 16.4029 109.285 16.4564C109.285 16.5575 109.337 16.6533 109.433 16.7126C109.581 16.8059 109.768 16.7661 109.866 16.6207C109.945 16.5027 110.022 16.3755 110.094 16.2425C110.025 16.4264 109.974 16.6116 109.942 16.7935C109.94 16.8104 109.938 16.8274 109.938 16.8437C109.938 16.9839 110.036 17.1064 110.18 17.1338C110.332 17.1632 110.465 17.0732 110.498 16.9206C110.547 16.6924 110.619 16.4753 110.713 16.2712C110.754 16.2784 110.797 16.2777 110.84 16.2667C115.015 15.2267 118.672 18.7071 120.702 22.3113C121.658 24.0078 122.403 25.9469 122.979 28.2406C123.224 29.2153 123.445 30.2794 123.651 31.494C123.711 31.8455 123.757 32.2152 123.801 32.5724C123.854 32.9969 123.908 33.4292 123.986 33.8543C123.971 33.8438 123.955 33.8347 123.938 33.8275C123.624 33.6971 123.255 33.7089 122.926 33.7226C123.033 33.3653 123.087 32.9493 123.087 32.4786C123.087 32.4271 123.087 32.3742 123.085 32.3208C123.046 30.7482 122.844 28.5829 122.109 27.1974C121.633 26.3022 120.535 25.9697 119.608 26.4404C119.087 26.7051 118.355 27.4914 118.261 28.2295C118.253 28.206 118.244 28.1826 118.235 28.1591C118.183 28.0176 118.035 27.9439 117.892 27.9883C117.775 28.0241 117.703 28.1252 117.703 28.2425C117.703 28.266 117.705 28.2901 117.712 28.3149C117.832 28.8006 117.957 29.2916 118.079 29.7669C118.207 30.267 118.336 30.7729 118.461 31.2834C118.418 31.2026 118.375 31.1224 118.332 31.0416C118.261 30.9105 118.192 30.7651 118.12 30.6119C117.899 30.1444 117.648 29.615 117.244 29.2994C116.816 28.965 116.312 28.9702 115.825 28.9747C115.683 28.976 115.549 28.9773 115.417 28.9702C114.16 28.9017 113.352 28.2217 112.878 26.8297C112.718 26.3615 112.613 25.853 112.512 25.3614C112.312 24.3938 112.106 23.393 111.471 22.5741C110.779 21.6808 109.601 21.0386 108.532 21.6156C108.442 21.6639 108.389 21.7571 108.387 21.8582C107.421 21.6821 106.435 21.5544 105.515 21.9403C105.345 22.0121 105.185 22.0994 105.034 22.2005C105.038 22.1809 105.041 22.1614 105.041 22.1412C105.041 22.1307 105.041 22.1209 105.039 22.1105C105.026 21.9977 104.944 21.9143 104.83 21.898C104.631 21.8693 104.434 21.8628 104.243 21.8562C104.011 21.8484 103.791 21.8406 103.571 21.7969C103.143 21.7121 102.716 21.5439 102.304 21.2981C102.164 21.2134 101.991 21.2551 101.903 21.3946C101.869 21.4481 101.853 21.5068 101.853 21.5635C101.853 21.6619 101.901 21.7565 101.991 21.8158C102.73 22.3035 103.805 22.7103 104.692 22.4632C104.412 22.709 104.166 22.9998 103.943 23.3089C103.914 23.3043 103.883 23.3043 103.853 23.3102C102.523 23.5664 101.381 23.5508 100.136 22.6419C100.024 22.5604 99.8763 22.5793 99.7844 22.6862C99.7368 22.7416 99.7133 22.8081 99.7133 22.874C99.7133 22.9431 99.7394 23.0109 99.7909 23.0631C100.655 23.9354 102.169 24.4597 103.463 24.0411C103.387 24.165 103.314 24.2882 103.241 24.4101C103.123 24.609 103.01 24.7967 102.896 24.9773C102.668 25.3359 102.441 25.7174 102.221 26.0864C101.52 27.2613 100.796 28.4766 99.8398 29.3764C98.5619 30.5786 96.9886 30.7429 94.8885 29.8914C94.766 29.8419 94.6284 29.8901 94.5554 30.0088C94.5241 30.059 94.5091 30.1144 94.5091 30.1685C94.5091 30.2461 94.5397 30.3218 94.5997 30.3739C95.3867 31.0689 96.3477 31.3767 97.3772 31.2632C98.8064 31.1061 100.318 30.1483 101.323 28.7641C101.954 27.8944 102.521 26.9601 103.068 26.057C103.485 25.3685 103.917 24.6566 104.372 23.9811C105.023 23.0168 105.732 22.3778 107.059 22.3889C107.55 22.3935 108.055 22.4652 108.543 22.535C108.899 22.5858 109.267 22.6386 109.632 22.6654C109.789 22.6771 109.913 22.5734 109.929 22.4189C109.931 22.4085 109.931 22.398 109.931 22.3876C109.931 22.3576 109.926 22.327 109.918 22.2976C111.108 22.7619 111.464 24.178 111.837 25.658C112.104 26.7169 112.38 27.8116 112.983 28.5607C113.701 29.452 114.505 29.542 115.436 29.6463C115.543 29.658 115.653 29.6704 115.765 29.6841C117.122 29.8497 117.928 31.5325 118.575 32.8841C118.739 33.2271 118.894 33.5504 119.05 33.8354C119.132 33.9853 119.293 34.0466 119.451 33.9892C119.595 33.9364 119.686 33.8034 119.686 33.6574C119.686 33.6332 119.683 33.6091 119.679 33.585C119.372 32.0848 119.018 30.5017 118.516 28.9656C118.579 28.9858 118.651 28.9845 118.721 28.9571C118.844 28.9089 118.918 28.7993 118.918 28.68C118.918 28.6513 118.913 28.6213 118.905 28.592C118.883 28.5216 118.874 28.4505 118.874 28.3782C118.873 27.9315 119.254 27.4699 119.66 27.1974C120.067 26.9235 120.688 26.7221 121.096 27.0546C121.632 27.4921 121.8 28.3782 121.935 29.0908C121.955 29.1931 121.974 29.2923 121.993 29.3861C122.011 29.4755 122.03 29.57 122.051 29.6698C122.198 30.3739 122.405 31.3649 122.405 32.2771C122.405 33.2909 122.149 34.207 121.27 34.5226C121.12 34.576 121.029 34.7116 121.029 34.861C121.029 34.8981 121.035 34.9359 121.047 34.9737C121.103 35.157 121.281 35.2548 121.467 35.2059C121.856 35.1041 122.177 34.9138 122.428 34.6393C122.764 35.0872 123.147 35.5012 123.52 35.9048C123.64 36.0345 123.76 36.1636 123.878 36.2934C124.009 36.4388 124.14 36.5927 124.277 36.7557C124.578 37.1123 124.888 37.4774 125.234 37.7767C125.235 37.894 125.236 38.0114 125.236 38.1281C125.236 41.8373 124.459 45.1482 122.923 47.9752C122.18 49.3424 121.232 50.859 119.831 51.7444C118.292 52.7178 116.629 52.4551 115.383 51.0422C115.282 50.9274 115.113 50.9066 114.973 50.9907C114.872 51.052 114.815 51.1543 114.815 51.2606C114.815 51.2971 114.821 51.3336 114.835 51.3695C115.095 52.0437 115.61 52.5033 116.222 52.7817C115.217 53.302 114.331 54.1555 113.656 55.2521C112.973 53.9658 112.652 52.6376 112.652 51.1204C112.652 51.0089 112.607 50.9125 112.534 50.8486C112.537 50.8134 112.54 50.7775 112.543 50.7423C112.544 50.7338 112.545 50.7247 112.545 50.7162C112.545 50.6419 112.514 50.576 112.463 50.5304C113.862 50.9229 115.374 50.9196 116.858 50.1307C118.959 49.0145 120.77 46.9229 121.828 44.3905C122.514 42.7455 122.862 41.008 122.862 39.3597C122.862 38.0414 122.639 36.7798 122.192 35.6688C122.128 35.5123 121.961 35.4321 121.804 35.4823C121.676 35.5227 121.598 35.6355 121.598 35.7659C121.598 35.7914 121.601 35.8174 121.607 35.8442C121.902 37.0947 122.049 38.3009 122.049 39.4588C122.049 41.54 121.573 43.4647 120.623 45.2088C119.009 48.1721 115.769 51.1002 111.947 49.6019C110.297 48.9545 108.899 47.7574 107.547 46.5988C107.42 46.49 107.293 46.3811 107.166 46.2735C105.828 45.1338 104.442 43.8624 103.369 42.2885C102.554 41.0934 101.874 39.7718 101.216 38.4939C101.035 38.1411 100.847 37.7767 100.659 37.4207C100.38 36.89 100.101 36.3586 99.8222 35.8272C99.0972 34.445 98.3474 33.0152 97.5937 31.6179C97.5148 31.4719 97.3446 31.4191 97.1973 31.496C97.089 31.5521 97.0271 31.6597 97.0271 31.7718C97.0271 31.8194 97.0375 31.867 97.061 31.9126C97.4261 32.6409 97.7945 33.3874 98.1505 34.1099C99.4258 36.695 100.744 39.3682 102.242 41.8569C103.001 43.1178 103.93 44.2432 104.948 45.272C104.172 45.495 103.271 45.6495 102.326 45.8112C99.4479 46.3041 96.186 46.8636 95.0678 49.6743C95.0554 49.7043 95.0502 49.7356 95.0496 49.7662C95.0496 49.8164 95.0646 49.8653 95.0939 49.9071C95.0704 49.8921 95.0437 49.8803 95.015 49.8732C94.8892 49.8432 94.7666 49.9156 94.7294 50.0407C93.0127 55.7829 89.4665 60.1793 85.3511 64.9252C83.4995 67.0611 81.5435 69.3724 79.7896 71.8057C77.9425 74.368 76.0348 77.1058 74.7145 79.9895C74.6121 79.998 74.5182 80.0495 74.455 80.1349L74.2874 80.3573C73.5767 81.3001 72.7709 82.3693 72.4083 83.4803C72.3464 83.6701 72.3001 83.8546 72.2695 84.0358C72.1834 84.0424 72.1117 84.1062 72.0973 84.1943C72.0758 84.3234 72.0595 84.4538 72.0491 84.5842C72.0308 84.5822 72.0119 84.5822 71.993 84.5829C69.1627 84.742 66.1166 84.9115 63.0222 85.0706C62.9577 85.0738 62.899 85.0927 62.8494 85.124C62.7849 83.689 62.7014 82.2318 62.5423 80.8032C62.5228 80.6272 62.3748 80.504 62.1987 80.5138C62.1831 80.5151 62.1681 80.517 62.1537 80.5196C61.7932 80.2458 61.2951 80.116 60.9339 80.0221C60.2017 79.8318 59.581 79.8174 59.0359 79.9785C58.9335 80.0091 58.8664 80.0991 58.8664 80.2021C58.8664 80.2099 58.8664 80.2177 58.8677 80.2256C58.8788 80.3416 58.9713 80.4336 59.0868 80.4446C59.2289 80.4583 59.371 80.4688 59.5125 80.4792C59.98 80.5144 60.422 80.547 60.8595 80.68C61.0186 80.7283 61.1718 80.8019 61.3309 80.8828C59.5288 81.304 57.8173 81.6906 55.9415 81.6606C55.0946 81.6476 54.2313 81.5433 53.3961 81.4428C52.6705 81.3555 51.9265 81.2662 51.1826 81.2342C51.4258 81.1834 51.667 81.1305 51.9037 81.079C52.8185 80.8802 53.7645 80.6748 54.7151 80.564C55.5262 80.4694 56.3575 80.4355 57.1614 80.4029C57.6158 80.3847 58.0853 80.3651 58.5489 80.3351C58.6616 80.3273 58.7497 80.234 58.7536 80.118C58.7536 80.1147 58.7536 80.1121 58.7536 80.1089C58.7536 80.0039 58.6793 79.9185 58.5749 79.9035C55.9956 79.5358 52.885 79.9185 50.4576 80.9036C50.3663 80.9408 50.3089 81.0262 50.3063 81.1188C50.2548 81.1723 50.2222 81.2446 50.2183 81.3261C50.1681 82.3889 50.1433 83.4745 50.1427 84.5803C50.1427 84.9258 50.1453 85.274 50.1498 85.6235C48.2988 85.6991 46.4478 85.7767 44.5961 85.8536C42.7705 85.9299 40.9456 86.0062 39.12 86.0805C39.0157 86.0844 38.9257 86.1294 38.8638 86.205C38.5156 86.1829 38.1674 86.1607 37.8193 86.1392L37.3994 86.1124C37.0623 86.0909 36.7018 86.0485 36.3203 86.0029C35.4304 85.8973 34.5124 85.7878 33.7026 85.924L32.9665 84.1395C30.2946 77.66 27.5314 70.96 24.6783 64.4323C24.5603 64.163 24.4442 63.8904 24.3275 63.6173C23.8522 62.5036 23.3613 61.3522 22.7223 60.3201C22.646 60.1969 22.4941 60.1565 22.3689 60.2256C22.3298 60.2471 22.2985 60.2764 22.275 60.3103C22.2692 60.3103 22.2639 60.3103 22.2581 60.3103C19.8496 60.2875 17.4085 60.3742 14.987 60.502C10.8944 60.68 6.11921 60.9532 2.08009 61.2023C1.92948 61.2114 1.81734 61.3385 1.82386 61.4917C1.83038 61.6404 1.94839 61.7493 2.09443 61.7447C3.16306 61.7141 10.144 61.5087 16.0054 61.2075C18.1023 61.1182 20.2043 60.9904 22.2757 60.7837L22.2861 60.7824C22.3083 60.7804 22.3291 60.7752 22.3487 60.768C23.4382 62.9953 24.4038 65.332 25.3388 67.5938C25.6165 68.2666 25.904 68.9617 26.1903 69.643C26.8723 71.2678 27.5608 72.9219 28.2265 74.5212C29.2827 77.0595 30.3748 79.6844 31.4695 82.2578C31.5771 82.5115 31.684 82.7664 31.7909 83.022C32.2525 84.1278 32.7304 85.2707 33.3316 86.3237C33.3727 86.3961 33.445 86.4391 33.5233 86.4456C34.3383 86.7227 35.3176 86.7325 36.2649 86.741C36.6594 86.7449 37.0317 86.7481 37.3779 86.7716L37.4933 86.7794C38.9733 86.8785 40.5042 86.9809 42.0103 87.0728C42.5873 87.108 43.1767 87.1485 43.7472 87.1882C44.0517 87.2091 44.3575 87.2306 44.6639 87.2508C42.7908 87.7829 40.9247 88.4942 39.1187 89.1833C38.2665 89.508 37.385 89.8445 36.5205 90.1548C35.9031 90.3765 35.2758 90.6125 34.6688 90.8407C32.6489 91.601 30.5599 92.3866 28.4312 92.7987C28.2903 92.8254 28.1971 92.9486 28.1978 93.096C28.1978 93.1149 28.1991 93.1338 28.2023 93.1534C28.2297 93.3203 28.3634 93.4259 28.5218 93.4044C30.6982 93.1084 32.8256 92.2979 34.8833 91.5136C35.4903 91.2821 36.1176 91.0435 36.7291 90.8244C37.595 90.5147 38.4889 90.2141 39.3541 89.9234C41.2755 89.2772 43.2628 88.6096 45.1295 87.7796C45.241 87.73 45.3055 87.6251 45.3048 87.509C45.3048 87.4725 45.2983 87.4353 45.2853 87.3982C45.2703 87.3558 45.2481 87.318 45.2207 87.2867C46.869 87.391 48.5427 87.466 50.1948 87.4053C50.2352 88.5157 50.2991 89.6437 50.3872 90.7892C46.8964 92.2158 42.7216 93.7838 38.1388 94.6764C38.0162 94.6999 37.9327 94.8075 37.9327 94.9346C37.9327 94.9483 37.9334 94.962 37.9353 94.9763C37.9555 95.1191 38.0742 95.2176 38.2111 95.2065C42.2359 94.8551 46.0944 93.2772 49.8264 91.7522C50.0325 91.6681 50.2385 91.584 50.4439 91.4999C50.4882 92.0247 50.5371 92.5529 50.5912 93.0843C47.1089 94.5063 42.9492 96.0645 38.3872 96.9525C38.2646 96.9767 38.1818 97.0836 38.1811 97.2107C38.1811 97.2244 38.1818 97.2381 38.1837 97.2525C38.204 97.3952 38.322 97.4943 38.4595 97.4826C42.485 97.1305 46.3448 95.5534 50.0768 94.027C50.2731 93.9468 50.4687 93.8666 50.6643 93.7871C50.7386 94.4691 50.8214 95.1576 50.9114 95.8494C50.8794 95.8761 50.8546 95.912 50.841 95.953C50.8331 95.9759 50.8299 95.9993 50.8299 96.0221C50.8299 96.1004 50.8729 96.1734 50.9472 96.2132C52.928 97.2707 55.5986 97.3379 57.49 97.2075C59.6383 97.0595 62.0123 96.7159 63.3332 95.2873C63.3736 95.2437 63.3938 95.1889 63.3938 95.1335C63.3938 95.0839 63.3775 95.0344 63.3443 94.992C63.3332 94.9783 63.3215 94.9659 63.3084 94.9555C63.2654 93.4383 63.1806 91.897 63.0985 90.4058C63.0568 89.6469 63.0137 88.8626 62.9766 88.0913C62.9492 87.5227 62.9251 86.9424 62.9016 86.3811C62.8931 86.1705 62.884 85.9599 62.8749 85.748C62.9231 85.7695 62.9779 85.7799 63.0365 85.7767C66.1361 85.6176 69.181 85.4487 72.0087 85.289C72.0204 85.2883 72.0321 85.287 72.0432 85.2857C72.0765 85.7578 72.1788 86.2305 72.3484 86.6927C72.2401 87.1328 72.1723 87.5449 72.1723 87.9322C72.1723 88.6833 72.4299 89.3411 73.1529 89.9318C73.3114 90.0609 73.4704 90.1959 73.636 90.3367C74.1433 91.3095 74.8077 92.3755 75.6833 93.1038C76.6365 93.896 77.9353 94.2311 79.652 94.1274C80.9749 94.0479 82.4889 93.9136 83.7081 93.33C84.5511 92.9258 85.4704 92.131 85.4704 91.1556C85.4704 91.1413 85.4704 91.1276 85.4704 91.1133C85.4913 91.0761 85.5096 91.0363 85.5265 90.9939C85.7299 90.8785 85.9073 90.7103 86.0455 90.4684C86.7614 90.7768 87.4825 91.0957 88.1834 91.4054C90.2411 92.3149 92.366 93.2544 94.513 94.0075C94.5293 94.1327 94.6173 94.2344 94.751 94.2689C99.3149 95.4425 104.011 96.4159 108.552 97.3568L109.86 97.628C110.738 97.8106 111.638 98.0075 112.507 98.1979C115.971 98.9561 119.553 99.7405 123.098 99.9152C123.143 99.9178 123.185 99.9074 123.222 99.8885C123.276 99.9022 123.324 99.8943 123.368 99.8839C123.479 99.8585 123.572 99.7633 123.595 99.6531C123.638 99.4399 123.687 99.2573 123.745 99.0937C123.756 99.0624 123.767 99.0305 123.78 98.9992C123.832 98.8616 123.891 98.7058 123.891 98.5362C123.891 98.5336 123.891 98.531 123.891 98.5284C123.891 98.486 123.877 98.445 123.854 98.4111C123.854 98.4045 123.854 98.3987 123.854 98.3921C123.854 98.2865 123.792 98.1959 123.697 98.162C122.328 97.3 120.794 96.6324 119.31 95.9869C118.697 95.7203 118.063 95.4445 117.458 95.1615C116.522 94.724 115.571 94.2767 114.652 93.8438L113.77 93.4291C113.524 93.3131 113.277 93.1853 113.017 93.049C112.389 92.7217 111.74 92.3834 111.072 92.219C110.997 92.2008 110.919 92.2197 110.858 92.266C108.387 91.4621 105.849 90.7703 103.342 90.117C103.991 88.978 104.25 87.3597 104.251 85.8399C104.251 85.3802 104.227 84.9297 104.183 84.5046C104.837 85.1116 105.992 85.1697 106.776 85.2094L106.872 85.214C108.267 85.2857 109.706 85.3607 111.14 85.3411C111.356 86.2259 111.836 87.2411 112.386 87.6974C112.973 88.1851 114.008 88.0991 114.805 87.9726C114.805 87.9811 114.805 87.9889 114.805 87.9974C114.805 88.2738 114.845 88.5392 114.927 88.7791C115.093 89.2662 115.43 89.6417 115.902 89.8666C117.676 90.711 120.388 90.4247 121.42 90.2728C121.432 90.2807 121.444 90.2872 121.457 90.293C121.547 90.3348 121.641 90.3256 121.716 90.2767C124.163 92.9675 126.297 95.1165 128.705 96.8358C131.6 98.9027 134.528 100.04 137.657 100.314C138.33 100.372 139.019 100.402 139.726 100.402C142.317 100.402 145.145 100.005 148.307 99.2013C151.732 98.3302 154.773 96.8684 157.345 94.8564C162.362 90.932 166.697 85.849 169.882 80.1578C173.167 74.2872 175.145 67.8911 175.603 61.66C175.661 60.8704 175.707 60.0593 175.707 59.2508C175.707 56.5966 175.209 53.9794 173.011 52.3103C169.89 49.9397 165.805 50.6993 162.594 51.6251C162.461 51.6629 162.379 51.777 162.379 51.9074C162.379 51.9361 162.383 51.9654 162.39 51.9948C162.435 52.1584 162.591 52.249 162.753 52.2067C166.139 51.3141 169.976 50.7175 172.771 53.0634C174.573 54.576 174.972 56.9656 174.972 59.1811C174.972 60.1838 174.89 61.1508 174.819 61.9847C174.332 67.747 172.49 73.6802 169.493 79.1439C166.674 84.2803 162.992 88.871 158.549 92.7876C155.784 95.2247 152.959 96.8821 149.913 97.8529C146.699 98.8772 143.287 99.4477 140.046 99.5025C136.146 99.569 132.647 98.5617 129.646 96.5085C126.857 94.6001 124.524 92.0384 122.268 89.5609L122.253 89.5433C122.242 89.5315 122.231 89.5204 122.22 89.51C123.098 88.3664 124.534 87.7281 125.869 87.2508C126.824 86.9092 127.812 86.7736 128.768 86.6419C129.392 86.5558 130.037 86.4671 130.676 86.3224C130.795 86.295 130.877 86.1874 130.877 86.059C130.877 86.057 130.877 86.0551 130.877 86.0531C130.875 85.926 130.789 85.8217 130.67 85.7995C129.252 85.5361 127.372 85.881 125.082 86.8251C123.675 87.4054 122.154 88.1962 121.412 89.6697H121.277C119.947 89.6782 118.69 89.6854 117.395 89.4767L117.362 89.4715C116.79 89.3796 116.005 89.2531 115.692 88.738C115.569 88.5353 115.525 88.3064 115.525 88.0639C115.525 87.7692 115.589 87.4549 115.651 87.1465C115.687 86.9737 115.72 86.8101 115.743 86.6497C115.958 86.4704 116.145 86.28 116.312 86.0688C116.428 85.9234 116.515 85.7643 116.599 85.6111C116.673 85.4767 116.742 85.3503 116.827 85.2375C116.839 85.2218 116.848 85.2042 116.853 85.1853C116.896 85.0373 116.966 84.9402 117.067 84.8893C117.212 84.8156 117.431 84.8274 117.718 84.9232C117.77 85.0523 117.797 85.1801 117.797 85.3079C117.797 85.3966 117.785 85.4859 117.759 85.5759C117.757 85.5843 117.755 85.5928 117.754 85.6013C117.729 85.821 117.689 86.044 117.65 86.2598C117.586 86.6112 117.522 86.9685 117.522 87.3225C117.522 87.7933 117.636 88.2595 118.017 88.7035C118.102 88.8026 118.238 88.8261 118.355 88.7635C118.453 88.7107 118.512 88.6122 118.512 88.5085C118.512 88.4831 118.508 88.4577 118.501 88.4329C118.467 88.3123 118.43 88.1949 118.394 88.0808C118.746 88.0808 119.23 88.0085 119.569 87.6753C119.616 87.6283 119.641 87.5677 119.641 87.5064C119.641 87.4706 119.632 87.4347 119.615 87.4008C119.566 87.3049 119.458 87.2502 119.352 87.2678C119.186 87.2945 119.028 87.333 118.875 87.3695C118.656 87.4223 118.446 87.4725 118.226 87.4895C118.195 87.3428 118.177 87.1935 118.176 87.0376C118.176 87.005 118.177 86.9724 118.178 86.9392C118.19 86.7058 118.248 86.4795 118.31 86.2402C118.357 86.0551 118.406 85.8634 118.432 85.6658C118.447 85.553 118.455 85.4442 118.455 85.3385C118.455 84.7791 118.242 84.3371 117.851 84.0997C117.447 83.8546 117.009 83.9035 116.679 84.2301C116.487 84.4199 116.383 84.667 116.281 84.9062C116.232 85.0236 116.185 85.1345 116.129 85.2342C115.953 85.553 115.72 85.8497 115.427 86.1314C115.419 86.0818 115.396 86.0342 115.362 85.9983C115.258 85.8895 115.125 85.8282 115.007 85.7741C114.926 85.7369 114.849 85.7017 114.789 85.6554C114.613 85.5204 114.476 85.3405 114.394 85.1351C114.374 85.0862 114.343 85.0451 114.304 85.0151C114.307 84.993 114.31 84.9708 114.312 84.9486C114.835 84.9265 115.406 84.8691 115.852 84.6526C115.929 84.6155 115.977 84.5353 115.977 84.4479C115.977 84.4381 115.977 84.4283 115.975 84.4179C115.963 84.3188 115.892 84.2386 115.798 84.2197C115.342 84.1252 114.788 84.2008 114.297 84.2999C114.251 83.9113 114.151 83.5664 114.087 83.3701C113.965 83.0024 113.761 82.3863 113.219 82.2624C113.203 82.2585 113.187 82.2552 113.171 82.2526C113.408 82.2442 113.646 82.2376 113.882 82.2324C114.079 82.2285 114.224 82.0753 114.224 81.8751C114.224 81.8719 114.224 81.8686 114.224 81.8653C114.22 81.6658 114.072 81.5198 113.875 81.523C112.778 81.5465 111.672 81.6065 110.572 81.703C112.895 80.7778 115.408 79.7816 118.294 78.6406C118.3 78.638 118.306 78.6354 118.312 78.6327C118.453 78.6562 118.593 78.6764 118.731 78.694C118.733 79.6825 119.132 80.5483 119.917 81.2668C121.753 82.9477 125.11 83.3284 126.794 83.1739C126.928 83.1615 127.036 83.0487 127.044 82.9111C127.044 82.9053 127.044 82.8994 127.044 82.8929C127.044 82.7723 126.963 82.6719 126.841 82.6445C126.318 82.5304 125.743 82.4463 125.133 82.3583C122.613 81.9925 119.761 81.5785 119.279 78.7508C119.998 78.8101 120.65 78.8029 121.166 78.7736C121.36 78.7625 121.483 78.5884 121.49 78.4261C121.49 78.4208 121.49 78.4156 121.49 78.4104C121.49 78.252 121.382 78.1281 121.225 78.1059C120.871 78.0564 120.485 78.016 120.078 77.9736C117.701 77.7239 114.743 77.4135 113.98 74.9613C113.923 74.7762 113.894 74.5975 113.894 74.4319C113.894 74.1464 113.978 73.8986 114.143 73.718C114.345 73.4963 114.657 73.3907 115.042 73.4076C115.067 73.5661 115.192 73.6795 115.352 73.6808C115.472 73.6789 115.575 73.6202 115.631 73.523C115.84 73.5987 116.054 73.7095 116.264 73.8171C116.424 73.8993 116.589 73.9847 116.747 74.0512C117.31 74.2898 117.89 74.501 118.47 74.679C119.795 75.0865 121.226 75.3415 122.723 75.4386C123.071 75.4608 123.427 75.4764 123.771 75.4908C124.85 75.5371 125.965 75.5847 127.015 75.8598C128.633 76.2836 129.675 77.302 130.741 78.7019C131.727 79.9948 133.008 81.6743 134.819 81.9436C134.085 82.4306 133.349 82.9033 132.623 83.3695C131.823 83.8826 130.997 84.4133 130.191 84.9519C130.112 85.0047 130.069 85.0888 130.069 85.1762C130.069 85.2218 130.081 85.2681 130.105 85.3105C130.177 85.4344 130.329 85.48 130.459 85.4168C133.289 84.0234 135.901 82.162 138.303 80.3579C140.677 78.5747 142.883 76.652 144.861 74.6419C146.934 72.5372 148.785 70.2963 150.364 67.9804C151.808 65.8634 153.586 63.0442 154.523 60.013C154.533 59.983 154.537 59.953 154.537 59.923C154.537 59.7972 154.458 59.6799 154.331 59.6297C154.177 59.5684 154.013 59.629 153.942 59.7731C153.736 60.1891 153.534 60.6044 153.331 61.0191C152.259 63.215 151.246 65.289 149.908 67.2913C149.878 67.3356 149.849 67.3799 149.819 67.4243C150.835 62.0961 151.331 57.4415 151.33 53.2479C151.33 53.1286 151.33 53.0099 151.329 52.8913C151.327 52.7543 151.234 52.6481 151.104 52.6324C152.331 51.6616 153.311 50.059 154.111 48.7511L154.261 48.5053C155.434 46.5943 156.402 44.5359 157.196 42.7742C157.886 41.242 158.568 39.6759 159.229 38.1614C159.477 37.5922 159.725 37.023 159.974 36.4544C160.043 36.2966 160.113 36.1382 160.183 35.9798C160.888 34.3817 161.615 32.7335 161.853 30.9783C166.304 30.7905 170.48 32.8887 174.274 37.2231C177.283 40.6611 180.073 44.9995 182.565 50.117C182.62 50.2292 182.746 50.2755 182.858 50.2246C182.948 50.1842 183.001 50.0968 183.002 50.0049C183.002 49.9736 182.996 49.9416 182.983 49.911L182.989 49.9149ZM74.807 80.8384C74.8468 80.8469 74.8866 80.8476 74.925 80.8404C74.9407 80.8482 74.9583 80.8534 74.9766 80.8567C75.6103 80.9571 76.2584 80.9128 76.8863 80.8697C77.1901 80.8489 77.5043 80.8274 77.8082 80.8234C79.1871 80.8052 80.3001 80.9128 81.3087 81.1631C82.4204 81.4389 83.3828 81.8745 84.1684 82.458C84.7141 82.8635 85.0923 83.2534 85.3583 83.6844C85.6582 84.1708 85.7084 84.637 85.7658 85.1768C85.7775 85.2877 85.7899 85.4005 85.8043 85.5165C85.8082 85.5478 85.818 85.5778 85.8316 85.6052C84.9977 85.405 84.1638 85.2101 83.3306 85.023C83.3326 85.0112 83.3332 84.9995 83.3332 84.9871C83.3332 84.9741 83.3319 84.9604 83.3299 84.9473C83.311 84.8306 83.2165 84.7511 83.0978 84.7511C82.4634 84.7569 81.8336 84.8495 81.2214 84.9473C81.2631 84.9199 81.3048 84.8932 81.3466 84.8665C82.2137 84.3149 82.9955 84.1819 83.9748 84.1473C84.0791 84.1434 84.1677 84.0678 84.1906 83.9628C84.1945 83.9465 84.1958 83.9296 84.1958 83.9133C84.1958 83.8305 84.1502 83.7555 84.0739 83.7177C82.6708 83.0155 81.0251 84.2236 79.8639 85.1442C79.4453 85.1873 78.9524 85.1892 78.4817 85.1195C78.0605 84.9402 77.6341 84.7772 77.2038 84.6461C77.1647 84.6161 77.1275 84.5848 77.0923 84.5516C76.8256 84.3005 76.6907 83.9726 76.6913 83.5755C76.6913 83.5455 76.692 83.5149 76.6939 83.4842C76.7161 83.0409 76.823 82.7462 77.0101 82.608C77.2957 82.3967 77.7964 82.5232 78.2815 82.6451C78.6584 82.7403 79.0489 82.8381 79.3743 82.7873C80.1234 82.6706 80.587 81.9455 80.7513 81.6391C80.7767 81.5922 80.7891 81.5413 80.7891 81.4924C80.7891 81.4044 80.7493 81.3196 80.6757 81.2609C80.5603 81.1697 80.4025 81.1736 80.291 81.2707C80.1358 81.3959 79.9911 81.5367 79.8587 81.69L78.4145 81.808C78.3565 81.8014 78.292 81.7825 78.2248 81.763C78.1361 81.7369 78.0351 81.7076 77.9275 81.7017C77.4946 81.6769 77.0727 81.8086 76.7057 82.0831C76.2356 82.4352 75.9806 82.9692 75.9813 83.5305C75.9813 83.7679 76.0276 84.0098 76.1221 84.2451C76.1423 84.2947 76.1632 84.3436 76.1854 84.3905C76.1221 84.3325 76.0628 84.2719 76.0074 84.2073C75.7257 83.8807 75.581 83.4947 75.5816 83.1009C75.5816 82.8466 75.6422 82.5891 75.7648 82.3413C75.7805 82.31 75.7876 82.2754 75.7876 82.2415C75.7876 82.1731 75.757 82.1046 75.7009 82.059C75.6227 81.9951 75.5164 81.9931 75.4362 82.0551C75.0822 82.3257 74.8983 82.7312 74.899 83.1863C74.899 83.464 74.9674 83.7607 75.1083 84.056C75.5347 84.9551 76.484 85.4409 77.2051 85.69C77.3022 85.7239 77.4026 85.6945 77.4639 85.6195C77.7228 85.7336 78.0123 85.8184 78.3317 85.8732C78.8801 86.1385 79.4499 86.3726 80.0093 86.6021C80.3679 86.7495 80.7063 86.8883 81.0395 87.035C82.4367 87.6505 83.8594 88.2595 85.2533 88.8541C85.2572 88.8691 85.2631 88.8834 85.2703 88.8978C85.2768 88.9102 85.2846 88.9219 85.2938 88.933C85.432 89.0908 85.5011 89.2368 85.5011 89.3672C85.5011 89.3848 85.4998 89.4018 85.4972 89.4187C85.4939 89.4415 85.488 89.465 85.4802 89.4878C83.7713 88.7609 82.1707 88.0737 80.6039 87.3936C80.4455 87.3245 80.2858 87.2528 80.126 87.1791C80.081 87.1263 80.0217 87.0852 79.9546 87.0631C79.9154 87.05 79.8763 87.0448 79.8365 87.0448C79.6644 86.964 79.4929 86.8825 79.3241 86.8023C78.4289 86.3758 77.5024 85.9351 76.5583 85.6502C76.4396 85.6143 76.319 85.6665 76.2656 85.7773C76.2473 85.8145 76.2388 85.8543 76.2388 85.8934C76.2388 85.9762 76.2779 86.0557 76.349 86.1053C77.1653 86.6758 78.1205 87.0917 79.0639 87.4816C77.5956 88.1193 75.2328 87.3004 73.9516 86.3433C73.3629 85.9032 73.0369 85.407 72.956 84.8274C72.9423 84.7315 72.9358 84.635 72.9358 84.5372C72.9352 83.3043 73.9581 81.9586 74.792 80.8613C74.7979 80.8534 74.8044 80.845 74.8103 80.8371L74.807 80.8384ZM111.074 92.8326C111.61 93.212 112.243 93.4904 112.858 93.7604C113.108 93.8699 113.344 93.9736 113.571 94.0825C114.671 94.6112 115.795 95.138 116.881 95.6472L117.273 95.8311C117.835 96.0945 118.411 96.3807 118.967 96.6578C119.7 97.0223 120.445 97.3933 121.202 97.7343C114.856 96.6109 108.496 95.2189 102.323 93.8679C100.059 93.3724 97.7182 92.8606 95.414 92.369C95.3893 92.3638 95.3651 92.3612 95.3417 92.3612C95.2804 92.3612 95.2224 92.3781 95.1728 92.4081C93.2755 91.3812 91.2243 90.561 89.237 89.7662C88.4018 89.4324 87.5379 89.0869 86.7053 88.7335C84.7617 87.9087 82.9687 87.1393 81.2246 86.3824C80.8758 86.2305 80.5192 86.0635 80.1697 85.8979C80.8615 85.823 81.6321 85.6652 82.4784 85.4246C82.5202 85.4839 82.5827 85.5296 82.661 85.5498C85.2866 86.2474 87.963 86.9274 90.5515 87.5853C92.8849 88.178 95.2986 88.7915 97.666 89.4155C98.9257 89.7473 100.206 90.0988 101.445 90.4384C104.55 91.2906 107.762 92.1714 110.962 92.8345C111.001 92.8424 111.04 92.8417 111.076 92.8332L111.074 92.8326ZM86.1674 89.2466L86.217 89.2675C87.0809 89.6358 87.9598 90.0238 88.8093 90.3993C90.7692 91.2658 92.7904 92.1591 94.8338 92.8932C94.7686 93.0608 94.7294 93.2668 94.7171 93.512C92.7722 92.442 90.6584 91.5964 88.6118 90.7781C87.8339 90.4671 87.0307 90.1457 86.2515 89.8177C86.2541 89.7845 86.2548 89.7519 86.2548 89.7193C86.2548 89.5556 86.2248 89.3966 86.1668 89.2466H86.1674ZM77.0193 92.5639C78.3428 92.9512 79.8711 92.6507 81.2201 92.3853C81.447 92.3403 81.6615 92.2986 81.874 92.2595C82.0227 92.2321 82.172 92.2054 82.3226 92.1786C83.0515 92.0489 83.8046 91.9152 84.5159 91.6955C84.3796 91.9093 84.2245 92.1089 84.0158 92.2816C83.6201 92.6102 83.1089 92.8424 82.408 93.0119C81.239 93.2942 80.0419 93.4402 78.94 93.4344C77.5272 93.4265 76.4396 92.9897 75.6162 92.0978C75.4766 91.9472 75.3456 91.7874 75.2197 91.6225C75.7889 92.0313 76.3907 92.3794 77.0206 92.5639H77.0193ZM72.7187 87.4999C72.8139 87.672 72.9189 87.8409 73.0336 88.0071C73.6713 88.9304 74.5834 89.7128 75.5927 90.2155C75.5907 90.2213 75.5888 90.2278 75.5875 90.2344C75.5823 90.2546 75.5803 90.2748 75.5803 90.2943C75.5803 90.4006 75.6488 90.4965 75.757 90.5297C76.7976 90.8479 77.9034 90.8935 78.9726 90.9372C79.255 90.949 79.5464 90.9607 79.83 90.9776C80.2173 91.0005 80.6046 91.0246 80.9919 91.0487C81.8884 91.1041 82.8116 91.1615 83.7277 91.2065C83.2771 91.3134 82.7973 91.3799 82.3845 91.438C82.1374 91.4725 81.904 91.5051 81.7065 91.5416C81.4887 91.582 81.2709 91.6251 81.0408 91.6707C79.8691 91.9041 78.6577 92.1454 77.5539 91.9335C76.5224 91.7353 75.6618 91.0461 74.8286 90.3798C74.659 90.2441 74.4843 90.104 74.3115 89.9716C74.202 89.8875 74.0879 89.806 73.9673 89.7206C73.9197 89.6867 73.8721 89.6528 73.8245 89.6189C73.7847 89.5674 73.7436 89.5165 73.7026 89.4657C73.6543 89.407 73.5839 89.3789 73.5141 89.3848C73.2742 89.1918 73.0616 88.9812 72.9306 88.7302C72.765 88.4133 72.7161 88.0404 72.7161 87.659C72.7161 87.6062 72.7167 87.5534 72.7187 87.5005V87.4999ZM95.2739 93.6645C95.2758 93.4846 95.3006 93.3164 95.3482 93.1501C95.3547 93.1273 95.3619 93.1045 95.3684 93.0816C95.4199 93.0973 95.4721 93.0953 95.5184 93.0784C99.9924 94.22 104.588 95.1726 109.036 96.0945L110.36 96.369C111.239 96.5516 112.14 96.7485 113.011 96.9395C116.373 97.6756 119.846 98.4358 123.289 98.6393C123.141 98.8753 123.066 99.1719 123.018 99.3956C115.905 98.2128 108.745 96.6468 101.819 95.1309C99.6735 94.6614 97.4581 94.1763 95.27 93.7089C95.2726 93.6945 95.2739 93.6789 95.2739 93.6639V93.6645ZM73.3563 86.7781C74.4224 87.6557 76.2075 88.4231 77.8082 88.4231C78.5756 88.4231 79.3006 88.2464 79.8841 87.8213C80.0634 87.8963 80.2388 87.9706 80.4136 88.0476C81.9373 88.7191 83.4916 89.3829 85.0043 90.0277C84.9462 90.2689 84.8569 90.4287 84.7369 90.503C84.645 90.5597 84.529 90.5701 84.3816 90.5343C84.3692 90.531 84.3562 90.5297 84.3431 90.5297C84.3353 90.5297 84.3275 90.5297 84.3197 90.5317C84.0986 90.5636 83.7902 90.5317 83.5177 90.5043C83.3769 90.49 83.2432 90.4763 83.1226 90.4704L80.8706 90.3667C80.4266 90.3465 79.9715 90.3348 79.5314 90.3237C78.5202 90.2976 77.4796 90.2715 76.4722 90.1372C76.4605 90.0929 76.4364 90.0518 76.4012 90.0192C76.0406 89.688 75.637 89.4142 75.2471 89.1494C74.7431 88.8071 74.2215 88.4538 73.8075 87.9804C73.3583 87.4673 73.0258 86.8844 72.8054 86.2207C72.9586 86.4156 73.1425 86.6014 73.3563 86.7775V86.7781ZM113.869 85.7043C113.92 85.7115 113.97 85.7056 114.016 85.6873C114.109 85.8627 114.236 86.0179 114.392 86.1457C114.643 86.3504 114.872 86.4508 115.077 86.4456C115.058 86.4606 115.039 86.4756 115.02 86.49C114.941 86.5519 114.907 86.6373 114.907 86.7208C114.907 86.7853 114.928 86.8492 114.964 86.8994C114.973 86.9118 114.982 86.9235 114.993 86.934C114.942 87.0826 114.902 87.2319 114.871 87.3806C114.062 87.4458 113.057 87.4803 112.623 86.8805C112.296 86.4274 112.116 85.9084 111.927 85.3594C111.912 85.3164 111.897 85.2727 111.882 85.229C111.934 85.1723 111.966 85.0966 111.969 85.0106C111.969 85.0067 111.969 85.0034 111.969 84.9995C111.969 84.8241 111.843 84.68 111.67 84.6559C111.649 84.6031 111.627 84.5509 111.604 84.4988C111.692 84.3377 111.785 84.1851 111.883 84.0391L111.902 84.0111C112.112 83.6988 112.503 83.1178 112.835 82.9724C113.041 82.8818 113.139 82.9437 113.171 82.9646C113.561 83.213 113.59 84.4433 113.603 85.0347C113.607 85.2094 113.611 85.3477 113.62 85.4363C113.635 85.5778 113.735 85.6854 113.868 85.7043H113.869ZM108.05 48.0052C108.277 48.1858 108.505 48.3638 108.732 48.5398C109.716 49.3014 110.932 50.0577 112.258 50.4691C112.135 50.4841 112.036 50.5786 112.02 50.7058C112.011 50.7781 112.001 50.8505 111.992 50.9235C111.956 50.977 111.934 51.0402 111.93 51.1107C111.923 51.2391 111.919 51.3675 111.918 51.4953C110.774 60.3514 109.518 69.7356 107.899 78.9724C107.895 78.9953 107.893 79.0187 107.893 79.0409C107.893 79.0911 107.903 79.14 107.922 79.1856C107.891 79.1908 107.859 79.1967 107.827 79.2019C106.668 79.4001 105.225 79.6472 104.194 80.2666C103.969 80.4016 103.756 80.5835 103.606 80.7974C103.285 78.2174 103.125 75.524 103.125 72.6774C103.125 70.5897 103.212 68.4186 103.384 66.149C103.576 63.6114 103.874 60.9069 104.296 57.8816C104.341 57.5556 104.378 57.2127 104.414 56.8808C104.512 55.9706 104.614 55.0292 104.9 54.205C105.357 52.8854 106.742 52.2908 107.855 51.8135C107.962 51.7672 108.031 51.674 108.045 51.5579C108.046 51.5449 108.046 51.5318 108.046 51.5188C108.046 51.3962 107.984 51.2684 107.887 51.1974C107.458 50.8838 107.034 50.5239 106.837 50.0173C106.762 49.823 106.725 49.6195 106.725 49.4246C106.725 49.1658 106.791 48.9226 106.919 48.7361C107.093 48.4844 107.372 48.3514 107.728 48.3514C107.732 48.3514 107.736 48.3514 107.741 48.3514C107.912 48.3514 108.043 48.2282 108.051 48.0567C108.051 48.0508 108.051 48.0456 108.051 48.0398C108.051 48.0274 108.051 48.0156 108.049 48.0032L108.05 48.0052ZM115.007 72.5216C114.602 72.4896 114.209 72.5627 113.856 72.815C113.453 73.1025 113.209 73.497 113.131 73.9866C113.112 74.1007 113.104 74.2161 113.104 74.3309C113.104 75.0455 113.433 75.7555 113.775 76.221C114.168 76.755 114.674 77.2101 115.288 77.5837C114.268 78.0257 113.232 78.4495 112.198 78.8623C111.098 78.8036 109.926 78.8714 108.631 79.0683C110.306 69.334 111.467 61.2192 112.239 53.8386C112.479 54.6764 112.852 55.4771 113.345 56.2015C113.423 56.3169 113.563 56.384 113.702 56.3742C113.827 56.3651 113.931 56.2947 113.986 56.1806C114.37 55.3884 114.885 54.7116 115.587 54.0909C115.892 55.4627 116.32 56.8163 116.862 58.119L116.909 58.2324C117.03 58.5271 117.17 58.8642 117.352 59.168C116.576 61.4891 115.987 63.8787 115.602 66.2741C115.295 68.1838 115.003 70.1913 115.003 72.1604C115.003 72.281 115.005 72.401 115.007 72.5209L115.007 72.5216ZM104.665 81.6723C104.665 81.6156 104.676 81.5263 104.715 81.3894C104.719 81.3744 104.721 81.3594 104.721 81.3437C104.721 81.3183 104.715 81.2929 104.704 81.2701C104.637 81.1397 104.603 81.0295 104.603 80.948C104.603 80.9128 104.609 80.8834 104.622 80.86C104.661 80.7889 104.783 80.74 104.964 80.723C104.979 80.7217 104.994 80.7178 105.009 80.7126C105.212 80.6324 105.429 80.5646 105.639 80.4994L105.76 80.4616C106.447 80.2464 107.161 80.0632 107.882 79.9172C108.707 79.7503 109.537 79.6492 110.375 79.5807C110.057 79.7046 109.741 79.8279 109.426 79.9504C108.812 80.1897 108.198 80.4283 107.586 80.6696C106.836 80.9649 106.057 81.2525 105.304 81.5309C105.097 81.6071 104.89 81.6841 104.681 81.7617C104.676 81.7539 104.666 81.7291 104.666 81.6723H104.665ZM115.855 70.9353C115.955 69.3222 116.06 67.6538 116.33 66.0127C116.663 63.9974 117.159 61.8862 117.807 59.7287C118.023 59.9152 118.284 60.0391 118.605 60.0561C118.718 60.0619 118.824 59.9889 118.867 59.8748C118.879 59.8422 118.885 59.8089 118.885 59.777C118.885 59.7007 118.852 59.629 118.79 59.5801C117.322 58.4267 116.751 56.253 116.248 54.3348C116.191 54.1151 116.134 53.8999 116.077 53.6906C116.356 53.4787 116.659 53.272 116.991 53.0686C117.005 53.0601 117.018 53.0497 117.03 53.0393C117.479 53.1292 117.941 53.1429 118.367 53.0914C118.544 53.0699 118.718 53.0367 118.892 52.9917C118.945 53.0719 119.033 53.1214 119.132 53.1175C120.577 53.0627 121.894 53.3105 123.068 53.8569C122.877 54.6797 122.597 55.5195 122.196 56.4753C122.144 56.5992 122.089 56.7446 122.029 56.8991C121.69 57.7851 121.182 59.1133 120.333 59.1133C120.312 59.1133 120.291 59.1126 120.27 59.1107C120.125 59.0996 119.999 59.1909 119.956 59.3382C119.947 59.3708 119.942 59.4028 119.942 59.4347C119.942 59.5501 120.001 59.6564 120.103 59.7098C120.391 59.8624 120.674 59.8931 120.943 59.8018C120.944 59.8018 120.946 59.8005 120.948 59.8005C121.011 60.2601 121.076 60.7198 121.14 61.1794C121.755 65.5772 122.39 70.1209 122.848 74.621C120.979 74.4808 119.321 74.1372 117.791 73.5745C117.553 73.4872 117.281 73.3548 116.993 73.2153C116.601 73.0256 116.172 72.8169 115.738 72.6774C115.782 72.0926 115.818 71.5077 115.854 70.9372L115.855 70.9353ZM125.236 53.9221C125.135 53.9547 125.061 54.044 125.055 54.1516C125.053 54.1861 125.051 54.22 125.049 54.2546C123.613 53.1103 121.849 52.4799 120.102 52.4746C120.915 51.9869 121.693 51.2235 122.43 50.19C124.528 47.2437 125.76 43.5273 125.89 39.9087C126.274 41.8008 126.553 43.6799 126.553 45.6587C126.553 45.7239 126.553 45.7897 126.552 45.8556C126.527 48.5548 126.084 51.2645 125.236 53.9214V53.9221ZM122.124 58.3726C122.722 57.0608 123.312 55.646 123.619 54.1405C124.116 54.4228 124.584 54.7625 125.024 55.1596C125.024 55.2267 125.023 55.2932 125.023 55.3604C125.023 56.0808 125.052 56.8026 125.081 57.5094C125.105 58.1144 125.13 58.7403 125.136 59.3506C125.142 59.9139 125.144 60.474 125.144 61.0282C125.144 62.2266 125.131 63.4008 125.105 64.5353C125.029 67.8578 124.829 71.2815 124.51 74.7142C124.279 74.6999 124.048 74.6882 123.818 74.6764C123.738 74.6725 123.659 74.668 123.58 74.664C123.152 70.415 122.526 64.8971 121.474 59.436C121.749 59.1413 121.96 58.7345 122.125 58.3726H122.124ZM111.833 83.0989L111.806 83.1328C111.456 83.569 111.171 84.0528 110.943 84.605C110.291 84.5718 109.639 84.5633 109.001 84.5555C108.247 84.5457 107.467 84.5366 106.705 84.4844C106.248 84.4531 105.765 84.4107 105.315 84.2673L104.854 84.0795C104.833 83.9517 104.822 83.8357 104.822 83.7327C104.822 83.5358 104.861 83.3838 104.938 83.2782C105.018 83.1687 105.144 83.1048 105.325 83.0839C105.345 83.0813 105.364 83.0754 105.382 83.0663C105.77 82.8642 106.366 82.8192 106.892 82.7801C107.138 82.7618 107.37 82.7442 107.579 82.7129C107.613 82.7077 107.644 82.6973 107.67 82.6816C107.675 82.6856 107.679 82.6895 107.685 82.6934C107.774 82.7638 107.89 82.7781 108.003 82.7332C108.3 82.6145 108.599 82.4945 108.901 82.3745C108.91 82.3954 108.922 82.4143 108.935 82.4326C109.002 82.5232 109.11 82.5675 109.23 82.5539C110.424 82.4156 111.634 82.3204 112.841 82.2689C112.414 82.3745 112.076 82.797 111.834 83.0989H111.833ZM107.78 82.0583C107.707 82.087 107.648 82.1366 107.608 82.1998C107.586 82.192 107.561 82.1868 107.537 82.1855C107.154 82.16 104.33 82.2357 103.803 83.2587C103.746 83.3701 103.717 83.4869 103.718 83.6075C103.718 83.6303 103.719 83.6525 103.721 83.6759C103.158 83.8996 102.577 84.133 101.997 84.3749C101.804 84.3462 101.61 84.3449 101.403 84.3703C101.331 84.3794 101.259 84.3918 101.19 84.4036C101.041 84.4296 100.901 84.4538 100.768 84.4433C100.764 84.4433 100.76 84.4433 100.757 84.4433C100.645 84.442 100.548 84.4088 100.46 84.3429C100.454 84.3025 100.451 84.2673 100.451 84.2373C100.451 84.2112 100.453 84.1891 100.457 84.1701C102.197 83.5873 103.929 82.8851 105.609 82.205C106.458 81.8608 107.336 81.5048 108.2 81.171C108.585 81.0217 108.971 80.873 109.357 80.725C111.582 79.8683 113.881 78.9829 116.101 78.0042C116.41 78.1392 116.74 78.2578 117.09 78.3609C113.584 79.7483 110.604 80.9323 107.78 82.0603L107.78 82.0583ZM150.808 52.8789C150.675 54.0831 150.573 55.3089 150.474 56.4949C150.36 57.8595 150.242 59.2704 150.077 60.6526C149.776 63.1759 149.346 65.7193 148.93 68.1786L148.837 68.7309C148.833 68.7543 148.831 68.7765 148.831 68.7987C148.831 68.8117 148.831 68.8248 148.833 68.8378C147.479 70.6829 145.93 72.4916 144.214 74.2331C143.589 74.8675 142.935 75.4979 142.255 76.1226C141.966 73.3151 141.822 70.4567 141.823 67.5586C141.823 62.6093 142.245 57.5433 143.087 52.4147C143.089 52.401 143.091 52.3879 143.091 52.3749C143.091 52.2582 143.008 52.1565 142.889 52.1349C142.763 52.1115 142.649 52.1897 142.623 52.3156C141.612 57.2446 141.106 62.355 141.107 67.5892C141.107 70.5754 141.272 73.6019 141.603 76.6572C141.605 76.6735 141.608 76.6898 141.612 76.7054C140.326 77.853 138.951 78.9783 137.502 80.0704C136.888 80.5333 136.257 80.9799 135.621 81.4135C133.759 81.4644 132.433 79.7111 131.353 78.2826C131.288 78.1959 131.223 78.1111 131.16 78.0277C131.072 77.9123 130.983 77.7975 130.892 77.6828C130.951 77.6254 130.993 77.5465 131.004 77.4487C131.432 73.5087 132.148 69.5459 132.841 65.7141C133.302 63.1583 133.78 60.5157 134.168 57.9012C134.693 54.3687 134.967 51.4543 135.033 48.7296C135.042 48.3143 135.048 47.8989 135.048 47.4869C135.048 47.1341 135.044 46.784 135.037 46.4378C135.036 46.4026 135.035 46.3667 135.035 46.3296C135.035 46.2031 135.039 46.0649 135.043 45.9208C135.048 45.7649 135.052 45.6026 135.052 45.4396C135.052 45.0686 135.028 44.6957 134.927 44.3938C134.635 43.5227 133.476 43.082 132.545 42.7273C132.483 42.7038 132.421 42.6803 132.361 42.6569C132.772 42.3055 133.206 41.9312 133.629 41.5583C134.261 41.5759 134.82 41.7454 135.368 42.3674C135.949 43.0266 136.404 43.8076 136.843 44.5627C137.412 45.5407 138.001 46.5519 138.879 47.3389C140.164 48.4909 141.644 48.9369 142.94 48.5607C143.171 48.4935 143.396 48.401 143.612 48.2888C143.664 48.3214 143.731 48.3273 143.791 48.3019C144.471 48.0104 145.072 47.5618 145.653 47.1276C145.873 46.9633 146.102 46.7925 146.328 46.6354L146.421 46.5708C146.966 46.1907 147.584 45.7591 148.225 46.1268C148.625 46.3556 148.837 46.8244 149.004 47.2456C149.327 48.0587 149.525 48.9389 149.715 49.791C149.907 50.6477 150.104 51.5312 150.432 52.3631C150.411 52.3938 150.391 52.4251 150.371 52.4564C150.34 52.5046 150.325 52.5587 150.325 52.6129C150.325 52.6924 150.357 52.7719 150.42 52.8332C150.523 52.9343 150.675 52.9512 150.79 52.8737C150.798 52.8684 150.806 52.8632 150.814 52.8574C150.812 52.8645 150.811 52.8717 150.81 52.8789H150.808ZM124.575 35.05C124.589 35.0911 124.604 35.1315 124.621 35.1713C124.592 35.1433 124.575 35.1041 124.575 35.0611C124.575 35.0572 124.575 35.0533 124.575 35.0494V35.05ZM124.056 34.1822C124.103 34.3902 124.157 34.5962 124.223 34.7964C124.269 34.9385 124.403 35.024 124.549 35.0044C124.552 35.0044 124.555 35.0037 124.559 35.0031C124.56 35.0077 124.562 35.0122 124.563 35.0161C124.559 35.0305 124.557 35.0461 124.557 35.0618C124.557 35.1224 124.588 35.1752 124.635 35.2059C124.886 35.7809 125.393 36.2471 126.15 36.5953C126.652 36.8267 127.177 36.993 127.684 37.1547C128.225 37.3268 128.785 37.5048 129.311 37.7604C129.392 37.8002 129.483 37.8015 129.562 37.7702C129.509 38.1953 129.453 38.6549 129.453 39.1074C129.453 39.9367 129.641 40.7407 130.381 41.2564C130.945 41.6495 131.595 41.6691 132.099 41.643C132.245 41.6352 132.387 41.6248 132.526 41.6143C132.162 41.911 131.802 42.2083 131.449 42.4997C131.376 42.5604 131.334 42.6543 131.334 42.7566C131.334 42.7723 131.335 42.7879 131.337 42.8042C131.352 42.9268 131.421 43.0292 131.521 43.0774C131.754 43.1909 132.005 43.2984 132.247 43.4028C132.709 43.601 133.187 43.8057 133.585 44.0678C134.256 44.5112 134.306 45.1038 134.306 45.8438C134.306 45.9064 134.306 45.9703 134.305 46.0355C134.305 46.1001 134.304 46.1653 134.304 46.2311C134.304 46.3015 134.304 46.3726 134.306 46.4437C134.312 46.7579 134.315 47.0742 134.315 47.3923C134.315 48.4799 134.28 49.5993 134.207 50.7873C134.042 53.4904 133.698 56.3338 133.09 60.0058C132.79 61.8236 132.454 63.6675 132.129 65.4507C131.443 69.2212 130.733 73.1162 130.311 77.0014C129.738 76.384 129.068 75.8272 128.221 75.451C127.27 75.0285 126.253 74.8577 125.231 74.7677C125.557 71.2254 125.755 67.7131 125.819 64.3266C125.829 63.82 125.842 63.2971 125.854 62.7918C125.881 61.7095 125.909 60.6135 125.909 59.5182C125.909 57.9918 125.856 56.4662 125.676 54.9816C125.691 54.9568 125.705 54.9288 125.716 54.8988C126.767 51.9009 127.3 48.7928 127.299 45.6613C127.299 42.1262 126.778 39.14 125.748 36.7856C125.693 36.6598 125.563 36.6024 125.432 36.6455C125.364 36.6683 125.309 36.7133 125.274 36.77C125.148 36.6383 125.017 36.5092 124.888 36.3821C124.732 36.2288 124.586 36.0834 124.448 35.9361C124.29 35.7672 124.132 35.5912 123.978 35.421C123.665 35.0735 123.344 34.7175 123.001 34.3876C123.311 34.3993 123.649 34.4006 123.94 34.28C123.99 34.2598 124.03 34.2259 124.057 34.1842L124.056 34.1822ZM95.1643 49.9762C95.1695 49.9801 95.1754 49.9834 95.1813 49.9873C95.2941 50.0544 95.4342 50.0336 95.5131 49.9377C96.6613 48.5509 97.9946 47.6733 99.7094 47.1765C100.528 46.9392 101.379 46.771 102.201 46.6086C103.283 46.3948 104.402 46.1737 105.477 45.7897C106.186 46.4665 106.93 47.1022 107.681 47.7092C106.838 47.6759 106.109 48.3468 106.008 49.2694C106 49.3418 105.996 49.4142 105.995 49.4859C105.995 50.1483 106.331 50.7801 107.018 51.4015C106.275 51.7294 105.548 52.1089 104.974 52.7087C104.188 53.5315 104.03 54.6073 103.877 55.6466L103.853 55.8116C103.355 59.1583 103.01 61.9579 102.769 64.6226C102.515 67.438 102.387 70.1124 102.388 72.6689C102.388 76.0919 102.617 79.3049 103.076 82.3693C102.199 82.7129 101.327 83.0781 100.483 83.4829C100.329 83.4217 100.166 83.4451 100.02 83.556C99.935 83.6199 99.8607 83.7131 99.8039 83.8226C99.7231 83.8709 99.6774 83.9543 99.6781 84.045C99.6781 84.0808 99.6853 84.1173 99.7003 84.1538C99.6957 84.1917 99.6931 84.2295 99.6931 84.2666C99.6931 84.3833 99.7172 84.4975 99.772 84.5985C100.145 85.2818 100.827 85.1423 101.374 85.0308C101.532 84.9982 101.686 84.9669 101.828 84.9532C101.915 85.0712 102.064 85.1136 102.209 85.0536C102.676 84.8593 103.14 84.6709 103.606 84.4851C103.595 85.4194 103.58 86.308 103.45 87.2189C103.387 87.657 103.277 88.0965 103.17 88.5216C103.05 89.0001 102.926 89.495 102.866 89.997C102.207 89.8262 101.549 89.658 100.895 89.4904C99.8978 89.2349 98.8664 88.9708 97.8551 88.7054C96.9971 88.4805 96.1397 88.2536 95.2817 88.0267C92.3099 87.2411 89.2638 86.4358 86.2111 85.6978C86.2359 85.6776 86.2574 85.6528 86.2737 85.6228C86.438 85.332 86.5195 85.0269 86.5195 84.7113C86.5195 84.6572 86.5169 84.6031 86.5123 84.5483C86.957 81.2864 89.5617 79.3493 92.0823 77.4754L92.3653 77.2649C94.3956 75.7516 95.888 74.1926 96.9625 72.4453C97.3726 75.8063 97.9053 79.2176 98.5593 82.664C98.5808 82.7788 98.6453 82.8694 98.7392 82.9196C98.852 83.8989 98.94 84.9186 98.94 85.9729C98.94 86.812 98.884 87.6727 98.7405 88.5516C98.7373 88.5737 98.7353 88.5953 98.7353 88.6168C98.7353 88.7335 98.7868 88.8424 98.8787 88.9173C98.9889 89.0073 99.1402 89.034 99.2628 88.9864C99.3749 88.9428 99.4506 88.8443 99.4701 88.7159C99.6181 87.7353 99.6918 86.799 99.6918 85.9123C99.6918 84.7433 99.5627 83.659 99.3058 82.6699C99.3156 82.6353 99.3208 82.5995 99.3208 82.5623C99.3208 82.5362 99.3182 82.5089 99.313 82.4821C98.6206 78.8433 98.0514 75.1276 97.6002 71.2893C97.6563 71.1746 97.711 71.0592 97.7645 70.9424C97.784 70.9001 97.7932 70.8564 97.7932 70.814C97.7932 70.7155 97.7423 70.623 97.6517 70.5708C97.6074 70.5454 97.5604 70.533 97.5135 70.533C97.0264 66.2181 96.6874 61.7467 96.4892 57.053C96.4827 56.8978 96.362 56.7856 96.2043 56.7876C96.053 56.7915 95.9402 56.9082 95.9402 57.0595V57.0614C95.9748 61.6756 96.2727 66.443 96.8295 71.3167C96.6939 71.5221 96.5603 71.7274 96.4292 71.9289C95.7687 72.9467 95.1448 73.9077 94.2946 74.7495C93.4385 75.5964 92.452 76.3253 91.4975 77.0295C91.0789 77.3385 90.646 77.658 90.2287 77.984C88.6796 79.1948 86.676 81.0262 86.1505 83.5175C85.4574 82.3693 83.9382 81.392 83.017 80.9988C81.962 80.5483 80.7832 80.2888 79.4127 80.2041C78.0944 80.1226 76.6052 80.0665 75.3423 80.3847C75.9044 79.4843 76.4507 78.5669 76.9808 77.6763C78.0625 75.8611 79.1806 73.984 80.4436 72.2275C82.2339 69.7376 84.259 67.3786 86.2176 65.0966L86.601 64.65C90.1485 60.5138 94.17 55.8259 95.2002 50.1594C95.2028 50.1431 95.2048 50.1274 95.2041 50.1118C95.2041 50.0622 95.1898 50.016 95.1637 49.9768L95.1643 49.9762ZM50.1779 86.8772C48.5655 86.7547 46.9316 86.6712 45.3472 86.5897C45.1588 86.5799 44.9697 86.5701 44.78 86.5604C46.5743 86.4854 48.3692 86.4104 50.1635 86.3367C50.1674 86.516 50.1727 86.696 50.1779 86.8766V86.8772ZM52.7044 96.0802C52.349 96.0143 51.9859 95.9472 51.6181 95.8839C51.5562 95.0761 51.4858 94.2578 51.4186 93.4663C51.2843 91.8963 51.1454 90.2728 51.0626 88.6715C50.9942 87.3584 50.9661 86.0212 50.9394 84.7276C50.9192 83.7516 50.8983 82.7468 50.8599 81.7506C52.7272 82.2565 54.852 82.3211 56.3255 82.3237C56.3438 82.3237 56.3627 82.3237 56.381 82.3237C57.9947 82.3237 60.0387 82.1966 61.6595 81.2538C61.7208 81.2179 61.7593 81.1573 61.7678 81.0914C61.8199 81.1136 61.8734 81.1338 61.9275 81.1521C61.9608 82.6269 62.0468 84.1193 62.1309 85.5661C62.1792 86.4006 62.2294 87.2632 62.2685 88.1108C62.2978 88.7413 62.3226 89.3835 62.3474 90.0049C62.4119 91.6453 62.4784 93.3411 62.6212 95.0031C62.6258 95.0591 62.6414 95.1087 62.6649 95.1504C61.0375 95.9765 59.1656 96.444 57.0916 96.5411C55.5751 96.6122 54.1811 96.3534 52.7057 96.0802H52.7044Z" fill="#00399F"/>
<path d="M10.5667 76.2693C9.59262 73.8739 8.7685 71.8644 7.91373 69.8432C7.78789 69.5453 7.66141 69.2349 7.53883 68.9356C7.09417 67.8449 6.63386 66.7162 6.01707 65.7167C5.94079 65.5929 5.79344 65.5518 5.6676 65.6202C5.53851 65.69 5.4883 65.8439 5.55089 65.9782C6.81446 68.6866 7.94698 71.5189 9.04234 74.2579C9.38072 75.1042 9.73084 75.9792 10.079 76.8372L10.6045 78.1327C11.3067 79.8644 12.033 81.6554 12.76 83.4119C12.8741 83.6877 12.9889 83.972 13.0991 84.2471C13.5157 85.2825 13.946 86.3537 14.5074 87.3304C14.5524 87.4087 14.6345 87.4523 14.7206 87.4523C14.7584 87.4523 14.7975 87.4439 14.8347 87.4263C14.952 87.3702 15.0042 87.2424 14.9579 87.1231C13.9753 84.5679 12.9158 81.9932 11.8909 79.5032C11.4547 78.4444 11.0042 77.349 10.5661 76.2706L10.5667 76.2693Z" fill="#00399F"/>
<path d="M30.1673 88.4506C30.1673 88.4297 30.1647 88.4088 30.1594 88.388C30.1268 88.2647 30.0075 88.1904 29.8817 88.2158C26.0825 88.9839 21.9821 90.063 17.6939 91.4237C17.5824 91.4595 17.512 91.558 17.512 91.6688C17.512 91.6916 17.5153 91.7151 17.5211 91.7386C17.5322 91.7797 17.5518 91.8162 17.5779 91.8462C17.5485 91.8846 17.5296 91.9329 17.5264 91.9863C17.5264 91.9929 17.5264 91.9987 17.5264 92.0053C17.5264 92.1428 17.6261 92.2576 17.7643 92.2752C18.9725 92.4297 20.2106 92.5014 21.4077 92.5712C21.8295 92.596 22.2657 92.6214 22.6934 92.6494C23.1009 92.6768 23.5176 92.7094 23.9205 92.7407C24.9715 92.8229 26.0538 92.9083 27.1257 92.9083C27.2933 92.9083 27.4608 92.9063 27.6277 92.9017C27.7562 92.8985 27.8592 92.7948 27.8677 92.6612C27.8677 92.6553 27.8677 92.6494 27.8677 92.6436C27.8677 92.5262 27.7868 92.4297 27.6701 92.4114C26.4822 92.2237 25.259 92.1585 24.077 92.0959C23.6995 92.0757 23.3096 92.0548 22.9275 92.0307C22.475 92.002 22.0141 91.9681 21.5681 91.9355C20.592 91.8644 19.5893 91.7914 18.5917 91.7614C22.7052 90.8551 26.5409 89.8172 30.0036 88.6729C30.104 88.6396 30.1666 88.5503 30.1673 88.4506Z" fill="#00399F"/>
<path d="M23.4158 93.6847C21.5759 93.5165 19.6733 93.3418 17.7988 93.214C17.6906 93.2068 17.598 93.2538 17.5452 93.3346C17.1579 93.3085 16.7863 93.2831 16.4336 93.259L15.777 93.214C15.6205 93.2029 15.4947 93.3085 15.479 93.4637C15.4647 93.6124 15.5599 93.7799 15.7451 93.8034C18.0114 94.0961 21.2655 94.3074 24.1362 94.4939C25.405 94.576 26.6041 94.6542 27.6088 94.7318C28.2301 94.7801 28.8658 94.8335 29.4807 94.8857C31.6668 95.0702 33.9142 95.26 36.1369 95.26C36.6278 95.26 37.1168 95.2508 37.6045 95.23C37.733 95.2247 37.8301 95.1289 37.8347 95.0024C37.8347 94.9992 37.8347 94.9965 37.8347 94.9933C37.8347 94.8681 37.7428 94.7638 37.6169 94.7488C35.5671 94.501 33.4637 94.3902 31.4301 94.2839C30.1835 94.2187 28.8939 94.1509 27.6336 94.0525C26.2272 93.9423 24.7974 93.8112 23.4145 93.6847H23.4158Z" fill="#00399F"/>
<path d="M37.8675 97.025C35.8183 96.7772 33.7162 96.667 31.684 96.5601C30.436 96.4949 29.1457 96.4271 27.8841 96.328C27.875 96.3273 27.8659 96.3267 27.8567 96.326C27.4851 96.2967 27.0848 96.2641 26.661 96.2282C25.655 96.1428 24.6476 96.0502 23.6638 95.9602C22.4465 95.8488 21.2025 95.7347 19.9565 95.6336C18.3572 95.4934 16.8497 95.3676 15.6527 95.2861C15.4949 95.275 15.3704 95.3806 15.3547 95.5364C15.3404 95.6845 15.4356 95.852 15.6207 95.8761C17.3844 96.1037 20.0067 96.3638 23.579 96.6644C24.9664 96.785 26.348 96.8919 27.7101 96.9976L27.725 96.9989C27.7694 97.0021 27.8144 97.006 27.8587 97.0093C28.4801 97.0576 29.1158 97.111 29.7306 97.1632C31.9167 97.3477 34.1635 97.5374 36.3855 97.5374C36.8765 97.5374 37.3668 97.5283 37.8551 97.5074C37.9836 97.5022 38.0807 97.407 38.0859 97.2805C38.0859 97.2773 38.0859 97.2734 38.0859 97.2701C38.0859 97.1456 37.994 97.0413 37.8682 97.0263L37.8675 97.025Z" fill="#00399F"/>
<path d="M31.2907 85.0458C30.3082 82.4899 29.248 79.9145 28.2231 77.4239C27.7875 76.3657 27.337 75.271 26.8989 74.1939C25.9228 71.7946 25.0987 69.7832 24.2459 67.7678C24.1194 67.4692 23.9936 67.1595 23.871 66.8596C23.4263 65.7688 22.9667 64.6409 22.3499 63.6407C22.2762 63.5214 22.1367 63.479 22.0141 63.537C22.0069 63.5364 21.9998 63.5357 21.9926 63.5357C21.9861 63.5357 21.9796 63.5357 21.9737 63.5357C20.0314 63.5168 18.0689 63.5703 16.1116 63.659C12.7023 63.7972 9.06415 64.0215 6.29447 64.1923L5.67833 64.2301C5.52772 64.2392 5.41558 64.3664 5.4221 64.5196C5.42862 64.6683 5.54533 64.7784 5.69268 64.7732L6.70914 64.7445C9.29757 64.6715 12.4161 64.5835 15.4022 64.4472C17.5857 64.3579 19.7771 64.2301 21.9365 64.0163C23.1786 66.6894 24.2948 69.48 25.3745 72.1799C25.7129 73.0268 26.063 73.9025 26.4118 74.7605L26.9426 76.0678C27.6434 77.7955 28.3678 79.5827 29.0935 81.3346C29.2076 81.611 29.3223 81.8953 29.4325 82.1705C29.8413 83.1869 30.2638 84.2379 30.8102 85.1996C28.2335 85.7049 25.634 86.2995 23.1179 86.8746C20.8927 87.3832 18.5911 87.9093 16.3183 88.3709C16.1924 88.3964 16.1103 88.5 16.1103 88.6226C16.1103 88.6396 16.1116 88.6565 16.1155 88.6741C16.1409 88.811 16.2563 88.9049 16.3874 88.9049C16.403 88.9049 16.4193 88.9036 16.4356 88.901C20.5478 88.1936 25.9339 87.1817 31.1264 85.6195C31.2288 85.5889 31.294 85.4982 31.2946 85.3972C31.2946 85.3776 31.2927 85.3581 31.2875 85.3385C31.2816 85.315 31.2731 85.2935 31.2614 85.274C31.292 85.2335 31.3083 85.1846 31.309 85.1338C31.309 85.1044 31.3038 85.0744 31.292 85.0451L31.2907 85.0458Z" fill="#00399F"/>
</g>
<defs>
<clipPath id="clip0_1_2223">
<rect width="182.344" height="108.627" fill="white" transform="translate(0.664062 0.30127)"/>
</clipPath>
</defs>
</svg>
