<svg width="246" height="198" viewBox="0 0 246 198" fill="none" xmlns="http://www.w3.org/2000/svg">
<g clip-path="url(#clip0_1_2247)">
<path d="M245.599 192.587C245.599 192.587 245.597 192.587 245.595 192.587C244.766 192.595 169.204 193.295 153.334 193.109C153.69 192.127 153.604 190.561 153.514 188.937C153.477 188.262 153.44 187.578 153.435 186.947C153.777 185.929 154.203 184.455 154.039 184.037C153.973 183.87 153.825 183.762 153.653 183.757C153.342 183.747 153.179 184.035 153.013 184.383C152.727 184.989 152.643 185.842 152.643 186.817C152.045 188.551 151.065 190.728 149.85 191.933C147.345 194.419 138.075 195.331 131.771 194.457C130.671 194.305 130.337 194.116 130.245 194.043C130.34 193.916 130.796 193.474 132.841 192.78C133.251 192.641 133.652 192.516 134.018 192.409C134.952 192.232 135.621 192.076 135.836 191.983C136.19 191.829 136.115 191.519 136.106 191.485C136.084 191.405 135.981 191.147 135.599 191.201C135.366 191.233 134.661 191.4 133.802 191.651C132.5 191.896 130.643 192.194 128.797 192.425C127.902 191.454 126.485 190.376 125.028 189.439C125.412 189.034 125.859 188.584 126.374 188.085C128.587 185.95 131.189 183.795 132.332 183.024C133.011 182.565 133.462 181.439 133.71 179.581C133.897 178.188 133.968 176.378 133.925 174.202C133.904 173.14 133.857 172.092 133.8 171.136C134.24 173.089 134.632 175.474 134.58 177.619C134.497 181.053 133.23 182.635 131.764 184.468C131.242 185.122 130.701 185.797 130.168 186.602C129.684 187.332 129.188 188.246 129.645 188.822C130.302 189.65 132.261 189.035 136.573 187.431C139.325 186.409 141.063 184.106 142.038 182.352C143.151 180.35 143.743 178.22 143.837 176.998C143.916 175.954 143.834 173.872 143.725 171.946C143.753 171.954 143.783 171.964 143.811 171.973C144.354 174.454 144.77 177.654 144.189 180.321C143.564 183.185 141.462 185.151 139.773 186.731C138.351 188.06 137.229 189.109 137.608 190.243C137.684 190.468 137.874 190.77 138.35 190.928C140.734 191.715 149.097 187.854 150.662 186.756C152.044 185.788 152.071 183.074 152.099 180.45C152.112 179.156 152.125 177.935 152.323 177.21C152.473 176.659 152.617 175.379 152.765 173.657C155.862 173.473 159.042 172.449 161.466 171.46C163.483 170.637 165.147 169.777 166.187 169.2C166.908 168.8 168.137 168.091 168.279 167.841C168.365 167.688 168.34 167.489 168.219 167.364C167.997 167.136 167.729 167.279 167.514 167.392C167.137 167.593 166.784 167.591 166.437 167.388C165.264 166.698 163.959 163.606 163.817 156.991C163.758 154.296 163.457 150.844 163.108 146.848C162.39 138.65 161.498 128.445 162.134 118.342C162.539 111.919 162.55 104.751 162.164 98.6734C161.991 95.9593 161.748 93.6337 161.46 91.948C161.037 89.4709 160.629 88.9847 160.286 88.8355C160.037 88.7279 159.765 88.7949 159.557 89.0144C159.312 89.2734 158.858 89.7563 157.62 103.921C156.905 112.107 156.129 122.517 155.445 131.7C154.646 142.416 153.957 151.67 153.616 153.994C153.138 157.26 152.763 162.685 152.43 167.471C152.296 169.409 152.164 171.3 152.036 172.895C151.057 172.91 150.096 172.828 149.184 172.617C147.562 172.242 145.98 171.808 144.495 171.357C144.009 169.268 143.465 167.776 143.415 167.642C143.347 167.457 143.152 167.35 142.96 167.393C142.767 167.436 142.635 167.614 142.651 167.811C142.654 167.842 142.761 169.174 142.868 170.845C139.963 169.897 137.552 168.937 136.113 168.325C137.935 167.912 140.596 166.76 141.908 165.417C143.044 164.254 142.948 163.249 142.668 162.61C141.671 160.34 146.563 142.897 150.095 131.726C150.243 131.257 150.36 130.887 149.995 130.726C149.649 130.573 149.445 130.9 149.297 131.14C149.184 131.322 149.033 131.582 148.843 131.91C147.519 134.2 144 140.284 140.78 140.43C140.688 140.434 140.629 140.406 140.568 140.327C140.36 140.057 140.079 139.14 140.55 136.038C140.879 133.867 141.509 131.013 142.474 127.314C144.239 120.544 146.82 112.204 148.892 105.502C151.178 98.1126 152.828 92.7733 152.872 91.4409C152.896 90.6957 152.69 90.2139 152.258 90.0098C151.075 89.4512 148.838 91.3389 144.985 94.7235C143.489 96.0383 141.941 97.397 140.545 98.4583C140.481 98.5077 140.422 98.5505 140.371 98.5867C140.623 97.982 141.338 96.6431 143.27 93.6787C145.097 90.8779 147.502 87.3956 149.625 84.3226C152.109 80.7272 154.254 77.6224 155.036 76.2571C155.596 75.2792 156.283 73.9973 157.02 72.5881C157.27 73.9677 157.63 75.4032 157.981 76.808C158.69 79.6395 159.422 82.5666 158.628 83.2031C158.429 83.3623 158.349 83.5872 158.413 83.8067C158.475 84.0208 158.641 84.5904 162.024 84.9569C165.035 85.2829 169.851 85.2939 174.337 84.3489C179.642 83.2306 183.33 81.0202 185.002 77.9571C187.613 73.1698 188.149 66.2973 188.139 61.375C188.131 57.0904 187.708 53.3512 187.357 51.6644C187.552 51.1222 187.719 50.6964 187.835 50.4681C187.886 50.4396 187.925 50.4143 187.954 50.3913C188.17 50.2201 188.155 50.0192 188.138 49.9402C188.105 49.7844 187.985 49.6614 187.824 49.6197C187.605 49.5627 187.436 49.6461 187.272 49.8776C186.372 50.3013 182.955 51.3198 180.917 50.3605C180.587 50.2058 180.327 50.0148 180.123 49.8008C180.209 49.5517 180.321 49.2005 180.444 48.8065C180.55 49.634 180.839 50.3287 181.468 50.5263C182.665 50.9005 185.469 50.6075 186.912 49.7449C187.459 49.4178 187.78 49.0282 187.866 48.5859C188.049 47.642 187.641 45.9234 187.382 44.9828C187.24 44.4703 186.946 43.4661 186.648 42.8284C187.011 42.6353 187.347 42.4059 187.609 42.1359C188.762 40.9484 187.375 36.2577 186.303 35.0417C185.869 34.5478 185.387 34.2658 184.935 34.0408C184.747 32.7183 184.193 28.8617 183.557 25.0029C181.946 15.2286 181.412 14.9696 181.092 14.8148C180.045 14.3056 176.588 15.2538 175.322 15.7345C174.49 16.0506 174.269 16.2427 174.184 16.449C174.129 16.5807 174.067 16.7311 174.472 19.2399C174.71 20.715 175.052 22.6213 175.408 24.4717C176.161 28.3733 176.631 30.3323 176.942 31.3311C176.872 31.3157 176.811 31.297 176.757 31.2751C176.238 31.0611 175.138 30.6737 174.124 30.374C172.309 29.8385 171.921 29.8977 171.735 30.2336C171.506 30.6484 171.992 30.9952 172.226 31.162C173.015 31.7251 173.683 32.0982 174.171 32.3715C174.322 32.456 174.483 32.546 174.609 32.6217C174.355 32.8061 173.946 33.0794 173.623 33.2967C173.284 33.5239 172.932 33.7587 172.674 33.9431C172.302 34.2087 171.98 34.4392 172.148 34.7849C172.208 34.9089 172.368 35.0988 172.768 34.9704C173.105 34.8606 173.634 34.5709 174.192 34.2647C174.527 34.0814 175.003 33.8202 175.37 33.649C174.987 34.2998 174.242 35.4039 173.702 36.2061C173.275 36.8394 172.872 37.4364 172.581 37.8941C172.156 38.5614 171.923 38.9301 172.24 39.2023C172.541 39.4602 172.867 39.1595 173.005 39.0311C173.671 38.4154 174.309 37.5912 174.774 36.9887C174.832 36.9129 174.895 36.8328 174.956 36.7538C174.967 36.9788 174.981 37.2246 175.001 37.4617C175.083 38.4242 175.202 38.9235 175.628 38.985C176.098 39.0519 176.284 38.4725 176.384 38.1597C176.597 37.4935 176.61 36.8635 176.622 36.3071C176.645 35.2085 176.656 34.707 177.885 34.5303C178.815 34.3975 179.724 34.0803 180.526 33.8015C181.554 33.4426 182.526 33.1046 182.764 33.4668C183.032 33.874 183.379 34.1308 183.747 34.3349C182.196 34.6477 178.971 35.4072 178.019 36.4542C177.633 36.8789 177.801 37.1796 177.891 37.2894C178.047 37.4792 178.304 37.6252 179.398 37.4189C179.083 37.6581 178.79 37.916 178.547 38.1893C178.466 38.1202 178.376 38.0686 178.276 38.0379C177.923 37.9281 177.563 38.0894 177.205 38.5197C175.6 40.4491 176.669 43.5572 177.787 44.6064C178.47 45.2473 178.819 45.8839 178.946 46.1462C178.609 47.1131 178.413 48.7253 179.228 49.9435C178.321 52.3448 177.717 54.9591 177.434 57.716C177.224 59.7628 177.392 61.3728 177.554 62.9291C177.68 64.1352 177.801 65.2953 177.75 66.6221C177.181 64.6971 176.776 62.2552 176.791 60.2896C176.81 58.0156 177.272 56.7315 177.446 56.2486C177.528 56.0225 177.63 55.7405 177.355 55.5583C177.174 55.4387 176.98 55.4738 176.775 55.6626C176.728 55.7065 176.654 55.7613 176.562 55.8316C175.94 56.3024 174.647 57.2825 172.162 61.1456C171.885 61.5759 171.602 62.0664 171.318 62.6031C170.814 61.5243 169.972 60.8252 168.862 60.5706C164.794 59.6366 162.943 59.3458 162.28 60.4795C162.107 60.7769 161.467 62.0555 160.581 63.8268C159.694 65.6004 158.586 67.8151 157.493 69.952C157.366 65.2986 162.409 60.2073 162.46 60.1557C162.559 60.0569 162.598 59.9132 162.563 59.7782C162.529 59.6432 162.425 59.5356 162.291 59.4972C162.227 59.4785 155.917 57.626 152.785 55.7086C151.88 55.1555 150.978 54.4136 150.097 53.6651C151.146 52.5369 151.84 51.0904 152.09 49.4716C152.669 45.7072 151.562 42.902 151.029 41.5531C150.952 41.3589 150.886 41.1921 150.844 41.0691C150.7 40.6433 150.925 40.3733 151.371 39.8937C151.59 39.6567 151.84 39.3878 152.029 39.064C152.139 38.8752 152.442 38.4417 152.826 37.8919C154.093 36.0788 155.34 34.2449 156.027 32.8511C156.111 34.156 156.196 35.9537 156.231 37.6263C156.312 41.4225 155.869 44.6909 155.674 45.9201C155.63 46.1944 155.586 46.4787 155.819 46.6444C155.945 46.7344 156.109 46.7454 156.247 46.6719C156.382 46.6005 156.567 46.5028 157.268 44.1257C157.394 43.6965 157.622 42.8954 157.778 42.1897C157.899 42.6309 158.008 43.1434 158.051 43.6186C158.072 43.8392 158.091 44.0466 158.327 44.1399C158.466 44.1948 158.624 44.1652 158.736 44.0653C158.893 43.9248 158.902 43.916 158.841 42.6495C158.818 42.1864 158.765 41.2305 158.663 40.0298C158.507 38.1827 158.226 35.6343 157.778 33.987C157.166 31.7316 158.024 30.0272 158.437 29.2085C158.646 28.7925 158.762 28.5632 158.614 28.3184C158.542 28.1977 158.416 28.1198 158.273 28.1066C157.876 28.0144 154.07 26.6601 150.388 25.3497C144.653 23.3095 138.154 20.9959 136.87 20.6788C136.329 20.546 135.583 20.8774 134.526 21.7236C132.219 23.5685 129.247 27.1715 128.077 28.6356C126.95 30.0459 124.328 33.4119 124.344 34.2131C124.352 34.5928 124.669 34.9221 125.343 35.2502C126.864 35.991 130.497 36.7406 131.672 35.8582C132.008 35.6058 132.153 35.2359 132.079 34.8145C131.986 34.2723 132.265 33.559 132.864 32.805C134.027 31.3431 136.423 29.7935 138.754 29.6629C142.121 29.4708 147.27 32.8544 147.647 33.4591C148.041 34.0924 149.462 37.9051 149.617 39.6172C149.51 39.503 149.393 39.3735 149.281 39.2506C148.178 38.0335 146.124 35.7682 142.58 34.2164C138.725 32.5284 134.775 33.2901 131.457 36.3631C130.486 37.2608 126.633 44.5965 128.465 50.366C128.606 50.8105 128.771 51.2133 128.958 51.5788C128.57 51.2923 128.092 50.9543 127.507 50.5405L127.114 50.2629C125.812 49.341 124.182 48.9129 122.455 48.4586C121.432 48.1897 120.391 47.9164 119.369 47.5312C117.813 46.2548 115.966 45.2177 115.519 45.1628C115.258 45.131 115.1 45.2835 115.044 45.4251C114.909 45.7653 115.154 46.0101 116.065 46.6741C116.991 47.3501 117.974 47.8374 118.961 48.2193C119.961 49.0446 120.799 49.938 120.887 50.6097C121.192 52.9298 118.279 59.7068 114.654 65.112C111.748 69.446 110.381 73.4563 110 75.0421C108.222 73.5605 101.553 67.0162 97.766 60.6803C95.8256 57.4339 94.5426 54.7275 93.511 52.5533C92.172 49.7295 91.2875 47.8648 89.9935 47.1076C89.9836 47.1021 89.9749 47.0966 89.965 47.0911C90.2602 47.0538 90.6575 47.0275 90.9813 47.0055C92.1797 46.9254 93.5395 46.8354 94.3045 46.3283C94.7501 46.0331 95.3745 45.278 96.0879 44.3079C98.5353 46.5797 104.041 51.66 106.529 53.7277C107.314 54.3796 107.883 55.0095 108.293 55.5671C108.393 56.0598 108.613 56.4615 108.805 56.8138C108.943 57.0673 109.073 57.3055 109.131 57.5294C109.182 57.7324 109.278 58.1089 109.621 58.1319C109.8 58.144 109.966 58.0364 110.033 57.8663C110.153 57.5623 109.924 56.5373 109.047 55.2762C108.962 54.6276 109.177 53.8067 110.147 52.5753C112.508 49.5747 113.131 44.8039 113.156 44.602C113.175 44.4494 113.105 44.3002 112.975 44.219L109.721 42.1655C109.689 42.1458 109.655 42.1304 109.62 42.1205C109.649 42.1162 109.677 42.1118 109.705 42.1074C112.221 41.6508 113.27 37.4781 114.284 33.4437C114.385 33.0421 114.485 32.6448 114.585 32.2573C114.963 30.7955 115.058 29.4664 115.022 28.3206C115.053 28.2701 115.071 28.2131 115.077 28.1527C115.09 28.0122 115.302 25.7064 115.288 23.7397C115.477 23.6716 115.685 23.6135 115.894 23.5718C116.545 23.5399 121.008 23.3062 122.309 22.8342C122.354 23.2897 122.125 24.4937 121.967 25.3212C121.785 26.2749 121.597 27.2604 121.561 28.0265C121.51 29.0834 121.092 31.0347 120.648 33.1013C120.219 35.1021 119.774 37.1697 119.538 38.9356C119.44 39.6622 119.412 39.8806 119.647 40.043C119.769 40.1275 119.933 40.1363 120.065 40.066C120.265 39.9585 120.356 39.9102 121.263 35.529C121.28 35.4478 121.475 34.5072 121.675 33.492C121.802 34.7333 121.921 36.2413 121.937 37.5429C121.924 37.6658 121.911 37.7865 121.899 37.9029C121.827 38.5679 121.766 39.1408 121.728 39.5425C121.707 39.7576 121.694 39.9146 121.688 40.0232C121.68 40.167 121.658 40.5467 122.026 40.6049C122.419 40.6664 122.495 40.3009 122.575 39.9146C122.699 39.3142 122.738 38.4791 122.73 37.578C123.025 34.8255 123.463 30.6045 123.344 28.6993C123.214 26.6118 123.434 24.497 123.594 22.9528C123.687 22.0638 123.76 21.3625 123.75 20.8763C123.744 20.5372 123.731 19.8326 116.279 16.4841C112.658 14.8576 108.459 13.1598 107.109 12.7768C105.385 12.2884 98.8755 14.6458 96.156 15.683C91.9712 17.2776 86.7526 19.5538 85.1843 20.7808C84.6882 21.1693 84.6487 21.5644 84.7025 21.8289C84.9571 23.0713 87.8742 23.9372 92.2961 25.1148C93.534 25.4441 95.0124 25.8381 95.6994 26.1147C95.7565 26.4889 95.8794 26.5943 96.0232 26.6634C96.1077 26.704 96.4062 26.8083 96.686 26.4395C96.7892 26.3034 96.8166 26.1333 96.7618 25.9742C96.7179 25.8458 96.6257 25.7316 96.4523 25.6175C96.4512 24.5935 96.7354 22.3085 96.944 21.4722C97.1635 20.5943 99.0819 19.0819 104.878 18.9809C110.809 18.8811 113.928 20.3122 114.318 21.6874C114.419 22.044 114.472 22.5917 114.492 23.2206C114.039 23.4609 113.648 23.8132 113.658 24.3148C113.662 24.5244 113.724 24.8163 113.809 25.2202C113.909 25.6921 114.04 26.31 114.131 27.0464C113.492 26.5734 112.453 25.9906 110.838 25.5396C107.744 24.6736 102.61 24.4893 101.2 25.1939C100.031 25.7777 99.8457 27.7938 99.6833 29.5729C99.6701 29.7177 99.657 29.8604 99.6438 29.9987C99.6098 29.8747 99.5768 29.7518 99.5461 29.6376C99.3837 29.034 99.2004 28.3503 99.004 27.8202C98.6813 26.951 98.0799 27.008 97.9032 27.0464C96.8946 27.2648 96.0714 29.282 96.2086 31.1972C96.3305 32.9005 97.2864 34.0298 98.1292 35.0263C98.6473 35.6387 99.0939 36.1666 99.2487 36.7143C99.3694 37.1423 99.3738 37.7569 99.2926 38.4319C98.948 38.8763 98.5507 39.424 98.0875 40.0803C97.7528 40.1001 97.4949 40.3766 97.3039 40.6236C96.8364 41.2283 96.5445 41.8747 96.4632 42.418C96.2986 42.6539 96.134 42.8888 95.9705 43.1182C95.627 42.7988 95.4261 42.6111 95.414 42.6001C95.3295 42.5211 95.2132 42.4838 95.098 42.497C94.9827 42.5102 94.8785 42.5749 94.8148 42.6715C94.8049 42.6869 93.7437 44.2376 90.6257 45.131C89.819 45.3625 89.0848 45.9289 88.4614 46.7915C88.3121 46.3547 88.085 46.0847 87.7722 45.9673C87.1093 45.7192 86.341 46.2065 84.945 47.09C83.8761 47.7672 82.412 48.6934 80.4892 49.5736C79.1162 50.2025 78.2316 51.1672 77.6928 52.3382C77.3833 51.8498 77.0628 51.3494 76.7445 50.8544C75.6909 49.2126 74.1731 46.8442 73.8065 45.8806C73.8274 45.4043 73.8131 45.1343 73.542 45.0168C73.3566 44.9367 73.1074 44.9938 72.99 45.2583C72.9143 45.4295 72.9143 45.6523 73.0109 45.9728C73.0065 46.0704 72.9999 46.1813 72.9911 46.3053C72.3249 41.7068 71.4096 38.3989 71.3909 38.3342C71.3866 38.3166 71.38 38.2991 71.3723 38.2826L69.6415 34.325C69.5998 34.2284 69.5208 34.1527 69.422 34.1154C69.3869 34.1022 69.3496 34.0935 69.3123 34.0902C69.4034 32.0093 69.9565 29.0658 70.5569 26.4604C71.3339 24.7285 72.2668 22.6038 73.2106 20.4252C73.2183 20.4461 73.2249 20.4669 73.2293 20.4878C73.3346 20.9466 73.4575 22.2065 73.5892 23.5399C73.6902 24.5738 73.7956 25.6427 73.9042 26.4702C74.0754 27.7752 74.1841 28.1626 74.5726 28.2153C74.656 28.2262 74.937 28.2339 75.0796 27.8641C75.2761 27.3548 75.163 26.7282 75.0632 26.175C75.0346 26.0159 74.9951 25.8008 74.982 25.6493C75.0324 25.6702 75.0961 25.6998 75.1784 25.7426C75.7063 26.0247 76.3044 26.4801 76.8312 26.8818C77.7915 27.6149 78.2745 27.9826 78.6794 27.7005C79.0262 27.4591 78.8781 26.974 78.8221 26.7907C78.6289 26.1575 77.8541 25.1478 76.9585 23.9778C76.2276 23.023 74.8832 21.2681 74.9018 20.783C75.8215 20.4604 79.9163 20.513 82.4757 20.6294C82.6842 20.6393 82.8631 20.4856 82.8861 20.2782C82.9092 20.0707 82.7676 19.882 82.5624 19.8458C81.5 19.6581 80.2851 19.3694 79.6847 19.1445C80.8031 18.5869 82.8642 17.6124 82.8872 17.6014C83.0595 17.5202 83.1484 17.3281 83.1001 17.1437C83.0518 16.9593 82.8795 16.8353 82.6897 16.8496L75.8973 17.3292C75.8468 17.3325 75.7985 17.3457 75.7524 17.3676C75.6602 17.4126 75.3946 17.5421 75.0357 17.7298C74.8722 17.4861 74.7251 17.2908 74.6593 17.2052C74.645 17.1876 74.6319 17.169 74.6176 17.1503C74.6373 17.1031 74.6582 17.0559 74.6779 17.0087C77.0343 11.4905 79.8395 4.75629 79.8263 4.00889C79.8197 3.63025 79.5695 3.25381 79.0602 2.85762C77.7048 1.80073 74.5572 0.696647 73.1963 1.01382C72.855 1.09394 72.0549 1.28052 69.219 8.49655C67.8307 12.0305 66.5543 15.7697 66.4829 16.3524C66.4467 16.6488 66.6223 16.7728 66.7002 16.8123C66.8528 16.8902 67.035 16.8628 67.1645 16.7431C67.2303 16.6817 67.3039 16.5983 67.3961 16.4929C67.9887 15.8169 69.2212 14.4088 71.2746 15.3658C72.2668 15.8289 73.091 16.5675 73.7034 17.2787C73.6496 17.4049 73.5947 17.5322 73.5409 17.6574C70.8027 15.819 69.748 15.3285 69.1938 15.5864C68.9984 15.6775 68.8733 15.8575 68.8513 16.0835C68.7668 16.9154 69.8709 17.6991 71.1506 18.6056C71.5183 18.8668 71.9232 19.1532 72.2788 19.4353C71.9013 19.736 71.6028 20.0323 71.4634 20.299C71.1901 20.8225 70.4548 23.3797 69.8062 26.1992C68.9216 28.1703 68.2653 29.574 68.0359 29.9548C67.8263 30.3049 67.6057 30.5453 67.339 30.6879C65.8892 29.5619 62.836 28.9374 61.9931 28.9144C61.8383 28.91 61.3873 28.8979 61.2589 29.2315C61.6595 27.604 63.1488 25.7602 63.5669 25.3706C63.8226 25.2037 65.2241 25.5879 65.977 25.7942C67.2238 26.1355 68.4025 26.4582 69.1038 26.2562C69.6196 26.107 69.6339 25.736 69.6262 25.6263C69.6031 25.3036 69.2388 24.9612 68.6966 24.6319C68.8843 24.6232 69.0522 24.6045 69.1927 24.5716C69.7392 24.4454 69.8709 24.0821 69.8128 23.7836C69.7721 23.5772 69.613 23.3523 69.3748 23.1251C69.5483 23.0998 69.7151 23.0658 69.8731 23.023C70.6611 22.8112 70.7489 22.3755 70.7314 22.1351C70.7006 21.7082 70.2353 21.2615 69.5537 20.8467C69.6218 20.8313 69.6843 20.8138 69.7392 20.7918C70.3077 20.5679 70.3264 20.1531 70.3077 19.9851C70.1925 18.9304 67.6584 17.8055 65.4568 17.4543C62.3366 16.9582 58.8586 19.8348 58.4394 22.4271C58.0399 24.8975 60.6102 35.0713 60.7463 35.4412C60.9483 35.9899 61.9393 36.9316 64.2419 36.5595C65.6521 36.3313 67.4564 35.6607 68.5265 35.2272C68.5451 35.5641 68.5825 35.867 68.6417 36.1271C68.7339 36.5299 68.6264 36.7033 68.5375 36.7999C67.8844 37.5034 65.2186 37.0973 63.6251 36.8559C61.9086 36.5947 61.3532 36.5299 61.0942 36.8987C61.0405 36.9744 60.9318 37.1818 61.0789 37.4551C61.4795 38.1959 62.2345 40.4908 62.6856 41.8626C62.8656 42.4103 63.0083 42.8427 63.0884 43.0622C63.1597 43.2565 63.2947 43.443 63.7853 43.4935C63.5713 43.6625 63.3847 43.8348 63.2388 44.0082C62.893 44.4154 62.7558 44.8204 62.8316 45.2122C62.8766 45.4449 62.9523 45.8817 63.0577 46.4842C63.6712 50.0072 65.1067 58.2581 66.6004 62.2201C66.7365 62.5823 66.8627 62.9214 66.9801 63.2353C67.8197 65.495 68.1676 66.4301 68.8601 66.4444C69.5285 66.4597 69.9466 65.607 70.8268 63.5129C71.684 61.4738 72.4292 57.1453 72.8748 54.1304C72.9242 56.5581 72.8023 59.0428 72.4017 61.4025C72.2646 62.2069 72.1372 62.9642 72.0176 63.6765C70.604 72.0679 70.2232 74.3233 68.0238 77.3173C67.7429 77.7003 67.5695 77.6641 67.5135 77.652C67.0866 77.5642 66.1416 76.6544 64.5996 71.5466C63.5351 68.0204 62.5122 63.6084 61.6101 59.7167C61.4652 59.0922 61.3236 58.482 61.1864 57.8938C59.6521 51.3285 60.7035 44.4538 61.2095 41.1504C61.4465 39.6029 61.5157 39.1002 61.4114 38.816C61.3324 38.5998 61.1184 38.479 60.9033 38.5284C60.7145 38.5723 60.4292 38.6371 59.8124 40.8222C59.5095 41.8967 59.065 43.7328 58.6699 46.3777C58.0421 50.58 57.4725 57.3593 58.3198 65.7946C59.0441 73.0052 61.7363 78.0262 66.3216 80.7162C70.3637 83.0879 74.7767 82.9474 76.2265 82.9024C78.2679 82.8388 80.5814 81.513 82.7412 79.1698C82.8565 79.0447 82.9706 78.9174 83.0826 78.789C82.1091 82.6149 81.9324 89.9308 81.7327 98.2355C81.5647 105.201 81.3738 113.097 80.6472 119.642C78.9757 134.699 79.148 161.799 79.1491 162.071C79.1491 162.098 79.1524 162.124 79.1579 162.149C79.3489 163.068 79.8022 163.313 80.149 163.358C80.712 163.429 81.6229 163.144 83.7027 160.277C84.8836 158.649 86.318 156.357 87.9653 153.464C90.0967 149.721 92.0436 145.915 92.8635 144.291C93.8775 147.07 97.0043 156.018 97.3358 161.473C97.395 162.451 97.5761 163.775 98.4607 163.978C98.5298 163.993 98.6001 164.002 98.6714 164.002C100.159 164.002 102.186 160.612 104.848 155.878C105.289 155.095 105.705 154.354 106.06 153.756C106.178 153.555 106.266 153.449 106.32 153.396C106.499 153.701 106.918 155.077 106.727 161.241C106.607 165.109 106.295 169.094 106.197 169.956C106.137 170.478 106.187 171.256 106.3 172.175C105.7 172.203 105.099 172.23 104.5 172.252C100.857 172.388 98.0678 172.291 95.8563 172.074C95.8969 171.186 95.8607 170.508 95.7049 170.217C95.5216 169.875 95.1397 169.163 87.2015 168.713C83.3789 168.497 79.5969 168.448 79.5585 168.447C79.5563 168.447 79.5552 168.447 79.553 168.447C79.339 168.447 79.1634 168.618 79.1579 168.833C79.1579 168.867 79.0811 172.252 79.1777 175.634C79.3643 182.208 79.9821 182.905 80.5463 183.043C81.1663 183.194 81.5527 182.406 81.6986 182.109C82.5689 180.333 82.9542 178.039 83.2944 176.014C83.6807 173.711 84.0462 171.537 84.9988 170.874C85.2831 170.676 85.6233 170.619 86.0392 170.698C86.87 170.856 87.6394 171.092 88.5305 171.365C90.1 171.846 91.9942 172.427 95.0189 172.782C94.8949 174.265 94.6096 176.447 94.1311 179.22C93.387 183.529 92.4826 187.428 92.0711 188.096C91.9471 188.298 91.4894 188.609 89.8201 188.424C88.5712 188.286 87.0193 187.915 85.6496 187.588C84.5664 187.329 83.5435 187.086 82.7742 186.977C82.4932 186.937 82.2331 186.956 81.9983 187.032C81.8633 186.854 81.6855 186.735 81.4879 186.698C81.1894 186.642 80.8986 186.778 80.6911 187.071C80.3849 187.504 80.0228 188.092 79.9569 188.701C71.3844 189.18 20.9149 188.677 0.74512 188.422C0.52562 188.42 0.347826 188.595 0.344533 188.812C0.342338 189.03 0.51684 189.209 0.734145 189.211C0.932791 189.214 20.8304 189.464 40.6095 189.601C52.2265 189.682 61.531 189.709 68.2631 189.68C75.2366 189.65 78.5005 189.57 80.0601 189.476C80.172 189.745 80.3641 189.974 80.6352 190.163C80.6264 191.708 80.937 193.646 81.3156 195.613L81.3398 195.739C81.4868 196.505 82.5152 197.03 84.5741 197.392C86.1347 197.666 88.322 197.844 90.8978 197.906C91.6013 197.922 92.3081 197.93 93.0105 197.93C97.2128 197.93 101.229 197.65 102.9 197.337C103.609 197.204 104.001 196.916 104.063 196.479C104.231 195.311 101.653 193.774 96.5181 191.167C95.4986 190.649 94.4439 190.115 94.2847 189.969C93.8369 189.535 92.2225 189.57 88.0597 189.773C85.4356 189.901 82.4625 190.045 81.613 189.765C81.5527 189.745 81.4945 189.723 81.4407 189.701C81.4484 189.559 81.4594 189.423 81.4747 189.293C81.523 189.272 81.5483 189.251 81.5735 189.231C82.1201 188.794 82.2869 188.234 82.2606 187.775C82.378 187.741 82.5119 187.735 82.6655 187.757C83.3987 187.86 84.4029 188.1 85.4674 188.354C88.6282 189.109 91.8966 189.89 92.746 188.508C93.3058 187.598 94.2617 183.12 94.9136 179.344C95.2297 177.51 95.6489 174.863 95.8091 172.864C98.048 173.083 100.866 173.178 104.533 173.042C105.159 173.019 105.784 172.991 106.41 172.961C106.57 174.062 106.792 175.3 107.01 176.519C107.359 178.469 107.69 180.311 107.708 181.275C107.727 182.259 107.939 183.504 108.401 184.674C108.175 184.566 107.998 184.45 107.861 184.34C107.848 184.291 107.833 184.246 107.818 184.202C107.729 183.961 107.495 183.318 107.023 183.424C106.842 183.465 106.66 183.64 106.686 183.929C106.703 184.11 106.828 184.423 107.141 184.748C107.245 185.46 107.106 186.832 106.97 188.164C106.693 190.882 106.407 193.69 107.545 194.509C108.548 195.23 114.315 195.672 117.565 195.821C119.664 195.916 126.69 196.159 128.946 195.263C129.363 195.097 129.621 194.89 129.728 194.632C130.131 194.975 130.908 195.133 131.674 195.24C136.522 195.912 144.188 195.58 148.343 193.796C148.973 194.189 151.33 194.376 152.403 194.083C152.554 194.041 152.688 193.977 152.805 193.891C167.36 194.103 242.193 193.409 245.614 193.377C245.832 193.375 246.007 193.197 246.006 192.979C246.004 192.762 245.827 192.587 245.611 192.587H245.599ZM153.216 167.523C153.547 162.751 153.922 157.341 154.396 154.105C154.74 151.754 155.431 142.485 156.231 131.755C156.908 122.678 157.674 112.389 158.383 104.249C159.323 93.4461 159.827 90.4466 160.071 89.7091C160.451 90.4235 161.039 93.2299 161.391 98.9939C161.758 104.977 161.74 112.01 161.345 118.287C160.704 128.45 161.6 138.687 162.32 146.912C162.668 150.893 162.969 154.333 163.026 157.002C163.156 162.985 164.252 167.017 166.037 168.064C166.132 168.12 166.229 168.167 166.327 168.205C165.129 168.897 163.212 169.905 160.938 170.817C158.668 171.727 155.707 172.668 152.83 172.858C152.954 171.305 153.081 169.47 153.217 167.522L153.216 167.523ZM144.685 172.235C146.049 172.642 147.506 173.038 149.003 173.383C149.954 173.603 150.952 173.692 151.967 173.681C151.829 175.294 151.693 176.507 151.559 176.998C151.335 177.82 151.322 179.091 151.307 180.437C151.284 182.634 151.257 185.369 150.208 186.104C148.343 187.411 140.448 190.783 138.597 190.172C138.396 190.106 138.368 190.02 138.357 189.987C138.138 189.334 139.146 188.393 140.312 187.303C141.988 185.736 144.284 183.589 144.961 180.484C145.541 177.817 145.196 174.72 144.685 172.234V172.235ZM183.419 33.0311C182.843 32.1542 181.647 32.5712 180.261 33.053C179.493 33.3208 178.624 33.6237 177.769 33.7466C175.876 34.0177 175.852 35.1723 175.828 36.2884C175.821 36.6012 175.814 36.9195 175.773 37.2433C175.749 36.9151 175.728 36.4893 175.716 35.9383C175.708 35.5981 175.475 35.495 175.405 35.4719C175.352 35.4544 175.302 35.4456 175.254 35.4456C175.217 35.4456 175.181 35.4511 175.145 35.4609C176.16 33.9266 176.403 33.4668 176.397 33.1924C176.393 33.0047 176.302 32.8456 176.146 32.7567C175.991 32.6678 175.806 32.659 175.548 32.7315C175.565 32.6579 175.565 32.5822 175.548 32.5065C175.477 32.197 175.188 32.0346 174.553 31.6801C174.233 31.5012 173.832 31.2773 173.372 30.9842C174.357 31.2509 175.709 31.6998 176.453 32.0049C176.665 32.0916 176.94 32.1421 177.26 32.163C177.364 32.3506 177.438 32.3858 177.5 32.4165C177.904 32.6129 178.891 32.4209 181.437 31.6263C182.279 31.4243 182.932 31.2213 183.114 31.1236C183.396 30.9722 183.382 30.7198 183.328 30.5946C183.184 30.2544 182.852 30.3554 182.585 30.4366C182.419 30.4871 182.184 30.5617 181.907 30.6506C181.742 30.7033 181.517 30.7746 181.255 30.8569C180.187 31.1039 178.779 31.3596 177.772 31.3859C176.991 29.0592 174.961 18.1776 174.928 16.7717C175.638 16.2844 179.824 15.1704 180.706 15.5085C181.276 16.2569 182.724 24.0667 184.072 33.6128C183.811 33.4613 183.586 33.2868 183.419 33.0322V33.0311ZM182.506 36.5694C183.185 36.3499 183.752 36.148 183.88 36.07C184.062 35.9603 184.104 35.7825 184.083 35.6519C184.057 35.4917 183.932 35.3622 183.773 35.3281C183.555 35.2809 182.832 35.5652 182.23 35.8286C181.187 36.16 179.762 36.5661 178.958 36.6923C180.225 35.8703 183.421 35.1778 184.673 34.9605C184.738 34.9495 184.796 34.9232 184.846 34.8858C185.148 35.0549 185.442 35.2612 185.706 35.5608C186.671 36.655 187.732 40.8661 187.037 41.5817C186.811 41.8143 186.494 42.0185 186.139 42.1941C184.909 41.4335 183.918 41.27 183.191 41.7068C182.792 41.9471 182.448 42.3927 182.114 42.8251C181.899 43.1039 181.718 43.3278 181.557 43.4968C181.159 43.5769 180.756 43.6362 180.417 43.6395C180.234 43.4463 180.186 43.218 180.185 43.0381C180.181 42.6484 180.377 42.2358 180.703 41.8988C182.184 41.4906 184.026 40.4085 184.304 40.0166C184.537 39.6852 184.395 39.4624 184.321 39.3823C184.023 39.0519 183.698 39.2012 181.571 40.3975C181.329 40.5336 181.091 40.6675 180.869 40.7893C180.66 40.9056 180.467 41.0417 180.296 41.1943C180.139 41.2316 179.991 41.2579 179.858 41.2689C179.58 41.293 179.501 41.2382 179.499 41.2382C179.499 41.2382 179.473 41.1723 179.525 40.9934C179.683 40.4436 180.176 39.8959 180.779 39.4086C182.34 38.895 184.153 38.0444 184.385 37.6011C184.471 37.4342 184.463 37.2499 184.36 37.1094C184.178 36.8635 183.865 36.9195 183.761 36.9382C183.219 37.0347 181.66 37.7218 180.412 38.6975C179.852 38.8807 179.348 39.0146 179.023 39.0454C179.008 38.996 178.993 38.9477 178.976 38.9016C179.698 37.9391 181.346 37.0732 182.507 36.5672L182.506 36.5694ZM185.198 42.5738C184.621 42.7659 184.054 42.891 183.68 42.9513C183.564 42.97 183.378 43.0238 183.099 43.105C183.024 43.1269 182.937 43.1522 182.841 43.1796C183.097 42.8493 183.359 42.5299 183.598 42.3861C183.716 42.3148 183.879 42.261 184.097 42.261C184.368 42.261 184.726 42.3433 185.198 42.5749V42.5738ZM179.629 42.058C179.572 42.1743 179.525 42.2929 179.488 42.4136C179.477 42.295 179.466 42.171 179.455 42.0415C179.511 42.0503 179.569 42.0558 179.629 42.058ZM179.285 39.7993C179.259 39.8323 179.234 39.8652 179.21 39.8992C179.206 39.8696 179.2 39.841 179.196 39.8125C179.224 39.8081 179.254 39.8048 179.285 39.7993ZM178.323 44.0258C177.521 43.2729 176.494 40.6005 177.807 39.0212C177.933 38.8709 178.013 38.8182 178.048 38.7995C178.062 38.8116 178.076 38.827 178.09 38.8445C177.989 39.0827 177.987 39.2934 178.085 39.4745C178.149 39.5941 178.246 39.6841 178.377 39.7434C178.527 40.527 178.621 41.5773 178.667 42.0986C178.714 42.632 178.755 43.0929 178.809 43.4211C178.862 43.7426 179.034 44.0028 179.308 44.1751C179.528 44.3144 179.804 44.3891 180.118 44.4165C180.178 44.4582 180.241 44.4966 180.308 44.5317C180.951 44.872 181.485 44.6382 181.943 44.2244C182.399 44.1224 182.867 43.9929 183.318 43.8612C183.524 43.8019 183.736 43.7393 183.804 43.7295C183.971 43.7031 184.943 43.5374 185.927 43.15C186.348 44.107 187.311 47.2667 187.086 48.43C187.034 48.6934 186.741 48.9184 186.503 49.06C185.211 49.8316 182.595 50.0445 181.699 49.7657C181.014 49.5517 181.107 47.1273 181.437 45.4591C181.478 45.2517 181.348 45.0487 181.143 44.9982C181.111 44.9905 181.08 44.9872 181.048 44.9872C180.877 44.9872 180.719 45.1002 180.67 45.2715C180.661 45.3 180.01 47.5378 179.584 48.8855C179.197 47.6903 179.704 46.3525 179.736 46.2702C179.772 46.1791 179.772 46.0781 179.738 45.9859C179.723 45.9453 179.355 44.9894 178.324 44.0225L178.323 44.0258ZM178.216 57.7928C178.477 55.2488 179.017 52.8321 179.822 50.5998C180.038 50.7765 180.287 50.9356 180.576 51.0717C182.267 51.8663 184.64 51.5173 186.245 51.0607C186.195 51.3538 186.171 51.8444 186.154 52.6982C185.974 53.2283 185.78 53.8133 185.571 54.4388C184.859 56.5779 183.973 59.2393 183.068 61.5298C182.661 62.5614 182.295 63.5404 181.942 64.4875C181.008 66.9898 180.041 69.5777 179.399 69.7412C179.376 69.7467 179.32 69.761 179.205 69.6611C178.929 69.4219 178.649 68.9719 178.381 68.3781C178.685 66.2029 178.508 64.4963 178.335 62.8435C178.177 61.3267 178.014 59.7584 178.216 57.7928ZM178.192 69.6732C178.353 69.9146 178.518 70.1122 178.687 70.2582C179.04 70.5644 179.375 70.5622 179.593 70.5073C180.592 70.2527 181.3 68.4637 182.681 64.7641C183.034 63.8202 183.398 62.8446 183.803 61.8206C184.627 59.7332 185.434 57.3505 186.109 55.3256C186.019 60.0569 185.726 67.4003 183.732 71.2185C182.426 73.7186 180.8 76.8311 180.01 76.8333C179.847 76.8333 179.559 76.6566 179.113 75.8137C177.963 73.6395 177.743 72.9284 178.194 69.6732H178.192ZM169.011 71.8155C168.916 71.9461 168.835 72.0471 168.77 72.1239C168.819 71.4786 169.126 70.0859 169.83 68.0654C170.203 66.9953 170.619 65.9395 171.052 64.9616C171.171 67.2927 170.249 70.1177 169.011 71.8155ZM161.284 64.1769C162.13 62.4857 162.798 61.15 162.958 60.8746C163.331 60.2358 165.101 60.5146 168.682 61.3377C169.65 61.5605 170.335 62.1948 170.72 63.2254C170.76 63.334 170.797 63.4449 170.83 63.559C170.166 64.9331 169.518 66.5179 168.973 68.1312C168.57 69.3198 168.272 70.3822 168.11 71.2053C167.892 72.3127 167.937 72.8329 168.269 73.0612C168.75 73.3904 169.26 72.8175 169.651 72.2819C171.201 70.1561 172.316 66.4092 171.669 63.6446C172.058 62.8577 172.45 62.1531 172.824 61.5715C174.544 58.8969 175.679 57.6446 176.385 56.9971C176.199 57.7368 176.011 58.8179 175.999 60.2797C175.978 62.782 176.634 66.2797 177.569 68.4791C177.569 68.4813 177.569 68.4824 177.569 68.4846C176.919 72.7286 177.006 73.5199 178.414 76.1824C178.769 76.853 179.272 77.6235 180.01 77.6235H180.012C181.097 77.6213 182.067 76.1133 184.433 71.585C186.706 67.2324 186.85 58.684 186.922 54.0459C187.55 59.382 187.999 70.8025 184.306 77.5741C182.047 81.7138 176.358 83.3293 171.983 83.956C165.971 84.8164 160.468 84.1239 159.318 83.6213C160.226 82.5227 159.567 79.8909 158.746 76.6127C158.308 74.8611 157.857 73.0623 157.629 71.4083C158.899 68.9466 160.244 66.2589 161.286 64.1769H161.284ZM122.396 32.8116C122.353 32.434 122.316 32.1267 122.29 31.9193C122.136 30.7143 122.118 30.6846 121.979 30.5771C122.179 29.552 122.318 28.6861 122.348 28.0594C122.366 27.6588 122.433 27.1781 122.52 26.6678C122.502 27.3471 122.508 28.0463 122.552 28.7454C122.61 29.6705 122.529 31.1862 122.397 32.8116H122.396ZM104.86 18.1885C97.4861 18.3159 96.3469 20.5855 96.1735 21.278C96.0429 21.8026 95.8574 23.0329 95.7532 24.0799C95.7049 24.5595 95.6774 24.9469 95.6665 25.2608C95.0222 25.0325 94.0257 24.756 92.4958 24.3488C90.9319 23.9317 89.1594 23.4598 87.7711 22.9616C85.7341 22.2306 85.496 21.7861 85.4718 21.6676C85.4532 21.5787 85.6013 21.4514 85.6661 21.4009C86.9337 20.4088 91.462 18.3137 96.4314 16.4183C101.229 14.5899 105.026 13.4913 106.482 13.4913C106.649 13.4913 106.784 13.5055 106.887 13.5352C108.011 13.8534 111.801 15.3504 115.652 17.0702C121.986 19.8984 122.843 20.7797 122.955 20.9389C122.957 21.2473 122.922 21.6775 122.872 22.1812C122.85 22.1571 122.826 22.1351 122.8 22.1143C122.69 22.0276 122.453 21.9047 122.1 22.0627C121.245 22.4435 117.279 22.7091 115.823 22.7794C115.804 22.7794 115.786 22.7827 115.768 22.786C115.676 22.8035 115.488 22.843 115.261 22.91C115.233 22.3316 115.174 21.8235 115.073 21.4679C114.48 19.3782 110.469 18.092 104.859 18.1874L104.86 18.1885ZM114.496 24.1787C114.495 24.3246 114.492 24.4706 114.489 24.6177C114.462 24.4794 114.446 24.3674 114.444 24.2972C114.444 24.261 114.461 24.2204 114.495 24.1787H114.496ZM98.7285 34.5127C97.9262 33.5645 97.0965 32.5833 96.9933 31.1379C96.8605 29.2765 97.6837 27.8981 98.0678 27.8158C98.115 27.8059 98.1973 27.9244 98.2598 28.0923C98.4442 28.5884 98.622 29.2535 98.7801 29.8396C99.1609 31.2553 99.3003 31.7843 99.7821 31.7569C100.211 31.7316 100.288 31.2037 100.33 30.9206C100.386 30.5409 100.425 30.1052 100.467 29.6431C100.596 28.2262 100.774 26.2859 101.55 25.8985C102.684 25.3332 107.568 25.4441 110.623 26.299C112.887 26.9323 113.895 27.8235 114.223 28.1758C114.272 29.2985 114.192 30.6111 113.819 32.0565C113.718 32.4461 113.618 32.8445 113.517 33.2484C112.609 36.8635 111.578 40.9605 109.563 41.3271C108.191 41.5762 105.728 39.8158 103.93 38.5306C102.446 37.4705 101.619 36.8987 101.067 36.8987C101.044 36.8987 101.021 36.8987 100.999 36.902C100.758 36.9239 100.479 37.1006 100.129 37.4518C100.123 37.0995 100.086 36.7724 100.008 36.4959C99.8062 35.7836 99.2838 35.1668 98.7307 34.5127H98.7285ZM99.7239 40.2614C99.8468 39.8048 99.9588 39.2835 100.033 38.76C100.493 38.175 100.877 37.7536 101.075 37.6889C101.396 37.6932 102.593 38.5482 103.467 39.1738C105.333 40.5061 107.619 42.1392 109.296 42.1392C109.311 42.1392 109.326 42.1392 109.34 42.1392C109.33 42.1436 109.322 42.148 109.313 42.1535C109.187 42.2248 109.109 42.3598 109.112 42.5047C109.112 42.5321 109.153 45.2221 108.391 47.5938C107.879 49.1862 107.358 50.2376 107.048 50.7095C106.784 50.0039 105.964 49.2115 104.708 47.9987C103.893 47.2118 102.879 46.234 101.751 45.0168C100.454 43.6186 99.7788 42.3378 99.3321 41.462C99.5165 40.9934 99.6482 40.5511 99.725 40.2625L99.7239 40.2614ZM98.8997 40.2921C98.8755 40.3755 98.8503 40.4578 98.824 40.5391C98.8075 40.5149 98.791 40.4919 98.7746 40.4688C98.8163 40.4095 98.858 40.3503 98.8997 40.2921ZM97.7792 41.8988C97.9383 41.6695 98.1084 41.4225 98.2851 41.1679C98.3411 41.2678 98.4025 41.3819 98.4629 41.4994C98.194 42.1052 97.8889 42.5705 97.5893 42.7516C97.3884 42.8734 97.282 42.8877 97.2458 42.8888C97.2293 42.8548 97.2194 42.7911 97.2227 42.7033C97.406 42.4388 97.5926 42.1699 97.7802 41.8978L97.7792 41.8988ZM96.6926 43.4595C96.8561 43.6219 97.2633 43.8721 97.9976 43.4288C98.3531 43.2136 98.6582 42.8164 98.9096 42.3642C99.3738 43.2312 100.05 44.3463 101.169 45.5535C102.313 46.786 103.335 47.7737 104.157 48.5661C105.379 49.747 106.263 50.5998 106.342 51.12C106.42 51.6347 106.709 51.7346 106.875 51.7478C107.262 51.7774 107.612 51.4109 108.086 50.4791C108.446 49.7712 108.821 48.8317 109.142 47.8341C109.707 46.0748 109.853 44.2025 109.89 43.206L112.331 44.7468C112.171 45.7555 111.452 49.6296 109.521 52.0836C108.814 52.9803 108.458 53.7233 108.314 54.351C107.954 53.9461 107.528 53.5301 107.03 53.1164C104.531 51.0399 98.9557 45.8926 96.5499 43.6592C96.5971 43.5934 96.6443 43.5264 96.6915 43.4595H96.6926ZM90.8397 45.8893C93.3617 45.1661 94.6535 44.039 95.1803 43.4639C95.2703 43.5473 95.3778 43.6472 95.5018 43.7635C94.8291 44.6832 94.2299 45.4251 93.8655 45.6666C93.275 46.0573 91.9174 46.1473 90.9264 46.2131C90.5916 46.2351 90.2975 46.2548 90.044 46.2812C90.2997 46.099 90.5653 45.9673 90.8408 45.8893H90.8397ZM71.6072 14.6491C70.9937 14.3627 70.435 14.2474 69.9313 14.2474C68.9699 14.2474 68.2093 14.6678 67.654 15.121C68.1116 13.7195 68.9293 11.4005 69.8863 8.95421C72.4402 2.4263 73.2786 1.83256 73.3829 1.78097C74.4113 1.5494 77.3152 2.49874 78.573 3.4799C79.0218 3.83 79.0339 4.01109 79.0339 4.01109C78.9812 4.68824 76.5909 10.5105 74.0425 16.4775C73.4323 15.8201 72.6136 15.1177 71.605 14.648L71.6072 14.6491ZM74.3377 18.1062C74.3125 18.1205 74.2883 18.1337 74.2631 18.1479C74.2433 18.1348 74.2236 18.1216 74.2049 18.1084C74.2225 18.0689 74.239 18.0294 74.2565 17.9888C74.284 18.0283 74.3114 18.0678 74.3377 18.1062ZM73.6298 19.4452C73.8219 19.3234 74.0238 19.2004 74.228 19.0797C74.8184 19.4825 75.0072 19.601 75.1301 19.6427C75.3584 19.7195 75.5955 19.612 75.6833 19.3936C75.7732 19.1664 75.6415 18.7889 75.4429 18.4069C75.6481 18.2994 75.8457 18.1995 76.0279 18.1106L80.6648 17.7836C80.0151 18.0964 79.3511 18.4201 78.956 18.6242C78.5905 18.813 78.5905 19.0951 78.6081 19.207C78.6256 19.3201 78.6542 19.5088 79.1283 19.7492C77.2878 19.736 75.2629 19.7887 74.5781 20.0587C74.3586 20.1454 74.2049 20.3144 74.1435 20.5339C73.936 21.2802 74.8393 22.5105 76.3308 24.4563C76.975 25.297 77.6368 26.1608 77.932 26.7161C77.7312 26.5723 77.5029 26.3989 77.3097 26.2518C76.7588 25.8315 76.1343 25.3552 75.5494 25.0435C75.3299 24.9261 75.072 24.8108 74.8272 24.8108C74.7197 24.8108 74.6143 24.8328 74.5166 24.8877C74.465 24.3916 74.4156 23.8944 74.3728 23.4609C74.2335 22.0429 74.1138 20.817 73.9975 20.3089C73.9404 20.0598 73.7923 19.8128 73.5794 19.5648C73.5969 19.5253 73.6134 19.4847 73.6309 19.4452H73.6298ZM71.605 17.9603C70.952 17.4971 69.9148 16.7618 69.6821 16.3327C70.3615 16.5072 72.1087 17.6442 73.2227 18.3949C73.148 18.5694 73.0734 18.7417 72.9988 18.9151C72.979 18.9283 72.9593 18.9414 72.9395 18.9546C72.5466 18.6275 72.0813 18.2983 71.605 17.9603ZM72.1603 20.6645C72.1998 20.5888 72.2635 20.5054 72.348 20.4165C72.1702 20.8269 71.9935 21.233 71.819 21.6325C71.9726 21.1342 72.0922 20.794 72.1603 20.6645ZM65.8442 30.734C65.3295 30.6078 64.6995 30.3773 63.906 30.0591C64.5481 30.2314 65.2406 30.4596 65.8442 30.734ZM62.2587 30.2358L62.4914 30.3323C64.5645 31.1939 66.0363 31.8063 67.1513 31.5868C67.2457 31.6976 67.3017 31.8019 67.317 31.8963C67.3566 32.1476 67.2699 32.31 67.0273 32.4373C65.9748 32.9894 62.9358 32.389 61.6013 31.1181C61.2995 30.8306 61.1535 30.4553 61.1568 29.9691C61.1579 29.7759 61.182 29.5751 61.2248 29.3698C61.1919 29.7594 61.6551 29.9855 62.2587 30.2358ZM68.5155 34.3766C67.5387 34.7805 65.5687 35.5443 64.1146 35.7792C62.2312 36.0832 61.5629 35.3742 61.4882 35.1701C61.3587 34.7959 58.8641 24.7516 59.2197 22.5533C59.5424 20.5536 62.2719 18.1907 64.7555 18.1907C64.9497 18.1907 65.1418 18.205 65.3317 18.2357C67.6649 18.6078 69.3244 19.6339 69.5065 20.0301C69.4923 20.0378 69.4736 20.0477 69.4473 20.0576C69.1916 20.1585 68.5945 20.1333 67.8866 20.0444C66.7013 19.5769 65.3953 19.2279 64.4998 19.1214C63.9027 19.0501 63.5845 19.0259 63.4352 19.3146C63.3562 19.4682 63.3814 19.6515 63.5 19.7832C63.782 20.096 65.7334 20.4867 66.3238 20.5986C66.7518 20.6799 67.2271 20.76 67.6902 20.8181C67.7923 20.8598 67.8921 20.9016 67.992 20.9455C69.3716 21.5436 69.8369 21.9958 69.9269 22.1593C69.8896 22.1834 69.8127 22.2229 69.6668 22.2614C69.2772 22.3656 68.8305 22.4073 68.3673 22.404C67.2271 21.7433 65.7147 21.2308 64.9816 21.3515C64.8608 21.3713 64.4932 21.4316 64.3856 21.7444C64.3571 21.8278 64.3132 22.044 64.514 22.2581C64.8883 22.6575 66.5455 23.1372 68.1325 23.1887C68.5144 23.4192 68.8173 23.6453 68.9589 23.8143C68.4727 23.9032 67.4948 23.8099 66.506 23.6596C65.572 23.3369 64.6337 23.0976 64.018 23.0131C63.5142 22.9451 63.2376 22.9067 63.0818 23.1679C63.0006 23.304 63.0105 23.484 63.1038 23.6124C63.1883 23.7287 63.2717 23.7989 64.0882 23.9954C64.5799 24.1139 65.1758 24.2357 65.7652 24.34C65.9419 24.3707 66.1274 24.4026 66.3172 24.4322C67.3291 24.7999 68.2214 25.2378 68.6297 25.5319C68.0458 25.5451 67.0273 25.2652 66.1844 25.0347C64.5492 24.5869 63.523 24.3345 63.0324 24.7911C62.4486 25.3332 60.3809 27.8992 60.3677 29.9658C60.3633 30.6715 60.5949 31.2531 61.0569 31.6921C62.5671 33.1299 65.943 33.9014 67.395 33.1386C67.9415 32.8511 68.1917 32.3671 68.0985 31.7744C68.071 31.601 68.0019 31.4342 67.8998 31.2762C68.1972 31.072 68.465 30.7735 68.712 30.3642C68.7954 30.2248 68.9249 29.9735 69.0939 29.6288C68.791 31.2894 68.5506 33.0058 68.5177 34.3788L68.5155 34.3766ZM72.2031 53.2448C71.808 56.0335 71.0079 61.037 70.097 63.2067C69.8193 63.8674 69.1872 65.3732 68.8777 65.6322C68.6242 65.393 68.1841 64.2088 67.7198 62.9598C67.6024 62.6437 67.4762 62.3046 67.339 61.9413C65.8716 58.0485 64.4449 49.8502 63.8358 46.3492C63.7304 45.7412 63.6536 45.3033 63.6075 45.0629C63.5724 44.8829 63.7151 44.6689 63.8413 44.5208C64.1892 44.1103 64.8071 43.7031 65.5117 43.341C65.7838 43.2905 66.0867 43.2268 66.4248 43.15C67.1941 42.9733 68.0118 42.7483 68.6681 42.5321C69.658 42.2051 69.9807 42.0338 69.9445 41.664C69.9324 41.5476 69.8577 41.2755 69.4111 41.2634C68.6505 41.2447 66.8023 41.8012 65.2636 42.5815C64.4559 42.7231 63.9796 42.7384 63.7985 42.6978C63.7184 42.4695 63.5921 42.0865 63.4374 41.6168C63.0083 40.3119 62.386 38.422 61.947 37.4364C62.3333 37.4606 62.9677 37.5572 63.5076 37.6384C65.5896 37.9544 68.1797 38.3484 69.118 37.3388C69.3419 37.0973 69.5757 36.6605 69.4144 35.9526C69.3924 35.8582 69.3748 35.7573 69.3595 35.6508L70.6381 38.5734C70.7478 38.9751 72.0703 43.8886 72.6344 49.9523C72.5181 50.9422 72.3754 52.054 72.2064 53.2459L72.2031 53.2448ZM80.7789 188.633C80.7734 188.633 80.7669 188.634 80.7614 188.635C80.7833 188.541 80.8162 188.44 80.8612 188.333C80.8305 188.429 80.8042 188.53 80.78 188.634L80.7789 188.633ZM88.0905 190.56C90.2854 190.454 93.286 190.308 93.7426 190.548C93.9774 190.761 94.7007 191.133 96.1538 191.87C97.6222 192.615 99.4495 193.542 100.92 194.432C103.289 195.865 103.277 196.345 103.277 196.357C103.277 196.358 103.199 196.474 102.749 196.558C100.837 196.916 95.7663 197.23 90.911 197.113C84.1636 196.952 82.2035 196.078 82.1091 195.587L82.085 195.461C81.8819 194.405 81.4747 192.288 81.4254 190.533C82.4691 190.833 85.2018 190.701 88.0915 190.559L88.0905 190.56ZM95.0672 171.987C92.1281 171.639 90.2843 171.074 88.7555 170.606C87.8797 170.337 87.0522 170.083 86.1797 169.917C85.553 169.799 85.0021 169.901 84.5401 170.223C83.3152 171.076 82.941 173.302 82.5086 175.88C82.1771 177.851 81.8029 180.086 80.9831 181.759C80.8591 182.013 80.7658 182.146 80.7065 182.213C80.5243 181.916 80.0919 180.655 79.9547 175.327C79.8878 172.734 79.9196 170.192 79.9361 169.241C80.982 169.26 83.965 169.324 87.0017 169.493C94.0005 169.882 94.8949 170.472 95.0069 170.597C95.0837 170.756 95.1067 171.229 95.0672 171.988V171.987ZM127.807 192.538C125.731 192.767 123.805 192.879 122.866 192.694C122.779 192.676 122.755 192.654 122.755 192.654C122.676 192.503 122.916 191.765 124.482 190.026C125.71 190.806 126.931 191.697 127.807 192.539V192.538ZM157.9 40.5006C157.799 40.4106 157.697 40.3887 157.583 40.3942C157.21 40.415 157.139 40.7882 157.146 41.0977C157.152 41.3655 157.029 41.957 156.852 42.6419C156.972 41.203 157.056 39.4668 157.017 37.6065C156.989 36.3356 156.928 34.8035 156.85 33.4404C156.888 33.6852 156.941 33.9354 157.01 34.1922C157.448 35.8023 157.735 38.4165 157.9 40.5017V40.5006ZM148.313 33.0377C147.79 32.1981 142.655 28.8617 139.019 28.8617C138.913 28.8617 138.808 28.865 138.705 28.8705C136.023 29.0219 133.473 30.7593 132.241 32.31C131.488 33.2561 131.162 34.167 131.296 34.9462C131.313 35.0472 131.343 35.2173 130.925 35.3512C130.261 35.5641 128.929 35.4873 127.531 35.1558C126.066 34.8079 125.278 34.3656 125.136 34.178C125.472 33.0157 132.266 24.0755 135.688 21.8432C136.369 21.3987 136.629 21.4316 136.676 21.4426C137.921 21.7499 144.684 24.1567 150.118 26.0905C155.048 27.8454 156.997 28.5324 157.764 28.7739C157.751 28.7991 157.739 28.8255 157.725 28.8496C157.419 29.4576 156.815 30.6572 156.773 32.2453C156.751 31.938 156.729 31.6713 156.708 31.4529C156.647 30.8108 156.613 30.4564 156.218 30.452C156.215 30.452 156.213 30.452 156.211 30.452C155.805 30.452 155.787 30.8745 155.774 31.1829C155.725 32.3517 153.327 35.7858 152.174 37.4364C151.765 38.0225 151.47 38.4461 151.344 38.6623C151.199 38.9104 150.99 39.1354 150.788 39.3527C150.662 39.4887 150.531 39.6292 150.414 39.7796C150.34 37.9687 148.769 33.7708 148.314 33.0388L148.313 33.0377ZM146.119 38.3375C146.67 40.2603 147.165 42.902 146.082 46.2822C144.932 49.8733 142.865 52.156 140.414 52.5457C138.38 52.8705 136.952 50.67 136.186 49.488C136.066 49.3037 135.963 49.1445 135.874 49.0205C135.794 48.9086 135.623 48.6715 135.374 48.6715C135.324 48.6715 135.273 48.6803 135.218 48.7011C134.871 48.8328 134.906 49.1731 134.963 49.7383C134.981 49.9051 135.001 50.1015 135.014 50.3101C134.521 49.0798 134.054 47.698 133.777 46.3536C132.977 42.4761 134.236 37.8754 134.617 36.8548C134.911 36.0657 136.751 35.3095 140.202 35.4039C143.56 35.4928 145.72 36.9469 146.118 38.3375H146.119ZM135.99 54.2907C135.488 54.3423 134.684 54.3752 133.796 54.2215C134.355 53.8023 134.901 53.3238 135.26 52.8431C135.551 53.4522 135.808 53.9494 135.99 54.2907ZM131.989 36.9393C133.998 35.0801 136.251 34.1319 138.562 34.1319C139.645 34.1319 140.742 34.3404 141.83 34.7607C141.33 34.6795 140.794 34.629 140.225 34.6137C136.693 34.5182 134.378 35.2349 133.878 36.5782C133.481 37.6428 132.166 42.4498 133.004 46.5127C133.405 48.4553 134.169 50.4341 134.857 51.9717C134.827 52.0463 134.792 52.1176 134.752 52.1846C134.506 52.5929 134.051 53.022 133.551 53.4149C133.498 53.3084 133.427 53.2294 133.33 53.1712C133.187 53.0856 133.01 53.0779 132.847 53.1493C132.669 53.2283 132.428 53.4489 132.179 53.7189C130.755 53.0472 129.76 51.8433 129.214 50.1224C127.443 44.5449 131.366 37.5154 131.989 36.9382V36.9393ZM135.435 62.9631C135.443 63.3088 135.571 63.5009 135.819 63.5338C136.208 63.5854 136.336 63.1947 136.485 62.7425C136.594 62.4111 136.726 61.9589 136.866 61.4804C137.135 60.5596 137.543 59.1691 137.746 58.9035C137.772 58.8694 137.798 58.8343 137.822 58.8036C138.09 58.9068 138.627 59.0944 139.846 59.1295C141.073 59.1636 143.175 58.2768 145.209 57.4174C146.421 56.9049 148.208 56.1509 148.771 56.1509C148.774 56.1509 148.779 56.1509 148.782 56.1509C148.667 56.5186 147.935 57.4295 145.72 58.8618C143.68 60.1809 141.137 61.4639 138.743 62.3803C136.842 63.1091 135.549 63.9168 134.884 64.7904C134.542 64.2373 134.083 63.6326 133.493 63.0026C131.12 60.4773 129.975 55.7361 129.963 55.6878C129.926 55.5308 129.798 55.4123 129.638 55.3882C129.48 55.364 129.321 55.4387 129.239 55.5769C129.213 55.6208 126.599 60.0119 125.809 60.936C124.917 61.9797 125.252 64.9858 126.34 71.3304C126.854 74.3266 127.754 75.8686 128.41 76.9935C128.967 77.9472 129.273 78.4718 129.038 79.3301C128.997 79.4793 128.873 79.9315 129.23 80.1367C129.718 80.4177 130.255 79.8997 132.71 77.4051C134.927 75.1519 137.964 72.0657 141.049 69.8356C145.642 66.5146 150.185 63.8455 152.369 62.5625C153.08 62.1444 153.55 61.8678 153.758 61.7262C153.936 61.6055 154.879 61.8832 155.885 62.7008C156.649 63.3209 156.874 63.8038 156.823 63.9245C156.671 64.2944 155.359 65.0132 153.84 65.8473C152.102 66.801 149.72 68.1071 146.949 69.9706C142.785 72.7703 141.537 74.5219 139.273 77.7036C138.419 78.9031 137.451 80.2618 136.122 81.9772C133.589 85.2445 131.507 87.2935 129.834 88.9397C128.381 90.3698 127.297 91.4354 126.576 92.6613C126.427 92.1324 126.202 90.9207 125.93 88.1539C125.665 85.4673 125.431 82.1364 125.203 78.9141C124.554 69.7083 124.409 68.8643 123.956 68.6448C123.813 68.5757 123.649 68.5889 123.517 68.6789C123.271 68.8468 122.697 69.2386 122.73 75.2013C122.752 79.1918 123.041 84.6354 123.566 90.9449C123.787 93.5997 124.168 97.4508 124.611 101.911C126.35 119.455 129.263 148.816 127.423 157.755C127.105 159.296 126.854 159.831 126.734 160.012C126.557 159.752 126.172 158.827 125.65 155.543C125.234 152.93 124.831 149.506 124.442 146.195C123.874 141.375 123.287 136.39 122.656 133.902C122.478 133.2 122.159 132.261 121.455 132.226C121.443 132.226 121.43 132.226 121.418 132.226C120.335 132.226 119.45 134.524 118.107 138.251C117.527 139.86 116.669 142.24 116.204 142.707C116.116 142.533 115.951 142.033 115.837 140.66C115.621 138.045 115.267 134.087 114.856 129.505C114.317 123.482 113.635 115.87 113.14 109.764C113.222 108.709 113.26 107.687 113.273 106.754C113.322 102.951 112.924 99.2485 112.561 98.7173C112.455 98.5615 112.288 98.4858 112.116 98.5165C111.984 98.5406 111.812 98.6306 111.738 98.9259C111.586 99.5361 111.842 103.565 112.346 109.769C112.099 112.842 111.495 115.909 110.255 117.934C109.825 118.637 109.419 119.009 109.139 118.954C108.831 118.894 108.199 118.333 107.435 115.262C106.876 113.018 106.391 110.031 105.923 107.143C105.423 104.07 104.907 100.893 104.306 98.6526C103.792 96.7374 103.347 96.001 102.723 96.0296C101.717 96.0735 101.267 98.106 100.236 103.903C99.8051 106.327 99.3167 109.074 98.7395 111.326C98.5529 112.054 98.3948 112.318 98.3213 112.407C98.1863 112.275 97.8 111.715 97.2304 109.426C96.8101 107.735 96.348 105.341 95.8552 102.307C94.9487 96.7232 94.0795 89.8331 93.444 84.8022C93.3266 83.8726 93.2158 82.9957 93.1126 82.1879C92.3762 76.425 92.7032 73.0645 92.9414 70.6105C93.1697 68.2629 93.3365 66.5442 92.442 64.2307C93.286 65.2206 94.6227 66.9558 95.9288 68.6525C98.4881 71.9768 101.673 76.1144 104.736 79.5364C107.106 82.1846 108.671 83.6761 109.707 84.6628C109.982 84.9262 110.217 85.149 110.415 85.3443C110.381 85.7658 110.363 86.1466 110.354 86.4594C110.319 87.6524 110.373 89.8013 110.798 90.294C110.929 90.4466 111.116 90.5059 111.296 90.4521C111.617 90.3566 111.77 89.9878 111.904 88.9891C111.928 88.8102 111.951 88.6434 111.972 88.4876C112.233 86.5955 112.254 86.1356 111.236 85.0579C111.366 83.697 111.641 82.2955 112.14 81.2254C113.032 79.3169 115.672 75.8554 118.224 72.5091C120.845 69.0729 123.321 65.8265 124.008 64.1605C125.372 60.8559 129.399 54.306 129.982 53.8703C130.164 53.7375 130.283 53.5861 130.337 53.4193C130.76 53.8056 131.208 54.1063 131.658 54.3379C131.451 54.5958 131.269 54.8405 131.147 55.0073C131.039 55.1555 131.048 55.3596 131.168 55.499C131.289 55.6384 131.49 55.6757 131.652 55.589C131.703 55.5616 132.248 55.2696 132.922 54.8317C132.94 54.8372 132.957 54.8416 132.975 54.846C133.019 55.4035 133.077 56.0807 133.214 56.8489C133.338 57.5382 133.65 58.054 134.14 58.3821C134.616 58.7004 135.157 58.7641 135.539 58.7597C135.501 59.7376 135.42 62.0247 135.439 62.9631H135.435ZM111.152 86.2136C111.187 86.2739 111.216 86.3332 111.24 86.3924C111.402 86.8029 111.33 87.3297 111.185 88.3789C111.182 88.3998 111.18 88.4195 111.176 88.4404C111.133 87.8236 111.118 87.0488 111.152 86.2125V86.2136ZM88.3999 53.2524C88.5657 56.3715 88.4482 57.9014 88.3154 58.493C88.2617 58.3975 88.1958 58.2658 88.1179 58.0858C87.0742 55.6691 87.083 52.0496 88.0762 49.2729C88.2068 50.4231 88.3264 51.8564 88.3999 53.2524ZM77.9156 54.2018C78.3908 54.9887 78.7804 55.6834 79.0054 56.1959C79.7824 57.9706 79.5936 63.4306 79.2106 65.1405C79.1689 64.9968 79.1217 64.8091 79.0701 64.5665C78.99 64.1912 78.9055 63.8016 78.8177 63.4021C78.1548 60.3807 77.3932 56.9082 77.9167 54.2018H77.9156ZM106.977 170.044C107.082 169.128 107.407 164.952 107.522 160.975C107.586 158.709 107.573 156.88 107.482 155.541C107.321 153.169 106.937 152.72 106.545 152.588C105.947 152.387 105.518 153.113 105.376 153.352C105.018 153.958 104.599 154.702 104.156 155.49C103.155 157.269 102.02 159.286 100.955 160.848C99.3321 163.227 98.7373 163.23 98.6352 163.206C98.5935 163.196 98.2214 163.065 98.1216 161.424C97.721 154.814 93.4649 143.63 93.2838 143.158C93.2278 143.011 93.0895 142.912 92.9326 142.905C92.7757 142.9 92.6297 142.984 92.5595 143.124C92.5342 143.175 90.0605 148.179 87.2739 153.074C82.1552 162.065 80.6022 162.616 80.2455 162.572C80.1237 162.556 80.0096 162.352 79.9361 162.024C79.9284 160.822 79.7923 134.469 81.4286 119.729C82.1596 113.148 82.3505 105.235 82.5185 98.2531C82.7369 89.2152 82.9421 80.6778 84.2799 77.6663C84.4501 77.2832 84.6136 76.9035 84.7705 76.5325C85.7056 75.0718 86.3904 73.5517 86.7142 72.1667C86.8613 71.5389 86.9677 71.0857 87.0336 70.7904C87.1356 70.3306 87.2103 69.9991 86.8371 69.8905C86.4705 69.784 86.341 70.1352 86.2631 70.346C86.2104 70.4886 86.1369 70.6982 86.0436 70.9671C85.6858 71.9889 84.9977 73.9556 84.055 76.1934C82.0443 79.3059 78.9143 82.0266 76.1969 82.1122C66.123 82.4316 60.2108 76.7619 59.1012 65.7145C58.03 55.0414 59.2186 46.6345 60.2294 42.3302C59.7004 45.9903 59.0255 52.133 60.4138 58.0716C60.551 58.6587 60.6926 59.2678 60.8374 59.8923C61.7429 63.7961 62.769 68.2212 63.8402 71.7727C65.5314 77.3754 66.6059 78.271 67.3522 78.4246C67.6836 78.4927 68.1786 78.4367 68.6593 77.7837C70.9706 74.6383 71.3569 72.3434 72.7957 63.806C72.9154 63.0937 73.0427 62.3375 73.1799 61.5331C73.823 57.7478 73.7626 53.6519 73.4246 49.9698C73.519 49.1643 73.6013 48.396 73.6661 47.7123C73.6748 47.6146 73.6847 47.518 73.6924 47.4247C74.1929 48.3159 74.9655 49.5484 76.0762 51.2802C76.5053 51.9486 76.9388 52.6258 77.3427 53.27C76.4515 56.3046 77.335 60.3302 78.0451 63.5711C78.1318 63.9684 78.2174 64.3558 78.2964 64.7301C78.5225 65.7979 78.7409 66.2292 79.1009 66.3192C79.3006 66.3697 79.4993 66.2984 79.6452 66.125C80.2203 65.4456 80.3158 62.365 80.3323 61.4376C80.3487 60.4937 80.352 57.3033 79.7286 55.8788C79.429 55.1939 78.8638 54.2248 78.1998 53.1537C78.6465 51.9168 79.4608 50.9115 80.814 50.2914C82.7852 49.3893 84.2745 48.4454 85.3632 47.7573C86.3059 47.1602 87.1949 46.5972 87.4901 46.707C87.5757 46.7388 87.6613 46.8859 87.7316 47.1185C87.7755 47.2645 87.8216 47.4818 87.8688 47.7573C87.8216 47.8484 87.7766 47.9406 87.7316 48.036C86.296 51.0695 86.1501 55.5243 87.3913 58.3986C87.6504 58.9989 88.018 59.6629 88.5646 59.4643C88.8828 59.3479 89.4755 59.1328 89.2044 53.5312C89.1012 51.3955 88.8982 49.2181 88.6919 47.8945C88.7994 47.7024 88.9103 47.5224 89.0255 47.3556C89.1825 47.5477 89.4272 47.6903 89.5896 47.7869C90.6729 48.4213 91.5157 50.1981 92.7921 52.8892C93.8304 55.0787 95.1232 57.8049 97.0833 61.0831C99.4342 65.0154 102.733 68.8336 105.086 71.3436C106.257 72.5925 107.462 73.8009 108.48 74.7447C110.029 76.1835 110.16 76.1462 110.375 76.0837C110.552 76.0332 110.674 75.8675 110.67 75.6908C110.688 75.3363 111.811 70.7597 115.305 65.5488C118.671 60.5289 122.031 53.2854 121.664 50.5032C121.595 49.9764 121.23 49.3882 120.71 48.801C121.234 48.9536 121.748 49.0885 122.247 49.2202C123.902 49.6549 125.466 50.0664 126.65 50.9049L127.044 51.1837C128.333 52.0946 129.452 52.8848 129.569 53.1822C129.558 53.1932 129.54 53.2107 129.51 53.2327C128.689 53.8319 124.571 60.7132 123.273 63.8598C122.625 65.4303 120.066 68.7853 117.591 72.0306C115.013 75.4109 112.347 78.9053 111.419 80.8918C110.929 81.9388 110.66 83.2097 110.513 84.3467C110.429 84.2655 110.34 84.181 110.247 84.0921C109.221 83.1131 107.669 81.6348 105.32 79.0107C102.277 75.6095 99.1016 71.4852 96.5499 68.1718C95.3153 66.5684 94.2496 65.1833 93.455 64.2175C92.2598 62.7645 91.8955 62.4824 91.5059 62.7063C91.0932 62.9444 91.2864 63.5075 91.6035 64.2768C92.5364 66.5398 92.3828 68.129 92.149 70.5347C91.9075 73.026 91.5761 76.4371 92.3235 82.2889C92.4267 83.0967 92.5375 83.9736 92.6549 84.902C93.3069 90.0723 94.2013 97.1523 95.1331 102.823C96.6981 112.341 97.5794 113.185 98.284 113.228C98.9579 113.273 99.2772 112.39 99.5 111.524C100.085 109.243 100.576 106.481 101.009 104.042C101.344 102.156 101.661 100.375 101.978 99.0356C102.366 97.4036 102.639 96.9646 102.749 96.8472C102.855 96.9548 103.137 97.363 103.538 98.8578C104.129 101.059 104.642 104.217 105.138 107.27C106.36 114.793 107.229 119.385 108.983 119.73C109.962 119.923 110.688 118.737 110.926 118.347C111.749 117.002 112.294 115.277 112.649 113.459C113.041 118.094 113.529 123.588 114.066 129.576C114.476 134.157 114.83 138.112 115.047 140.725C115.211 142.705 115.492 143.471 116.083 143.549C116.912 143.661 117.501 142.257 118.848 138.519C119.339 137.154 119.849 135.742 120.336 134.671C121.065 133.07 121.403 133.017 121.407 133.015C121.409 133.015 121.635 133.107 121.887 134.097C122.506 136.535 123.089 141.493 123.654 146.288C124.978 157.542 125.539 160.821 126.707 160.872C127.341 160.897 127.744 160.098 128.193 157.915C130.058 148.859 127.137 119.422 125.393 101.834C124.951 97.3784 124.57 93.5295 124.35 90.8812C123.378 79.2038 123.4 72.7945 123.704 70.392C123.932 72.1919 124.183 75.7434 124.411 78.9723C124.65 82.3701 124.898 85.8832 125.18 88.6412C125.65 93.2386 125.999 93.659 126.44 93.7512C126.591 93.783 126.874 93.7731 127.089 93.3594C127.747 92.0983 128.854 91.0107 130.385 89.5038C132.075 87.84 134.178 85.7702 136.744 82.4623C138.083 80.7349 139.055 79.3685 139.913 78.1634C142.196 74.9565 143.342 73.3476 147.387 70.628C150.129 68.7853 152.492 67.4892 154.217 66.542C156.2 65.4544 157.292 64.8552 157.551 64.2274C157.87 63.4526 156.954 62.5548 156.38 62.0884C155.607 61.4617 154.092 60.5431 153.31 61.0754C153.125 61.2027 152.639 61.4881 151.966 61.8832C149.772 63.1727 145.207 65.855 140.584 69.198C137.445 71.4676 134.382 74.5801 132.145 76.853C131.299 77.7134 130.432 78.5947 129.891 79.0699C129.996 78.1491 129.605 77.4786 129.091 76.5973C128.464 75.5239 127.606 74.0533 127.116 71.1987C126.479 67.4815 125.605 62.3891 126.407 61.4518C127.033 60.7209 128.633 58.1133 129.44 56.7776C129.903 58.336 131.025 61.5342 132.914 63.5448C133.665 64.3438 134.145 65.0472 134.448 65.6124C134.447 65.6168 134.444 65.6212 134.443 65.6256C134.194 66.4542 134.529 67.0963 134.751 67.4058C134.95 67.6823 135.172 67.6955 135.286 67.679C135.466 67.6527 135.612 67.5243 135.679 67.3355C135.79 67.0183 135.695 66.3895 135.312 65.5773C135.646 64.9331 136.587 64.0518 139.024 63.1189C143.461 61.4189 149.627 57.9025 149.588 56.0368C149.583 55.8063 149.479 55.6143 149.296 55.4957C148.705 55.1127 147.382 55.6417 144.899 56.6909C143.034 57.4789 140.924 58.369 139.866 58.3415C138.721 58.3086 138.28 58.1363 138.067 58.054C137.573 57.8619 137.401 58.0496 137.113 58.4271C136.875 58.7399 136.611 59.5499 136.256 60.7483C136.291 59.5422 136.34 58.3646 136.341 58.3448C136.345 58.223 136.294 58.1045 136.2 58.0266C136.106 57.9475 135.982 57.9168 135.862 57.9431C135.856 57.9453 135.117 58.0924 134.575 57.7302C134.269 57.5261 134.071 57.1837 133.987 56.714C133.874 56.0873 133.817 55.5155 133.776 55.0238C135.353 55.2751 136.634 55.003 136.693 54.9898C136.816 54.9634 136.919 54.8789 136.97 54.7648C137.021 54.6496 137.015 54.5179 136.952 54.4081C136.94 54.3884 136.373 53.3863 135.702 51.919C135.832 51.4076 135.837 50.8478 135.808 50.3583C136.621 51.5689 138.018 53.3732 140.004 53.3732C140.178 53.3732 140.355 53.36 140.536 53.3304C143.293 52.8925 145.588 50.4121 146.834 46.5281C148.129 42.486 147.22 39.3175 146.878 38.1246C146.853 38.0368 146.822 37.9479 146.786 37.859C147.613 38.5954 148.235 39.2813 148.69 39.7829C149.327 40.4864 149.628 40.8178 150.006 40.707C149.99 40.8946 150.013 41.0988 150.09 41.3227C150.139 41.4642 150.208 41.6398 150.288 41.844C150.795 43.128 151.85 45.7983 151.303 49.3508C151.076 50.8226 150.445 52.1341 149.49 53.1515C147.889 51.7851 146.613 50.737 145.584 50.9356C145.182 51.0136 144.864 51.2715 144.639 51.7017C144.252 52.4425 143.442 53.0286 142.791 53.5005C142.066 54.0251 141.544 54.4037 141.664 54.9371C141.766 55.3904 142.266 55.6461 143.513 55.8799C145.408 56.2365 147.334 55.8085 148.937 54.6748C149.14 54.531 149.334 54.3785 149.521 54.2171C150.444 55.0019 151.393 55.7866 152.366 56.3825C155.034 58.0156 159.756 59.5477 161.448 60.0701C160.132 61.5111 156.436 65.9626 156.709 70.2274C156.731 70.5676 156.765 70.9156 156.81 71.27C155.894 73.0414 155.025 74.68 154.345 75.8653C153.58 77.2009 151.443 80.2937 148.97 83.8748C146.733 87.1124 144.199 90.7813 142.334 93.6634C141.316 95.2372 140.59 96.4301 140.117 97.3092C139.418 98.6087 139.291 99.1508 139.615 99.4603C140.02 99.8478 140.669 99.3539 141.018 99.0894C142.436 98.0116 143.995 96.6431 145.502 95.3195C147.023 93.9827 148.459 92.7206 149.653 91.8404C151.326 90.6068 151.808 90.676 151.915 90.7276C152.003 90.7693 152.092 90.9723 152.078 91.419C152.038 92.6449 150.229 98.4967 148.132 105.273C146.057 111.982 143.475 120.331 141.704 127.118C138.941 137.708 139.308 140.001 139.938 140.815C140.158 141.099 140.461 141.239 140.812 141.224C143.848 141.087 146.81 136.828 148.593 133.89C147.702 136.793 146.158 141.93 144.754 147.129C141.04 160.881 141.719 162.425 141.941 162.932C142.205 163.532 142.021 164.151 141.382 164.824C139.626 166.672 135.301 167.905 134.721 167.685C134.591 167.631 134.396 167.551 134.208 167.713C134.095 167.81 134.047 167.963 134.082 168.107C134.135 168.321 134.138 168.334 135.509 168.925C136.185 169.217 137.292 169.679 138.733 170.225C139.874 170.657 141.303 171.171 142.916 171.691C143.033 173.675 143.128 175.889 143.048 176.939C142.895 178.93 141.013 184.94 136.297 186.692C134.69 187.289 133.154 187.849 132.011 188.154C130.47 188.566 130.264 188.333 130.263 188.33C130.262 188.328 130.134 188.083 130.826 187.037C131.338 186.264 131.867 185.602 132.38 184.962C133.935 183.017 135.279 181.338 135.368 177.638C135.484 172.843 133.522 167.107 133.439 166.865C133.373 166.675 133.176 166.563 132.979 166.608C132.783 166.652 132.651 166.838 132.673 167.038C133.262 172.363 133.571 181.234 131.888 182.37C130.74 183.144 128.218 185.224 125.987 187.361C125.343 187.979 124.8 188.525 124.342 189.012C122.484 187.882 120.683 187.046 119.942 187.015C119.887 187.013 119.83 187.012 119.772 187.012C119.159 187.012 118.367 187.131 117.462 187.266C115.698 187.529 113.504 187.857 111.897 187.373C111.075 187.125 110.423 186.582 109.92 185.891C110.128 185.915 110.349 185.932 110.584 185.942C115.449 186.139 118.483 186.227 119.525 185.56C119.825 185.368 120.325 185.047 120.496 177.031C120.538 175.1 120.549 173.151 120.549 171.616C121.043 171.542 121.522 171.464 121.989 171.385C124.561 170.947 126.607 170.463 128.069 169.948C129.822 169.33 130.694 168.693 130.813 167.939C130.879 167.52 130.721 167.151 130.366 166.897C128.635 165.657 121.801 167.234 120.299 168.025C120.035 168.164 119.735 168.366 119.741 168.695C119.744 168.889 119.754 169.73 119.757 170.935C116.018 171.477 111.591 171.896 107.084 172.135C106.973 171.254 106.921 170.513 106.975 170.047L106.977 170.044ZM148.913 53.6936C148.774 53.81 148.631 53.9208 148.481 54.0262C147.056 55.0359 145.344 55.4167 143.66 55.1006C142.89 54.9558 142.591 54.8295 142.478 54.7626C142.609 54.6057 142.976 54.3401 143.255 54.1381C143.973 53.6179 144.866 52.9704 145.339 52.065C145.485 51.7862 145.634 51.728 145.734 51.7083C146.385 51.5821 147.649 52.6181 148.913 53.6947V53.6936ZM120.535 168.797C120.9 168.536 122.545 167.988 124.697 167.594C127.099 167.155 129.05 167.106 129.79 167.467C130.067 167.602 130.047 167.728 130.033 167.811C129.995 168.052 129.423 169.313 121.857 170.601C121.432 170.674 120.997 170.744 120.549 170.813C120.547 169.832 120.539 169.105 120.535 168.796V168.797ZM107.778 176.378C107.572 175.229 107.354 174.008 107.193 172.919C111.656 172.68 116.039 172.266 119.76 171.73C119.76 173.171 119.749 174.963 119.713 176.757C119.578 183.518 119.201 184.704 119.072 184.909C118.134 185.455 114.314 185.3 110.618 185.148C110.145 185.13 109.737 185.076 109.388 185.001C108.78 183.779 108.509 182.342 108.49 181.259C108.47 180.232 108.135 178.359 107.78 176.378H107.778ZM128.988 194.324C128.968 194.351 128.813 194.528 128.039 194.707C125.753 195.233 120.749 195.199 116.826 194.993C111.734 194.725 108.475 194.213 107.994 193.867C107.226 193.315 107.525 190.383 107.743 188.243C107.856 187.139 107.958 186.129 107.954 185.344C108.211 185.476 108.515 185.595 108.872 185.693C109.504 186.816 110.417 187.75 111.669 188.127C113.446 188.663 115.737 188.32 117.579 188.045C118.531 187.902 119.354 187.779 119.91 187.802C120.48 187.825 122.084 188.575 123.797 189.603C121.788 191.862 121.924 192.54 121.977 192.8C122.018 193.004 122.168 193.362 122.712 193.47C123.793 193.684 126.09 193.531 128.471 193.251C128.485 193.269 128.499 193.286 128.513 193.305C128.986 193.903 129.005 194.212 128.988 194.325V194.324ZM129.611 193.563C129.548 193.427 129.468 193.286 129.371 193.139C129.673 193.1 129.976 193.059 130.276 193.018C129.941 193.218 129.736 193.398 129.611 193.563ZM152.47 193.097C151.54 193.081 150.906 193.061 150.613 193.037C150.323 193.013 150.059 192.994 149.824 192.98C150.041 192.825 150.235 192.663 150.406 192.494C151.395 191.513 152.184 190.022 152.715 188.813C152.719 188.869 152.722 188.924 152.724 188.98C152.81 190.546 152.914 192.438 152.468 193.097H152.47Z" fill="#00399F"/>
</g>
<defs>
<clipPath id="clip0_1_2247">
<rect width="245.658" height="196.97" fill="white" transform="translate(0.335938 0.958008)"/>
</clipPath>
</defs>
</svg>
