<svg width="211" height="116" viewBox="0 0 211 116" fill="none" xmlns="http://www.w3.org/2000/svg">
<g clip-path="url(#clip0_1_2218)">
<path d="M1.21747 115.928C1.06041 115.928 0.930871 115.802 0.926013 115.645C0.921965 115.483 1.04826 115.35 1.20938 115.345C1.2871 115.343 9.08933 115.128 16.7928 114.935C21.3177 114.822 24.9237 114.739 27.5104 114.688C29.0471 114.657 30.2372 114.637 31.0476 114.629C31.3156 114.627 31.5463 114.625 31.7358 114.625C31.4346 113.92 31.0314 112.338 30.4307 108.669C29.885 105.333 29.3547 101.372 28.9289 98.1902C28.5977 95.7193 28.337 93.7681 28.2269 93.3293C28.1265 92.9018 27.9671 92.4978 27.78 92.1286C27.0886 91.9108 26.5057 91.6226 26.0863 91.2461C26.0798 91.2405 26.0734 91.234 26.0677 91.2283C24.2744 89.3096 24.459 88.9452 24.5481 88.7703C24.6282 88.6117 24.7982 88.5315 25.0006 88.5558C25.6297 88.6311 27.2327 89.9216 28.1816 91.6404C29.9206 92.1302 32.6077 92.2695 36.03 92.0315C39.4109 91.7967 43.2307 91.2016 46.5112 90.3993C47.8932 90.0609 49.102 89.703 50.08 89.3476C50.2411 87.2361 50.2354 85.5797 49.9715 84.7304C49.8088 84.2058 49.5278 83.8625 49.1133 83.6811C47.6471 83.0391 44.7382 84.4252 41.9256 85.7659C39.6052 86.8718 37.4136 87.9162 35.8187 87.9753C34.8949 88.0101 34.2116 87.7591 33.7882 87.2305C32.8191 86.0225 33.4327 83.6738 33.9736 81.6012C34.1857 80.7884 34.3865 80.0201 34.4545 79.4412C34.4601 79.3918 34.4609 79.3554 34.4601 79.3295C34.3201 79.3594 33.9072 79.5367 32.8174 80.4556C31.9366 81.1981 30.8557 82.2157 29.8105 83.1994C27.3558 85.51 25.8111 86.9228 25.067 87.058C24.7869 87.109 24.6323 86.9754 24.5643 86.8912C24.1675 86.3966 24.6833 85.0421 26.2588 81.2976C27.7047 77.8616 29.5045 73.5845 29.8939 70.4683C30.4598 65.9401 29.566 56.6498 28.9742 50.5024C28.7734 48.4209 28.601 46.6228 28.5241 45.4399C28.3557 42.8322 29.0851 39.784 29.8818 37.3916C29.4163 35.6679 29.4745 33.4148 29.6648 31.5203C30.0024 28.162 30.9456 24.0314 32.1884 20.4699C33.287 17.3205 34.9807 14.5694 36.9586 12.7235C38.9138 10.8978 41.0309 10.0445 42.919 10.3206C45.1624 10.6477 47.5491 11.6232 50.012 13.2214C50.0856 13.2692 50.1399 13.3048 50.1723 13.3242C50.1909 13.334 50.2621 13.3542 50.3188 13.3704C51.0418 13.5777 52.9622 14.1298 54.3337 19.891C55.1992 23.5262 54.4308 27.2423 53.6342 29.7197C52.7468 32.478 51.3519 35.1109 50.0792 36.4265C48.6591 37.896 48.8267 38.2336 49.2315 39.0505C49.4104 39.4124 49.6339 39.8617 49.7739 40.494C49.8217 40.7077 49.863 40.8883 49.8978 41.0381C49.9464 41.2469 49.9812 41.3983 50.0006 41.5044C50.0209 41.6137 50.0678 41.8703 49.8436 41.978C49.6047 42.0922 49.4663 41.9149 49.2364 41.621C49.0032 41.3222 48.6122 40.8235 47.996 40.2349C46.3007 38.6165 44.7139 34.46 44.7139 33.2593C44.7139 32.8343 44.7139 32.5776 44.9519 32.4594C45.2037 32.3347 45.4118 32.4926 45.9704 32.9152C46.3598 33.2099 46.9476 33.6552 47.826 34.2325C48.7822 34.8607 49.3894 35.0769 49.7958 34.9344C50.4216 34.715 50.8111 33.5176 51.4013 31.7057L51.4944 31.4207C52.6853 27.7701 52.8893 23.4161 52.3995 21.3159C52.1323 20.1711 51.6328 19.1729 51.1924 18.292C51.0709 18.0491 50.9568 17.8208 50.8548 17.6047C50.6046 18.2434 50.1577 18.9948 49.3967 19.7809C47.0229 22.2316 44.2994 26.6229 43.9286 30.4759C43.6662 33.2083 45.058 36.263 45.9793 38.2854C46.3776 39.1606 46.6658 39.7929 46.7379 40.2034C46.8156 40.6446 47.3143 41.153 48.0049 41.8566C49.0493 42.9212 50.6273 44.5291 52.0813 47.3158C54.0074 51.0076 52.6149 54.9221 51.7826 57.2603C51.547 57.9217 51.3438 58.4925 51.3009 58.8382C51.2871 58.9483 51.3227 58.9791 51.3438 58.9977C51.7648 59.3572 53.6722 58.9353 55.3732 58.4779C55.9901 58.2609 56.3674 58.129 56.3885 58.1217C56.4605 58.0966 56.5407 58.1006 56.6095 58.133C56.7763 58.0853 56.935 58.0391 57.0839 57.9962C57.4831 57.8804 57.8693 57.7695 58.219 57.6724C57.3373 55.2573 56.684 53.0397 56.5018 52.0115C56.348 51.1412 56.1626 49.6191 55.9472 47.8566C55.5173 44.3388 54.9822 39.9613 54.3831 38.0627C53.7718 36.127 52.9509 36.246 52.0012 36.3836C51.6652 36.4322 51.3171 36.4832 50.9762 36.4403C50.6087 36.3941 50.59 36.1302 50.59 36.0776C50.59 35.8541 50.59 35.5481 54.2236 34.1985C55.3109 33.7945 56.5941 33.3549 57.5195 33.082C57.6555 32.4465 57.8353 31.9121 58.0709 31.5753C58.3024 31.2442 58.6279 30.8386 59.006 30.7107C59.006 30.6928 59.0068 30.675 59.0076 30.6572C59.0456 29.3732 59.0918 27.775 59.7241 26.5889C59.9815 26.1056 60.205 25.1502 60.4179 23.9731C59.3646 23.2282 57.9025 21.639 57.4126 18.4094C57.0418 15.9628 57.2693 13.368 58.0352 11.2905C58.8359 9.12155 60.0989 7.7533 61.5935 7.43918C63.1544 7.11047 64.2166 7.21329 64.8829 7.39303C64.8012 7.14367 64.7817 6.86921 64.9129 6.61418C65.2319 5.99564 66.2374 5.82157 68.0768 6.06688C72.0213 6.59313 77.0409 10.3554 77.2416 11.9681C77.2846 12.3114 77.1275 12.581 76.8117 12.7081C76.1786 12.9607 74.8606 12.6628 72.5856 12.1131C69.7034 11.4168 65.7557 10.4631 64.2628 11.6046C63.1382 12.4644 62.446 15.328 61.923 18.3115C62.025 18.2815 62.1294 18.2702 62.2363 18.2774C62.9755 18.3276 63.5293 19.2547 64.0183 20.0715C64.1502 20.2934 64.2951 20.5346 64.4133 20.6974C64.4473 20.4278 64.4571 19.9906 64.4644 19.6457C64.4814 18.8126 64.5 17.9504 64.7372 17.4751C65.0359 16.8784 65.7929 16.5837 66.8406 16.1773C67.6729 15.8535 68.7092 15.4511 69.8669 14.7702C70.6004 14.3387 70.9931 13.8804 71.0036 13.4465C71.0174 12.8425 70.3203 12.3819 70.313 12.3778C70.1834 12.2936 70.1422 12.1228 70.2191 11.9884C70.296 11.854 70.4636 11.803 70.602 11.8726C70.6231 11.8831 72.7232 12.9267 74.642 13.3704C76.8142 13.8715 77.4457 14.6229 77.7549 18.9543C77.8958 20.9273 77.4003 23.8184 76.4296 26.6885C75.6896 28.8761 74.5262 31.3826 73.481 31.8579C72.618 32.2505 71.2165 31.8862 69.8167 31.275C69.8126 31.2831 69.8078 31.2903 69.8029 31.2976C69.7973 31.3065 69.2071 32.1995 68.7691 33.367C68.7221 33.4925 68.744 33.5556 68.7682 33.5961C68.778 33.6123 68.7893 33.6277 68.8031 33.6431C68.8533 33.5993 68.9083 33.5678 68.9698 33.5467C69.0605 33.516 69.2411 33.4876 69.4386 33.6455C69.522 33.7127 69.6467 33.8406 69.8013 34.0179C70.0871 34.0722 70.381 34.1118 70.615 34.1426C71.1825 34.2179 71.5128 34.2673 71.6982 34.3912C71.8035 34.4608 72.1646 34.549 72.5135 34.634C73.4478 34.8615 74.7286 35.1732 75.4063 35.9642C75.8734 36.5091 77.2141 38.5202 78.767 40.8494C80.2631 43.0945 81.9593 45.6383 83.0207 47.0786C83.8732 48.2355 84.3258 49.2346 84.5152 50.143C84.7743 49.93 85.154 49.6596 85.609 49.3536C87.4679 43.0815 90.0206 36.3383 91.1403 35.6064C91.6633 35.2639 92.0576 35.2663 92.3344 35.3764C92.413 34.8575 92.4956 34.7749 92.5385 34.732C92.7028 34.5676 93.3141 34.3863 95.6547 33.7524C97.4763 33.2593 99.9715 32.5841 100.402 32.27C100.537 32.172 100.762 32.0077 100.943 32.2271C101.12 32.4424 100.919 32.6359 100.81 32.7395C100.736 32.8108 100.627 32.9112 100.495 33.0342C99.812 33.6674 98.3911 34.9854 98.0187 35.6833C97.941 35.8298 97.9685 35.893 97.9782 35.914C98.0932 36.1731 98.8413 36.3601 99.336 36.484C99.8752 36.6184 100.302 36.7253 100.494 36.956C100.584 37.0653 100.616 37.1981 100.583 37.33C100.496 37.6733 100.025 37.8741 99.0542 38.2619C98.4138 38.5169 97.622 38.8335 97.3216 39.133C97.3111 39.2537 97.371 39.6301 97.8924 40.7911C98.4681 40.5418 99.1943 40.1604 99.7165 39.8868C100.619 39.414 101.543 38.929 102.295 38.6586C102.306 38.2239 102.317 37.7818 102.33 37.3414C101.879 36.0687 101.549 34.8186 101.575 33.941C101.633 32.0489 102.303 30.4872 102.721 30.284C102.843 30.2249 102.978 30.2346 103.081 30.3115C103.26 30.4435 103.249 30.6839 103.219 30.8782C103.134 31.4288 103.001 34.3029 102.915 37.245C103.059 37.6426 103.214 38.0425 103.373 38.4344C103.69 38.4279 104.019 38.4821 104.188 38.7412C104.378 39.0335 104.267 39.4099 104.011 39.9208C104.368 40.715 104.692 41.3813 104.89 41.7797L107.342 38.7817C107.431 38.6732 107.585 38.6432 107.708 38.7112C107.831 38.7792 107.889 38.925 107.844 39.0586C107.658 39.6172 107.175 41.1943 107.175 41.7789C107.175 41.8436 107.196 41.8614 107.225 41.8793C107.311 41.9327 107.46 41.9497 107.63 41.9448C108.065 41.7319 108.68 41.5595 108.909 41.6914C109.008 41.7481 109.067 41.8525 109.063 41.9643C109.06 42.093 108.984 42.195 108.838 42.2679C108.698 42.3375 108.247 42.4856 107.785 42.5205C107.773 42.5278 107.761 42.5342 107.749 42.5415C107.43 43.0653 107.256 47.4931 107.252 51.4974C107.946 51.6529 111.148 51.5897 111.905 51.4076C111.825 50.7089 111.328 48.0023 110.956 45.9767C110.503 43.5033 110.318 42.4792 110.318 42.31C110.318 41.9805 110.525 40.0285 110.913 39.5435C111.219 39.1606 111.763 39.4877 112.661 40.0301C113.409 40.4811 114.34 41.0421 115.24 41.2672C115.269 41.2745 115.306 41.2785 115.365 41.2356C115.57 41.0899 115.969 40.4811 116.348 38.0385C116.564 36.6516 116.726 35.0048 116.866 33.4447C116.815 32.3857 116.748 31.5195 116.641 31.1543C116.37 31.4838 115.939 32.1785 115.485 32.9079C114.834 33.9564 114.022 35.2615 113.266 36.1861C112.007 37.7243 109.828 39.176 109.079 38.6764C108.565 38.334 106.1 35.3918 105.023 33.0836C103.962 30.811 103.507 29.3068 103.488 29.2436C103.484 29.2299 103.481 29.2169 103.48 29.2023C103.246 27.6333 102.974 25.9833 102.732 24.6985C102.621 24.4532 102.385 23.9148 102.213 23.3796C102.171 23.5561 102.085 23.6735 101.953 23.7294C101.872 23.7642 101.704 23.7998 101.503 23.6476C100.805 23.1181 99.4865 19.8756 99.6784 18.4054C99.7124 18.1463 99.7877 17.956 99.9027 17.8354C99.774 17.3488 99.6477 16.8129 99.5295 16.2194C98.5668 11.4079 98.2219 8.20831 99.472 7.12424C99.7391 6.89269 100.02 6.74696 100.295 6.66195C100.156 6.51865 100.057 6.35268 100.028 6.16242C99.9658 5.74547 100.253 5.34309 100.881 4.96662C102.829 3.79754 109.251 1.55654 112.857 3.20248C116.139 4.70107 118.012 7.09671 118.272 10.1319C118.338 10.8978 118.398 12.611 118.435 14.6982C118.438 14.6965 118.441 14.6941 118.445 14.6925C118.542 14.6407 118.745 14.5848 119.002 14.7961C119.997 15.609 119.785 18.6701 119.391 19.6174C119.287 19.8659 119.119 19.8991 119.023 19.8983C119.03 20.0748 119.033 20.2489 119.033 20.4173C119.033 21.0439 118.818 22.2494 118.402 23.6654C118.338 25.734 118.223 27.4228 118.037 28.1644C117.976 28.4057 117.921 28.7425 117.867 29.1522C117.958 29.2226 118.077 29.3537 118.274 29.5707C118.51 29.8298 118.78 30.1593 119.069 30.5309C119.939 31.4579 121.108 32.6043 121.847 33.0075C123.432 33.8722 128.259 34.0293 129.865 33.7362C130.143 33.686 130.301 33.8171 130.371 33.8997C130.62 34.196 130.553 34.8073 130.176 36.0185C130.708 35.1708 131.339 34.5296 132.082 34.2114C132.295 34.1199 132.634 34.0673 133.036 34.3321C134.854 35.5303 136.713 42.6953 137.952 48.4954C138.745 52.2091 139.398 55.9236 139.828 58.8795C139.86 58.7831 139.896 58.6876 139.935 58.5921C140.203 57.9363 140.514 57.4311 140.867 57.0781C141.311 49.7114 141.849 43.6321 142.472 42.1035C143.568 39.4124 145.547 36.9455 146.992 35.1449C147.565 34.4308 148.085 33.7823 148.434 33.2626C148.519 33.0893 148.591 32.9428 148.653 32.8205C148.725 32.6764 148.779 32.5711 148.819 32.4975C148.874 32.393 149.006 32.1493 149.259 32.2603C149.526 32.3768 149.419 32.6472 149.354 32.8092C149.266 33.0278 149.125 33.2771 148.939 33.5556C148.889 33.6576 148.836 33.7669 148.781 33.8819C149.007 33.6714 149.267 33.4374 149.565 33.1751C150.707 32.1712 151.902 31.2142 151.915 31.2045C151.996 31.1398 152.104 31.1227 152.2 31.16C152.297 31.1964 152.366 31.2814 152.384 31.3834L152.747 33.5168C152.785 33.4973 152.829 33.4844 152.877 33.4795C153.276 33.4407 153.48 33.9264 153.951 35.1271C154.135 35.5975 154.461 36.4289 154.665 36.688C154.943 36.3626 155.578 35.4712 156.355 34.3547C154.746 33.741 153.068 31.7267 151.728 29.9399C151.276 29.3359 151.301 28.4559 151.786 27.4034C149.726 28.5539 147.685 29.3141 146.288 29.4469C145.856 29.4881 145.439 29.2914 145.046 28.8639C143.483 27.1629 142.461 21.9102 141.99 18.9308C141.364 14.9605 141.037 10.7278 141.26 9.49397C141.394 8.75317 141.781 7.82536 142.482 6.90483C141.614 6.53403 140.933 6.06445 140.78 5.34633C140.611 4.54967 141.146 3.61457 142.417 2.48678C144.282 0.833552 147.787 0.0385135 152.035 0.304876C155.793 0.541282 159.324 1.60187 160.82 2.94421C162.299 4.27116 163.499 6.21585 164.2 8.42204C164.908 10.6485 165.007 12.832 164.477 14.5719C163.617 17.4014 163.562 20.3711 163.529 22.145C163.522 22.5441 163.516 22.889 163.502 23.1667C163.423 24.7422 161.77 27.5022 161.7 27.6187C161.696 27.6244 161.692 27.6309 161.688 27.6366C161.02 28.5822 160.092 29.9399 159.109 31.377C158.493 32.2773 157.889 33.1605 157.338 33.9588C157.754 33.9459 158.111 33.7548 158.427 33.3791C160.367 31.0661 164.49 24.3714 164.532 24.3042C164.584 24.2192 164.677 24.1666 164.776 24.1658C164.872 24.1633 164.97 24.2143 165.024 24.2977C165.029 24.3066 165.617 25.2085 166.165 26.1647C166.459 25.751 166.572 25.751 166.682 25.751C167.513 25.751 168.694 27.0043 169.029 28.681C169.344 30.2548 170.261 36.3634 170.3 36.6224C170.321 36.7641 170.237 36.9001 170.1 36.9431C167.592 37.7413 164.766 38.7849 164.051 39.2513C164.32 39.3905 164.723 39.5379 165.114 39.682C166.2 40.0811 166.815 40.3297 166.815 40.7879C166.815 41.0308 166.591 41.3044 164.639 43.4523C162.295 46.0326 158.371 50.3502 157.438 52.6301C156.55 54.8015 155.61 59.9295 155.165 63.5186C155.264 63.7776 155.361 64.0383 155.456 64.299C155.642 64.4026 155.858 64.5257 156.109 64.6714C156.41 64.0561 156.734 63.3769 157.065 62.6847C158.004 60.7222 159.068 58.4973 160.012 56.7607C161.503 54.0194 162.078 53.6381 162.477 53.6348H162.482C162.606 53.6348 162.832 53.6802 162.98 53.974C163.371 54.7569 164.081 56.0491 164.796 57.1129C166.045 58.9718 166.463 58.8981 166.48 58.8949C166.482 58.8949 166.708 58.8115 166.708 57.7509C166.708 56.6903 166.585 55.4791 166.455 54.2283C166.093 50.7388 165.718 47.1304 167.892 44.7137C169.065 43.4102 170.689 42.3561 172.26 41.3368C174.524 39.8674 176.662 38.4789 177.018 36.6103C177.028 36.5585 177.036 36.5059 177.043 36.4532C176.316 35.2275 175.614 34.1167 175.006 33.1549C174.371 32.1518 173.87 31.3592 173.56 30.777C173.339 30.3641 173.235 30.0476 173.441 29.8411C173.517 29.7642 173.691 29.659 173.995 29.8201C174.845 30.2694 177.821 33.5977 177.641 36.3196C179.313 39.1549 181.099 42.5917 182.181 46.2536C183.19 49.6677 183.63 58.7572 183.204 67.3974C182.979 71.9401 182.544 75.887 181.942 78.8121C181.218 82.3347 180.304 84.2479 179.147 84.6616C179.084 84.6842 179.019 84.7045 178.951 84.7239C179.647 87.9518 180.43 90.473 181.327 91.4874C181.866 92.0962 182.005 92.8314 181.732 93.6134C181.057 95.5347 178.114 97.3134 176.419 98.2023C173.768 99.5932 170.66 100.688 168.107 101.13C166.342 101.435 164.045 101.561 163.126 100.426C161.564 98.4962 159.468 91.6963 157.938 86.7318C157.436 85.1036 156.924 83.4391 156.561 82.4076C156.668 83.4431 156.925 84.7733 157.194 86.1618C157.893 89.7702 158.615 93.5009 157.375 94.7412C156.657 95.4585 155.189 95.6245 153.755 95.5565C154.675 96.3767 155.539 97.6712 156.178 99.6791C156.368 100.276 156.191 100.61 156.01 100.785C155.193 101.573 152.598 100.728 149.544 99.6313C149.214 99.5123 148.865 99.3876 148.555 99.2807C149.942 100.273 151.486 101.244 152.853 102.102C155.921 104.03 157.662 105.165 157.776 106.073C157.809 106.332 157.828 106.711 157.85 107.149C157.924 108.588 158.076 111.583 159.102 111.686C159.861 111.762 163.949 111.805 168.079 111.647C172.535 111.476 174.563 111.163 175.484 110.921C174.795 109.269 175.234 105.946 176.867 100.321C177.161 99.3074 177.319 99.1083 177.542 99.0638C177.67 99.0387 177.795 99.0864 177.88 99.1925C177.965 99.2985 178.106 99.4758 178.027 101.229C177.984 102.181 177.88 103.463 177.736 104.84C177.472 107.34 177.074 110.161 176.778 110.827C176.722 110.953 176.614 111.086 176.357 111.221C176.535 111.396 176.754 111.497 177.021 111.529C179.67 111.84 209.752 111.852 210.055 111.852C210.216 111.852 210.347 111.983 210.347 112.144C210.347 112.305 210.216 112.435 210.055 112.435C208.814 112.435 179.636 112.423 176.953 112.107C176.465 112.05 176.07 111.826 175.778 111.444C175.337 111.574 174.701 111.701 173.779 111.82C172.373 112.001 170.483 112.138 168.159 112.229C163.983 112.392 159.824 112.345 159.042 112.268C157.518 112.115 157.367 109.146 157.267 107.181C157.245 106.754 157.226 106.385 157.196 106.147C157.111 105.47 154.789 104.01 152.542 102.599C151.138 101.716 149.546 100.716 148.12 99.6888C147.404 99.1731 147.107 98.9156 147.267 98.6136C147.451 98.2622 147.845 98.4047 149.741 99.0856C150.827 99.4758 152.179 99.9616 153.337 100.255C155.042 100.686 155.491 100.478 155.605 100.368C155.696 100.28 155.702 100.108 155.623 99.858C154.946 97.7303 153.934 96.2455 152.646 95.4626C151.431 95.3112 150.409 95.0392 150.133 94.8724C149.895 94.7267 149.946 94.5194 149.959 94.4789C150.048 94.202 150.388 94.2263 150.689 94.2482C151.338 94.2943 152.073 94.4668 152.81 94.8813C154.369 95.0635 156.237 95.0578 156.963 94.3324C157.983 93.3115 157.229 89.4099 156.622 86.2759C156.264 84.4276 155.926 82.6813 155.926 81.5381C155.926 81.3276 155.926 80.9357 156.248 80.8872C156.551 80.8418 156.7 81.1851 156.82 81.462C156.933 81.7235 157.076 82.1081 157.255 82.6367C157.589 83.6236 158.009 84.9862 158.495 86.5642C160.012 91.4834 162.087 98.221 163.579 100.063C164.157 100.778 165.73 100.953 168.007 100.559C170.504 100.127 173.547 99.054 176.148 97.6898C178.903 96.2447 180.738 94.6902 181.182 93.424C181.388 92.8378 181.293 92.3318 180.891 91.8776C179.918 90.7782 179.097 88.1834 178.376 84.8454C173.671 85.5003 160.828 81.0896 156.675 78.1628C155.744 77.507 155.291 76.9508 155.291 76.4634C155.291 75.5818 155.636 74.3803 156.027 73.3003C155.662 71.8762 155.568 70.5598 155.773 69.5866C155.937 68.811 155.85 67.8824 155.629 66.9003C155.437 67.2444 155.284 67.4857 155.168 67.6192C154.918 67.905 154.682 67.7933 154.615 67.752C154.407 67.6233 154.231 67.3472 154.377 65.422C154.399 65.1224 154.429 64.7945 154.466 64.4431C154.437 64.4302 154.411 64.4197 154.388 64.4108C154.279 64.5265 154.092 64.7791 153.862 65.1289C153.644 69.9509 153.756 74.96 153.849 79.1408C153.98 85.017 154.016 87.8693 153.412 88.4862C153.282 88.6198 153.141 88.6473 153.046 88.6473C152.65 88.6473 151.635 88.874 150.366 89.18C150.221 90.4867 150.015 91.3716 150.001 91.4356C149.989 91.4858 149.963 91.5327 149.928 91.57C149.698 91.8113 148.852 92.6686 148.005 93.1431C148.148 94.2037 148.185 94.7947 148.093 95.0991C147.558 96.8819 142.536 98.1489 141.018 98.161C140.982 98.1942 140.832 98.3764 140.705 99.1439C140.423 100.843 140.472 103.936 140.612 106.264C140.801 109.398 141.128 111.137 141.309 111.414C141.474 111.5 141.509 111.651 141.488 111.76C141.434 112.022 141.144 112.046 140.837 112.072C140.603 112.091 140.263 112.107 139.827 112.118C139.1 112.136 138.092 112.142 136.83 112.135C134.684 112.124 132.516 112.08 132.495 112.079C131.88 112.055 131.052 111.754 130.564 110.466C130.534 110.386 130.505 110.305 130.479 110.222C130.457 110.294 130.436 110.36 130.417 110.421C130.342 110.657 130.292 110.818 130.272 110.883C130.18 111.19 129.858 111.441 126.694 111.648C124.823 111.77 122.469 111.842 120.393 111.905C119.812 111.923 119.256 111.94 118.742 111.957C118.746 112.499 118.688 112.799 118.568 112.937C118.495 113.021 118.395 113.068 118.287 113.068C117.989 113.068 117.223 112.952 116.543 112.804C115.272 112.526 115.025 112.321 115.012 112.04C114.995 111.633 115.532 111.552 116.134 111.499C116.585 111.459 117.284 111.426 118.138 111.395C118.036 109.896 117.683 107.346 117.444 105.622C117.228 104.067 117.037 102.688 116.963 101.839C116.251 103.26 114.722 107.523 113.7 110.589C113.652 110.734 113.499 110.818 113.35 110.778C113.201 110.739 113.108 110.592 113.137 110.44C113.153 110.363 114.652 102.618 114.652 100.767C114.652 99.6993 113.925 99.4483 112.281 98.9836C111.598 98.7901 110.824 98.5715 109.969 98.225C109.261 97.9376 108.905 97.7935 109.007 97.464C109.106 97.145 109.464 97.2138 110.18 97.3506C110.689 97.4478 111.397 97.6024 112.146 97.7668C113.332 98.0258 114.675 98.3197 115.753 98.5035C115.962 98.5391 116.088 98.5432 116.159 98.5399C115.994 98.1821 115.095 97.2842 114.362 96.5499C112.78 94.9696 110.615 92.8046 109.882 90.8357C109.674 90.2762 109.511 89.6714 109.884 89.4286C110.465 89.0505 111.57 89.988 115.072 93.4054C116.31 94.6141 117.479 95.7557 118.321 96.4374C118.98 96.9725 120.041 97.2211 121.301 97.268C120.157 95.4424 119.996 92.2379 119.869 89.6909C119.798 88.2749 119.737 87.0524 119.532 86.4152C119.332 85.7942 118.546 85.1992 117.355 84.7239C116.152 84.7684 114.656 84.8089 113.21 84.8259C112.191 86.0857 112.051 86.0857 111.904 86.0857C111.655 86.0857 111.504 85.9027 111.117 84.8292C110.337 84.8211 109.68 84.8008 109.151 84.7692C107.687 84.681 107.405 84.5239 107.354 84.2268C107.29 83.852 107.762 83.6811 108.25 83.5386C108.918 83.3435 109.708 83.2197 110.564 83.1662C110.479 82.8918 110.389 82.5987 110.294 82.2878C110.204 81.9907 110.115 81.6911 110.029 81.3956C109.545 81.5154 107.797 81.9178 106.138 81.9218C105.688 88.3129 104.922 97.4429 104.487 98.3149C104.389 98.5116 104.177 98.6225 103.857 98.6452C102.538 98.7407 98.8858 97.3644 96.1631 96.1589C95.1114 95.6933 93.9998 95.1671 92.9773 94.6352C92.9773 97.0438 92.8631 100.579 92.6202 103.846C92.4454 106.199 92.2292 108.089 91.9766 109.461C91.5507 111.779 91.1022 112.124 90.7201 112.156C89.7607 112.235 86.8339 112.15 84.1962 111.967C82.9211 111.877 81.9277 111.784 81.1529 111.691C81.1254 111.956 81.1075 112.134 81.1059 112.173C81.1059 112.554 80.5918 112.647 79.9709 112.723C79.4964 112.78 78.8382 112.826 78.014 112.86C76.6182 112.917 75.2039 112.918 75.1901 112.918C74.438 112.901 73.0292 112.889 71.6294 112.924C71.393 113.053 70.9874 113.198 70.2814 113.344C69.5001 113.506 68.5796 113.62 67.9902 113.625C67.6154 113.628 67.2413 113.608 67.1604 113.312C67.1102 113.128 67.2057 112.966 67.4437 112.83C67.9886 112.519 69.7236 112.39 71.4205 112.342C71.4594 112.026 71.4942 110.857 71.5306 109.624C71.6205 106.586 71.7565 101.996 72.1735 100.537C72.7669 98.4606 74.3691 95.2011 75.2395 93.6345C75.2735 93.5738 75.2978 93.5244 75.3156 93.4847C75.0824 93.5422 74.6865 93.7057 74.4258 93.8134C74.0113 93.9851 73.583 94.1624 73.2616 94.2158C72.9888 94.2619 72.8001 94.2004 72.7013 94.0353C72.5087 93.7114 72.7977 93.3398 73.5717 92.348C74.0089 91.7878 74.5529 91.0899 75.0994 90.2706C75.1666 90.1694 75.2233 90.0819 75.2694 90.0058C74.9869 90.1864 74.6307 90.4373 74.3376 90.6446C73.834 91 73.3134 91.3684 72.8989 91.5983C72.7507 91.6809 72.5872 91.6769 72.4512 91.5886C72.184 91.4154 71.6278 91.0543 72.1354 81.9413C72.1719 81.2928 72.2107 80.6451 72.2512 80.012C72.1937 79.8128 72.1387 79.6209 72.086 79.442C71.9168 79.3521 71.7395 79.259 71.5549 79.1611C71.3323 79.0437 71.1007 78.9206 70.8587 78.7927L70.7308 79.021C70.6619 79.1433 70.5162 79.1991 70.3834 79.1546C70.3729 79.1514 70.0636 79.0469 69.5406 78.8647C69.6572 83.6965 69.6491 88.7785 69.2063 89.5176C69.0419 89.7921 68.5869 90.2074 66.5491 90.643C65.3395 90.9012 63.7308 91.1328 61.8963 91.3109C59.1363 91.5789 55.8315 91.7189 54.7822 91.523C54.7182 91.9796 54.7385 93.5908 55.476 99.1852C56.0039 103.188 56.7123 107.835 57.1357 110.611C57.4588 112.732 57.5414 113.281 57.5414 113.387C57.5414 113.492 57.4904 113.599 57.4021 113.669C57.2645 113.778 57.0572 113.943 54.7563 113.511C53.6779 113.309 52.6327 113.065 52.6222 113.063C52.6133 113.06 52.6052 113.058 52.5963 113.055C52.3461 112.972 52.2246 112.68 52.1323 111.939C52.0684 111.426 52.023 110.696 51.9988 109.77C51.9542 108.103 51.9737 105.842 52.0554 103.23C52.1048 101.65 52.1793 99.9414 52.2692 98.3359C52.0044 99.6548 51.7219 101.044 51.4434 102.394C49.2955 112.821 49.0502 113.149 48.9692 113.257C48.4632 113.931 46.5816 114.382 46.3687 114.431C46.2716 114.453 46.1704 114.425 46.0991 114.355C46.0279 114.285 45.9979 114.184 46.0182 114.087C46.0594 113.891 49.272 98.6703 50.0338 89.9977C46.4918 91.238 40.7201 92.3019 36.0769 92.6249C33.6343 92.7949 30.6979 92.8322 28.5184 92.3367C28.635 92.6184 28.7313 92.9091 28.8001 93.2038C28.9167 93.6693 29.1669 95.5379 29.5126 98.1246C29.936 101.287 30.4631 105.222 31.0047 108.542C31.7908 113.359 32.2232 114.429 32.3989 114.655C32.5721 114.68 32.6741 114.743 32.6911 114.921C32.7009 115.023 32.6539 115.207 32.4151 115.246C32.3592 115.256 32.2831 115.256 32.1981 115.223C30.1571 115.169 9.35083 115.716 1.23205 115.939C1.22962 115.939 1.22638 115.939 1.22395 115.939L1.21747 115.928ZM50.6248 89.767C49.9796 97.6696 47.2463 111.013 46.6772 113.736C47.3783 113.537 48.243 113.214 48.4867 112.907C48.8607 112.142 51.7364 98.1878 52.6343 93.4451C52.7056 92.8103 52.7792 92.3181 52.8529 92.0226C52.9047 91.8161 52.9452 91.6534 53.1468 91.6234C53.2642 91.6064 53.38 91.6623 53.4407 91.7635C53.4998 91.8623 53.5184 91.8946 53.2197 93.4604C52.9962 95.4262 52.7695 99.0281 52.6416 102.863C52.4424 108.822 52.5971 111.994 52.8302 112.504C54.4656 112.882 56.3496 113.222 56.9277 113.201C56.8742 112.813 56.7269 111.849 56.5504 110.688C56.1132 107.825 55.3821 103.032 54.8502 98.9545C53.8609 91.3805 54.1766 91.136 54.4074 90.9579C54.5118 90.877 54.6478 90.86 54.7717 90.9134C55.1538 91.0769 58.0935 91.0834 61.8307 90.7207C66.5005 90.2673 68.4485 89.6221 68.697 89.2075C68.9698 88.7533 69.1018 84.8316 68.9464 78.6502C67.4793 78.1345 65.0829 77.2714 62.7196 76.3258C60.5037 75.4393 58.7485 74.6548 57.5033 73.9941C55.7416 73.0598 55.0316 72.4113 55.1295 71.826C55.1587 71.6527 55.2639 71.5135 55.4258 71.4333C55.8792 71.2091 57.0807 71.2771 62.395 73.8168C64.5324 74.8377 66.8608 76.0319 68.9018 77.099C68.867 75.9688 68.8225 74.7738 68.7691 73.5205C68.7213 72.4113 68.6654 71.2528 68.6015 70.0716C66.3419 68.8045 63.9624 67.3925 62.8338 66.4753C62.2258 65.9814 61.57 65.0374 60.9191 63.8537C60.2544 64.1606 59.3015 64.6261 58.2878 65.1718C58.4724 66.7028 58.3105 67.2209 58.1413 67.4751C57.5049 68.4297 54.8405 69.1413 53.7694 68.9826C53.3184 68.9154 53.1646 68.7041 53.1144 68.5381C52.9962 68.1471 53.363 67.7593 53.6496 67.5018C54.6203 66.6283 56.1755 65.6689 57.6563 64.8544C57.5673 64.2343 57.4256 63.4514 57.2086 62.4636C56.8726 60.9335 56.4775 59.4721 56.2978 58.8244C56.0347 58.8989 55.7796 58.9693 55.5319 59.0365C53.5241 59.7417 49.0647 61.3099 46.1007 62.3624C45.9688 64.384 45.6959 64.6617 45.4239 64.7524C44.4588 65.0746 42.7708 64.5095 42.5117 63.7768C42.4429 63.5825 42.3717 63.0959 43.2023 62.7842C43.5634 62.649 44.424 62.3406 45.5413 61.9431C45.5575 61.6362 45.5704 61.2873 45.5802 60.893C45.6239 59.0835 45.5802 56.7065 45.4563 54.0186C45.2053 48.6031 44.6944 43.4871 44.2402 41.8533C44.0006 40.9911 43.4201 40.4762 42.515 40.3232C40.2804 39.9459 36.8671 41.7894 35.6397 43.5624C34.8334 44.7275 34.55 51.0975 34.9815 58.3791C35.4495 66.2785 36.5643 72.0867 37.8208 73.1756C39.9113 74.9875 45.1794 72.7222 48.3272 71.3694C49.7027 70.7783 50.437 70.4699 50.8054 70.4699C51.0977 70.4699 51.3414 70.7265 51.6199 71.3273C52.3469 72.8947 53.1889 76.5549 53.6228 80.0306C53.9345 82.5299 54.2762 86.9374 53.0545 88.3809C52.6626 88.844 51.8004 89.3152 50.624 89.7686L50.6248 89.767ZM116.072 112.08C116.695 112.252 117.671 112.432 118.132 112.469C118.152 112.358 118.159 112.187 118.155 111.968C117.309 111.999 116.616 112.031 116.175 112.07C116.139 112.073 116.105 112.077 116.072 112.08ZM73.379 112.306C74.2817 112.306 74.9804 112.32 75.1869 112.325C77.4076 112.325 79.987 112.21 80.5222 112.022C80.5303 111.934 80.5433 111.802 80.5635 111.607C78.6625 111.343 78.4188 111.099 78.3176 110.997C78.201 110.881 77.959 110.639 78.0561 107.672C78.1144 105.893 78.2869 103.58 78.5297 101.323C78.7394 99.373 79.0981 96.5402 79.6195 94.1235C80.3821 90.5847 81.0395 90.1621 81.2557 90.0228C81.5318 89.8455 81.752 89.9297 81.8589 89.9953C82.156 90.1783 82.4653 90.698 82.509 93.1617C82.5349 94.6263 82.4628 96.6446 82.2952 99.1585C81.9965 103.642 81.4751 108.539 81.2249 110.893C81.2177 110.96 81.2104 111.027 81.2039 111.091C84.2432 111.447 89.1486 111.69 90.661 111.564C90.6577 111.564 90.7468 111.524 90.8771 111.247C91.4528 110.027 91.9385 106.236 92.2098 100.847C92.3417 98.2323 92.3887 95.9289 92.3822 94.3146C90.8682 93.4961 89.6352 92.6913 89.2296 92.1059C89.0061 91.7829 88.7382 91.3133 88.9964 90.9709C89.3559 90.494 90.3776 90.7944 91.7807 91.2704C92.0689 91.3684 92.4275 91.4898 92.515 91.4963C92.8664 91.4963 92.8987 91.8963 92.936 92.8014C92.9497 93.1293 92.9587 93.5211 92.9627 93.9648C94.1067 94.5712 95.4765 95.2246 96.9638 95.8658C98.6842 96.6074 100.333 97.2284 101.607 97.6146C103.465 98.178 103.895 98.0534 103.963 98.0218C104.341 97.1466 105.095 88.2012 105.542 81.8927C104.957 81.8571 104.405 81.7583 103.949 81.5656C103.867 81.5308 103.828 81.547 103.795 81.5656C103.195 81.9235 102.919 84.7919 102.697 87.0977C102.359 90.613 102.094 92.7909 101.27 93.3908C100.924 93.6426 100.642 93.5908 100.466 93.5033C100.101 93.3204 99.6525 92.7658 99.4202 90.0779C99.2777 88.4311 99.2534 86.4791 99.2331 84.9109C99.2267 84.3952 99.2202 83.9086 99.2105 83.5087C99.2064 83.3314 99.174 83.1079 99.0445 83.0464C98.3871 82.7339 95.9154 84.647 94.1107 86.0444C92.4259 87.3487 90.835 88.5801 89.7275 89.0173C89.2506 89.2051 88.96 89.0602 88.7997 88.9047C87.7464 87.8854 89.2782 82.7808 91.9021 75.4304C92.1175 74.8264 92.2883 74.3495 92.3846 74.0597C92.5166 73.6646 92.7198 73.3553 92.9708 73.1165C92.3725 73.0606 91.7353 72.9813 91.0828 72.872C87.0744 72.1976 84.3249 70.6642 83.1308 68.4369C82.3794 67.0355 82.4377 64.3363 82.8466 61.3698C82.4135 61.3375 81.9916 61.2306 81.5893 61.0363C79.6324 60.0899 77.9849 57.559 76.7891 54.9164C76.9251 56.5883 77.0465 58.3484 77.1591 59.9789C77.2587 61.4225 77.3518 62.7859 77.4457 63.9428C77.6262 66.1676 78.788 69.9104 80.1077 73.6314C81.8313 73.9334 83.4271 74.3236 84.2917 74.8094C84.4747 74.9122 85.0317 75.2255 84.9111 75.6765C84.818 76.0246 84.4019 76.3671 82.0111 76.5112C81.7318 76.5282 81.4492 76.5404 81.1723 76.5501C81.2436 76.7419 81.3148 76.9314 81.3861 77.12C82.9842 77.839 84.8722 78.8591 85.7523 80.0597C86.1247 80.5682 85.9539 80.9236 85.8179 81.0904C85.4908 81.4936 84.597 81.7073 83.1518 81.73C84.0999 84.1896 84.4399 85.115 84.4399 85.4016C84.4399 85.6493 84.2942 86.0161 83.1599 86.6589C82.3147 87.1374 81.0905 87.6652 79.9644 88.0368C77.9719 88.6942 77.5882 88.4635 77.4619 88.3874C76.9364 88.0717 76.7097 86.2468 76.3179 82.1566C76.2814 81.7737 76.245 81.3956 76.2086 81.0329C75.7163 80.939 75.2767 80.8426 74.9173 80.7487C74.1101 83.2448 73.838 83.6471 73.4664 83.6277C73.3247 83.6204 73.141 83.537 73.0689 83.1784C72.992 82.7954 72.8657 82.2805 72.7192 81.7275C72.7192 81.7405 72.7175 81.7534 72.7167 81.7664C72.3103 88.9436 72.571 90.6187 72.724 91.0065C73.0924 90.7887 73.5482 90.4665 73.9902 90.1548C75.2532 89.2626 75.667 88.9938 75.9584 89.2772C76.2062 89.5184 76.0232 89.9046 75.573 90.5798C75.0144 91.417 74.4631 92.1238 74.0202 92.6921C73.7765 93.0046 73.511 93.3447 73.3547 93.5786C73.5952 93.5074 73.8971 93.3827 74.1918 93.2605C74.9755 92.9358 75.5423 92.701 75.8256 93.0192C76.0742 93.2977 75.8386 93.7219 75.7374 93.9033C75.0136 95.2068 73.3231 98.578 72.7224 100.683C72.3257 102.071 72.1913 106.617 72.1014 109.626C72.0585 111.067 72.0326 111.916 71.9954 112.314C72.4811 112.305 72.9523 112.302 73.3774 112.302L73.379 112.306ZM130.82 109.095C130.883 109.536 130.976 109.926 131.1 110.251C131.406 111.058 131.865 111.463 132.504 111.489C135.194 111.544 139.412 111.584 140.703 111.492C140.602 111.223 140.496 110.78 140.385 110.04C140.241 109.084 140.115 107.787 140.028 106.385C139.872 103.867 139.825 100.564 140.156 98.8468C140.261 98.2995 140.463 97.5708 140.989 97.5708C142.509 97.5708 147.127 96.2544 147.527 94.9242C147.587 94.7242 147.544 94.1705 147.441 93.3835C147.175 93.4669 146.923 93.4871 146.707 93.4086C146.336 93.2742 146.127 92.9123 146.089 92.3326C146.068 92.0282 146.072 91.2818 146.1 90.1928C144.337 90.5912 142.824 90.8802 141.69 90.966C141.631 91.3797 141.577 91.7522 141.526 92.0873C141.426 92.7601 141.343 93.2766 141.28 93.6224C141.185 94.1373 141.135 94.4044 140.864 94.4044C140.855 94.4044 140.846 94.4044 140.836 94.4036C140.539 94.385 140.539 94.0685 140.539 93.8984C140.539 93.3625 140.597 92.3432 140.697 90.9822C140.234 90.9514 139.889 90.8551 139.681 90.6794C139.498 90.524 139.411 90.3135 139.43 90.0714C139.459 89.6909 139.521 87.9292 139.617 85.2615C139.804 80.0014 140.102 71.6122 140.501 63.5947C140.446 63.4926 140.392 63.3914 140.341 63.2902C140.37 63.6837 140.385 64.0148 140.385 64.2739C140.385 67.1213 136.17 71.3702 133.657 73.6492C130.381 76.6205 126.405 79.4865 124.973 79.9075C123.35 80.3852 120.411 80.0193 119.222 79.8403C118.25 79.6938 117.306 79.506 116.565 79.3117C115.394 79.0048 115.246 78.8267 115.189 78.6567C115.127 78.4713 115.153 78.3264 115.264 78.2276C115.44 78.0721 115.637 78.1661 115.886 78.2843C116.262 78.4632 116.961 78.7967 118.072 78.8818C118.902 78.9457 120.039 78.4089 121.039 77.4827C122.002 76.5914 122.624 75.5243 122.624 74.7641C122.624 74.7171 122.618 74.658 122.59 74.641C122.533 74.607 122.272 74.5277 121.274 74.9381C120.56 75.232 119.682 75.687 118.832 76.1274C117.332 76.9047 115.915 77.639 115.161 77.639C114.192 77.639 111.928 76.9597 110.233 76.3282C109.527 76.0651 108.557 75.6789 107.709 75.2547C106.554 75.5802 106.487 75.8158 106.484 75.8295C106.484 76.4011 106.359 78.5595 106.168 81.33C107.592 81.3171 109.12 80.9965 109.726 80.8556C109.576 80.1415 109.385 79.2396 109.272 78.7198C109.218 78.5093 109.183 78.3652 109.174 78.3077C109.123 77.9985 109.355 77.9386 109.402 77.9296C109.68 77.877 109.744 78.1547 109.77 78.2729C109.788 78.3515 109.813 78.464 109.842 78.5992C109.848 78.6267 109.854 78.6551 109.861 78.6834C110.097 79.5926 110.653 81.5373 111.155 83.1306C111.967 83.112 112.824 83.1533 113.686 83.2537C114.482 82.219 115.421 80.96 116.294 79.7602C116.366 79.6614 116.492 79.6177 116.61 79.6517C119.393 80.4475 119.551 80.7625 119.603 80.8653C119.616 80.8896 119.675 80.9762 119.727 81.0531C120.162 81.6911 121.065 83.0197 120.623 83.9175C120.41 84.3499 119.933 84.5903 119.207 84.6316C119.034 84.6413 118.827 84.6518 118.592 84.6632C119.293 85.0656 119.867 85.5797 120.076 86.2274C120.305 86.9374 120.368 88.1955 120.441 89.6528C120.574 92.2994 120.744 95.6974 122.008 97.2648C125.76 97.1952 130.814 95.6367 132.643 94.5056C133.273 94.1162 133.476 92.8395 133.247 90.7102C133.033 88.7282 132.492 86.348 131.97 84.0463C131.41 81.5802 130.882 79.2509 130.909 77.9491C130.916 77.622 130.955 77.3022 131.193 77.1791C131.321 77.1119 131.473 77.1249 131.608 77.2156C131.729 77.2965 132.049 77.5103 132.896 79.6914C133.383 80.9438 133.948 82.6035 134.489 84.3644C135.42 87.3924 136.467 91.3797 136.355 92.6516C136.295 93.3277 135.785 94.0612 134.841 94.8327C132.521 96.728 127.51 98.7334 124.189 98.7334C123.918 98.7334 123.659 98.7205 123.413 98.6921C122.723 98.6144 122.174 98.3092 121.734 97.8412C120.265 97.838 118.834 97.604 117.942 96.881C117.08 96.1823 115.901 95.0319 114.653 93.8134C113.658 92.8419 112.629 91.838 111.786 91.0939C110.812 90.2349 110.397 90.0058 110.233 89.9459C110.241 90.0471 110.278 90.2487 110.417 90.6236C111.106 92.4735 113.219 94.5858 114.762 96.1289C116.329 97.6955 116.956 98.3505 116.705 98.8338C116.53 99.173 116.046 99.1382 115.644 99.0694C114.698 98.9083 113.558 98.6646 112.496 98.4331C114.026 98.8662 115.224 99.2273 115.224 100.758C115.224 101.786 114.799 104.453 114.397 106.745C114.523 106.392 114.653 106.031 114.784 105.672C115.285 104.3 115.707 103.211 116.041 102.432C116.654 101 116.875 100.785 117.168 100.828C117.379 100.858 117.492 101.036 117.503 101.357C117.53 102.071 117.763 103.754 118.009 105.534C118.406 108.401 118.639 110.232 118.708 111.367C119.224 111.35 119.781 111.333 120.363 111.315C122.331 111.255 124.563 111.187 126.38 111.075C128.981 110.916 129.581 110.726 129.72 110.651C129.746 110.567 129.79 110.426 129.849 110.238C129.978 109.828 130.102 109.433 130.22 109.052C129.966 107.105 130.324 104.779 130.524 103.715C130.919 101.612 131.689 99.135 132.517 98.3424C132.822 98.0517 133.047 98.0906 133.182 98.1748C133.445 98.3383 133.542 98.7229 133.26 100.204C133.094 101.075 132.801 102.274 132.391 103.766C131.87 105.66 131.252 107.692 130.818 109.093L130.82 109.095ZM78.7427 110.596C78.9216 110.742 79.6308 110.887 80.6266 111.02C80.6331 110.961 80.6396 110.898 80.6469 110.833C80.8954 108.495 81.4136 103.631 81.7115 99.1722C81.8783 96.6819 81.9512 94.6813 81.9277 93.2281C81.8937 91.0713 81.6508 90.6074 81.5731 90.5134C81.5731 90.5134 81.5715 90.5143 81.5706 90.5151C80.7764 91.0259 79.8446 94.9817 79.1977 100.592C78.571 106.026 78.5103 110.116 78.7419 110.597L78.7427 110.596ZM177.46 100.332C177.447 100.379 177.432 100.428 177.417 100.48C176.825 102.518 175.077 108.535 176.028 110.729C176.185 110.656 176.226 110.602 176.236 110.584C176.671 109.607 177.44 102.757 177.46 100.332ZM132.856 98.8322C132.243 99.509 131.53 101.527 131.099 103.823C130.855 105.12 130.729 106.35 130.721 107.427C132.583 101.276 132.863 99.4014 132.856 98.8322ZM122.62 97.817C122.874 97.974 123.159 98.076 123.479 98.1125C126.328 98.4355 131.773 96.5863 134.473 94.381C135.279 93.7219 135.73 93.1058 135.774 92.5998C135.859 91.6388 135.12 88.402 133.936 84.5458C132.898 81.1713 131.962 78.7716 131.491 77.9726C131.469 79.2056 131.988 81.4944 132.538 83.9167C133.648 88.806 134.795 93.8612 132.949 95.0019C131.515 95.8885 128.424 96.9158 125.601 97.4445C124.787 97.5967 123.722 97.7579 122.62 97.817ZM89.4773 91.3231C89.4862 91.3757 89.5267 91.5109 89.7097 91.7756C90.006 92.2039 90.9783 92.8751 92.3765 93.6491C92.3644 92.85 92.3361 92.293 92.298 92.0477C92.1409 92.0088 91.9207 91.9343 91.5945 91.8242C91.1419 91.6704 89.7931 91.2129 89.4773 91.3239V91.3231ZM98.8971 82.4384C99.0453 82.4384 99.1781 82.4659 99.2963 82.5218C99.6153 82.6732 99.7829 83.0011 99.795 83.4965C99.8047 83.8997 99.8112 84.3879 99.8177 84.9053C99.8371 86.4638 99.8614 88.4036 100.002 90.0293C100.219 92.5415 100.614 92.9261 100.729 92.9836C100.745 92.9917 100.797 93.0176 100.929 92.9212C101.6 92.433 101.889 89.4448 102.119 87.0443C102.446 83.6544 102.687 81.5518 103.5 81.0677C103.708 80.9438 103.943 80.9309 104.179 81.0313C104.574 81.1989 105.062 81.2839 105.585 81.3154C105.776 78.5749 105.903 76.4278 105.903 75.8271C105.903 75.3267 106.527 75.041 106.999 74.8693C106.508 74.5787 106.121 74.2823 105.947 74.0046C105.867 73.8767 105.863 73.7237 105.936 73.5958C106.099 73.3092 106.401 72.7765 116.986 72.7198C122.137 72.6923 127.281 72.7975 127.332 72.7991C127.489 72.8024 127.616 72.9303 127.617 73.0882C127.617 73.246 127.493 73.3756 127.336 73.3812C127.284 73.3829 122.102 73.5723 116.939 73.9949C113.912 74.2427 111.484 74.5212 109.723 74.8215C109.299 74.8936 108.931 74.9649 108.611 75.0337C109.149 75.2774 109.766 75.5308 110.439 75.7809C112.42 76.5193 114.407 77.0553 115.164 77.0553C115.775 77.0553 117.258 76.2869 118.567 75.6085C120.824 74.4386 122.24 73.7423 122.896 74.1407C123.039 74.2281 123.209 74.4062 123.209 74.7616C123.209 75.6903 122.531 76.8958 121.438 77.9078C120.746 78.549 120 79.0153 119.298 79.2631C121.256 79.5626 123.528 79.7237 124.812 79.3465C127.353 78.5992 139.805 68.777 139.805 64.2715C139.805 62.1997 138.829 55.4135 137.376 48.6136C135.68 40.6826 133.979 35.6533 132.709 34.8154C132.51 34.6842 132.389 34.7077 132.306 34.7433C130.641 35.4566 129.681 38.0878 129.168 40.1702C128.479 42.9658 128.312 45.886 128.378 47.5376C128.45 49.3471 129.052 52.754 129.841 55.8224C130.972 60.2194 131.768 61.2314 131.98 61.25C132.209 61.199 132.425 61.1213 132.619 61.033C132.863 60.5627 133.081 60.2939 133.292 60.2032C133.556 60.0907 133.825 60.0073 134.012 60.166C134.114 60.2526 134.153 60.3862 134.119 60.523C134.054 60.7885 133.619 61.1731 133.055 61.4662C132.908 61.7714 132.724 62.2046 132.496 62.8182C132.058 63.997 131.597 65.46 131.191 66.7505C130.223 69.8198 130.129 70.006 129.828 70.0489C129.705 70.0659 129.585 70.0116 129.515 69.9064C129.493 69.8732 129.464 69.8295 129.388 69.5429C129.082 70.627 128.85 71.4034 128.82 71.4997C128.785 71.6171 128.68 71.6997 128.558 71.707C125.552 71.8786 99.1587 73.3756 98.2422 73.2234C98.0633 73.1934 97.9621 73.0436 97.9289 72.9943C97.2423 71.9774 96.1736 65.1904 95.8619 63.1348C95.3389 59.6826 94.6281 54.2445 94.8127 53.4138C94.875 53.1345 95.1673 52.9345 96.4805 52.737C97.316 52.6115 98.5255 52.4965 100.076 52.3953C101.953 52.2722 104.352 52.167 107.236 52.0804C106.98 52.0391 106.664 51.946 106.664 51.6529C106.664 51.2457 106.667 49.1075 106.74 46.9685C106.836 44.1203 106.992 42.9641 107.145 42.467C107.061 42.4436 106.983 42.4104 106.914 42.3674C106.703 42.2379 106.588 42.0258 106.588 41.7716C106.588 41.4186 106.719 40.8276 106.867 40.2697L105.052 42.4881C104.989 42.5642 104.894 42.6047 104.796 42.5933C104.699 42.5836 104.613 42.5245 104.568 42.4379C104.524 42.3537 104.138 41.6064 103.656 40.5604C103.656 40.5604 103.656 40.562 103.654 40.5628C103.437 40.9555 103.189 41.4008 102.962 41.8938C102.926 41.9732 102.88 42.0557 102.825 42.1399C102.826 42.5116 102.83 42.8459 102.838 43.1325C102.912 46.1192 103.738 51.4788 103.747 51.5323C103.768 51.6699 103.688 51.8035 103.557 51.8512C103.426 51.8982 103.28 51.8464 103.208 51.7266C103.191 51.6966 101.419 48.7229 99.7545 45.6933C99.6363 45.478 99.5214 45.2683 99.4104 45.0626C98.7441 45.5225 98.0471 45.9832 97.3751 46.4277C96.3347 47.1158 95.1705 47.885 94.8337 48.2234C94.8572 48.3893 94.8216 48.4962 94.7074 48.5747C94.6086 48.6436 94.4386 48.6687 94.284 48.514C94.2071 48.4379 94.1698 48.331 94.1812 48.2217C94.1844 48.1877 94.1925 48.1529 94.2063 48.1173C94.0095 47.5239 93.3044 45.8731 92.5879 44.2822C92.2349 44.9946 91.979 45.5087 91.8511 45.7217C91.7118 45.954 91.2828 46.3038 90.597 46.7815C91.0504 47.3628 92.0754 48.3262 92.7522 48.9609C93.7083 49.8588 94.5342 50.6336 94.7495 51.0659C94.8167 51.2011 94.9973 51.5606 93.7391 53.3523C92.9506 54.476 91.8633 55.7641 90.7565 56.8862C89.0328 58.6325 86.0802 61.1925 83.4376 61.3707C82.9834 64.6577 83.0401 67.0266 83.6481 68.1609C85.4309 71.4859 90.5549 72.3757 93.8419 72.5959C94.8499 72.2381 96.0943 72.4146 96.8569 72.6575C96.9905 72.7004 97.0755 72.8323 97.0577 72.9716C97.0399 73.1108 96.9258 73.2177 96.7857 73.2258C96.7679 73.2266 95.5867 73.2914 93.9221 73.1886C93.4881 73.3707 93.123 73.6954 92.9408 74.2427C92.8421 74.5382 92.6712 75.0183 92.4543 75.6255C91.8074 77.4366 90.7257 80.467 89.9566 83.1549C88.6977 87.5543 89.0652 88.3469 89.2077 88.4854C89.228 88.5048 89.2887 88.5639 89.5162 88.474C90.5468 88.0676 92.1782 86.8038 93.7569 85.5821C96.2271 83.6698 97.9021 82.4351 98.8988 82.4351L98.8971 82.4384ZM146.686 90.0576C146.655 91.2065 146.649 91.9902 146.669 92.293C146.684 92.518 146.737 92.7998 146.905 92.8597C147.018 92.901 147.176 92.8751 147.361 92.8014C147.274 92.191 147.163 91.4834 147.043 90.7183C147.007 90.4867 146.969 90.2471 146.931 90.0002C146.849 90.0196 146.767 90.0382 146.686 90.0568V90.0576ZM147.499 89.8666C147.539 90.1289 147.58 90.3831 147.618 90.6292C147.732 91.3571 147.828 91.9788 147.906 92.5083C148.428 92.1691 149.016 91.6558 149.44 91.2194C149.489 90.9952 149.632 90.2924 149.75 89.3209C149.56 89.367 149.366 89.4148 149.169 89.4626C148.596 89.6026 148.038 89.7386 147.498 89.8674L147.499 89.8666ZM26.4838 90.8203C26.6976 91.0097 26.972 91.1789 27.3032 91.3279C27.0247 90.9215 26.7421 90.5912 26.53 90.362C25.9859 89.7767 25.5083 89.4229 25.2128 89.2545C25.369 89.5176 25.7155 89.9969 26.4838 90.8203ZM141.044 64.482C140.655 72.4316 140.365 80.5625 140.198 85.2809C140.102 87.9551 140.04 89.7225 140.01 90.1151C140.006 90.1702 140.018 90.2009 140.058 90.2341C140.141 90.3046 140.327 90.3831 140.739 90.4074C141.047 86.3699 141.661 79.8387 142.221 73.8727C142.46 71.3273 142.691 68.8652 142.886 66.7384C142.149 65.9652 141.535 65.2131 141.044 64.4828V64.482ZM144.615 68.3957C144.472 69.5226 144.321 70.7128 144.166 71.9401C143.542 76.8715 142.834 82.4602 142.261 86.7747C142.073 88.1907 141.911 89.384 141.772 90.3766C142.208 90.3378 142.751 90.2657 143.427 90.1475C144.27 90.0001 145.187 89.8067 146.115 89.5945C146.149 88.474 146.2 87.0726 146.271 85.4679C145.669 80.8888 145.145 75.1146 145.455 69.1138C145.174 68.8806 144.894 68.641 144.615 68.3957ZM146.728 88.6878C146.719 88.9574 146.71 89.214 146.703 89.4585C146.749 89.448 146.795 89.4367 146.841 89.4261C146.804 89.1865 146.766 88.9404 146.728 88.6878ZM146.856 85.4501C147.041 86.8532 147.233 88.1421 147.409 89.2901C147.96 89.1581 148.506 89.0246 149.031 88.8958C149.301 88.8295 149.563 88.7655 149.816 88.704C149.9 87.8102 149.95 86.7577 149.892 85.6687C149.817 84.243 150.049 78.7976 150.445 72.7044C149.722 72.2462 148.76 71.6155 147.705 70.8528C147.637 71.7993 147.575 72.6915 147.521 73.5051C147.231 77.8406 147.004 82.0838 146.856 85.4509V85.4501ZM48.2235 82.9371C48.6373 82.9371 49.0137 83.0019 49.3457 83.1476C49.9172 83.3978 50.3148 83.8722 50.5269 84.5579C50.7965 85.4267 50.8167 87.0548 50.6742 89.1201C51.649 88.7274 52.3218 88.3445 52.6108 88.0028C53.7135 86.7002 53.4132 81.7186 52.6262 77.3597C51.9461 73.5942 51.1252 71.3054 50.7762 71.052C50.4743 71.0795 49.5432 71.4803 48.5587 71.9029C45.2855 73.31 39.8068 75.6652 37.4403 73.6144C35.3491 71.8017 34.5856 61.5196 34.401 58.4115C34.031 52.1629 34.1112 44.7469 35.1621 43.2289C35.8243 42.2719 37.0541 41.3004 38.4297 40.6179C35.6648 40.8624 32.5648 40.694 31.1415 39.5694C30.7424 39.2545 30.4331 38.8157 30.1967 38.2911C29.5183 40.49 28.9572 43.1204 29.1046 45.4027C29.1807 46.5766 29.3531 48.3699 29.5531 50.4466C30.1473 56.6199 31.0452 65.9482 30.4712 70.5403C30.072 73.7367 28.2545 78.0543 26.7947 81.5235C26.2304 82.8642 25.7439 84.022 25.416 84.9304C25.05 85.9448 25.0047 86.3294 25.0136 86.4719C25.6993 86.267 27.7525 84.3353 29.4098 82.7744C32.6911 79.6865 34.0934 78.4616 34.7565 78.7959C34.9111 78.8737 35.0852 79.0607 35.0325 79.5084C34.9597 80.1277 34.754 80.9147 34.5362 81.7478C34.0545 83.5913 33.4554 85.8857 34.2415 86.8645C34.5484 87.2467 35.0576 87.4191 35.796 87.3916C37.2703 87.3373 39.5089 86.2703 41.6738 85.238C44.1447 84.06 46.5047 82.9355 48.2235 82.9355V82.9371ZM151.007 73.0558C150.631 78.9117 150.403 84.2794 150.475 85.6388C150.53 86.6864 150.492 87.6903 150.418 88.559C151.624 88.27 152.55 88.0692 153 88.0579C153.08 87.9624 153.276 87.5114 153.325 85.4016C153.361 83.8034 153.314 81.6458 153.258 79.1465C153.171 75.2547 153.068 70.648 153.229 66.1328C152.239 67.8338 151.045 70.3444 151.171 71.8592C151.199 72.1992 151.292 72.4591 151.452 72.6453C151.546 72.7028 151.631 72.7554 151.705 72.8008C151.81 72.8655 151.892 72.9157 151.947 72.9497C152.263 73.1489 152.161 73.3327 152.127 73.3934C152.077 73.4841 151.952 73.6168 151.681 73.4881C151.637 73.4671 151.57 73.4339 151.48 73.3893C151.324 73.3108 151.187 73.2129 151.071 73.0955C151.05 73.0825 151.029 73.0695 151.007 73.0558ZM77.7703 87.8943C78.0901 88.0247 80.047 87.5284 82.0402 86.5836C83.4376 85.9213 83.823 85.5092 83.8578 85.3991C83.8343 85.1295 83.2198 83.5249 82.5276 81.7324C81.8176 81.7194 80.9991 81.6684 80.0737 81.5802C78.9588 81.4733 77.8076 81.3171 76.8069 81.1446C76.8377 81.4539 76.8684 81.7753 76.9 82.1048C77.0263 83.4261 77.1574 84.7919 77.3121 85.9003C77.5347 87.4985 77.7137 87.828 77.7711 87.8943H77.7703ZM143.422 67.2824C143.237 69.2943 143.023 71.575 142.802 73.9269C142.351 78.7287 141.865 83.8965 141.532 87.828C142.141 83.2868 142.934 77.0318 143.588 71.8673C143.762 70.4926 143.93 69.164 144.088 67.9196C144.052 67.8864 144.017 67.8532 143.981 67.82C143.789 67.6403 143.602 67.4606 143.422 67.2832V67.2824ZM111.725 84.8227C111.811 85.0559 111.888 85.2461 111.951 85.3773C112.071 85.2558 112.238 85.0664 112.441 84.8219C112.193 84.8227 111.955 84.8235 111.725 84.8227ZM156.304 74.2662C156.022 75.1681 155.865 75.9299 155.865 76.4578C155.865 76.5565 155.947 76.9371 157.002 77.6803C160.986 80.488 173.771 84.8955 178.247 84.2721C177.365 80.0241 176.63 74.6928 175.946 69.721C175.128 63.776 174.355 58.1614 173.54 56.2798C173.301 55.7285 173.045 55.4249 172.836 55.4443C172.56 55.471 171.783 55.9875 170.536 60.1902C169.741 62.8644 169.05 66.0275 168.593 68.1212C168.516 68.471 168.446 68.7899 168.385 69.0693C168.188 69.955 168.08 70.7686 168.034 71.5248C168.045 71.5369 168.056 71.5491 168.066 71.5604C168.227 71.7555 168.18 71.911 168.137 71.9871C168.115 72.026 168.076 72.077 168.01 72.1126C167.977 73.5496 168.152 74.7786 168.313 75.9153C168.436 76.7735 168.55 77.5839 168.55 78.3604C168.55 79.238 168.127 79.429 167.874 79.4655C167.839 79.4703 167.803 79.4728 167.766 79.4728C166.513 79.4728 164.349 76.6181 163.54 73.8443C163.291 72.9918 163.044 72.8995 162.975 72.8914C162.966 72.8906 162.958 72.8898 162.949 72.8898C162.436 72.8898 161.492 74.5592 160.925 75.5631C160.35 76.5808 159.854 77.4593 159.397 77.8009C159.226 77.9288 158.866 78.0972 158.372 77.7823C157.542 77.2536 156.77 75.6449 156.323 74.3155L156.306 74.2653L156.304 74.2662ZM111.517 84.239C111.935 84.2406 112.4 84.2406 112.917 84.2357C113.027 84.0973 113.143 83.9507 113.264 83.7969C112.612 83.7346 111.964 83.7062 111.343 83.7143C111.402 83.8981 111.461 84.0746 111.517 84.2398V84.239ZM108.348 84.1038C108.767 84.158 109.527 84.2147 110.902 84.2333C110.849 84.0762 110.794 83.9094 110.737 83.7329C109.862 83.7775 109.06 83.8957 108.402 84.0876C108.383 84.0932 108.365 84.0981 108.348 84.1038ZM113.942 83.8746C113.846 83.9985 113.754 84.1167 113.668 84.2268C114.331 84.2171 114.999 84.2025 115.635 84.1847C115.456 84.1426 115.273 84.1021 115.085 84.0641C114.709 83.9888 114.326 83.9248 113.942 83.8738V83.8746ZM172.861 54.8606C173.56 54.8606 173.945 55.7487 174.074 56.0483C174.921 58.0027 175.664 63.3963 176.524 69.6416C177.182 74.4216 177.928 79.8452 178.82 84.1507C178.862 84.1386 178.902 84.1248 178.941 84.111C180.728 83.4731 182.135 77.0569 182.613 67.3675C183.036 58.7839 182.606 49.777 181.614 46.4171C180.62 43.0548 179.016 39.8722 177.461 37.1811C176.843 39.0488 174.762 40.3993 172.569 41.8234C171.03 42.8224 169.438 43.8555 168.317 45.1015C166.315 47.3255 166.676 50.8028 167.025 54.1659C167.156 55.4322 167.281 56.628 167.281 57.7485C167.281 58.4148 167.211 59.3167 166.604 59.46C166.225 59.549 165.622 59.4001 164.303 57.4359C163.574 56.3494 162.848 55.0314 162.449 54.2323C162.448 54.2291 162.446 54.2266 162.445 54.2242C162.307 54.2809 161.804 54.6582 160.482 57.1C159.554 58.8139 158.506 61.0023 157.583 62.9332C157.218 63.6959 156.892 64.3743 156.605 64.9637C157.394 65.4309 158.457 66.0753 159.903 66.9602C160.161 66.9869 160.588 67.114 161.364 67.4727C162.078 67.803 162.991 68.2839 164.002 68.8652C165.259 69.5866 166.683 70.4739 167.486 71.0666C167.544 70.4011 167.649 69.6943 167.815 68.9413C167.878 68.662 167.947 68.3438 168.023 67.9949C168.483 65.8932 169.177 62.7178 169.977 60.0227C171.301 55.5617 172.17 54.9221 172.78 54.8622C172.807 54.8598 172.835 54.8581 172.862 54.8581L172.861 54.8606ZM114.35 83.3435C114.634 83.3872 114.919 83.4366 115.199 83.4933C115.74 83.6018 116.594 83.8034 117.441 84.1272C118.164 84.1005 118.769 84.0722 119.173 84.0495C119.674 84.0212 119.986 83.89 120.1 83.6593C120.392 83.0666 119.528 81.798 119.245 81.381C119.17 81.2701 119.125 81.2045 119.098 81.156C118.892 80.9884 117.715 80.5819 116.645 80.2686C116.335 80.6928 115.472 81.87 114.587 83.0351C114.506 83.1419 114.427 83.2448 114.351 83.3443L114.35 83.3435ZM72.8293 79.9351C73.0981 80.875 73.3984 81.9696 73.5741 82.7517C73.7887 82.2951 74.0793 81.4539 74.361 80.5852C74.2793 80.556 74.208 80.5277 74.1473 80.501C73.9303 80.4022 73.4737 80.1666 72.8366 79.8314C72.8341 79.8654 72.8317 79.9002 72.8301 79.9351H72.8293ZM146.016 69.5704C145.819 73.9415 146.06 78.1831 146.441 81.9105C146.574 79.3157 146.742 76.4278 146.94 73.4663C147.001 72.5473 147.071 71.5305 147.151 70.4456C146.778 70.1679 146.398 69.8756 146.016 69.5704ZM81.6791 77.9005C82.1131 79.0437 82.5284 80.1188 82.8968 81.0717C82.9065 81.0977 82.917 81.1236 82.9268 81.1487C84.4367 81.1438 85.1856 80.9487 85.3661 80.7269C85.388 80.7001 85.4446 80.6297 85.2827 80.4087C84.5686 79.4339 83.0781 78.566 81.6799 77.9013L81.6791 77.9005ZM76.7454 80.5423C77.7274 80.7163 78.9095 80.8831 80.1279 80.9989C80.9594 81.0782 81.6799 81.1228 82.2977 81.1398C81.8832 80.0678 81.4128 78.8486 80.9254 77.5556C80.2518 77.2593 79.6422 77.0196 79.2066 76.8488C78.9953 76.7654 78.8285 76.6998 78.7103 76.6497C78.5435 76.5792 78.316 76.4829 78.363 76.2343C78.3856 76.1129 78.4917 75.9906 78.6755 75.9906C78.7014 75.9906 78.7483 75.9906 78.8139 75.9914C79.3782 75.9971 79.885 75.9955 80.3408 75.989C80.1174 75.3834 79.8939 74.7689 79.6737 74.152C78.4188 73.9431 77.1081 73.778 75.9859 73.6549C76.343 76.3841 76.2572 76.5833 76.207 76.7007C76.1446 76.8464 76.0523 77.1168 75.9406 77.4674C76.1479 77.6009 76.2912 77.7847 76.3673 78.0138C76.5049 78.4259 76.6231 79.3618 76.7445 80.5415L76.7454 80.5423ZM75.0962 80.1957C75.3885 80.271 75.7439 80.3512 76.1487 80.4305C76.0394 79.3869 75.9309 78.5417 75.8159 78.1984C75.8005 78.1523 75.7795 78.111 75.7528 78.0746C75.6864 78.2891 75.6168 78.5174 75.5439 78.7546C75.3795 79.2906 75.2314 79.7691 75.0962 80.1957ZM72.8778 79.1943C73.6259 79.5885 74.1578 79.8646 74.3886 79.9699C74.4307 79.9893 74.4809 80.0095 74.5384 80.0298C74.7043 79.5035 74.8606 78.9943 74.9861 78.5838C75.0695 78.311 75.148 78.0535 75.2217 77.8171C74.6064 77.7151 73.6802 77.9005 72.9531 78.1029C72.928 78.4575 72.9029 78.8218 72.8778 79.1943ZM162.952 72.3069C162.981 72.3069 163.01 72.3085 163.039 72.3118C163.499 72.3652 163.844 72.8129 164.098 73.6808C164.481 74.994 165.185 76.3695 166.029 77.4528C166.896 78.5668 167.559 78.9214 167.79 78.8882C167.953 78.8647 167.966 78.4778 167.966 78.3604C167.966 77.6252 167.853 76.8351 167.734 75.9979C167.574 74.8726 167.39 73.578 167.429 72.0502C166.478 71.6592 164.013 70.1638 160.303 67.8913C160.121 67.7795 159.937 67.667 159.752 67.5537C159.452 67.7188 158.547 69.011 157.542 71.1516C157.187 71.9086 156.878 72.6453 156.625 73.3302C157.118 75.1543 157.989 76.8488 158.683 77.2917C158.91 77.4366 159.001 77.3678 159.045 77.3354C159.404 77.0666 159.918 76.1566 160.415 75.2766C161.277 73.7512 162.093 72.3077 162.951 72.3077L162.952 72.3069ZM71.1348 78.2729C71.372 78.3984 71.5995 78.519 71.8181 78.634C71.8278 78.6389 71.8367 78.6437 71.8464 78.6486C71.763 78.3701 71.7112 78.1984 71.7088 78.1912C71.6642 78.0438 71.7411 77.8875 71.8853 77.8333C71.9055 77.826 71.9379 77.8139 71.98 77.7985C71.8934 77.6908 71.797 77.5313 71.6812 77.2981L71.1348 78.2729ZM69.5163 78.2316C69.8742 78.3563 70.1527 78.4518 70.3324 78.5134L70.3348 78.5093C70.0693 78.3693 69.7948 78.2243 69.5131 78.0762C69.5147 78.128 69.5155 78.179 69.5171 78.2308L69.5163 78.2316ZM72.3467 78.2883C72.3492 78.2964 72.3516 78.3045 72.354 78.3126C72.354 78.3037 72.3556 78.2948 72.3556 78.2859C72.3524 78.2867 72.3492 78.2883 72.3467 78.2891V78.2883ZM55.706 71.9458C55.723 72.0486 55.9124 72.4891 57.777 73.4784C59.0035 74.1293 60.7385 74.9049 62.935 75.7834C65.18 76.6812 67.4567 77.5062 68.9302 78.026C68.9277 77.9402 68.9253 77.8544 68.9229 77.7677C66.792 76.6513 64.3162 75.3786 62.0622 74.3042C56.8791 71.8325 55.8857 71.8778 55.7052 71.9466L55.706 71.9458ZM69.4929 77.4083C69.8823 77.6123 70.2588 77.8106 70.619 78.0009L71.3849 76.6359C71.1032 75.9591 70.7324 74.9584 70.215 73.4873C70.0669 73.0655 69.9495 72.7327 69.8928 72.5911C69.8297 72.4332 69.6799 71.775 69.4135 70.5241C69.3439 70.4861 69.2743 70.4472 69.2046 70.4084C69.2605 71.4649 69.3099 72.5004 69.3528 73.4962C69.4022 74.6572 69.4524 76.002 69.4937 77.4091L69.4929 77.4083ZM73.2219 74.5528C73.1604 75.3138 73.0811 76.3298 72.9977 77.4844C73.7352 77.2909 74.6881 77.1176 75.3974 77.2585C75.5083 76.9128 75.5989 76.6456 75.667 76.4845C75.7139 76.2448 75.6103 75.2077 75.3941 73.5926C74.7804 73.5294 74.2469 73.4808 73.8429 73.446L73.2219 74.5528ZM72.0334 76.6715C72.0698 76.7549 72.1047 76.8342 72.1387 76.9071C72.1314 76.7962 72.1225 76.6707 72.1111 76.5323L72.0326 76.6715H72.0334ZM80.0988 76.576C80.2696 76.6448 80.4526 76.7201 80.6428 76.8002C80.6145 76.7233 80.5854 76.6464 80.557 76.5695C80.3991 76.5727 80.2453 76.5752 80.0988 76.576ZM75.6718 76.4715C75.6718 76.4715 75.671 76.474 75.6702 76.4748C75.6702 76.474 75.671 76.4723 75.6718 76.4715ZM70.0887 70.8957C70.266 71.7151 70.3915 72.2697 70.4336 72.3741C70.4952 72.5279 70.6077 72.8493 70.7639 73.2938C70.9736 73.8897 71.3776 75.0401 71.7501 75.9842L72.0205 75.5016C71.929 74.522 71.7946 73.2299 71.6327 71.7321C71.1623 71.4795 70.6401 71.1969 70.0887 70.8957ZM80.3344 74.2678C80.5408 74.8418 80.7497 75.4134 80.9578 75.9761C83.5202 75.9016 84.1646 75.6352 84.3152 75.5397C84.2747 75.4968 84.1873 75.4223 84.006 75.3203C83.2555 74.8985 81.8718 74.5479 80.3336 74.2678H80.3344ZM106.562 73.8435C106.781 74.0629 107.202 74.3342 107.775 74.6313C108.24 74.5098 108.798 74.3916 109.443 74.2775C111.205 73.9674 113.657 73.6808 116.734 73.4258C117.284 73.3804 117.836 73.3375 118.381 73.2971C118.002 73.2971 117.619 73.2987 117.236 73.3003C109.113 73.3367 107.07 73.6678 106.562 73.8427V73.8435ZM72.2593 72.0664C72.3605 73.0104 72.4487 73.867 72.5216 74.6094L72.6511 74.3787C72.7167 73.5691 72.7596 73.0793 72.7613 73.0647C72.775 72.906 72.9135 72.7894 73.0722 72.7991C73.1143 72.8024 73.2713 72.8129 73.5182 72.8331L73.5628 72.7538C73.2915 72.6121 72.8357 72.3733 72.2593 72.0664ZM75.9066 73.0582C76.9737 73.1732 78.2253 73.3278 79.4519 73.5246C78.1646 69.8651 77.0457 66.2113 76.866 63.993C76.7721 62.832 76.6782 61.467 76.5786 60.0218C76.4239 57.7768 76.2523 55.284 76.0483 53.1215C75.2111 50.8943 74.7238 48.8282 74.6736 47.8307C74.6501 47.3571 74.7205 47.1053 74.9108 46.9887C75.0346 46.9126 75.186 46.9142 75.3253 46.9936C75.6823 47.1976 76.0701 47.9076 76.4879 51.6885C76.534 52.1095 76.5794 52.5499 76.6223 53.0057C76.6887 53.1806 76.7575 53.3571 76.8279 53.5352C77.6707 55.6435 79.443 59.3531 81.8435 60.5149C82.177 60.676 82.5397 60.7691 82.9308 60.7942C83.5056 56.985 84.5978 52.8519 85.2649 50.5121C85.2908 50.4215 85.3175 50.3292 85.3434 50.2377C85.1159 50.4004 84.9289 50.5437 84.7962 50.6595C84.7306 50.717 84.6682 50.785 84.6075 50.8619C84.6804 51.9954 84.363 53.0041 83.9647 54.0412C83.7922 54.489 83.6513 54.731 83.3988 54.731H83.3963C83.2838 54.731 83.1405 54.6671 83.0749 54.4906C82.8984 54.0161 83.2652 51.8707 84.0076 50.7097C83.9056 49.7535 83.4886 48.7002 82.5454 47.4202C81.4759 45.9694 79.7757 43.4191 78.2755 41.1684C76.7972 38.9517 75.4014 36.8572 74.9577 36.3391C74.4015 35.6906 73.2276 35.4048 72.3694 35.1959C71.899 35.0817 71.559 34.9984 71.3687 34.8721C71.2756 34.8162 70.8457 34.7587 70.5316 34.7166C70.4709 34.7085 70.4101 34.7004 70.3486 34.6923C71.6505 36.3658 73.6964 39.4553 73.5021 40.422C73.46 40.6316 73.3247 40.7838 73.1312 40.8389C72.3273 41.068 71.2173 41.1304 70.6603 41.1474C70.934 42.7123 72.1192 49.5115 73.3191 56.6822C73.9125 56.8368 74.3432 57.0765 74.5651 57.4303C74.8824 57.9379 74.8411 58.5848 74.4444 59.3005C74.3003 59.5604 74.1109 59.8251 73.8858 60.0866C74.9828 66.7351 75.5844 70.6901 75.9066 73.0582ZM74.1562 72.8874C74.4857 72.9165 74.8776 72.953 75.3123 72.9967C74.9075 70.0707 74.2024 65.5993 73.3822 60.6088C72.7556 61.1958 71.967 61.7342 71.1291 62.1236C71.5177 65.4268 71.8934 68.6912 72.1832 71.3637C73.3077 71.9652 74.0728 72.3619 74.0979 72.3757C74.1684 72.4121 74.2202 72.4753 74.2429 72.5506C74.2655 72.6259 74.2566 72.7076 74.2178 72.7765L74.1562 72.8866V72.8874ZM98.3968 72.6558C99.8833 72.7222 120.2 71.6009 128.318 71.1386C128.443 70.7136 128.757 69.6425 129.109 68.3576C128.844 67.131 128.392 64.9014 127.607 60.812C126.891 57.0886 126.196 53.3652 126.017 52.4026C124.678 52.4042 118.001 52.4204 111.258 52.5637C106.852 52.6568 103.282 52.7855 100.644 52.9458C96.4246 53.2017 95.5494 53.4883 95.3697 53.5976C95.2766 54.357 95.7583 58.6123 96.4675 63.2643C97.3613 69.1203 98.0827 72.1952 98.396 72.6558H98.3968ZM156.032 66.1158C156.384 67.4055 156.557 68.6458 156.335 69.7008C156.177 70.4505 156.223 71.3742 156.396 72.319C156.648 71.6997 156.882 71.1888 157.015 70.9038C157.261 70.3808 158.387 68.0394 159.234 67.2363C158.21 66.6105 157.192 65.9911 156.346 65.49C156.235 65.715 156.13 65.9239 156.032 66.1166V66.1158ZM147.756 70.1679C148.785 70.9241 149.74 71.5604 150.489 72.0405C150.649 69.6319 150.923 65.8089 151.284 61.8686C151.201 62.0564 151.117 62.2458 151.035 62.4329C150.828 62.9 150.634 63.3413 150.448 63.738C150.295 64.0659 150.069 64.1557 149.905 64.1735C149.476 64.2213 149.003 63.84 148.346 63.0717C148.117 65.5183 147.919 67.9706 147.756 70.1679ZM69.9268 70.1388C70.5008 70.4553 71.053 70.7557 71.5557 71.0269C71.2772 68.4896 70.9291 65.4479 70.5672 62.3584C69.9414 62.5916 69.3026 62.7324 68.6946 62.7397C68.7593 63.538 68.8209 64.3476 68.8792 65.1629C69.0751 66.0899 69.2629 66.9853 69.4386 67.8216C69.6143 68.658 69.7811 69.453 69.9268 70.1388ZM69.1666 69.7169C69.1949 69.7331 69.2233 69.7485 69.2516 69.7647C69.216 69.5947 69.1779 69.4174 69.1391 69.2312C69.148 69.3939 69.1577 69.5558 69.1666 69.7169ZM146.052 68.8507C146.438 69.1656 146.824 69.4676 147.203 69.755C147.373 67.4743 147.581 64.9402 147.821 62.4312C147.591 62.1406 147.34 61.8143 147.065 61.4549C147.027 61.4047 146.988 61.3545 146.949 61.3035C146.853 61.8742 146.759 62.4491 146.667 63.0279C146.357 64.9686 146.161 66.9197 146.053 68.8507H146.052ZM61.4502 63.6165C62.0558 64.7144 62.6565 65.579 63.2022 66.0227C64.2393 66.8647 66.4228 68.1698 68.5642 69.3777C68.4873 68.0127 68.3999 66.6234 68.3019 65.2463C68.1319 64.4407 67.953 63.6019 67.77 62.7519C65.1558 62.8231 62.4954 63.1939 61.6574 63.5299C61.5999 63.5526 61.5303 63.5817 61.4502 63.6165ZM129.709 68.3819C129.76 68.6134 129.805 68.8167 129.845 68.9883C130.058 68.3989 130.358 67.4492 130.632 66.5773C131.324 64.3832 131.844 62.8142 132.275 61.7779C132.217 61.7941 132.158 61.8095 132.099 61.8224C131.972 61.8508 131.773 61.8475 131.547 61.6735C131.359 61.5293 131.171 61.2727 130.984 60.9375C131.065 61.3026 131.111 61.6079 131.111 61.841C131.111 63.0126 130.354 66.0267 129.709 68.3819ZM152.017 60.2963C151.732 63.2303 151.493 66.1992 151.31 68.6677C151.631 67.8759 151.996 67.148 152.27 66.6364C152.278 66.621 152.77 65.7102 153.278 64.9265C153.34 63.5906 153.429 62.2701 153.55 60.9845C153.331 60.3862 153.16 59.851 153.068 59.392C153.01 59.0997 152.946 58.9823 152.915 58.9402C152.839 58.9831 152.608 59.175 152.152 60.0348C152.107 60.119 152.063 60.2056 152.017 60.2955V60.2963ZM53.6844 68.3608C53.7629 68.4013 54.0123 68.458 54.5531 68.3965C55.6914 68.2677 57.2952 67.6953 57.6579 67.1521C57.7405 67.0282 57.8587 66.6453 57.7357 65.4746C56.3537 66.2429 54.9376 67.1286 54.0406 67.935C53.7742 68.1746 53.703 68.309 53.6836 68.3608H53.6844ZM144.704 67.6929C144.966 67.9293 145.23 68.1609 145.495 68.3867C145.609 66.5781 145.8 64.7516 146.089 62.9348C146.211 62.1738 146.336 61.4192 146.463 60.6736C146.233 60.3773 145.993 60.0753 145.749 59.779C145.737 59.8607 145.726 59.9384 145.715 60.0121C145.553 61.059 145.177 63.9752 144.704 67.6921V67.6929ZM143.491 66.5263C143.709 66.7505 143.938 66.9772 144.179 67.2055C144.627 63.6829 144.983 60.9383 145.139 59.9255C145.172 59.7109 145.206 59.4624 145.24 59.1823C144.906 58.8026 144.566 58.4447 144.228 58.1354C144.071 59.8729 143.927 61.4961 143.814 62.8474C143.729 63.8675 143.618 65.1192 143.491 66.5255V66.5263ZM126.26 51.8197C126.4 51.8197 126.52 51.9201 126.546 52.0577C127.446 56.9016 128.709 63.5493 129.444 67.1197C129.994 65.0366 130.528 62.7729 130.528 61.8402C130.528 60.9076 129.638 58.4569 128.697 55.8491C127.709 53.1134 126.589 50.0134 126.276 48.0534C125.941 45.9589 127.399 41.9926 128.57 38.806C128.994 37.6547 129.393 36.5674 129.645 35.7351C129.938 34.7725 129.943 34.4292 129.924 34.3142C128.133 34.6259 123.293 34.4624 121.559 33.5168C121.359 33.4075 121.138 33.2569 120.907 33.078C121.928 34.5555 122.79 35.8881 122.855 35.9909C122.905 36.0679 122.915 36.1634 122.884 36.25C122.852 36.3358 122.782 36.4022 122.694 36.4281C121.884 36.6718 120.628 37.2216 120.506 37.6296C120.498 37.6571 120.484 37.7025 120.553 37.7859C120.802 38.0846 121.317 38.3356 121.814 38.5785C122.734 39.0278 123.777 39.5362 123.66 40.5895C123.579 41.3158 122.779 43.9373 121.877 46.4333C121.387 47.7902 120.923 48.9504 120.535 49.7867C119.912 51.1323 119.597 51.4391 119.313 51.4861C119.094 51.5225 118.8 51.6229 118.489 51.729C118.346 51.7776 118.202 51.827 118.06 51.8723C122.691 51.8205 126.207 51.8197 126.259 51.8197H126.26ZM155.01 64.8156C154.914 65.7814 154.873 66.5449 154.902 66.9707C155.036 66.7546 155.208 66.4413 155.406 66.0591C155.289 65.647 155.154 65.2301 155.01 64.8164V64.8156ZM141.095 63.4659C141.551 64.2626 142.171 65.0949 142.957 65.9595C143.066 64.7621 143.159 63.6918 143.234 62.7996C143.355 61.3423 143.512 59.5701 143.684 57.6796C143.109 57.2465 142.553 56.9979 142.058 57.0643C141.837 57.0935 141.627 57.1874 141.428 57.3453C141.31 59.3191 141.199 61.3812 141.095 63.4659ZM155.734 65.1305C155.753 65.1872 155.772 65.2438 155.789 65.3005C155.807 65.2649 155.825 65.2293 155.843 65.1936C155.806 65.1726 155.77 65.1515 155.734 65.1305ZM56.8605 58.6649C57.0418 59.3175 57.441 60.7918 57.7794 62.3357C57.9737 63.2222 58.1113 63.9533 58.2044 64.5589C59.142 64.0594 60.0147 63.6319 60.6454 63.3396C59.8552 61.82 59.0821 59.987 58.419 58.2188C58.0595 58.3176 57.6588 58.4342 57.2426 58.554C57.1139 58.5913 56.9868 58.6277 56.8613 58.6641L56.8605 58.6649ZM45.5024 62.5754C44.5042 62.9308 43.7423 63.2044 43.4088 63.3291C43.1829 63.4141 43.0404 63.5177 43.0631 63.5817C43.1788 63.908 44.4281 64.4439 45.2102 64.2092C45.2628 64.1355 45.4061 63.8262 45.5032 62.5754H45.5024ZM154.028 62.2313C153.981 62.8377 153.94 63.4497 153.905 64.0667C154.025 63.9331 154.13 63.8424 154.213 63.8149C154.281 63.7922 154.365 63.7906 154.523 63.844C154.534 63.7566 154.544 63.6683 154.555 63.5785C154.415 63.215 154.275 62.8595 154.14 62.5163C154.102 62.4199 154.065 62.3244 154.028 62.2305V62.2313ZM148.424 62.2523C148.632 62.5122 148.831 62.7486 149.014 62.9478C149.6 63.5866 149.807 63.5971 149.842 63.5947C149.857 63.593 149.888 63.5607 149.92 63.4926C150.102 63.1016 150.295 62.6628 150.501 62.1981C150.862 61.3787 151.172 60.6938 151.447 60.1384C151.775 56.7907 152.162 53.4939 152.592 51.04C154.169 42.0509 156.193 38.708 156.278 38.5696C156.362 38.4344 156.539 38.3906 156.675 38.4732L158.042 39.2925C159.192 37.8377 160.714 35.9116 162.154 34.0843C163.1 31.9898 164.026 30.0549 164.805 28.5441C165.234 27.7127 165.554 27.1289 165.799 26.7185C165.499 26.1793 165.14 25.5777 164.774 25.0005C163.85 26.4902 160.578 31.7065 158.863 33.7516C158.41 34.2916 157.859 34.5571 157.224 34.5401C157.131 34.5377 157.037 34.5288 156.942 34.515C155.985 35.8954 155.245 36.9293 154.988 37.1867C154.873 37.3017 154.728 37.3479 154.578 37.3163C154.179 37.2329 153.912 36.65 153.399 35.3384C153.276 35.0259 153.113 34.6089 152.978 34.3272C152.962 34.4033 152.943 34.4899 152.92 34.5879L153.643 38.8343C153.653 38.891 153.646 38.9493 153.622 39.0011C153.609 39.0294 152.334 41.9432 150.15 50.2134C149.473 52.7742 148.889 57.4473 148.424 62.2523H148.424ZM58.9833 58.0699C59.6423 59.8211 60.4066 61.6257 61.1741 63.1016C61.2793 63.0555 61.3692 63.0182 61.4405 62.9891C62.4152 62.5988 65.1428 62.2507 67.6445 62.1738C67.281 60.4955 66.9037 58.7912 66.537 57.2174C65.5768 57.2829 64.8813 57.321 64.5405 57.2643C64.3372 57.2303 64.1842 57.1194 64.1081 56.951C63.9041 56.4992 64.3016 55.8021 64.9817 54.7084C65.1541 54.4315 65.3881 54.0542 65.516 53.7984C64.7987 54.1182 63.9875 54.7893 63.1285 55.501C61.8849 56.5308 60.4746 57.6983 58.9841 58.0707C58.9841 58.0707 58.9833 58.0707 58.9825 58.0707L58.9833 58.0699ZM154.143 60.9059C154.306 61.348 154.492 61.82 154.683 62.3033C154.692 62.3292 154.703 62.3543 154.713 62.3802C154.774 61.9422 154.841 61.4897 154.915 61.0274C155.365 58.1784 156.152 54.2113 156.889 52.4083C157.861 50.0329 161.674 45.8358 164.198 43.0589C165.106 42.0606 165.967 41.1125 166.187 40.7903C165.989 40.6268 165.319 40.3799 164.902 40.2268C164.326 40.0155 163.783 39.8156 163.484 39.5913C163.365 39.5022 163.308 39.3646 163.332 39.2229C163.369 39.0043 163.425 38.674 166.748 37.4644C167.959 37.024 169.175 36.6241 169.674 36.4621C169.496 35.2809 168.722 30.1771 168.445 28.7935C168.161 27.371 167.219 26.4367 166.746 26.3404C166.679 26.4116 166.585 26.5428 166.467 26.7274C167.265 28.2041 167.207 28.5352 167.071 28.7384C166.909 28.9813 164.764 31.7121 162.64 34.4082C160.166 39.8811 157.185 47.2502 155.377 53.7061C154.784 55.8248 154.393 58.2868 154.141 60.9059H154.143ZM140.795 58.1257C140.68 58.3265 140.569 58.5548 140.464 58.8107C140.023 59.8899 140.056 61.0776 140.563 62.3673C140.637 60.9286 140.714 59.5085 140.795 58.1257ZM68.144 57.1097C68.3286 58.6617 68.4962 60.374 68.6468 62.1576C69.2403 62.1576 69.8758 62.0078 70.4976 61.7609C70.3106 60.1684 70.1211 58.5718 69.9365 57.0311C69.3253 57.0449 68.7116 57.0749 68.144 57.1089V57.1097ZM42.7991 39.784C43.8282 40.0147 44.5188 40.6729 44.8029 41.6963C45.3454 43.6474 45.8433 49.5277 46.0546 54.3287C46.1768 57.0927 46.2108 59.4964 46.1534 61.2808C46.1485 61.4387 46.1428 61.5892 46.1364 61.7326C47.8422 61.127 49.9869 60.3708 51.8725 59.7069C51.4693 59.6931 51.1616 59.6097 50.9625 59.4397C50.8273 59.3248 50.6759 59.1135 50.7196 58.7653C50.7706 58.3573 50.9738 57.7865 51.2304 57.0651C52.0303 54.816 53.3702 51.0522 51.5616 47.5854C50.148 44.8756 48.6672 43.3673 47.5864 42.2654C46.8229 41.4874 46.2708 40.9247 46.1615 40.3054C46.1024 39.9678 45.7979 39.3006 45.4458 38.5283C44.4993 36.45 43.0679 33.3087 43.3456 30.4216C43.7294 26.4294 46.5331 21.898 48.9749 19.3769C49.999 18.3195 50.3812 17.361 50.5058 16.7384C50.4467 16.5335 50.4127 16.3417 50.4127 16.1595C50.4127 15.9992 50.4127 15.6648 50.6831 15.5912C50.824 15.5531 50.9657 15.6138 51.0442 15.7474C51.1171 15.8713 51.1721 16.2089 51.1009 16.6906C51.2288 17.0719 51.4579 17.5302 51.7097 18.0329C52.1421 18.8976 52.6805 19.9736 52.9638 21.1856C53.5435 23.6703 53.1395 28.2462 52.0449 31.6028L51.9526 31.887C51.7575 32.4869 51.585 33.0164 51.4166 33.4739C53.2391 30.1059 54.8761 24.6896 53.7653 20.0262C52.4724 14.5961 50.79 14.1128 50.1569 13.9306C50.0419 13.8974 49.9504 13.8715 49.8711 13.8238C49.8347 13.8019 49.7748 13.7631 49.693 13.7104C47.3014 12.1584 44.9932 11.2128 42.8331 10.8978C41.1232 10.6485 39.1769 11.4484 37.3545 13.1502C35.4454 14.9329 33.8052 17.6014 32.7373 20.6626C31.5091 24.1836 30.5772 28.2648 30.2437 31.5794C30.0534 33.469 30.0599 35.0704 30.2534 36.3277C30.7942 34.8607 31.3059 33.775 31.5293 33.4115C31.6459 33.2221 31.8046 32.9638 32.071 33.0399C32.3398 33.1168 32.339 33.3605 32.3357 33.8949C32.3317 34.613 32.3236 35.9488 32.815 37.5049C33.3186 39.099 37.0145 38.7461 39.7129 38.4886C41.8381 38.2854 43.0663 38.189 43.582 38.576C43.795 38.7363 43.8063 38.925 43.7933 39.0229C43.7593 39.2853 43.5116 39.4966 42.9886 39.7095C42.9287 39.7338 42.8647 39.7589 42.7983 39.7832L42.7991 39.784ZM147.082 60.5198C147.232 60.7141 147.381 60.9084 147.527 61.1002C147.654 61.2662 147.78 61.4298 147.903 61.5893C148.36 56.972 148.929 52.5467 149.585 50.0644C151.609 42.4023 152.829 39.3735 153.052 38.8464L152.566 35.9893C152.486 36.2962 152.397 36.637 152.299 37.0102C151.154 41.3959 148.862 50.1697 147.081 60.5198H147.082ZM70.5219 57.0238C70.6976 58.4844 70.8781 59.9992 71.057 61.5115C71.9047 61.0913 72.6916 60.51 73.2665 59.9036C73.1183 59.005 72.9669 58.0917 72.8131 57.1696C72.1743 57.0579 71.3655 57.0214 70.5227 57.0238H70.5219ZM67.128 57.1761C67.396 58.3314 67.6704 59.5563 67.9425 60.7958C67.8251 59.515 67.6979 58.2868 67.5619 57.1469C67.4121 57.1566 67.2672 57.1672 67.128 57.1761ZM86.1029 49.7163C86.0098 50.032 85.9175 50.351 85.826 50.6708C84.7233 54.5383 83.9469 57.9679 83.521 60.7804C84.5136 60.6817 85.6632 60.2 86.9586 59.3361C89.1818 57.8545 91.0901 55.7422 92.03 54.6161C93.565 52.775 94.1982 51.5727 94.2127 51.3048C94.0152 50.9518 93.1692 50.1575 92.3506 49.3892C91.239 48.3456 90.5047 47.6324 90.1161 47.111C89.5324 47.5028 88.8142 47.9659 87.9747 48.5035C87.3262 48.9188 86.6663 49.3414 86.1029 49.7163ZM145.851 58.988C146.102 59.2819 146.352 59.5887 146.598 59.8996C148.369 49.7535 150.608 41.1822 151.736 36.8629C151.994 35.8776 152.2 35.0866 152.324 34.5685L151.882 31.9704C150.061 33.4504 148.18 35.1417 147.943 35.6226C148.271 36.0428 149.338 37.0313 149.745 37.3981C149.813 37.4596 149.848 37.5486 149.84 37.6401C149.832 37.7316 149.782 37.8134 149.704 37.862L147.295 39.367C147.205 40.9215 146.438 53.9919 145.851 58.988ZM152.932 58.3468C152.952 58.3468 152.97 58.3476 152.99 58.35C153.416 58.397 153.565 58.9021 153.641 59.2778C153.658 59.3636 153.679 59.4535 153.702 59.5474C153.956 57.3817 154.315 55.3463 154.819 53.549C156.6 47.1871 159.425 40.3062 161.199 36.2379C159.701 38.1372 158.47 39.6925 158.34 39.856C158.25 39.971 158.088 40.001 157.962 39.9248L156.635 39.129C156.15 40.0568 154.486 43.6256 153.167 51.1412C152.795 53.2656 152.455 56.0264 152.157 58.9062C152.432 58.5313 152.68 58.3468 152.933 58.3468H152.932ZM73.4268 57.3194C73.4802 57.6383 73.5336 57.9581 73.5863 58.2771C73.6445 58.6261 73.7012 58.9685 73.7563 59.3045C73.8227 59.2082 73.8826 59.1127 73.9344 59.0179C74.1352 58.656 74.3214 58.1403 74.0712 57.7387C73.9595 57.5606 73.7344 57.423 73.4259 57.3194H73.4268ZM144.295 57.4092C144.641 57.695 144.987 58.0326 145.331 58.4026C145.94 52.7896 146.714 39.333 146.722 39.1832C146.727 39.0885 146.778 39.0027 146.859 38.9525L149.07 37.5713C148.693 37.2248 148.049 36.6208 147.663 36.1909C147.471 36.5925 147.281 36.9908 147.104 37.3624C146.725 38.1575 146.371 38.8999 146.11 39.4415C145.979 39.7135 145.872 39.9362 145.796 40.0892C145.781 40.12 145.767 40.1475 145.755 40.1726C145.762 40.2519 145.761 40.3394 145.758 40.4284C145.754 40.6211 145.74 40.8956 145.717 41.2664C145.674 41.9367 145.6 42.8986 145.489 44.2061C145.283 46.6349 144.979 49.9438 144.685 53.1434C144.554 54.5707 144.42 56.0183 144.294 57.4084L144.295 57.4092ZM52.7031 35.7294C53.5168 35.7294 54.3644 36.0784 54.9352 37.8854C55.5513 39.8358 56.0897 44.2433 56.5221 47.7846C56.7366 49.539 56.9212 51.0538 57.0726 51.9087C57.2588 52.9628 57.9122 55.1545 58.7785 57.5201C58.8003 57.5145 58.8214 57.5096 58.8424 57.504C60.205 57.1639 61.5603 56.041 62.7561 55.0508C63.6475 54.3125 64.4895 53.6154 65.2813 53.264C65.342 53.2373 65.431 53.1976 65.5314 53.1685C65.223 52.0399 64.9485 51.1752 64.7315 50.7162C63.713 48.5658 60.1888 45.0278 58.4951 43.3276C57.8361 42.6662 57.5406 42.3674 57.4555 42.2403C57.2248 41.8938 57.4896 41.4064 58.3704 40.558C58.5971 40.3394 58.8286 40.1329 59.0221 39.9653L57.3373 39.6285C57.2038 39.6018 57.1066 39.486 57.1034 39.35C57.0985 39.1687 57.0281 36.0509 57.3981 33.7232C55.7238 34.2389 53.0059 35.2356 51.7648 35.8274C51.8142 35.8209 51.8644 35.8136 51.9146 35.8055C52.1663 35.7691 52.4335 35.7303 52.7039 35.7303L52.7031 35.7294ZM142.224 56.4701C142.724 56.4701 143.234 56.6684 143.746 57.0028C143.862 55.7212 143.984 54.3983 144.104 53.0916C144.604 47.6607 145.166 41.5522 145.179 40.3742C145.127 40.3086 145.092 40.2034 145.156 40.0431C145.174 39.9977 145.197 39.9613 145.224 39.9313C145.413 39.5557 146.004 38.3153 146.577 37.1114C146.778 36.688 146.991 36.2411 147.202 35.8007C145.806 37.5438 144.008 39.8512 143.002 42.3229C142.42 43.7503 141.903 49.5608 141.471 56.636C141.634 56.5599 141.804 56.5097 141.98 56.4863C142.061 56.4757 142.142 56.4701 142.223 56.4701H142.224ZM64.636 56.6887C64.636 56.6887 64.636 56.6887 64.6368 56.6887C64.904 56.7332 65.5776 56.6968 66.4026 56.6417C66.2147 55.8451 66.031 55.0905 65.8545 54.3967C65.7484 54.5788 65.6213 54.7845 65.4772 55.0152C65.1914 55.4751 64.606 56.4166 64.636 56.6879V56.6887ZM57.9664 41.9505C58.083 42.0889 58.4846 42.4921 58.9072 42.9164C60.7555 44.772 64.1956 48.2258 65.2578 50.4668C65.6909 51.3817 66.3184 53.7344 66.9936 56.6012C67.1604 56.5899 67.3263 56.5786 67.4915 56.568C67.2915 54.9731 67.0737 53.5741 66.8381 52.4763C65.5743 46.5782 62.8297 40.0592 61.1903 36.1642C60.439 34.3798 59.9427 33.201 59.8447 32.7096C59.7411 32.1906 59.6383 31.8563 59.5476 31.6401C59.4828 32.6181 59.3079 33.3144 58.6465 33.3978C58.5089 33.4148 58.2919 33.465 58.0166 33.5403C57.7049 35.2939 57.6604 37.8069 57.6806 39.1015L59.7314 39.5111C59.8423 39.533 59.9305 39.618 59.9572 39.7281C59.984 39.8382 59.9443 39.954 59.856 40.0244C58.9015 40.7879 58.0441 41.6639 57.9664 41.9489V41.9505ZM70.683 56.4369C71.4448 56.4369 72.1298 56.4717 72.7103 56.5599C71.8197 51.2351 70.8587 45.6504 70.028 40.9126C70.0134 40.8276 70.0361 40.7409 70.092 40.6745C70.147 40.609 70.2288 40.5701 70.3154 40.5701C70.3316 40.5701 71.9225 40.5669 72.9361 40.2876C72.9718 40.0649 72.6957 39.1768 71.3849 37.1657C70.704 36.1205 69.9657 35.1206 69.4888 34.5482C69.3236 34.5118 69.165 34.4697 69.0184 34.4187C68.9229 34.7069 68.8241 35.119 68.744 35.4534C68.4582 36.6443 68.1036 38.1259 67.2834 38.6724C66.3888 39.2683 65.2448 37.9964 64.8683 37.5786C64.1097 36.735 63.339 35.6064 62.7091 34.6778C63.0249 35.4396 63.4183 36.3536 63.7705 37.1714C64.823 39.614 65.5177 41.2518 65.5865 41.7343C65.5889 41.7489 65.5913 41.7602 65.5938 41.7683C65.8553 41.7756 66.7572 41.1198 67.5247 40.3531C67.5984 40.2795 67.7044 40.2511 67.8048 40.277C67.9052 40.3037 67.9837 40.3815 68.0113 40.4811C68.0185 40.5086 68.7796 43.2596 69.0832 45.3824C69.1787 46.0488 69.7706 50.7898 70.4506 56.4385C70.5283 56.4385 70.6061 56.4377 70.6822 56.4377L70.683 56.4369ZM59.584 30.7592C60.039 31.0191 60.2544 31.7874 60.4155 32.5954C60.5021 33.0286 61.0429 34.3126 61.7271 35.9383C63.3746 39.852 66.133 46.4026 67.4081 52.354C67.6477 53.4737 67.8704 54.9035 68.0736 56.5308C68.6978 56.4936 69.2985 56.4636 69.8669 56.4482C69.2192 51.0513 68.6509 46.4706 68.5067 45.4634C68.2833 43.9008 67.8056 41.9837 67.5773 41.1101C66.9377 41.7019 65.9411 42.5018 65.3889 42.3181C65.2683 42.2776 65.0594 42.1594 65.01 41.8153C64.9469 41.3741 64.0377 39.2634 63.2362 37.4005C62.7698 36.3172 62.3286 35.2939 62.008 34.4996C61.4664 33.1597 61.4235 32.9339 61.6809 32.7735C61.791 32.7047 61.9659 32.6748 62.1756 32.9193C62.4023 33.1832 62.7229 33.6568 63.1293 34.2559C63.7608 35.187 64.5461 36.3456 65.3039 37.1884C66.0666 38.0368 66.6552 38.3914 66.962 38.1874C67.5911 37.7672 67.9311 36.3512 68.1789 35.3173C68.2987 34.817 68.3942 34.4324 68.497 34.1499C68.4015 34.0754 68.3222 33.9904 68.2631 33.8924C68.1732 33.7427 68.093 33.4941 68.2185 33.1589C68.548 32.2821 68.9496 31.5656 69.1633 31.211C68.748 30.9147 68.2744 30.5787 67.8056 30.2476C66.809 29.6727 65.9775 29.0995 65.5727 28.7765C65.2796 28.5425 65.0683 28.3733 65.2497 28.1337C65.4197 27.9086 65.6553 28.0592 65.8269 28.1693C65.9379 28.2405 66.0973 28.3466 66.3006 28.4858C66.6414 28.7182 67.1126 29.0469 67.702 29.4614C67.8696 29.5788 68.0364 29.697 68.1999 29.812C70.0742 30.8701 72.282 31.7567 73.2349 31.3227C73.9344 31.0054 75.0193 29.021 75.8726 26.4974C76.8207 23.697 77.3048 20.8909 77.1688 18.9915C76.8619 14.6925 76.245 14.3354 74.506 13.9347C73.4146 13.6829 72.2909 13.2546 71.4853 12.913C71.5477 13.0773 71.5857 13.2579 71.5825 13.4522C71.5695 14.1096 71.0902 14.7208 70.1592 15.2689C68.9609 15.9741 67.9003 16.3854 67.0486 16.7165C66.1224 17.076 65.4537 17.3359 65.2562 17.7318C65.0772 18.0896 65.0586 18.9567 65.044 19.6538C65.0214 20.7468 64.9971 21.2366 64.67 21.3961C64.602 21.4293 64.4223 21.4884 64.2126 21.3313C63.994 21.167 63.7827 20.814 63.5155 20.3662C63.1625 19.776 62.6298 18.8838 62.1942 18.8547C62.0671 18.8458 61.9319 18.9211 61.7894 19.0782C61.6639 19.8351 61.5481 20.5889 61.4372 21.3103C61.4113 21.4803 61.3854 21.6495 61.3595 21.8163C61.4834 22.7732 61.7497 23.701 61.9262 24.1925C61.9635 24.2953 61.9392 24.4103 61.8647 24.4904C61.7902 24.5706 61.6769 24.6013 61.5716 24.5714C61.536 24.5617 61.2972 24.4896 60.9482 24.3018C60.7361 25.4401 60.511 26.3468 60.2366 26.861C59.6682 27.9256 59.6237 29.4485 59.5881 30.6718C59.5873 30.7009 59.5864 30.7301 59.5856 30.7592H59.584ZM128.358 41.0996C127.435 43.7114 126.607 46.4349 126.851 47.9611C127.139 49.76 128.144 52.5993 129.079 55.1917C128.374 52.2828 127.86 49.2475 127.793 47.5619C127.726 45.8698 127.888 43.4378 128.359 41.0996H128.358ZM111.321 39.9686C111.113 40.3774 110.893 41.8906 110.893 42.3059C110.902 42.4865 111.217 44.2053 111.522 45.8674C112.406 50.6846 112.526 51.4659 112.481 51.6496C112.439 51.8172 112.299 51.9039 112.041 51.9646C113.571 51.9346 115.085 51.9103 116.523 51.8917C116.335 51.7411 116.239 51.5088 116.239 51.1995C116.239 50.8125 116.324 49.7746 116.442 48.3391C116.701 45.1954 117.089 40.4721 117.004 37.5324C116.699 39.7654 116.314 41.2672 115.697 41.7068C115.511 41.8396 115.302 41.8817 115.092 41.8291C114.107 41.5829 113.135 40.9968 112.354 40.5264C111.977 40.2997 111.518 40.0228 111.321 39.9694L111.321 39.9686ZM117.443 33.4415C117.472 34.0811 117.498 34.8502 117.528 35.7724C117.544 36.2735 117.561 36.803 117.581 37.3551C117.687 40.3159 117.287 45.1728 117.024 48.3869C116.911 49.7552 116.822 50.836 116.822 51.1995C116.822 51.2869 116.834 51.3995 116.893 51.4408C117.1 51.5889 117.823 51.342 118.303 51.1785C118.63 51.0667 118.938 50.9615 119.201 50.9153C119.42 50.7793 120.117 49.6175 121.388 46.0755C122.322 43.4758 123.017 41.1077 123.082 40.5264C123.148 39.9265 122.522 39.5735 121.56 39.1031C121.007 38.8335 120.436 38.5542 120.107 38.1599C119.884 37.8919 119.898 37.6328 119.949 37.462C120.157 36.7698 121.464 36.2314 122.16 35.9893C121.579 35.102 119.896 32.5566 118.613 30.9017C118.283 30.5479 118.028 30.2605 117.887 30.0994C117.842 30.0476 117.802 30.0006 117.764 29.9569C117.687 30.6815 117.611 31.5365 117.53 32.4529C117.5 32.7889 117.471 33.1184 117.442 33.4407L117.443 33.4415ZM75.2605 47.9424C75.3059 48.4355 75.4548 49.2257 75.7139 50.1964C75.5407 48.9828 75.3836 48.3124 75.2605 47.9424ZM99.8881 44.7299C100.047 45.0222 100.215 45.3298 100.393 45.6529C101.343 47.3733 102.312 49.0524 102.955 50.1527C102.701 48.3238 102.304 45.1938 102.253 43.1495C102.251 43.05 102.248 42.9439 102.247 42.833C101.664 43.4191 100.822 44.0692 99.8881 44.7299ZM91.9782 35.8881C91.86 35.8881 91.6916 35.9335 91.4544 36.0889C90.6869 36.5909 88.3973 42.1043 86.3619 48.8484C86.7716 48.582 87.212 48.2995 87.6606 48.0129C88.3431 47.5757 89.143 47.064 89.8246 46.6041C89.7834 46.4835 89.7728 46.3758 89.7923 46.2779C89.9339 45.5703 91.4965 44.2854 92.2098 43.73C93.1797 41.7748 94.5714 38.997 95.3446 38.2239C95.6215 37.947 95.8878 37.8498 96.1348 37.9364C96.474 38.0546 96.6327 38.47 96.7355 39.0262C96.7517 38.9031 96.7994 38.8286 96.8545 38.7671C97.2229 38.3574 98.0406 38.0312 98.8316 37.7162C99.1943 37.5713 99.663 37.3843 99.8954 37.2475C99.7132 37.1762 99.4096 37.1009 99.1886 37.0451C98.4421 36.8588 97.6698 36.6662 97.439 36.1464C97.3694 35.9893 97.3233 35.7335 97.4981 35.4048C97.8009 34.8372 98.6259 33.9928 99.3473 33.3022C98.4673 33.5832 97.2464 33.9191 95.8012 34.311C94.6086 34.634 93.2655 34.9976 92.9619 35.1392C92.923 35.2607 92.8874 35.5092 92.8566 35.8339C93.5359 36.8961 93.3108 39.2593 93.0169 40.1904C92.9756 40.3216 92.8898 40.5936 92.6356 40.6082C92.583 40.6114 92.4008 40.6041 92.3037 40.3871C92.1142 39.9653 92.1596 38.0636 92.1782 37.4912C92.1984 36.8637 92.226 36.382 92.2575 36.0112C92.2413 35.995 92.2243 35.9804 92.2065 35.9675C92.1733 35.9424 92.1045 35.8906 91.9782 35.8906V35.8881ZM92.919 43.6118C92.9222 43.6175 92.9246 43.6232 92.9279 43.6296C92.9327 43.641 93.4436 44.7647 93.9277 45.8868C94.2127 46.5483 94.4338 47.0802 94.5844 47.4688C94.6046 47.5206 94.6232 47.5708 94.6418 47.6178C95.0531 47.2753 95.7899 46.7766 97.0512 45.9435C97.7006 45.5144 98.4251 45.0351 99.1287 44.5477C98.4875 43.3536 97.971 42.3407 97.5856 41.5238C97.2439 41.6291 96.9824 41.6509 96.7889 41.5732C96.6456 41.5157 96.5396 41.4032 96.491 41.2583C96.393 40.9644 96.342 40.5207 96.2878 40.0503C96.2343 39.5889 96.125 38.6376 95.9493 38.4918C95.9259 38.4999 95.8643 38.5291 95.7575 38.6359C95.0984 39.295 93.8233 41.7975 92.9198 43.6118H92.919ZM91.5613 45.0286C91.0836 45.4553 90.6828 45.8625 90.4877 46.1459C90.9403 45.8229 91.2666 45.5614 91.3483 45.4245C91.3961 45.3452 91.469 45.2084 91.5613 45.0286ZM98.1313 41.3174C98.4697 42.0315 98.9441 42.9722 99.608 44.2109C100.751 43.3981 101.775 42.586 102.24 41.9618C102.24 41.183 102.253 40.2592 102.273 39.282C101.591 39.554 100.751 39.9937 99.9796 40.3985C99.2315 40.7903 98.6219 41.1061 98.1305 41.3174H98.1313ZM97.0326 41.0397C97.0998 41.0518 97.2059 41.0332 97.3411 40.9935C97.0812 40.4106 96.9209 39.9896 96.8302 39.6795C96.8424 39.7791 96.8537 39.8803 96.8658 39.984C96.912 40.3847 96.9597 40.7984 97.0326 41.0405V41.0397ZM102.86 39.0829C102.846 39.6998 102.837 40.2973 102.83 40.8543C102.938 40.6527 103.043 40.4624 103.144 40.2827C103.21 40.1621 103.284 40.0301 103.354 39.8981C103.234 39.6277 103.111 39.3435 102.99 39.0521C102.948 39.061 102.905 39.0707 102.86 39.0829ZM45.296 33.1411C45.296 33.1808 45.296 33.2221 45.296 33.2609C45.296 34.2398 46.8043 38.2935 48.3976 39.8147C48.7304 40.1329 49 40.4252 49.2161 40.6762C49.2121 40.6584 49.208 40.6397 49.204 40.6219C49.0793 40.0592 48.8818 39.6617 48.7085 39.3112C48.2122 38.3105 48.0292 37.7098 49.6598 36.0233C49.8339 35.8436 50.0152 35.6307 50.2006 35.3894C50.1326 35.4283 50.0622 35.4606 49.9877 35.4866C49.3853 35.6979 48.6429 35.4696 47.5054 34.7215C46.6108 34.1337 46.0133 33.6811 45.6182 33.3816C45.5032 33.2941 45.3907 33.2091 45.2968 33.1419L45.296 33.1411ZM30.4874 37.3964C30.7213 38.1842 31.0614 38.7647 31.5026 39.1136C33.0263 40.3167 37.0922 40.3135 40.2254 39.801C41.9733 39.5152 42.855 39.1751 43.1351 38.9914C42.6356 38.7962 41.1192 38.9412 39.7696 39.0699C36.7117 39.3622 32.9057 39.7257 32.2604 37.6822C31.8127 36.2638 31.7568 35.0291 31.7528 34.2357C31.4306 34.9004 30.9513 36.0298 30.4874 37.3972V37.3964ZM103.615 39.0294C103.637 39.0812 103.658 39.1314 103.68 39.1824C103.695 39.1274 103.699 39.0845 103.691 39.0553C103.683 39.0505 103.661 39.0391 103.615 39.0294ZM104.045 29.0914C104.101 29.2736 104.565 30.7374 105.544 32.8326C106.607 35.1109 108.998 37.9219 109.395 38.1866C109.71 38.3121 111.5 37.411 112.808 35.812C113.541 34.9166 114.341 33.6293 114.983 32.5954C115.564 31.6611 116.023 30.9228 116.324 30.6216C116.534 30.4111 116.73 30.4451 116.828 30.484C116.937 30.5269 117.025 30.6119 117.098 30.7576C117.212 29.5553 117.325 28.5725 117.463 28.0203C117.58 27.5532 117.668 26.7006 117.733 25.6093C116.833 27.9385 115.48 30.3803 113.718 31.6336C112.536 32.474 111.302 32.6788 110.05 32.2433C106.911 31.1511 104.781 28.3555 103.616 26.3906C103.841 27.728 104.02 28.9166 104.045 29.0906L104.045 29.0914ZM102.561 31.6433C102.366 32.2003 102.18 32.9986 102.151 33.954C102.138 34.3944 102.226 34.9474 102.381 35.557C102.438 33.9718 102.503 32.5379 102.561 31.6441V31.6433ZM174.165 30.6864C174.47 31.2312 174.926 31.9526 175.488 32.8416C175.93 33.5411 176.422 34.3183 176.936 35.1611C176.694 34.1556 176.132 33.1832 175.733 32.5817C175.16 31.717 174.572 31.0661 174.164 30.6872L174.165 30.6864ZM152.764 26.8189C152.553 27.1467 152.364 27.4924 152.221 27.8414C152.003 28.3709 151.82 29.1044 152.184 29.5902C152.907 30.5536 154.961 33.2925 156.689 33.8568C157.301 32.9711 157.975 31.9858 158.617 31.0475C159.599 29.6128 160.526 28.2575 161.195 27.3087C161.298 27.1362 162.839 24.526 162.909 23.1367C162.923 22.8679 162.929 22.5279 162.936 22.1336C162.969 20.329 163.025 17.3083 163.91 14.401C164.932 11.0403 163.335 5.9924 160.421 3.37735C159.015 2.11598 155.627 1.11449 151.989 0.886177C147.896 0.62872 144.544 1.37113 142.794 2.92235C141.709 3.88498 141.22 4.65897 141.34 5.22408C141.45 5.73818 142.079 6.11789 142.86 6.43283C143.357 5.87339 143.976 5.32852 144.733 4.84356C146.521 3.69634 149.746 2.48921 154.956 3.25186C158.147 3.71901 160.426 5.09292 161.73 7.33555C163.711 10.7408 162.839 15.2114 162.103 17.0995C161.348 19.0336 159.339 19.8635 158.208 20.1865C156.678 20.6229 155.089 20.6253 154.512 20.1922C153.986 19.7971 154.096 18.9956 154.222 18.0661C154.377 16.9311 154.57 15.5191 153.762 14.3468C153.522 13.9978 153.342 13.8877 153.255 13.9007C152.913 13.9517 152.513 15.2195 152.274 15.9765C152.008 16.8185 151.758 17.6144 151.41 18.0192C151.281 18.1698 151.013 18.4839 150.705 18.3697C150.378 18.2491 150.376 17.8508 150.373 17.1262C150.371 16.5271 150.367 15.7069 150.151 15.0293C149.946 14.3865 149.569 14.244 148.998 14.0294C148.294 13.7647 147.419 13.436 146.676 12.0378C146.027 10.8169 146.259 9.96597 146.429 9.345C146.612 8.67707 146.68 8.4269 145.607 7.99133C145.191 7.82212 144.707 7.66991 144.197 7.50799C143.806 7.38412 143.411 7.26025 143.036 7.12424C142.333 8.00428 141.951 8.89486 141.824 9.59679C141.636 10.6299 141.885 14.5897 142.555 18.8385C143.338 23.7982 144.398 27.3087 145.464 28.4688C145.728 28.7554 145.983 28.8882 146.221 28.8664C147.563 28.7384 149.576 27.9766 151.608 26.8278C151.872 26.678 152.119 26.5322 152.348 26.3914C152.353 26.3825 152.36 26.3736 152.366 26.3647C152.963 25.4733 154.344 23.8775 154.981 24.0427C155.15 24.0864 155.265 24.2305 155.28 24.4184C155.336 25.0879 153.822 26.1566 152.762 26.818L152.764 26.8189ZM58.9768 31.398C58.8675 31.4936 58.7242 31.6506 58.5445 31.9081C58.3874 32.1323 58.2571 32.4797 58.1502 32.9063C58.3251 32.8634 58.4692 32.8335 58.5736 32.8205C58.8505 32.7857 58.9379 32.1396 58.9768 31.3988V31.398ZM166.119 27.3176C165.548 28.3247 164.691 30.0095 163.69 32.1364C165.195 30.2233 166.378 28.7101 166.57 28.4429C166.574 28.277 166.399 27.86 166.12 27.3176H166.119ZM103.282 24.5017C104.386 26.8796 106.766 30.4848 110.241 31.6935C111.304 32.0635 112.361 31.8838 113.38 31.1592C115.501 29.6517 117.028 26.2003 117.822 23.5343C117.889 21.2827 117.896 18.5802 117.869 16.1668C117.857 16.1036 117.846 16.0397 117.834 15.9749C117.632 14.8463 117.422 13.6789 117.236 12.9632C116.948 11.8532 116.878 10.7092 116.841 9.96597C116.133 10.7222 114.547 11.6653 111.618 11.9641C108.71 12.2612 105.806 10.761 104.41 10.0396C104.31 9.98783 104.21 9.93602 104.115 9.88825C104.118 9.89311 104.12 9.89797 104.122 9.90282C104.563 10.7707 105.383 12.3875 104.45 13.6691C103.859 14.4828 103.285 14.8536 102.824 15.1515C102.323 15.4754 102.02 15.6713 101.918 16.2826C101.703 17.5723 102.437 20.3112 102.444 20.3387C102.483 20.482 102.408 20.631 102.27 20.686C102.132 20.7403 101.975 20.6828 101.906 20.5516C101.534 19.8521 101.11 19.1907 100.772 18.76C101.086 19.7428 101.4 20.4804 101.66 21.0892C101.821 21.4689 101.96 21.7952 102.061 22.094C102.143 21.9296 102.287 21.8843 102.401 21.8972C102.649 21.9264 102.774 22.1231 103.023 23.2298C103.101 23.5764 103.187 24.0014 103.282 24.5017ZM61.0567 23.6881C61.0972 23.7124 61.1368 23.7358 61.1749 23.7569C61.149 23.667 61.1223 23.5699 61.0939 23.4662C61.081 23.5407 61.0688 23.6144 61.0559 23.6881H61.0567ZM63.4774 7.80512C62.9933 7.80512 62.4079 7.85936 61.7101 8.00671C60.4382 8.27469 59.2966 9.54417 58.5793 11.4897C57.8458 13.4781 57.6296 15.9668 57.9858 18.3195C58.3631 20.8091 59.3622 22.2235 60.1346 22.9724C60.2689 23.1027 60.4009 23.2177 60.528 23.3189C60.6082 22.8396 60.6883 22.3344 60.7685 21.8171C60.6373 20.7419 60.677 19.5736 61.2389 18.8296C61.8048 15.4422 62.5367 12.1851 63.9057 11.1383C65.6189 9.82834 69.556 10.7788 72.7192 11.5431C74.3821 11.9447 76.1009 12.36 76.5923 12.1633C76.6523 12.139 76.6709 12.1244 76.6603 12.037C76.5219 10.927 71.9913 7.17443 67.9967 6.64171C65.8731 6.35915 65.4934 6.75101 65.4278 6.87811C65.295 7.13476 65.6318 7.62862 65.8156 7.82698C65.9208 7.94032 65.9192 8.11601 65.8124 8.22693C65.7055 8.33784 65.5298 8.34675 65.4132 8.24636C65.4076 8.24231 64.8497 7.80512 63.4782 7.80512H63.4774ZM100.245 19.0231C100.358 20.3233 101.197 22.2729 101.655 22.953C101.632 22.5101 101.421 22.0138 101.124 21.3183C100.867 20.7144 100.557 19.9857 100.245 19.0231ZM153.272 13.317C153.76 13.317 154.12 13.8375 154.243 14.0165C155.18 15.3742 154.96 16.9756 154.801 18.1455C154.703 18.8612 154.611 19.5372 154.862 19.7258C155.182 19.9655 156.501 20.0675 158.049 19.6263C159.076 19.3332 160.897 18.5883 161.561 16.8882C162.263 15.0908 163.096 10.842 161.228 7.62862C160.017 5.54711 157.879 4.26793 154.873 3.82831C150.89 3.24539 147.493 3.76597 145.048 5.33418C144.414 5.74061 143.885 6.18913 143.448 6.65061C143.754 6.75586 144.068 6.85545 144.373 6.95179C144.896 7.11695 145.39 7.2732 145.828 7.45051C147.273 8.03748 147.228 8.64226 146.994 9.49802C146.833 10.0834 146.652 10.7472 147.192 11.7633C147.832 12.9672 148.561 13.2409 149.204 13.4829C149.801 13.7072 150.418 13.9395 150.708 14.852C150.951 15.6154 150.955 16.4874 150.958 17.1238C150.958 17.2946 150.959 17.4889 150.967 17.6427C150.968 17.6419 150.969 17.6403 150.97 17.6395C151.239 17.3253 151.484 16.5505 151.72 15.8008C152.122 14.5281 152.468 13.4287 153.169 13.3234C153.204 13.3186 153.239 13.3153 153.272 13.3153V13.317ZM118.936 18.5964C118.956 18.6847 118.976 18.7681 118.997 18.845C119.202 17.7723 119.195 15.9393 118.72 15.341C118.676 15.7733 118.77 16.7805 118.842 17.5488C118.874 17.8856 118.907 18.2394 118.936 18.5964ZM100.469 17.7229C100.758 17.8346 101.086 18.169 101.502 18.7665C101.347 17.8945 101.229 16.8776 101.344 16.1862C101.488 15.3199 101.961 15.0147 102.509 14.6609C102.951 14.3751 103.453 14.0513 103.98 13.3259C104.703 12.3325 104.015 10.9764 103.603 10.1659C103.37 9.70528 103.253 9.47454 103.382 9.26404C103.446 9.16041 103.556 9.10131 103.684 9.10131C103.856 9.10131 104.074 9.20899 104.678 9.5215C106.023 10.2161 108.823 11.6629 111.559 11.3836C115.219 11.0104 116.539 9.60246 116.713 9.13855C116.769 8.98877 116.881 8.81713 117.095 8.85033C117.347 8.89 117.373 9.16203 117.386 9.29319C117.398 9.41382 117.406 9.57817 117.415 9.78624C117.449 10.4971 117.507 11.6864 117.799 12.8166C117.801 12.8223 117.802 12.828 117.803 12.8336C117.769 11.6362 117.727 10.693 117.683 10.1781C117.438 7.32502 115.731 5.15526 112.606 3.72953C110.763 2.88835 108.18 3.19357 106.338 3.59757C104.109 4.08657 102.098 4.90752 101.171 5.46291C100.788 5.69284 100.572 5.92115 100.595 6.07336C100.619 6.23528 100.872 6.41906 101.201 6.5737C101.602 6.61661 101.919 6.75181 102.056 6.85626C102.213 6.97608 102.212 7.138 102.162 7.24001C102.113 7.34283 101.985 7.44484 101.787 7.39546C101.636 7.3574 101.351 7.27806 101.052 7.14852C100.704 7.12424 100.264 7.1971 99.8436 7.56062C98.749 8.50948 99.3157 12.2256 100.091 16.1012C100.21 16.6979 100.337 17.2355 100.467 17.7229H100.469Z" fill="#00399F"/>
</g>
<defs>
<clipPath id="clip0_1_2218">
<rect width="209.41" height="115.674" fill="white" transform="translate(0.925781 0.253662)"/>
</clipPath>
</defs>
</svg>
