<svg width="237" height="120" viewBox="0 0 237 120" fill="none" xmlns="http://www.w3.org/2000/svg">
<g clip-path="url(#clip0_1_2062)">
<path d="M12.114 56.6302C3.15555 56.9603 6.42383 57.6508 12.9533 57.794C33.3593 57.5521 53.7737 58.0323 74.1754 57.868C75.4286 57.7862 76.6798 57.6494 77.9218 57.4597C75.7439 57.1049 73.5209 56.9145 71.3091 56.9159C51.5767 56.8954 31.8443 56.9152 12.114 56.6302Z" fill="#00399F"/>
<path d="M164.075 57.2424C148.918 58.7122 187.097 58.3483 189.838 58.3666C205.517 58.0273 221.297 59.2425 236.926 58.0563C235.183 57.772 233.411 57.5985 231.642 57.5329C209.121 57.5471 186.592 57.308 164.074 57.2431L164.075 57.2424Z" fill="#00399F"/>
<path d="M120.193 29.1926C127.285 32.9468 135.027 35.3286 142.387 38.5052C148.844 40.8629 154.948 44.3181 161.629 45.9833C155.613 42.5048 148.777 40.7191 142.446 37.8902C135.008 35.0683 127.839 31.4072 120.193 29.1926Z" fill="#00399F"/>
<path d="M117.914 28.2821C111.551 29.766 105.797 33.1076 99.6765 35.3314C91.831 38.7231 83.63 41.3658 76.0129 45.2505C81.177 43.8484 86.0096 41.4243 90.9987 39.5109C98.5728 36.4182 106.18 33.4095 113.802 30.4396C113.766 30.4551 113.73 30.4706 113.694 30.4861C115.166 29.8866 116.581 29.139 117.914 28.2828V28.2821Z" fill="#00399F"/>
<path d="M159.985 46.5158C138.576 46.8437 117.163 46.6723 95.7512 46.7055C93.9203 46.7372 66.7303 46.4417 74.1498 47.4757C102.71 48.0004 131.317 46.9728 159.892 47.3889C168.441 47.4101 169.287 46.4826 159.985 46.5165V46.5158Z" fill="#00399F"/>
<path d="M87.5857 35.6213C85.2773 35.823 81.9773 35.0232 80.2726 36.3999C80.2726 36.3999 80.2726 36.3999 80.2719 36.3999C80.2733 36.3999 80.274 36.3999 80.2754 36.3985C80.3114 36.3872 80.3481 36.3767 80.384 36.3654C80.3812 36.3661 80.3791 36.3668 80.3763 36.3682C82.3772 35.804 84.4415 36.5875 86.4805 36.5128C90.3998 36.67 94.288 36.6616 98.1776 36.1806C94.769 35.2115 91.0973 35.6396 87.5857 35.6199V35.6213ZM97.5062 36.1989C97.5062 36.1989 97.5005 36.1989 97.4977 36.1989C97.5005 36.1989 97.5034 36.1989 97.5062 36.1989ZM80.2747 36.3999C80.2747 36.3999 80.2733 36.3999 80.2726 36.3999C80.2733 36.3999 80.274 36.3999 80.2747 36.3992V36.3999Z" fill="#00399F"/>
<path d="M80.4406 36.1763C79.3833 38.6018 79.7868 41.1965 80.0146 43.7405C80.8115 41.3115 80.6846 38.6871 80.4406 36.1763Z" fill="#00399F"/>
<path d="M66.0184 39.3148C64.9845 42.0471 65.699 44.9535 65.9119 47.7585C66.5326 44.9937 66.4268 42.1042 66.0184 39.3148Z" fill="#00399F"/>
<path d="M65.9174 38.3324C65.1507 38.3218 63.4496 38.6977 64.9462 39.3783C65.6098 39.999 65.5062 39.695 65.1027 39.0793C67.1304 39.3015 69.1899 39.1054 71.1259 38.4713C69.972 38.4495 68.8175 38.4079 67.6636 38.3599C67.6975 38.3627 67.7313 38.3649 67.7652 38.3677C67.1495 38.3197 66.5338 38.2993 65.9174 38.3324Z" fill="#00399F"/>
<path d="M70.463 39.1872C69.7331 41.5993 69.9341 44.0163 70.5448 46.4213C70.7219 44.0395 71.016 41.5287 70.463 39.1872Z" fill="#00399F"/>
<path d="M66.3088 35.2835C65.3948 35.8456 66.4647 37.0862 66.3617 37.9255C66.9153 37.2689 66.0761 35.3315 67.3505 36.2046C67.8696 36.5502 67.8837 37.2576 68.1341 37.7774C68.4698 36.5565 67.8047 34.8773 66.3095 35.2828L66.3088 35.2835ZM66.6057 35.9077L66.5944 35.9176C66.5966 35.9126 66.6022 35.9105 66.6057 35.9077ZM66.5542 35.9634C66.5542 35.9634 66.5542 35.9641 66.5535 35.9648C66.5535 35.9648 66.5535 35.9641 66.5542 35.9634Z" fill="#00399F"/>
<path d="M74.6692 45.5009C73.4914 45.6208 72.3298 45.9304 71.1844 46.204C71.9327 46.2844 72.6824 46.3394 73.4349 46.3578C75.0352 46.4763 76.5826 46.063 78.1547 45.8563C77.0516 45.4212 75.8385 45.4233 74.6685 45.5016L74.6692 45.5009Z" fill="#00399F"/>
<path d="M62.2531 45.7053C61.5471 45.8937 59.4531 45.6602 59.2352 46.3669C59.3036 47.1053 59.3741 47.6301 59.5603 46.5947C60.0512 46.1948 61.1655 46.7301 61.868 46.6088C63.2701 46.654 64.6369 46.2971 65.9692 45.8972C64.7505 45.6694 63.4915 45.6574 62.2531 45.7061V45.7053Z" fill="#00399F"/>
<path d="M58.3194 47.6506C49.0386 48.2677 39.743 48.3608 30.4474 48.3072C27.3385 48.3488 24.2395 48.6196 21.1419 48.8658C16.7381 49.2205 12.3195 49.3665 7.92065 49.7812C15.9439 49.942 23.9447 48.693 31.975 48.784C42.7052 49.009 53.4967 49.4067 64.1824 48.248C62.2923 47.6598 60.2886 47.6019 58.3194 47.6506Z" fill="#00399F"/>
<path d="M160.958 47.8536C159.786 50.4399 155.912 51.9556 159.174 55.0736C157.253 52.208 161.189 50.5781 160.958 47.8536Z" fill="#00399F"/>
<path d="M73 48.2092C74.1722 50.7954 78.0463 52.3111 74.7844 55.4291C76.7049 52.5636 72.7694 50.9337 73 48.2092Z" fill="#00399F"/>
<path d="M150.878 33.5076C146.634 33.8433 142.366 33.3214 138.14 33.8045C132.945 34.1078 142.657 34.904 144.211 34.6995C148.769 34.4667 153.341 34.2319 157.874 33.7213C155.565 33.3933 153.206 33.4913 150.878 33.5076ZM146.298 33.6592C146.267 33.6606 146.235 33.6613 146.204 33.6627C146.235 33.6613 146.267 33.6599 146.298 33.6592Z" fill="#00399F"/>
<path d="M157.09 33.8757C155.452 37.0283 155.188 40.8228 156.84 44.0205C156.371 40.638 156.957 37.254 157.09 33.8757Z" fill="#00399F"/>
<path d="M167.831 39.6915C168.26 42.0161 168.12 44.3661 168.319 46.7055C169.379 44.4035 169.16 41.8334 167.831 39.6915Z" fill="#00399F"/>
<path d="M169.269 38.5101C164.295 38.7887 171.06 39.6217 172.672 38.8564C174.82 38.4749 170.102 38.3783 169.269 38.5101Z" fill="#00399F"/>
<path d="M173.897 38.8839C172.785 40.8665 172.573 43.5155 173.299 45.6596C173.462 43.4055 173.964 41.1676 173.897 38.8839Z" fill="#00399F"/>
<path d="M169.524 35.9266C169.173 36.5875 169.666 37.4437 169.775 38.1391C169.984 38.1328 169.985 36.8548 170.016 36.4091C170.575 36.4415 173.227 35.8053 171.908 35.7941C171.134 35.8723 170.207 35.4746 169.524 35.9266Z" fill="#00399F"/>
<path d="M172.561 35.8441C172.263 36.6086 172.234 37.4508 172.412 38.2435C172.684 37.4747 172.767 36.6347 172.561 35.8441Z" fill="#00399F"/>
<path d="M176.527 46.1589C176.573 46.1589 176.618 46.1589 176.664 46.1582C172.582 46.2555 168.514 46.4305 164.481 47.104C161.586 47.4672 169.159 47.5385 170.258 47.4179C173.934 47.5667 177.586 47.274 181.148 46.3352C179.627 46.1032 178.067 46.1392 176.527 46.1589Z" fill="#00399F"/>
<path d="M224.414 47.6323C213.952 47.9729 203.484 47.6224 193.02 47.9341C186.199 47.7684 179.361 47.8361 172.568 48.5167C171.197 48.7579 169.834 49.0506 168.488 49.4068C170.466 49.3172 172.442 49.0238 174.425 48.9399C181.195 48.3714 187.979 48.5675 194.761 48.6408C203.87 48.4913 212.98 48.7502 222.089 48.796C225.019 48.7523 228.012 48.7685 230.849 47.9673C228.707 47.8107 226.566 47.5343 224.414 47.6323Z" fill="#00399F"/>
<path d="M231.866 48.4736C225.842 52.3492 234.329 58.8575 232.312 56.1753C232.32 56.1887 232.327 56.2021 232.335 56.2155C230.71 53.9255 229.966 50.8349 231.866 48.4743V48.4736Z" fill="#00399F"/>
<path d="M198.11 68.2582C197.692 71.8946 198.021 75.56 197.791 79.195C198.702 80.8778 201.656 79.08 203.138 79.0187C201.755 78.7154 200.034 79.2902 198.812 78.7168C198.822 75.2313 199.122 71.6379 198.11 68.2582ZM198.825 78.8043C198.83 78.8078 198.834 78.8113 198.837 78.8148C198.833 78.8113 198.829 78.8078 198.825 78.8043Z" fill="#00399F"/>
<path d="M202.27 67.9204C201.277 68.0255 200.247 67.8612 199.284 68.1821C198.646 68.4374 198.155 68.649 199.142 68.4818C200.206 68.4917 201.401 68.6723 202.379 68.9367C202.748 70.8262 202.705 72.7833 202.865 74.6996C202.864 74.682 202.863 74.665 202.862 74.6474C202.862 74.6538 202.863 74.6608 202.863 74.6672C202.863 74.658 202.862 74.6481 202.861 74.6389C202.999 76.3866 203.27 78.1202 203.241 79.8785C203.455 79.1224 203.589 78.3332 203.706 77.5525C203.667 76.0199 204.672 67.3089 202.271 67.9197L202.27 67.9204ZM202.321 68.8394C202.327 68.8429 202.335 68.8443 202.341 68.8486C202.334 68.8458 202.328 68.8422 202.321 68.8394ZM202.866 74.7158C202.866 74.7158 202.866 74.7158 202.866 74.7165C202.866 74.7165 202.866 74.7158 202.866 74.7151V74.7158ZM202.865 74.6954C202.865 74.7024 202.865 74.7088 202.866 74.7158C202.865 74.6996 202.864 74.6841 202.863 74.6686C202.863 74.6777 202.864 74.6869 202.865 74.6961V74.6954Z" fill="#00399F"/>
<path d="M181.196 68.2053C179.974 71.2592 180.575 74.6967 180.444 77.9121C180.41 80.32 184.052 78.4213 185.374 78.3078C184.145 78.2224 182.903 78.288 181.678 78.1674C181.063 78.0638 181.432 77.0771 181.359 76.6073C181.678 73.7982 181.137 71.0004 181.195 68.206L181.196 68.2053Z" fill="#00399F"/>
<path d="M184.853 67.8217C184.081 68.0128 180.395 67.8012 182.343 68.2117C184.741 68.8676 185.063 68.0622 184.846 70.958C184.948 73.4047 185.019 75.8774 185.515 78.2782C185.413 76.4832 187.124 67.9218 184.852 67.8217H184.853ZM184.729 68.5777C184.741 68.5862 184.751 68.5953 184.76 68.6052C184.75 68.5961 184.74 68.5869 184.729 68.5777ZM184.861 68.6722C184.87 68.6758 184.88 68.6807 184.889 68.6856C184.88 68.6814 184.87 68.6765 184.861 68.6722Z" fill="#00399F"/>
<path d="M216.487 68.5467C215.312 71.6986 216.252 75.1108 216.284 78.3536C216.346 80.7735 219.385 79.2761 220.74 78.8861C217.382 78.7789 217.303 79.8108 217.162 76.3062C216.956 73.7221 216.573 71.128 216.488 68.5467H216.487ZM216.489 69.5581C216.489 69.563 216.489 69.5672 216.49 69.5722C216.49 69.5672 216.49 69.563 216.489 69.5581Z" fill="#00399F"/>
<path d="M220.517 67.7096C219.626 67.6369 215.557 69.0059 217.944 68.6102C221.208 68.2985 220.483 68.6032 220.646 71.4483C220.736 73.9943 220.921 76.5242 221.231 79.054C221.231 79.0569 221.231 79.059 221.231 79.0618C221.231 79.0611 221.231 79.0604 221.231 79.0597C221.416 78.8093 222.794 66.6143 220.517 67.711V67.7096ZM220.49 68.4452C220.495 68.4522 220.5 68.4593 220.504 68.4663C220.499 68.4593 220.495 68.4522 220.49 68.4452ZM220.626 68.6018C220.626 68.6018 220.629 68.6046 220.631 68.6067C220.629 68.6053 220.627 68.6039 220.626 68.6018ZM221.231 79.0583C221.231 79.0583 221.231 79.0554 221.231 79.0533C221.231 79.0547 221.231 79.0569 221.231 79.0583Z" fill="#00399F"/>
<path d="M216.998 91.9275C215.651 94.9666 216.282 98.3851 216.802 101.543C217.332 98.3653 217.167 95.1245 216.998 91.9275ZM217.022 93.2083C217.023 93.2196 217.024 93.2316 217.025 93.2428C217.025 93.2316 217.024 93.2196 217.022 93.2083Z" fill="#00399F"/>
<path d="M221.3 90.2524C219.854 90.4358 217.828 89.8497 216.791 91.115C216.544 91.8527 216.649 91.5382 217.051 91.1333C217.62 90.8329 221.423 90.9112 221.1 91.7892C221.626 95.5547 220.549 99.486 222.091 103.084C221.292 100.961 223.691 90.1593 221.3 90.2524Z" fill="#00399F"/>
<path d="M198.405 92.0354C197.725 95.1429 198.254 98.311 199.096 101.332C199.295 98.22 199.261 95.0582 198.405 92.0354Z" fill="#00399F"/>
<path d="M203.422 91.0388C202.308 91.1065 201.179 91.0007 200.079 91.2236C199.701 91.3026 199.335 91.4605 199.006 91.6503C200.416 91.4232 201.816 91.8908 203.216 92.0262C203.264 92.9741 203.166 93.9283 203.25 94.8783C203.333 96.4709 203.609 98.0556 203.878 99.62C203.713 98.1565 205.422 90.7955 203.422 91.0388H203.422ZM203.309 92.0488C203.315 92.0502 203.318 92.0565 203.323 92.06C203.319 92.0565 203.314 92.0523 203.309 92.0488Z" fill="#00399F"/>
<path d="M180.194 90.6418C179.783 93.7253 180.256 96.7777 180.732 99.8189C180.957 98.8308 181.04 97.7983 181.106 96.7834C181.106 96.7961 181.105 96.8081 181.104 96.8208C181.106 96.7848 181.109 96.7488 181.111 96.7128C181.111 96.7206 181.11 96.7291 181.109 96.7368C181.295 94.6633 180.871 92.5912 180.194 90.6418Z" fill="#00399F"/>
<path d="M183.565 90.5282C182.541 90.548 181.536 90.7391 180.534 90.9373C181.893 91.1707 183.305 91.1742 184.647 91.5184C184.684 94.5829 184.892 97.6121 185.417 100.633C185.463 101.141 185.509 101.649 185.571 102.155C185.659 101.481 185.747 100.791 185.809 100.109C185.809 100.114 185.809 100.12 185.808 100.126C185.906 97.8377 185.781 95.5435 185.865 93.2527C185.919 91.2758 185.88 90.2489 183.566 90.5282H183.565ZM184.601 91.4035C184.608 91.4112 184.615 91.419 184.621 91.4267C184.614 91.419 184.608 91.4112 184.601 91.4035ZM185.805 100.164C185.806 100.151 185.807 100.138 185.808 100.125C185.807 100.138 185.806 100.15 185.805 100.164Z" fill="#00399F"/>
<path d="M163.415 91.1517C162.732 93.3959 163.014 95.767 163.845 97.9308C163.979 95.6676 163.972 93.3641 163.415 91.1517Z" fill="#00399F"/>
<path d="M166.079 91.1094C165.182 91.127 164.05 91.2829 163.813 92.3126C164.469 91.4451 166.551 91.7286 167.187 92.2928C167.311 93.1688 167.917 97.8258 168.084 96.5718C168.066 94.5899 169.435 90.4817 166.079 91.1087L166.079 91.1094ZM167.093 92.0354C167.099 92.0389 167.103 92.0418 167.108 92.046C167.103 92.0425 167.098 92.0389 167.093 92.0354ZM167.159 92.0925C167.163 92.0954 167.166 92.1017 167.17 92.1059C167.166 92.1017 167.163 92.0968 167.159 92.0925Z" fill="#00399F"/>
<path d="M151.992 54.5398C127.279 55.2874 102.538 55.2662 77.8284 55.456C74.5805 55.8601 74.9311 55.9151 78.023 56.2346C103.564 55.6936 129.137 55.5265 154.687 55.4009C154.652 55.4024 154.617 55.4038 154.583 55.4052C155.869 55.3473 157.15 55.1823 158.417 54.9566C156.302 54.6012 154.137 54.5405 151.992 54.5398H151.992Z" fill="#00399F"/>
<path d="M109.912 55.0695C110.938 56.3947 108.974 56.7255 107.978 56.5696C107.001 56.2536 106.049 55.7197 104.982 55.822C103.712 55.707 102.366 58.0387 101.819 55.9052C101.696 58.1142 103.273 57.3306 104.601 56.8729C105.96 56.7191 107.146 57.813 108.495 57.5358C109.737 57.4195 111.506 56.0844 109.912 55.0681V55.0695ZM110.254 55.9024C110.253 55.9102 110.251 55.9179 110.25 55.9257C110.25 55.9179 110.253 55.9102 110.254 55.9024ZM110.249 55.9264C110.249 55.9264 110.249 55.9306 110.248 55.9327C110.248 55.9306 110.249 55.9285 110.249 55.9264Z" fill="#00399F"/>
<path d="M81.3468 56.2466C80.4856 56.6408 78.4988 58.1762 78.4988 56.2706C77.6285 58.4245 80.5858 57.9174 81.6571 57.1973C82.7468 57.1924 84.7314 58.3173 85.0283 56.5999C84.0565 58.0041 82.6128 55.7853 81.3461 56.2466H81.3468Z" fill="#00399F"/>
<path d="M135.753 55.1971C135.795 55.2577 135.834 55.3198 135.873 55.3833C135.872 55.3812 135.871 55.3798 135.87 55.3776C136.359 56.1767 135.036 56.9878 134.341 56.7727C133.266 55.8509 131.905 55.1153 130.45 55.4841C129.019 55.8262 127.848 57.4392 126.334 57.2572C125.624 56.8432 125.731 54.8042 125.599 56.6415C126.057 59.6883 129.441 56.6478 131.062 56.4588C132.45 56.1894 133.391 57.5887 134.666 57.5407C135.611 57.3722 136.88 55.9207 135.753 55.1971ZM135.811 56.1922C135.808 56.1965 135.803 56.2 135.799 56.2042C135.803 56.2 135.807 56.1958 135.811 56.1922Z" fill="#00399F"/>
<path d="M158.133 54.2393C159.997 55.9066 157.703 57.095 156.432 55.4348C154.348 54.3395 153.333 55.2436 151.756 56.4927C150.96 56.7127 150.39 55.707 150.313 55.037C150.119 55.7938 150.478 56.7283 151.188 57.0851C152.883 57.5781 153.788 55.2909 155.7 56.2889C157.626 58.5422 161.228 55.8537 158.132 54.2393H158.133ZM158.811 55.7952C158.802 55.8079 158.792 55.8199 158.782 55.8311C158.792 55.8192 158.801 55.8072 158.811 55.7952Z" fill="#00399F"/>
<path d="M153.281 56.4327C153.021 69.496 153.683 82.5966 153.758 95.6768C153.752 96.3256 153.749 96.9752 153.772 97.624C153.991 96.6966 154.125 95.7367 154.205 94.7839C154.204 94.8029 154.201 94.8227 154.2 94.8417C154.66 87.9405 154.12 81.0182 154.211 74.1085C153.963 68.3069 155.136 61.9953 153.28 56.4327H153.281Z" fill="#00399F"/>
<path d="M156.946 57.0865C156.262 65.114 157.223 73.1472 157.382 81.1783C157.617 86.774 158.432 92.3577 158.169 97.9619C159.4 91.6771 157.78 85.2393 158.012 78.8889C157.997 74.5155 157.787 70.1455 157.824 65.7707C157.884 62.8586 157.805 59.8879 156.946 57.0858V57.0865Z" fill="#00399F"/>
<path d="M129.001 57.8221C128.054 67.1227 128.273 76.5128 128.005 85.855C128.256 91.9719 127.129 98.0902 127.82 104.185C128.39 95.4186 128.723 86.6484 128.961 77.8663C129.129 74.4654 129.248 71.0624 129.392 67.6601C129.571 64.3926 129.874 61.0128 129 57.8221H129.001ZM127.791 94.8664C127.791 94.8727 127.791 94.8784 127.789 94.8854C127.789 94.8791 127.79 94.8727 127.791 94.8664Z" fill="#00399F"/>
<path d="M132.985 57.4081C132.603 65.411 132.52 73.4279 132.819 81.447C132.803 88.9159 132.184 96.4229 132.766 103.872C133.261 93.422 133.551 82.9436 133.485 72.4807C133.342 67.4916 134.784 62.1956 132.985 57.4081ZM133.008 59.3949C133.008 59.402 133.007 59.4097 133.006 59.4168C133.006 59.4097 133.007 59.402 133.008 59.3949Z" fill="#00399F"/>
<path d="M104.075 58.9012C104.154 61.0263 103.715 63.152 103.911 65.2897C103.911 65.2798 103.91 65.2707 103.91 65.2608C104.271 77.4939 102.583 89.7439 103.535 101.956C104.051 93.9559 103.798 85.8945 104.565 77.8945C104.588 71.6118 105.928 65.0012 104.075 58.9012Z" fill="#00399F"/>
<path d="M107.783 57.6304C107.731 66.5719 108.153 75.5163 108.359 84.4579C108.754 89.9774 108.445 95.5527 109.128 101.044C109.379 93.3487 108.866 85.6505 108.917 77.9538C108.641 71.212 109.913 64.1408 107.783 57.6311V57.6304Z" fill="#00399F"/>
<path d="M80.2737 57.9294C79.1657 62.4651 79.9042 67.1813 79.6982 71.7952C79.5064 80.2142 79.3251 88.6663 79.7384 97.0754C79.9408 101.512 80.2864 94.5554 80.1517 93.0249C80.1524 93.0531 80.1531 93.0814 80.1538 93.1096C80.2928 87.6535 80.2215 82.1939 80.3704 76.7393C80.6419 70.4749 81.1229 64.1613 80.2737 57.9294Z" fill="#00399F"/>
<path d="M83.7579 57.7601C83.413 69.2379 84.9992 80.6987 84.655 92.1948C84.655 92.173 84.6543 92.1518 84.6536 92.1299C84.6536 92.1377 84.6536 92.1448 84.6536 92.1525C84.6536 92.1426 84.6536 92.1328 84.6536 92.1229C84.6995 95.1062 84.655 98.1418 85.5571 101.02C85.5437 100.729 85.519 100.43 85.4964 100.136C84.8377 91.1983 85.5677 82.2214 85.031 73.27C84.6995 68.113 85.2898 62.7507 83.7579 57.7601ZM85.294 97.646C85.294 97.6643 85.2947 97.6819 85.2954 97.6996C85.2954 97.6819 85.2947 97.6636 85.294 97.646Z" fill="#00399F"/>
<path d="M116.753 69.0193C116.735 69.082 116.717 69.1448 116.698 69.2069C116.698 69.2055 116.698 69.2047 116.699 69.2033C115.817 71.7452 115.782 74.4852 115.774 77.1462C116.313 78.4221 118.273 78.0003 119.402 77.9905C121.496 77.8409 116.714 77.6442 116.755 76.6688C116.754 76.704 116.753 76.7393 116.751 76.7745C116.933 74.1883 116.883 71.5992 116.753 69.0186L116.753 69.0193ZM116.699 69.204C116.699 69.204 116.7 69.2005 116.7 69.1984C116.7 69.2005 116.7 69.2019 116.699 69.204Z" fill="#00399F"/>
<path d="M120.622 68.2582C119.372 68.3154 118.114 68.4494 116.865 68.3605C120.059 69.9439 121.89 67.7857 121.37 71.3072C121.196 73.3088 121.384 75.3061 121.342 77.3091C121.191 78.4383 121.512 77.4072 121.656 76.8697C122.122 74.8399 122.43 72.7572 122.558 70.6788C122.835 68.9127 122.641 68.0283 120.622 68.2589V68.2582ZM121.574 69.3916C121.574 69.3916 121.577 69.3951 121.579 69.3966C121.577 69.3951 121.576 69.393 121.574 69.3916Z" fill="#00399F"/>
<path d="M137.147 68.747C136.501 71.6097 136.532 74.5085 136.573 77.4192C135.992 79.7367 138.642 78.7733 139.931 78.5095C139.911 78.5138 139.893 78.518 139.874 78.5222C140.211 78.4595 141.892 78.1562 141.069 78.1661C140.05 77.8769 138.119 78.4263 137.556 77.7372C137.678 74.7461 137.614 71.7043 137.147 68.7477V68.747ZM137.341 77.9079C137.341 77.9079 137.346 77.9114 137.349 77.9129C137.346 77.9114 137.344 77.9093 137.341 77.9079Z" fill="#00399F"/>
<path d="M137.704 68.4684C144.819 70.817 140.895 67.8188 142.43 76.0883C142.703 78.501 142.746 76.4479 142.863 75.2264C143.133 68.5974 145.23 68.5128 137.704 68.4684ZM142.082 69.6095C142.092 69.6187 142.101 69.6286 142.109 69.6384C142.1 69.6286 142.091 69.6194 142.082 69.6095ZM142.117 69.6709C142.117 69.6709 142.118 69.6709 142.119 69.6716C142.119 69.6716 142.118 69.6716 142.117 69.6709Z" fill="#00399F"/>
<path d="M95.228 68.3542C95.3768 69.8007 95.034 71.2395 95.0806 72.6902C95.082 72.6486 95.0841 72.607 95.0855 72.5654C94.9938 74.9415 94.9649 77.3289 94.6313 79.6859C94.2357 81.0958 95.7993 80.9851 96.7133 80.7502C97.8961 80.6084 99.1063 80.5365 100.245 80.1627C98.8221 80.028 96.8156 80.059 95.6744 79.6817C95.8994 75.9359 96.6541 71.9398 95.228 68.3535V68.3542Z" fill="#00399F"/>
<path d="M96.9567 68.2349C95.5186 68.2483 95.5905 68.2822 96.9412 68.6426C99.9344 69.4466 100.19 68.613 100.032 72.0322C99.7884 74.3187 100.015 76.6038 100.251 78.8805C100.454 80.8143 101.122 72.4405 101.185 71.3212C101.183 71.3487 101.183 71.3763 101.182 71.4031C101.095 70.5066 101.443 69.3874 100.841 68.6398C99.6889 68.1284 98.2212 68.2547 96.9574 68.2349H96.9567ZM100.055 69.4247C100.059 69.4283 100.061 69.4353 100.063 69.4403C100.061 69.4353 100.058 69.4297 100.055 69.4247ZM100.089 69.4367C100.097 69.4431 100.102 69.4508 100.109 69.4579C100.102 69.4508 100.096 69.4438 100.089 69.4367Z" fill="#00399F"/>
<path d="M94.7957 92.5919C93.9987 95.5272 93.723 98.8096 94.7273 101.724C94.8359 98.677 95.5031 95.6394 94.7957 92.5919Z" fill="#00399F"/>
<path d="M99.5188 89.9104C97.9743 89.8801 96.4438 90.2285 94.9056 90.172C98.3234 91.6933 99.5125 89.0408 99.2325 93.4156C99.1641 95.9807 99.7741 98.4979 99.7995 101.055C100.377 98.7659 100.276 96.4081 100.327 94.0687C100.144 92.9798 101.006 90.105 99.5188 89.9111V89.9104ZM99.2212 90.7391C99.2212 90.7391 99.224 90.7419 99.224 90.7433C99.2233 90.7419 99.2219 90.7405 99.2212 90.7391Z" fill="#00399F"/>
<path d="M137.254 92.4452C136.132 95.7466 136.243 99.2709 136.815 102.668C137.435 99.3005 137.728 95.8552 137.254 92.4452Z" fill="#00399F"/>
<path d="M139.587 91.4486C138.779 91.4634 137.981 91.6151 137.192 91.7822C138.612 91.9705 140.061 92.1525 141.434 92.6018C141.392 92.5891 141.351 92.5771 141.309 92.5644C141.928 92.6173 141.643 93.4128 141.697 93.8564C141.697 93.8466 141.698 93.836 141.699 93.8261C141.697 93.8769 141.695 93.9277 141.694 93.9785C141.695 93.9425 141.696 93.9065 141.697 93.8713C141.505 96.0125 141.465 98.1481 141.677 100.29C141.692 100.869 141.704 101.457 141.745 102.031C141.829 101.642 141.912 101.253 141.99 100.862C142.374 98.5268 142.68 96.1691 142.885 93.8106C143.248 91.4006 141.412 91.462 139.587 91.45V91.4486ZM141.701 92.6984C141.707 92.704 141.712 92.7104 141.718 92.7167C141.712 92.7104 141.706 92.704 141.701 92.6984Z" fill="#00399F"/>
<path d="M68.9693 68.0798C68.4728 71.5815 68.3423 75.1982 69.0448 78.6625C69.8975 80.6021 73.7575 79.1943 75.5419 79.3135C77.7021 79.1837 75.2887 79.0025 74.3901 78.8212C73.2264 78.3882 70.3453 78.9312 69.9116 77.934C69.4623 74.6826 69.8086 71.2853 68.9686 68.0805L68.9693 68.0798Z" fill="#00399F"/>
<path d="M72.9488 67.6389C71.9367 67.7391 68.3616 68.5558 71.0826 68.3485C72.2456 68.5509 74.1555 67.9725 73.8967 69.7421C73.97 71.9306 73.8572 74.1374 74.3262 76.2935C74.3206 76.2582 74.3142 76.2229 74.3086 76.1877C75.2995 81.7573 75.2537 80.65 75.1338 75.8082C74.5688 73.8066 76.4336 66.7129 72.9488 67.6389ZM73.7105 68.5847C73.719 68.5939 73.7274 68.6045 73.7345 68.6144C73.7267 68.6045 73.7183 68.5946 73.7105 68.5847Z" fill="#00399F"/>
<path d="M69.2492 92.1045C68.0552 94.7564 68.5581 97.9851 69.4432 100.667C69.36 99.1496 69.628 97.6311 69.5814 96.1105C69.5433 94.7691 69.166 93.4452 69.2485 92.1045H69.2492Z" fill="#00399F"/>
<path d="M73.642 91.5847C72.3239 91.615 70.9972 91.7215 69.6833 91.7166C72.3507 92.9988 73.7894 91.3217 73.4523 94.2324C73.5913 96.272 74.1922 98.2546 74.5328 100.26C74.7183 98.2913 74.6351 96.3165 74.6189 94.3438C74.5046 93.4615 75.0039 91.5565 73.6427 91.5847H73.642ZM73.6202 92.5707C73.6272 92.5721 73.6322 92.5792 73.6385 92.5834C73.6322 92.5792 73.6265 92.5749 73.6202 92.5707Z" fill="#00399F"/>
<path d="M51.322 68.6765C50.9052 71.9236 50.8855 75.378 51.3093 78.5723C52.5972 79.4856 55.4536 78.257 57.1822 78.5673C49.0672 76.704 53.7503 80.0393 51.322 68.6772V68.6765ZM52.2459 77.8733C52.2459 77.8733 52.2481 77.8754 52.2488 77.8762C52.2481 77.8754 52.2459 77.8747 52.2459 77.8733ZM52.2629 77.9312C52.2629 77.9312 52.265 77.9347 52.2657 77.9361C52.2643 77.9347 52.2636 77.9326 52.2629 77.9312Z" fill="#00399F"/>
<path d="M54.0467 67.9013C53.491 67.8597 51.0768 68.5304 52.4457 68.4162C52.4401 68.4162 52.4344 68.4162 52.4288 68.4169C53.9529 68.4987 55.891 68.6786 57.1584 69.3041C57.1584 71.7395 56.9511 74.2016 57.4032 76.6116C57.4963 77.2865 57.5978 77.9615 57.7184 78.6322C57.8482 77.4706 57.9131 76.2907 57.9617 75.1192C58.095 72.9871 58.5415 70.7718 58.2163 68.656C57.5802 67.6721 55.1568 67.9803 54.046 67.9013H54.0467ZM57.1965 69.1694C57.1965 69.1694 57.1965 69.1694 57.1972 69.1701C57.1972 69.1701 57.1972 69.1701 57.1965 69.1694Z" fill="#00399F"/>
<path d="M51.5177 91.7491C50.6051 93.8931 50.8146 96.3299 51.2751 98.56C51.7914 96.3123 51.8351 94.0257 51.5177 91.7491Z" fill="#00399F"/>
<path d="M56.1459 90.9986C54.7346 91.0571 53.3184 91.1961 51.9297 91.4316C53.0158 91.7123 54.1224 91.9063 55.2431 91.9726C56.5246 91.737 56.0662 93.0164 56.1727 93.8769C56.1727 93.874 56.1727 93.8719 56.1727 93.8691C56.2171 94.939 56.2376 96.0174 56.2079 97.0838C56.574 95.8291 58.3992 91.0353 56.1459 90.9986ZM56.1423 92.0177C56.1423 92.0177 56.143 92.0177 56.1437 92.0184C56.1437 92.0184 56.143 92.0184 56.1423 92.0177ZM56.2023 92.0396C56.2086 92.0403 56.2129 92.0452 56.2185 92.0481C56.2129 92.0452 56.2079 92.0424 56.2023 92.0396Z" fill="#00399F"/>
<path d="M34.0434 69.0877C33.7056 72.2466 33.9136 75.4148 34.2747 78.5639C34.3093 80.1021 37.5607 79.4864 38.4507 79.0385C34.6154 78.9905 35.1267 78.9101 35.0442 75.5276C34.9208 73.3624 34.6189 71.1739 34.0434 69.087V69.0877ZM35.1042 77.8007C35.1049 77.8219 35.1056 77.8431 35.107 77.8642C35.1063 77.8431 35.1056 77.8219 35.1042 77.8007ZM35.1683 78.5815C35.1754 78.5878 35.1824 78.5949 35.1895 78.6012C35.1824 78.5949 35.1747 78.5885 35.1683 78.5815Z" fill="#00399F"/>
<path d="M34.6765 67.517C35.8797 68.2582 37.2895 68.4705 38.6613 68.6884C39.1134 71.2437 38.4039 73.9343 38.9173 76.5206C38.9843 77.0524 39.0513 77.5842 39.1423 78.1124C39.2425 77.381 39.3073 76.6327 39.3729 75.8929C39.4018 73.2939 40.8477 70.1935 39.3941 67.8266C37.889 67.5057 36.2126 67.9035 34.6772 67.517H34.6765Z" fill="#00399F"/>
<path d="M33.9445 91.462C33.144 93.7027 32.9254 96.1684 33.412 98.5022C33.9522 96.1909 34.4121 93.8332 33.9445 91.462Z" fill="#00399F"/>
<path d="M36.785 91.5438C34.2058 91.6285 33.4752 91.6785 36.5213 92.2822C40.2847 92.6391 38.0489 93.647 39.1682 97.1085C39.4595 99.6355 39.5498 96.4928 39.6259 95.5625C39.5596 94.4016 40.6697 92.2096 39.1068 91.7364C39.116 91.7371 39.1259 91.7378 39.1351 91.7385C38.3564 91.6235 37.5736 91.5177 36.7843 91.5431L36.785 91.5438ZM38.6971 92.6497C38.7048 92.6582 38.7126 92.6666 38.7189 92.6758C38.7119 92.6673 38.7041 92.6582 38.6971 92.6497ZM38.8621 92.8077C38.8713 92.8133 38.8797 92.819 38.8875 92.8253C38.879 92.8197 38.8706 92.8133 38.8621 92.8077Z" fill="#00399F"/>
<path d="M16.1027 91.3406C15.0814 94.7704 15.7945 98.4012 16.614 101.798C16.9363 98.2926 16.7043 94.8015 16.1027 91.3406Z" fill="#00399F"/>
<path d="M17.3034 91.6934C16.8802 91.7689 16.4676 91.9304 16.1058 92.1546C17.0255 91.967 17.953 92.1779 18.8487 92.3937C20.1774 92.5002 20.291 92.8458 20.231 94.1245C20.5251 99.3908 20.6034 102.638 21.3383 94.9476C21.3376 94.9581 21.3369 94.968 21.3355 94.9786C21.7939 91.2998 20.4165 91.4169 17.3034 91.6941V91.6934Z" fill="#00399F"/>
<path d="M15.9098 67.5452C15.4937 71.3629 15.5233 75.1827 15.7356 79.0124C17.0538 80.5654 19.5335 78.7719 21.2403 78.8664C19.7691 78.4623 18.178 78.8981 16.7068 78.5159C16.4409 74.878 16.9868 71.0723 15.9098 67.5445V67.5452ZM15.8717 68.6779C15.8717 68.6849 15.871 68.6913 15.8703 68.6983C15.8703 68.692 15.871 68.6849 15.8717 68.6779ZM16.6849 78.3896C16.6891 78.4115 16.6927 78.434 16.6962 78.4559C16.6919 78.434 16.6884 78.4115 16.6849 78.3896ZM16.6165 78.4517C16.6256 78.463 16.6355 78.4743 16.6447 78.4855C16.6341 78.475 16.6249 78.4637 16.6165 78.4517Z" fill="#00399F"/>
<path d="M21.4702 67.5163C19.7542 67.6425 18.0192 67.6277 16.3026 67.634C17.9113 68.2653 19.647 68.5065 21.3651 68.5939C21.3249 68.5904 21.284 68.5876 21.2438 68.5841C21.9667 69.2788 21.3496 71.0984 21.4807 72.1627C21.3326 74.6474 21.3418 77.1406 21.681 79.6069C21.6803 77.915 24.2081 66.8293 21.4702 67.5163Z" fill="#00399F"/>
<path d="M5.15411 58.2397C6.14151 59.4648 5.92851 61.1497 6.20992 62.6153C6.82493 66.9211 6.46946 71.267 6.36931 75.596C6.27904 84.2604 5.27542 92.9784 6.05405 101.622C6.06816 101.708 6.07662 101.79 6.09496 101.869C6.16267 100.852 6.18594 99.8324 6.20005 98.8132C6.20005 98.821 6.20005 98.828 6.20005 98.8351C6.38906 91.7632 6.66694 84.6942 7.10775 77.6329C6.97022 72.4752 9.22077 61.8635 5.15411 58.2397ZM7.16417 62.2648C7.15923 62.245 7.15429 62.2253 7.14936 62.2048C7.15429 62.2246 7.15923 62.2443 7.16417 62.2648ZM7.13948 62.1653C7.14301 62.1788 7.14654 62.1922 7.14936 62.2056C7.14442 62.1844 7.13878 62.1639 7.13384 62.1428C7.13596 62.1505 7.13737 62.1576 7.13948 62.1653Z" fill="#00399F"/>
<path d="M18.6799 84.4127C17.1318 84.5376 15.5739 84.7633 14.0547 85.0623C14.9532 85.1385 15.8503 85.2323 16.751 85.2831C16.7496 85.2831 16.7475 85.2831 16.746 85.2831C19.0636 85.5278 21.3762 85.2859 23.607 84.6405C21.9891 84.3443 20.3197 84.3485 18.6806 84.4134L18.6799 84.4127Z" fill="#00399F"/>
<path d="M52.8944 85.2618C48.0921 85.2103 51.639 90.4252 48.2628 88.4419C47.1703 87.6527 49.0795 89.9639 49.8997 89.5013C51.8738 88.8101 50.1339 86.3339 53.027 86.1625C54.1745 85.9234 55.3347 86.1512 56.4892 86.0532C55.3241 85.6603 54.1575 85.1596 52.8944 85.2618ZM47.8544 88.1782C47.8544 88.1782 47.8551 88.1782 47.8558 88.1789C47.8558 88.1789 47.8551 88.1789 47.8544 88.1782Z" fill="#00399F"/>
<path d="M35.5134 85.5652C31.9496 86.2387 33.6775 89.7038 31.288 88.6649C30.0256 88.0513 32.2105 89.8851 32.8982 89.3998C34.399 87.6296 34.4279 86.0497 37.4522 86.3537C40.2627 86.5286 36.5791 85.4086 35.5134 85.5659V85.5652Z" fill="#00399F"/>
<path d="M16.3104 86.2993C13.6225 87.03 14.373 89.533 12.5703 88.4363C12.3897 88.0957 12.6556 87.664 12.7113 87.3128C12.1619 87.9003 11.8311 88.7622 12.7409 89.1867C14.6466 90.5508 14.9322 87.6591 16.6905 87.1788C17.8239 86.7034 19.0694 86.8551 20.2649 86.8826C19.0532 86.2887 17.6469 85.8564 16.3104 86.2993Z" fill="#00399F"/>
<path d="M70.4074 85.9277C66.6334 86.0984 68.2986 88.8906 66.6426 88.7044C66.0826 88.5746 65.6672 88.1606 65.4613 87.6337C65.4486 88.454 66.0488 89.2361 66.8584 89.4125C68.7874 89.7425 68.166 87.0596 70.047 86.913C73.1672 86.2923 74.8542 86.0306 70.4074 85.9277Z" fill="#00399F"/>
<path d="M164.423 85.0976C160.142 85.4509 161.545 89.0937 158.987 88.1515C158.998 88.155 159.009 88.1585 159.02 88.162C157.502 87.4871 159.661 89.1459 160.42 88.9435C161.695 88.6529 161.96 86.8925 163.271 86.4821C164.538 85.8078 165.928 85.5878 167.29 86.0956C166.477 85.4432 165.5 84.8959 164.423 85.0969V85.0976Z" fill="#00399F"/>
<path d="M180.476 85.2936C178.06 85.9142 178.947 89.9322 176.756 88.1302C178.672 90.8914 179.163 86.987 180.749 86.3945C182.35 85.7993 184.157 86.367 185.8 85.874C184.047 85.6385 182.24 84.711 180.476 85.2936ZM177.453 88.5414C177.453 88.5414 177.459 88.5435 177.463 88.5442C177.459 88.5435 177.456 88.5421 177.453 88.5414Z" fill="#00399F"/>
<path d="M199.485 85.874C196.673 86.5426 197.299 90.1777 194.032 87.7924C195.799 90.1114 196.897 89.7799 198.606 87.6915C198.597 87.6993 198.587 87.7078 198.579 87.7155C199.826 86.2718 201.706 86.5158 203.295 87.1866C202.285 86.2556 200.902 85.4311 199.486 85.8733L199.485 85.874Z" fill="#00399F"/>
<path d="M217.546 84.6786C215.905 84.7181 215.231 86.4045 214.178 87.2748C213.238 87.3432 211.669 86.7162 212.261 85.5475C212.261 85.5482 212.261 85.5489 212.261 85.5496C210.983 86.4143 212.945 88.4801 214.424 88.2636C215.891 87.9977 216.21 85.9383 217.698 85.623C218.826 85.4298 219.906 85.9869 220.808 86.6097C220.098 85.5123 218.914 84.5968 217.546 84.6779V84.6786Z" fill="#00399F"/>
<path d="M123.879 101.749C122.852 101.862 120.966 103.115 122.214 104.13C121.147 102.177 126.655 101.887 126.699 103.946C126.908 104.24 127.267 104.28 127.601 104.269C128.319 104.321 128.972 104.661 129.616 104.956C130.72 105.183 130.145 106.105 130.216 106.875C130.421 107.655 131.214 108.239 130.763 109.12C130.421 110.17 129.602 111.052 128.595 111.487C127.585 112.276 130.749 113.43 127.624 113.745C126.495 113.787 130.731 114.816 129.501 112.075C131.448 111.19 132.858 108.55 131.358 106.697C131.544 105.81 131.69 104.645 130.693 104.178C129.687 103.719 128.654 103.119 127.52 103.127C126.998 101.655 125.215 101.442 123.879 101.749V101.749Z" fill="#00399F"/>
<path d="M139.515 102.772C138.779 102.845 138.195 103.344 137.512 103.567C136.941 103.558 136.355 103.326 135.795 103.591C135.214 103.796 134.803 104.283 134.281 104.586C133.769 104.605 133.219 104.582 132.778 104.919C132.08 105.288 131.032 107.391 132.172 106.001C132.98 105.135 133.665 105.479 134.627 105.443C136.363 104.527 135.873 104.609 137.804 104.694C138.945 104.173 139.973 103.587 141.249 104.116C142.513 104.311 143.499 103.087 144.751 103.7C146.325 104.215 144.284 103.07 143.624 102.927C141.684 103.421 141.263 102.843 139.515 102.771V102.772Z" fill="#00399F"/>
<path d="M152.014 98.7518C149.955 98.8766 147.658 99.0832 146.526 101.09C144.832 102.821 144.202 103.134 143.747 105.786C144.527 104.451 145.311 103.09 146.767 102.487C147.535 101.806 147.975 100.782 148.957 100.351C150.591 99.749 152.48 99.7384 154.122 100.298C154.991 100.32 155.879 100.354 156.594 100.921C156.586 100.916 156.579 100.911 156.572 100.906C156.632 100.946 156.692 100.985 156.752 101.025C156.747 101.021 156.742 101.018 156.737 101.015C157.484 101.581 156.608 100.657 156.349 100.378C155.813 99.8259 155.043 99.6609 154.322 99.4909C153.584 99.1721 152.857 98.6791 152.015 98.7525L152.014 98.7518ZM154.79 100.325C154.801 100.325 154.811 100.325 154.821 100.326C154.81 100.326 154.8 100.325 154.79 100.325Z" fill="#00399F"/>
<path d="M156.386 104.4C157.978 104.783 159.047 106.003 159.062 107.651C159.989 105.709 158.455 103.896 156.386 104.4Z" fill="#00399F"/>
<path d="M164.572 97.0972C159.579 98.2285 152.386 98.7405 158.97 104.709C158.577 103.153 155.994 100.84 158.325 99.8337C159.658 99.194 161.123 98.9846 162.556 98.7088C163.577 98.56 164.594 97.9633 165.631 98.2807C166.59 98.7321 166.906 100.023 168.048 100.258C168.857 100.598 169.814 100.264 170.58 100.723C171.4 101.474 172.387 102.173 172.135 103.418V103.417C172.891 102.383 171.988 100.969 171.07 100.015C170.368 99.3873 169.375 99.4853 168.522 99.2561C167.059 98.6242 166.545 96.7157 164.572 97.0979V97.0972ZM172.135 103.42C172.135 103.42 172.135 103.419 172.135 103.418C172.135 103.418 172.135 103.419 172.135 103.42Z" fill="#00399F"/>
<path d="M176.639 100.925C174.843 101.433 172.711 102.666 170.92 101.588C171.587 102.517 172.82 102.739 173.897 102.62C174.702 102.558 175.493 102.388 176.266 102.161C177.217 101.757 177.715 103.243 178.922 102.839C180.12 102.541 181.112 103.116 182.191 103.453C183.202 103.443 184.372 103.118 185.135 103.993C185.096 103.96 185.056 103.926 185.018 103.891C185.495 104.691 186.663 105.637 186.169 106.629C185.766 107.388 185.191 108.04 184.599 108.657C184.96 108.476 185.305 108.241 185.641 108.011C186.55 107.387 187.628 106.336 187.085 105.145C186.573 104.109 186.099 102.937 184.946 102.469C184.084 102.041 183.113 102.257 182.196 102.234C181.419 101.866 180.584 101.592 179.713 101.639C177.934 102.058 177.951 100.886 176.639 100.925H176.639ZM176.819 102.015C176.836 102.017 176.854 102.021 176.872 102.026C176.854 102.022 176.836 102.019 176.819 102.015Z" fill="#00399F"/>
<path d="M196.067 101.954C194.651 102.421 193.281 102.702 191.837 102.137C190.908 102.046 190.173 103.007 189.227 102.778C188.173 102.546 187.075 101.806 185.979 102.177C185.578 102.481 184.946 103.457 185.88 102.558C187.336 102.23 188.516 104.141 190.06 103.809C191.812 102.989 192.485 103.75 194.202 103.629C194.945 103.552 195.593 103.13 196.312 102.969C196.985 103.247 197.655 103.238 198.347 102.989C199.118 103.211 199.76 103.807 200.5 104.134C200.229 103.844 199.943 103.549 199.669 103.257C199.163 102.644 198.555 102.062 197.696 102.294C197.113 102.36 196.667 101.815 196.068 101.955L196.067 101.954Z" fill="#00399F"/>
<path d="M206.043 100.552C204.07 100.504 202.255 101.315 200.398 101.887C198.896 102.737 198.153 104.828 198.086 106.479C199.797 102.675 200.545 103.097 203.979 101.87C206.089 101.524 208.259 101.791 210.248 102.58C211.47 103.472 212.592 102.645 213.728 102.144C212.934 102.024 212.129 102.719 211.344 102.299C209.792 101.242 207.931 100.582 206.043 100.552V100.552Z" fill="#00399F"/>
<path d="M222.5 104.094C218.994 104.854 215.416 105.876 212.758 108.43C210.849 109.943 210.772 114.102 212.61 114.54C212.611 114.541 212.612 114.542 212.613 114.543C209.699 109.03 218.502 105.884 222.649 105.207C222.619 105.209 222.59 105.21 222.56 105.212C224.404 105.405 226.261 105.512 228.116 105.594C230.675 107.095 230.821 107.418 233.923 106.509C229.999 106.59 231.154 105.921 228.368 104.585C226.42 104.426 224.444 104.154 222.5 104.094ZM219.53 105.948C219.53 105.948 219.528 105.949 219.526 105.949C219.528 105.949 219.529 105.949 219.53 105.948ZM212.722 110.245C212.712 110.267 212.701 110.288 212.691 110.31C212.702 110.288 212.712 110.267 212.722 110.245ZM212.616 114.548C212.616 114.548 212.614 114.545 212.612 114.543C212.614 114.545 212.614 114.547 212.616 114.548Z" fill="#00399F"/>
<path d="M221.973 101.539C220.673 101.735 219.352 101.783 218.052 101.936C219.48 102.376 220.941 102.58 222.433 102.543C223.991 103.882 226.121 102.844 227.828 103.871C229.921 104.802 227.405 103.067 226.602 102.673C225.719 102.264 224.704 102.412 223.808 102.084C223.271 101.692 222.653 101.399 221.973 101.539Z" fill="#00399F"/>
<path d="M235.091 105.7C234.339 105.751 233.75 106.311 233.122 106.672C233.517 106.584 233.92 106.465 234.32 106.379C236.566 105.86 234.542 109.209 235.128 110.332C234.954 111.591 233.918 112.543 233.764 113.813C233.711 116.263 232.046 118.085 230.034 119.278C232.959 118.61 234.865 116.502 235.041 113.491C235.712 112.11 236.617 110.789 236.172 109.188C236.172 109.203 236.171 109.217 236.17 109.233C236.253 108.056 236.808 105.881 235.09 105.7L235.091 105.7Z" fill="#00399F"/>
<path d="M231.193 58.7334C229.338 59.1947 228.562 61.3331 230.704 62.0616C231.122 62.2986 230.621 62.774 230.552 63.0977C230.469 63.3593 230.475 63.7733 230.641 63.3072C233.338 61.0065 228.099 61.5743 231.193 58.7341V58.7334ZM230.812 62.1315C230.825 62.1441 230.837 62.1575 230.847 62.1716C230.835 62.1582 230.824 62.1449 230.812 62.1315ZM230.842 62.1456C230.85 62.1597 230.857 62.1745 230.864 62.19C230.857 62.1752 230.849 62.1604 230.842 62.1456Z" fill="#00399F"/>
<path d="M230.574 63.5928C230.768 64.4412 231.122 65.3073 231.832 65.8497C230.434 66.8787 230.842 68.7025 230.89 70.2133C231.033 72.4984 231.18 74.7828 231.322 77.0679C232.127 86.5123 232.007 96.0668 233.338 105.452C233.769 107.64 233.537 104.683 233.59 103.772C233.354 92.5157 232.451 81.2742 232.069 70.0193C232.139 68.9825 231.704 67.773 232.222 66.8364C232.451 66.4217 233.079 65.8588 232.588 65.418C231.69 65.1141 231.061 64.3785 230.573 63.5928H230.574Z" fill="#00399F"/>
<path d="M233.845 79.6104C232.625 79.5808 227.404 80.2304 230.663 80.4116C229.44 80.8891 228.239 81.4449 227.058 82.0077C229.359 81.7206 231.603 81.1275 233.882 80.7255C234.581 80.6507 234.576 79.5907 233.845 79.6104Z" fill="#00399F"/>
<path d="M226.022 61.3239C215.724 61.6158 205.422 61.7527 195.121 61.8056C193.686 61.8274 192.25 61.8528 190.816 61.9071C196.228 62.0672 201.658 61.9473 207.077 62.015C213.971 62.0052 220.867 62.2781 227.759 62.2534C229.189 62.2012 230.614 62.0461 232.022 61.7872C230.05 61.4275 228.029 61.2978 226.022 61.3239Z" fill="#00399F"/>
<path d="M195.417 48.5737C195.278 49.7762 194.562 51.3208 195.318 52.3971C197.141 53.5072 199.533 52.8463 201.569 52.9006C207.167 52.4577 206.27 52.4182 201.346 51.9563C199.672 51.7623 197.984 51.9415 196.31 51.811C195.359 51.6953 195.776 50.2072 195.53 49.4998C195.532 49.5132 195.533 49.5266 195.534 49.5393C195.496 49.2191 195.462 48.8897 195.417 48.5737ZM195.842 51.6523C195.842 51.6523 195.847 51.6593 195.849 51.6622C195.846 51.6586 195.844 51.6551 195.842 51.6523ZM195.85 51.6636C195.85 51.6636 195.853 51.6671 195.855 51.6685C195.853 51.6671 195.852 51.665 195.85 51.6636Z" fill="#00399F"/>
<path d="M207.065 48.7882C206.104 49.4878 205.808 50.6502 205.662 51.7701C206.382 50.9182 206.682 49.813 207.065 48.7882Z" fill="#00399F"/>
<path d="M178.361 48.2536C176.241 54.7499 182.902 52.2539 186.656 52.122C187.082 52.0663 187.508 52.0043 187.934 51.9457C187.199 51.8223 186.442 51.7701 185.697 51.6848C180.407 50.6586 178.577 53.6419 178.361 48.2529V48.2536Z" fill="#00399F"/>
<path d="M188.837 49.1719C188.188 49.8864 187.832 50.811 187.869 51.7787C188.355 50.988 188.716 50.0966 188.837 49.1719Z" fill="#00399F"/>
<path d="M164.993 51.0726C156.063 51.7631 168.409 52.7477 170.565 51.6206C170.566 51.6206 170.567 51.6206 170.568 51.6199C168.718 51.6277 166.876 50.866 164.993 51.0726ZM170.41 51.6573C170.41 51.6573 170.408 51.6573 170.407 51.6573C170.408 51.6573 170.409 51.6573 170.41 51.6573Z" fill="#00399F"/>
<path d="M170.308 47.7162C169.844 48.7671 169.899 49.9484 170.316 51.0049C170.527 49.9258 170.508 48.7953 170.308 47.7162Z" fill="#00399F"/>
<path d="M167.389 67.6516C165.411 67.8618 163.42 67.8604 161.436 67.7299C161.924 67.9373 162.432 68.1213 162.936 68.2991C170.73 69.7964 165.861 66.6424 167.665 78.8134C167.868 81.0153 168.156 75.3773 168.239 74.4978C168.019 73.0477 169.859 67.2482 167.39 67.6509L167.389 67.6516ZM167.409 68.5939C167.409 68.5939 167.415 68.5988 167.417 68.6016C167.414 68.5988 167.412 68.5967 167.409 68.5939Z" fill="#00399F"/>
<path d="M161.495 68.2152C161.507 71.0088 161.645 73.806 161.989 76.5799C161.892 79.5004 165.482 78.939 167.415 78.5321C160.157 78.0885 164.623 75.7328 161.495 68.2152Z" fill="#00399F"/>
<path d="M89.9962 64.9752C89.8199 66.9443 89.0991 68.8239 89.073 70.8114C88.9221 73.636 89.3192 76.4487 89.2543 79.2719C89.011 86.3882 89.5286 93.5137 89.5399 100.614C90.595 97.057 89.6485 90.469 89.9017 85.8833C90.0957 81.4604 90.1493 77.0397 90.1091 72.6155C90.126 70.0758 90.5823 67.4719 89.9955 64.9752H89.9962Z" fill="#00399F"/>
<path d="M84.4888 59.3498C85.9663 61.7809 87.7796 64.0681 90.289 65.49C88.5448 63.2782 86.989 60.7872 84.4888 59.3498Z" fill="#00399F"/>
<path d="M100.812 63.7557C97.2527 64.0075 93.6529 64.0252 90.1505 64.7819C91.3869 64.9427 92.6352 65.1078 93.8857 65.1515C96.7414 65.3976 99.4553 64.5083 102.224 63.9969C104.019 63.7783 101.543 63.7473 100.812 63.7557Z" fill="#00399F"/>
<path d="M152.767 55.2958C150.705 57.9329 147.904 60.1842 147.222 63.6478C149.252 61.0136 151.762 58.5415 152.767 55.2958Z" fill="#00399F"/>
<path d="M147.764 64.267C147.297 69.3951 148.162 74.4118 148.8 79.4786C149.044 85.654 149.651 91.8154 149.863 97.9873C150.83 93.3564 149.683 88.5816 149.812 83.8957C149.828 80.0816 149.387 76.2963 148.95 72.5139C148.721 69.7442 148.739 66.9069 147.764 64.267H147.764Z" fill="#00399F"/>
<path d="M143.914 61.8296C140.921 61.7887 137.99 62.3832 135.023 62.6202C135.555 62.781 136.108 62.9235 136.665 62.9961C140.655 63.451 144.666 62.7641 148.52 61.7492C146.99 61.7329 145.447 61.7887 143.914 61.8296Z" fill="#00399F"/>
<path d="M112.307 63.7487C108.465 64.2579 114.985 64.5887 116.161 64.0407C114.922 63.6542 113.592 63.5131 112.307 63.7487Z" fill="#00399F"/>
<path d="M123.068 63.4433C120.248 63.834 123.284 64.0392 124.407 64.0907C125.531 64.0632 126.625 63.7501 127.705 63.468C126.178 63.2056 124.601 63.1612 123.068 63.4433Z" fill="#00399F"/>
<path d="M104.869 102.668C103.802 102.816 102.686 103.199 101.889 103.941C103.154 103.441 104.631 103.314 105.939 103.719C107.902 104.237 109.781 105.002 111.697 105.655C112.809 106.041 113.836 105.324 114.942 105.46C116.436 105.738 117.948 106.09 119.345 106.699C120.128 107.045 120.704 107.7 121.255 108.327C120.585 105.985 118.218 104.967 116.039 104.444C114.802 104.034 113.597 104.421 112.375 104.528C109.877 103.958 107.509 102.527 104.868 102.668H104.869ZM112.951 104.515C112.934 104.517 112.918 104.521 112.9 104.524C112.917 104.521 112.934 104.518 112.951 104.515Z" fill="#00399F"/>
<path d="M114.533 106.032C114.622 106.071 114.727 106.104 114.822 106.141C114.82 106.141 114.819 106.14 114.818 106.14C117.698 106.993 117.342 107.916 118.895 109.832C120.152 110.865 121.952 111.951 120.126 113.477C123 112.292 120.852 109.996 119.393 108.63C118.607 106.642 116.581 105.812 114.534 106.032H114.533ZM114.818 106.14C114.818 106.14 114.815 106.138 114.813 106.137C114.815 106.137 114.817 106.139 114.818 106.14Z" fill="#00399F"/>
<path d="M10.6637 102.118C9.43016 102.261 8.50977 103.292 7.28681 103.474C6.59281 103.462 5.85579 103.149 5.22104 103.617C4.18286 104.388 3.72655 105.707 2.91477 106.69C1.37514 107.126 1.18824 109.303 1.03448 110.699C1.17484 112.817 1.1699 114.368 1.70027 111.188C2.024 110.135 2.2377 108.177 3.36333 107.864C4.3606 107.12 4.79928 105.822 5.52502 104.836C5.82335 104.354 6.3502 104.486 6.8051 104.615C7.8722 104.762 8.83702 104.154 9.73343 103.661C10.8287 102.715 11.8084 103.603 12.8628 104.034C15.2389 104.017 15.3722 102.703 18.1573 104.111C18.1559 104.111 18.1538 104.11 18.1524 104.109C18.1982 104.128 18.2441 104.147 18.2899 104.166C18.2892 104.166 18.2878 104.165 18.2864 104.164C16.9428 102.705 15.485 102.422 13.257 102.985C12.3902 102.705 11.6631 101.923 10.6644 102.117L10.6637 102.118ZM14.5999 103.725C14.5844 103.732 14.5688 103.738 14.5526 103.745C14.5681 103.738 14.5837 103.732 14.5999 103.725Z" fill="#00399F"/>
<path d="M22.4106 100.787C19.8744 100.803 17.7212 101.633 16.2344 103.757C17.9419 102.613 19.7566 101.923 21.8372 101.998C23.5419 101.773 25.1386 102.745 26.7883 103.008C29.4218 102.775 29.979 104.129 33.3143 102.708C36.0091 101.898 30.1567 102.944 29.1785 102.086C29.2264 102.105 29.2737 102.124 29.3209 102.144C28.4972 101.744 27.5754 101.541 26.686 101.816C25.2733 101.457 23.8839 100.826 22.4106 100.787V100.787Z" fill="#00399F"/>
<path d="M37.1423 98.9507C36.0844 98.9465 35.157 99.5058 34.1618 99.771C31.7117 98.8788 30.1897 100.236 29.045 102.308C30.7736 100.863 31.8019 99.9832 34.0602 100.96C35.7339 100.696 37.3497 99.5037 39.0515 100.514C39.0212 100.501 38.9909 100.489 38.9605 100.476C40.0932 101.239 42.317 101.384 42.0116 103.201C41.6985 104.18 41.8423 105.109 42.1795 106.054C42.1936 107.509 41.5757 109.327 40.168 109.966C39.5812 110.495 36.0879 109.854 36.5929 110.665C37.0866 111.073 38.8406 111.783 37.5154 110.902C41.0411 112.089 43.3009 109.459 43.3538 106.093C43.3375 105.561 43.0829 105.083 42.9743 104.572C42.9877 103.766 43.3298 102.972 43.0886 102.161C42.8431 100.403 38.7257 99.0043 37.1416 98.9514L37.1423 98.9507ZM37.9414 111.237C37.9414 111.237 37.9428 111.238 37.9435 111.238C37.9428 111.238 37.9421 111.237 37.9414 111.237Z" fill="#00399F"/>
<path d="M45.2996 99.7653C44.1973 99.4811 41.0665 102.04 43.3171 100.887C43.3037 100.893 43.2896 100.899 43.2762 100.904C44.6056 100.233 46.0458 100.782 47.3605 101.197C48.1821 101.436 49.0341 101.251 49.8706 101.329C50.877 101.426 51.7248 102.115 52.746 102.108C54.998 101.809 56.8063 100.931 59.0773 101.955C57.3705 100.5 55.2244 100.468 53.1318 100.923C52.1113 101.046 51.26 100.327 50.2698 100.215C48.5855 100.228 46.9655 99.9198 45.2989 99.7653H45.2996Z" fill="#00399F"/>
<path d="M59.8646 98.9733C55.3522 100.062 55.0616 101.672 52.8703 105.173C52.481 105.702 51.8815 106.327 51.1819 105.946C51.4513 106.209 51.8251 106.368 52.2038 106.25C53.9868 105.635 54.8924 103.754 55.9221 102.309C57.5337 100.659 60.0924 99.4141 62.3141 100.569C64.3206 100.789 65.9568 102.103 67.9549 102.373C70.5066 103.191 66.1769 101.178 65.466 100.509C63.8459 99.5008 61.759 99.0226 59.8653 98.9733H59.8646Z" fill="#00399F"/>
<path d="M67.6023 100.213C67.1262 100.262 66.7066 100.537 66.3321 100.808C66.8018 100.679 67.2927 100.547 67.7772 100.674C69.0813 101.052 70.0405 102.235 71.506 101.88C72.4744 101.796 73.3052 102.376 74.2193 102.475C76.4127 101.944 77.2019 102.099 79.2113 102.958C80.7713 102.699 82.0733 103.19 83.3047 104.149C85.5757 104.75 85.5546 104.766 86.3812 107.004C86.3579 105.08 86.0419 103.797 83.9867 103.305C82.3356 101.846 81.0859 101.696 79.0173 101.674C77.5143 100.763 75.742 100.941 74.1064 101.294C72.9222 100.745 71.6309 100.626 70.3571 100.874C69.4678 100.582 68.5763 100.09 67.6016 100.214L67.6023 100.213ZM72.5513 101.993C72.5865 102.002 72.6218 102.01 72.6564 102.019C72.6211 102.011 72.5858 102.002 72.5513 101.993Z" fill="#00399F"/>
<path d="M71.6934 105.934C71.7484 108.291 74.8523 108.703 72.8747 111.457C72.8811 112.907 75.5386 113.628 72.7534 114.586C71.4832 114.985 76.7432 114.998 74.0201 111.663C74.0201 111.663 74.0194 111.663 74.0187 111.664C74.8467 110.778 74.736 109.307 74.0829 108.351C73.4206 107.411 72.0228 107.121 71.6934 105.934ZM73.9849 111.541C73.9849 111.548 73.9849 111.555 73.9849 111.563C73.9849 111.556 73.9849 111.548 73.9849 111.541Z" fill="#00399F"/>
<path d="M86.6927 100.48C85.0741 101.049 82.0477 99.7511 81.9221 102.364C82.5682 100.454 84.4146 101.768 85.7335 101.734C87.6878 101.174 89.0984 102.644 90.9681 101.798C91.9908 101.344 92.9372 101.842 93.9564 101.971C95.0383 102.129 96.4446 102.03 97.1175 103.054C96.9461 101.655 92.725 100.38 91.4928 100.502C89.1132 101.373 88.836 100.374 86.6927 100.48Z" fill="#00399F"/>
<path d="M98.5933 102.317C95.7017 102.665 95.0042 105.8 94.1776 108.083C93.8962 109.45 95.8985 110.278 94.9153 111.634C93.224 113.439 95.6565 111.806 95.8279 110.804C96.0981 110.06 95.5162 109.439 95.3074 108.767C95.1346 108.272 95.5994 107.898 95.7285 107.448C95.9817 106.757 96.0755 106.005 96.4154 105.344C97.5686 103.096 100.18 102.491 102.333 103.709C101.364 102.711 100.008 102.079 98.5933 102.317ZM94.3024 112.371C94.3024 112.371 94.2982 112.376 94.2961 112.378C94.2982 112.376 94.3003 112.374 94.3024 112.371Z" fill="#00399F"/>
<path d="M67.3784 114.442C54.3208 114.725 41.2575 114.621 28.1978 114.76C19.1131 114.721 10.0023 114.437 0.963362 115.436C0.967593 115.436 0.97253 115.436 0.976762 115.436C0.968299 115.436 0.959835 115.436 0.951372 115.437C0.953488 115.437 0.955603 115.437 0.957719 115.437C-0.472593 115.425 2.31609 115.942 2.79639 116.036C7.2037 116.389 11.647 115.744 16.0705 115.832C27.245 115.699 38.4167 115.473 49.5919 115.359C59.4023 115.303 69.2015 114.93 79.0085 115.386C83.4426 115.478 87.876 115.614 92.3101 115.714C95.3414 115.766 98.4242 116.212 101.422 115.583C90.0969 114.801 78.7221 114.899 67.377 114.444L67.3784 114.442ZM0.95913 115.436C0.95913 115.436 0.962656 115.436 0.964067 115.436C0.962656 115.436 0.96054 115.436 0.95913 115.436Z" fill="#00399F"/>
<path d="M218.677 118.547C216.91 118.587 215.143 118.81 213.401 119.07C218.18 119.721 223.04 120.218 227.857 119.733C228.012 119.717 228.173 119.705 228.324 119.685C225.17 118.899 221.925 118.533 218.677 118.547Z" fill="#00399F"/>
<path d="M154.456 114.159C135.78 114.809 117.1 115.593 98.4341 116.423C97.6407 116.498 96.8508 116.598 96.063 116.711C97.3276 116.858 98.6168 116.904 99.8934 116.918C121.652 116.412 143.399 114.666 165.174 115.09C172.662 115.124 180.154 115.068 187.64 115.328C194.712 115.762 201.805 116.147 208.874 115.395C208.842 115.397 208.809 115.399 208.777 115.401C209.661 115.346 210.543 115.284 211.425 115.202C210.221 114.903 208.994 114.626 207.754 114.503C205.818 114.331 203.877 114.523 201.941 114.587C196.311 114.87 190.698 114.267 185.071 114.224C174.866 114.157 164.662 114.262 154.457 114.159H154.456Z" fill="#00399F"/>
<path d="M115.448 97.1748C114.743 99.1143 114.475 101.171 114.533 103.228C114.542 104.036 114.609 108.606 114.914 106.628C114.914 106.63 114.913 106.633 114.913 106.635C115.62 103.691 115.765 100.696 115.488 97.6854C115.488 97.6875 115.488 97.6896 115.488 97.6917C115.474 97.5204 115.466 97.3405 115.447 97.1741L115.448 97.1748Z" fill="#00399F"/>
<path d="M119.485 97.6904C118.114 97.6946 116.783 98.0839 115.43 98.2123C116.837 98.9648 120.94 97.8258 120.633 99.7801C120.824 101.336 120.951 102.907 121.082 104.463C121.476 102.525 121.977 100.482 121.62 98.5064C121.407 97.4788 120.28 97.684 119.486 97.6896L119.485 97.6904ZM120.44 98.7673C120.44 98.7673 120.444 98.7687 120.445 98.7701C120.443 98.7694 120.442 98.7687 120.44 98.7673Z" fill="#00399F"/>
<path d="M114.835 86.9122C114.615 88.8821 114.524 90.9711 115.26 92.8437C115.45 90.8569 115.713 88.7848 114.835 86.9122Z" fill="#00399F"/>
<path d="M117.166 86.9757C114.313 87.1922 115.517 87.3523 117.518 87.6838C119.138 88.0315 120.921 87.4285 120.669 89.7411C120.789 90.3886 120.837 93.5539 121.105 91.9966C122.079 87.5787 122.117 86.4601 117.166 86.975L117.166 86.9757Z" fill="#00399F"/>
<path d="M119.975 93.6935C119.198 93.6709 113.724 93.9298 115.602 94.348C116.693 95.1541 123.132 93.5355 119.975 93.6935Z" fill="#00399F"/>
<path d="M6.27058 50.1487C4.458 50.2185 6.35521 52.1306 6.53718 52.991C6.65566 53.3528 6.52236 53.7245 6.36791 54.0532C5.06666 55.9045 6.97727 57.782 7.05062 59.7095C7.51188 58.2891 6.91803 56.8799 6.97374 55.4602C7.23752 54.6886 7.84336 53.9812 7.64941 53.1088C7.76719 52.1665 5.12591 50.5811 6.32912 50.3194C6.79037 50.1198 6.75722 50.0965 6.27199 50.1487H6.27058ZM5.96167 50.5056C5.95743 50.5084 5.95391 50.5105 5.94968 50.5134C5.9532 50.5105 5.95743 50.5077 5.96167 50.5056Z" fill="#00399F"/>
<path d="M72.0243 61.3359C62.0107 61.63 51.9929 61.721 41.9757 61.7923C33.7261 61.9686 25.4566 61.5384 17.2189 62.037C20.1656 62.2979 23.1391 62.2324 26.0991 62.2126C41.2324 62.135 56.3699 62.1103 71.5003 62.4729C78.022 62.3099 80.5208 61.6477 72.0243 61.3359Z" fill="#00399F"/>
<path d="M49.9283 49.65C47.7454 54.9756 55.7567 51.603 58.173 51.3603C57.6892 50.8335 54.3631 51.2715 52.9349 51.3864C50.8712 51.5726 49.8549 52.3245 49.9283 49.65Z" fill="#00399F"/>
<path d="M60.3891 49.5428C59.9808 49.966 59.7071 50.514 59.6274 51.0945C60.0351 50.6706 60.3102 50.1226 60.3891 49.5428Z" fill="#00399F"/>
<path d="M34.6536 48.863C32.2063 54.7253 38.8719 51.6488 41.8348 51.5177C41.8334 51.5177 41.8327 51.5177 41.8313 51.5177C40.5752 50.8554 37.7689 51.268 35.9831 51.3801C34.3468 51.7589 34.8829 49.8849 34.6536 48.863ZM41.6881 51.524C41.6881 51.524 41.6874 51.524 41.6867 51.524C41.6867 51.524 41.6874 51.524 41.6881 51.524Z" fill="#00399F"/>
<path d="M43.4473 48.6634C43.1095 49.5337 42.9974 50.4844 43.1109 51.4069C43.5496 50.5627 43.666 49.5845 43.4473 48.6634Z" fill="#00399F"/>
<path d="M20.9382 48.6732C20.9199 49.9731 20.1391 51.1156 20.0601 52.3865C21.0052 54.0891 23.8369 52.7956 25.428 52.9063C26.5931 52.8344 27.017 52.8069 25.6022 52.5057C19.6419 51.2242 21.774 54.0538 20.9375 48.6732H20.9382Z" fill="#00399F"/>
<path d="M28.8702 48.5294C28.3173 49.9963 28.0345 51.5727 28.2538 53.1327C28.8709 51.6855 29.2109 50.0866 28.8702 48.5294Z" fill="#00399F"/>
<path d="M117.983 31.9517C113.462 32.3594 109.503 34.7199 105.367 36.3752C98.4844 39.049 91.5409 41.8821 85.2582 45.7908C91.1883 43.7821 96.6669 40.6232 102.552 38.4911C103.778 38.087 121.864 31.1766 117.983 31.9524V31.9517Z" fill="#00399F"/>
<path d="M117.888 32.2493C120.46 33.9878 123.582 34.6967 126.46 35.787C129.044 36.7695 131.611 37.7978 134.232 38.6822C140.788 40.6753 147.051 43.4944 153.506 45.7421C146.574 42.7665 139.588 39.9193 132.502 37.3203C127.735 35.3081 123.015 33.133 117.888 32.2493Z" fill="#00399F"/>
<path d="M118.477 0.461548C117.392 5.14533 117.845 9.99767 118.048 14.7548C118.359 19.2474 117.981 23.8092 118.936 28.2398C118.443 22.4805 118.697 16.6767 118.62 10.8962C118.735 7.41634 119.022 3.92096 118.477 0.461548Z" fill="#00399F"/>
<path d="M119.864 0.399475C119.408 0.55111 119.201 1.01095 119.077 1.43483C119.679 0.345873 120.908 0.832518 121.72 1.39181C125.792 4.66291 132.984 4.52467 135.563 1.43483C132.357 2.96176 128.395 3.41244 125.069 2.0054C123.364 1.4983 121.721 -0.133719 119.864 0.398769V0.399475Z" fill="#00399F"/>
<path d="M137.267 4.87097C137.575 7.06934 135.424 8.39527 133.763 9.34387C130.954 10.9695 127.653 10.1712 124.71 9.38478C122.709 8.89108 120.624 8.27749 118.565 8.79587C119.317 8.91365 120.089 9.01803 120.819 9.25642C120.792 9.24866 120.765 9.2409 120.738 9.23244C124.971 10.6388 129.975 12.5691 134.194 10.1747C135.98 9.13299 138.21 7.13704 137.269 4.87097H137.267Z" fill="#00399F"/>
<path d="M136.25 1.56952C136.401 2.9695 136.355 4.41815 136.896 5.74126C137.099 4.32153 137.214 2.75016 136.25 1.56952Z" fill="#00399F"/>
</g>
<defs>
<clipPath id="clip0_1_2062">
<rect width="236.371" height="119.634" fill="white" transform="translate(0.554688 0.293701)"/>
</clipPath>
</defs>
</svg>
