<svg width="25" height="25" viewBox="0 0 25 25" fill="none" xmlns="http://www.w3.org/2000/svg">
<g clip-path="url(#clip0_1_2344)">
<path d="M24.0215 12.834C24.0215 6.20661 18.6489 0.833984 12.0215 0.833984C5.39411 0.833984 0.0214844 6.20661 0.0214844 12.834C0.0214844 18.4618 3.8958 23.1838 9.12255 24.4805V16.5009H6.64811V12.834H9.12255V11.2539C9.12255 7.16942 10.9709 5.27642 14.9808 5.27642C15.7411 5.27642 17.0529 5.4253 17.5895 5.57455V8.89873C17.3064 8.86892 16.8144 8.85392 16.2031 8.85392C14.2355 8.85392 13.4752 9.59923 13.4752 11.537V12.834H17.3949L16.7215 16.5009H13.4752V24.746C19.417 24.0285 24.0215 18.9692 24.0215 12.834Z" fill="#0766FF"/>
<path d="M16.7215 16.5008L17.3949 12.8339H13.4754V11.5369C13.4754 9.59912 14.2355 8.85381 16.2031 8.85381C16.8144 8.85381 17.3064 8.86862 17.5895 8.89844V5.57444C17.0529 5.42519 15.7411 5.27612 14.9808 5.27612C10.9709 5.27612 9.12254 7.16931 9.12254 11.2538V12.8339H6.6481V16.5008H9.12254V24.4804C10.051 24.7109 11.0217 24.8339 12.0215 24.8339C12.5137 24.8339 12.9985 24.8035 13.4754 24.7459V16.5008" fill="white"/>
</g>
<defs>
<clipPath id="clip0_1_2344">
<rect width="24" height="24" fill="white" transform="translate(0.0214844 0.833984)"/>
</clipPath>
</defs>
</svg>
