<svg width="24" height="25" viewBox="0 0 24 25" fill="none" xmlns="http://www.w3.org/2000/svg">
<path fill-rule="evenodd" clip-rule="evenodd" d="M20.4113 4.31899C18.1679 2.07277 15.1843 0.835124 12.0053 0.833984C5.4547 0.833984 0.123482 6.16464 0.121202 12.717C0.120063 14.8116 0.667659 16.8561 1.70758 18.6579L0.0214844 24.8165L6.32139 23.164C8.05704 24.1111 10.0115 24.6096 12.0002 24.6102H12.0053C18.5548 24.6102 23.8866 19.279 23.8889 12.7266C23.89 9.55109 22.6552 6.56579 20.4113 4.31956V4.31899ZM12.0053 22.6033H12.0013C10.2292 22.6028 8.4907 22.1264 6.97386 21.2266L6.61314 21.0124L2.87457 21.993L3.87232 18.3479L3.63755 17.9741C2.64891 16.4014 2.12639 14.5837 2.12753 12.7176C2.12981 7.27179 6.56072 2.84088 12.0094 2.84088C14.6476 2.84202 17.1275 3.87055 18.9924 5.73784C20.8575 7.60457 21.8837 10.0867 21.8826 12.7255C21.8802 18.1719 17.4494 22.6028 12.0053 22.6028V22.6033ZM17.4231 15.2059C17.1263 15.0572 15.6664 14.3392 15.394 14.2401C15.1217 14.1409 14.924 14.0914 14.7262 14.3888C14.5285 14.6863 13.9593 15.3552 13.786 15.5529C13.6128 15.7512 13.4395 15.7758 13.1427 15.627C12.8458 15.4783 11.8891 15.1649 10.7546 14.1535C9.87196 13.366 9.27587 12.3939 9.1027 12.0964C8.92946 11.799 9.08447 11.6383 9.23258 11.4907C9.3659 11.3574 9.52946 11.1437 9.67817 10.9705C9.82694 10.7972 9.87594 10.6731 9.97505 10.4753C10.0742 10.277 10.0246 10.1038 9.95059 9.95505C9.87647 9.80634 9.28277 8.34472 9.03488 7.75043C8.79382 7.1715 8.54884 7.25014 8.36705 7.24045C8.19382 7.2319 7.99611 7.2302 7.79782 7.2302C7.59952 7.2302 7.2781 7.30427 7.00575 7.60172C6.7334 7.89913 5.9664 8.61767 5.9664 10.0787C5.9664 11.5397 7.03028 12.9523 7.17899 13.1506C7.32769 13.3489 9.27302 16.3479 12.2515 17.6345C12.9598 17.9405 13.5131 18.1234 13.9444 18.2602C14.6556 18.4864 15.3029 18.4545 15.8145 18.3781C16.385 18.2927 17.5713 17.6596 17.8186 16.9661C18.0659 16.2726 18.0659 15.6777 17.9918 15.5541C17.9178 15.4304 17.7195 15.3558 17.4226 15.2071L17.4231 15.2059Z" fill="#25D366"/>
</svg>
