<svg width="17" height="17" viewBox="0 0 17 17" fill="none" xmlns="http://www.w3.org/2000/svg">
<path d="M8.04883 2.33398C6.86214 2.33398 5.7021 2.68588 4.71541 3.34517C3.72871 4.00446 2.95968 4.94153 2.50555 6.03788C2.05143 7.13424 1.93261 8.34064 2.16412 9.50453C2.39563 10.6684 2.96707 11.7375 3.80619 12.5766C4.64531 13.4157 5.7144 13.9872 6.87829 14.2187C8.04218 14.4502 9.24857 14.3314 10.3449 13.8773C11.4413 13.4231 12.3784 12.6541 13.0376 11.6674C13.6969 10.6807 14.0488 9.52067 14.0488 8.33398C14.0488 6.74269 13.4167 5.21656 12.2915 4.09134C11.1663 2.96613 9.64013 2.33398 8.04883 2.33398ZM11.1155 10.634C11.0693 10.6965 11.009 10.7472 10.9395 10.7819C10.87 10.8167 10.7932 10.8345 10.7155 10.834C10.6074 10.8335 10.5023 10.7985 10.4155 10.734L7.74883 8.73398C7.68634 8.68778 7.63566 8.62746 7.6009 8.55795C7.56615 8.48844 7.54831 8.4117 7.54883 8.33398V4.33398C7.54883 4.20138 7.60151 4.0742 7.69528 3.98043C7.78905 3.88666 7.91622 3.83398 8.04883 3.83398C8.18144 3.83398 8.30862 3.88666 8.40238 3.98043C8.49615 4.0742 8.54883 4.20138 8.54883 4.33398V8.08065L11.0155 9.93398C11.1216 10.0135 11.1917 10.132 11.2105 10.2633C11.2292 10.3945 11.1951 10.5279 11.1155 10.634Z" fill="white"/>
</svg>
