<svg width="25" height="25" viewBox="0 0 25 25" fill="none" xmlns="http://www.w3.org/2000/svg">
<path d="M22.2498 0.833984H1.79315C1.32328 0.833984 0.872646 1.02064 0.540394 1.35289C0.208142 1.68515 0.0214844 2.13578 0.0214844 2.60565V23.0623C0.0214844 23.5322 0.208142 23.9828 0.540394 24.3151C0.872646 24.6473 1.32328 24.834 1.79315 24.834H22.2498C22.7197 24.834 23.1703 24.6473 23.5026 24.3151C23.8348 23.9828 24.0215 23.5322 24.0215 23.0623V2.60565C24.0215 2.13578 23.8348 1.68515 23.5026 1.35289C23.1703 1.02064 22.7197 0.833984 22.2498 0.833984ZM7.17482 21.279H3.56649V9.81732H7.17482V21.279ZM5.36815 8.22898C4.95885 8.22668 4.5594 8.10318 4.22022 7.87407C3.88104 7.64496 3.61732 7.32052 3.46236 6.94167C3.3074 6.56283 3.26813 6.14658 3.34952 5.74544C3.4309 5.3443 3.62929 4.97626 3.91964 4.68777C4.20999 4.39927 4.5793 4.20325 4.98095 4.12444C5.3826 4.04564 5.7986 4.08758 6.17644 4.24497C6.55428 4.40236 6.87702 4.66815 7.10395 5.0088C7.33088 5.34944 7.45181 5.74968 7.45148 6.15899C7.45535 6.43302 7.404 6.70502 7.3005 6.95879C7.197 7.21255 7.04347 7.44288 6.84906 7.63605C6.65464 7.82922 6.42333 7.98127 6.16891 8.08314C5.91448 8.185 5.64215 8.23461 5.36815 8.22898ZM20.4748 21.289H16.8682V15.0273C16.8682 13.1807 16.0832 12.6107 15.0698 12.6107C13.9998 12.6107 12.9498 13.4173 12.9498 15.074V21.289H9.34148V9.82565H12.8115V11.414H12.8582C13.2065 10.709 14.4265 9.50399 16.2882 9.50399C18.3015 9.50399 20.4765 10.699 20.4765 14.199L20.4748 21.289Z" fill="#0A66C2"/>
</svg>
