<svg width="497" height="497" viewBox="0 0 497 497" fill="none" xmlns="http://www.w3.org/2000/svg">
<path d="M449.229 288.041C450.528 281.571 452.659 275.297 455.571 269.374C463.523 253.092 469.238 238.848 464.179 220.668C451.783 176.266 401.368 171.077 376.498 137.589C338.05 85.8418 243.58 81.3489 198.453 126.069C184.616 139.776 178.135 159.139 164.15 172.698C143.544 192.687 112.949 195.261 91.7864 215.191C57.2847 247.705 53.9349 302.802 84.5601 339.362C116.905 377.968 162.559 371.637 206.902 363.426C228.72 359.391 251.403 355.017 273.639 358.118C321.062 364.798 377.333 390.851 423.295 364.917C447.778 351.101 448.404 329.551 447.837 304.412C447.699 298.921 448.166 293.431 449.229 288.041Z" fill="#407BFF"/>
<path opacity="0.6" d="M449.229 288.041C450.528 281.571 452.659 275.297 455.571 269.374C463.523 253.092 469.238 238.848 464.179 220.668C451.783 176.266 401.368 171.077 376.498 137.589C338.05 85.8418 243.58 81.3489 198.453 126.069C184.616 139.776 178.135 159.139 164.15 172.698C143.544 192.687 112.949 195.261 91.7864 215.191C57.2847 247.705 53.9349 302.802 84.5601 339.362C116.905 377.968 162.559 371.637 206.902 363.426C228.72 359.391 251.403 355.017 273.639 358.118C321.062 364.798 377.333 390.851 423.295 364.917C447.778 351.101 448.404 329.551 447.837 304.412C447.699 298.921 448.166 293.431 449.229 288.041Z" fill="white"/>
<path d="M255.954 423.444C361.082 423.444 446.305 405.421 446.305 383.187C446.305 360.954 361.082 342.93 255.954 342.93C150.827 342.93 65.6035 360.954 65.6035 383.187C65.6035 405.421 150.827 423.444 255.954 423.444Z" fill="#407BFF"/>
<path opacity="0.3" d="M255.954 423.444C361.082 423.444 446.305 405.421 446.305 383.187C446.305 360.954 361.082 342.93 255.954 342.93C150.827 342.93 65.6035 360.954 65.6035 383.187C65.6035 405.421 150.827 423.444 255.954 423.444Z" fill="white"/>
<path d="M38.8161 113.455C38.5842 112.616 38.5314 111.738 38.661 110.878C38.7907 110.017 39.0999 109.194 39.5687 108.461C40.0374 107.727 40.6551 107.101 41.3817 106.622C42.1083 106.144 42.9275 105.823 43.7861 105.682C48.9847 104.976 55.3662 111.954 57.394 116.178C57.563 116.546 59.6404 122.57 59.541 122.57C59.4416 122.57 50.3266 122.778 46.619 121.128C43.3686 119.727 39.6809 117.053 38.8161 113.455ZM172.33 97.4116C171.565 101.03 167.947 103.803 164.786 105.294C161.625 106.785 154.12 107.043 152.281 107.073C151.287 108.256 150.224 109.538 149.081 110.97C147.093 113.514 144.886 116.407 142.699 119.707C142.113 120.592 141.516 121.556 140.92 122.49C142.252 121.128 144.091 119.29 144.289 119.13C147.957 116.218 156.744 112.729 161.108 115.632C161.82 116.132 162.419 116.778 162.865 117.525C163.311 118.273 163.595 119.106 163.698 119.97C163.802 120.835 163.722 121.711 163.464 122.543C163.206 123.374 162.776 124.142 162.201 124.796C159.846 127.659 155.363 128.454 151.864 128.315C148.365 128.176 141.377 124.846 139.886 124.1C138.604 126.178 137.331 128.345 136.139 130.681C133.918 134.892 132.078 139.293 130.642 143.831L130.91 143.961C131.974 142.559 134.29 139.667 134.509 139.458C137.828 136.148 146.188 131.724 150.85 134.12C151.604 134.543 152.261 135.118 152.781 135.809C153.3 136.5 153.669 137.292 153.864 138.134C154.06 138.976 154.077 139.85 153.916 140.699C153.755 141.548 153.418 142.354 152.927 143.066C150.939 146.177 146.536 147.459 143.047 147.698C139.071 147.986 130.711 144.845 130.393 144.716C129.103 149.263 128.107 153.888 127.411 158.562C126.875 162.022 126.467 165.52 126.089 169.089C126.815 168.095 129.857 164.288 130.065 164.039C133.385 160.739 141.745 156.306 146.397 158.712C147.16 159.132 147.826 159.708 148.352 160.402C148.878 161.097 149.251 161.895 149.448 162.744C149.645 163.592 149.661 164.473 149.495 165.328C149.329 166.183 148.984 166.994 148.484 167.707C146.496 170.809 142.093 172.091 138.604 172.329C134.677 172.608 126.676 169.636 126.02 169.347C125.851 170.958 125.682 172.558 125.523 174.178C125.006 179.436 124.529 184.725 123.873 189.923C123.644 191.722 123.366 193.492 123.087 195.261C124.221 193.79 126.328 191.156 126.537 190.947C129.857 187.647 138.216 183.214 142.878 185.619C143.633 186.041 144.292 186.615 144.812 187.306C145.332 187.998 145.701 188.79 145.897 189.632C146.093 190.475 146.11 191.349 145.948 192.198C145.786 193.048 145.448 193.854 144.955 194.565C142.967 197.666 138.564 198.949 135.075 199.197C131.586 199.446 124.807 197.09 122.909 196.394C122.421 199.376 121.915 202.249 121.199 205.082C120.881 206.304 120.642 207.567 120.264 208.72L119.27 212.189C118.475 214.535 117.75 216.711 116.954 218.878C116.557 219.972 116.169 220.996 115.772 222.059C116.696 220.389 118.207 217.785 118.366 217.556C121.149 213.789 128.733 208.153 133.703 209.823C134.522 210.121 135.268 210.589 135.894 211.195C136.519 211.801 137.01 212.532 137.333 213.341C137.657 214.149 137.806 215.017 137.772 215.887C137.737 216.758 137.519 217.611 137.133 218.391C135.602 221.771 131.477 223.699 128.057 224.465C124.3 225.32 116.229 223.679 115.245 223.471C114.251 226.065 113.257 228.57 112.322 230.906C109.34 238.291 106.508 244.335 104.49 248.539L104.162 249.215H118.863L113.784 348.218C113.645 351.878 112.09 355.341 109.448 357.878C106.806 360.414 103.282 361.826 99.6191 361.816C95.9918 361.818 92.5023 360.426 89.8717 357.929C87.2411 355.432 85.6705 352.019 85.4844 348.397L80.4051 249.394H96.1898C96.1103 248.708 96.0308 247.983 95.9413 247.168C95.4145 242.595 94.5596 236.055 93.1879 228.282C92.8003 226.035 92.353 223.66 91.856 221.224C90.862 221.353 82.6913 222.387 79.0035 221.224C75.6637 220.23 71.6877 217.964 70.4154 214.485C70.0893 213.678 69.9367 212.811 69.9676 211.941C69.9985 211.071 70.2122 210.218 70.5947 209.436C70.9772 208.654 71.52 207.961 72.1879 207.403C72.8557 206.844 73.6336 206.433 74.4709 206.195C79.5502 204.893 86.6971 211.095 89.192 215.051C89.3511 215.31 90.8918 218.521 91.6472 220.181C91.349 218.709 91.0608 217.248 90.7228 215.717C90.2457 213.521 89.7288 211.215 89.1423 208.968C88.8243 207.815 88.4962 206.652 88.1483 205.479C87.8004 204.306 87.4028 203.193 87.0351 202.02C86.4585 200.33 85.7727 198.611 85.0471 196.891C82.8404 197.507 76.3197 199.187 72.97 198.7C69.6202 198.213 65.2366 196.593 63.4574 193.352C63.0114 192.604 62.7282 191.769 62.6262 190.904C62.5243 190.038 62.6058 189.161 62.8656 188.329C63.1254 187.498 63.5576 186.73 64.1339 186.076C64.7103 185.422 65.418 184.898 66.2108 184.536C71.0317 182.478 79.0334 187.518 82.1148 191.066C82.2142 191.176 82.7907 191.991 83.4567 192.965C82.741 191.315 82.0352 189.655 81.2599 187.995C79.0532 183.303 76.6577 178.582 74.3019 173.85C73.8049 172.856 73.3079 171.862 72.8308 170.868C70.972 171.395 63.8848 173.284 60.4157 172.777C56.9467 172.27 52.6824 170.669 50.9032 167.419C50.4646 166.671 50.1879 165.838 50.091 164.976C49.9941 164.114 50.079 163.242 50.3404 162.415C50.6017 161.587 51.0336 160.824 51.6083 160.174C52.1829 159.525 52.8875 159.003 53.6764 158.642C58.4973 156.594 66.499 161.624 69.5804 165.183C69.6898 165.302 70.3756 166.276 71.1211 167.379C69.8687 164.785 68.6461 162.191 67.5129 159.566C65.556 155.088 63.8957 150.486 62.5429 145.79C61.8968 145.978 53.6764 148.364 49.77 147.778C46.3109 147.281 42.0466 145.67 40.2674 142.43C39.8211 141.682 39.5374 140.848 39.4347 139.983C39.3321 139.118 39.4128 138.241 39.6716 137.409C39.9304 136.577 40.3615 135.81 40.9368 135.155C41.5122 134.501 42.2188 133.976 43.0108 133.613C47.8416 131.565 55.8433 136.595 58.9148 140.144C59.1335 140.402 61.5588 143.941 62.3839 145.243C62.3795 145.187 62.3795 145.13 62.3839 145.074C61.1681 140.426 60.3697 135.679 59.9983 130.89C59.6328 126.616 59.5133 122.325 59.6404 118.037C59.7398 114.061 60.0678 110.423 60.3859 107.212C60.5748 105.473 60.7736 103.883 60.9823 102.401L60.8929 102.461C60.8034 102.521 59.054 96.3977 58.9844 96.0001C58.2091 91.378 59.4416 82.0046 64.0935 79.5892C64.8786 79.2108 65.7345 79.0019 66.6056 78.9759C67.4767 78.9499 68.3435 79.1075 69.1497 79.4385C69.9559 79.7694 70.6835 80.2662 71.2852 80.8967C71.8868 81.5272 72.3491 82.2772 72.6419 83.098C73.9938 86.5472 72.5028 90.8512 70.6539 93.8431C68.8051 96.8351 62.7019 101.179 61.2109 102.223C61.032 103.763 60.8531 105.413 60.6941 107.193C60.4456 110.403 60.1971 114.031 60.1871 117.997C60.1871 119.061 60.1871 120.194 60.2368 121.297C60.5947 119.429 61.1215 116.884 61.2308 116.636C62.6721 112.182 68.0795 104.429 73.3278 104.439C74.1984 104.465 75.0538 104.673 75.8385 105.051C76.6232 105.429 77.3195 105.968 77.8821 106.632C78.4447 107.297 78.861 108.073 79.1039 108.909C79.3468 109.746 79.4108 110.624 79.2918 111.487C78.9141 115.174 75.6041 118.305 72.6121 120.124C69.6202 121.944 61.9167 123.067 60.2666 123.256C60.3462 125.701 60.4754 128.226 60.7736 130.81C61.2451 135.545 62.1365 140.228 63.4375 144.806H63.7357C63.855 143.046 64.1929 139.358 64.2526 139.05C65.2466 134.468 69.7196 126.128 74.9381 125.601C75.8061 125.531 76.6792 125.645 77.5005 125.934C78.3218 126.224 79.0728 126.684 79.7048 127.283C80.3368 127.882 80.8356 128.607 81.1686 129.412C81.5016 130.217 81.6614 131.083 81.6376 131.953C81.6376 135.651 78.7252 139.14 75.952 141.267C72.7513 143.722 64.0836 145.69 63.7556 145.76C65.1715 150.274 66.8815 154.69 68.8747 158.98C70.3359 162.161 71.9362 165.332 73.5763 168.493C73.6359 167.25 74.0733 162.409 74.1429 162.061C75.1369 157.479 79.6099 149.139 84.8284 148.603C85.6961 148.534 86.5685 148.649 87.3891 148.939C88.2097 149.229 88.9601 149.689 89.5917 150.287C90.2234 150.886 90.7222 151.611 91.0557 152.415C91.3893 153.219 91.5501 154.084 91.5279 154.954C91.5279 158.662 88.6056 162.141 85.8323 164.268C82.7112 166.664 74.4212 168.592 73.7155 168.751C74.461 170.182 75.2065 171.624 75.9619 173.055C78.437 177.737 80.9319 182.409 83.2777 187.1C84.0829 188.73 84.8184 190.361 85.5639 191.991C85.6932 190.132 86.0112 186.772 86.0609 186.484C87.0549 181.902 91.5379 173.562 96.7464 173.025C97.6145 172.955 98.4876 173.069 99.3088 173.358C100.13 173.648 100.881 174.107 101.513 174.706C102.145 175.306 102.644 176.031 102.977 176.836C103.31 177.64 103.47 178.506 103.446 179.377C103.446 183.084 100.534 186.563 97.7603 188.691C94.9871 190.818 88.0291 192.597 86.0709 193.074C87.2935 195.818 88.4664 198.501 89.4604 201.245C89.868 202.438 90.355 203.62 90.683 204.783L91.7367 208.253C92.3629 210.648 92.9593 212.865 93.4961 215.111C93.7744 216.244 94.003 217.318 94.2614 218.411C94.1123 216.523 93.9334 213.511 93.9434 213.232C94.1919 208.561 97.4025 199.664 102.472 198.322C103.32 198.122 104.2 198.102 105.056 198.264C105.912 198.426 106.724 198.767 107.44 199.264C108.155 199.761 108.758 200.403 109.209 201.149C109.66 201.894 109.948 202.726 110.056 203.591C110.126 204.044 110.156 204.503 110.146 204.962C112.187 208.537 113.278 212.575 113.316 216.692C113.316 216.99 112.829 220.518 112.541 222.318C113.108 220.926 113.664 219.544 114.221 218.093C115.046 215.996 115.841 213.759 116.636 211.592L117.75 208.143C118.147 206.98 118.386 205.827 118.744 204.644C119.201 202.915 119.579 201.096 119.956 199.297C117.779 198.581 111.408 196.394 108.883 194.138C106.358 191.881 103.605 188.114 103.913 184.426C103.956 183.557 104.181 182.706 104.573 181.929C104.966 181.152 105.518 180.466 106.193 179.916C106.867 179.366 107.65 178.963 108.491 178.735C109.331 178.507 110.21 178.458 111.07 178.592C116.229 179.586 120.125 188.164 120.722 192.806C120.722 192.955 120.771 193.949 120.791 195.132C121.109 193.362 121.437 191.583 121.696 189.774C122.451 184.645 123.048 179.387 123.684 174.129C123.813 173.025 123.962 171.932 124.091 170.838C122.252 170.252 115.334 167.946 112.69 165.58C110.046 163.214 107.412 159.556 107.72 155.869C107.76 154.998 107.983 154.146 108.374 153.367C108.766 152.588 109.318 151.901 109.993 151.35C110.669 150.8 111.453 150.398 112.295 150.171C113.136 149.944 114.016 149.897 114.877 150.034C120.036 151.028 123.922 159.606 124.529 164.248C124.529 164.407 124.529 165.6 124.598 166.932C124.976 164.069 125.394 161.236 125.9 158.423C126.725 153.586 127.878 148.811 129.35 144.13C128.694 143.931 120.533 141.386 117.591 138.762C114.976 136.426 112.303 132.738 112.621 129.051C112.66 128.18 112.883 127.327 113.275 126.549C113.667 125.77 114.218 125.083 114.894 124.532C115.569 123.982 116.354 123.58 117.195 123.353C118.037 123.126 118.917 123.079 119.777 123.216C124.926 124.21 128.823 132.788 129.429 137.43C129.429 137.758 129.538 142.052 129.509 143.593C129.509 143.533 129.509 143.474 129.558 143.424C131.111 138.877 133.064 134.476 135.393 130.273C137.461 126.501 139.745 122.85 142.232 119.339C144.508 116.069 146.784 113.226 148.832 110.721C149.945 109.369 150.989 108.157 151.973 107.034H151.864C151.764 107.034 153.683 100.95 153.852 100.582C155.76 96.3083 161.953 89.1614 167.161 89.718C168.029 89.8363 168.862 90.1368 169.605 90.5999C170.348 91.063 170.984 91.6781 171.472 92.4048C171.961 93.1316 172.29 93.9534 172.437 94.8164C172.585 95.6793 172.549 96.5638 172.33 97.4116ZM112.203 223.252C111.309 222.825 104.44 219.425 101.756 216.513C99.4333 217.778 97.0368 218.903 94.5795 219.882C95.1859 222.586 95.7624 225.22 96.2494 227.695C97.8001 235.528 98.804 242.108 99.4402 246.73C99.5694 247.724 99.6887 248.589 99.7881 249.394H100.136L101.289 247.158C103.366 243.052 106.259 237.128 109.42 229.872C110.334 227.785 111.269 225.558 112.203 223.252ZM139.677 123.156C139.757 123.156 141.347 117.043 141.407 116.636C142.053 112.004 140.572 102.66 135.85 100.374C135.055 100.017 134.193 99.8319 133.321 99.8302C132.45 99.8285 131.587 100.01 130.79 100.364C129.994 100.717 129.28 101.234 128.696 101.882C128.112 102.529 127.671 103.292 127.401 104.121C126.139 107.6 127.749 111.864 129.648 114.797C131.874 118.286 139.667 123.156 139.677 123.156Z" fill="#407BFF"/>
<path opacity="0.3" d="M38.8161 113.455C38.5842 112.616 38.5314 111.738 38.661 110.878C38.7907 110.017 39.0999 109.194 39.5687 108.461C40.0374 107.727 40.6551 107.101 41.3817 106.622C42.1083 106.144 42.9275 105.823 43.7861 105.682C48.9847 104.976 55.3662 111.954 57.394 116.178C57.563 116.546 59.6404 122.57 59.541 122.57C59.4416 122.57 50.3266 122.778 46.619 121.128C43.3686 119.727 39.6809 117.053 38.8161 113.455ZM172.33 97.4116C171.565 101.03 167.947 103.803 164.786 105.294C161.625 106.785 154.12 107.043 152.281 107.073C151.287 108.256 150.224 109.538 149.081 110.97C147.093 113.514 144.886 116.407 142.699 119.707C142.113 120.592 141.516 121.556 140.92 122.49C142.252 121.128 144.091 119.29 144.289 119.13C147.957 116.218 156.744 112.729 161.108 115.632C161.82 116.132 162.419 116.778 162.865 117.525C163.311 118.273 163.595 119.106 163.698 119.97C163.802 120.835 163.722 121.711 163.464 122.543C163.206 123.374 162.776 124.142 162.201 124.796C159.846 127.659 155.363 128.454 151.864 128.315C148.365 128.176 141.377 124.846 139.886 124.1C138.604 126.178 137.331 128.345 136.139 130.681C133.918 134.892 132.078 139.293 130.642 143.831L130.91 143.961C131.974 142.559 134.29 139.667 134.509 139.458C137.828 136.148 146.188 131.724 150.85 134.12C151.604 134.543 152.261 135.118 152.781 135.809C153.3 136.5 153.669 137.292 153.864 138.134C154.06 138.976 154.077 139.85 153.916 140.699C153.755 141.548 153.418 142.354 152.927 143.066C150.939 146.177 146.536 147.459 143.047 147.698C139.071 147.986 130.711 144.845 130.393 144.716C129.103 149.263 128.107 153.888 127.411 158.562C126.875 162.022 126.467 165.52 126.089 169.089C126.815 168.095 129.857 164.288 130.065 164.039C133.385 160.739 141.745 156.306 146.397 158.712C147.16 159.132 147.826 159.708 148.352 160.402C148.878 161.097 149.251 161.895 149.448 162.744C149.645 163.592 149.661 164.473 149.495 165.328C149.329 166.183 148.984 166.994 148.484 167.707C146.496 170.809 142.093 172.091 138.604 172.329C134.677 172.608 126.676 169.636 126.02 169.347C125.851 170.958 125.682 172.558 125.523 174.178C125.006 179.436 124.529 184.725 123.873 189.923C123.644 191.722 123.366 193.492 123.087 195.261C124.221 193.79 126.328 191.156 126.537 190.947C129.857 187.647 138.216 183.214 142.878 185.619C143.633 186.041 144.292 186.615 144.812 187.306C145.332 187.998 145.701 188.79 145.897 189.632C146.093 190.475 146.11 191.349 145.948 192.198C145.786 193.048 145.448 193.854 144.955 194.565C142.967 197.666 138.564 198.949 135.075 199.197C131.586 199.446 124.807 197.09 122.909 196.394C122.421 199.376 121.915 202.249 121.199 205.082C120.881 206.304 120.642 207.567 120.264 208.72L119.27 212.189C118.475 214.535 117.75 216.711 116.954 218.878C116.557 219.972 116.169 220.996 115.772 222.059C116.696 220.389 118.207 217.785 118.366 217.556C121.149 213.789 128.733 208.153 133.703 209.823C134.522 210.121 135.268 210.589 135.894 211.195C136.519 211.801 137.01 212.532 137.333 213.341C137.657 214.149 137.806 215.017 137.772 215.887C137.737 216.758 137.519 217.611 137.133 218.391C135.602 221.771 131.477 223.699 128.057 224.465C124.3 225.32 116.229 223.679 115.245 223.471C114.251 226.065 113.257 228.57 112.322 230.906C109.34 238.291 106.508 244.335 104.49 248.539L104.162 249.215H118.863L113.784 348.218C113.645 351.878 112.09 355.341 109.448 357.878C106.806 360.414 103.282 361.826 99.6191 361.816C95.9918 361.818 92.5023 360.426 89.8717 357.929C87.2411 355.432 85.6705 352.019 85.4844 348.397L80.4051 249.394H96.1898C96.1103 248.708 96.0308 247.983 95.9413 247.168C95.4145 242.595 94.5596 236.055 93.1879 228.282C92.8003 226.035 92.353 223.66 91.856 221.224C90.862 221.353 82.6913 222.387 79.0035 221.224C75.6637 220.23 71.6877 217.964 70.4154 214.485C70.0893 213.678 69.9367 212.811 69.9676 211.941C69.9985 211.071 70.2122 210.218 70.5947 209.436C70.9772 208.654 71.52 207.961 72.1879 207.403C72.8557 206.844 73.6336 206.433 74.4709 206.195C79.5502 204.893 86.6971 211.095 89.192 215.051C89.3511 215.31 90.8918 218.521 91.6472 220.181C91.349 218.709 91.0608 217.248 90.7228 215.717C90.2457 213.521 89.7288 211.215 89.1423 208.968C88.8243 207.815 88.4962 206.652 88.1483 205.479C87.8004 204.306 87.4028 203.193 87.0351 202.02C86.4585 200.33 85.7727 198.611 85.0471 196.891C82.8404 197.507 76.3197 199.187 72.97 198.7C69.6202 198.213 65.2366 196.593 63.4574 193.352C63.0114 192.604 62.7282 191.769 62.6262 190.904C62.5243 190.038 62.6058 189.161 62.8656 188.329C63.1254 187.498 63.5576 186.73 64.1339 186.076C64.7103 185.422 65.418 184.898 66.2108 184.536C71.0317 182.478 79.0334 187.518 82.1148 191.066C82.2142 191.176 82.7907 191.991 83.4567 192.965C82.741 191.315 82.0352 189.655 81.2599 187.995C79.0532 183.303 76.6577 178.582 74.3019 173.85C73.8049 172.856 73.3079 171.862 72.8308 170.868C70.972 171.395 63.8848 173.284 60.4157 172.777C56.9467 172.27 52.6824 170.669 50.9032 167.419C50.4646 166.671 50.1879 165.838 50.091 164.976C49.9941 164.114 50.079 163.242 50.3404 162.415C50.6017 161.587 51.0336 160.824 51.6083 160.174C52.1829 159.525 52.8875 159.003 53.6764 158.642C58.4973 156.594 66.499 161.624 69.5804 165.183C69.6898 165.302 70.3756 166.276 71.1211 167.379C69.8687 164.785 68.6461 162.191 67.5129 159.566C65.556 155.088 63.8957 150.486 62.5429 145.79C61.8968 145.978 53.6764 148.364 49.77 147.778C46.3109 147.281 42.0466 145.67 40.2674 142.43C39.8211 141.682 39.5374 140.848 39.4347 139.983C39.3321 139.118 39.4128 138.241 39.6716 137.409C39.9304 136.577 40.3615 135.81 40.9368 135.155C41.5122 134.501 42.2188 133.976 43.0108 133.613C47.8416 131.565 55.8433 136.595 58.9148 140.144C59.1335 140.402 61.5588 143.941 62.3839 145.243C62.3795 145.187 62.3795 145.13 62.3839 145.074C61.1681 140.426 60.3697 135.679 59.9983 130.89C59.6328 126.616 59.5133 122.325 59.6404 118.037C59.7398 114.061 60.0678 110.423 60.3859 107.212C60.5748 105.473 60.7736 103.883 60.9823 102.401L60.8929 102.461C60.8034 102.521 59.054 96.3977 58.9844 96.0001C58.2091 91.378 59.4416 82.0046 64.0935 79.5892C64.8786 79.2108 65.7345 79.0019 66.6056 78.9759C67.4767 78.9499 68.3435 79.1075 69.1497 79.4385C69.9559 79.7694 70.6835 80.2662 71.2852 80.8967C71.8868 81.5272 72.3491 82.2772 72.6419 83.098C73.9938 86.5472 72.5028 90.8512 70.6539 93.8431C68.8051 96.8351 62.7019 101.179 61.2109 102.223C61.032 103.763 60.8531 105.413 60.6941 107.193C60.4456 110.403 60.1971 114.031 60.1871 117.997C60.1871 119.061 60.1871 120.194 60.2368 121.297C60.5947 119.429 61.1215 116.884 61.2308 116.636C62.6721 112.182 68.0795 104.429 73.3278 104.439C74.1984 104.465 75.0538 104.673 75.8385 105.051C76.6232 105.429 77.3195 105.968 77.8821 106.632C78.4447 107.297 78.861 108.073 79.1039 108.909C79.3468 109.746 79.4108 110.624 79.2918 111.487C78.9141 115.174 75.6041 118.305 72.6121 120.124C69.6202 121.944 61.9167 123.067 60.2666 123.256C60.3462 125.701 60.4754 128.226 60.7736 130.81C61.2451 135.545 62.1365 140.228 63.4375 144.806H63.7357C63.855 143.046 64.1929 139.358 64.2526 139.05C65.2466 134.468 69.7196 126.128 74.9381 125.601C75.8061 125.531 76.6792 125.645 77.5005 125.934C78.3218 126.224 79.0728 126.684 79.7048 127.283C80.3368 127.882 80.8356 128.607 81.1686 129.412C81.5016 130.217 81.6614 131.083 81.6376 131.953C81.6376 135.651 78.7252 139.14 75.952 141.267C72.7513 143.722 64.0836 145.69 63.7556 145.76C65.1715 150.274 66.8815 154.69 68.8747 158.98C70.3359 162.161 71.9362 165.332 73.5763 168.493C73.6359 167.25 74.0733 162.409 74.1429 162.061C75.1369 157.479 79.6099 149.139 84.8284 148.603C85.6961 148.534 86.5685 148.649 87.3891 148.939C88.2097 149.229 88.9601 149.689 89.5917 150.287C90.2234 150.886 90.7222 151.611 91.0557 152.415C91.3893 153.219 91.5501 154.084 91.5279 154.954C91.5279 158.662 88.6056 162.141 85.8323 164.268C82.7112 166.664 74.4212 168.592 73.7155 168.751C74.461 170.182 75.2065 171.624 75.9619 173.055C78.437 177.737 80.9319 182.409 83.2777 187.1C84.0829 188.73 84.8184 190.361 85.5639 191.991C85.6932 190.132 86.0112 186.772 86.0609 186.484C87.0549 181.902 91.5379 173.562 96.7464 173.025C97.6145 172.955 98.4876 173.069 99.3088 173.358C100.13 173.648 100.881 174.107 101.513 174.706C102.145 175.306 102.644 176.031 102.977 176.836C103.31 177.64 103.47 178.506 103.446 179.377C103.446 183.084 100.534 186.563 97.7603 188.691C94.9871 190.818 88.0291 192.597 86.0709 193.074C87.2935 195.818 88.4664 198.501 89.4604 201.245C89.868 202.438 90.355 203.62 90.683 204.783L91.7367 208.253C92.3629 210.648 92.9593 212.865 93.4961 215.111C93.7744 216.244 94.003 217.318 94.2614 218.411C94.1123 216.523 93.9334 213.511 93.9434 213.232C94.1919 208.561 97.4025 199.664 102.472 198.322C103.32 198.122 104.2 198.102 105.056 198.264C105.912 198.426 106.724 198.767 107.44 199.264C108.155 199.761 108.758 200.403 109.209 201.149C109.66 201.894 109.948 202.726 110.056 203.591C110.126 204.044 110.156 204.503 110.146 204.962C112.187 208.537 113.278 212.575 113.316 216.692C113.316 216.99 112.829 220.518 112.541 222.318C113.108 220.926 113.664 219.544 114.221 218.093C115.046 215.996 115.841 213.759 116.636 211.592L117.75 208.143C118.147 206.98 118.386 205.827 118.744 204.644C119.201 202.915 119.579 201.096 119.956 199.297C117.779 198.581 111.408 196.394 108.883 194.138C106.358 191.881 103.605 188.114 103.913 184.426C103.956 183.557 104.181 182.706 104.573 181.929C104.966 181.152 105.518 180.466 106.193 179.916C106.867 179.366 107.65 178.963 108.491 178.735C109.331 178.507 110.21 178.458 111.07 178.592C116.229 179.586 120.125 188.164 120.722 192.806C120.722 192.955 120.771 193.949 120.791 195.132C121.109 193.362 121.437 191.583 121.696 189.774C122.451 184.645 123.048 179.387 123.684 174.129C123.813 173.025 123.962 171.932 124.091 170.838C122.252 170.252 115.334 167.946 112.69 165.58C110.046 163.214 107.412 159.556 107.72 155.869C107.76 154.998 107.983 154.146 108.374 153.367C108.766 152.588 109.318 151.901 109.993 151.35C110.669 150.8 111.453 150.398 112.295 150.171C113.136 149.944 114.016 149.897 114.877 150.034C120.036 151.028 123.922 159.606 124.529 164.248C124.529 164.407 124.529 165.6 124.598 166.932C124.976 164.069 125.394 161.236 125.9 158.423C126.725 153.586 127.878 148.811 129.35 144.13C128.694 143.931 120.533 141.386 117.591 138.762C114.976 136.426 112.303 132.738 112.621 129.051C112.66 128.18 112.883 127.327 113.275 126.549C113.667 125.77 114.218 125.083 114.894 124.532C115.569 123.982 116.354 123.58 117.195 123.353C118.037 123.126 118.917 123.079 119.777 123.216C124.926 124.21 128.823 132.788 129.429 137.43C129.429 137.758 129.538 142.052 129.509 143.593C129.509 143.533 129.509 143.474 129.558 143.424C131.111 138.877 133.064 134.476 135.393 130.273C137.461 126.501 139.745 122.85 142.232 119.339C144.508 116.069 146.784 113.226 148.832 110.721C149.945 109.369 150.989 108.157 151.973 107.034H151.864C151.764 107.034 153.683 100.95 153.852 100.582C155.76 96.3083 161.953 89.1614 167.161 89.718C168.029 89.8363 168.862 90.1368 169.605 90.5999C170.348 91.063 170.984 91.6781 171.472 92.4048C171.961 93.1316 172.29 93.9534 172.437 94.8164C172.585 95.6793 172.549 96.5638 172.33 97.4116ZM112.203 223.252C111.309 222.825 104.44 219.425 101.756 216.513C99.4333 217.778 97.0368 218.903 94.5795 219.882C95.1859 222.586 95.7624 225.22 96.2494 227.695C97.8001 235.528 98.804 242.108 99.4402 246.73C99.5694 247.724 99.6887 248.589 99.7881 249.394H100.136L101.289 247.158C103.366 243.052 106.259 237.128 109.42 229.872C110.334 227.785 111.269 225.558 112.203 223.252ZM139.677 123.156C139.757 123.156 141.347 117.043 141.407 116.636C142.053 112.004 140.572 102.66 135.85 100.374C135.055 100.017 134.193 99.8319 133.321 99.8302C132.45 99.8285 131.587 100.01 130.79 100.364C129.994 100.717 129.28 101.234 128.696 101.882C128.112 102.529 127.671 103.292 127.401 104.121C126.139 107.6 127.749 111.864 129.648 114.797C131.874 118.286 139.667 123.156 139.677 123.156Z" fill="white"/>
<path d="M421.068 158.304C421.068 158.304 411.347 165.739 410.005 171.465C408.663 177.19 410.393 183.283 411.536 186.911C412.679 190.539 412.868 208.084 402.192 215.896C391.516 223.709 386.745 231.532 387.888 241.263C389.031 250.995 403.524 261.67 415.541 264.125C427.559 266.58 444.526 261.074 451.196 246.77C457.866 232.466 448.91 216.692 443.95 207.746C438.99 198.8 439.378 190.39 444.944 190.013C450.51 189.635 453.333 191.007 453.532 183.144C453.731 175.282 451.812 163.125 441.704 157.022C431.595 150.919 421.068 158.304 421.068 158.304Z" fill="#2E353A" stroke="#2E353A" stroke-width="1.65667" stroke-linecap="round" stroke-linejoin="round"/>
<path d="M397.133 254.225C398.127 254.891 407.073 258.539 413.693 248.261C420.313 237.983 411.297 228.51 413.037 219.435" stroke="white" stroke-width="0.828333" stroke-miterlimit="10"/>
<path d="M431.941 170.132C431.941 170.132 428.84 160.113 435.559 163.363C442.766 166.842 448.481 183.243 445.996 186.971" stroke="white" stroke-width="0.828333" stroke-miterlimit="10"/>
<path d="M430.093 168.831C430.093 168.831 426.365 161.624 428.85 158.394C431.335 155.163 437.051 158.891 440.033 161.127" stroke="white" stroke-width="0.828333" stroke-miterlimit="10"/>
<path d="M438.542 188.462C438.542 188.462 439.536 192.935 436.554 201.881C433.572 210.827 428.105 221.016 433.572 230.459C439.039 239.902 443.264 246.363 437.051 255.806" stroke="white" stroke-width="0.828333" stroke-miterlimit="10"/>
<path d="M438.544 193.681C438.76 199.507 438.343 205.339 437.301 211.076C435.562 221.016 441.029 227.477 446.744 233.689C452.46 239.902 450.969 245.12 448.981 250.836" stroke="white" stroke-width="0.828333" stroke-miterlimit="10"/>
<path d="M429.846 170.321C429.846 170.321 418.166 171.315 414.687 169.824C411.208 168.333 411.954 167.091 411.954 167.091" stroke="white" stroke-width="0.828333" stroke-miterlimit="10"/>
<path d="M431.396 210.022C431.396 210.022 432.916 225.469 434.865 234.405C436.813 243.341 439.914 254.623 439.139 257.734C438.363 260.845 421.247 287.276 421.247 287.276L416.197 283.777L426.694 252.287L417.857 222.765C417.857 222.765 425.948 210.907 431.396 210.022Z" fill="white" stroke="#2E353A" stroke-width="1.65667" stroke-linecap="round" stroke-linejoin="round"/>
<path d="M430.036 207.507C427.551 204.645 422.213 197.209 422.213 197.209L413.824 187.269L402.194 171.256C400.663 169.159 395.514 169.914 380.644 170.113C365.774 170.312 320.636 161.724 320.636 161.724L319.115 171.664C319.115 171.664 360.426 180.61 370.913 181.604C381.399 182.598 391.131 183.89 391.131 183.89C389.698 186.743 388.424 189.673 387.314 192.667C386.17 196.096 372.821 214.406 372.821 214.406C372.821 214.406 372.493 214.604 371.926 214.982C371.777 218.302 372.095 225.35 377.055 229.067C380.892 231.94 386.508 233.152 390.564 233.659C390.634 233.431 390.693 233.232 390.743 233.093C391.319 231.562 395.514 229.276 397.8 229.117C400.086 228.958 407.144 229.306 411.348 228.928C415.553 228.55 417.829 222.825 417.829 222.825C417.829 222.825 427.093 213.779 431.358 210.082C431.093 209.144 430.644 208.269 430.036 207.507Z" fill="white" stroke="#2E353A" stroke-width="1.65667" stroke-linecap="round" stroke-linejoin="round"/>
<path d="M396.407 186.196L391.129 183.86L394.966 189.963" stroke="#2E353A" stroke-width="1.2425" stroke-linecap="round" stroke-linejoin="round"/>
<path d="M383.096 220.926C387.068 223.39 391.768 224.412 396.405 223.818" stroke="#2E353A" stroke-width="1.2425" stroke-linecap="round" stroke-linejoin="round"/>
<path d="M378.713 213.978C378.713 213.978 379.578 217.457 385.084 219.773" stroke="#2E353A" stroke-width="1.2425" stroke-linecap="round" stroke-linejoin="round"/>
<path d="M426.664 252.287C426.664 252.287 430.272 250.736 433.165 254.792" stroke="#2E353A" stroke-width="1.2425" stroke-linecap="round" stroke-linejoin="round"/>
<path d="M427.669 225.27L417.828 222.765L426.506 229.613" stroke="#2E353A" stroke-width="1.2425" stroke-linecap="round" stroke-linejoin="round"/>
<path d="M400.751 174.943C400.751 174.943 395.831 183.621 390.046 183.333C382.183 182.935 359.938 176.375 359.938 174.068C359.938 171.762 366.021 170.888 366.021 170.888" stroke="#2E353A" stroke-width="1.2425" stroke-linecap="round" stroke-linejoin="round"/>
<path d="M417.828 182.141C417.828 182.141 413.852 181.147 410.959 182.906C408.067 184.665 400.473 201.215 400.473 201.215C400.473 201.215 401.039 201.981 403.335 201.981C405.631 201.981 406.198 205.032 406.198 207.885C406.198 210.738 405.999 212.08 406.954 211.861C407.908 211.643 413.633 209.575 414.776 210.34C415.919 211.106 413.246 214.913 413.782 215.31C414.319 215.708 419.12 210.917 420.651 205.768C422.182 200.619 423.702 192.995 423.315 189.943C422.927 186.892 420.462 182.896 417.828 182.141Z" fill="#407BFF" stroke="#2E353A" stroke-width="1.65667" stroke-linecap="round" stroke-linejoin="round"/>
<path d="M421.068 197.975C418.968 200.318 416.741 202.544 414.398 204.645C410.005 208.621 406.387 211.513 406.575 209.615C406.764 207.716 411.148 197.408 412.291 191.723C413.434 186.037 415.541 182.18 417.828 182.18C420.114 182.18 425.074 193.83 421.068 197.975Z" fill="white" stroke="#2E353A" stroke-width="1.65667" stroke-linecap="round" stroke-linejoin="round"/>
<path d="M418.782 173.374C418.935 173.838 419.183 174.265 419.512 174.626C419.841 174.988 420.243 175.276 420.691 175.471C422.023 175.849 431.943 170.133 431.943 170.133C431.943 170.133 439 185.192 437.847 187.479C436.694 189.765 433.275 192.637 429.458 195.301C425.641 197.965 418.593 200.073 415.919 198.542C413.246 197.011 415.154 181.385 415.154 181.385C415.154 181.385 413.057 178.9 415.343 174.895C417.629 170.889 418.782 173.374 418.782 173.374Z" fill="white" stroke="#2E353A" stroke-width="1.65667" stroke-linecap="round" stroke-linejoin="round"/>
<path d="M434.756 188.929C434.756 188.929 434.925 187.747 432.718 187.747C430.511 187.747 426.635 191.802 426.635 191.802" stroke="#2E353A" stroke-width="1.2425" stroke-linecap="round" stroke-linejoin="round"/>
<path d="M425.115 192.14L423.932 190.957" stroke="#2E353A" stroke-width="1.2425" stroke-linecap="round" stroke-linejoin="round"/>
<path d="M423.445 194.346C423.445 194.346 420.403 193.839 419.896 189.943" stroke="#2E353A" stroke-width="1.2425" stroke-linecap="round" stroke-linejoin="round"/>
<path d="M430.48 182.787C430.48 182.787 429.724 179.079 426.504 178.363" stroke="#2E353A" stroke-width="1.2425" stroke-linecap="round" stroke-linejoin="round"/>
<path d="M426.654 184.774C425.879 185.381 425.024 185.58 424.736 185.212C424.448 184.844 424.835 184.059 425.601 183.452C426.366 182.846 427.231 182.647 427.519 183.015C427.807 183.383 427.42 184.168 426.654 184.774Z" fill="#2E353A"/>
<path d="M431.445 191.036C430.809 191.533 430.103 191.702 429.864 191.394C429.626 191.086 429.944 190.4 430.58 189.933C431.216 189.466 431.922 189.277 432.16 189.575C432.399 189.873 432.081 190.529 431.445 191.036Z" fill="#2E353A"/>
<path d="M412.888 353.337L422.639 366.885C422.639 366.885 422.639 369.37 419.16 369.37C415.681 369.37 413.693 369.37 411.705 366.885C409.717 364.4 409.717 362.909 407.729 361.915C405.741 360.921 403.753 360.921 404.747 355.454C405.741 349.987 412.888 353.337 412.888 353.337Z" fill="white" stroke="#2E353A" stroke-width="1.65667" stroke-linecap="round" stroke-linejoin="round"/>
<path d="M422.6 367.193C421.055 367.935 419.323 368.191 417.63 367.928C414.111 367.292 411.974 363.774 410.672 362.263C409.37 360.752 407.779 360.762 406.278 359.499C405.564 358.889 404.941 358.18 404.429 357.392C404.221 360.931 405.94 361.05 407.65 361.915C409.638 362.909 409.638 364.4 411.626 366.885C413.614 369.37 415.602 369.37 419.081 369.37C421.874 369.37 422.451 367.859 422.6 367.193Z" fill="white" stroke="#2E353A" stroke-width="1.65667" stroke-linecap="round" stroke-linejoin="round"/>
<path d="M412.331 351.617C410.343 345.653 407.51 309.949 406.039 298.647C403.057 275.666 389.797 245.836 389.797 245.836L390.562 233.629C386.507 233.122 380.891 231.91 377.054 229.037C372.084 225.32 371.776 218.272 371.925 214.952C369.41 216.572 361.985 221.453 355.653 226.582C347.84 232.874 342.493 255.189 340.972 262.237C339.451 269.284 337.731 290.069 337.731 290.069C337.731 290.069 323.994 295.407 318.468 302.991C312.941 310.575 296.152 327.781 296.152 327.781L297.683 333.507C297.683 333.507 302.832 329.888 307.216 326.449C311.599 323.01 345.743 303.945 348.029 302.593C350.315 301.241 352.999 298.617 356.041 290.963C357.154 288.17 358.725 283.598 360.275 278.916L365.573 262.416L370.673 258.072C375.702 271.67 387.392 297.882 389.052 301.629C391.04 306.122 392.55 326.101 398.047 338.596C403.544 351.09 405.005 357.084 405.005 357.084C405.005 357.084 414.329 357.611 412.331 351.617Z" fill="#2E353A" stroke="#2E353A" stroke-width="1.65667" stroke-linecap="round" stroke-linejoin="round"/>
<path d="M390.234 235.986L392.133 247.069" stroke="white" stroke-width="0.828333" stroke-miterlimit="10"/>
<path d="M121.447 150.382L92.74 394.21C92.7011 394.561 92.7615 394.916 92.9142 395.235C93.067 395.553 93.3061 395.823 93.6042 396.012C93.9024 396.202 94.2478 396.304 94.601 396.307C94.9543 396.31 95.3014 396.213 95.6027 396.029L114.051 384.678C115.146 383.999 116.462 383.772 117.721 384.045C118.98 384.317 120.084 385.068 120.801 386.139L143.981 420.601L153.652 275.636L121.447 150.382Z" fill="#407BFF" stroke="#2E353A" stroke-width="1.65667" stroke-linecap="round" stroke-linejoin="round"/>
<path d="M121.268 156.515L95.3247 388.117C95.2686 388.617 95.3597 389.123 95.5867 389.572C95.8137 390.021 96.1668 390.393 96.6026 390.645C97.0385 390.896 97.5381 391.014 98.0403 390.986C98.5426 390.957 99.0255 390.782 99.4299 390.483L112.918 380.543C113.62 380.024 114.42 379.654 115.27 379.455C116.119 379.256 117 379.233 117.859 379.387C118.718 379.54 119.537 379.867 120.265 380.348C120.993 380.829 121.615 381.453 122.093 382.183L137.878 406.278C138.049 406.545 138.305 406.748 138.604 406.854C138.904 406.959 139.23 406.961 139.531 406.859C139.832 406.757 140.09 406.557 140.264 406.292C140.439 406.026 140.519 405.71 140.492 405.393L122.063 156.525C122.044 156.435 121.995 156.353 121.923 156.295C121.852 156.236 121.762 156.203 121.67 156.202C121.577 156.201 121.487 156.231 121.414 156.288C121.341 156.345 121.29 156.425 121.268 156.515Z" fill="#407BFF" stroke="#2E353A" stroke-width="1.65667" stroke-linecap="round" stroke-linejoin="round"/>
<path opacity="0.6" d="M121.624 153.155L95.3032 388.097C95.2472 388.597 95.3382 389.102 95.5652 389.551C95.7922 390 96.1453 390.373 96.5811 390.624C97.017 390.875 97.5166 390.994 98.0189 390.965C98.5211 390.937 99.004 390.762 99.4084 390.463L112.897 380.523C113.598 380.004 114.399 379.634 115.248 379.435C116.098 379.236 116.979 379.213 117.838 379.366C118.697 379.52 119.515 379.847 120.243 380.328C120.971 380.809 121.593 381.433 122.072 382.163L137.856 406.257C138.027 406.525 138.283 406.728 138.583 406.833C138.883 406.939 139.209 406.94 139.51 406.839C139.811 406.737 140.069 406.537 140.243 406.271C140.417 406.006 140.497 405.689 140.471 405.373L121.813 153.155C121.807 153.135 121.794 153.118 121.777 153.106C121.76 153.094 121.74 153.087 121.719 153.087C121.698 153.087 121.677 153.094 121.66 153.106C121.644 153.118 121.631 153.135 121.624 153.155Z" fill="black"/>
<path d="M116.824 379.25C117.869 379.268 118.893 379.541 119.807 380.046C120.722 380.55 121.5 381.27 122.073 382.143L137.857 406.237C138.028 406.505 138.284 406.708 138.584 406.813C138.884 406.918 139.21 406.92 139.511 406.818C139.812 406.717 140.07 406.517 140.244 406.251C140.418 405.986 140.498 405.669 140.472 405.353L138.215 374.896L116.486 379.151C116.602 379.173 116.715 379.207 116.824 379.25Z" fill="#407BFF" stroke="#2E353A" stroke-width="1.65667" stroke-linecap="round" stroke-linejoin="round"/>
<path opacity="0.3" d="M116.824 379.25C117.869 379.268 118.893 379.541 119.807 380.046C120.722 380.55 121.5 381.27 122.073 382.143L137.857 406.237C138.028 406.505 138.284 406.708 138.584 406.813C138.884 406.918 139.21 406.92 139.511 406.818C139.812 406.717 140.07 406.517 140.244 406.251C140.418 405.986 140.498 405.669 140.472 405.353L138.215 374.896L116.486 379.151C116.602 379.173 116.715 379.207 116.824 379.25Z" fill="black"/>
<path d="M122.033 150.233L143.971 420.601L399.777 371.855L339.66 160.998L122.033 150.233Z" fill="#2E353A" stroke="#2E353A" stroke-width="1.65667" stroke-linecap="round" stroke-linejoin="round"/>
<path d="M133.891 156.068L148.96 406.307L389.508 362.571L338.804 168.155L133.891 156.068Z" fill="#407BFF" stroke="#2E353A" stroke-width="1.65667" stroke-linecap="round" stroke-linejoin="round"/>
<path d="M148.592 279.214L160.033 397.828L378.593 358.088L358.286 268.936L148.592 279.214Z" fill="white" stroke="#2E353A" stroke-width="1.65667" stroke-linecap="round" stroke-linejoin="round"/>
<path d="M190.778 391.924L187.15 353.824" stroke="#2E353A" stroke-width="1.65667" stroke-linecap="round" stroke-linejoin="round"/>
<path d="M224.225 386.03L220.727 354.271" stroke="#2E353A" stroke-width="1.65667" stroke-linecap="round" stroke-linejoin="round"/>
<path d="M257.019 379.678L252.934 354.271" stroke="#2E353A" stroke-width="1.65667" stroke-linecap="round" stroke-linejoin="round"/>
<path d="M290.804 373.882L285.943 343.595" stroke="#2E353A" stroke-width="1.65667" stroke-linecap="round" stroke-linejoin="round"/>
<path d="M320.565 368.515L316.42 338.954" stroke="#2E353A" stroke-width="1.65667" stroke-linecap="round" stroke-linejoin="round"/>
<path d="M349.102 363.237L342.93 327.692" stroke="#2E353A" stroke-width="1.65667" stroke-linecap="round" stroke-linejoin="round"/>
<path d="M416.168 283.776C416.168 283.776 413.126 286.838 412.927 288.428C412.729 290.019 414.319 294.81 414.319 294.81L419.11 295.605L421.217 287.275L416.168 283.776Z" fill="white" stroke="#2E353A" stroke-width="1.65667" stroke-linecap="round" stroke-linejoin="round"/>
<g style="mix-blend-mode:multiply" opacity="0.49">
<path d="M135.105 225.2C135.105 225.2 140.155 297.872 144.797 324.372C149.439 350.872 158.047 390.532 158.047 390.532C158.047 390.532 307.147 367.452 380.703 336.3L374.739 307.812L135.105 225.2Z" fill="#407BFF"/>
</g>
<path d="M128.365 153.344L337.771 164.626C337.771 164.626 358.158 225.707 378.446 260.199C398.733 294.691 432.191 292.445 432.191 292.445C432.191 292.445 355.454 334.401 295.685 356.737C233.481 379.966 179.536 384.141 179.536 384.141C179.536 384.141 130.403 317.026 128.365 153.344Z" fill="#407BFF" stroke="#2E353A" stroke-width="1.65667" stroke-linecap="round" stroke-linejoin="round"/>
<path d="M152.34 142.47C148.454 142.47 145.641 145.919 144.756 151.326L148.732 151.545C149.348 148.424 150.571 146.446 152.33 146.446C154.378 146.446 156.654 149.736 156.654 154.467C156.654 159.199 154.378 162.499 152.33 162.499C151.803 162.499 151.297 162.708 150.924 163.081C150.552 163.454 150.342 163.96 150.342 164.487C150.342 165.014 150.552 165.52 150.924 165.893C151.297 166.265 151.803 166.475 152.33 166.475C156.982 166.475 160.63 161.197 160.63 154.467C160.63 147.738 156.992 142.47 152.34 142.47Z" fill="white" stroke="#2E353A" stroke-width="1.65667" stroke-miterlimit="10"/>
<path d="M158.046 157.688C157.856 158.389 157.61 159.074 157.311 159.736" stroke="#2E353A" stroke-width="1.2425" stroke-linecap="round" stroke-linejoin="round"/>
<path d="M146.725 149.537C146.725 149.537 148.216 144.15 152.619 144.448C156.078 144.687 158.931 149.825 158.454 155.322" stroke="#2E353A" stroke-width="1.2425" stroke-linecap="round" stroke-linejoin="round"/>
<path d="M186.871 144.209C182.985 144.209 180.172 147.658 179.287 153.066L183.263 153.284C183.879 150.163 185.102 148.185 186.861 148.185C188.909 148.185 191.185 151.475 191.185 156.207C191.185 160.938 188.909 164.238 186.861 164.238C186.334 164.238 185.828 164.448 185.456 164.82C185.083 165.193 184.873 165.699 184.873 166.226C184.873 166.753 185.083 167.259 185.456 167.632C185.828 168.005 186.334 168.214 186.861 168.214C191.513 168.214 195.161 162.936 195.161 156.207C195.161 149.477 191.533 144.209 186.871 144.209Z" fill="white" stroke="#2E353A" stroke-width="1.65667" stroke-miterlimit="10"/>
<path d="M192.587 159.427C192.397 160.128 192.151 160.813 191.852 161.475" stroke="#2E353A" stroke-width="1.2425" stroke-linecap="round" stroke-linejoin="round"/>
<path d="M181.266 151.277C181.266 151.277 182.757 145.889 187.16 146.187C190.619 146.426 193.472 151.565 192.995 157.062" stroke="#2E353A" stroke-width="1.2425" stroke-linecap="round" stroke-linejoin="round"/>
<path d="M221.422 145.949C217.536 145.949 214.723 149.398 213.838 154.805L217.814 155.024C218.43 151.903 219.653 149.925 221.412 149.925C223.46 149.925 225.736 153.215 225.736 157.946C225.736 162.678 223.46 165.978 221.412 165.978C220.885 165.978 220.379 166.187 220.006 166.56C219.634 166.933 219.424 167.439 219.424 167.966C219.424 168.493 219.634 168.999 220.006 169.372C220.379 169.744 220.885 169.954 221.412 169.954C226.064 169.954 229.712 164.676 229.712 157.946C229.712 151.217 226.074 145.949 221.422 145.949Z" fill="white" stroke="#2E353A" stroke-width="1.65667" stroke-miterlimit="10"/>
<path d="M227.128 161.167C226.938 161.868 226.692 162.553 226.393 163.215" stroke="#2E353A" stroke-width="1.2425" stroke-linecap="round" stroke-linejoin="round"/>
<path d="M215.807 153.016C215.807 153.016 217.298 147.628 221.701 147.926C225.16 148.165 228.013 153.304 227.536 158.801" stroke="#2E353A" stroke-width="1.2425" stroke-linecap="round" stroke-linejoin="round"/>
<path d="M255.965 147.688C252.079 147.688 249.266 151.137 248.381 156.545L252.357 156.763C252.973 153.642 254.196 151.664 255.955 151.664C258.003 151.664 260.279 154.954 260.279 159.686C260.279 164.417 258.003 167.717 255.955 167.717C255.428 167.717 254.922 167.927 254.549 168.299C254.177 168.672 253.967 169.178 253.967 169.705C253.967 170.232 254.177 170.738 254.549 171.111C254.922 171.484 255.428 171.693 255.955 171.693C260.607 171.693 264.255 166.415 264.255 159.686C264.255 152.956 260.617 147.688 255.965 147.688Z" fill="white" stroke="#2E353A" stroke-width="1.65667" stroke-miterlimit="10"/>
<path d="M261.671 162.906C261.481 163.607 261.235 164.292 260.936 164.954" stroke="#2E353A" stroke-width="1.2425" stroke-linecap="round" stroke-linejoin="round"/>
<path d="M250.348 154.756C250.348 154.756 251.839 149.369 256.242 149.667C259.701 149.905 262.554 155.044 262.077 160.541" stroke="#2E353A" stroke-width="1.2425" stroke-linecap="round" stroke-linejoin="round"/>
<path d="M291.131 149.229C287.244 149.229 284.431 152.678 283.557 158.095L287.533 158.314C288.159 155.193 289.382 153.205 291.131 153.205C293.179 153.205 295.465 156.505 295.465 161.237C295.465 165.968 293.179 169.258 291.131 169.258C290.604 169.258 290.098 169.468 289.725 169.84C289.352 170.213 289.143 170.719 289.143 171.246C289.143 171.773 289.352 172.279 289.725 172.652C290.098 173.025 290.604 173.234 291.131 173.234C295.793 173.234 299.441 167.966 299.441 161.237C299.441 154.507 295.793 149.229 291.131 149.229Z" fill="white" stroke="#2E353A" stroke-width="1.65667" stroke-miterlimit="10"/>
<path d="M296.837 164.457C296.648 165.155 296.402 165.837 296.102 166.495" stroke="#2E353A" stroke-width="1.2425" stroke-linecap="round" stroke-linejoin="round"/>
<path d="M285.518 156.306C285.518 156.306 287.019 150.909 291.412 151.207C294.881 151.445 297.724 156.594 297.257 162.091" stroke="#2E353A" stroke-width="1.2425" stroke-linecap="round" stroke-linejoin="round"/>
<path d="M324.918 151.088C321.031 151.088 318.218 154.537 317.344 159.944L321.32 160.173C321.946 157.052 323.169 155.064 324.918 155.064C326.966 155.064 329.252 158.364 329.252 163.085C329.252 167.807 326.966 171.117 324.918 171.117C324.391 171.117 323.885 171.326 323.512 171.699C323.139 172.072 322.93 172.578 322.93 173.105C322.93 173.632 323.139 174.138 323.512 174.511C323.885 174.884 324.391 175.093 324.918 175.093C329.58 175.093 333.228 169.815 333.228 163.085C333.228 156.356 329.58 151.088 324.918 151.088Z" fill="white" stroke="#2E353A" stroke-width="1.65667" stroke-miterlimit="10"/>
<path d="M330.624 166.256C330.437 166.958 330.191 167.643 329.889 168.304" stroke="#2E353A" stroke-width="1.2425" stroke-linecap="round" stroke-linejoin="round"/>
<path d="M319.303 158.116C319.303 158.116 320.804 152.718 325.197 153.016C328.666 153.255 331.509 158.394 331.042 163.891" stroke="#2E353A" stroke-width="1.2425" stroke-linecap="round" stroke-linejoin="round"/>
<path d="M421.218 287.266C421.218 287.266 423.206 289.99 423.206 291.153C423.206 292.316 420.483 294.264 420.483 296.978C420.483 299.691 416.984 298.966 416.596 296.978C416.208 294.99 417.371 292.316 417.371 292.316C417.371 292.316 415.751 291.322 415.383 287.823C415.016 284.324 418.167 285.318 418.167 285.318L421.218 287.266Z" fill="white" stroke="#2E353A" stroke-width="1.65667" stroke-linecap="round" stroke-linejoin="round"/>
<path d="M371.517 260.358C357.114 235.866 341.985 197.189 336.607 182.955L149.467 175.371C149.348 313.686 191.215 370.831 191.215 370.831C191.215 370.831 238.877 367.144 293.846 346.607C346.667 326.877 409.666 293.757 409.666 293.757C409.666 293.757 389.439 290.844 371.517 260.358Z" fill="white" stroke="#2E353A" stroke-width="1.65667" stroke-linecap="round" stroke-linejoin="round"/>
<path d="M336.607 182.955L149.467 175.371C149.467 188.979 149.854 201.782 150.57 213.839L348.197 211.99C343.078 199.794 338.953 189.108 336.607 182.955Z" fill="#2E353A" stroke="#2E353A" stroke-width="1.65667" stroke-linecap="round" stroke-linejoin="round"/>
<path d="M339.918 224.187L348.765 223.878" stroke="#2E353A" stroke-width="4.97" stroke-linecap="round" stroke-linejoin="round"/>
<path d="M313.914 225.071L333.287 224.405" stroke="#2E353A" stroke-width="4.97" stroke-linecap="round" stroke-linejoin="round"/>
<path d="M282.436 226.135L307.335 225.29" stroke="#2E353A" stroke-width="4.97" stroke-linecap="round" stroke-linejoin="round"/>
<path d="M250.408 227.218L276.938 226.324" stroke="#2E353A" stroke-width="4.97" stroke-linecap="round" stroke-linejoin="round"/>
<path d="M219.445 228.272L243.768 227.447" stroke="#2E353A" stroke-width="4.97" stroke-linecap="round" stroke-linejoin="round"/>
<path d="M186.822 229.385L211.165 228.55" stroke="#2E353A" stroke-width="4.97" stroke-linecap="round" stroke-linejoin="round"/>
<path d="M158.105 230.359L180.759 229.584" stroke="#2E353A" stroke-width="4.97" stroke-linecap="round" stroke-linejoin="round"/>
<path d="M154.418 251.681L360.305 239.136" stroke="#2E353A" stroke-width="1.65667" stroke-linecap="round" stroke-linejoin="round"/>
<path d="M186.951 249.911C186.951 249.911 190.331 304.661 226.423 365.434" stroke="#2E353A" stroke-width="1.65667" stroke-linecap="round" stroke-linejoin="round"/>
<path d="M220.17 247.714C220.17 247.714 223.977 310.336 263.548 356.19" stroke="#2E353A" stroke-width="1.65667" stroke-linecap="round" stroke-linejoin="round"/>
<path d="M250.25 245.866C250.25 245.866 252.238 303.518 296.72 344.948" stroke="#2E353A" stroke-width="1.65667" stroke-linecap="round" stroke-linejoin="round"/>
<path d="M281.432 244.524C281.432 244.524 286.342 308.617 329.392 331.191" stroke="#2E353A" stroke-width="1.65667" stroke-linecap="round" stroke-linejoin="round"/>
<path d="M314.104 241.949C314.104 241.949 317.563 290.427 361.597 316.976" stroke="#2E353A" stroke-width="1.65667" stroke-linecap="round" stroke-linejoin="round"/>
<path d="M339.828 240.379C339.828 240.379 351.677 290.079 384.826 306.172" stroke="#2E353A" stroke-width="1.65667" stroke-linecap="round" stroke-linejoin="round"/>
<path d="M158.93 279.92L369.22 256.79" stroke="#2E353A" stroke-width="1.65667" stroke-linecap="round" stroke-linejoin="round"/>
<path d="M164.416 304.661C164.416 304.661 209.315 302.901 379.001 271.63" stroke="#2E353A" stroke-width="1.65667" stroke-linecap="round" stroke-linejoin="round"/>
<path d="M172.34 330.852C172.34 330.852 216.076 335.822 387.422 281.262" stroke="#2E353A" stroke-width="1.65667" stroke-linecap="round" stroke-linejoin="round"/>
<path d="M181.803 353.704C181.803 353.704 218.263 365.781 397.362 289.094" stroke="#2E353A" stroke-width="1.65667" stroke-linecap="round" stroke-linejoin="round"/>
<path d="M230.299 202.428L162.886 201.524C162.34 201.515 161.815 201.309 161.409 200.944C161.004 200.578 160.744 200.078 160.679 199.536L160.103 194.088C160.069 193.775 160.102 193.458 160.2 193.158C160.298 192.858 160.458 192.583 160.671 192.35C160.883 192.117 161.143 191.932 161.432 191.806C161.721 191.681 162.034 191.619 162.349 191.623L228.947 192.776C229.439 192.785 229.915 192.955 230.301 193.26C230.687 193.566 230.962 193.989 231.084 194.466L232.436 199.645C232.521 199.972 232.529 200.315 232.462 200.646C232.394 200.978 232.252 201.289 232.046 201.558C231.84 201.826 231.576 202.044 231.273 202.195C230.97 202.345 230.637 202.425 230.299 202.428Z" fill="white"/>
</svg>
