<?xml version="1.0" encoding="utf-8"?>
<!-- Generator: Adobe Illustrator 28.3.0, SVG Export Plug-In . SVG Version: 6.00 Build 0)  -->
<svg version="1.1" id="Layer_1" xmlns="http://www.w3.org/2000/svg" xmlns:xlink="http://www.w3.org/1999/xlink" x="0px" y="0px"
	 viewBox="0 0 1440 770" style="enable-background:new 0 0 1440 770;" xml:space="preserve">
<style type="text/css">
	.st0{fill:#1A1A1A;}
	.st1{fill:#FFFFFF;}
	.st2{fill:#F26262;}
	.st3{fill:#B80909;}
	.st4{fill:#757474;}
	.st5{fill:#F98D8D;}
	.st6{fill:#870000;}
	.st7{fill:#2E2345;}
</style>
<path class="st0" d="M0,442.3c0,0,228.1,80.4,487.9,19.4c349.5-82.1,345.5-332.2,952.1-332.2V770H0V442.3z"/>
<g>
	<defs>
		<rect id="SVGID_1_" x="165.5" y="692.7" width="1111.6" height="77.3"/>
	</defs>
	<clipPath id="SVGID_00000134955398917819487810000009835585360793745848_">
		<use xlink:href="#SVGID_1_"  style="overflow:visible;"/>
	</clipPath>
</g>
<g>
	<g>
		<g>
			<path class="st1" d="M985.7,411.1c2.5-3.3,2.7-8.2,0.7-11.8c-2-3.7-6-6.1-10.2-6.4c-4.2-0.3-8.5,1.7-11.6,4.6
				c-0.3-2.8-2.7-5-5.1-6.5c-6.6-4.1-14.9-5.7-22.3-3.4c-7.4,2.3-13.6,8.8-14.7,16.5c-7.1-0.8-14.9,3.8-17.1,10.6
				c-2.2,6.8,1,15,7.4,18.2c4,2,8.7,2.2,13.1,2.1c2.2,5.8,8,9.6,13.8,11.6c1.8,0.6,3.6,1.2,5.5,1.5c8.8,1.5,18.4-2.7,23.3-10.2
				c4.8,2.2,10.6,2.1,15.3-0.3c4.7-2.4,8.1-7.3,8.6-12.6C992.7,419.7,990.2,414,985.7,411.1z"/>
		</g>
	</g>
	<g>
		<g>
			<path class="st1" d="M1156.4,303.8c2.5-3.3,2.7-8.2,0.7-11.8c-2-3.7-6-6.1-10.2-6.4c-4.2-0.3-8.5,1.7-11.6,4.6
				c-0.3-2.8-2.7-5-5.1-6.5c-6.6-4.1-14.9-5.7-22.3-3.4c-7.4,2.3-13.6,8.8-14.7,16.5c-7.1-0.8-14.9,3.8-17.1,10.6
				c-2.2,6.8,1,15,7.4,18.2c4,2,8.6,2.2,13.1,2.1c2.2,5.8,8,9.6,13.8,11.6c1.8,0.6,3.6,1.2,5.5,1.5c8.8,1.5,18.4-2.7,23.3-10.2
				c4.8,2.2,10.6,2.1,15.3-0.3c4.7-2.4,8.1-7.3,8.6-12.6C1163.4,312.4,1160.8,306.7,1156.4,303.8z"/>
		</g>
	</g>
	<g>
		<g>
			<path class="st1" d="M1267,355.3c3.2-4.2,3.4-10.3,0.9-15s-7.6-7.6-12.9-8c-5.3-0.4-10.8,2.1-14.6,5.8c-0.4-3.6-3.4-6.3-6.5-8.2
				c-8.3-5.2-18.8-7.2-28.2-4.3c-9.4,2.9-17.2,11.1-18.6,20.8c-9-1-18.8,4.9-21.6,13.4c-2.8,8.6,1.3,18.9,9.4,23
				c5,2.6,10.9,2.7,16.6,2.6c2.7,7.3,10.1,12.1,17.5,14.7c2.2,0.8,4.5,1.5,6.9,1.9c11.2,1.9,23.2-3.4,29.4-12.9
				c6.1,2.8,13.3,2.7,19.3-0.4c5.9-3.1,10.2-9.2,10.8-15.9C1275.9,366.1,1272.6,358.9,1267,355.3z"/>
		</g>
	</g>
	<g>
		<g>
			<path class="st1" d="M1357.7,262.7c1.6-2.2,1.8-5.3,0.4-7.7c-1.3-2.4-3.9-3.9-6.6-4.1c-2.7-0.2-5.5,1.1-7.5,3
				c-0.2-1.8-1.8-3.2-3.3-4.2c-4.3-2.7-9.7-3.7-14.5-2.2c-4.8,1.5-8.8,5.7-9.6,10.7c-4.6-0.5-9.7,2.5-11.1,6.9
				c-1.4,4.4,0.7,9.7,4.8,11.8c2.6,1.3,5.6,1.4,8.5,1.3c1.4,3.8,5.2,6.2,9,7.5c1.2,0.4,2.3,0.8,3.5,1c5.7,1,11.9-1.8,15.1-6.6
				c3.1,1.5,6.9,1.4,9.9-0.2c3-1.6,5.3-4.7,5.6-8.2C1362.2,268.3,1360.5,264.6,1357.7,262.7z"/>
		</g>
	</g>
</g>
<g>
	<polygon class="st2" points="430.7,435.4 430.7,403.6 434.1,403.6 434.1,367.2 451.6,367.2 467.2,385.4 467.2,391.5 488.8,391.5 
		488.8,403.6 497.5,403.6 497.5,435.4 506.3,435.4 506.3,610.9 523.2,610.9 523.2,373.9 559.6,347.6 625.1,373.9 625.1,523.1 
		658.9,523.1 658.9,637.7 717.2,637.7 717.2,693.7 981.4,693.7 981.4,768.9 717.2,768.9 717.2,769.8 658.9,769.8 658.9,768.9 
		625.1,768.9 529.3,768.9 523.2,768.9 506.3,768.9 502.9,768.9 419.9,768.9 419.9,435.4 	"/>
	<rect x="606.5" y="325.6" class="st3" width="2.2" height="51.7"/>
	<rect x="581.4" y="339.7" class="st3" width="2.2" height="51.7"/>
	<rect x="480.3" y="377.3" class="st3" width="2.2" height="51.7"/>
	<path class="st4" d="M846.7,674.7c-0.5,0-1.1,0-1.6,0.1c-1.6-5-6.3-8.6-11.8-8.6c-4.9,0-9.2,2.9-11.2,7c-1.1-0.7-2.4-1.1-3.7-1.1
		c-3.9,0-7,3.1-7,7c0,1.7,0.6,3.3,1.7,4.6c-3.8,1.8-6.5,5.8-6.5,10.3c0,6.3,5.1,11.4,11.4,11.4c2.4,0,4.6-0.8,6.5-2
		c1.7,1.3,3.8,2.1,6.1,2.1c0.5,0,1.1,0,1.6-0.1v20.8c0,0.6,0.5,1.1,1.1,1.1c0.6,0,1.1-0.5,1.1-1.1v-21.5c1.3-0.5,2.4-1.3,3.3-2.2
		c2.5,1.8,5.5,2.8,8.8,2.8c8.4,0,15.3-6.8,15.3-15.3C862,681.5,855.1,674.7,846.7,674.7z"/>
	<path class="st4" d="M793.1,661.9c-2.9-14.9-16-26.1-31.8-26.1c-15.7,0-28.8,11.2-31.7,26c-9.3,4.1-15.7,13.3-15.7,24.1
		c0,14.5,11.8,26.3,26.3,26.3c0.6,0,1.2,0,1.7-0.1l17.2,14.7v19c0,1.2,0.9,2.1,2.1,2.1c1.2,0,2.1-0.9,2.1-2.1v-18.7l17.5-15
		c0.5,0,1.1,0.1,1.6,0.1c14.5,0,26.3-11.8,26.3-26.3C808.7,675.2,802.3,666,793.1,661.9z M747.3,711.2c1.2-0.3,2.3-0.7,3.4-1.2
		c2.2,2.3,5.1,3.9,8.4,4.3v6.9L747.3,711.2z M763.3,721.6v-7.2c3.3-0.5,6.3-2.1,8.5-4.4c1.2,0.5,2.4,0.9,3.6,1.3L763.3,721.6z"/>
	<polygon class="st5" points="1192.6,703.8 1192.6,690.7 1195.3,690.7 1195.3,688 1188.6,688 1188.6,576.9 1193,576.9 1199,568.4 
		1188.6,568.4 1188.6,565.8 1188.6,559.7 1188.6,559.1 1188.6,551.9 1182.3,551.9 1182.3,559.1 1176.1,559.1 1176.1,563.1 
		1074.9,541.8 1074.9,524 1074.9,519.5 1071.6,519.5 1071.6,524 1066.8,524 1066.8,519.5 1063.5,519.5 1063.5,524 1058.7,524 
		1058.7,519.5 1055.4,519.5 1055.4,524 1055.4,541.9 954.6,563.1 954.6,559.1 948.3,559.1 948.3,551.9 942.1,551.9 942.1,559.1 
		942.1,559.7 942.1,565.8 942.1,568.4 931.3,568.4 937.4,576.9 942.1,576.9 942.1,688 934.3,688 934.3,690.7 937.7,690.7 937.7,704 
		908.1,713.9 908.1,769.3 942.1,769.3 942.4,769.3 1188.6,769.3 1222.9,769.3 1222.9,713.9 	"/>
	<path class="st4" d="M518.6,683.9c-1.3,0-2.5,0.2-3.7,0.4c0.2-1.1,0.2-2.2,0.2-3.4c0-13.3-10.8-24.1-24.1-24.1
		c-13.3,0-24.1,10.8-24.1,24.1c0,12.7,9.9,23.2,22.4,24.1v18.8l-10-6.2c0.6-1.5,1-3.1,1-4.9c0-6.8-5.5-12.3-12.3-12.3
		c-6.8,0-12.3,5.5-12.3,12.3c0,6.8,5.5,12.3,12.3,12.3c3.8,0,7.2-1.7,9.5-4.5l11.8,7.4V750c0,1,0.8,1.7,1.7,1.7s1.7-0.8,1.7-1.7
		v-32.3l13.8-8.8c2.8,3.5,7.2,5.7,12,5.7c8.5,0,15.4-6.9,15.4-15.4C534,690.8,527.1,683.9,518.6,683.9z M492.7,713.7V705
		c3.8-0.3,7.4-1.4,10.6-3.3c0.2,1.6,0.7,3,1.4,4.4L492.7,713.7z"/>
	<path class="st4" d="M259.2,683.9c-1.3,0-2.5,0.2-3.7,0.4c0.2-1.1,0.2-2.2,0.2-3.4c0-13.3-10.8-24.1-24.1-24.1
		c-13.3,0-24.1,10.8-24.1,24.1c0,12.7,9.9,23.2,22.4,24.1v18.8l-10-6.2c0.6-1.5,1-3.1,1-4.9c0-6.8-5.5-12.3-12.3-12.3
		c-6.8,0-12.3,5.5-12.3,12.3c0,6.8,5.5,12.3,12.3,12.3c3.8,0,7.2-1.7,9.5-4.5l11.8,7.4V750c0,1,0.8,1.7,1.7,1.7c1,0,1.7-0.8,1.7-1.7
		v-32.3l13.8-8.8c2.8,3.5,7.2,5.7,12,5.7c8.5,0,15.4-6.9,15.4-15.4C274.6,690.8,267.7,683.9,259.2,683.9z M233.4,713.7V705
		c3.8-0.3,7.4-1.4,10.6-3.3c0.2,1.6,0.7,3,1.4,4.4L233.4,713.7z"/>
	<path class="st4" d="M362.8,687.7c-0.6,0-1.3,0-1.9,0.1c-1.9-5.8-7.3-10.1-13.8-10.1c-5.8,0-10.7,3.4-13.1,8.2
		c-1.3-0.8-2.8-1.3-4.4-1.3c-4.5,0-8.2,3.7-8.2,8.2c0,2,0.8,3.9,2,5.4c-4.5,2.2-7.6,6.7-7.6,12c0,7.4,6,13.4,13.4,13.4
		c2.8,0,5.4-0.9,7.6-2.4c2,1.5,4.5,2.4,7.2,2.4c0.6,0,1.2,0,1.8-0.1v24.4c0,0.7,0.6,1.3,1.3,1.3c0.7,0,1.3-0.6,1.3-1.3v-25.1
		c1.5-0.6,2.8-1.5,3.9-2.6c2.9,2.1,6.5,3.3,10.3,3.3c9.9,0,17.9-8,17.9-17.9C380.7,695.7,372.7,687.7,362.8,687.7z"/>
	<path class="st4" d="M470.5,660.7c-3.1-15.7-16.9-27.6-33.6-27.6c-16.6,0-30.4,11.8-33.5,27.5c-9.8,4.3-16.6,14.1-16.6,25.5
		c0,15.4,12.4,27.8,27.8,27.8c0.6,0,1.2,0,1.8-0.1l18.1,15.5v20.1c0,1.2,1,2.2,2.2,2.2c1.2,0,2.2-1,2.2-2.2v-19.8l18.5-15.8
		c0.6,0,1.1,0.1,1.7,0.1c15.4,0,27.8-12.4,27.8-27.8C486.9,674.8,480.2,665.1,470.5,660.7z M422.1,712.9c1.2-0.3,2.4-0.8,3.6-1.3
		c2.3,2.4,5.4,4.1,8.9,4.6v7.3L422.1,712.9z M439,723.8v-7.6c3.5-0.5,6.6-2.2,8.9-4.6c1.2,0.5,2.5,1,3.8,1.4L439,723.8z"/>
	<path class="st4" d="M1271.8,660.7c-3.1-15.7-16.9-27.6-33.6-27.6c-16.6,0-30.4,11.8-33.5,27.5c-9.8,4.3-16.6,14.1-16.6,25.5
		c0,15.4,12.4,27.8,27.8,27.8c0.6,0,1.2,0,1.8-0.1l18.1,15.5v20.1c0,1.2,1,2.2,2.2,2.2c1.2,0,2.2-1,2.2-2.2v-19.8l18.5-15.8
		c0.6,0,1.1,0.1,1.7,0.1c15.4,0,27.8-12.4,27.8-27.8C1288.2,674.8,1281.5,665.1,1271.8,660.7z M1223.4,712.9
		c1.2-0.3,2.4-0.8,3.6-1.3c2.3,2.4,5.4,4.1,8.9,4.6v7.3L1223.4,712.9z M1240.3,723.8v-7.6c3.5-0.5,6.6-2.2,8.9-4.6
		c1.2,0.5,2.5,1,3.8,1.4L1240.3,723.8z"/>
	<path class="st4" d="M218.3,666.9c-1.6,0-3.1,0.2-4.6,0.6c0.2-1.4,0.3-2.8,0.3-4.2c0-16.6-13.5-30.1-30.1-30.1
		s-30.1,13.5-30.1,30.1c0,15.9,12.4,29,28,30.1v23.5l-12.5-7.8c0.8-1.9,1.2-3.9,1.2-6.1c0-8.5-6.9-15.3-15.3-15.3
		s-15.3,6.9-15.3,15.3s6.9,15.3,15.3,15.3c4.8,0,9-2.2,11.8-5.6l14.7,9.2v27.7c0,1.2,1,2.2,2.2,2.2c1.2,0,2.2-1,2.2-2.2v-40.3
		l17.3-11c3.5,4.4,8.9,7.2,15,7.2c10.6,0,19.3-8.6,19.3-19.3C237.6,675.6,229,666.9,218.3,666.9z M186.1,704.2v-10.8
		c4.8-0.3,9.3-1.8,13.2-4.1c0.3,1.9,0.9,3.8,1.7,5.5L186.1,704.2z"/>
	<g>
		<polygon class="st3" points="424.6,425.4 424.6,394.1 408.1,404.6 408.1,365.5 399.8,365.5 399.8,409.8 352.1,440.2 352.1,768.7 
			437.7,768.7 437.7,425.4 		"/>
		<path class="st6" d="M952.6,608.3l15.4-23v-9.6h-35.8v-20.5l11.5-15.4h9.1V533H803.3v-13.4H782c0,0,0.1-0.1,0.1-0.1
			c3.2-4,4.1-9.6,2.5-14.4c-0.4-1-0.8-2-0.9-3.1c-0.1-0.9,0.1-1.9,0.3-2.8c0.5-3,0.6-6.1,0.2-9.2c-0.1-0.6-0.2-1.2-0.5-1.6
			c-0.4-0.5-1-0.8-1.4-1.4c-1.1-1.4,0.1-3.4,1.5-4.5c1.3-1.1,3-2.3,3-4.1c0-1.4-1.1-2.8-1-4.2c0.2-1.3,1.4-2.4,1.6-3.7
			c0.3-1.7-1.2-3.1-2.5-4.2c-0.3-0.3-0.7-0.5-1-0.7c-1-0.4-2.1,0.1-2.9,0.7c-2.7,1.9-4.6,4.8-6,7.8c-1.4,3-2.4,6.2-3.7,9.2
			c-0.9,1.9-2,3.9-4,4.7c-0.9,0.4-2,0.5-3,0.6c-2.3,0.3-4.8,1.1-5.8,3.2c-0.6,1.3-0.6,2.9-1.4,4c-0.6,0.9-1.7,1.4-2.8,1.7
			c-1.5,0.5-4.2,0.3-5.4,1.2c0,0,0,0-0.1,0.1c-4.8-9.5-14.5-16.2-25.8-16.7v-8.3c3.9-0.7,6.9-4.1,6.9-8.2s-3-7.5-6.9-8.2v-2.9
			l15.6-15.6v-6.7h-6l-11,11l-11-11h-6v6.7l15.6,15.6v2.9c-3.9,0.7-6.9,4.1-6.9,8.2s3,7.5,6.9,8.2v8.3c-11.3,0.5-20.9,7.2-25.7,16.7
			c0,0,0,0-0.1-0.1c-1.2-0.9-3.9-0.7-5.4-1.2c-1.1-0.3-2.1-0.8-2.8-1.7c-0.8-1.2-0.8-2.7-1.4-4c-1-2.1-3.5-2.9-5.8-3.2
			c-1-0.1-2-0.2-3-0.6c-2-0.8-3.1-2.8-4-4.7c-1.4-3-2.3-6.2-3.7-9.2c-1.4-3-3.3-5.9-6-7.8c-0.9-0.6-2-1.1-2.9-0.7
			c-0.4,0.1-0.7,0.4-1,0.7c-1.3,1.1-2.8,2.5-2.5,4.2c0.2,1.3,1.5,2.3,1.6,3.7c0.2,1.4-1,2.7-1,4.2c0,1.8,1.7,2.9,3,4.1
			c1.3,1.1,2.5,3.1,1.5,4.5c-0.4,0.5-1.1,0.8-1.4,1.4c-0.3,0.5-0.4,1.1-0.5,1.6c-0.4,3-0.3,6.2,0.2,9.2c0.2,0.9,0.3,1.9,0.3,2.8
			c-0.1,1.1-0.6,2.1-0.9,3.1c-1.7,4.8-0.7,10.4,2.5,14.4c0,0,0.1,0.1,0.1,0.1h-21.3V533H489v6.9h9.1l9,15.4v20.5h-35.8v9.6l15.4,23
			h10.1v21.4h-10.6v8.8h10.6l5.1,10.5v33.1h-5.1v85.6h445.7v-85.6h-5.1V649l5.1-10.5h10.6v-8.8h-10.6v-21.4H952.6z M581,747.2h-22.7
			V620.2H581V747.2z M631.6,747.2h-22.7V620.2h22.7V747.2z M660.7,510.6c0.5-2.3,1.7-4.4,3.1-6.3c0.4-0.6,0.9-1.2,1.6-1.4
			c1.5-0.5,2.9,0.7,4,1.8c1.1,1.1,2.3,2.3,2.9,3.8c0.5,1.2,0.6,2.5,0.6,3.8c0.1,2.4,0.3,4.9,0.4,7.3h-10c0-0.3,0-0.6-0.1-0.9
			c-0.2-0.5-0.7-1-1.1-1.4C660.7,515.4,660.3,512.9,660.7,510.6z M682.2,747.2h-22.7V620.2h22.7V747.2z M691,512.5v7h-11.1
			c0,0,0,0,0,0c0.5-2.1,0.5-4.3,1.2-6.3c0.5-1.4,1.4-2.6,1.9-4c1.3-3.4,0.5-7.3,2-10.6c1.3,1,2.7,1.9,4.2,2.6c1.1,0.6,2.4,1.2,3.7,1
			C691.7,505.4,691,508.9,691,512.5z M732.8,747.2h-22.7V620.2h22.7V747.2z M770,512.2c0.1-1.3,0.2-2.6,0.6-3.8
			c0.6-1.5,1.8-2.7,2.9-3.8c1.1-1.1,2.5-2.3,4-1.8c0.7,0.2,1.2,0.8,1.6,1.4c1.4,1.9,2.6,4,3.1,6.3c0.5,2.3,0,4.9-1.5,6.7
			c-0.4,0.5-0.8,0.9-1.1,1.4c-0.1,0.3-0.2,0.6-0.1,0.9h-10C769.7,517.1,769.9,514.7,770,512.2z M750.1,502.2c1.3,0.2,2.6-0.3,3.7-1
			c1.4-0.8,2.8-1.7,4.2-2.6c1.5,3.3,0.7,7.2,2,10.6c0.5,1.4,1.4,2.6,1.9,4c0.7,2,0.7,4.3,1.2,6.3c0,0,0,0,0,0h-11.1v-7
			C751.9,508.9,751.3,505.4,750.1,502.2z M783.5,747.2h-22.7V620.2h22.7V747.2z M834.1,747.2h-22.7V620.2h22.7V747.2z M884.7,747.2
			H862V620.2h22.7V747.2z"/>
		<path class="st6" d="M1065.6,287.2c0-14.4-9.4-26.6-22.3-30.9v-11.1h3.8v-4.5h-7.8v-12.5h-4.3V121.5h-4v106.7h-4.3v12.5h-7.8v4.5
			h3.8v11.1c-13,4.3-22.3,16.5-22.3,30.9c0,13.8,8.6,25.6,20.8,30.3l-0.1,6.7h-7.3v6h7.3l-4.4,439h32.5l-4.4-439h7.3v-6h-7.3
			l-0.1-6.7C1057,312.8,1065.6,301,1065.6,287.2z"/>
		<path class="st3" d="M214.2,768.7l4.8-356.3c0,0,24.7-41.2,83.7-49.4v15.8h14.4v26.8h16.5v363.1H214.2z"/>
		<rect x="135.4" y="747.8" class="st6" width="1169.3" height="22.2"/>
	</g>
	<g>
		<path class="st0" d="M1078.6,698.2c0,8.7,7.1,15.8,15.8,15.8c4.9,0,9.4-2.3,12.2-5.9l14.1,9V750c0,1,0.8,1.8,1.8,1.8
			c1,0,1.8-0.8,1.8-1.8v-22.6l12-7.5c2.3,2.8,5.8,4.6,9.7,4.6c6.9,0,12.5-5.6,12.5-12.5s-5.6-12.5-12.5-12.5
			c-6.9,0-12.5,5.6-12.5,12.5c0,1.8,0.4,3.4,1,5l-10.2,6.4V704c12.8-0.9,22.9-11.6,22.9-24.6c0-13.6-11-24.6-24.6-24.6
			c-13.6,0-24.6,11-24.6,24.6c0,1.2,0.1,2.3,0.2,3.4c-1.2-0.3-2.4-0.5-3.7-0.5C1085.6,682.4,1078.6,689.5,1078.6,698.2z
			 M1108.5,705.1c0.7-1.4,1.2-2.9,1.4-4.5c3.2,1.9,6.9,3.1,10.8,3.4v8.9L1108.5,705.1z"/>
		<path class="st0" d="M159.3,698.2c0,8.7,7.1,15.8,15.8,15.8c4.9,0,9.4-2.3,12.2-5.9l14.1,9V750c0,1,0.8,1.8,1.8,1.8
			c1,0,1.8-0.8,1.8-1.8v-22.6l12-7.5c2.3,2.8,5.8,4.6,9.7,4.6c6.9,0,12.5-5.6,12.5-12.5s-5.6-12.5-12.5-12.5s-12.5,5.6-12.5,12.5
			c0,1.8,0.4,3.4,1,5l-10.2,6.4V704c12.8-0.9,22.9-11.6,22.9-24.6c0-13.6-11-24.6-24.6-24.6c-13.6,0-24.6,11-24.6,24.6
			c0,1.2,0.1,2.3,0.2,3.4c-1.2-0.3-2.4-0.5-3.7-0.5C166.4,682.4,159.3,689.5,159.3,698.2z M189.2,705.1c0.7-1.4,1.2-2.9,1.4-4.5
			c3.2,1.9,6.9,3.1,10.8,3.4v8.9L189.2,705.1z"/>
		<path class="st0" d="M471.8,681.1c-0.7,0-1.4,0-2.1,0.1c-2.1-6.5-8.1-11.1-15.3-11.1c-6.4,0-11.9,3.7-14.5,9.1
			c-1.4-0.9-3.1-1.4-4.8-1.4c-5,0-9.1,4.1-9.1,9.1c0,2.3,0.8,4.3,2.2,5.9c-5,2.4-8.4,7.5-8.4,13.3c0,8.2,6.6,14.8,14.8,14.8
			c3.1,0,6-1,8.4-2.6c2.2,1.7,5,2.7,8,2.7c0.7,0,1.4-0.1,2-0.2v27c0,0.8,0.7,1.5,1.5,1.5c0.8,0,1.5-0.7,1.5-1.5v-27.8
			c1.6-0.7,3.1-1.6,4.3-2.9c3.2,2.3,7.2,3.6,11.4,3.6c10.9,0,19.8-8.9,19.8-19.8C491.6,690,482.7,681.1,471.8,681.1z"/>
		<path class="st0" d="M1282.3,687.7c-0.6,0-1.3,0-1.9,0.1c-1.9-5.8-7.3-10.1-13.8-10.1c-5.8,0-10.7,3.4-13.1,8.2
			c-1.3-0.8-2.8-1.3-4.4-1.3c-4.5,0-8.2,3.7-8.2,8.2c0,2,0.8,3.9,2,5.4c-4.5,2.2-7.6,6.7-7.6,12c0,7.4,6,13.4,13.4,13.4
			c2.8,0,5.4-0.9,7.6-2.4c2,1.5,4.5,2.4,7.2,2.4c0.6,0,1.2,0,1.8-0.1v24.4c0,0.7,0.6,1.3,1.3,1.3c0.7,0,1.3-0.6,1.3-1.3v-25.1
			c1.5-0.6,2.8-1.5,3.9-2.6c2.9,2.1,6.5,3.3,10.3,3.3c9.9,0,17.9-8,17.9-17.9C1300.2,695.7,1292.1,687.7,1282.3,687.7z"/>
		<path class="st0" d="M998.9,666.9c-1.6,0-3.1,0.2-4.6,0.6c0.2-1.4,0.3-2.8,0.3-4.2c0-16.6-13.5-30.1-30.1-30.1
			c-16.6,0-30.1,13.5-30.1,30.1c0,15.9,12.4,29,28,30.1v23.5l-12.5-7.8c0.8-1.9,1.2-3.9,1.2-6.1c0-8.5-6.9-15.3-15.3-15.3
			c-8.5,0-15.3,6.9-15.3,15.3s6.9,15.3,15.3,15.3c4.8,0,9-2.2,11.8-5.6l14.7,9.2v27.7c0,1.2,1,2.2,2.2,2.2c1.2,0,2.2-1,2.2-2.2
			v-40.3l17.3-11c3.5,4.4,8.9,7.2,15,7.2c10.6,0,19.3-8.6,19.3-19.3C1018.2,675.6,1009.6,666.9,998.9,666.9z M966.7,704.2v-10.8
			c4.8-0.3,9.3-1.8,13.2-4.1c0.3,1.9,0.9,3.8,1.7,5.5L966.7,704.2z"/>
		<path class="st0" d="M1208.5,650.5c-1,0-2,0.1-3,0.2c-3-9.4-11.8-16.1-22.1-16.1c-9.2,0-17.2,5.4-21,13.2c-2-1.3-4.4-2-7-2
			c-7.2,0-13.1,5.9-13.1,13.1c0,3.3,1.2,6.3,3.2,8.6c-7.2,3.5-12.1,10.8-12.1,19.3c0,11.8,9.6,21.4,21.4,21.4
			c4.5,0,8.7-1.4,12.2-3.8c3.2,2.4,7.2,3.9,11.5,3.9c1,0,2-0.1,2.9-0.2v39.1c0,1.2,1,2.1,2.1,2.1s2.1-1,2.1-2.1v-40.3
			c2.4-1,4.5-2.4,6.3-4.2c4.7,3.3,10.4,5.3,16.6,5.3c15.9,0,28.7-12.9,28.7-28.7C1237.2,663.3,1224.3,650.5,1208.5,650.5z"/>
	</g>
</g>
<g>
	<g>
		<g>
			<path class="st7" d="M224.7,259.1c5.3-3.6,13.2-1.4,16.7,3.8c0,0-2.2,0.3-2.2,0.3c1.1-2.9,2.7-5.9,5.5-7.5
				c2.7-1.6,6.9-1.4,8.6,1.4c-2.2-1.8-5.4-1.3-7.5,0.2c-2.1,1.7-3.3,4.2-4.2,6.7c-0.3,1-1.7,1.1-2.2,0.3c-0.7-1.1-1.6-2-2.7-2.8
				C233.2,258.9,228.8,258,224.7,259.1L224.7,259.1z"/>
		</g>
		<g>
			<path class="st7" d="M253.9,239.5c6.3-2,13.5,1.1,17,6.6c0,0-2.1,0-2.1,0c2.7-4.3,7.3-9.6,12.9-8c-5.4,0.4-8.3,5.2-10.8,9.3
				c-0.5,0.8-1.6,0.8-2.1,0C265.6,242.6,259.8,239.7,253.9,239.5L253.9,239.5z"/>
		</g>
	</g>
	<g>
		<g>
			<path class="st7" d="M443.6,265.1c6-2.1,13,1.9,15,7.8c0,0-2.2-0.3-2.2-0.3c1.7-2.5,4.1-5,7.2-5.8c3-0.9,7,0.4,7.9,3.5
				c-2.7-3.5-7.8-2.3-10.4,0.6c-0.9,0.9-1.8,2-2.6,3.2c-0.4,0.6-1.2,0.7-1.8,0.3c-0.2-0.2-0.4-0.4-0.5-0.6c-0.4-1.2-1.1-2.4-1.9-3.4
				C451.8,267.1,447.8,265.1,443.6,265.1L443.6,265.1z"/>
		</g>
		<g>
			<path class="st7" d="M430.8,248.4c4.2-1.8,9.6,1.1,11,5.4c0,0-2.2-0.3-2.2-0.3c1.3-1.8,3-3.6,5.3-4.2c2.2-0.6,5.2,0.4,5.7,2.8
				c-3.1-3.1-7-0.2-8.9,2.9c-0.5,0.9-1.9,0.7-2.2-0.3c-0.6-1.6-1.7-3.1-3.2-4.2C434.7,249.4,432.9,248.6,430.8,248.4L430.8,248.4z"
				/>
		</g>
		<g>
			<path class="st7" d="M416.1,283.7c6.5-0.4,12.7,4.4,14.7,10.5c0,0-2-0.5-2-0.5c3.6-3.5,9.4-7.4,14.4-4.4
				c-5.3-0.9-9.2,2.9-12.7,6.2c-0.6,0.6-1.8,0.3-2-0.5C426.5,289.6,421.6,285.4,416.1,283.7L416.1,283.7z"/>
		</g>
		<g>
			<path class="st7" d="M360.9,313.9c8.8-2.4,18.7,2.2,23.3,10c0,0-2.8-0.1-2.8-0.1c3.1-4.5,7.1-9.4,12.7-10.7
				c1.9-0.4,3.8-0.4,5.6,0.2c-1.8,0-3.5,0.5-5.1,1.3c-4.8,2.3-7.6,6.9-10.5,11.1c-0.6,1-2.2,1-2.8-0.1c-2.3-3.8-5.9-6.8-10-8.9
				C368.2,315.2,364.6,314.2,360.9,313.9L360.9,313.9z"/>
		</g>
	</g>
	<g>
		<path class="st7" d="M108.3,322.8c3.7-2.7,8.6-3.8,13.1-3.5c4.7,0.2,9.4,2,13.1,5l-2.7,0.9c1.4-5.5,3.5-11.6,8.5-14.9
			c1.6-1.1,3.6-1.8,5.5-1.8c-1.8,0.7-3.3,1.7-4.5,3c-3.9,3.9-4.9,9.4-6.2,14.6c-0.3,1.2-1.8,1.7-2.7,0.9c-3.6-2.8-8.2-4.5-12.9-5.1
			C115.7,321.4,112,321.8,108.3,322.8L108.3,322.8z"/>
	</g>
</g>
</svg>
