<svg width="42" height="42" viewBox="0 0 42 42" fill="none" xmlns="http://www.w3.org/2000/svg">
<rect x="41.5435" y="0.456522" width="41.087" height="41.087" rx="20.5435" transform="rotate(90 41.5435 0.456522)" fill="white"/>
<rect x="41.5435" y="0.456522" width="41.087" height="41.087" rx="20.5435" transform="rotate(90 41.5435 0.456522)" stroke="white" stroke-width="0.913044"/>
<path d="M28.6087 21.9512C29.134 21.9512 29.5598 21.5254 29.5598 21.0001C29.5598 20.4748 29.134 20.049 28.6087 20.049L15.2119 20.049L19.7703 15.4906C20.1418 15.1191 20.1418 14.5169 19.7703 14.1455C19.3989 13.7741 18.7967 13.7741 18.4253 14.1455L12.9158 19.6551C12.1729 20.3979 12.1729 21.6023 12.9158 22.3451L18.4253 27.8547C18.7967 28.2261 19.3989 28.2261 19.7703 27.8547C20.1418 27.4833 20.1418 26.8811 19.7703 26.5096L15.2119 21.9512L28.6087 21.9512Z" fill="#0D0D0D"/>
</svg>
