<svg width="36" height="36" viewBox="0 0 36 36" fill="none" xmlns="http://www.w3.org/2000/svg">
<path d="M8 36L28 36C30.1217 36 32.1566 35.1571 33.6569 33.6569C35.1571 32.1566 36 30.1217 36 28L36 8C36 5.87827 35.1571 3.84344 33.6569 2.34315C32.1566 0.842856 30.1217 -5.13895e-07 28 -6.99382e-07L8 -2.44784e-06C5.87827 -2.63333e-06 3.84344 0.842853 2.34315 2.34314C0.842859 3.84344 2.63333e-06 5.87826 2.44784e-06 8L6.99382e-07 28C5.13895e-07 30.1217 0.842857 32.1566 2.34315 33.6569C3.84344 35.1571 5.87827 36 8 36ZM14 13.06C13.7191 12.7787 13.5613 12.3975 13.5613 12C13.5613 11.6025 13.7191 11.2212 14 10.94C14.2813 10.6591 14.6625 10.5013 15.06 10.5013C15.4575 10.5013 15.8388 10.6591 16.12 10.94L22.12 16.94C22.4009 17.2213 22.5587 17.6025 22.5587 18C22.5587 18.3975 22.4009 18.7787 22.12 19.06L16.12 25.06C15.8357 25.325 15.4596 25.4692 15.071 25.4623C14.6824 25.4555 14.3116 25.2981 14.0368 25.0232C13.7619 24.7484 13.6045 24.3776 13.5977 23.989C13.5908 23.6004 13.735 23.2243 14 22.94L18.88 18L14 13.06Z" fill="white"/>
</svg>
