<svg width="36" height="36" viewBox="0 0 36 36" fill="none" xmlns="http://www.w3.org/2000/svg">
<path d="M28 0H8C5.87827 0 3.84344 0.842854 2.34315 2.34315C0.842854 3.84344 0 5.87827 0 8V28C0 30.1217 0.842854 32.1566 2.34315 33.6569C3.84344 35.1571 5.87827 36 8 36H28C30.1217 36 32.1566 35.1571 33.6569 33.6569C35.1571 32.1566 36 30.1217 36 28V8C36 5.87827 35.1571 3.84344 33.6569 2.34315C32.1566 0.842854 30.1217 0 28 0ZM22 22.94C22.2809 23.2213 22.4387 23.6025 22.4387 24C22.4387 24.3975 22.2809 24.7787 22 25.06C21.7187 25.3409 21.3375 25.4987 20.94 25.4987C20.5425 25.4987 20.1612 25.3409 19.88 25.06L13.88 19.06C13.5991 18.7787 13.4413 18.3975 13.4413 18C13.4413 17.6025 13.5991 17.2213 13.88 16.94L19.88 10.94C20.1643 10.675 20.5404 10.5308 20.929 10.5376C21.3176 10.5445 21.6884 10.7019 21.9632 10.9768C22.2381 11.2516 22.3955 11.6224 22.4023 12.011C22.4092 12.3996 22.265 12.7756 22 13.06L17.12 18L22 22.94Z" fill="white"/>
</svg>
