<svg width="42" height="42" viewBox="0 0 42 42" fill="none" xmlns="http://www.w3.org/2000/svg">
<rect x="0.456522" y="41.5435" width="41.087" height="41.087" rx="20.5435" transform="rotate(-90 0.456522 41.5435)" fill="white"/>
<rect x="0.456522" y="41.5435" width="41.087" height="41.087" rx="20.5435" transform="rotate(-90 0.456522 41.5435)" stroke="white" stroke-width="0.913044"/>
<path d="M13.3913 20.0488C12.866 20.0488 12.4402 20.4746 12.4402 20.9999C12.4402 21.5252 12.866 21.951 13.3913 21.951L26.7881 21.951L22.2297 26.5094C21.8582 26.8809 21.8582 27.4831 22.2297 27.8545C22.6011 28.2259 23.2033 28.2259 23.5747 27.8545L29.0842 22.3449C29.8271 21.6021 29.8271 20.3977 29.0842 19.6549L23.5747 14.1453C23.2033 13.7739 22.6011 13.7739 22.2297 14.1453C21.8582 14.5167 21.8582 15.1189 22.2297 15.4904L26.7881 20.0488L13.3913 20.0488Z" fill="#0D0D0D"/>
</svg>
