<svg xmlns="http://www.w3.org/2000/svg" viewBox="0 0 500 500"><g id="freepik--Floor--inject-158"><path id="freepik--floor--inject-158" d="M78.24,245.13c-94.86,54.77-94.85,143.56,0,198.33s248.65,54.76,343.51,0,94.85-143.56,0-198.33S173.1,190.37,78.24,245.13Z" style="fill:#f5f5f5"></path></g><g id="freepik--Shadows--inject-158"><path id="freepik--Shadow--inject-158" d="M253.67,391.54a1.45,1.45,0,0,1-.68,1.09l-.09.05-109.32,63.1h0a4.42,4.42,0,0,1-2.09.51,4.59,4.59,0,0,1-2.28-.52L66.75,414h0a2.85,2.85,0,0,1-1.43-2.59v-.08a2.86,2.86,0,0,1,1.09-2.11s0,0,0,0L172,348.23h0a7.87,7.87,0,0,1,3.57-1.06h.07a8.09,8.09,0,0,1,4.22,1l.15.08,72.73,42,0,0,.1.06.08.05,0,0a1.52,1.52,0,0,1,.54.6.52.52,0,0,1,.06.16.27.27,0,0,1,0,.14.22.22,0,0,1,0,.1v.15Z" style="fill:#e0e0e0"></path><ellipse id="freepik--shadow--inject-158" cx="94.35" cy="334.59" rx="52.2" ry="30.14" style="fill:#e0e0e0"></ellipse><ellipse id="freepik--shadow--inject-158" cx="405.53" cy="342.98" rx="52.2" ry="30.14" style="fill:#e0e0e0"></ellipse><polygon id="freepik--shadow--inject-158" points="314.79 288.81 220.38 343.34 94.87 270.88 189.28 216.35 314.79 288.81" style="fill:#e0e0e0"></polygon></g><g id="freepik--Books--inject-158"><g id="freepik--Book--inject-158"><path d="M293.8,94.2v4.2s-1.62-1.48-1.71-2.54S293.8,94.2,293.8,94.2Z"></path><path d="M290.57,93.18a4.41,4.41,0,0,0,3.24,5.62c4.58,1.44,7.46,0,8.14,1.28s-21.73,14.21-21.73,14.21l4.26-18.55Z" style="fill:#263238"></path><path d="M288.3,290.68V291l-2.24-1.3-94-54.36.13-191.86c0-2.68,1.47-4,3.27-3l3.27,1.9,89.94,51.9-.08.79Z" style="fill:#37474f"></path><path d="M269,119.44l-4.72-5.31,24.15-13.94c3.64,2.75,6.44,4.22,9.7,2.84Z" style="fill:#004AC8"></path><path d="M287.25,97.34,198.17,45.91a6.19,6.19,0,0,0-5.59,0L168.77,59.66l90.33,51.69s3.9-1,6.56,1.14,2.51-.58,2.51-.58l20.3-11.72C286.81,98,287.25,97.34,287.25,97.34Z" style="fill:#f5f5f5"></path><path d="M267.3,118.34c-.92-.53-1.31-1.15-.88-1.4l.76-.43c.84-.49.06-1.74-1.76-2.79s-4-1.52-4.81-1l-.76.44c-.43.25-2-.27-3.55-1.15l.55,187.28,2.25,1.29a2.06,2.06,0,0,0,1.31-.13l.76-.43c.84-.49,3,0,4.8,1s2.6,2.31,1.76,2.79l-.76.44c-.43.25,0,.86.88,1.39Z" style="fill:#263238"></path><path d="M259.1,300.27v.27l-2.24-1.3-96.2-55.53,0-182.11c0-2.68,1.46-4,3.27-3l3.27,1.9,91.88,50.8Z" style="fill:#37474f"></path><path d="M266.25,304.67V117.21l6,2.41V306.54a5.59,5.59,0,0,1-3.3-.33Z" style="fill:#37474f"></path><path d="M304.36,287.32a1.73,1.73,0,0,1,0,.32.43.43,0,0,1,0,.22,1.89,1.89,0,0,1-.19.44,1.63,1.63,0,0,1-.11.23,3.91,3.91,0,0,1-.52.73,7.3,7.3,0,0,1-.66.72c-.27.25-.55.48-.85.73a4.32,4.32,0,0,1-.53.4l-.44.31c-.33.23-.69.45-1.07.67l-20.72,12a19.78,19.78,0,0,1-7,2.49V119.62l32.16-19.27,0,186.92Z" style="fill:#455a64"></path><path d="M272.22,142.75v20.1c12.85-4.36,23.88-10.29,32.16-18.57V124.19C296.1,132.47,285.07,138.39,272.22,142.75Z" style="fill:#004AC8"></path><path d="M272.22,142.75v20.1c12.85-4.36,23.88-10.29,32.16-18.57V124.19C296.1,132.47,285.07,138.39,272.22,142.75Z" style="fill:#fff;opacity:0.4"></path><path d="M272.22,170.29v7.49c12.85-4.36,23.88-10.28,32.16-18.56v-7.49C296.1,160,285.07,165.93,272.22,170.29Z" style="fill:#004AC8"></path><path d="M272.22,170.29v7.49c12.85-4.36,23.88-10.28,32.16-18.56v-7.49C296.1,160,285.07,165.93,272.22,170.29Z" style="fill:#fff;opacity:0.4"></path><path d="M303.65,99.23l-1.28-.74-1-.59-.48-.29a1.51,1.51,0,0,0-1.3.2l-.9.52c-.89.48-2.37.44-4.14-.59s-2.55-2.32-1.64-2.84l.73-.43.13-.09c.35-.29-.52-1.19-2-2L270.78,80.26,205.26,42.41,204,41.72c-.2-.13-.44-.25-.7-.4s-.62-.37-1-.57-1.05-.59-1.59-.91l-.92-.53c-.52-.28-1-.58-1.48-.85,0,0,0,0,0,0a1.84,1.84,0,0,0-1.67,0l-2.38,1.38-.9.51a1.89,1.89,0,0,1,1.79,0l4,2.3c.46.25.92.53,1.36.78l4.73,2.73,82.51,47.63.58.32.28.17a4.37,4.37,0,0,0,.52,3,8.13,8.13,0,0,0,3,2.8c2.11,1.24,5.33,2.22,7.7,1.19a.13.13,0,0,1-.06,0l-.66.47c-.27.18-.56.36-.85.53l-20.72,12a14.84,14.84,0,0,1-6.9,2.17,4.25,4.25,0,0,0-.57-2.73,8.38,8.38,0,0,0-3.1-2.85,12.24,12.24,0,0,0-4.71-1.6c-.11,0-.24,0-.35,0a5.21,5.21,0,0,0-2.87.54L173.78,60.59l-2.9-1.67-3.69-2.14a2,2,0,0,0-2-.14l-3.28,1.89a2,2,0,0,1,2,.12l.06,0,9.77,5.65L256.29,112c1.54.89,3.13,1.42,3.57,1.17l.75-.43a2.64,2.64,0,0,1,1.71-.11,9.27,9.27,0,0,1,3.1,1.12c1.82,1.06,2.59,2.31,1.75,2.79l-.75.44c-.43.25,0,.86.88,1.39l1.64.94c1.8,1,6.41.08,10.27-2.15l20.72-12c.38-.22.73-.44,1.07-.67l.44-.31a5.25,5.25,0,0,0,.53-.4c.3-.25.58-.48.85-.73a8.78,8.78,0,0,0,.66-.72,4.44,4.44,0,0,0,.52-.73.85.85,0,0,0,.09-.22h0a1.54,1.54,0,0,0,.19-.44.44.44,0,0,0,0-.22A1.31,1.31,0,0,0,303.65,99.23Z" style="fill:#455a64"></path><path d="M303.65,99.23l-1.28-.74-1-.59-.48-.29a1.51,1.51,0,0,0-1.3.2l-.9.52c-.89.48-2.37.44-4.14-.59s-2.55-2.32-1.64-2.84l.73-.43.13-.09c.35-.29-.52-1.19-2-2L270.78,80.26,205.26,42.41,204,41.72c-.2-.13-.44-.25-.7-.4s-.62-.37-1-.57-1.05-.59-1.59-.91l-.92-.53c-.52-.28-1-.58-1.48-.85,0,0,0,0,0,0a1.84,1.84,0,0,0-1.67,0l-2.38,1.38-.9.51a1.89,1.89,0,0,1,1.79,0l4,2.3c.46.25.92.53,1.36.78l4.73,2.73,82.51,47.63.58.32.28.17a4.37,4.37,0,0,0,.52,3,8.13,8.13,0,0,0,3,2.8c2.11,1.24,5.33,2.22,7.7,1.19a.13.13,0,0,1-.06,0l-.66.47c-.27.18-.56.36-.85.53l-20.72,12a14.84,14.84,0,0,1-6.9,2.17,4.25,4.25,0,0,0-.57-2.73,8.38,8.38,0,0,0-3.1-2.85,12.24,12.24,0,0,0-4.71-1.6c-.11,0-.24,0-.35,0a5.21,5.21,0,0,0-2.87.54L173.78,60.59l-2.9-1.67-3.69-2.14a2,2,0,0,0-2-.14l-3.28,1.89a2,2,0,0,1,2,.12l.06,0,9.77,5.65L256.29,112c1.54.89,3.13,1.42,3.57,1.17l.75-.43a2.64,2.64,0,0,1,1.71-.11,9.27,9.27,0,0,1,3.1,1.12c1.82,1.06,2.59,2.31,1.75,2.79l-.75.44c-.43.25,0,.86.88,1.39l1.64.94c1.8,1,6.41.08,10.27-2.15l20.72-12c.38-.22.73-.44,1.07-.67l.44-.31a5.25,5.25,0,0,0,.53-.4c.3-.25.58-.48.85-.73a8.78,8.78,0,0,0,.66-.72,4.44,4.44,0,0,0,.52-.73.85.85,0,0,0,.09-.22h0a1.54,1.54,0,0,0,.19-.44.44.44,0,0,0,0-.22A1.31,1.31,0,0,0,303.65,99.23Z" style="fill:#fff;opacity:0.2"></path></g><g id="freepik--book--inject-158"><path d="M246.11,122.94v4.19s-1.62-1.47-1.71-2.53S246.11,122.94,246.11,122.94Z"></path><path d="M242.88,121.92a4.4,4.4,0,0,0,3.24,5.61c4.58,1.44,7.46,0,8.14,1.29S232.53,143,232.53,143l4.26-18.56Z" style="fill:#004AC8"></path><path d="M242.88,121.92a4.4,4.4,0,0,0,3.24,5.61c4.58,1.44,7.46,0,8.14,1.29S232.53,143,232.53,143l4.26-18.56Z" style="opacity:0.30000000000000004"></path><path d="M240.61,319.42v.26l-2.24-1.29-94-54.37.13-191.85c0-2.68,1.46-4,3.27-3L151,71.11,240.94,123l-.08.78Z" style="fill:#004AC8"></path><path d="M240.61,319.42v.26l-2.24-1.29-94-54.37.13-191.85c0-2.68,1.46-4,3.27-3L151,71.11,240.94,123l-.08.78Z" style="opacity:0.2"></path><path d="M221.35,148.18l-4.72-5.31,24.15-13.94c3.64,2.74,6.44,4.21,9.7,2.84Z" style="fill:#455a64"></path><path d="M239.56,126.07,150.48,74.65a6.19,6.19,0,0,0-5.59,0L121.08,88.39l90.33,51.7s3.9-1,6.56,1.13,2.51-.57,2.51-.57l20.3-11.72C239.12,126.7,239.56,126.07,239.56,126.07Z" style="fill:#f5f5f5"></path><path d="M219.61,147.07c-.92-.53-1.31-1.14-.88-1.39l.76-.44c.84-.48.06-1.73-1.76-2.79s-4-1.52-4.81-1l-.76.44c-.43.25-2-.27-3.55-1.16L209.16,328l2.25,1.29a2.07,2.07,0,0,0,1.31-.12l.76-.44c.84-.48,3,0,4.8,1s2.6,2.3,1.76,2.79l-.76.43c-.43.25,0,.87.88,1.4Z" style="fill:#004AC8"></path><path d="M219.61,147.07c-.92-.53-1.31-1.14-.88-1.39l.76-.44c.84-.48.06-1.73-1.76-2.79s-4-1.52-4.81-1l-.76.44c-.43.25-2-.27-3.55-1.16L209.16,328l2.25,1.29a2.07,2.07,0,0,0,1.31-.12l.76-.44c.84-.48,3,0,4.8,1s2.6,2.3,1.76,2.79l-.76.43c-.43.25,0,.87.88,1.4Z" style="fill:#fff;opacity:0.25"></path><path d="M211.41,329v.26L209.16,328,113,272.44l0-182.11c0-2.67,1.46-4,3.27-2.94l3.27,1.89,91.88,50.81Z" style="fill:#004AC8"></path><path d="M211.41,329v.26L209.16,328,113,272.44l0-182.11c0-2.67,1.46-4,3.27-2.94l3.27,1.89,91.88,50.81Z" style="fill:#fff;opacity:0.4"></path><path d="M218.56,333.4V145.94l6,2.41V335.27a5.69,5.69,0,0,1-3.3-.32Z" style="fill:#004AC8"></path><path d="M218.56,333.4V145.94l6,2.41V335.27a5.69,5.69,0,0,1-3.3-.32Z" style="fill:#fff;opacity:0.4"></path><path d="M256.67,316.06a1.82,1.82,0,0,1,0,.32.39.39,0,0,1,0,.21,2.25,2.25,0,0,1-.19.45,1.63,1.63,0,0,1-.11.23,3.55,3.55,0,0,1-.52.72,6.32,6.32,0,0,1-.66.72c-.27.25-.55.49-.85.73a5.34,5.34,0,0,1-.53.41l-.44.3a12.26,12.26,0,0,1-1.07.68l-20.72,12a19.55,19.55,0,0,1-7,2.48V148.35l32.16-19.27,0,186.92Z" style="fill:#004AC8"></path><g style="opacity:0.7000000000000001"><path d="M256.67,316.06a1.82,1.82,0,0,1,0,.32.39.39,0,0,1,0,.21,2.25,2.25,0,0,1-.19.45,1.63,1.63,0,0,1-.11.23,3.55,3.55,0,0,1-.52.72,6.32,6.32,0,0,1-.66.72c-.27.25-.55.49-.85.73a5.34,5.34,0,0,1-.53.41l-.44.3a12.26,12.26,0,0,1-1.07.68l-20.72,12a19.55,19.55,0,0,1-7,2.48V148.35l32.16-19.27,0,186.92Z" style="fill:#fff"></path></g><path d="M224.53,162.16v20.1c12.85-4.37,23.88-10.29,32.16-18.57V143.6C248.41,151.87,237.38,157.8,224.53,162.16Z" style="fill:#fafafa"></path><path d="M224.53,294.34v20.09c12.85-4.36,23.88-10.29,32.16-18.56v-20.1C248.41,284.05,237.38,290,224.53,294.34Z" style="fill:#fafafa"></path><path d="M231.52,145.86l-1.61-2.8a14.59,14.59,0,0,1-6.9,2.17,4.26,4.26,0,0,0-.57-2.73,8.55,8.55,0,0,0-3.1-2.85,12.4,12.4,0,0,0-4.71-1.59,2.11,2.11,0,0,0-.35,0,5.27,5.27,0,0,0-2.88.54L126.09,89.32l-2.9-1.66-3.7-2.14a2,2,0,0,0-2-.15l-3.28,1.89a2,2,0,0,1,2.05.13l0,0,9.78,5.66L208.6,140.7c1.54.88,3.13,1.42,3.57,1.17l.75-.44a2.64,2.64,0,0,1,1.71-.11,9,9,0,0,1,3.09,1.13c1.83,1.05,2.6,2.3,1.76,2.79l-.75.43c-.43.25,0,.87.88,1.4l1.64.93C223.05,149.05,227.66,148.09,231.52,145.86Z" style="fill:#004AC8"></path><path d="M231.52,145.86l-1.61-2.8a14.59,14.59,0,0,1-6.9,2.17,4.26,4.26,0,0,0-.57-2.73,8.55,8.55,0,0,0-3.1-2.85,12.4,12.4,0,0,0-4.71-1.59,2.11,2.11,0,0,0-.35,0,5.27,5.27,0,0,0-2.88.54L126.09,89.32l-2.9-1.66-3.7-2.14a2,2,0,0,0-2-.15l-3.28,1.89a2,2,0,0,1,2.05.13l0,0,9.78,5.66L208.6,140.7c1.54.88,3.13,1.42,3.57,1.17l.75-.44a2.64,2.64,0,0,1,1.71-.11,9,9,0,0,1,3.09,1.13c1.83,1.05,2.6,2.3,1.76,2.79l-.75.43c-.43.25,0,.87.88,1.4l1.64.93C223.05,149.05,227.66,148.09,231.52,145.86Z" style="fill:#fff;opacity:0.6000000000000001"></path><path d="M229.91,143.06l20.71-12c.3-.17.58-.35.86-.53l.66-.47a.34.34,0,0,0,.06-.06c-2.37,1-5.59.05-7.7-1.19a8.05,8.05,0,0,1-3-2.8,4.35,4.35,0,0,1-.52-3l-.28-.17-.58-.32L157.57,74.9l-4.73-2.74-1.36-.78-4-2.3a1.92,1.92,0,0,0-1.79,0l.9-.52L149,67.2a1.8,1.8,0,0,1,1.68,0s0,0,0,0c.47.27,1,.56,1.48.84l.92.53c.54.32,1.09.63,1.59.91s.69.39,1,.57l.7.4,1.22.7L223.09,109,244,121.07c1.49.86,2.37,1.75,2,2.05a1.2,1.2,0,0,1-.12.09l-.73.42c-.91.53-.18,1.8,1.64,2.84s3.24,1.07,4.14.59l.9-.52a1.53,1.53,0,0,1,1.3-.19c.14.07.31.18.48.28l1,.6L256,128a1.32,1.32,0,0,1,.69,1.49.41.41,0,0,1,0,.21,1.6,1.6,0,0,1-.19.45h0a.72.72,0,0,1-.1.22,3.79,3.79,0,0,1-.51.72,7.52,7.52,0,0,1-.67.72c-.26.25-.54.49-.84.74s-.35.27-.53.4l-.44.31c-.34.22-.69.45-1.07.67l-20.72,12Z" style="fill:#004AC8"></path><path d="M229.91,143.06l20.71-12c.3-.17.58-.35.86-.53l.66-.47a.34.34,0,0,0,.06-.06c-2.37,1-5.59.05-7.7-1.19a8.05,8.05,0,0,1-3-2.8,4.35,4.35,0,0,1-.52-3l-.28-.17-.58-.32L157.57,74.9l-4.73-2.74-1.36-.78-4-2.3a1.92,1.92,0,0,0-1.79,0l.9-.52L149,67.2a1.8,1.8,0,0,1,1.68,0s0,0,0,0c.47.27,1,.56,1.48.84l.92.53c.54.32,1.09.63,1.59.91s.69.39,1,.57l.7.4,1.22.7L223.09,109,244,121.07c1.49.86,2.37,1.75,2,2.05a1.2,1.2,0,0,1-.12.09l-.73.42c-.91.53-.18,1.8,1.64,2.84s3.24,1.07,4.14.59l.9-.52a1.53,1.53,0,0,1,1.3-.19c.14.07.31.18.48.28l1,.6L256,128a1.32,1.32,0,0,1,.69,1.49.41.41,0,0,1,0,.21,1.6,1.6,0,0,1-.19.45h0a.72.72,0,0,1-.1.22,3.79,3.79,0,0,1-.51.72,7.52,7.52,0,0,1-.67.72c-.26.25-.54.49-.84.74s-.35.27-.53.4l-.44.31c-.34.22-.69.45-1.07.67l-20.72,12Z" style="fill:#fff;opacity:0.6000000000000001"></path></g></g><g id="freepik--Plant--inject-158"><g id="freepik--plant--inject-158"><g id="freepik--Pot--inject-158"><path d="M138,294.19H48.32l9.28,38.64h0c.71,4.66,4.14,9.2,10.31,12.77,14,8.05,36.57,8.05,50.52,0,6.65-3.84,10.09-8.82,10.4-13.84Z" style="fill:#37474f"></path><path d="M127.09,320.68a38.58,38.58,0,0,0,5.38-3.76l5.05-20.65a36.3,36.3,0,0,1-9.08,7.21c-18.92,10.93-49.25,11.2-68.82.89l2.28-9.2-.7-1H48.33l9.27,38.63h0c.71,4.65,4.14,9.2,10.31,12.77,9.94,5.73,24.27,7.36,36.73,4.93-22.35,1.66-37.68-8.11-40-17.12-.92-3.59-2.52-11.55-2.52-11.55C80.82,331.34,109.25,331,127.09,320.68Z" style="fill:#263238"></path><path d="M142.69,282.76a18.82,18.82,0,0,1-3,7,33.24,33.24,0,0,1-11.26,10c-19.47,11.24-51,11.24-70.52,0a33.1,33.1,0,0,1-11.25-10,19,19,0,0,1-3-7h0c-1.74-8.45,3-17.26,14.25-23.74,19.47-11.25,51.05-11.25,70.52,0C139.67,265.5,144.43,274.31,142.69,282.76Z" style="fill:#455a64"></path><path d="M139.7,289.74a33.24,33.24,0,0,1-11.26,10c-19.47,11.24-51,11.24-70.52,0a33.1,33.1,0,0,1-11.25-10,19,19,0,0,1-3-7h0L45.88,298c1,6.12,5.57,12.08,13.7,16.76,18.56,10.71,48.64,10.71,67.2,0,8-4.63,12.57-10.51,13.65-16.55l.12-.78,2.14-14.64A18.82,18.82,0,0,1,139.7,289.74Z" style="fill:#37474f"></path><path d="M122.57,262.41C106.34,253,80,253,63.81,262.41c-9.19,5.31-13.17,12.47-12,19.38.93,5.31,4.92,10.48,12,14.54,16.21,9.38,42.53,9.38,58.76,0,7-4.06,11-9.23,12-14.52C135.73,274.88,131.76,267.72,122.57,262.41Z" style="fill:#263238"></path><path d="M54.59,288.22a27.9,27.9,0,0,0,9.22,8.11c16.21,9.38,42.53,9.38,58.76,0a28,28,0,0,0,9.21-8.11c-.12-5.62-3.88-11.2-11.29-15.48-15.08-8.71-39.53-8.71-54.6,0C58.47,277,54.71,282.61,54.59,288.22Z" style="fill:#fafafa"></path></g><g id="freepik--plant--inject-158"><path d="M96,273.73c-7.42-2-8.67-18.08-4.52-35,4-16.5,17-41.23,19.74-40.69s6.18,27.43,4.25,45.19C113.14,264.7,103.43,275.74,96,273.73Z" style="fill:#004AC8"></path><path d="M96,273.73c-7.42-2-8.67-18.08-4.52-35,4-16.5,17-41.23,19.74-40.69s6.18,27.43,4.25,45.19C113.14,264.7,103.43,275.74,96,273.73Z" style="opacity:0.30000000000000004"></path><path d="M99.63,221.78c1.32,2.1,2.14,5.66,5.26,5.67,2.5,0,3.81-2.63,6.06-3.24,1.82-.49,3.53.47,5,1.49,0-.64-.05-1.29-.08-1.93a7.58,7.58,0,0,0-4.3-1.52,6.24,6.24,0,0,0-3.6,1.63c-1.16.89-2.57,2.25-4.16,1.59-1.8-.74-2.32-3-3.24-4.52a5.84,5.84,0,0,0-2-2l-.6,1.37A4.24,4.24,0,0,1,99.63,221.78Zm8.79-6.63c1.07-.51,1.68-1.57,2.51-2.36a3.6,3.6,0,0,1,3.82-.74l.13.07c-.07-.57-.14-1.14-.22-1.69a5.49,5.49,0,0,0-.7-.17,4.24,4.24,0,0,0-3.1.68c-1,.73-1.59,2-2.68,2.64-1.93,1.16-3.48-1-4.06-2.54-.25-.71-.46-1.44-.69-2.16l-.6,1.13c.13.51.26,1,.42,1.51C103.91,213.6,105.88,216.35,108.42,215.15Zm-.24,21.46c-1.35.82-2.49,2.21-4.06,2.65-3.82,1.1-4.7-4.81-7.13-6.55a5.12,5.12,0,0,0-3.47-.91c-.15.46-.3.91-.44,1.36a4.7,4.7,0,0,1,1.94,0,5.29,5.29,0,0,1,3.34,3c1.22,2.2,2.77,5.33,5.83,4.73a9.51,9.51,0,0,0,3.55-2,6.44,6.44,0,0,1,5.18-1.39,6.85,6.85,0,0,1,2.9,1.55c0-.58.07-1.16.1-1.75a7.38,7.38,0,0,0-3.54-1.57A6.57,6.57,0,0,0,108.18,236.61Zm2.33,13a7.46,7.46,0,0,0-5.06.66c-1.77.87-3,2.58-4.91,3.28-4,1.53-4.66-4.32-7.62-5.76a6.08,6.08,0,0,0-3.06-.59c-.06.46-.13.92-.18,1.38a5.72,5.72,0,0,1,1.17,0A5.42,5.42,0,0,1,95,251.8c1.43,2.66,3.31,4.82,6.58,3.23,1.75-.85,3-2.45,4.8-3.22a5.72,5.72,0,0,1,6,.56,8.7,8.7,0,0,1,1.14,1.39c.15-.57.29-1.17.42-1.77A6.44,6.44,0,0,0,110.51,249.58Z" style="fill:#004AC8;opacity:0.5"></path><path d="M96,273.73c7.42,2,17.13-9,19.47-30.54a126.83,126.83,0,0,0,.41-18.45c-6.06,5-12.13,15.13-12.13,15.13a163.4,163.4,0,0,0-7.21-16.22,113.26,113.26,0,0,0-5.06,15C87.34,255.65,88.59,271.72,96,273.73Z" style="opacity:0.1"></path><path d="M90,282.64c-9.77,6.26-18.86-16-23.72-32.82s-1.68-60.77,3.24-63.17C73,185,91.39,224.33,95,243.5,97.64,257.37,97.72,277.66,90,282.64Z" style="fill:#004AC8"></path><path d="M90,282.64c-9.77,6.26-18.86-16-23.72-32.82s-1.68-60.77,3.24-63.17C73,185,91.39,224.33,95,243.5,97.64,257.37,97.72,277.66,90,282.64Z" style="opacity:0.1"></path><path d="M68.91,217.68c3.06,1.51,5.5,1.52,7.89-1.06,2.22-2.41,3.86-5.44,7.32-5.05-.33-.77-.67-1.54-1-2.3a5.68,5.68,0,0,0-1.68.17c-3,.81-4.39,4-6.51,5.95-3.28,3.07-6.77-1-10.48-.73l-.33,0c0,.67-.07,1.35-.09,2A9.44,9.44,0,0,1,68.91,217.68Zm26.82,30.25a10.67,10.67,0,0,0-1.61-.47,5.9,5.9,0,0,0-4.6,1c-3,2.17-3.09,7-7.87,5.72-3.63-1-6.35-3.35-10.17-1.44a13.12,13.12,0,0,0-3.5,2.64c.18.56.37,1.12.55,1.68a10.66,10.66,0,0,1,4.75-3c4.11-1.06,7.21,3.1,11.31,2.42,3.33-.56,3.69-4.22,6-6,1.72-1.34,3.56-1,5.41-.34C95.92,249.44,95.83,248.68,95.73,247.93Zm-26.65-46.2c1.14,1.57,2.74,3.3,4.86,2.22s2.44-3.92,3.89-5.71c-.26-.51-.53-1-.79-1.51-1.41,1.89-2.12,6-4.82,5.86-2.12-.12-3-3.26-4.73-4.17a3.07,3.07,0,0,0-1.76-.34c-.07.43-.14.85-.2,1.3a1.93,1.93,0,0,1,.42,0C67.43,199.4,68.29,200.65,69.08,201.73Zm7.35,33.36c3.85.83,5.73-3.76,7.47-6.3a11.47,11.47,0,0,1,5.35-4.52c-.26-.69-.52-1.38-.79-2.08a7.57,7.57,0,0,0-2,.75,13.1,13.1,0,0,0-4.17,4.24c-1.17,1.74-2.13,4.06-3.93,5.23-2.06,1.34-4.47-.75-6.61-1.15a11.55,11.55,0,0,0-5.94.49,10.64,10.64,0,0,0-1.8.87c0,1,.09,1.9.15,2.83a9.11,9.11,0,0,1,6.25-2.11C72.65,233.39,74.32,234.63,76.43,235.09Z" style="fill:#004AC8"></path><path d="M89.9,226.05A54.79,54.79,0,0,0,82,239s-10.6-14.36-18-20.88c-.41,11.94.18,24.39,2.29,31.71,4.86,16.81,14,39.08,23.72,32.82,7.75-5,7.67-25.27,5-39.14A121.54,121.54,0,0,0,89.9,226.05Z" style="opacity:0.1"></path><path d="M89.3,294.09c-17.85,1-34.52-9.83-45.34-23.46S24.7,228.87,27.14,227.15s31.24,16,42.05,28.83C83.36,272.77,89.3,294.09,89.3,294.09Z" style="fill:#004AC8"></path><path d="M89.3,294.09c-17.85,1-34.52-9.83-45.34-23.46S24.7,228.87,27.14,227.15s31.24,16,42.05,28.83C83.36,272.77,89.3,294.09,89.3,294.09Z" style="opacity:0.2"></path><path d="M50.35,249.4c1-1.68.45-3.71.22-5.52a5.07,5.07,0,0,1,.72-3.46l-2-1.43a7.23,7.23,0,0,0-.73,4.84c.29,2.06.79,4.62-2,5-3,.41-7.15-2.27-9.56.7-1.16,1.44-.72,3.28-.76,5a4.8,4.8,0,0,1-.64,2.17c.32.68.65,1.35,1,2a6.11,6.11,0,0,0,1.33-3c.25-2.08-.56-4.76,2.24-5.2,1.94-.31,3.8.59,5.72.72C47.6,251.3,49.39,251,50.35,249.4Zm-10-14.9a3.78,3.78,0,0,1,.79-.85l-1.6-1c-1.31,1.72-1.31,4.09-2.64,5.8a3,3,0,0,1-3.37,1,5.68,5.68,0,0,0-3.71.12,5,5,0,0,0-.75.43c.13.43.27.86.41,1.3a4,4,0,0,1,1.87-.52c1.35,0,2.6.67,4,.57a3.47,3.47,0,0,0,2.36-1.21C39.19,238.52,39.26,236.27,40.39,234.5Zm19.77,23.91a8.72,8.72,0,0,0,2.71-4.59,29.72,29.72,0,0,0,.46-3.79c-.55-.49-1.11-1-1.69-1.49-.36,2.09-.16,4.2-1.24,6.16-1.24,2.26-3.09,2.91-5.56,2.91-1.77,0-3.51.11-4.77,1.52a9,9,0,0,0-1.78,4.79c-.36,2.48-.74,4.78-3,6.19a7.64,7.64,0,0,1-1.23.58c.41.52.85,1,1.29,1.55a7.26,7.26,0,0,0,2.56-1.91c3-3.54.56-10.57,6.91-10.57C56.77,259.77,58.55,259.75,60.16,258.41Zm9.6,1.8a8.52,8.52,0,0,1,1.34-1.87c-.51-.64-1-1.28-1.55-1.92A11.63,11.63,0,0,0,66.69,262c-.54,2.27-.84,4.75-2.32,6.65s-4,1.78-6.07,2.93a8.59,8.59,0,0,0-3.81,4.44,21.45,21.45,0,0,0-1,4.5c.62.52,1.25,1,1.89,1.55a2.16,2.16,0,0,1,0-.27c.4-2.53.7-5.12,2.67-7s4.48-1.51,6.5-2.93C68.49,269.21,67.82,264,69.76,260.21Zm7.73,7.44A12.16,12.16,0,0,0,76,269c-3,3.34-2.66,7.68-3.78,11.78-.57,2.09-1.69,4.22-3.79,5.09-1.71.71-3.63,0-5.11,1.36,0,.05-.09.11-.14.17.88.5,1.77,1,2.67,1.43a8.19,8.19,0,0,1,1.49-.17,6.64,6.64,0,0,0,2.77-.67,7.93,7.93,0,0,0,3.4-3.7c1.85-3.84,1-8.5,3.33-12.14a9.94,9.94,0,0,1,1.93-2.23Q78.18,268.77,77.49,267.65Z" style="fill:#004AC8"></path><path d="M49.11,238.88c1.68,14.77,9.56,54.52,40.19,55.21,0,0-5.94-21.32-20.11-38.11C64.6,250.54,56.78,244.23,49.11,238.88Z" style="opacity:0.2"></path><path d="M89.3,294.09c-14-2-26.08-10.93-32.27-37.37s-7.14-38.37-2.88-41c4.9-3,24.05,23.63,30.21,35.35C99.84,280.52,89.3,294.09,89.3,294.09Z" style="fill:#004AC8"></path><path d="M63.26,245.24c3.49,1.1,8.05,2.27,10.67-1.18,1.28-1.7,1.63-4,2.53-5.77-.62-.89-1.25-1.8-1.89-2.7-1.54,2.5-1.5,6.17-4.2,7.6-2,1.07-4.45.37-6.5-.25a15.17,15.17,0,0,0-6.45-1,8.69,8.69,0,0,0-3.36,1.18c.15.77.33,1.59.49,2.4a12.12,12.12,0,0,1,1.41-.67C58.44,244,60.81,244.47,63.26,245.24Zm-4.15-13.68a5.55,5.55,0,0,0,3.26.62c2.13-.44,3.25-2.5,4.33-4.17a9.14,9.14,0,0,1,1.08-1.38c-.44-.54-.88-1.08-1.32-1.6-.09.1-.18.17-.27.28-1.32,1.6-2.44,4.88-4.91,4.92-1.2,0-2.34-.76-3.5-1a8.34,8.34,0,0,0-3-.06,7.38,7.38,0,0,0-2.8,1.07c.07.61.15,1.25.23,1.9A8.31,8.31,0,0,1,56,231,7.45,7.45,0,0,1,59.11,231.56Zm15.32,29.36c1.34-1.95,2.31-4.17,4.29-5.59,2.31-1.66,4.63-1.56,7.15-1.27-.47-1-1-2-1.5-3a11.43,11.43,0,0,0-4.85.31,10.32,10.32,0,0,0-5.36,3.91c-1.21,1.69-2,3.76-3.59,5.18-2.86,2.61-6.72.32-9.91-.31a12,12,0,0,0-2.8-.22c.25.92.5,1.83.76,2.7a12.07,12.07,0,0,1,3.69.57C67.08,264.7,71.24,265.58,74.43,260.92Zm16.16,5.14c-.24.07-.47.12-.71.21a11,11,0,0,0-4.75,3.57c-1.36,1.76-2.08,3.89-3.37,5.69a4.41,4.41,0,0,1-5.58,1.86c-2.11-.67-4-1.16-6.17-.46a10.18,10.18,0,0,0-3.91,2.44c.48.72,1,1.38,1.47,2a8.18,8.18,0,0,1,3-1.76c1.77-.54,3.2-.07,4.84.6,4,1.65,7.46.6,9.93-3,1.2-1.76,1.9-3.84,3.24-5.5a7.86,7.86,0,0,1,2.9-2.22C91.23,268.39,90.94,267.25,90.59,266.06Z" style="fill:#fff;opacity:0.2"></path><path d="M84.36,251.07c-1.11-2.12-2.66-4.73-4.46-7.57-6.07,18.77-8,46.14,9.4,50.59C89.3,294.09,99.84,280.52,84.36,251.07Z" style="opacity:0.15"></path><path d="M96.55,294.09c17.84,1,34.52-9.83,45.33-23.46s19.26-41.76,16.82-43.48-31.23,16-42,28.83C102.48,272.77,96.55,294.09,96.55,294.09Z" style="fill:#004AC8"></path><path d="M96.55,294.09c17.84,1,34.52-9.83,45.33-23.46s19.26-41.76,16.82-43.48-31.23,16-42,28.83C102.48,272.77,96.55,294.09,96.55,294.09Z" style="opacity:0.2"></path><path d="M140,251.18c1.91-.13,3.78-1,5.72-.72,2.79.44,2,3.12,2.24,5.2a6,6,0,0,0,1.33,3l1-2a4.81,4.81,0,0,1-.65-2.17c0-1.68.4-3.52-.76-5-2.41-3-6.56-.29-9.56-.7-2.76-.38-2.26-2.94-2-5a7.29,7.29,0,0,0-.73-4.84l-2,1.43a5.07,5.07,0,0,1,.73,3.46c-.23,1.81-.83,3.84.22,5.52S138.24,251.3,140,251.18Zm8.17-11.06a3.49,3.49,0,0,0,2.37,1.21c1.36.1,2.61-.61,4-.57a4,4,0,0,1,1.88.52c.14-.44.27-.87.4-1.3a4.93,4.93,0,0,0-.74-.43,5.71,5.71,0,0,0-3.72-.12,3,3,0,0,1-3.37-1c-1.32-1.71-1.32-4.08-2.63-5.8l-1.61,1a3.57,3.57,0,0,1,.79.85C146.59,236.27,146.66,238.52,148.12,240.12Zm-17,19.64c6.34,0,3.92,7,6.91,10.57a7.17,7.17,0,0,0,2.56,1.91c.43-.52.87-1,1.29-1.55a7.64,7.64,0,0,1-1.23-.58c-2.32-1.41-2.69-3.71-3.06-6.19a8.89,8.89,0,0,0-1.78-4.79c-1.26-1.41-3-1.52-4.77-1.52-2.46,0-4.31-.65-5.55-2.91-1.08-2-.88-4.07-1.25-6.16-.58.5-1.14,1-1.69,1.49a31.63,31.63,0,0,0,.46,3.79,8.85,8.85,0,0,0,2.71,4.59C127.3,259.75,129.08,259.77,131.08,259.76Zm-9.88,12.16c2,1.42,4.61,1.16,6.5,2.93s2.26,4.45,2.67,7c0,.08,0,.18,0,.27.64-.51,1.26-1,1.89-1.55a20.85,20.85,0,0,0-1-4.5,8.62,8.62,0,0,0-3.8-4.44c-2-1.15-4.53-.94-6.08-2.93s-1.77-4.38-2.32-6.65a11.63,11.63,0,0,0-2.86-5.61c-.53.64-1,1.28-1.54,1.92a9.23,9.23,0,0,1,1.34,1.87C118,264,117.35,269.21,121.2,271.92Zm-14.17-2a10,10,0,0,1,1.94,2.23c2.3,3.64,1.48,8.3,3.33,12.14a7.91,7.91,0,0,0,3.39,3.7,6.68,6.68,0,0,0,2.77.67,8.19,8.19,0,0,1,1.49.17c.9-.45,1.8-.93,2.67-1.43a1.15,1.15,0,0,0-.14-.17c-1.48-1.33-3.4-.65-5.1-1.36-2.11-.87-3.22-3-3.79-5.09-1.12-4.1-.74-8.44-3.79-11.78a11.44,11.44,0,0,0-1.45-1.33Q107.68,268.77,107,269.9Z" style="fill:#004AC8"></path><path d="M136.73,238.88c-1.68,14.77-9.56,54.52-40.18,55.21,0,0,5.93-21.32,20.11-38.11C121.24,250.54,129.06,244.23,136.73,238.88Z" style="opacity:0.2"></path><path d="M96.55,294.09c14-2,26.08-10.93,32.27-37.37s7.13-38.37,2.88-41c-4.9-3-24.06,23.63-30.22,35.35C86,280.52,96.55,294.09,96.55,294.09Z" style="fill:#004AC8"></path><path d="M129.89,244.88a12,12,0,0,1,1.4.67l.5-2.4a8.74,8.74,0,0,0-3.37-1.18,15.1,15.1,0,0,0-6.44,1c-2.06.62-4.47,1.32-6.5.25-2.71-1.43-2.67-5.1-4.21-7.6-.64.9-1.27,1.81-1.88,2.7.89,1.79,1.24,4.07,2.52,5.77,2.63,3.45,7.18,2.28,10.68,1.18C125,244.47,127.41,244,129.89,244.88Zm0-13.92a8.27,8.27,0,0,1,3.77,1.16c.09-.65.17-1.29.24-1.9a7.49,7.49,0,0,0-2.81-1.07,8.29,8.29,0,0,0-3,.06c-1.16.26-2.31,1-3.5,1-2.48,0-3.59-3.32-4.92-4.92-.09-.11-.18-.18-.27-.28-.44.52-.88,1.06-1.32,1.6a8.54,8.54,0,0,1,1.08,1.38c1.09,1.67,2.2,3.73,4.33,4.17a5.54,5.54,0,0,0,3.26-.62A7.47,7.47,0,0,1,129.89,231Zm-6.36,32.26a12.07,12.07,0,0,1,3.69-.57c.26-.87.52-1.78.76-2.7a12.07,12.07,0,0,0-2.8.22c-3.19.63-7.05,2.92-9.91.31-1.56-1.42-2.38-3.49-3.59-5.18a10.3,10.3,0,0,0-5.35-3.91,11.44,11.44,0,0,0-4.85-.31c-.53,1-1,2-1.5,3,2.51-.29,4.84-.39,7.15,1.27,2,1.42,3,3.64,4.29,5.59C114.61,265.58,118.77,264.7,123.53,263.22ZM94.35,269.5a7.7,7.7,0,0,1,2.9,2.22c1.35,1.66,2,3.74,3.25,5.5,2.47,3.62,5.9,4.67,9.93,3a6.71,6.71,0,0,1,4.83-.6,8.3,8.3,0,0,1,3,1.76c.5-.65,1-1.31,1.46-2a10.14,10.14,0,0,0-3.9-2.44c-2.17-.7-4.06-.21-6.17.46a4.42,4.42,0,0,1-5.59-1.86c-1.28-1.8-2-3.93-3.36-5.69A10.93,10.93,0,0,0,96,266.27c-.24-.09-.47-.14-.71-.21C94.9,267.25,94.61,268.39,94.35,269.5Z" style="fill:#fff;opacity:0.2"></path><path d="M101.48,251.07c1.12-2.12,2.66-4.73,4.46-7.57,6.07,18.77,8,46.14-9.39,50.59C96.55,294.09,86,280.52,101.48,251.07Z" style="opacity:0.15"></path><path d="M92.92,297c11.84,0,15.78-16.12,14.59-29.08s-9.38-37.64-14.59-37.64S79.52,255,78.33,267.93,81.08,297,92.92,297Z" style="fill:#004AC8"></path><path d="M92.92,297c11.84,0,15.78-16.12,14.59-29.08s-9.38-37.64-14.59-37.64S79.52,255,78.33,267.93,81.08,297,92.92,297Z" style="fill:#fff;opacity:0.30000000000000004"></path><path d="M92.85,247.16c1.89-.38,3.09-1.91,4.41-3.15a7.61,7.61,0,0,1,3.66-1.9c-.31-.77-.61-1.52-.92-2.24A11.13,11.13,0,0,0,95,243a6.9,6.9,0,0,1-2.47,1.85c-1.43.5-2.31-.27-3.25-1.21a7.68,7.68,0,0,0-3.89-2.32l-.12,0c-.25.61-.49,1.23-.73,1.87a7.3,7.3,0,0,1,4.12,2.32A4.44,4.44,0,0,0,92.85,247.16ZM84,261.37c3.94,3.09,7.2-1.3,9.72-3.9,2.11-2.18,4.34-2.63,6.74-.62,1.43,1.2,2.7,2.62,4.5,3.27a6.55,6.55,0,0,0,1.36.33c-.15-.73-.31-1.48-.49-2.23-1.84-.47-3.19-1.88-4.8-3.2-3.52-2.9-6.7-1.68-9.49,1.52-1.6,1.84-4.21,5-6.86,3-1.56-1.16-2.3-3.14-3.93-4.27,0,0,0,0-.06,0-.17.65-.33,1.29-.48,1.94C81.77,258.24,82.55,260.22,84,261.37Zm4.42,14.19c2.24,3,5,3.69,8.06,1.15,1.47-1.24,2.45-3,4.06-4.09,2.24-1.53,4.82-.73,7.15.18,0-.71,0-1.41,0-2.11a16.5,16.5,0,0,0-3.29-1,6.63,6.63,0,0,0-5.09,1c-1.68,1.19-2.71,3.05-4.33,4.3-.87.67-2.26,1.51-3.41,1.09-1.36-.5-2.17-2.19-3.16-3.19a9.83,9.83,0,0,0-4.57-2.62,8.43,8.43,0,0,0-5.67.57c0,.67,0,1.34,0,2A8.34,8.34,0,0,1,88.44,275.56Zm11.23,12.06a9.27,9.27,0,0,1-6.68,2,5.27,5.27,0,0,1-3.37-1.46c-.65-.68-1.12-1.51-1.79-2.17a7.8,7.8,0,0,0-4.46-2.21,8.75,8.75,0,0,0-3.71.31c.21.73.43,1.44.68,2.13a6.16,6.16,0,0,1,5.9.81c1.42,1.05,2.1,2.79,3.61,3.77a8.39,8.39,0,0,0,4.62,1.2,10.49,10.49,0,0,0,4.9-1.22c1.7-.89,2.91-2.43,4.56-3.38a7.3,7.3,0,0,1,1.37-.62c.33-.86.62-1.76.88-2.69a8.76,8.76,0,0,0-1.65.36C102.57,285.09,101.26,286.39,99.67,287.62Z" style="fill:#fff;opacity:0.2"></path></g></g></g><g id="freepik--Envelope--inject-158"><g id="freepik--envelope--inject-158"><path d="M246.22,385a.31.31,0,0,0,0-.1,0,0,0,0,0,0,0,.36.36,0,0,0,0-.1.22.22,0,0,0,0-.13.42.42,0,0,0-.06-.14,1.33,1.33,0,0,0-.49-.55l0,0-.07,0-.09-.06,0,0L179,345.42l-.14-.07a7.37,7.37,0,0,0-3.85-.91h-.07a7.2,7.2,0,0,0-3.26,1h0l-4.83,2.78L83.06,396.56l-10.67,6.16,0,0a2.56,2.56,0,0,0-1,1.92v5.91a2.61,2.61,0,0,0,1.31,2.27h0l1,.61L138.82,451a4.42,4.42,0,0,0,4,0h0l89.57-51.71,13-7.5.12-.08.08-.05a1.34,1.34,0,0,0,.63-1C246.22,390.61,246.19,385.32,246.22,385Z" style="fill:#004AC8"></path><path d="M139.62,451.36l.14,0a4.71,4.71,0,0,0,.52.09h0l.39,0h.15v-5.74a4.12,4.12,0,0,1-2-.48L72.68,407.1a2.59,2.59,0,0,1-1.32-2.41v5.89a2.61,2.61,0,0,0,1.31,2.27h0l1,.61L138.82,451a4.71,4.71,0,0,0,.45.22Z" style="fill:#fff;opacity:0.25"></path><path d="M246.22,390.71a1.34,1.34,0,0,1-.63,1l-.08.05-.12.08L142.83,451h0a4.09,4.09,0,0,1-1.91.47h-.07v-5.74a4.35,4.35,0,0,0,2-.47h0L245.51,386l.08-.05a1.34,1.34,0,0,0,.63-1C246.19,385.32,246.22,390.61,246.22,390.71Z" style="fill:#fff;opacity:0.15"></path><path d="M246.22,385a1.34,1.34,0,0,1-.63,1l-.08.05-13.12,7.58-54.25,31.32L142.83,445.3h0a4.09,4.09,0,0,1-1.91.47,4.15,4.15,0,0,1-2.08-.48l-1.13-.65L87,415.38l-13.28-7.67-1-.6h0a2.62,2.62,0,0,1-1.31-2.37v-.07a2.56,2.56,0,0,1,1-1.92l0,0,10.67-6.16,83.76-48.36,4.83-2.78h0a7.2,7.2,0,0,1,3.26-1H175a7.37,7.37,0,0,1,3.85.91l.14.07,66.41,38.35,0,0,.09.06.07,0,0,0a1.33,1.33,0,0,1,.49.55.42.42,0,0,1,.06.14.22.22,0,0,1,0,.13.2.2,0,0,1,0,.1,0,0,0,0,1,0,0A.31.31,0,0,1,246.22,385Z" style="fill:#fff;opacity:0.65"></path><path d="M116.48,410.59c-4.52,2.61-12.45,2.28-17.67-.74s-5.79-7.59-1.27-10.2,12.45-2.28,17.67.74S121,408,116.48,410.59ZM98.23,400.05c-4.19,2.42-3.66,6.66,1.18,9.46s12.19,3.1,16.38.68,3.67-6.66-1.18-9.46S102.42,397.63,98.23,400.05Z" style="fill:#fff"></path><path d="M115.07,409.77l-.17,0c-8.65,1.92-17.39-3.56-17.48-3.62l-.14-.09V406c-.08-1.76.94-3.11,3.4-4.53a14.18,14.18,0,0,1,7.84-2h.2l.16.08c.1.05,9.6,5.1,6.26,10.1Zm-16.83-3.83c1.13.67,8.65,4.93,16,3.37,2.7-4.26-4.68-8.6-5.84-9.25a13.14,13.14,0,0,0-7,1.82C99.17,403.17,98.22,404.39,98.24,405.94Z" style="fill:#fff"></path><path d="M102.6,403.34l1,.58-.59.54,4.3,2.48a3.29,3.29,0,0,0,1.6.49,2.77,2.77,0,0,0,1.45-.37c.45-.26.67-.54.65-.84s-.29-.61-.84-.93l-4.3-2.48-.93.34-1-.58,3-1.71,1,.58-.59.54,4.3,2.48c.93.54,1.38,1.1,1.35,1.7s-.46,1.14-1.32,1.63a5.75,5.75,0,0,1-5.75,0l-4.3-2.49-.93.34-1-.57.76-.44,1.43-.83Z" style="fill:#fff"></path><polygon points="118.77 412.29 117.98 412.65 115.97 412.13 116.76 411.76 118.77 412.29" style="fill:#fff"></polygon><polygon points="118.77 412.29 117.98 412.65 118.52 413.86 119.31 413.5 118.77 412.29" style="fill:#fff"></polygon><polygon points="116.75 413.2 115.86 413.45 114.02 412.74 114.92 412.49 116.75 413.2" style="fill:#fff"></polygon><polygon points="116.75 413.2 115.86 413.45 116 414.65 116.9 414.39 116.75 413.2" style="fill:#fff"></polygon><polygon points="114.48 413.81 113.5 413.96 111.9 413.09 112.88 412.94 114.48 413.81" style="fill:#fff"></polygon><polygon points="114.48 413.81 113.5 413.96 113.27 415.1 114.24 414.95 114.48 413.81" style="fill:#fff"></polygon><polygon points="111.91 414.18 110.9 414.22 109.57 413.24 110.58 413.2 111.91 414.18" style="fill:#fff"></polygon><polygon points="111.91 414.18 110.9 414.22 110.32 415.28 111.33 415.24 111.91 414.18" style="fill:#fff"></polygon><polygon points="109.21 414.28 108.19 414.22 107.15 413.16 108.17 413.22 109.21 414.28" style="fill:#fff"></polygon><polygon points="109.21 414.28 108.19 414.22 107.3 415.16 108.32 415.22 109.21 414.28" style="fill:#fff"></polygon><polygon points="106.47 414.11 105.47 413.95 104.75 412.85 105.75 413.01 106.47 414.11" style="fill:#fff"></polygon><polygon points="106.47 414.11 105.47 413.95 104.32 414.76 105.32 414.91 106.47 414.11" style="fill:#fff"></polygon><polygon points="103.72 413.64 102.77 413.39 102.36 412.28 103.31 412.52 103.72 413.64" style="fill:#fff"></polygon><polygon points="103.72 413.64 102.77 413.39 101.38 414.05 102.33 414.29 103.72 413.64" style="fill:#fff"></polygon><polygon points="101.01 412.89 100.14 412.56 100.06 411.47 100.94 411.8 101.01 412.89" style="fill:#fff"></polygon><polygon points="101.01 412.89 100.14 412.56 98.57 413.05 99.44 413.37 101.01 412.89" style="fill:#fff"></polygon><polygon points="98.49 411.9 97.72 411.51 97.99 410.47 98.76 410.87 98.49 411.9" style="fill:#fff"></polygon><polygon points="98.49 411.9 97.72 411.51 96.01 411.8 96.78 412.2 98.49 411.9" style="fill:#fff"></polygon><polygon points="96.4 410.79 95.75 410.34 96.33 409.38 96.97 409.83 96.4 410.79" style="fill:#fff"></polygon><polygon points="96.4 410.79 95.75 410.34 93.96 410.44 94.61 410.89 96.4 410.79" style="fill:#fff"></polygon><polygon points="94.71 409.54 94.2 409.06 95.04 408.21 95.55 408.7 94.71 409.54" style="fill:#fff"></polygon><polygon points="94.71 409.54 94.2 409.06 92.39 408.98 92.9 409.47 94.71 409.54" style="fill:#fff"></polygon><polygon points="93.39 408.17 93.02 407.66 94.09 406.94 94.46 407.44 93.39 408.17" style="fill:#fff"></polygon><polygon points="93.39 408.17 93.02 407.66 91.24 407.42 91.61 407.93 93.39 408.17" style="fill:#fff"></polygon><polygon points="92.4 406.66 92.17 406.14 93.45 405.56 93.67 406.08 92.4 406.66" style="fill:#fff"></polygon><polygon points="92.4 406.66 92.17 406.14 90.48 405.75 90.7 406.27 92.4 406.66" style="fill:#fff"></polygon><polygon points="91.8 405.08 91.73 404.57 93.17 404.15 93.24 404.66 91.8 405.08" style="fill:#fff"></polygon><polygon points="91.8 405.08 91.73 404.57 90.16 404.03 90.23 404.55 91.8 405.08" style="fill:#fff"></polygon><polygon points="91.68 403.49 91.77 403 93.32 402.74 93.23 403.23 91.68 403.49" style="fill:#fff"></polygon><polygon points="91.68 403.49 91.77 403 90.37 402.33 90.29 402.82 91.68 403.49" style="fill:#fff"></polygon><polygon points="92.12 401.89 92.36 401.44 93.98 401.37 93.74 401.82 92.12 401.89" style="fill:#fff"></polygon><polygon points="92.12 401.89 92.36 401.44 91.19 400.67 90.95 401.12 92.12 401.89" style="fill:#fff"></polygon><polygon points="93.18 400.33 93.57 399.94 95.2 400.04 94.81 400.44 93.18 400.33" style="fill:#fff"></polygon><polygon points="93.18 400.33 93.57 399.94 92.66 399.08 92.27 399.48 93.18 400.33" style="fill:#fff"></polygon><polygon points="119.42 411.91 120.05 411.46 119.15 410.29 118.52 410.75 119.42 411.91" style="fill:#fff"></polygon><polygon points="119.42 411.91 120.05 411.46 122.15 411.77 121.52 412.22 119.42 411.91" style="fill:#fff"></polygon><polygon points="121 410.75 121.45 410.23 120.22 409.17 119.77 409.69 121 410.75" style="fill:#fff"></polygon><polygon points="121 410.75 121.45 410.23 123.52 410.31 123.07 410.83 121 410.75" style="fill:#fff"></polygon><polygon points="122.06 409.43 122.31 408.87 120.82 407.94 120.56 408.51 122.06 409.43" style="fill:#fff"></polygon><polygon points="122.06 409.43 122.31 408.87 124.3 408.73 124.04 409.3 122.06 409.43" style="fill:#fff"></polygon><polygon points="122.7 407.95 122.77 407.36 121.08 406.6 121.01 407.18 122.7 407.95" style="fill:#fff"></polygon><polygon points="122.7 407.95 122.77 407.36 124.6 407.03 124.53 407.62 122.7 407.95" style="fill:#fff"></polygon><polygon points="122.87 406.39 122.77 405.8 120.94 405.2 121.05 405.79 122.87 406.39" style="fill:#fff"></polygon><polygon points="122.87 406.39 122.77 405.8 124.41 405.29 124.51 405.88 122.87 406.39" style="fill:#fff"></polygon><polygon points="122.57 404.81 122.31 404.23 120.4 403.81 120.67 404.39 122.57 404.81" style="fill:#fff"></polygon><polygon points="122.57 404.81 122.31 404.23 123.71 403.56 123.97 404.14 122.57 404.81" style="fill:#fff"></polygon><polygon points="121.76 403.22 121.34 402.67 119.42 402.43 119.84 402.98 121.76 403.22" style="fill:#fff"></polygon><polygon points="121.76 403.22 121.34 402.67 122.47 401.87 122.9 402.42 121.76 403.22" style="fill:#fff"></polygon><polygon points="120.46 401.66 119.9 401.15 118.01 401.11 118.57 401.61 120.46 401.66" style="fill:#fff"></polygon><polygon points="120.46 401.66 119.9 401.15 120.74 400.25 121.3 400.75 120.46 401.66" style="fill:#fff"></polygon><polygon points="118.76 400.2 118.07 399.76 116.28 399.91 116.96 400.36 118.76 400.2" style="fill:#fff"></polygon><polygon points="118.76 400.2 118.07 399.76 118.58 398.77 119.27 399.21 118.76 400.2" style="fill:#fff"></polygon><polygon points="116.83 398.99 116.04 398.62 114.4 398.95 115.18 399.32 116.83 398.99" style="fill:#fff"></polygon><polygon points="116.83 398.99 116.04 398.62 116.23 397.59 117.01 397.96 116.83 398.99" style="fill:#fff"></polygon><polygon points="114.67 398.02 113.83 397.72 112.36 398.21 113.2 398.5 114.67 398.02" style="fill:#fff"></polygon><polygon points="114.67 398.02 113.83 397.72 113.7 396.68 114.55 396.98 114.67 398.02" style="fill:#fff"></polygon><polygon points="112.29 397.25 111.41 397.04 110.15 397.66 111.04 397.88 112.29 397.25" style="fill:#fff"></polygon><polygon points="112.29 397.25 111.41 397.04 111 396.01 111.88 396.23 112.29 397.25" style="fill:#fff"></polygon><polygon points="109.68 396.68 108.79 396.55 107.78 397.29 108.68 397.42 109.68 396.68" style="fill:#fff"></polygon><polygon points="109.68 396.68 108.79 396.55 108.11 395.57 109 395.7 109.68 396.68" style="fill:#fff"></polygon><polygon points="106.94 396.34 106.06 396.3 105.32 397.13 106.21 397.17 106.94 396.34" style="fill:#fff"></polygon><polygon points="106.94 396.34 106.06 396.3 105.13 395.39 106.02 395.43 106.94 396.34" style="fill:#fff"></polygon><polygon points="104.18 396.27 103.34 396.32 102.9 397.22 103.74 397.17 104.18 396.27" style="fill:#fff"></polygon><polygon points="104.18 396.27 103.34 396.32 102.18 395.51 103.03 395.46 104.18 396.27" style="fill:#fff"></polygon><polygon points="101.42 396.52 100.64 396.66 100.51 397.6 101.29 397.46 101.42 396.52" style="fill:#fff"></polygon><polygon points="101.42 396.52 100.64 396.66 99.3 395.99 100.08 395.85 101.42 396.52" style="fill:#fff"></polygon><polygon points="98.72 397.13 98.03 397.36 98.22 398.3 98.9 398.08 98.72 397.13" style="fill:#fff"></polygon><polygon points="98.72 397.13 98.03 397.36 96.56 396.83 97.24 396.61 98.72 397.13" style="fill:#fff"></polygon><polygon points="96.26 397.78 94.62 397.97 94.29 398.92 95.94 398.73 96.26 397.78" style="fill:#fff"></polygon><polygon points="96.26 397.78 94.29 398.92 95.94 398.73 96.26 397.78" style="fill:#fff"></polygon><path d="M152,376.73l-28.29,16.35a3.29,3.29,0,0,1-2.94-.12h0c-.87-.5-1-1.26-.21-1.7l28.3-16.35a3.24,3.24,0,0,1,2.93.12h0C152.7,375.53,152.8,376.29,152,376.73Z" style="fill:#fff"></path><path d="M159.1,380.8l-28.3,16.35a3.24,3.24,0,0,1-2.93-.12h0c-.87-.5-1-1.26-.22-1.69L156,379a3.26,3.26,0,0,1,2.94.13h0C159.76,379.61,159.85,380.37,159.1,380.8Z" style="fill:#fff"></path><path d="M197,378.66l-56.62,32.68a3.24,3.24,0,0,1-2.93-.12h0c-.87-.5-1-1.26-.21-1.69l56.61-32.69a3.29,3.29,0,0,1,2.94.12h0C197.7,377.46,197.79,378.22,197,378.66Z" style="fill:#fff"></path><path d="M204.09,382.73l-56.61,32.69a3.29,3.29,0,0,1-2.94-.12h0c-.87-.51-1-1.27-.21-1.7L201,380.91a3.24,3.24,0,0,1,2.93.13h0C204.75,381.54,204.85,382.3,204.09,382.73Z" style="fill:#fff"></path></g></g><g id="freepik--Letter--inject-158"><g id="freepik--letter--inject-158"><polygon id="freepik--shadow--inject-158" points="314.82 456.3 157.43 365.44 287.58 290.3 444.96 381.16 314.82 456.3" style="opacity:0.2"></polygon><g id="freepik--Sheet--inject-158"><path d="M285.54,256.32l-2.81-1.62-126,72.78v1.62a56.17,56.17,0,0,0,28,48.53l130.07,75.1L440.83,380v-3.24L312.15,302.43A53.25,53.25,0,0,1,285.54,256.32Z" style="fill:#004AC8"></path><polygon points="314.79 449.49 440.83 376.72 440.83 379.96 314.78 452.74 314.79 449.49" style="opacity:0.4"></polygon><polygon points="159.49 329.1 156.69 327.48 282.74 254.71 285.54 256.32 159.49 329.1" style="fill:#fff;opacity:0.30000000000000004"></polygon><path d="M440.83,376.72,312.15,302.43a53.25,53.25,0,0,1-26.61-46.11l-126,72.78a53.23,53.23,0,0,0,26.62,46.1l128.68,74.29,126-72.77Z" style="fill:#004AC8"></path><path d="M188.5,371.06a48.62,48.62,0,0,1-24.15-39.24l117-67.53a58.32,58.32,0,0,0,28.45,42.28l121.51,70.15L314.79,444Z" style="fill:#fafafa"></path><path d="M186.11,375.2l128.68,74.29v3.24l-130.07-75.1a56.17,56.17,0,0,1-28-48.53v-1.62l2.8,1.62A53.23,53.23,0,0,0,186.11,375.2Z" style="opacity:0.2"></path></g><g id="freepik--Text--inject-158"><path d="M250.31,293.2,274.85,279a1.42,1.42,0,0,1,2.16.5,2.11,2.11,0,0,1-1.08,2.37l-24.54,14.17a1.42,1.42,0,0,1-2.16-.51A2.1,2.1,0,0,1,250.31,293.2Z" style="fill:#e0e0e0"></path><path d="M193.17,345.07l51.27-29.51a1.42,1.42,0,0,1,2.15.51,2.08,2.08,0,0,1-1.07,2.36l-51.27,29.51a1.41,1.41,0,0,1-2.15-.5A2.1,2.1,0,0,1,193.17,345.07Z" style="fill:#e0e0e0"></path><path d="M201.42,357.52,286,308.7a3.46,3.46,0,0,1,3.13-.05c.84.48.79,1.29-.1,1.8l-84.54,48.81a3.46,3.46,0,0,1-3.13.06C200.48,358.84,200.53,358,201.42,357.52Z" style="fill:#e0e0e0"></path><path d="M207.47,361,292,312.2a3.44,3.44,0,0,1,3.12-.06c.84.48.79,1.29-.1,1.81L210.5,362.76a3.49,3.49,0,0,1-3.13.06C206.54,362.33,206.58,361.52,207.47,361Z" style="fill:#e0e0e0"></path><path d="M249.84,385.47l84.55-48.81a3.47,3.47,0,0,1,3.12-.06c.84.49.79,1.3-.1,1.81l-84.54,48.81a3.46,3.46,0,0,1-3.13.06C248.91,386.8,249,386,249.84,385.47Z" style="fill:#e0e0e0"></path><path d="M255.9,389l84.54-48.81a3.46,3.46,0,0,1,3.13-.06c.83.48.79,1.29-.1,1.8l-84.55,48.82a3.44,3.44,0,0,1-3.12,0C255,390.29,255,389.48,255.9,389Z" style="fill:#e0e0e0"></path><path d="M268,396l84.54-48.81a3.46,3.46,0,0,1,3.13-.06c.84.48.79,1.29-.1,1.81L271,397.71a3.47,3.47,0,0,1-3.12.06C267.06,397.28,267.11,396.48,268,396Z" style="fill:#e0e0e0"></path><path d="M274.05,399.45l84.55-48.81a3.44,3.44,0,0,1,3.12-.05c.84.48.79,1.29-.1,1.8L277.08,401.2a3.46,3.46,0,0,1-3.13.06C273.12,400.78,273.16,400,274.05,399.45Z" style="fill:#e0e0e0"></path><path d="M289.19,408.19l44.95-25.95a3.47,3.47,0,0,1,3.12-.06c.84.49.79,1.29-.1,1.81l-45,25.95a3.47,3.47,0,0,1-3.12.06C288.25,409.51,288.3,408.7,289.19,408.19Z" style="fill:#e0e0e0"></path><path d="M295.49,411.54l44.95-26a3.46,3.46,0,0,1,3.13-.06c.83.48.79,1.29-.1,1.8l-45,25.95a3.44,3.44,0,0,1-3.12.06C294.55,412.86,294.6,412.05,295.49,411.54Z" style="fill:#e0e0e0"></path></g><path d="M383.65,382c-6.09,3.52-16.78,3.08-23.82-1s-7.8-10.23-1.71-13.75,16.78-3.08,23.82,1S389.75,378.5,383.65,382Zm-24.6-14.2c-5.65,3.26-4.94,9,1.59,12.75s16.43,4.18,22.08.92,4.95-9-1.58-12.76S364.7,364.55,359.05,367.82Z" style="fill:#004AC8"></path><path d="M381.75,380.92l-.23.05c-11.65,2.6-23.44-4.8-23.56-4.87l-.19-.12v-.16c-.11-2.37,1.26-4.19,4.57-6.11a19.27,19.27,0,0,1,10.59-2.64h.26l.21.11c.13.06,12.94,6.87,8.44,13.6Zm-22.68-5.17c1.52.91,11.66,6.65,21.61,4.56,3.63-5.75-6.31-11.6-7.88-12.48a17.51,17.51,0,0,0-9.47,2.46C360.32,372,359,373.67,359.07,375.75Z" style="fill:#004AC8"></path><path d="M364.94,372.25l1.34.78-.8.73,5.8,3.35a4.45,4.45,0,0,0,2.16.65,3.68,3.68,0,0,0,1.95-.49c.6-.35.9-.73.88-1.14s-.4-.82-1.13-1.25l-5.81-3.35-1.25.46-1.35-.77,4-2.31,1.35.78-.81.73,5.81,3.35c1.24.72,1.85,1.48,1.82,2.28s-.63,1.54-1.79,2.2a7.71,7.71,0,0,1-7.75,0l-5.8-3.35-1.26.46-1.34-.77,1-.6,1.93-1.11Z" style="fill:#004AC8"></path><polygon points="386.74 384.31 385.68 384.8 382.97 384.1 384.03 383.61 386.74 384.31" style="fill:#004AC8"></polygon><polygon points="386.74 384.31 385.68 384.8 386.41 386.43 387.46 385.94 386.74 384.31" style="fill:#004AC8"></polygon><polygon points="384.02 385.54 382.81 385.89 380.34 384.93 381.55 384.58 384.02 385.54" style="fill:#004AC8"></polygon><polygon points="384.02 385.54 382.81 385.89 383 387.5 384.22 387.15 384.02 385.54" style="fill:#004AC8"></polygon><polygon points="380.95 386.36 379.64 386.56 377.48 385.4 378.8 385.2 380.95 386.36" style="fill:#004AC8"></polygon><polygon points="380.95 386.36 379.64 386.56 379.32 388.11 380.64 387.9 380.95 386.36" style="fill:#004AC8"></polygon><polygon points="377.5 386.86 376.13 386.92 374.33 385.6 375.7 385.55 377.5 386.86" style="fill:#004AC8"></polygon><polygon points="377.5 386.86 376.13 386.92 375.34 388.35 376.71 388.29 377.5 386.86" style="fill:#004AC8"></polygon><polygon points="373.86 387 372.48 386.92 371.08 385.5 372.46 385.58 373.86 387" style="fill:#004AC8"></polygon><polygon points="373.86 387 372.48 386.92 371.28 388.19 372.66 388.27 373.86 387" style="fill:#004AC8"></polygon><polygon points="370.17 386.76 368.81 386.56 367.83 385.07 369.18 385.28 370.17 386.76" style="fill:#004AC8"></polygon><polygon points="370.17 386.76 368.81 386.56 367.26 387.65 368.61 387.86 370.17 386.76" style="fill:#004AC8"></polygon><polygon points="366.45 386.13 365.16 385.81 364.62 384.31 365.9 384.63 366.45 386.13" style="fill:#004AC8"></polygon><polygon points="366.45 386.13 365.16 385.81 363.3 386.69 364.58 387.02 366.45 386.13" style="fill:#004AC8"></polygon><polygon points="362.8 385.12 361.62 384.69 361.52 383.21 362.7 383.65 362.8 385.12" style="fill:#004AC8"></polygon><polygon points="362.8 385.12 361.62 384.69 359.5 385.34 360.68 385.77 362.8 385.12" style="fill:#004AC8"></polygon><polygon points="359.4 383.8 358.37 383.26 358.72 381.87 359.76 382.4 359.4 383.8" style="fill:#004AC8"></polygon><polygon points="359.4 383.8 358.37 383.26 356.06 383.66 357.1 384.19 359.4 383.8" style="fill:#004AC8"></polygon><polygon points="356.58 382.29 355.71 381.68 356.48 380.4 357.35 381.01 356.58 382.29" style="fill:#004AC8"></polygon><polygon points="356.58 382.29 355.71 381.68 353.3 381.82 354.17 382.43 356.58 382.29" style="fill:#004AC8"></polygon><polygon points="354.3 380.61 353.61 379.96 354.75 378.81 355.44 379.47 354.3 380.61" style="fill:#004AC8"></polygon><polygon points="354.3 380.61 353.61 379.96 351.18 379.86 351.87 380.52 354.3 380.61" style="fill:#004AC8"></polygon><polygon points="352.52 378.76 352.02 378.07 353.47 377.1 353.97 377.79 352.52 378.76" style="fill:#004AC8"></polygon><polygon points="352.52 378.76 352.02 378.07 349.63 377.75 350.13 378.44 352.52 378.76" style="fill:#004AC8"></polygon><polygon points="351.19 376.73 350.88 376.03 352.6 375.25 352.9 375.95 351.19 376.73" style="fill:#004AC8"></polygon><polygon points="351.19 376.73 350.88 376.03 348.6 375.5 348.9 376.2 351.19 376.73" style="fill:#004AC8"></polygon><polygon points="350.38 374.6 350.29 373.91 352.22 373.34 352.32 374.03 350.38 374.6" style="fill:#004AC8"></polygon><polygon points="350.38 374.6 350.29 373.91 348.17 373.19 348.27 373.88 350.38 374.6" style="fill:#004AC8"></polygon><polygon points="350.22 372.45 350.33 371.79 352.43 371.45 352.31 372.11 350.22 372.45" style="fill:#004AC8"></polygon><polygon points="350.22 372.45 350.33 371.79 348.46 370.89 348.34 371.55 350.22 372.45" style="fill:#004AC8"></polygon><polygon points="350.81 370.3 351.14 369.69 353.32 369.6 353 370.2 350.81 370.3" style="fill:#004AC8"></polygon><polygon points="350.81 370.3 351.14 369.69 349.56 368.65 349.23 369.26 350.81 370.3" style="fill:#004AC8"></polygon><polygon points="352.24 368.19 352.76 367.66 354.96 367.81 354.44 368.34 352.24 368.19" style="fill:#004AC8"></polygon><polygon points="352.24 368.19 352.76 367.66 351.54 366.51 351.02 367.05 352.24 368.19" style="fill:#004AC8"></polygon><polygon points="387.62 383.8 388.47 383.19 387.25 381.63 386.4 382.24 387.62 383.8" style="fill:#004AC8"></polygon><polygon points="387.62 383.8 388.47 383.19 391.29 383.61 390.44 384.22 387.62 383.8" style="fill:#004AC8"></polygon><polygon points="389.75 382.24 390.35 381.54 388.69 380.11 388.09 380.81 389.75 382.24" style="fill:#004AC8"></polygon><polygon points="389.75 382.24 390.35 381.54 393.14 381.65 392.54 382.35 389.75 382.24" style="fill:#004AC8"></polygon><polygon points="391.17 380.46 391.52 379.7 389.5 378.46 389.16 379.22 391.17 380.46" style="fill:#004AC8"></polygon><polygon points="391.17 380.46 391.52 379.7 394.19 379.52 393.84 380.28 391.17 380.46" style="fill:#004AC8"></polygon><polygon points="392.04 378.47 392.14 377.68 389.86 376.64 389.76 377.43 392.04 378.47" style="fill:#004AC8"></polygon><polygon points="392.04 378.47 392.14 377.68 394.6 377.22 394.51 378.01 392.04 378.47" style="fill:#004AC8"></polygon><polygon points="392.27 376.36 392.13 375.57 389.67 374.76 389.81 375.56 392.27 376.36" style="fill:#004AC8"></polygon><polygon points="392.27 376.36 392.13 375.57 394.34 374.88 394.48 375.67 392.27 376.36" style="fill:#004AC8"></polygon><polygon points="391.87 374.24 391.51 373.45 388.94 372.89 389.3 373.67 391.87 374.24" style="fill:#004AC8"></polygon><polygon points="391.87 374.24 391.51 373.45 393.4 372.56 393.76 373.33 391.87 374.24" style="fill:#004AC8"></polygon><polygon points="390.77 372.09 390.21 371.35 387.61 371.03 388.18 371.77 390.77 372.09" style="fill:#004AC8"></polygon><polygon points="390.77 372.09 390.21 371.35 391.74 370.27 392.3 371.01 390.77 372.09" style="fill:#004AC8"></polygon><polygon points="389.02 369.98 388.27 369.3 385.72 369.24 386.47 369.92 389.02 369.98" style="fill:#004AC8"></polygon><polygon points="389.02 369.98 388.27 369.3 389.39 368.08 390.15 368.76 389.02 369.98" style="fill:#004AC8"></polygon><polygon points="386.73 368.02 385.8 367.42 383.38 367.63 384.31 368.23 386.73 368.02" style="fill:#004AC8"></polygon><polygon points="386.73 368.02 385.8 367.42 386.49 366.09 387.41 366.69 386.73 368.02" style="fill:#004AC8"></polygon><polygon points="384.12 366.39 383.07 365.89 380.84 366.33 381.9 366.84 384.12 366.39" style="fill:#004AC8"></polygon><polygon points="384.12 366.39 383.07 365.89 383.31 364.5 384.36 365 384.12 366.39" style="fill:#004AC8"></polygon><polygon points="381.21 365.08 380.08 364.68 378.1 365.33 379.24 365.73 381.21 365.08" style="fill:#004AC8"></polygon><polygon points="381.21 365.08 380.08 364.68 379.91 363.27 381.05 363.67 381.21 365.08" style="fill:#004AC8"></polygon><polygon points="378 364.05 376.81 363.76 375.13 364.6 376.32 364.88 378 364.05" style="fill:#004AC8"></polygon><polygon points="378 364.05 376.81 363.76 376.26 362.38 377.45 362.67 378 364.05" style="fill:#004AC8"></polygon><polygon points="374.49 363.28 373.28 363.1 371.92 364.1 373.13 364.27 374.49 363.28" style="fill:#004AC8"></polygon><polygon points="374.49 363.28 373.28 363.1 372.37 361.78 373.57 361.96 374.49 363.28" style="fill:#004AC8"></polygon><polygon points="370.8 362.81 369.61 362.76 368.61 363.88 369.81 363.93 370.8 362.81" style="fill:#004AC8"></polygon><polygon points="370.8 362.81 369.61 362.76 368.35 361.54 369.55 361.59 370.8 362.81" style="fill:#004AC8"></polygon><polygon points="367.08 362.72 365.93 362.79 365.34 364 366.48 363.93 367.08 362.72" style="fill:#004AC8"></polygon><polygon points="367.08 362.72 365.93 362.79 364.38 361.7 365.52 361.63 367.08 362.72" style="fill:#004AC8"></polygon><polygon points="363.35 363.06 362.3 363.25 362.13 364.51 363.18 364.32 363.35 363.06" style="fill:#004AC8"></polygon><polygon points="363.35 363.06 362.3 363.25 360.5 362.34 361.55 362.15 363.35 363.06" style="fill:#004AC8"></polygon><polygon points="359.7 363.89 358.78 364.19 359.03 365.46 359.96 365.16 359.7 363.89" style="fill:#004AC8"></polygon><polygon points="359.7 363.89 358.78 364.19 356.79 363.48 357.72 363.18 359.7 363.89" style="fill:#004AC8"></polygon><polygon points="356.4 364.75 354.18 365.01 353.74 366.29 355.95 366.03 356.4 364.75" style="fill:#004AC8"></polygon><polygon points="356.4 364.75 353.74 366.29 355.95 366.03 356.4 364.75" style="fill:#004AC8"></polygon><path d="M355.61,398.34A135.15,135.15,0,0,0,339,407.76l-1.52,1q-1.8-3.7-3.59-7.41c-.06-.31-.1-.62-.17-.93a24.93,24.93,0,0,0-2-6.35,10.2,10.2,0,0,0-2.5-3.22c-.25-.22-1.19-.28-1.09.06a44.86,44.86,0,0,0,2.48,5.81l2.19,4.55c.1.53.18,1.06.25,1.59a16.54,16.54,0,0,1,.16,1.7,1.66,1.66,0,0,1-.28,1l-1.09-.89a1.21,1.21,0,0,0-.93-.1,12.92,12.92,0,0,0-1.52-.83c-.25-.12-1-.18-.94.08a24,24,0,0,1,.33,4.61,11.3,11.3,0,0,1-1.91-2.33c-.18-.3-1.21-.28-1.06.06a9.15,9.15,0,0,1,.79,3.84,8.24,8.24,0,0,1-.28,1.92c-.12.43-.38,1.33-1.41,1.28a2.66,2.66,0,0,1-1.59-.82,11.77,11.77,0,0,0,.92-6.86,8.88,8.88,0,0,0-.61-1.87c0-.09-.27-.17-.41-.19a2.23,2.23,0,0,0-2.22.82,5,5,0,0,0-.85,1.87,5.93,5.93,0,0,0,.48,4,8.29,8.29,0,0,0,1.32,2,2.39,2.39,0,0,0,.22.23,10.12,10.12,0,0,1-4.23,5,11.66,11.66,0,0,1-2.28,1,6.37,6.37,0,0,1-2.65.43h-.06a18.61,18.61,0,0,0,5.59-8.91,13.76,13.76,0,0,0,.3-7.1,13.38,13.38,0,0,0-1.37-3.49,7.76,7.76,0,0,0-2.9-3.3,6,6,0,0,0-5.4.07,6.21,6.21,0,0,0-3.05,3.32,16.26,16.26,0,0,0-1,7.59,19.25,19.25,0,0,0,2.32,7.79,10.27,10.27,0,0,0,3.23,3.67,5.09,5.09,0,0,0,.86.47,19,19,0,0,1-3.91,2.51,24,24,0,0,1-2.4,1c-.37.13.44.5.78.38a21.17,21.17,0,0,0,6.5-3.58,5.54,5.54,0,0,0,.83.1,8.33,8.33,0,0,0,2.81-.43,10.69,10.69,0,0,0,6.92-5.86,4,4,0,0,0,1.05.46,3.07,3.07,0,0,0,2.73-.38,3,3,0,0,0,.81-2,8.53,8.53,0,0,0-.05-2.85,13.9,13.9,0,0,0,1.27,1.12c.24.2,1,.25,1,0a25.11,25.11,0,0,0-.22-4.89,9.66,9.66,0,0,1,1.89,1.4,1.06,1.06,0,0,0,.88.12l.14.12a1,1,0,0,0,.95.07,1.86,1.86,0,0,0,.82-1.88c.79,1.64,1.59,3.28,2.38,4.93-4.26,2.92-8.29,6-12.22,9.05-1.31,1-2.6,2.05-3.89,3.09L318.66,423l-1,.78-.43.34a2.08,2.08,0,0,0-.43.37,1,1,0,0,0-.34,0c-.81.05-.29.61.37.65a1.17,1.17,0,0,0,.82-.25l1.05-.84c1.23-1,2.45-2,3.69-2.95,2.47-2,5-3.94,7.52-5.87q3.44-2.61,7.06-5.12c.73,1.5,1.45,3,2.18,4.51.53,1.11,1.05,2.22,1.6,3.32a6.29,6.29,0,0,0,2.31,2.67c.38.24,1.39.06.92-.23a5.66,5.66,0,0,1-2.09-2.39c-.5-.95-.94-1.91-1.4-2.87l-2.7-5.58c2.67-1.82,5.43-3.6,8.32-5.31,3.27-1.93,6.7-3.79,10.34-5.5C356.92,398.48,356,398.17,355.61,398.34Zm-25.53-5.09a14.21,14.21,0,0,1,1.45,3.23C331,395.4,330.52,394.33,330.08,393.25Zm-8.19,17.33a6.07,6.07,0,0,1-.81-3.41,5.26,5.26,0,0,1,.5-1.84,4.23,4.23,0,0,1,.51-.86,1.38,1.38,0,0,1,.55-.46,10.21,10.21,0,0,1,0,7c0,.17-.11.33-.16.5A7.13,7.13,0,0,1,321.89,410.58Zm-11.25,7a10.2,10.2,0,0,1-1.56-1.79,15.89,15.89,0,0,1-1.83-3.73,19.83,19.83,0,0,1-.92-3.6,17.59,17.59,0,0,1,.33-7.23,7.73,7.73,0,0,1,1.76-3.57,5.64,5.64,0,0,1,1.93-1.33,4,4,0,0,1,2.76-.28,4.28,4.28,0,0,1,1.89,1.36,12.56,12.56,0,0,1,1.17,1.66,12.74,12.74,0,0,1,1.43,3.29,13.38,13.38,0,0,1,0,6.62,18.91,18.91,0,0,1-3.09,6.68,18,18,0,0,1-2.61,2.89A5.86,5.86,0,0,1,310.64,417.62Zm40.72-24.18a3.23,3.23,0,0,1-1.08.93,2.06,2.06,0,0,1-2-.15,15.5,15.5,0,0,1-1.82-1.28,20.31,20.31,0,0,1-1.83-1.57c-.18-.18-1.1-.34-1,0,.8,2.2,1.86,4.55,1.29,6.7-.17.63-1.08,2.58-2.83,1.69a5,5,0,0,1-1.14-.84,8.89,8.89,0,0,0-.29-3.64,13,13,0,0,0-1.46-3.67,5.43,5.43,0,0,0-1.56-1.63,2.24,2.24,0,0,0-2.13-.37c-.61.32-.41,1-.34,1.42a10.22,10.22,0,0,0,.46,1.83,13.45,13.45,0,0,0,2,3.55A19.3,19.3,0,0,0,339,398c.29.3.59.61.91.9a5.12,5.12,0,0,1-1.27,2.6c-.2.22.71.51.91.29a5.54,5.54,0,0,0,1.23-2.17,4.06,4.06,0,0,0,2.41.78,2.79,2.79,0,0,0,2-.78,4.3,4.3,0,0,0,.91-3.93,13.38,13.38,0,0,0-.89-3.05l.8.65a7.38,7.38,0,0,0,2.48,1.57,3.45,3.45,0,0,0,3.89-1.18C352.53,393.44,351.55,393.2,351.36,393.44ZM339.08,397a11.92,11.92,0,0,1-2.94-6.32.86.86,0,0,1,.09-.61s.08-.1.13-.12l.06,0a2.32,2.32,0,0,1,.59.39,5.09,5.09,0,0,1,1.3,1.54,14.81,14.81,0,0,1,1.21,3.14,10.08,10.08,0,0,1,.46,3Q339.5,397.48,339.08,397Zm15.67-3.88c-.39.23.55.54.86.36S355.07,392.93,354.75,393.11Z" style="fill:#455a64"></path><path d="M299.11,319.6l-78.44,45.29L245.16,379l78.44-45.29Zm-74.77,45.29,74.77-43.17,20.82,12-74.77,43.17Zm34.4-4.67a7.14,7.14,0,0,0-1.48-1.23c-.75-.47-1.53-.92-2.35-1.35a11.45,11.45,0,0,0-2.12-.85,9,9,0,0,0-2.15-.36,8,8,0,0,0-2.12.22,7.33,7.33,0,0,0-2.07.84l-3.39,1.95c-.1.06-.15.13-.13.22a.31.31,0,0,0,.19.24l10.22,5.91a1.08,1.08,0,0,0,.41.11.75.75,0,0,0,.39-.08l3.45-2a4.49,4.49,0,0,0,1.42-1.17,1.71,1.71,0,0,0,.35-1.21A2.46,2.46,0,0,0,258.74,360.22Zm-2.4,1.85a2.38,2.38,0,0,1-.79.67l-1.91,1.1-7.12-4.11,1.84-1.06a4.13,4.13,0,0,1,1.19-.48,4.56,4.56,0,0,1,1.21-.12,5.28,5.28,0,0,1,1.19.19,6.78,6.78,0,0,1,1.11.45c.82.43,1.6.88,2.35,1.35a3.66,3.66,0,0,1,.77.65,1.31,1.31,0,0,1,.35.68A1,1,0,0,1,256.34,362.07Zm-4.24,4.46-.13-.06-13.36-3.84a2.75,2.75,0,0,0-.6-.12.83.83,0,0,0-.46.11l-1.51.87c-.15.09-.21.18-.19.27a.65.65,0,0,0,.21.34l6.64,7.72.1.07a.78.78,0,0,0,.41.11.67.67,0,0,0,.39-.08l1-.57c.19-.1.27-.2.25-.29a.38.38,0,0,0-.11-.24l-1.16-1.36,4.33-2.5,2.34.68a2.22,2.22,0,0,0,.42.06,1,1,0,0,0,.52-.14l1-.57a.24.24,0,0,0,.14-.23A.35.35,0,0,0,252.1,366.53Zm-9.86,1.41-3-3.47,6,1.73ZM272,355l-10.23-5.9a.78.78,0,0,0-.41-.11.76.76,0,0,0-.39.07l-.93.54c-.18.11-.26.22-.23.34s.05.2.07.25l2.62,4.52-7.83-1.51-.44,0a.92.92,0,0,0-.58.13l-.93.54c-.1.06-.15.13-.13.22a.33.33,0,0,0,.19.24l10.22,5.9a.81.81,0,0,0,.41.11.76.76,0,0,0,.39-.07l1.11-.65a.22.22,0,0,0,.14-.22.38.38,0,0,0-.2-.24l-6.19-3.57,5.35,1,.45,0a.84.84,0,0,0,.45-.11l.72-.41a.31.31,0,0,0,.18-.26.71.71,0,0,0-.07-.26L264,352.54l6.19,3.57a.86.86,0,0,0,.41.11.65.65,0,0,0,.38-.08l1.11-.64c.1-.06.15-.13.14-.22A.36.36,0,0,0,272,355Zm29.14-16.83-1.12-.64a.93.93,0,0,0-.41-.12.75.75,0,0,0-.39.08l-4.54,2.62-2.62-1.51,4.12-2.39c.1-.06.15-.13.14-.22a.38.38,0,0,0-.2-.24l-1.12-.65a1,1,0,0,0-.41-.11.75.75,0,0,0-.39.08l-4.12,2.38L287.55,336l4.43-2.56a.22.22,0,0,0,.13-.22.33.33,0,0,0-.19-.24l-1.12-.65a1.08,1.08,0,0,0-.41-.11.75.75,0,0,0-.39.08l-5.91,3.41c-.1.06-.15.13-.13.22a.3.3,0,0,0,.19.24l10.22,5.91a1.08,1.08,0,0,0,.41.11.75.75,0,0,0,.39-.08l6-3.48a.21.21,0,0,0,.13-.22A.33.33,0,0,0,301.13,338.21Zm-11,6.34-8.67-5,2.47-1.43a.22.22,0,0,0,.13-.22.33.33,0,0,0-.19-.24l-1.12-.65a1.08,1.08,0,0,0-.41-.11.75.75,0,0,0-.39.08l-6.79,3.92a.22.22,0,0,0-.13.22.33.33,0,0,0,.19.24l1.12.65a.93.93,0,0,0,.41.11.75.75,0,0,0,.39-.08l2.47-1.42,8.67,5a.93.93,0,0,0,.41.12.75.75,0,0,0,.39-.08l1.11-.64a.24.24,0,0,0,.14-.23A.34.34,0,0,0,290.16,344.55Zm18.68-11.67a2.34,2.34,0,0,0-.61-1.23,7.41,7.41,0,0,0-1.48-1.23c-.75-.47-1.53-.92-2.35-1.35a12.25,12.25,0,0,0-2.12-.86,9.55,9.55,0,0,0-2.15-.35,8.11,8.11,0,0,0-2.13.21,7.91,7.91,0,0,0-2.07.84l-3.38,2c-.1.06-.15.13-.14.22a.39.39,0,0,0,.19.24l10.23,5.9a.78.78,0,0,0,.41.11.76.76,0,0,0,.39-.07l3.45-2a4.49,4.49,0,0,0,1.42-1.17A1.68,1.68,0,0,0,308.84,332.88Zm-3,.62a2.38,2.38,0,0,1-.79.67l-1.91,1.1L296,331.16l1.83-1.07a5,5,0,0,1,1.2-.48,4.55,4.55,0,0,1,1.21-.11,5.28,5.28,0,0,1,1.19.19,6.29,6.29,0,0,1,1.11.45q1.23.64,2.34,1.35a3.73,3.73,0,0,1,.78.65,1.28,1.28,0,0,1,.35.68A1,1,0,0,1,305.83,333.5ZM276,352.74l-10.23-5.91a1,1,0,0,0-.41-.11.75.75,0,0,0-.39.08l-1.11.64a.22.22,0,0,0-.13.22.3.3,0,0,0,.19.24l10.23,5.91a1,1,0,0,0,.41.11.74.74,0,0,0,.38-.08l1.11-.64a.23.23,0,0,0,.14-.23A.32.32,0,0,0,276,352.74Zm6.06-3.5-8.68-5,2.47-1.42a.23.23,0,0,0,.13-.23.3.3,0,0,0-.19-.23l-1.12-.65a.81.81,0,0,0-.41-.11.76.76,0,0,0-.39.07l-6.79,3.92a.22.22,0,0,0-.13.23.3.3,0,0,0,.19.23l1.12.65a.81.81,0,0,0,.41.11.67.67,0,0,0,.39-.08l2.47-1.42,8.67,5a1.08,1.08,0,0,0,.41.11.75.75,0,0,0,.39-.08l1.11-.64c.1-.06.15-.13.14-.22A.36.36,0,0,0,282,349.24Z" style="fill:#004AC8"></path></g></g><g id="freepik--Pen--inject-158"><g id="freepik--pen--inject-158"><path id="freepik--shadow--inject-158" d="M280.63,455.27l-7.81-8.88h0l-58.87-34.11h0l-1.66-.95-2.7-1.56-.19-.11.07,0-2.6-1.49v0l-10.62-6.12c-2.05-1.4-5.12,1.45-6.32,4.31h0a6.57,6.57,0,0,0-.42,1.33,2.65,2.65,0,0,0,.85,2.87l8.67,5,2.35,1.36s0,0,0,0l1.95,1.12.18.1,2.24,1.29h0l.09.08,1.89,1.07,59.89,34.68h0l11.4,2.26,3.1.61a.46.46,0,0,0,.4-.11.45.45,0,0,0,0-.62Z" style="opacity:0.2"></path><g id="freepik--Pencil--inject-158"><path d="M199.87,411.79l1.06.61,1.28.74,66.86,38.7c-.4-.89-.09-2.68.82-4.39,1.07-2,2.7-3.58,3.87-3.64L207.25,405.3l-2.45-1.41C206.33,404.9,201.42,412.77,199.87,411.79Z" style="fill:#455a64"></path><path d="M207.14,405.23l-2.38-1.36c-.68-.41-2,.8-3.08,2.41-1.5,2.13-2.72,5-1.82,5.51l1.75,1,.63.35c-.89-.56.32-3.38,1.82-5.52,1.08-1.54,2.31-2.72,3-2.43h0Z" style="fill:#ebebeb"></path><path d="M206.54,404.9c-1.57-1-6.47,6.94-4.9,7.91l2.38,1.37c-1.57-1,3.33-8.88,4.9-7.91Z" style="fill:#004AC8"></path><path d="M211.19,407.57l-2.35-1.35c-1.54-1-6.34,6.63-5,7.84l.08.06,2.38,1.35C204.72,414.46,209.63,406.59,211.19,407.57Z" style="fill:#ebebeb"></path><path d="M204.79,403.88v0l0,0c-.67-.43-1.95.79-3.08,2.41-1.48,2.09-2.69,4.86-1.86,5.47l-9.92-5.7a2.38,2.38,0,0,1-.77-2.59c.55-2.89,3.93-6.57,6.08-5.1Z" style="fill:#f28f8f"></path><path d="M280.1,452.21c-.82,1.11-.74,1.66-.74,1.66l-10.29-2c-1-1.56-.35-4.09,1.06-5.9l.45.26Z" style="fill:#f28f8f"></path><path d="M282.16,454.42l-2.8-.55s-.13-.55.74-1.66l2.44,1.54h0a.41.41,0,0,1,0,.57A.42.42,0,0,1,282.16,454.42Z" style="fill:#37474f"></path><path d="M273.76,443.81h0l7.06,8a1.26,1.26,0,0,0-.73.4l-9.52-6-.45-.26A4.93,4.93,0,0,1,273.76,443.81Z" style="fill:#ffa8a7"></path><path d="M280.1,452.21a1,1,0,0,1,.73-.4l1.71,1.94Z" style="fill:#455a64"></path><path d="M270.13,445.94l-80-44.88a7.19,7.19,0,0,0-1,2.41,2.38,2.38,0,0,0,.77,2.59l10,5.73,1.06.61,1.28.74,66.86,38.7C267.81,449.91,269.19,447,270.13,445.94Z" style="opacity:0.2"></path></g></g></g><g id="freepik--Character--inject-158"><g id="freepik--character--inject-158"><g id="freepik--Backpack--inject-158"><path d="M448.1,166.81c-.57.23-6.21-1.39-11.48-3.74l1-20.32s7,1.05,8.77,9.13C449.55,165.8,448.1,166.81,448.1,166.81Z" style="fill:#263238"></path><path d="M407.74,131.76c-5.06-.34-11.1,1.87-13.07,5.71-.34.66-2.72,5.72-2.72,5.72-3.53,13.58-10.83,42.2-7.44,46.76,5.07,6.84,31,21,42.71,21.25,9.64.18,19.36-8.1,20.83-10.68,4.83-8.45-3.88-50.87-6.68-55.87C436.82,136.54,414.18,132.19,407.74,131.76Z" style="fill:#004AC8"></path><path d="M384.51,190c5.07,6.84,31,21,42.71,21.25a21,21,0,0,0,7.67-1.44c-2.78,1.14-5.91-.32-6.61-3.89s-.35-26,.87-50.18L392,143.19C388.42,156.77,381.12,185.39,384.51,190Z" style="opacity:0.18"></path><path d="M442.44,147.29a12.42,12.42,0,0,0-1.05-3.09c-4.55-8.1-27.19-12.45-33.63-12.89-5.06-.34-11.09,1.87-13.07,5.72-.32.62-2.71,5.72-2.71,5.72,9.84,5.87,34.84,12.6,37.57,11.76C432.91,153.48,442.44,147.29,442.44,147.29Z" style="opacity:0.5"></path><path d="M447.09,178.53c-.24-.13-3.71-2.83-4.12-3-.71-.38-11.27,6.51-12.25,7.7-.69.82.19,18.48.58,19.41.14.33,4,2.7,4.12,3,.39.93,11.54-6.07,12.25-7.79S448.14,179.08,447.09,178.53Z" style="fill:#004AC8"></path><path d="M447.09,178.53c-.24-.13-3.71-2.83-4.12-3-.71-.38-11.27,6.51-12.25,7.7-.69.82.19,18.48.58,19.41.14.33,4,2.7,4.12,3,.39.93,11.54-6.07,12.25-7.79S448.14,179.08,447.09,178.53Z" style="opacity:0.18"></path><path d="M434.83,186.22c-.68.83.2,18.49.59,19.41s11.54-6.07,12.25-7.79.47-18.76-.58-19.31C446.38,178.15,435.82,185,434.83,186.22Z" style="fill:#004AC8"></path><path d="M443,175.49c.4.21,3.87,2.92,4.11,3-.71-.38-11.27,6.51-12.25,7.69l-4.12-3C431.7,182,442.26,175.11,443,175.49Z" style="opacity:0.4"></path><path d="M434.83,186.22c-.68.83.2,18.49.59,19.41s11.54-6.07,12.25-7.79.47-18.76-.58-19.31C446.38,178.15,435.82,185,434.83,186.22Z" style="opacity:0.30000000000000004"></path><path d="M430.72,183.19c.78-.5,3.09.78,4.08,1.65s2,4.94,4.59,5.62,6.29-2.68,7.09-4.87,1.78-6.77.56-8.44-3.41-2.59-5.26-1.63S431,181.17,430.72,183.19Z" style="fill:#004AC8"></path><path d="M430.72,183.19c.78-.5,3.09.78,4.08,1.65s2,4.94,4.59,5.62,6.29-2.68,7.09-4.87,1.78-6.77.56-8.44-3.41-2.59-5.26-1.63S431,181.17,430.72,183.19Z" style="opacity:0.1"></path><path d="M442,185.77a1.94,1.94,0,0,0-.93,1.77.78.78,0,0,0,1.18.7,1.9,1.9,0,0,0,.93-1.77C443.07,185.78,442.54,185.46,442,185.77Z" style="fill:#37474f"></path><path d="M429.15,155.69s3.68-2.27,8.12-4.54,6.89-3,8.17,2.07a111.59,111.59,0,0,1,2.66,13.59c.85-.36.83-1.84.58-8.26-.37-9.34,1-13.43-8.42-17.64-14.62-6.52-26.93-11.69-35.56-10.2s-10.87,6.16-12.72,12C392,142.75,401.88,152.69,429.15,155.69Z" style="fill:#455a64"></path></g><g id="freepik--Bottom--inject-158"><path d="M351.6,243.42c1.8-8,9.62-35.88,17.08-49.74l44.23,1.07-24.43,47.16c4.26-1.22,13.62,1,13.62,1,8.08,1.47,23.5,6.08,29.9,6.19s6-2.34,11.36-1.83a6.33,6.33,0,0,1,4.68,3.54,28.07,28.07,0,0,0,2.72,4.58c2.27,2.73,4.75,5.27,7,8,2,2.43,4.7,6.67,4.57,10s-1.34,7.49-4.26,9c-3.45,1.79-5.9-1.44-7.92-4.4a85,85,0,0,0-5.8-8.15c-2.57-3.08-5.2-3.56-9-3.63s-7.74.47-11.6.69-7.8.52-11.69.91c-11.7,1.2-23.4,2.47-35.12,3.5-16.29,1.43-20.32-2.58-23.53-6S349.7,251.86,351.6,243.42Z" style="fill:#ffbda7"></path><path d="M436.35,248.66c2.66-.18,11.4,9,14.65,14.13s3,10,.92,11.61-4.36-.23-4.36-.23,2.84,4.54,4.58,7.47,7.6,2.8,9.68-1.95A14.25,14.25,0,0,0,460,265.17c-3.26-4.07-8.16-9.39-9.52-11.94-1.7-3.2-2.11-5.84-6.91-6.59C441,246.24,436.35,248.66,436.35,248.66Z" style="fill:#455a64"></path><path d="M367.76,191.65c-5.64,13.84-13.89,35.66-16.54,49.84s-1.94,23.79,4.61,27.43,11.77,3.44,20.37,3.16,40.65-4.14,40.65-4.14a30.72,30.72,0,0,0,1.92-12.63c-.52-6.69-3.08-9.76-3.08-9.76-6.33-2.39-19.6-6.13-25.23-5.35l24.84-47.57Z" style="fill:#37474f"></path><path d="M368.25,191.66c.05,4.69.1,10,.1,10-.22,6.12,2.57,12.54,5.06,16.53-2.83,10.3-7,29.33-7.52,36.75-.53,6.91-.69,11.12,5.35,17.29,1.54,0,3.17-.07,5-.13,6.95-.23,29.27-2.79,37.53-3.77h0c-1.83-2.91-5.38-7.75-9.75-9.75l8.09-14.27c-6.87-2.24-16.9-4.75-21.61-4.09l19.61-37.55-2-10.17Z" style="fill:#263238"></path><path d="M428,336l-.12-.22a10.7,10.7,0,0,1-.86-3.51c-.39-3.4-.27-6.84-.56-10.26a21.7,21.7,0,0,0-7.89-14.69c-6.74-5.84-14.14-10.85-21.23-16.23-16.47-12.51-18.58-14.22-23.52-19.49-4.12-4.39-5.47-10.16-2.73-23.58,2.15-10.5,8.13-31.56,8.13-31.56s-10.57-8.56-9.29-22.76l49.56-3.22c4.05,10,3,21.08.42,29.7-3.84,12.63-20.54,40-20.54,40s5.26.82,13,10.81c5.37,6.92,10.09,16.85,16.3,22.8,3.58,3.42,9.77,1.39,12,6.73,1.12,2.63,0,5.64-.16,8.52-.33,6.38,2.12,12.57.3,18.9a15.6,15.6,0,0,1-4.45,7.32c-1.78,1.6-5.15,3.3-7.46,1.78A2.87,2.87,0,0,1,428,336Z" style="fill:#ffbda7"></path><path d="M432,295.68c2.36,1.29,3,7.28,3.43,15.6s-.69,12.32-3.84,14c-3.8,2-5.12-2.33-5.12-2.33s-.42,6.77-.32,9.88,1.81,7.1,6.29,5.55a15.75,15.75,0,0,0,9.7-11c1.28-5.21-1.49-13.31-1.28-16.42s1.6-8.54.21-10.87S438.82,296.61,432,295.68Z" style="fill:#455a64"></path><path d="M367.76,191.65c-.62,9.74,1.43,16.93,9.58,25.22,0,0-5.12,18.2-7.1,29.95s-3.4,19.23,4.49,26.65,32.68,25.87,32.68,25.87,5.88,0,10.49-5.89,2.48-11.35,2.48-11.35-8.23-16.81-19.58-22.68c0,0,9.9-17.16,15.63-28.51s9.41-28.68,3-40.42Z" style="fill:#455a64"></path><path d="M400.8,259.42h0l-2.4,3.89,4.16-2.87C402,260.07,401.4,259.72,400.8,259.42Z" style="fill:#37474f"></path></g><g id="freepik--Top--inject-158"><path d="M419.23,96.14a8,8,0,0,0,2.82,5.2c1.06.77,2.32,1.24,3.4,2a12.1,12.1,0,0,1,3.83,5.13c.88,2,1.51,4.05,2.47,6a19.67,19.67,0,0,0,8.15,8.45c3.58,1.95,9,3.42,13,1.81,3.82-1.55,6.85-3.47,9.19-7a19.05,19.05,0,0,0,2.93-6.67,11.32,11.32,0,0,0-.78-7.17,4.89,4.89,0,0,1-1.24,3.34,10.94,10.94,0,0,0-.88-4.29,3.72,3.72,0,0,0-3.52-2.19,4.39,4.39,0,0,0-2.68,1.74c-1.22,1.47-1.95,2.88-3.85,3.45a9.07,9.07,0,0,1-7.17-.94c-2-1.17-3.08-3.22-4.3-5.14a26.82,26.82,0,0,0-9.19-9.21c-3.77-2.09-8.94-2.29-12,.72a2.21,2.21,0,0,0-.53.72,2.31,2.31,0,0,0-.05,1.14C418.92,94.17,419,95.16,419.23,96.14Z" style="fill:#263238"></path><path d="M420.71,102.23a5.3,5.3,0,0,0,1.13,1,3.63,3.63,0,0,0,5-.81,6.61,6.61,0,0,0,.89-2.75,16.13,16.13,0,0,0-.68-7.17,6.53,6.53,0,0,0-1.6-2.8,4.4,4.4,0,0,0-4-.95c-1.62.3-2.27,1.4-2.78,2.93A11.47,11.47,0,0,0,420.71,102.23Z" style="fill:#004AC8"></path><path d="M386.94,103.09a4.74,4.74,0,0,1,.25-5,5.35,5.35,0,0,1-2.62-5,8.78,8.78,0,0,1,2.51-5.33l.11-.12c7-7.39,19-8.71,27.94-4.27q1,.49,1.92,1.08a19.69,19.69,0,0,1,9.34,14.8c.47,5.26-1.44,10.48-4.17,15s-6.26,8.48-9.47,12.67c.19-.25-1.8-2.66-2-2.94a12.29,12.29,0,0,0-2.53-2.61c-.7-.45-1.58-.59-2.32-1-1.2-.63-2.4-1.28-3.54-2a21.1,21.1,0,0,1-8.24-10.53c-2.26-.67-4.59-1.51-6.18-3.25A5.58,5.58,0,0,1,386.94,103.09Z" style="fill:#263238"></path><g id="freepik--Arm--inject-158"><path d="M340.49,110.16c-1.29,5.1.06,6.49,7.08,13.21,11.31,10.83,26.39,23.4,26.39,23.4l14.2-16c-4.74-1.47-7.94-2.31-10.4-4.29-10.05-8.12-17.38-14.29-19.66-16.56h0s5.92-20.63,6.86-23,3.55-4.29,4.13-4.81c4-3.62,4.39-5.62,6.07-10.65.29-.86.57-1.73.84-2.59a9.27,9.27,0,0,1,.44-1.25c.17-.37.31-.7-.09-1a1.47,1.47,0,0,0-1-.31,4.39,4.39,0,0,0-3.14,1.72,20.52,20.52,0,0,0-2,3.12c-.48.81-.9-.18-1-.68-.63-2.44.55-6.27,1.26-8.64a31.31,31.31,0,0,0,1.45-4.65,4.9,4.9,0,0,0-.38-2.95c-.31-.61-.81-1.06-1.53-.6a3.46,3.46,0,0,0-1,1.25c-.56.94-1.15.76-2.28,1.06a8.36,8.36,0,0,0-2.11.59,5.36,5.36,0,0,0-1.86,1.94,1.72,1.72,0,0,0-2,.73A23.5,23.5,0,0,0,357,66a28.55,28.55,0,0,0-1.1,9.11,16.26,16.26,0,0,1-1.08,5.6c-.85,2.2-2.9,6.57-6.64,13.78S341.77,105.07,340.49,110.16Z" style="fill:#ffbda7"></path><path d="M367.59,72.81a9.52,9.52,0,0,0-5.68,6.72,6.41,6.41,0,0,1,1.15-4.5A5.91,5.91,0,0,1,367.59,72.81Z" style="fill:#f0997a"></path></g><path d="M422.08,196.16c-.75-2.69-3.51-11.6-3.69-16.08-.14-3.48,1.59-6.75,4.62-15.16A47.22,47.22,0,0,0,424.83,141a39.06,39.06,0,0,0-9.22-4.88c-2.85-1.08-6.44-1.38-9.94-2.34-5.1-1.39-8.39-2.48-11.56-2.72-2.74-.21-5.95-.28-5.95-.28s-10.1,8.63-16.33,16.84c-4.22,5.56-5,13.29.12,18.46l-.16,12.37-5.24,15s3.9,9.45,21,11.13C415.7,207.3,422.08,196.16,422.08,196.16Z" style="fill:#004AC8"></path><path d="M422.08,196.16c-.75-2.69-3.51-11.6-3.69-16.08-.14-3.48,1.59-6.75,4.62-15.16A47.22,47.22,0,0,0,424.83,141a39.06,39.06,0,0,0-9.22-4.88c-2.85-1.08-6.44-1.38-9.94-2.34-5.1-1.39-8.39-2.48-11.56-2.72-2.74-.21-5.95-.28-5.95-.28s-10.1,8.63-16.33,16.84c-4.22,5.56-5,13.29.12,18.46l-.16,12.37-5.24,15s3.9,9.45,21,11.13C415.7,207.3,422.08,196.16,422.08,196.16Z" style="fill:#fff;opacity:0.5"></path><path d="M405.35,170.33c-3,2.35-12.75,4.39-18.08-2.13C387.66,174.81,401.64,177.76,405.35,170.33Z" style="fill:#004AC8;opacity:0.5"></path><g id="freepik--arm--inject-158"><path d="M449.42,127.27c-17,23.87-20,27.05-26.18,37-4.94-.87-13.06-18.27-4.07-28.78a126,126,0,0,0,17-23.7c.33-4.32.84-24.69,0-32.35a5.26,5.26,0,0,0-1.74-3.29c-2.73-2.53-4-5.74-5.81-8.62-1.44-2.24-2.89-3-2.54-3.57a3,3,0,0,1,4.08-.61c1.05.55,3.49,3.34,4.39,3.77s-.43-4-2.86-8.51c-1.39-2.58-2.1-4.87-1.59-6.87.25-.95,1-1.52,1.67-1.22a2,2,0,0,1,.69.52,2,2,0,0,1,.51-1.91c.88-.93,1.74-.4,2.36.44l.81,1.11a2.28,2.28,0,0,1,2.79.73c.25.3.79,1.16.79,1.16.82-.33,2.11-.64,3.37,1.16A34.68,34.68,0,0,1,447,59.63a25.35,25.35,0,0,1,1.9,5.43,22.84,22.84,0,0,1,1,5.77,67.81,67.81,0,0,0,.64,13.6c1.46,10.9,1.76,13.75,3.66,28.5C455,118.42,454.72,119.84,449.42,127.27Z" style="fill:#ffbda7"></path><path d="M436.53,67.18c3.13.4,5.42,4.45,6.06,7.53C442.77,70.81,441.23,67.22,436.53,67.18Z" style="fill:#f0997a"></path></g><g id="freepik--Head--inject-158"><path d="M412.85,132c.39-3.52,1.58-11.49,1.58-11.49.46,1,3.41,2.69,7,.15a6.93,6.93,0,0,0,1.94-9c-1.74-2.73-5-2.92-7.5.17-2.25,0-3-2-.91-6.17,1-5-4.09-6-5.08-12.94-7.17,1.78-13.55-1.39-18.76,2.42-1.41,2.2-3,4.8-4.1,11.59-1.42,8.79-.46,13.18,2.51,15.85,1.49,1.34,3.22,2.16,6.65,2.71,0,0-.19,1.22-.48,3.62-.15,1.23-.44,2.15-1.58,2.14-1.95,1.66-7.2,4.77,1.55,7.22,11.29,3.15,18.54-1,19.95-2.16A3.67,3.67,0,0,1,412.85,132Z" style="fill:#ffbda7"></path><path d="M396.17,125.27c6.19.88,11.8-.15,15.25-3.9a8.19,8.19,0,0,1-3.77,4.3c-6.64,3-11.74,1.46-11.74,1.46Z" style="fill:#f0997a"></path><path d="M396,115.69a14,14,0,0,1,5.82-.6,2.77,2.77,0,0,1-2.48,3.2A3.09,3.09,0,0,1,396,115.69Z" style="fill:#b16668"></path><path d="M398.1,118.14a2.81,2.81,0,0,0,1.26.15,2.77,2.77,0,0,0,2.34-1.83A3.37,3.37,0,0,0,398.1,118.14Z" style="fill:#f28f8f"></path><path d="M406.79,107.37c-.21,1-.88-.52-1.94-.73s-2.1,1-1.89,0a2,2,0,0,1,3.83.77Z" style="fill:#263238"></path><path d="M395,104.39c-.21,1-.87-.41-1.92-.62s-2.11.9-1.9-.15a1.95,1.95,0,0,1,3.82.77Z" style="fill:#263238"></path><polygon points="400.77 101.87 397.61 112.97 392.67 109.77 400.77 101.87" style="fill:#f0997a"></polygon><path d="M391.29,100.67l4.61-1.07a2.29,2.29,0,0,0-2.77-1.79A2.46,2.46,0,0,0,391.29,100.67Z" style="fill:#263238"></path><path d="M409.12,104.51l-3.94-2.72a2.3,2.3,0,0,1,3.27-.66A2.49,2.49,0,0,1,409.12,104.51Z" style="fill:#263238"></path><path d="M405.07,110.25c0,1.46,1.61,2.67,3.61,2.68s3.64-1.17,3.65-2.63-1.61-2.67-3.61-2.69S405.08,108.78,405.07,110.25Z" style="fill:#ffa8a7"></path><path d="M384.64,104.87c-.49,1.39.65,3,2.53,3.72s3.82.09,4.31-1.3-.64-3-2.53-3.71S385.13,103.49,384.64,104.87Z" style="fill:#ffa8a7"></path></g><path d="M418.85,135.9c-3.57,6-4.05,32.16,5.33,49l-.29,9.7c-10.45-10.92-16.24-39.07-10.34-59.93C413.55,134.72,416.35,136.83,418.85,135.9Z" style="fill:#37474f"></path><path d="M394.65,131s-13.91,6.53-23.25,17.23c2.24-9.41,16.71-18.35,16.71-18.35Z" style="fill:#37474f"></path></g><path d="M410.81,320.19l-2.47.23c-.41,0-.82.08-1.23.1l-1.24,0-2.47.09c-.82,0-1.65,0-2.47-.06-1.65,0-3.28-.22-4.92-.34a61.82,61.82,0,0,1-9.65-2,56.68,56.68,0,0,1-9.15-3.61,62.41,62.41,0,0,1-15.94-11.47,69.61,69.61,0,0,1-6.55-7.39,60.49,60.49,0,0,1-5.47-8.25,63.43,63.43,0,0,0,11.56,16.1,61.58,61.58,0,0,0,16,11.76,57.5,57.5,0,0,0,9.32,3.59l2.41.64c.81.2,1.63.34,2.44.51l1.23.24,1.24.17c.82.1,1.64.23,2.47.31,1.66.09,3.32.28,5,.23.83,0,1.66,0,2.49,0l2.49-.15,1.24-.08c.41,0,.82-.1,1.23-.15l2.47-.32c1.64-.23,3.25-.6,4.88-.91l-2.46.36C412.44,320,411.63,320.14,410.81,320.19Z" style="fill:#455a64"></path><path d="M401.34,327.86a63.81,63.81,0,0,1-13.18.11,51,51,0,0,1-12.85-2.78,13.59,13.59,0,0,1-1.54-.59l-1.53-.63c-.5-.22-1-.48-1.48-.73s-1-.47-1.46-.76a32.6,32.6,0,0,1-5.44-3.77,24.9,24.9,0,0,0,2.5,2.2c.45.33.86.71,1.34,1l1.39.92c.46.32,1,.56,1.45.83s1,.54,1.48.79l1.52.69a13.93,13.93,0,0,0,1.54.65,49.19,49.19,0,0,0,13,3,60.72,60.72,0,0,0,13.34-.31c2.19-.37,4.39-.7,6.54-1.27s4.28-1.2,6.39-1.87c-2.17.49-4.29,1.12-6.47,1.47S403.52,327.57,401.34,327.86Z" style="fill:#455a64"></path><path d="M334.7,61.4c.39-.81.87-1.58,1.31-2.36.23-.38.48-.76.73-1.13s.49-.76.75-1.12a41.77,41.77,0,0,1,7.23-7.89A49,49,0,0,1,353.34,43c1.51-.83,3.05-1.57,4.61-2.24A44.75,44.75,0,0,1,362.66,39a41.53,41.53,0,0,0-9.46,3.54,46,46,0,0,0-8.82,5.86,40.63,40.63,0,0,0-7.27,8.14,36.22,36.22,0,0,0-4.6,9.78A42.22,42.22,0,0,1,334.7,61.4Z" style="fill:#455a64"></path><path d="M348.56,53.46A37.59,37.59,0,0,0,344,59a31.9,31.9,0,0,0-1.82,3.08c-.24.54-.51,1.07-.74,1.61s-.41,1.1-.6,1.65c.26-.54.51-1.06.75-1.59s.58-1,.86-1.54a31.7,31.7,0,0,1,1.92-2.95A48.29,48.29,0,0,1,349,53.91a55.11,55.11,0,0,1,5.17-4.64c.91-.72,1.83-1.4,2.78-2a28,28,0,0,1,2.91-1.75,26.92,26.92,0,0,0-5.92,3.36A42.85,42.85,0,0,0,348.56,53.46Z" style="fill:#455a64"></path></g></g></svg>
