<svg width="46" height="41" viewBox="0 0 46 41" fill="none" xmlns="http://www.w3.org/2000/svg">
<path d="M5.95619 26.8026C5.69177 26.2382 5.24937 24.5195 5.24429 24.0161C5.32056 23.9805 5.40701 23.9398 5.48837 23.9042C6.78505 23.294 7.5834 22.2871 7.79697 20.8786C8.10715 18.8344 6.91726 17.3343 5.55956 16.7038C5.46294 16.658 5.36633 16.6174 5.25446 16.5716C5.25446 16.475 5.2392 16.3834 5.25446 16.2919C5.44769 15.3461 5.69686 14.4105 6.02738 13.5002C6.05281 13.4341 6.0884 13.3782 6.12908 13.2917C6.9376 13.8409 7.80714 14.0037 8.73261 13.7189C9.4852 13.4901 10.0547 13.0121 10.4259 12.3154C10.8378 11.5374 10.8988 10.7187 10.5937 9.88987C10.2937 9.07627 9.70385 8.522 8.91059 8.1813C9.22586 7.60161 10.7666 5.88288 11.265 5.56252C11.3158 5.65405 11.3717 5.74049 11.4226 5.83202C11.8446 6.53884 12.4701 6.94564 13.2888 6.99141C14.5651 7.0626 15.5618 6.12187 15.6991 4.9574C15.7855 4.2099 15.5618 3.56919 15.033 3.03018C14.9821 2.97933 14.9313 2.92848 14.8855 2.87763C14.8804 2.87254 14.8804 2.85729 14.8804 2.84203C15.4703 2.33353 17.9314 1.25042 19.5383 0.79277C22.3706 -0.0106636 25.2488 -0.208979 28.1625 0.223248C31.2491 0.6809 34.0865 1.79452 36.6545 3.55902C44.3379 8.84744 47.3483 18.4378 44.3328 27.0111C41.2106 35.8845 33.0238 40.4254 25.9149 40.5475C25.9047 40.4712 25.8844 40.3898 25.8844 40.3085C25.8844 38.3151 25.8895 36.3218 25.8895 34.3285C25.8895 34.2573 25.8996 34.1912 25.9047 34.1047C26.103 34.0742 26.2912 34.0386 26.4793 34.0183C29.3625 33.7335 31.9712 32.7216 34.3153 31.0283C34.5086 30.891 34.6967 30.7385 34.8645 30.5706C35.0069 30.4283 35.1239 30.2605 35.2408 30.0927C35.3222 29.9757 35.3629 29.8333 35.3578 29.6859C35.3425 29.274 34.9815 29.0655 34.6306 29.2791C34.4984 29.3553 34.3815 29.4672 34.2696 29.5689C33.1204 30.6012 31.8389 31.4148 30.4101 31.9995C29.3575 32.4318 28.2642 32.7318 27.1302 32.864C26.5251 32.9352 25.92 32.986 25.3098 32.9809C23.0012 32.9555 20.8502 32.3555 18.8823 31.1453C15.5059 29.0756 13.2837 26.1162 12.1345 22.3431C11.9514 21.738 11.804 21.1227 11.6819 20.5023C11.6463 20.3294 11.6006 20.1514 11.5192 19.9938C11.3361 19.648 10.9599 19.648 10.7514 19.9836C10.6497 20.1464 10.6395 20.3243 10.6547 20.5023C10.6903 20.8583 10.7259 21.2142 10.787 21.5651C11.1734 23.7059 12.0684 25.628 13.36 27.3722C15.2719 29.9554 17.7077 31.8826 20.6773 33.1233C21.9181 33.642 23.2147 33.9674 24.5572 34.0895C24.603 34.0946 24.6487 34.1098 24.6843 34.12C24.7759 34.2369 24.7403 34.359 24.7403 34.4759C24.7453 35.2387 24.7453 36.0015 24.7453 36.7693C24.7504 37.9032 24.7555 39.0372 24.7606 40.1712C24.7606 40.2983 24.7809 40.4305 24.725 40.5475C24.1097 40.639 21.8113 40.3593 20.4993 40.0491C19.101 39.7186 17.7534 39.2457 16.4517 38.6304C15.1652 38.0202 13.9549 37.2778 12.821 36.4082C11.687 35.5438 10.6598 34.5675 9.73436 33.4945C9.58181 33.5403 9.58181 33.6674 9.54113 33.7539C9.29196 34.3031 8.96144 34.7963 8.5343 35.2234C7.70035 36.0523 6.70369 36.5303 5.52905 36.6625C3.08315 36.9422 0.510135 35.2845 0.103333 32.4521C-0.283128 29.757 1.42544 27.6518 3.54081 27.001C4.30356 26.767 5.08157 26.6959 5.89517 26.8738C6.72912 29.2841 7.95969 31.4707 9.61232 33.4233C9.73436 33.3928 9.73945 33.3013 9.75979 33.225C10.6242 30.4486 9.05297 27.7993 6.59182 26.9806C6.38842 26.9145 6.16468 26.8637 5.95619 26.8026ZM38.3529 19.0429C38.3529 18.6971 38.3579 18.2802 38.3478 17.8632C38.3427 17.6852 38.3274 17.5021 38.2867 17.3293C38.2257 17.0699 38.0223 16.9428 37.7477 16.958C37.4681 16.9784 37.3003 17.1309 37.2799 17.4055C37.2697 17.5581 37.2799 17.7157 37.2952 17.8683C37.4274 19.0887 37.3714 20.2989 37.1172 21.499C36.0646 26.4314 31.9 30.3469 26.6471 30.8147C26.0827 30.8656 25.5488 30.7639 25.0911 30.4079C24.6386 30.0571 24.2012 29.6859 23.7995 29.274C23.586 29.0502 23.3876 28.8112 23.2351 28.5366C23.0012 28.1146 22.9046 27.6671 22.9961 27.1891C23.0419 26.9552 23.0927 26.7213 23.1639 26.4925C23.2503 26.2179 23.3571 25.9534 23.4639 25.689C23.6317 25.2771 23.7436 24.8551 23.769 24.4076C23.8199 23.533 23.5453 22.7855 22.8944 22.1905C22.7622 22.0685 22.6096 21.9719 22.4723 21.86C22.3249 21.738 22.1774 21.6159 22.0503 21.4735C21.8113 21.199 21.796 20.8888 21.9587 20.5735C22.0198 20.4565 22.1011 20.3498 22.1774 20.2481C22.2486 20.1514 22.335 20.065 22.4113 19.9785C22.7876 19.5616 23.0317 19.0734 23.1283 18.5191C23.2046 18.092 23.2046 17.6598 23.1283 17.2377C22.9961 16.5004 22.5537 16.0275 21.8469 15.7885C21.3333 15.6156 20.8095 15.6309 20.2909 15.7427C19.5434 15.9004 19.2179 16.3072 19.2027 17.075C19.1976 17.3038 19.2078 17.5276 19.2179 17.7564C19.2433 18.3361 19.101 18.87 18.7908 19.3531C18.6484 19.5717 18.4857 19.7802 18.323 19.9836C18.1196 20.2328 17.9009 20.4718 17.6822 20.7057C17.5704 20.8277 17.4433 20.9396 17.306 21.0311C17.1432 21.1379 16.9653 21.1278 16.7975 21.0261C16.5991 20.9142 16.4771 20.7413 16.4313 20.5226C16.4059 20.4209 16.3957 20.3091 16.3957 20.2023C16.411 19.7701 16.4618 19.348 16.6246 18.9412C16.7161 18.7073 16.7975 18.4683 16.8076 18.214C16.8229 17.9395 16.7212 17.7157 16.472 17.5937C16.2788 17.5021 16.0754 17.4208 15.872 17.375C15.4652 17.2886 15.0482 17.2225 14.6363 17.1716C14.3872 17.1411 14.1329 17.136 13.8837 17.1614C13.3702 17.2072 12.9023 17.4462 12.8057 18.1632C12.7854 18.3056 12.7701 18.448 12.7701 18.5903C12.7599 19.6429 12.8464 20.6905 13.0549 21.7227C13.9142 25.9941 17.011 29.5486 20.9265 31.0283C21.4401 31.2215 21.9588 31.4046 22.4978 31.5165C22.8588 31.5927 23.0775 31.4402 23.1486 31.0842C23.1893 30.891 23.1334 30.7232 22.9656 30.6164C22.8639 30.5554 22.752 30.5045 22.6401 30.4689C22.3656 30.3825 22.091 30.3164 21.8164 30.2249C19.9959 29.5994 18.4145 28.5977 17.0975 27.1993C15.0228 24.9924 13.9244 22.3838 13.8736 19.3429C13.8685 19.1548 13.8837 18.9615 13.9142 18.7734C13.9549 18.5141 14.1024 18.3463 14.3719 18.2903C14.6617 18.2293 14.9414 18.2446 15.2211 18.3208C15.4296 18.3768 15.5059 18.4937 15.4957 18.7225C15.4906 18.8192 15.4703 18.9107 15.4499 19.0073C15.4245 19.1497 15.3838 19.287 15.3584 19.4294C15.2669 20.0294 15.2923 20.6193 15.5313 21.1888C15.6584 21.4888 15.8262 21.7634 16.0703 21.982C16.294 22.1804 16.5534 22.277 16.8585 22.2719C17.1026 22.2668 17.3263 22.1905 17.545 22.0888C17.9162 21.9159 18.2416 21.6769 18.5416 21.3973C19.1416 20.8328 19.6044 20.1718 19.9349 19.4192C20.1942 18.8293 20.3366 18.2242 20.2909 17.5733C20.2807 17.4666 20.2807 17.3598 20.2858 17.253C20.301 16.9072 20.4383 16.7597 20.7943 16.7343C20.9367 16.7241 21.079 16.7292 21.2214 16.7445C21.7198 16.8055 22.0198 17.1106 22.0706 17.6089C22.1164 18.0717 22.0452 18.5141 21.8113 18.9209C21.6842 19.1344 21.5367 19.3429 21.3892 19.5412C21.2011 19.7904 21.0231 20.0396 20.8909 20.3243C20.6265 20.8989 20.6926 21.438 21.0638 21.9414C21.2367 22.1753 21.4401 22.3685 21.6587 22.5567C21.8215 22.699 21.9842 22.8414 22.1266 22.9991C22.5028 23.416 22.6859 23.9093 22.6554 24.4737C22.6401 24.7127 22.5944 24.9466 22.5181 25.1754C22.3808 25.5822 22.2537 25.9941 22.1164 26.4009C21.9384 26.9349 21.9282 27.479 22.0401 28.0281C22.2486 29.0401 22.7622 29.8893 23.4741 30.6215C23.9216 31.0791 24.4352 31.4453 25.0301 31.6843C25.4115 31.8368 25.8081 31.9131 26.22 31.8978C27.0336 31.8673 27.837 31.7504 28.6303 31.5571C32.6983 30.5605 35.8205 27.7535 37.3359 24.2042C38.0478 22.5821 38.3681 20.8837 38.3529 19.0429ZM28.1116 16.4089C28.0455 16.358 27.9896 16.3326 27.9591 16.2919C27.8269 16.1241 27.6845 15.9563 27.5828 15.7732C27.3743 15.3969 27.1862 15.0105 26.998 14.624C26.9217 14.4613 26.8607 14.2935 26.8099 14.1206C26.7743 13.9986 26.759 13.8664 26.7488 13.7341C26.7234 13.4087 26.8556 13.1443 27.12 12.9663C27.2878 12.8544 27.4658 12.7527 27.654 12.6815C27.8981 12.5849 28.1523 12.5188 28.4066 12.4476C28.9456 12.3002 29.3015 11.9646 29.4795 11.4408C29.51 11.3493 29.5354 11.2577 29.5609 11.1662C29.7185 10.5916 29.7287 10.0068 29.5965 9.42713C29.4592 8.81185 29.2913 8.20164 29.1286 7.59144C29.093 7.46432 29.0422 7.34228 28.9862 7.22532C28.8693 6.98124 28.6811 6.80326 28.4218 6.70665C28.2998 6.66088 28.1726 6.61512 28.0455 6.58969C27.5167 6.48291 26.9878 6.40155 26.4488 6.37104C25.5183 6.32019 24.5826 6.35578 23.6622 6.5185C22.3249 6.75241 21.0485 7.16938 19.8383 7.78976C17.7331 8.87287 16.0093 10.378 14.7279 12.3764C14.1075 13.3375 13.6854 14.385 13.3346 15.4681C13.3142 15.5241 13.299 15.5851 13.2888 15.641C13.2583 15.8444 13.3396 16.0122 13.5329 16.119C13.7261 16.2258 13.9346 16.2868 14.1431 16.1495C14.199 16.1139 14.2448 16.0478 14.2804 15.9868C14.3312 15.8902 14.3719 15.7936 14.4024 15.6919C14.7279 14.685 15.1906 13.7494 15.7652 12.8595C17.3721 10.3628 19.5993 8.70506 22.4622 7.91688C23.5402 7.62195 24.6386 7.48974 25.7522 7.46432C26.1234 7.45415 26.4946 7.46432 26.8607 7.52534C27.8777 7.68297 28.5083 8.33385 28.6201 9.35594C28.6608 9.71189 28.6608 10.0678 28.6252 10.4289C28.5744 10.973 28.2947 11.3391 27.7862 11.5272C27.6387 11.5832 27.4913 11.6188 27.3438 11.6696C26.7031 11.8832 26.1641 12.2442 25.803 12.829C25.4776 13.3477 25.4166 13.8918 25.6759 14.4664C26.0776 15.3664 26.5709 16.2055 27.1404 17.0038C27.2421 17.1462 27.3692 17.2835 27.5116 17.3903C27.8726 17.675 28.254 17.6852 28.6455 17.4462C28.8439 17.3242 29.0066 17.1716 29.1388 16.9835C29.3371 16.6987 29.5303 16.414 29.7032 16.1139C29.871 15.8241 30.0083 15.519 30.166 15.2241C30.2372 15.0868 30.3134 14.9495 30.4151 14.8325C30.5931 14.6189 30.8067 14.6139 30.9999 14.8173C31.0965 14.919 31.183 15.041 31.2542 15.163C31.4474 15.4783 31.605 15.8139 31.7525 16.1546C32.0678 16.8869 32.6373 17.2581 33.4306 17.2784C33.995 17.2937 34.5543 17.2581 35.1086 17.1462C35.7747 17.014 36.4358 16.8462 37.0969 16.6835C37.2799 16.6377 37.4579 16.5614 37.6257 16.475C37.941 16.3123 38.0528 16.0834 37.9816 15.7326C37.9359 15.4885 37.8647 15.2444 37.7681 15.0156C37.4833 14.3596 37.1935 13.7036 36.8782 13.0629C36.4867 12.2798 35.9934 11.5628 35.429 10.8967C34.1425 9.3712 32.5508 8.25758 30.7355 7.44398C30.6389 7.39821 30.5372 7.36262 30.4304 7.33719C30.1761 7.27108 29.9829 7.35753 29.866 7.58636C29.7337 7.84061 29.7592 8.06943 29.9575 8.23724C30.049 8.31351 30.1609 8.36436 30.2677 8.41522C30.5016 8.53217 30.7457 8.62879 30.9796 8.75083C33.5272 10.0933 35.3629 12.0917 36.507 14.7308C36.5629 14.863 36.6189 14.9952 36.6494 15.1325C36.7358 15.5241 36.6239 15.7122 36.2426 15.8393C36.1866 15.8597 36.1307 15.8749 36.0697 15.8902C35.6375 15.9817 35.2052 16.0783 34.773 16.1546C34.3255 16.2309 33.878 16.2868 33.4204 16.1953C33.0492 16.119 32.7848 15.941 32.6271 15.5953C32.5407 15.402 32.4542 15.2037 32.383 15.0003C32.2305 14.5732 31.9559 14.2274 31.6203 13.9325C31.4982 13.8257 31.3508 13.7291 31.2033 13.6579C30.7813 13.4494 30.3643 13.4748 29.988 13.7545C29.8253 13.8714 29.6778 14.0189 29.5558 14.1816C29.4134 14.3698 29.3015 14.5833 29.1896 14.7918C29.0524 15.0461 28.9405 15.3054 28.8032 15.5597C28.6252 15.8597 28.4269 16.1597 28.1116 16.4089ZM32.6881 19.0785C32.3322 19.0785 31.9152 19.1446 31.5033 19.2819C30.8728 19.4853 30.2982 19.8006 29.7592 20.1718C29.3015 20.4921 28.8134 20.7057 28.2337 20.6905C27.8472 20.6803 27.5574 20.8939 27.3692 21.2346C27.1658 21.5905 27.2319 21.9668 27.5624 22.216C28.2743 22.7601 29.0066 23.2736 29.8049 23.6855C30.1355 23.8533 30.4762 23.9906 30.8169 24.1381C30.9033 24.1737 31.005 24.2042 31.0914 24.1889C31.4423 24.1279 31.7983 24.0618 32.139 23.9652C32.4949 23.8635 32.7593 23.6347 32.9627 23.3143C33.1966 22.9431 33.456 22.5872 33.7204 22.2312C33.9696 21.8956 34.2391 21.5752 34.4984 21.2498C34.5798 21.1481 34.6611 21.0413 34.7221 20.9294C34.9662 20.4871 34.895 20.0091 34.5391 19.648C34.3611 19.465 34.1425 19.3429 33.9035 19.2616C33.5272 19.1344 33.1509 19.0785 32.6881 19.0785ZM25.8132 29.3655C25.8844 29.3655 25.9556 29.3706 26.0268 29.3655C26.6065 29.3146 27.1251 28.8672 27.2523 28.318C27.4048 27.6315 27.0031 26.7213 26.3929 26.3704C26.1285 26.2179 25.8488 26.1874 25.5691 26.3196C24.903 26.6298 24.4555 27.1383 24.2826 27.8552C24.1504 28.4044 24.4301 28.9485 24.9437 29.1875C25.2182 29.3096 25.5081 29.3655 25.8132 29.3655Z" fill="#22205F"/>
</svg>
