<svg xmlns="http://www.w3.org/2000/svg" viewBox="0 0 500 500"><g id="freepik--background-complete--inject-496"><path d="M117.28,119.93c.75-5.44-6.93-9.92-12.7-10.39-2.75-.22-5.61.2-8.22-.71-5.65-2-7.9-9.26-13.41-11.59-4.12-1.73-8.87-.19-12.86,1.82s-8,4.54-12.41,4.83c-3.88.25-8.1-1.19-11.49.71-2.53,1.41-3.86,4.32-6.19,6.05s-5.26,2-8.09,2.19-5.76.18-8.34,1.36-4.71,3.91-4.18,6.69Z" style="fill:#ebebeb"></path><path d="M362.94,39c5.65-6.58,20.33-2.44,30.38,2.94,0,0,6.92,3.27,9.5,5l.08,0,23.52-2.94a9.55,9.55,0,0,1,5.56,1l1.93,1a1.29,1.29,0,0,1-.08,2.33l-17.31,7.41,0,.21,17.09,11.23.26.17a15.29,15.29,0,0,0,10.88,2.16l9.15-1.64a2.53,2.53,0,0,1,1.39.12,2.3,2.3,0,0,1,.61,3.91l-10.6,8.87a5.61,5.61,0,0,1-5.94.79l-5-2.29-25.12-12,2.88,14.31a.93.93,0,0,1-1,1.1l-1.18,0a4.71,4.71,0,0,1-3.91-2.36L396,60.89,366.33,46.78C362.38,45,361,41.57,362.94,39Z" style="fill:#e0e0e0"></path><path d="M161.14,46.33c.52-3.72-4.73-6.78-8.68-7.1-1.88-.15-3.84.14-5.62-.48-3.86-1.35-5.41-6.34-9.17-7.93-2.82-1.19-6.07-.13-8.8,1.25s-5.43,3.1-8.48,3.3c-2.65.17-5.54-.82-7.86.48-1.73,1-2.64,3-4.23,4.14a10.15,10.15,0,0,1-5.53,1.5,15.42,15.42,0,0,0-5.71.93c-1.76.81-3.22,2.67-2.85,4.58Z" style="fill:#ebebeb"></path><path d="M386.4,380.1c-.1.13-1-.39-1.93-1.16s-1.66-1.51-1.56-1.63,1,.39,1.94,1.16S386.51,380,386.4,380.1Z" style="fill:#e0e0e0"></path><path d="M412.73,340.76c.16-3.68.26-7.45-.9-10.94s-3.85-6.7-7.46-7.45c-4.11-.85-8.32,1.75-10.63,5.26s-3.09,7.77-3.77,11.92A421,421,0,0,0,384.81,426l16.82,2.36C409,398.21,411.38,371.82,412.73,340.76Z" style="fill:#ebebeb"></path><path d="M402,322.24a1,1,0,0,1-.08.27c-.07.21-.16.46-.28.77-.27.71-.65,1.68-1.12,2.9-.23.64-.54,1.32-.8,2.1l-.81,2.55c-.3.92-.61,1.9-.94,2.93s-.57,2.17-.87,3.34a144.44,144.44,0,0,0-3.25,16.65c-.91,6.33-1.51,13.33-2,20.7-.86,14.74-1,28.12-1.38,37.8-.18,4.84-.34,8.75-.53,11.46-.08,1.31-.16,2.35-.21,3.11,0,.32-.05.59-.07.81a1.14,1.14,0,0,1,0,.27.84.84,0,0,1,0-.28c0-.22,0-.48,0-.81,0-.76.06-1.8.1-3.11.11-2.71.21-6.62.34-11.46.27-9.68.34-23.06,1.2-37.83.47-7.37,1.08-14.4,2-20.74A138,138,0,0,1,396.73,337c.31-1.17.62-2.28.91-3.34l1-2.92.87-2.54c.26-.78.59-1.46.84-2.09l1.23-2.87.34-.74A.82.82,0,0,1,402,322.24Z" style="fill:#e0e0e0"></path><path d="M403.6,322.25a12,12,0,0,1,2,3.48,25.92,25.92,0,0,1,1.54,10.89c-.45,9.3-1.28,22.11-2.39,36.25s-2.35,26.94-3.34,36.19c-.49,4.62-.93,8.36-1.24,10.94-.16,1.25-.29,2.24-.38,3l-.12.77a1,1,0,0,1-.06.26.92.92,0,0,1,0-.27c0-.21,0-.47.06-.78.06-.73.15-1.72.27-3,.25-2.64.61-6.37,1.05-11,.88-9.25,2-22,3.16-36.18s2-27,2.56-36.22a26.31,26.31,0,0,0-1.33-10.79A24.51,24.51,0,0,0,403.6,322.25Z" style="fill:#e0e0e0"></path><path d="M415.26,365.8a9.14,9.14,0,0,1-3.19-.82,9.27,9.27,0,0,1-3-1.39,9.14,9.14,0,0,1,3.19.82A9.27,9.27,0,0,1,415.26,365.8Z" style="fill:#e0e0e0"></path><path d="M417.29,348.65c.07.16-1.29.91-3,1.69a10.41,10.41,0,0,1-3.28,1.14,19.94,19.94,0,0,1,6.31-2.83Z" style="fill:#e0e0e0"></path><path d="M416.24,334.66a5.6,5.6,0,0,1-2.51.13,5.43,5.43,0,0,1-2.47-.48,5.52,5.52,0,0,1,2.51-.12A5.35,5.35,0,0,1,416.24,334.66Z" style="fill:#e0e0e0"></path><path d="M398.87,325.69c-.14.09-.87-.83-1.64-2.05s-1.28-2.28-1.14-2.37.88.83,1.65,2.05S399,325.6,398.87,325.69Z" style="fill:#e0e0e0"></path><path d="M393.14,334.15a4.94,4.94,0,0,1-2.39.25c-1.32,0-2.38-.18-2.38-.35s1.07-.28,2.39-.25A5.13,5.13,0,0,1,393.14,334.15Z" style="fill:#e0e0e0"></path><path d="M389,351.09a6,6,0,0,1-2.52-.69c-1.32-.54-2.35-1.1-2.29-1.25a5.69,5.69,0,0,1,2.52.69C388.05,350.37,389.08,350.93,389,351.09Z" style="fill:#e0e0e0"></path><path d="M388.58,365.33c0,.16-.93.5-2.14.75s-2.23.33-2.27.17.93-.5,2.14-.75S388.54,365.16,388.58,365.33Z" style="fill:#e0e0e0"></path><path d="M386.64,388.62c0,.17-1,.48-2.27.71a5,5,0,0,1-2.38.13c0-.17,1-.49,2.27-.72A5,5,0,0,1,386.64,388.62Z" style="fill:#e0e0e0"></path><path d="M385.35,401.48c.08.15-.77.75-1.89,1.34s-2.1,1-2.18.81.77-.74,1.89-1.34S385.27,401.33,385.35,401.48Z" style="fill:#e0e0e0"></path><path d="M395.85,416.08c-.14.08-.88-.94-1.65-2.28a6.89,6.89,0,0,1-1.13-2.58c.14-.09.88.94,1.65,2.28S396,416,395.85,416.08Z" style="fill:#e0e0e0"></path><path d="M398.88,391.82c.12.12-.71,1.12-1.84,2.23s-2.14,1.91-2.26,1.79.71-1.11,1.84-2.22S398.76,391.7,398.88,391.82Z" style="fill:#e0e0e0"></path><path d="M398.21,379.1c-.12.11-.89-.52-1.71-1.4s-1.38-1.7-1.26-1.81.88.51,1.7,1.4S398.33,379,398.21,379.1Z" style="fill:#e0e0e0"></path><path d="M400.29,362.84c.13.11-.56,1.07-1.53,2.16s-1.86,1.87-2,1.76.56-1.08,1.53-2.16S400.17,362.72,400.29,362.84Z" style="fill:#e0e0e0"></path><path d="M401.47,351c-.12.12-1.08-.63-2.14-1.68s-1.84-2-1.72-2.11,1.07.64,2.14,1.68S401.58,350.92,401.47,351Z" style="fill:#e0e0e0"></path><path d="M403.77,335.08a5.94,5.94,0,0,1-1.07,2.39c-.74,1.23-1.45,2.17-1.6,2.08a6,6,0,0,1,1.08-2.39C402.91,335.93,403.63,335,403.77,335.08Z" style="fill:#e0e0e0"></path><path d="M408.1,320.3c.15.08-.28,1.15-1,2.39s-1.33,2.18-1.48,2.11a5.85,5.85,0,0,1,.95-2.4C407.29,321.16,408,320.22,408.1,320.3Z" style="fill:#e0e0e0"></path><path d="M413,327c.07.15-.6.63-1.5,1.06s-1.69.66-1.77.51.61-.62,1.51-1.06S413,326.86,413,327Z" style="fill:#e0e0e0"></path><path d="M413.14,380.1a6.74,6.74,0,0,1-3.29-.79,6.87,6.87,0,0,1-2.86-1.83,16.88,16.88,0,0,1,3.09,1.27A17.21,17.21,0,0,1,413.14,380.1Z" style="fill:#e0e0e0"></path><path d="M411.13,391.35c0,.16-1,.49-2.26.74s-2.35.32-2.38.15,1-.49,2.26-.74A4.9,4.9,0,0,1,411.13,391.35Z" style="fill:#e0e0e0"></path><path d="M408.66,410.63a6.61,6.61,0,0,1-2.56-2.25,6.54,6.54,0,0,1-1.61-3,20.33,20.33,0,0,1,2.08,2.64A19.85,19.85,0,0,1,408.66,410.63Z" style="fill:#e0e0e0"></path><path d="M381.61,419.45c-.11-.13.58-.89,1.53-1.71s1.81-1.37,1.92-1.24-.58.89-1.53,1.7S381.72,419.57,381.61,419.45Z" style="fill:#e0e0e0"></path><path d="M373.84,377.37c-1.1-3.42-3.15-7.41-6.74-7.46a6,6,0,0,0-5.05,3.38,12.51,12.51,0,0,0-1.37,6.19,161.25,161.25,0,0,0,7.72,44.82h13.14A156.2,156.2,0,0,0,373.84,377.37Z" style="fill:#ebebeb"></path><path d="M350.08,355.84c-1.84-7.35-7.32-11.31-13.68-11.68-5.81,1-8.06,6.73-8.75,12.59s1.13,11.68,2.92,17.3q8.65,27,17.3,54.09l16.34-1.79C359,402.2,356.07,379.81,350.08,355.84Z" style="fill:#ebebeb"></path><path d="M367.1,369.91a12.85,12.85,0,0,0-1.12,1.86,12.23,12.23,0,0,0-.61,5.81c.25,2.49.54,5.5,1,8.79s1,6.92,1.76,10.69c1.48,7.55,3.16,14.32,4.22,19.26.54,2.47.94,4.47,1.2,5.86.11.64.2,1.17.27,1.6a2,2,0,0,1,.06.57,2,2,0,0,1-.17-.54c-.11-.43-.24-.95-.39-1.58l-1.39-5.81c-1.16-4.91-2.9-11.67-4.39-19.24-.74-3.78-1.32-7.42-1.72-10.74-.21-1.66-.35-3.24-.49-4.72s-.28-2.85-.35-4.12a12,12,0,0,1,.83-5.93A5.15,5.15,0,0,1,367.1,369.91Z" style="fill:#e0e0e0"></path><path d="M336.64,343.69a21.37,21.37,0,0,0-2,2.66,18.69,18.69,0,0,0-2.49,8.55c-.25,3.8.6,8.32,2,13.16s3,10.2,4.66,15.8l8.37,28.76c1,3.64,1.86,6.6,2.46,8.73.27,1,.48,1.78.65,2.38a4.32,4.32,0,0,1,.18.85,5.63,5.63,0,0,1-.3-.81l-.75-2.35-2.65-8.68L338.28,384l-4.62-15.82c-1.4-4.87-2.22-9.46-1.91-13.34a18.34,18.34,0,0,1,2.71-8.65A10.27,10.27,0,0,1,336.64,343.69Z" style="fill:#e0e0e0"></path><path d="M360.65,424.61a5,5,0,0,1-.37-.79c-.22-.52-.56-1.28-.93-2.3-.78-2-1.78-5-2.81-8.68s-2.06-8.18-3.05-13.18-2-10.49-3.08-16.26-2.4-11.19-3.87-16a89,89,0,0,0-4.76-12.59,66.67,66.67,0,0,0-4.41-7.94c-.56-.92-1.07-1.58-1.38-2.06a4,4,0,0,1-.45-.74,6.52,6.52,0,0,1,.55.67c.34.45.88,1.1,1.48,2a60.78,60.78,0,0,1,4.59,7.89,84.64,84.64,0,0,1,4.91,12.62,159.72,159.72,0,0,1,3.93,16.1c1.08,5.77,2.1,11.26,3,16.27S356,409,357,412.73s1.91,6.69,2.62,8.71c.33,1,.64,1.8.82,2.34A4.32,4.32,0,0,1,360.65,424.61Z" style="fill:#e0e0e0"></path><path d="M330.87,371.35c0,.16-.85.51-2,.79s-2.09.37-2.13.21.85-.52,2-.79S330.83,371.19,330.87,371.35Z" style="fill:#e0e0e0"></path><path d="M329.13,360.19a20.15,20.15,0,0,1-5.52.22,9.51,9.51,0,0,1,5.52-.22Z" style="fill:#e0e0e0"></path><path d="M331,350c-.11.12-1-.45-2-1.29s-1.7-1.62-1.59-1.75,1,.45,2,1.29S331.08,349.88,331,350Z" style="fill:#e0e0e0"></path><path d="M336,340.57c.17,0,.12.84.1,1.8s0,1.75-.2,1.78-.44-.77-.4-1.8S335.8,340.54,336,340.57Z" style="fill:#e0e0e0"></path><path d="M346.15,345c.14.09-.26.9-.89,1.8s-1.25,1.55-1.39,1.45.27-.9.9-1.8S346,344.92,346.15,345Z" style="fill:#e0e0e0"></path><path d="M352.76,356.5c.07.16-.78.65-1.89,1.1s-2.05.69-2.11.54.78-.65,1.89-1.1S352.7,356.35,352.76,356.5Z" style="fill:#e0e0e0"></path><path d="M356.77,368.32a4.83,4.83,0,0,1-2.59,1.13,5,5,0,0,1-2.82.1,11,11,0,0,1,2.69-.68A10.79,10.79,0,0,1,356.77,368.32Z" style="fill:#e0e0e0"></path><path d="M338.36,365c-.16-.05-.05-.87.25-1.83s.68-1.69.83-1.64.05.86-.25,1.82S338.52,365,338.36,365Z" style="fill:#e0e0e0"></path><path d="M340.93,379.8c-.16-.06.18-1.16.74-2.45s1.13-2.29,1.29-2.22a5.77,5.77,0,0,1-.74,2.46C341.66,378.88,341.08,379.87,340.93,379.8Z" style="fill:#e0e0e0"></path><path d="M334.58,383.86c-.06.16-1.1-.12-2.35-.51s-2.27-.75-2.23-.92a4.44,4.44,0,0,1,2.41.34C333.69,383.17,334.64,383.71,334.58,383.86Z" style="fill:#e0e0e0"></path><path d="M338.24,396c.1.14-.6.8-1.56,1.49s-1.82,1.13-1.92,1,.61-.8,1.57-1.48S338.14,395.83,338.24,396Z" style="fill:#e0e0e0"></path><path d="M341.17,408c0,.16-.82.51-1.93.78s-2,.36-2.08.2.83-.51,1.94-.78S341.13,407.86,341.17,408Z" style="fill:#e0e0e0"></path><path d="M357.1,378.4c.08.14-.66.73-1.74,1.13s-2,.46-2.05.3.82-.47,1.84-.86S357,378.25,357.1,378.4Z" style="fill:#e0e0e0"></path><path d="M359.37,397.16c-.07.15-.95-.11-2-.59s-1.78-1-1.71-1.14.95.11,2,.59S359.44,397,359.37,397.16Z" style="fill:#e0e0e0"></path><path d="M363.39,410.59a6.3,6.3,0,0,1-2.6-.7,6.38,6.38,0,0,1-2.39-1.25,6.08,6.08,0,0,1,2.61.69C362.38,409.87,363.45,410.43,363.39,410.59Z" style="fill:#e0e0e0"></path><path d="M341.82,421.11c-.09-.15,1-.87,2.22-1.85s2.2-1.84,2.33-1.73-.66,1.19-1.95,2.2A5.41,5.41,0,0,1,341.82,421.11Z" style="fill:#e0e0e0"></path><path d="M352.43,414.28c-.17,0-.4-.88-.81-1.93s-.83-1.87-.69-2,.82.62,1.25,1.75S352.59,414.27,352.43,414.28Z" style="fill:#e0e0e0"></path><path d="M349.62,398.13c-.1.14-.78-.19-1.53-.73s-1.28-1.08-1.18-1.22.78.2,1.53.73S349.72,398,349.62,398.13Z" style="fill:#e0e0e0"></path><path d="M374.37,372.82c.1.14-.57.8-1.49,1.48s-1.75,1.12-1.85,1,.57-.79,1.49-1.47S374.27,372.69,374.37,372.82Z" style="fill:#e0e0e0"></path><path d="M378.1,383c0,.16-1,.38-2.33.24s-2.27-.58-2.22-.73a6.73,6.73,0,0,1,2.29.13C377.07,382.8,378.08,382.85,378.1,383Z" style="fill:#e0e0e0"></path><path d="M362.06,385.31c0,.16-.93.5-2.18.59s-2.26-.13-2.24-.3,1-.22,2.2-.3S362,385.14,362.06,385.31Z" style="fill:#e0e0e0"></path><path d="M363.44,375.67c0,.16-1,.18-2.06-.31s-1.69-1.25-1.58-1.36.85.37,1.83.81S363.46,375.5,363.44,375.67Z" style="fill:#e0e0e0"></path><path d="M379.47,394c-.09.14-1.09-.33-2.23-1.06s-2-1.42-1.92-1.56,1.09.33,2.24,1.06S379.56,393.83,379.47,394Z" style="fill:#e0e0e0"></path><rect x="333.06" y="422.58" width="85.54" height="15.16" style="fill:#e0e0e0"></rect><polygon points="339.44 434.74 349.85 480.04 400.82 480.04 412.2 434.74 339.44 434.74" style="fill:#e0e0e0"></polygon><path d="M418.55,437.76c0,.17-19.3.3-43.09.3s-43.1-.13-43.1-.3,19.29-.3,43.1-.3S418.55,437.6,418.55,437.76Z" style="fill:#ebebeb"></path><path d="M371,385.64c-.14.09-.73-.59-1.31-1.52s-.94-1.75-.79-1.84.72.59,1.3,1.52S371.12,385.55,371,385.64Z" style="fill:#e0e0e0"></path><path d="M371,397.84c-.16-.06,0-1.09.45-2.31s.86-2.16,1-2.11,0,1.09-.44,2.3S371.17,397.89,371,397.84Z" style="fill:#e0e0e0"></path><path d="M375.18,410.64c-.15.07-.79-.95-1.42-2.28a6.29,6.29,0,0,1-.89-2.55c.15-.07.79.95,1.43,2.29A6.12,6.12,0,0,1,375.18,410.64Z" style="fill:#e0e0e0"></path><path d="M366.15,420.94c-.13-.1.38-.9,1.14-1.77s1.47-1.48,1.59-1.38-.38.91-1.14,1.78S366.27,421.05,366.15,420.94Z" style="fill:#e0e0e0"></path><path d="M364.25,402.24c0,.16-.85.15-1.84,0s-1.76-.45-1.73-.61.85-.16,1.84,0S364.28,402.08,364.25,402.24Z" style="fill:#e0e0e0"></path></g><g id="freepik--Floor--inject-496"><path d="M473.14,480.69c0,.14-100.8.26-225.13.26s-225.15-.12-225.15-.26,100.78-.26,225.15-.26S473.14,480.54,473.14,480.69Z" style="fill:#263238"></path></g><g id="freepik--Passport--inject-496"><g id="freepik--capa-7--inject-496"><path d="M330.1,112.82H452.85a8.47,8.47,0,0,1,8.47,8.47V286.42a8.47,8.47,0,0,1-8.47,8.47H330.1a0,0,0,0,1,0,0V112.82A0,0,0,0,1,330.1,112.82Z" transform="matrix(0.97, 0.26, -0.26, 0.97, 65.44, -94.58)" style="fill:#417CFE"></path><path d="M398.81,239.61a26.85,26.85,0,0,1-6.92-.91A27.12,27.12,0,0,1,375,225.45a29.29,29.29,0,0,1-2.63-21.83c4.09-15.42,19.48-24.76,34.3-20.83A27.12,27.12,0,0,1,423.57,196a29.75,29.75,0,0,1-10.48,39.51A27.38,27.38,0,0,1,398.81,239.61Zm1-55.72c-11.56,0-22.28,8.1-25.5,20.24a27.36,27.36,0,0,0,2.45,20.36,25.06,25.06,0,0,0,35.26,9.34,27.32,27.32,0,0,0,12.21-16.47h0A27.36,27.36,0,0,0,421.82,197a25.18,25.18,0,0,0-15.62-12.28A24.85,24.85,0,0,0,399.84,183.89Z" style="fill:#fff"></path><rect x="398.28" y="182.99" width="2" height="54" transform="translate(94 542.15) rotate(-75.16)" style="fill:#fff"></rect><rect x="370.68" y="209.57" width="55.79" height="2" transform="translate(92.89 541.86) rotate(-75.15)" style="fill:#fff"></rect><path d="M391.86,238.27l-1-1.75c7.46-4.06,12.65-8.12,16.33-12.77A31.56,31.56,0,0,0,413.64,203c-.6-6.95-4.62-13.25-8.16-18.81l1.68-1.08c3.67,5.76,7.84,12.28,8.47,19.72A33.16,33.16,0,0,1,408.8,225C403.73,231.39,396.7,235.64,391.86,238.27Z" style="fill:#fff"></path><path d="M390.61,238.1c-3.93-5.62-7.74-11.9-8.91-19.59a33.19,33.19,0,0,1,5.06-22.66c4.22-6.13,11.78-10.11,17.85-13.31l.93,1.77c-5.87,3.1-13.19,6.95-17.14,12.68a31.49,31.49,0,0,0-4.72,21.22c1.11,7.29,4.78,13.32,8.57,18.75Z" style="fill:#fff"></path><path d="M416.39,201.35A59.3,59.3,0,0,1,381.54,190l1.18-1.61a57.22,57.22,0,0,0,41.56,10.38l.28,2A57.35,57.35,0,0,1,416.39,201.35Z" style="fill:#fff"></path><path d="M415.53,232.92c-13.23-9.68-28.43-14.14-41.72-12.25l-.29-2c13.8-2,29.55,2.62,43.2,12.61Z" style="fill:#fff"></path><path d="M318.16,276.25c-.13,0,10.16-39.33,23-87.75s23.35-87.67,23.49-87.63-10.15,39.32-23,87.76S318.3,276.29,318.16,276.25Z" style="fill:#263238"></path><path d="M417.29,280.63c0,.14-15.3-3.79-34.09-8.77s-34-9.13-33.95-9.27,15.29,3.79,34.09,8.77S417.33,280.49,417.29,280.63Z" style="fill:#fff"></path><path d="M407.18,284.86c0,.14-11.37-2.74-25.31-6.44s-25.22-6.8-25.18-6.94,11.37,2.74,25.31,6.44S407.22,284.72,407.18,284.86Z" style="fill:#fff"></path><path d="M403.29,136.1l-1.79,6.76-.87-.23.8-3L398,138.7l-.8,3-.87-.23,1.8-6.76.86.23-.77,2.9,3.47.93.77-2.91Z" style="fill:#fff"></path><path d="M407.92,143.66l-.22.84-4.39-1.16,1.79-6.76,4.27,1.13-.22.84-3.41-.9-.55,2.07,3,.81-.22.82-3-.8-.58,2.18Z" style="fill:#fff"></path><path d="M413.4,144.21l-3.21-.86-1.11,1.52-.9-.24,4.54-6,.85.22,1,7.49-.91-.24Zm-.09-.86-.43-3.66-2.18,3Z" style="fill:#fff"></path><path d="M417.22,139.79l.86.23-1.57,5.92,3.28.87-.22.84-4.14-1.1Z" style="fill:#fff"></path><path d="M422.77,142.16l-2.07-.55.22-.84,5,1.33-.22.84-2.07-.55-1.57,5.92-.86-.23Z" style="fill:#fff"></path><path d="M432.07,143.72l-1.8,6.77-.86-.23.8-3-3.47-.92-.8,3-.87-.23,1.79-6.76.87.22-.77,2.91,3.47.92.77-2.9Z" style="fill:#fff"></path><path d="M387.16,147.74c-.56,2.13-2.35,3.08-4.63,2.47l-1.46-.39-.65,2.45-2.37-.63,2.48-9.36,3.83,1C386.64,143.9,387.73,145.6,387.16,147.74Zm-2.39-.63a1.33,1.33,0,0,0-1.11-1.77l-1.31-.35-.73,2.75,1.32.34A1.32,1.32,0,0,0,384.77,147.11Z" style="fill:#fff"></path><path d="M392.42,153.51l-3.54-.94-1.14,1.64-2.41-.64,6.18-8.38,2.33.62,1.22,10.34-2.46-.65Zm-.17-2.14-.28-3.28-1.88,2.71Z" style="fill:#fff"></path><path d="M395.38,155.33l1.29-1.74a5.05,5.05,0,0,0,2.52,1.65c1,.26,1.45.06,1.57-.4.39-1.48-4.66-1.66-3.74-5.14.45-1.67,2-2.71,4.52-2a5.79,5.79,0,0,1,2.82,1.62L403.11,151A4.85,4.85,0,0,0,401,149.7c-1-.26-1.45,0-1.58.49-.38,1.43,4.66,1.62,3.74,5.07-.43,1.63-2,2.7-4.51,2A6.27,6.27,0,0,1,395.38,155.33Z" style="fill:#fff"></path><path d="M403.12,157.39l1.3-1.75a5,5,0,0,0,2.52,1.65c1,.26,1.44.06,1.56-.4.39-1.48-4.65-1.66-3.73-5.14.44-1.67,2-2.71,4.51-2.05a6,6,0,0,1,2.82,1.62l-1.25,1.77a4.79,4.79,0,0,0-2.13-1.34c-1-.26-1.45,0-1.57.49-.38,1.43,4.65,1.62,3.74,5.07-.44,1.63-2,2.7-4.51,2A6.29,6.29,0,0,1,403.12,157.39Z" style="fill:#fff"></path><path d="M420.34,156.54c-.57,2.12-2.35,3.07-4.64,2.46l-1.45-.38-.65,2.45-2.37-.63,2.48-9.37,3.83,1C419.82,152.69,420.91,154.4,420.34,156.54ZM418,155.9a1.32,1.32,0,0,0-1.11-1.76l-1.32-.35-.72,2.74,1.31.35A1.33,1.33,0,0,0,418,155.9Z" style="fill:#fff"></path><path d="M420.86,158a4.82,4.82,0,1,1,3.36,6.1A4.78,4.78,0,0,1,420.86,158Zm6.91,1.83a2.37,2.37,0,1,0-3,2.08A2.47,2.47,0,0,0,427.77,159.81Z" style="fill:#fff"></path><path d="M434.49,163.94l-1.29-.34-.66,2.49-2.37-.63,2.49-9.37,3.82,1c2.29.6,3.37,2.31,2.81,4.45a3.27,3.27,0,0,1-2.43,2.52l1,3.42-2.54-.67Zm1.3-4.78-1.32-.35-.72,2.74,1.31.35a1.42,1.42,0,1,0,.73-2.74Z" style="fill:#fff"></path><path d="M442.62,161l-2.57-.68.55-2.1,7.5,2-.55,2.1-2.56-.68-1.93,7.27-2.37-.63Z" style="fill:#fff"></path><path d="M392.73,136.13a30.24,30.24,0,0,1-5.45-1.18,29.78,29.78,0,0,1-5.32-1.68,60.22,60.22,0,0,1,10.77,2.86Z" style="fill:#fff"></path><path d="M391.73,138.81a28.45,28.45,0,0,1-5.32-1.14,29.5,29.5,0,0,1-5.18-1.64,56.94,56.94,0,0,1,10.5,2.78Z" style="fill:#fff"></path><path d="M448.52,150.91a29.48,29.48,0,0,1-5.45-1.17,30.43,30.43,0,0,1-5.33-1.68,58.91,58.91,0,0,1,10.78,2.85Z" style="fill:#fff"></path><path d="M447.52,153.6a28.28,28.28,0,0,1-5.32-1.14,28.68,28.68,0,0,1-5.19-1.65,56.3,56.3,0,0,1,10.51,2.79Z" style="fill:#fff"></path><path d="M445.81,227.21a8.2,8.2,0,0,1-11.34,3.06S438.77,223.44,445.81,227.21Z" style="fill:#fff"></path><path d="M439,237.32a7.17,7.17,0,0,1-10.23-.9S434.33,232.1,439,237.32Z" style="fill:#fff"></path><path d="M430.87,244.15a7.66,7.66,0,0,1-10.25-3.89S427.61,237.45,430.87,244.15Z" style="fill:#fff"></path><path d="M429.88,224.85a7.17,7.17,0,0,1,.57,10.25S425.38,230.18,429.88,224.85Z" style="fill:#fff"></path><path d="M426.49,232.43s1.91,4.81-3.44,7.09C423.05,239.52,421.41,234.44,426.49,232.43Z" style="fill:#fff"></path><path d="M445.14,217.82a6.51,6.51,0,0,1-7.59,5.4S438.87,217,445.14,217.82Z" style="fill:#fff"></path><path d="M437.5,209.35s4.63,3.55.75,9.06C438.25,218.41,433.72,214.42,437.5,209.35Z" style="fill:#fff"></path><path d="M432.05,217.22a7.52,7.52,0,0,1,4.09,10S429.43,224.05,432.05,217.22Z" style="fill:#fff"></path><path d="M415.29,240.82h.37c.25,0,.61,0,1.07,0a20.44,20.44,0,0,0,3.85-.54,21.65,21.65,0,0,0,5.38-2.11,23.46,23.46,0,0,0,2.86-1.85l.71-.56.35-.28.34-.3.69-.62c.22-.22.43-.45.66-.67l.32-.34.31-.35c.2-.23.41-.46.61-.7l.56-.72.27-.35.25-.37.5-.73.45-.73.22-.37c.08-.12.14-.24.21-.37l.38-.73a23.71,23.71,0,0,0,2-5.42,24.11,24.11,0,0,0,.57-3.85c0-.46,0-.82,0-1.06v-.28a.62.62,0,0,0,0-.09v.37c0,.24,0,.6,0,1.06a25,25,0,0,1-.55,3.87,24.1,24.1,0,0,1-2,5.44l-.39.73-.2.37c-.07.12-.15.24-.22.37l-.45.74-.5.73-.25.36c-.09.13-.19.24-.28.36l-.56.73-.61.7-.31.35-.33.34-.66.66-.68.63-.35.3-.35.28-.71.56a23.76,23.76,0,0,1-2.88,1.86,21.73,21.73,0,0,1-5.39,2.09,19.59,19.59,0,0,1-3.87.52c-.46,0-.82,0-1.07,0h-.37Z" style="fill:#fff"></path><path d="M350.94,202.06a8.2,8.2,0,0,0,8.33,8.28S358.91,202.27,350.94,202.06Z" style="fill:#fff"></path><path d="M351.87,214.23a7.17,7.17,0,0,0,9.33,4.29S358.48,212,351.87,214.23Z" style="fill:#fff"></path><path d="M355.52,224.18a7.66,7.66,0,0,0,10.83,1.7S361.67,220,355.52,224.18Z" style="fill:#fff"></path><path d="M365.94,207.9a7.18,7.18,0,0,0-5.58,8.63S367.2,214.76,365.94,207.9Z" style="fill:#fff"></path><path d="M365.13,216.17s-4,3.23-.52,7.86C364.61,224,368.55,220.43,365.13,216.17Z" style="fill:#fff"></path><path d="M356.16,194.24a6.5,6.5,0,0,0,3.93,8.44S362,196.59,356.16,194.24Z" style="fill:#fff"></path><path d="M367,190.66s-5.79.79-5.14,7.5C361.86,198.16,367.77,196.94,367,190.66Z" style="fill:#fff"></path><path d="M367.83,200.2a7.52,7.52,0,0,0-8.48,6.63S366.72,207.43,367.83,200.2Z" style="fill:#fff"></path><path d="M370.7,229l-.08-.05-.24-.14c-.21-.12-.53-.29-.91-.54a19.27,19.27,0,0,1-3.09-2.38,21.68,21.68,0,0,1-3.62-4.49,25.33,25.33,0,0,1-1.58-3l-.33-.83-.17-.42c-.05-.14-.09-.29-.14-.43s-.19-.59-.29-.88l-.24-.91-.12-.45-.09-.46c-.07-.3-.13-.61-.19-.91l-.12-.9c0-.15-.05-.3-.07-.44l0-.45c0-.29-.05-.59-.08-.88s0-.57,0-.86,0-.28,0-.42,0-.29,0-.43,0-.55,0-.82a23.92,23.92,0,0,1,1-5.7,23.44,23.44,0,0,1,1.41-3.63l.49-.94.13-.25,0-.08,0,.08-.13.24c-.12.22-.3.53-.51.94a24.24,24.24,0,0,0-1.44,3.63,23.89,23.89,0,0,0-1,5.7c0,.28,0,.55,0,.83a3.05,3.05,0,0,0,0,.43c0,.14,0,.28,0,.42s0,.58,0,.87,0,.58.08.88l0,.45c0,.14.05.29.07.44l.12.91c.06.3.13.6.19.91l.09.46.12.45.24.91c.1.3.19.59.29.88s.09.29.15.44.11.28.17.42l.33.83a24.12,24.12,0,0,0,1.59,3,21.4,21.4,0,0,0,3.64,4.49,19.09,19.09,0,0,0,3.11,2.37c.39.25.71.41.92.53l.25.13Z" style="fill:#fff"></path></g></g><g id="freepik--Device--inject-496"><path d="M309.11,377.21l-118.3-.07a25.76,25.76,0,0,1-25.76-25.77l.06-296.58A25.77,25.77,0,0,1,190.89,29l118.31.07A25.78,25.78,0,0,1,335,54.87l-.06,296.58A25.76,25.76,0,0,1,309.11,377.21Z" style="fill:#263238"></path><path d="M309.07,39.58H286.13a5.7,5.7,0,0,0-5.57,5.82v4.16A5.7,5.7,0,0,1,275,55.37l-44.71,0a5.71,5.71,0,0,1-5.57-5.83V45.35a5.71,5.71,0,0,0-5.57-5.82H191A18,18,0,0,0,173,57.56L172.89,347a18.05,18.05,0,0,0,18,18.06l118.06.06a18,18,0,0,0,18.06-18l.06-289.49A18.06,18.06,0,0,0,309.07,39.58Z" style="fill:#fff"></path><path d="M327.11,57.63a18.06,18.06,0,0,0-18-18.05H286.13a5.7,5.7,0,0,0-5.57,5.82v4.16A5.7,5.7,0,0,1,275,55.37l-44.71,0a5.71,5.71,0,0,1-5.57-5.83V45.35a5.71,5.71,0,0,0-5.57-5.82H191A18,18,0,0,0,173,57.56l-.06,27.68H327.1Z" style="fill:#f5f5f5"></path><path d="M314.56,67.8a59.89,59.89,0,0,1-6.17.21c-3.41,0-6.18,0-6.18-.1a59.89,59.89,0,0,1,6.17-.21C311.79,67.67,314.56,67.72,314.56,67.8Z" style="fill:#263238"></path><path d="M314.58,71a59.7,59.7,0,0,1-6.17.21c-3.41,0-6.17,0-6.17-.1a59.89,59.89,0,0,1,6.17-.21C311.82,70.83,314.58,70.88,314.58,71Z" style="fill:#263238"></path><path d="M314.61,74.12a59.89,59.89,0,0,1-6.17.21,58.61,58.61,0,0,1-6.18-.11c0-.08,2.77-.18,6.18-.2S314.61,74,314.61,74.12Z" style="fill:#263238"></path></g><g id="freepik--Checkmark--inject-496"><path d="M269.43,331.89a30,30,0,0,0-.68-4.49,17.84,17.84,0,0,0-2.06-4.88,18.31,18.31,0,0,0-22-7.77,17,17,0,0,0-4.62,2.49A20.08,20.08,0,0,0,238,319a21.34,21.34,0,0,0-1.78,2.11,18.16,18.16,0,0,0,0,21.57,21.34,21.34,0,0,0,1.78,2.11,20.08,20.08,0,0,0,2.07,1.76,17,17,0,0,0,4.62,2.49,18.37,18.37,0,0,0,22-7.77,17.84,17.84,0,0,0,2.06-4.88,30,30,0,0,0,.68-4.5,1.43,1.43,0,0,1,0,.3c0,.23,0,.52,0,.89a9,9,0,0,1-.12,1.43,14.28,14.28,0,0,1-.35,1.93,17.59,17.59,0,0,1-2,5,18.71,18.71,0,0,1-12.56,8.87,18.68,18.68,0,0,1-9.83-.79A17.32,17.32,0,0,1,239.8,347a17,17,0,0,1-4-4,18.62,18.62,0,0,1,0-22.17,21.29,21.29,0,0,1,1.84-2.17,20.09,20.09,0,0,1,2.13-1.8,17.32,17.32,0,0,1,4.75-2.54,18.68,18.68,0,0,1,9.83-.79,18.74,18.74,0,0,1,12.56,8.86,17.64,17.64,0,0,1,2,5,14.28,14.28,0,0,1,.35,1.93,9,9,0,0,1,.12,1.43c0,.37,0,.66,0,.88A1.36,1.36,0,0,1,269.43,331.89Z" style="fill:#417CFE"></path><polygon points="250.24 339.58 241.32 331.91 244 328.8 249.98 333.94 259.38 324.21 262.33 327.06 250.24 339.58" style="fill:#417CFE"></polygon></g><g id="freepik--Button--inject-496"><path d="M299.86,305H202a15.88,15.88,0,0,1-15.88-15.87h0A15.88,15.88,0,0,1,202,273.21h97.86a15.87,15.87,0,0,1,15.87,15.88h0A15.87,15.87,0,0,1,299.86,305Z" style="fill:#417CFE"></path><path d="M225.71,284.74h1.54v7.46h-1.54Z" style="fill:#fff"></path><path d="M234.91,292.2v-4.48l-2,3.69h-.7l-2-3.59v4.38h-1.44v-7.46h1.27l2.5,4.63,2.46-4.63h1.27l0,7.46Z" style="fill:#fff"></path><path d="M244,292.2v-4.48l-2,3.69h-.7l-2-3.59v4.38h-1.45v-7.46h1.28l2.49,4.63,2.47-4.63h1.26l0,7.46Z" style="fill:#fff"></path><path d="M247,288.92v-4.18h1.55v4.11c0,1.42.55,2,1.49,2s1.48-.58,1.48-2v-4.11H253v4.18c0,2.19-1.13,3.4-3,3.4S247,291.11,247,288.92Z" style="fill:#fff"></path><path d="M260.67,284.74v7.46h-1.26l-3.33-4.53v4.53h-1.53v-7.46h1.28l3.32,4.53v-4.53Z" style="fill:#fff"></path><path d="M262.25,284.74h1.55v7.46h-1.55Z" style="fill:#fff"></path><path d="M266.76,286.15h-2.13v-1.41h5.81v1.41h-2.13v6.05h-1.55Z" style="fill:#fff"></path><path d="M274.35,289.56v2.64h-1.54v-2.67l-2.59-4.79h1.64l1.79,3.31,1.78-3.31h1.51Z" style="fill:#fff"></path></g><g id="freepik--Code--inject-496"><polygon points="198.65 212.44 198.65 218.04 204.24 218.04 204.24 212.44 204.24 206.84 198.65 206.84 198.65 212.44" style="fill:#263238"></polygon><rect x="198.64" y="178.86" width="5.6" height="5.6" style="fill:#263238"></rect><rect x="233.23" y="240.48" width="5.6" height="5.6" style="fill:#263238"></rect><polygon points="204.24 190.05 204.24 195.65 198.65 195.65 198.65 201.25 204.24 201.25 204.24 206.84 209.84 206.84 215.44 206.84 215.44 212.44 221.03 212.44 221.03 206.84 226.63 206.84 226.63 201.25 226.63 195.65 221.03 195.65 221.03 201.25 215.44 201.25 209.84 201.25 209.84 195.65 209.84 190.05 209.84 184.45 204.24 184.45 204.24 190.05" style="fill:#263238"></polygon><polygon points="215.44 178.86 209.84 178.86 209.84 184.45 215.44 184.45 221.03 184.45 221.03 178.86 215.44 178.86" style="fill:#263238"></polygon><polygon points="240.62 223.85 243.63 223.85 243.63 218.25 240.62 218.25 237.62 218.25 237.62 223.85 240.62 223.85" style="fill:#263238"></polygon><rect x="221.03" y="184.45" width="5.6" height="5.6" style="fill:#263238"></rect><rect x="260.21" y="206.84" width="5.6" height="5.6" style="fill:#263238"></rect><rect x="265.81" y="145.27" width="5.6" height="5.6" style="fill:#263238"></rect><polygon points="237.82 190.05 237.82 184.45 243.42 184.45 243.42 178.86 237.82 178.86 237.82 173.26 232.23 173.26 232.23 178.86 226.63 178.86 226.63 184.45 232.23 184.45 232.23 190.05 232.23 195.65 232.23 201.25 232.23 206.84 237.82 206.84 237.82 201.25 237.82 195.65 243.42 195.65 243.42 190.05 237.82 190.05" style="fill:#263238"></polygon><polygon points="265.81 246.02 271.41 246.02 271.41 240.43 265.81 240.43 260.21 240.43 260.21 246.02 265.81 246.02" style="fill:#263238"></polygon><rect x="254.62" y="145.27" width="5.6" height="5.6" style="fill:#263238"></rect><polygon points="258.81 190.05 258.81 184.45 253.22 184.45 253.22 178.86 247.62 178.86 247.62 184.45 247.62 190.05 242.02 190.05 242.02 195.65 247.62 195.65 253.22 195.65 253.22 190.05 258.81 190.05" style="fill:#263238"></polygon><rect x="284.81" y="178.86" width="5.6" height="5.6" style="fill:#263238"></rect><rect x="226.79" y="206.84" width="5.6" height="5.6" style="fill:#263238"></rect><polygon points="254.62 173.26 254.62 167.66 260.21 167.66 260.21 162.06 265.81 162.06 271.41 162.06 271.41 156.47 265.81 156.47 265.81 150.87 260.21 150.87 260.21 156.47 254.62 156.47 254.62 162.06 249.02 162.06 249.02 167.66 243.42 167.66 243.42 173.26 249.02 173.26 254.62 173.26" style="fill:#263238"></polygon><polygon points="254.62 212.44 254.62 206.84 260.21 206.84 260.21 201.25 254.62 201.25 249.02 201.25 249.02 206.84 243.42 206.84 243.42 212.44 249.02 212.44 254.62 212.44" style="fill:#263238"></polygon><polygon points="271.41 234.83 271.41 229.23 265.81 229.23 260.21 229.23 260.21 223.63 254.62 223.63 254.62 229.23 249.02 229.23 249.02 234.83 243.42 234.83 237.82 234.83 237.82 240.42 243.42 240.42 249.02 240.42 254.62 240.42 254.62 234.83 260.21 234.83 260.21 240.42 265.81 240.42 265.81 234.83 271.41 234.83" style="fill:#263238"></polygon><polygon points="249.02 150.87 249.02 145.27 243.42 145.27 237.82 145.27 237.82 150.87 232.23 150.87 232.23 156.47 237.82 156.47 243.42 156.47 243.42 150.87 249.02 150.87" style="fill:#263238"></polygon><rect x="243.42" y="156.47" width="5.6" height="5.6" style="fill:#263238"></rect><polygon points="263.01 178.86 257.42 178.86 257.42 184.45 257.42 190.05 257.42 195.65 263.01 195.65 268.61 195.65 268.61 190.05 263.01 190.05 263.01 184.45 268.61 184.45 268.61 178.86 274.21 178.86 274.21 173.26 268.61 173.26 268.61 167.66 263.01 167.66 263.01 173.26 263.01 178.86" style="fill:#263238"></polygon><rect x="237.83" y="162.07" width="5.6" height="5.6" style="fill:#263238"></rect><polygon points="260.21 218.04 260.21 223.63 265.81 223.63 271.41 223.63 271.41 218.04 277.01 218.04 282.6 218.04 282.6 212.44 277.01 212.44 271.41 212.44 265.81 212.44 265.81 218.04 260.21 218.04" style="fill:#263238"></polygon><rect x="284.81" y="195.65" width="5.6" height="5.6" style="fill:#263238"></rect><rect x="265.81" y="201.25" width="5.6" height="5.6" style="fill:#263238"></rect><polygon points="285.4 184.45 279.81 184.45 274.21 184.45 274.21 190.05 279.81 190.05 279.81 195.65 285.4 195.65 285.4 190.05 285.4 184.45" style="fill:#263238"></polygon><rect x="277.01" y="201.25" width="5.6" height="5.6" style="fill:#263238"></rect><path d="M221,234.93h16.8v-22.5h-22.5V218h-5.49v5.59h5.49v5.6h-5.49v5.6h5.49v.1h.11v5.5h-5.6v11.19h5.6V246H221V234.93Zm12.49-18.19v14h-14v-14Z" style="fill:#263238"></path><polygon points="293.8 212.44 299.39 212.44 299.39 206.84 293.8 206.84 288.2 206.84 282.6 206.84 282.6 212.44 288.2 212.44 293.8 212.44" style="fill:#263238"></polygon><polygon points="293.8 190.05 299.39 190.05 299.39 184.45 299.39 178.86 293.8 178.86 293.8 184.45 293.8 190.05" style="fill:#263238"></polygon><polygon points="249.23 218.25 243.63 218.25 243.63 223.85 243.63 229.45 249.23 229.45 249.23 223.85 249.23 218.25" style="fill:#263238"></polygon><rect x="299.39" y="212.44" width="5.6" height="5.6" style="fill:#263238"></rect><polygon points="304.99 201.25 304.99 195.65 299.39 195.65 299.39 201.25 299.39 206.84 304.99 206.84 304.99 201.25" style="fill:#263238"></polygon><polygon points="204.24 240.43 198.65 240.43 198.65 246.02 198.65 251.62 204.24 251.62 204.24 246.02 204.24 240.43" style="fill:#263238"></polygon><path d="M305,173.26v-28H277v28Zm-23.79-4.2V149.47h19.59v19.59Z" style="fill:#263238"></path><rect x="285.4" y="153.67" width="11.19" height="11.19" style="fill:#263238"></rect><path d="M305,223.63H277v28h28ZM281.2,247.42V227.83h19.59v19.59Z" style="fill:#263238"></path><rect x="285.4" y="232.03" width="11.19" height="11.19" style="fill:#263238"></rect><path d="M198.57,145.27v28h28v-28Zm23.79,4.2v19.59H202.77V149.47Z" style="fill:#263238"></path><rect x="206.97" y="153.67" width="11.19" height="11.19" style="fill:#263238"></rect><path d="M190.59,164.78V144.91a7.31,7.31,0,0,1,1.58-5.07,6.89,6.89,0,0,1,5.45-2.26h20.9a.63.63,0,0,0,0-1.25H197.85a8.74,8.74,0,0,0-5,1.26,7.93,7.93,0,0,0-3.52,6.53c-.06,3.27,0,6.55,0,9.82v10.84a.63.63,0,0,0,1.25,0Z" style="fill:#417CFE"></path><path d="M216.69,261.07H196.81a7.37,7.37,0,0,1-5.07-1.57,6.9,6.9,0,0,1-2.26-5.45v-20.9a.63.63,0,0,0-1.25,0v20.67a8.81,8.81,0,0,0,1.26,5,7.88,7.88,0,0,0,6.53,3.52c3.27.06,6.55,0,9.82,0h10.85a.63.63,0,0,0,0-1.25Z" style="fill:#417CFE"></path><path d="M312.37,233v19.88a7.34,7.34,0,0,1-1.57,5.06,6.9,6.9,0,0,1-5.45,2.26h-20.9a.63.63,0,0,0,0,1.25h20.67a8.71,8.71,0,0,0,5-1.26,7.85,7.85,0,0,0,3.52-6.52c.06-3.28,0-6.55,0-9.82V233a.63.63,0,0,0-1.25,0Z" style="fill:#417CFE"></path><path d="M284.81,137.58h19.88a7.3,7.3,0,0,1,5.06,1.58,6.89,6.89,0,0,1,2.26,5.45v20.9a.63.63,0,0,0,1.25,0V144.84a8.74,8.74,0,0,0-1.26-5,7.89,7.89,0,0,0-6.53-3.52c-3.27-.06-6.54,0-9.81,0H284.81a.63.63,0,0,0,0,1.25Z" style="fill:#417CFE"></path></g><g id="freepik--Texts--inject-496"><path d="M210.63,100.07v6.69h-.7v-3.09h-4.18v3.09H205v-6.69h.71v3h4.18v-3Z" style="fill:#263238"></path><path d="M217.54,106.15v.61h-4.73v-6.69h4.58v.61h-3.87v2.38H217v.6h-3.45v2.49Z" style="fill:#263238"></path><path d="M223.39,105h-3.72l-.81,1.79h-.73l3.06-6.69h.69l3.06,6.69h-.75Zm-.26-.57-1.6-3.59-1.61,3.59Z" style="fill:#263238"></path><path d="M226.05,100.07h.7v6.08h3.75v.61h-4.45Z" style="fill:#263238"></path><path d="M232.35,100.68H230v-.61h5.41v.61h-2.35v6.08h-.71Z" style="fill:#263238"></path><path d="M242.12,100.07v6.69h-.69v-3.09h-4.19v3.09h-.71v-6.69h.71v3h4.19v-3Z" style="fill:#263238"></path><path d="M252,102.36c0,1.43-1,2.29-2.73,2.29h-1.8v2.11h-.71v-6.69h2.51C251,100.07,252,100.93,252,102.36Zm-.71,0c0-1.07-.71-1.68-2-1.68h-1.78V104h1.78C250.62,104,251.33,103.41,251.33,102.36Z" style="fill:#263238"></path><path d="M257.43,105H253.7l-.8,1.79h-.74l3.06-6.69h.7l3.05,6.69h-.74Zm-.26-.57-1.61-3.59L254,104.4Z" style="fill:#263238"></path><path d="M259.44,106l.28-.55a3.24,3.24,0,0,0,2.2.81c1.25,0,1.8-.52,1.8-1.18,0-1.84-4.12-.71-4.12-3.18,0-1,.77-1.84,2.47-1.84a3.73,3.73,0,0,1,2.07.6l-.24.56a3.44,3.44,0,0,0-1.83-.55c-1.23,0-1.77.54-1.77,1.21,0,1.83,4.12.72,4.12,3.16,0,1-.79,1.82-2.5,1.82A3.65,3.65,0,0,1,259.44,106Z" style="fill:#263238"></path><path d="M265.31,106l.28-.55a3.28,3.28,0,0,0,2.21.81c1.25,0,1.79-.52,1.79-1.18,0-1.84-4.11-.71-4.11-3.18,0-1,.76-1.84,2.46-1.84a3.71,3.71,0,0,1,2.07.6l-.23.56a3.5,3.5,0,0,0-1.84-.55c-1.22,0-1.77.54-1.77,1.21,0,1.83,4.12.72,4.12,3.16,0,1-.78,1.82-2.49,1.82A3.66,3.66,0,0,1,265.31,106Z" style="fill:#263238"></path><path d="M277.06,102.36c0,1.43-1,2.29-2.73,2.29h-1.79v2.11h-.71v-6.69h2.5C276,100.07,277.06,100.93,277.06,102.36Zm-.7,0c0-1.07-.71-1.68-2.05-1.68h-1.77V104h1.77C275.65,104,276.36,103.41,276.36,102.36Z" style="fill:#263238"></path><path d="M278.09,103.41a3.51,3.51,0,1,1,3.52,3.4A3.37,3.37,0,0,1,278.09,103.41Zm6.32,0a2.81,2.81,0,1,0-2.8,2.77A2.72,2.72,0,0,0,284.41,103.41Z" style="fill:#263238"></path><path d="M291.27,106.76l-1.53-2.15a4.75,4.75,0,0,1-.54,0h-1.79v2.12h-.71v-6.69h2.5c1.7,0,2.73.86,2.73,2.29a2.07,2.07,0,0,1-1.52,2.1l1.63,2.3Zm0-4.4c0-1.07-.71-1.68-2.05-1.68h-1.77V104h1.77C290.52,104,291.23,103.41,291.23,102.36Z" style="fill:#263238"></path><path d="M294.81,100.68h-2.35v-.61h5.41v.61h-2.35v6.08h-.71Z" style="fill:#263238"></path><path d="M227.15,118.69a4,4,0,0,1,4-4.27,3.7,3.7,0,0,1,3.15,1.55L233,117.31a2.35,2.35,0,1,0,0,2.76l1.32,1.34a3.72,3.72,0,0,1-3.15,1.54A4,4,0,0,1,227.15,118.69Z" style="fill:#417CFE"></path><path d="M234.73,118.69a4.08,4.08,0,1,1,4.08,4.26A4.06,4.06,0,0,1,234.73,118.69Zm6.06,0a2,2,0,1,0-2,2.34A2.11,2.11,0,0,0,240.79,118.69Z" style="fill:#417CFE"></path><path d="M251.17,114.59l-3.14,8.2H246l-3.13-8.2h2.24l2,5.34,2-5.34Z" style="fill:#417CFE"></path><path d="M251.6,114.59h2.08v8.2H251.6Z" style="fill:#417CFE"></path><path d="M255.16,114.59h3.47a4.1,4.1,0,1,1,0,8.2h-3.47Zm3.38,6.35a2.26,2.26,0,0,0,0-4.5h-1.31v4.5Z" style="fill:#417CFE"></path><path d="M263.61,118.59h3.06v1.72h-3.06Z" style="fill:#417CFE"></path><path d="M270.43,114.59v8.2h-2.07v-6.41H267v-1.79Z" style="fill:#417CFE"></path><path d="M277.63,118.47c0,2.85-1.59,4.48-3.91,4.48a3.81,3.81,0,0,1-2.15-.59l.75-1.67a2.09,2.09,0,0,0,1.36.42c1,0,1.72-.65,1.84-1.89a2.32,2.32,0,0,1-1.65.59,2.48,2.48,0,0,1-2.52-2.59,2.73,2.73,0,0,1,2.87-2.8C276.29,114.42,277.63,115.81,277.63,118.47Zm-2.25-1.36a1,1,0,1,0-2,0,1,1,0,0,0,1,1A1,1,0,0,0,275.38,117.11Z" style="fill:#417CFE"></path></g><g id="freepik--Character--inject-496"><rect x="209.62" y="273.65" width="4" height="92.37" style="fill:#263238"></rect><rect x="176.4" y="276.99" width="4" height="92.37" style="fill:#263238"></rect><path d="M214.62,281.92h-6V273a.51.51,0,0,0-.48-.53H181.89a.51.51,0,0,0-.49.53v7.44h-6V273a6.52,6.52,0,0,1,6.49-6.53h26.25a6.51,6.51,0,0,1,6.48,6.53Z" style="fill:#455a64"></path><path d="M176.08,474.47a6.22,6.22,0,1,1-6.22-6.22A6.23,6.23,0,0,1,176.08,474.47Z" style="fill:#263238"></path><path d="M229.72,474.47a6.22,6.22,0,1,1-6.21-6.22A6.22,6.22,0,0,1,229.72,474.47Z" style="fill:#263238"></path><path d="M239,427.69h0V381.94h0a4.79,4.79,0,0,1,4.79,4.79V422.9A4.8,4.8,0,0,1,239,427.69Z" style="fill:#263238"></path><rect x="150.76" y="343.7" width="90.41" height="127.73" rx="13.97" style="fill:#455a64"></rect><path d="M241.09,359.7c0,.14-20.24.26-45.21.26s-45.23-.12-45.23-.26,20.25-.26,45.23-.26S241.09,359.56,241.09,359.7Z" style="fill:#263238"></path><path d="M241.09,373.19c0,.14-20.24.26-45.21.26s-45.23-.12-45.23-.26,20.25-.26,45.23-.26S241.09,373,241.09,373.19Z" style="fill:#263238"></path><path d="M241.09,386.68c0,.14-20.24.26-45.21.26s-45.23-.12-45.23-.26,20.25-.26,45.23-.26S241.09,386.53,241.09,386.68Z" style="fill:#263238"></path><path d="M241.09,400.17c0,.14-20.24.26-45.21.26s-45.23-.12-45.23-.26,20.25-.26,45.23-.26S241.09,400,241.09,400.17Z" style="fill:#263238"></path><path d="M241.09,413.66c0,.14-20.24.26-45.21.26s-45.23-.12-45.23-.26,20.25-.26,45.23-.26S241.09,413.51,241.09,413.66Z" style="fill:#263238"></path><path d="M241.09,427.15c0,.14-20.24.26-45.21.26s-45.23-.12-45.23-.26,20.25-.27,45.23-.27S241.09,427,241.09,427.15Z" style="fill:#263238"></path><path d="M241.09,440.63c0,.15-20.24.26-45.21.26s-45.23-.11-45.23-.26,20.25-.26,45.23-.26S241.09,440.49,241.09,440.63Z" style="fill:#263238"></path><path d="M241.09,454.12c0,.15-20.24.26-45.21.26s-45.23-.11-45.23-.26,20.25-.26,45.23-.26S241.09,454,241.09,454.12Z" style="fill:#263238"></path><rect x="185.86" y="379.09" width="20.21" height="3.66" style="fill:#fff"></rect><path d="M83.33,106.13a11.53,11.53,0,0,0-1.67,6.53c0,2.25,1.55,6.82,5.55,7-1.06,6.44,3.06,11.2,9.92,11.21s14.72-11.76,21.08-14.35l18.45-4.87c1.63-.38,2.29-2.35,2.26-4s-.46-3.39.13-5c.81-2.13,3.28-3.27,4.13-5.4,1-2.41-.53-5.08-2.24-7s-3.81-3.8-4.35-6.34c-.5-2.33.39-5-.77-7-1.43-2.56-5.19-2.89-6.93-5.25C128,70.52,127.78,69,127,67.88c-1.43-2-4.16-2.47-6.57-2.21s-4.73,1.13-7.14,1.31c-3.32.24-6.74-.83-9.92.13-3.51,1.06-5.65,4.17-7.93,7.19l-3,3.49a13.87,13.87,0,0,1-2,1.62,23.16,23.16,0,0,0-3.76,2.41,5.87,5.87,0,0,0,.41,8.45,6.28,6.28,0,0,0-4.21,6.17s-.33,3.06,1.61,4.42A4.22,4.22,0,0,0,83.33,106.13Z" style="fill:#263238"></path><path d="M95.7,112.37A85.08,85.08,0,0,1,92,98.1a29.86,29.86,0,0,1,1.17-14.57c.26-.7,2.48-5.39,3.22-5.32.53.05-.84,4.43-.57,4.89,2.56,4.4,3.26,9.69,2.85,14.77a66.54,66.54,0,0,1-3,14.5" style="fill:#263238"></path><path d="M107.86,155.32C97,154,95.71,136.45,95.71,136.45l-.5-42.86c-.4-12.34,6.45-22.86,18.8-22.92l1.14.06A22.09,22.09,0,0,1,136,92.18c.28,10.7.46,22.52.09,28.23-.78,11.82-12.71,13-12.71,13a39.32,39.32,0,0,0-.11,6.22c.68,12.57-12.4,15.93-15.45,15.66Z" style="fill:#ffbe9d"></path><path d="M123.42,133.44a28.57,28.57,0,0,1-15.16-5.38s3.29,8.8,15.15,8.37Z" style="fill:#eb996e"></path><path d="M132.92,101.88a1.7,1.7,0,0,1-1.72,1.62,1.62,1.62,0,0,1-1.66-1.62,1.7,1.7,0,0,1,1.72-1.62A1.62,1.62,0,0,1,132.92,101.88Z" style="fill:#263238"></path><path d="M133.24,97c-.22.21-1.45-.8-3.27-.9s-3.19.75-3.38.51.14-.49.75-.88a4.64,4.64,0,0,1,5.31.31C133.18,96.45,133.35,96.86,133.24,97Z" style="fill:#263238"></path><path d="M115.83,101.88a1.7,1.7,0,0,1-1.72,1.62,1.62,1.62,0,0,1-1.66-1.62,1.7,1.7,0,0,1,1.72-1.62A1.62,1.62,0,0,1,115.83,101.88Z" style="fill:#263238"></path><path d="M115.4,96.73c-.23.21-1.46-.8-3.27-.9s-3.2.75-3.39.52.14-.49.75-.89a4.67,4.67,0,0,1,2.72-.68,4.49,4.49,0,0,1,2.59,1C115.33,96.23,115.5,96.64,115.4,96.73Z" style="fill:#263238"></path><path d="M121.17,111.05a12.13,12.13,0,0,1,3-.37c.47,0,.91-.09,1-.41a2.39,2.39,0,0,0-.24-1.39c-.38-1.15-.77-2.35-1.18-3.61-1.64-5.13-2.8-9.35-2.59-9.41s1.7,4,3.34,9.18c.39,1.27.77,2.47,1.12,3.63a2.69,2.69,0,0,1,.15,1.83,1.18,1.18,0,0,1-.8.64,3,3,0,0,1-.8.07A11.33,11.33,0,0,1,121.17,111.05Z" style="fill:#263238"></path><path d="M115.75,112c.3,0,.2,2,1.81,3.47s3.73,1.38,3.73,1.66c0,.12-.49.36-1.38.33a4.9,4.9,0,0,1-3.12-1.27,4.31,4.31,0,0,1-1.39-2.9C115.37,112.48,115.62,112,115.75,112Z" style="fill:#263238"></path><path d="M115.69,89.35c-.2.48-2,.15-4.15.3s-3.91.63-4.17.17c-.11-.22.21-.67.94-1.11a6.83,6.83,0,0,1,3.12-.91,6.91,6.91,0,0,1,3.21.55C115.41,88.71,115.78,89.12,115.69,89.35Z" style="fill:#263238"></path><path d="M132.82,90.87c-.35.39-1.58-.1-3.08-.2s-2.8.13-3.07-.32c-.11-.22.11-.62.69-1a4.47,4.47,0,0,1,5,.42C132.82,90.24,133,90.67,132.82,90.87Z" style="fill:#263238"></path><path d="M95.71,102.4c-.2-.09-8-2.84-8.18,5.26s8,6.61,8,6.38S95.71,102.4,95.71,102.4Z" style="fill:#ffbe9d"></path><path d="M93.14,110.92s-.14.09-.38.2a1.47,1.47,0,0,1-1.06,0c-.85-.34-1.54-1.71-1.55-3.17a4.75,4.75,0,0,1,.44-2,1.64,1.64,0,0,1,1.09-1.07.71.71,0,0,1,.82.41c.1.23,0,.39.09.4s.18-.13.12-.46a.88.88,0,0,0-.31-.52,1,1,0,0,0-.77-.22,2,2,0,0,0-1.5,1.22,4.71,4.71,0,0,0-.54,2.25c0,1.63.82,3.18,2,3.54a1.55,1.55,0,0,0,1.3-.18C93.12,111.11,93.17,110.93,93.14,110.92Z" style="fill:#eb996e"></path><path d="M131,78.69c1.33-.71-2.56-5-5.76-6.51-4.84-2.27-12.26-3.73-16.77-2.51-5.43,1.46-10,4.09-12.73,9a31.93,31.93,0,0,0-3.79,16.23,9.68,9.68,0,0,0,1.08,5c1.11,1.81,3.27,3,3.14,5.43a3.39,3.39,0,0,0,.81,2.49c1.46,1.59,3.3.14,4.15-1.34,1.82-3.15,2.07-6.94,2.27-10.57a23.71,23.71,0,0,0-.41-7.71c-.38-1.36-1-2.64-1.31-4a4.88,4.88,0,0,1,.63-4,4.68,4.68,0,0,1,.67-.65,8.41,8.41,0,0,1,8.4-1.49c4.54,1.67,12.3,4.18,14.36,2.66,3-2.19,3.68-3.63,3.68-3.63Z" style="fill:#263238"></path><path d="M108.87,68.57a17.79,17.79,0,0,1,13.68.93,9.24,9.24,0,0,1,4.81,5.44c.65,2.41-.41,5.35-2.73,6.26l-.16.1c-3.48,1.12-5.72.62-9.15-.61-2.89-1-5.44-2.87-8.34-3.89a16.39,16.39,0,0,0-9.63-.41A26.91,26.91,0,0,1,108.87,68.57Z" style="fill:#263238"></path><path d="M93.46,76.58c.07.07.72-.71,2-1.62A11.71,11.71,0,0,1,98,73.64a7.53,7.53,0,0,1,3.29-.55,11,11,0,0,1,5.65,2.33c1.25,1,1.83,1.83,1.91,1.77s-.09-.25-.35-.62a8.6,8.6,0,0,0-1.31-1.44,10.48,10.48,0,0,0-5.86-2.58,7.69,7.69,0,0,0-3.52.63,10.57,10.57,0,0,0-2.5,1.47A6,6,0,0,0,93.46,76.58Z" style="fill:#455a64"></path><path d="M118.15,67.83a21.28,21.28,0,0,0,2.14.81,17.68,17.68,0,0,1,8.32,6.85c.76,1.18,1.12,2,1.2,2a6.27,6.27,0,0,0-.87-2.15,15.44,15.44,0,0,0-8.52-7A6.55,6.55,0,0,0,118.15,67.83Z" style="fill:#455a64"></path><path d="M89.28,438.23,69.68,454s10.81,24,7.47,27.27l-33.3-35.69,29.53-25.82Z" style="fill:#417CFE"></path><g style="opacity:0.6000000000000001"><path d="M61.41,441.2a2,2,0,0,0-2.63.45,1.91,1.91,0,0,0,.42,2.6,2.11,2.11,0,0,0,2.78-.48,2,2,0,0,0-.74-2.66" style="fill:#fff"></path></g><g style="opacity:0.6000000000000001"><path d="M43.85,445.58l3-2.61,31,35.59a3.38,3.38,0,0,1-.72,3.13Z" style="fill:#fff"></path></g><path d="M70.39,454.44c-.19.15-1-.68-2.4-1.07s-2.51-.2-2.58-.43,1.2-.86,2.82-.36S70.59,454.33,70.39,454.44Z" style="fill:#263238"></path><path d="M72.14,459.69c-.14.19-1.13-.32-2.42-.27s-2.25.57-2.4.38.78-1.18,2.38-1.21S72.3,459.54,72.14,459.69Z" style="fill:#263238"></path><path d="M69.4,465.9c-.18-.13.51-1.16,1.9-1.55s2.5.11,2.42.32-1.06.14-2.2.48S69.58,466.06,69.4,465.9Z" style="fill:#263238"></path><path d="M74.45,450.35c-.22.06-.69-1-1.64-1.94s-2-1.47-1.89-1.7,1.38,0,2.48,1.12S74.67,450.31,74.45,450.35Z" style="fill:#263238"></path><g style="opacity:0.30000000000000004"><polygon points="85.4 441.35 81.91 444.17 65.17 426.95 69.41 423.22 85.4 441.35"></polygon></g><path d="M78.35,447.09c-.07.07-.8-.55-1.59-1.85a11.51,11.51,0,0,1-1.08-2.45,10.63,10.63,0,0,1-.35-1.55,2.75,2.75,0,0,1,0-.93,1,1,0,0,1,.89-.92,1.31,1.31,0,0,1,1.09.44,2.87,2.87,0,0,1,.5.77,8,8,0,0,1,.6,1.49,8.75,8.75,0,0,1,.36,2.67,4,4,0,0,1-.56,2.39c-.13,0,.07-.93,0-2.37a9.27,9.27,0,0,0-1.08-3.8c-.24-.48-.52-.81-.79-.76-.09,0-.12,0-.17.22a2.38,2.38,0,0,0,0,.68,12.57,12.57,0,0,0,.29,1.46,12.76,12.76,0,0,0,.86,2.38A16.62,16.62,0,0,1,78.35,447.09Z" style="fill:#263238"></path><path d="M77.89,447.08c-.08,0,.25-.95,1.36-2a8.17,8.17,0,0,1,2.24-1.5,8.07,8.07,0,0,1,1.53-.5,2,2,0,0,1,2,.37,1.13,1.13,0,0,1,.15,1.22,3.4,3.4,0,0,1-.51.78,5.65,5.65,0,0,1-1.25,1.07,5.57,5.57,0,0,1-2.59.87c-1.58.1-2.45-.46-2.4-.53a20.68,20.68,0,0,0,2.33-.05,5.67,5.67,0,0,0,2.24-.92,5.2,5.2,0,0,0,1-1c.34-.4.53-.82.36-.93a1.37,1.37,0,0,0-1.16-.12,7.58,7.58,0,0,0-1.4.4,8.82,8.82,0,0,0-2.15,1.24C78.51,446.38,78,447.16,77.89,447.08Z" style="fill:#263238"></path><path d="M88.1,441.44,90,466.53s-24.9,8.53-25,13.2l48.81-.12-1.36-39.2Z" style="fill:#417CFE"></path><g style="opacity:0.6000000000000001"><path d="M105,463.81a2,2,0,0,1,1.47,2.22,1.93,1.93,0,0,1-2.19,1.48,2.1,2.1,0,0,1-1.54-2.36,2,2,0,0,1,2.44-1.28" style="fill:#fff"></path></g><g style="opacity:0.6000000000000001"><path d="M113.81,479.61l-.14-3.95-47.13,1.75a3.37,3.37,0,0,0-1.79,2.67Z" style="fill:#fff"></path></g><path d="M89.2,466.31c0,.24,1.21.3,2.42,1s1.86,1.69,2.08,1.59-.2-1.46-1.67-2.31S89.14,466.09,89.2,466.31Z" style="fill:#263238"></path><path d="M84.17,468.63c0,.23,1,.6,1.85,1.57s1.13,2,1.36,2,.34-1.37-.74-2.56S84.17,468.4,84.17,468.63Z" style="fill:#263238"></path><path d="M81.51,474.87c.22,0,.5-1.16-.16-2.44s-1.8-1.76-1.89-1.56.62.88,1.15,1.94S81.27,474.85,81.51,474.87Z" style="fill:#263238"></path><path d="M89.4,460.55c.11.21,1.19-.16,2.54-.12s2.42.42,2.53.21-.93-1-2.52-1S89.28,460.36,89.4,460.55Z" style="fill:#263238"></path><g style="opacity:0.30000000000000004"><polygon points="89.2 455.81 89.53 460.28 113.13 459.87 112.96 455.09 89.2 455.81"></polygon></g><path d="M89.11,455.48a4.53,4.53,0,0,0,2.44-.11,10.86,10.86,0,0,0,2.53-.89,11.55,11.55,0,0,0,1.37-.8,3.09,3.09,0,0,0,.72-.6,1,1,0,0,0,0-1.27,1.31,1.31,0,0,0-1.06-.51,3.28,3.28,0,0,0-.91.17,8.35,8.35,0,0,0-1.5.58,8.64,8.64,0,0,0-2.19,1.57c-1.09,1.09-1.44,2-1.36,2s.63-.7,1.75-1.61a10,10,0,0,1,2.13-1.31,9.34,9.34,0,0,1,1.38-.49c.51-.16,1-.18,1.1.05,0,.08,0,.12,0,.27A2.17,2.17,0,0,1,95,453a11.81,11.81,0,0,1-1.26.79,13.25,13.25,0,0,1-2.33,1A17.14,17.14,0,0,0,89.11,455.48Z" style="fill:#263238"></path><path d="M89.44,455.81a4,4,0,0,0,.55-2.39,8.06,8.06,0,0,0-.44-2.66,9.07,9.07,0,0,0-.68-1.46,2,2,0,0,0-1.61-1.17,1.15,1.15,0,0,0-1,.72,3.52,3.52,0,0,0-.22.91,5.65,5.65,0,0,0,.06,1.65,5.72,5.72,0,0,0,1.15,2.48c1,1.22,2,1.47,2,1.39s-.77-.55-1.55-1.74a5.65,5.65,0,0,1-.86-2.26,4.82,4.82,0,0,1,0-1.42c0-.52.23-.94.43-.9s.67.36.88.77a7.58,7.58,0,0,1,.66,1.3,8.74,8.74,0,0,1,.57,2.42C89.52,454.87,89.3,455.78,89.44,455.81Z" style="fill:#263238"></path><path d="M69.94,260.84s5.29,75.12,7.35,92.35c1.31,10.95,7.63,103,7.63,103l31.85-1-5.13-145.83V264.67Z" style="fill:#263238"></path><path d="M65.67,421.6,86.75,443s63.83-62.2,66.42-66.86,1.82-62.2,1.82-62.2l-1.86-51.56-45.58,2.32,4.5,51.29,6.07,47.19Z" style="fill:#263238"></path><path d="M123.58,406.74l-.65.68-2,2-7.43,7.4L86.9,443.13l-.16.16-.15-.16-21.1-21.35-.17-.17.16-.18,17-19L118,363l0,.18c-1.91-16.1-3.5-29.53-4.61-39-.54-4.7-1-8.39-1.26-10.93-.13-1.25-.24-2.21-.31-2.89,0-.31,0-.55-.07-.74a.69.69,0,0,1,0-.25,2.24,2.24,0,0,1,0,.25l.11.74c.09.67.22,1.63.38,2.87.32,2.54.79,6.23,1.38,10.91l4.79,38.94,0,.1-.07.08L82.88,402.81l-17,19v-.34c7.56,7.67,14.66,14.9,21.05,21.39h-.31l26.78-26.22,7.52-7.31,2-1.92C123.33,406.94,123.58,406.74,123.58,406.74Z" style="fill:#455a64"></path><path d="M128.11,367.64a24.17,24.17,0,0,1-4.65-2,24.65,24.65,0,0,1-4.41-2.47,25,25,0,0,1,4.64,2A25.05,25.05,0,0,1,128.11,367.64Z" style="fill:#455a64"></path><path d="M115.53,306.9a12,12,0,0,1-1.92.19l-5.13.27h-.22v-.23c0-2.65,0-5.89-.09-9.39-.08-4.54-.26-8.64-.39-11.62l-.15-3.52a5.76,5.76,0,0,1,0-1.3,7.12,7.12,0,0,1,.19,1.29c.09.82.21,2,.32,3.51.23,3,.46,7.09.55,11.63.07,3.51,0,6.75,0,9.41l-.22-.22,5.14-.09A10.91,10.91,0,0,1,115.53,306.9Z" style="fill:#455a64"></path><path d="M113.31,283s.17-.09.5-.05a2.2,2.2,0,0,1,1.25.63,2.43,2.43,0,0,1,.75,1.95,2.45,2.45,0,0,1-4.16,1.3,2.46,2.46,0,0,1-.49-2,2.18,2.18,0,0,1,.66-1.23c.25-.22.44-.26.45-.24a2.87,2.87,0,0,0-.75,1.52,2.17,2.17,0,0,0,.49,1.66,2,2,0,0,0,3.33-1,2.16,2.16,0,0,0-.55-1.64A3,3,0,0,0,113.31,283Z" style="fill:#455a64"></path><path d="M95,137.35s8.28,9.05,30,1.83l13.71,20,14.09,114.15-46.19,7.45-36-5.71L82.09,159.23Z" style="fill:#e0e0e0"></path><path d="M97,138.54c1.76,3.86,6,12.94,6,12.94s-10.72,71.16-11.85,82.41c-1.24,12.39,6.43,56.27,6.43,56.27L60,284.28l10.58-116-5.13-22.39a119.58,119.58,0,0,1,18.26-5.69l7.89-1.12,2.18-3.61,1.45-2.18Z" style="fill:#417CFE"></path><g style="opacity:0.30000000000000004"><path d="M98.94,225.32c-4.6-.1-18,3.76-22.56,4.26-4.73.51-7.9,1.12-11.76,3.89L64,239.54c2.68,1.31,5.69,1.63,8.63,2.13a10.44,10.44,0,0,0,8.45-1.86c1.25-1.05,2.16-2.49,3.56-3.33s2.66-2,4.13-1.75C99.89,236.89,102.71,227.33,98.94,225.32Z"></path></g><path d="M92.46,139.82a4.52,4.52,0,0,1,.35,1c.19.68.45,1.66.76,2.88.62,2.44,1.45,5.82,2.32,9.56.32,1.36.63,2.68.91,3.91h-.48a15.27,15.27,0,0,1,1.44-3.75,7.93,7.93,0,0,1,1.92-2.55,1.86,1.86,0,0,1,1.19-.36,1.54,1.54,0,0,1,.86.33c.41.35.36.69.35.67s-.07-.28-.45-.53a1.48,1.48,0,0,0-1.77.15,8.13,8.13,0,0,0-1.72,2.49,15.85,15.85,0,0,0-1.34,3.66l-.24,1-.24-1c-.29-1.22-.61-2.54-.93-3.91-.88-3.73-1.65-7.12-2.18-9.58-.26-1.23-.47-2.23-.6-2.92A4.19,4.19,0,0,1,92.46,139.82Z" style="fill:#263238"></path><path d="M69.56,235.81l9.53,2.77a53.73,53.73,0,0,1,3.64,15.52c.56,8.3-3.08,68.47-3.08,68.47l-30.54-1.32-.93-2.79a11.11,11.11,0,0,1-.54-4.4c.76-9.88,2.12-44.2,9.54-64.17C60.72,240.37,69.56,235.81,69.56,235.81Z" style="fill:#455a64"></path><path d="M80.24,140.36s2.89,5.47,2.55,17.52-17.05,95.88-17.05,95.88l10.65.94s10.83-69.64,11.39-76.64,4.48-32.55,0-38.13C87.78,139.93,83.34,138,80.24,140.36Z" style="fill:#455a64"></path><path d="M61.88,242.12S50.67,256.07,47,282.4l4.94,1.07Z" style="fill:#455a64"></path><path d="M68.37,248.14a1.85,1.85,0,0,1-.05.52c-.06.39-.13.87-.22,1.45-.2,1.26-.49,3.07-.8,5.33-.66,4.5-1.26,10.78-2.55,17.63-.34,1.71-.67,3.37-1.07,5a11.79,11.79,0,0,1-1.94,4.39,4.89,4.89,0,0,1-3.85,2,21.57,21.57,0,0,1-3.73-.44c-2.26-.39-4-.92-5.28-1.14l-1.44-.28a1.65,1.65,0,0,1-.49-.13,1.78,1.78,0,0,1,.51,0l1.46.19c1.27.16,3.06.64,5.3,1a21.79,21.79,0,0,0,3.66.37,4.43,4.43,0,0,0,3.48-1.83,11.4,11.4,0,0,0,1.83-4.21c.38-1.58.72-3.25,1-4.95,1.28-6.82,2-13.09,2.69-17.59.36-2.25.71-4.06,1-5.31.13-.57.23-1,.32-1.43A1.89,1.89,0,0,1,68.37,248.14Z" style="fill:#263238"></path><path d="M79.31,239.14a11.22,11.22,0,0,1-.09,1.65c-.11,1.15-.26,2.65-.43,4.47-.1,1-.21,2-.32,3.08a29.2,29.2,0,0,1-.5,3.56,5.79,5.79,0,0,1-2.16,3.39,5.05,5.05,0,0,1-4.2.9,4.82,4.82,0,0,1-3.32-2.75,8.24,8.24,0,0,1-.36-4c.25-2.51.6-4.74,1-6.61s.71-3.36,1-4.39a10.61,10.61,0,0,1,.49-1.58,10.73,10.73,0,0,1-.29,1.63c-.21,1-.51,2.54-.81,4.4s-.62,4.1-.84,6.59a7.85,7.85,0,0,0,.35,3.75,4.33,4.33,0,0,0,3,2.44,4.53,4.53,0,0,0,3.78-.81,5.22,5.22,0,0,0,2-3.09A30.42,30.42,0,0,0,78,248.3c.14-1.1.26-2.13.38-3.08.24-1.81.44-3.31.6-4.45A9.36,9.36,0,0,1,79.31,239.14Z" style="fill:#263238"></path><path d="M79.73,322.64a11.46,11.46,0,0,1-1.13-1.1c-.7-.72-1.71-1.76-3-3s-2.85-2.72-4.64-4.28c-.9-.78-1.85-1.58-2.86-2.4A8.86,8.86,0,0,0,64.74,310a3.38,3.38,0,0,0-1.87.08,5.32,5.32,0,0,0-1.61,1l-2.82,2.43-4.81,4.12-3.28,2.73a11.15,11.15,0,0,1-1.24,1,8.12,8.12,0,0,1,1.11-1.11l3.16-2.86,4.74-4.2,2.82-2.47a6.07,6.07,0,0,1,1.76-1.06,3.83,3.83,0,0,1,2.15-.1,9.25,9.25,0,0,1,3.57,2c1,.82,2,1.64,2.85,2.43,1.79,1.59,3.33,3.09,4.59,4.38s2.23,2.38,2.89,3.15A8.33,8.33,0,0,1,79.73,322.64Z" style="fill:#263238"></path><path d="M71.12,256.66c.14,0-1.39,11.84-3.42,26.41s-3.79,26.35-3.93,26.33,1.38-11.84,3.41-26.41S71,256.64,71.12,256.66Z" style="fill:#263238"></path><path d="M75.71,250.92a5.85,5.85,0,0,1-.18-.66,2.83,2.83,0,0,0-1-1.4,2.6,2.6,0,0,0-2.43-.32,2.54,2.54,0,0,0,0,4.76,2.61,2.61,0,0,0,2.43-.33,2.78,2.78,0,0,0,1-1.4,5.24,5.24,0,0,1,.18-.65s.09.25,0,.7a2.82,2.82,0,0,1-1,1.65,3,3,0,0,1-2.81.48,3,3,0,0,1,0-5.66,2.91,2.91,0,0,1,2.81.48,2.76,2.76,0,0,1,1,1.65C75.8,250.67,75.74,250.92,75.71,250.92Z" style="fill:#263238"></path><path d="M207.27,253.69l15.51,11.92-1.46,12.19-.31,1.86-5.21,3.23h-9.06s-1.45-3.75,1.88-3.44c0,0-1.64-2.5,3-3.12s5.54-2.18,5.54-2.18l-.41-2.19-1.67-2.08-1.57-1.59-8.73-9.76Z" style="fill:#ffbe9d"></path><path d="M178.4,239.42c0,.11,18,18.61,18,18.61l10.89-4.34-13.08-26.91-10.91-3.88-4.88,8.69Z" style="fill:#ffbe9d"></path><path d="M195.86,257.23a46.66,46.66,0,0,0,5.37,7,33,33,0,0,0,6.45,4.37s3.64,9.58,6,9.16,3.23-1.67,1.87-4.27-4.47-12.18-4.47-12.18l-5.76-11.45Z" style="fill:#ffbe9d"></path><path d="M150.05,146.5s6.63,2,10.45,10.92,19.11,40.88,19.11,40.88l16.25,29.2s-7.33,0-12.74,4.14-4.78,9.56-4.78,9.56-4.72-1-5.39-3.82a12.67,12.67,0,0,1,0-5.42l-5.76-7.33-3.5-7-11-18.54-7.45-29.56Z" style="fill:#417CFE"></path><path d="M159.22,294.52s-5.91-61.06-5.63-61.79-.64-35.74,0-36.28-3.54-49.95-3.54-49.95l-21.77-6.72.29,0-5-5.27s-6.08,20.18-6,20.51c1.76,6.95,8.07,110.3,8.07,110.3,0,.74,2.48,29.16,2.48,29.16Z" style="fill:#417CFE"></path><path d="M152.62,199.64a4,4,0,0,1-.74.57l-2.19,1.55-.06,0-.06,0L138,196.17l-.12-.06V196c-.28-3.76-.6-8-.94-12.5-.3-4.22-.59-8.23-.84-11.82l0-.21.2,0a29.58,29.58,0,0,1,12.36.08,27.81,27.81,0,0,1,3.4,1,4.62,4.62,0,0,1,1.15.51s-.42-.13-1.2-.36a33.85,33.85,0,0,0-3.41-.84,30.36,30.36,0,0,0-12.19.1l.18-.25c.27,3.6.57,7.6.89,11.82.32,4.49.62,8.75.89,12.5l-.13-.19,11.46,5.79h-.13l2.26-1.44A4.74,4.74,0,0,1,152.62,199.64Z" style="fill:#263238"></path><path d="M153,164a7.75,7.75,0,0,1,.16,1.48c.07,1,.14,2.34.2,4,.12,3.42.15,8.15.12,13.37s0,9.95,0,13.37c0,1.63,0,3,0,4.05a7.9,7.9,0,0,1-.05,1.49,7.91,7.91,0,0,1-.16-1.48c-.07-1-.13-2.34-.19-4.05-.13-3.43-.16-8.16-.13-13.38s.06-9.94,0-13.36c0-1.64,0-3,0-4.05A8.66,8.66,0,0,1,153,164Z" style="fill:#263238"></path><path d="M186.92,218.47c0,.1-1.1.38-2.77,1.15a21,21,0,0,0-5.85,4.09,20.72,20.72,0,0,0-4.09,5.84c-.78,1.67-1.07,2.79-1.16,2.77a2.55,2.55,0,0,1,.13-.81,13.88,13.88,0,0,1,.69-2.11A18.7,18.7,0,0,1,184,219.29a13.83,13.83,0,0,1,2.1-.69A3,3,0,0,1,186.92,218.47Z" style="fill:#263238"></path><path d="M181.94,217.28a46.9,46.9,0,0,0-5.48,3.47,49.56,49.56,0,0,0-4.6,4.57,5.77,5.77,0,0,1,1-1.65,18.84,18.84,0,0,1,3.26-3.33,19.54,19.54,0,0,1,4-2.45A5.59,5.59,0,0,1,181.94,217.28Z" style="fill:#263238"></path><path d="M128.57,139.82a6.34,6.34,0,0,1-.07,1.36c-.07.87-.2,2.12-.38,3.67-.35,3.1-.89,7.38-1.63,12.08-.26,1.7-.54,3.33-.81,4.84l-.13.72-.34-.65a48.51,48.51,0,0,0-2.47-4.25c-.4-.62-.8-1.19-1.18-1.72a6.13,6.13,0,0,0-1.14-1.33,1.77,1.77,0,0,0-1.24-.47,1.53,1.53,0,0,0-.91.43,1.16,1.16,0,0,0-.31.79s-.23-.37.19-.91a1.67,1.67,0,0,1,1-.55,2,2,0,0,1,1.47.46,6.55,6.55,0,0,1,1.24,1.36c.4.52.82,1.09,1.24,1.71a42.2,42.2,0,0,1,2.55,4.25l-.46.07c.25-1.51.51-3.14.79-4.83.73-4.7,1.33-9,1.78-12,.22-1.46.4-2.69.54-3.65A6.51,6.51,0,0,1,128.57,139.82Z" style="fill:#263238"></path><g style="opacity:0.30000000000000004"><path d="M125.27,161.41l-1,4.4-3.13-8.76a6,6,0,0,0-.79-1.65,2,2,0,0,0-1.54-.87,1.34,1.34,0,0,1,2.24,0C122.26,155.89,125.27,161.41,125.27,161.41Z"></path></g><g style="opacity:0.30000000000000004"><path d="M153.43,200c2.73-9.77,2.16-22-.46-31.82Z"></path></g><path d="M153,177.36a13.81,13.81,0,0,1-2.38-.28c-1.46-.2-3.48-.44-5.72-.57s-4.28-.11-5.76-.07a13.2,13.2,0,0,1-2.39,0,9.09,9.09,0,0,1,2.37-.38,41.53,41.53,0,0,1,11.56.65A8.87,8.87,0,0,1,153,177.36Z" style="fill:#263238"></path><path d="M154,248.79a4.18,4.18,0,0,1-1-.46c-.62-.31-1.5-.81-2.57-1.44a94.29,94.29,0,0,1-15.63-11.58c-.92-.85-1.65-1.55-2.13-2.05s-.75-.78-.72-.81a4.3,4.3,0,0,1,.86.66L135,235c1.89,1.61,4.54,3.79,7.58,6.05s5.91,4.16,8,5.5l2.48,1.58A4.48,4.48,0,0,1,154,248.79Z" style="fill:#263238"></path><path d="M66.27,145.56s-4.68.86-9.12,10.19-15.86,40.32-16.6,42.39l23.34,15.52L77.06,174.6Z" style="fill:#417CFE"></path><path d="M78.45,229.72l.2-13.24-15.07-5.11L66.42,202,43.2,191S32.81,218.21,32.87,223.2c0,1.84,4.16,11.22,12.81,12.06,5.63.55,18.36,1.29,26.93,1.6A5.71,5.71,0,0,0,78.45,229.72Z" style="fill:#417CFE"></path><path d="M74.19,181.11c.14,0-1.9,6.93-4.55,15.38s-4.91,15.27-5,15.23,1.9-6.93,4.55-15.39S74.05,181.06,74.19,181.11Z" style="fill:#263238"></path><path d="M70.91,213.85a3.66,3.66,0,0,1-1-.22c-.62-.18-1.51-.45-2.62-.8s-2.37-.86-3.83-1.24a26.15,26.15,0,0,0-4.82-.89,21.78,21.78,0,0,0-8.79,1c-2.16.75-3.37,1.52-3.42,1.43a3.81,3.81,0,0,1,.82-.58,17.09,17.09,0,0,1,2.48-1.2,20.39,20.39,0,0,1,9-1.13,30.14,30.14,0,0,1,8.73,2.31c1.08.39,2,.71,2.56.95A3.77,3.77,0,0,1,70.91,213.85Z" style="fill:#263238"></path><path d="M56,203.13a4.93,4.93,0,0,1,1.78.54,12.92,12.92,0,0,1,3.69,2.57,12.7,12.7,0,0,1,2.55,3.7,4.47,4.47,0,0,1,.54,1.78,21,21,0,0,0-3.46-5.11A21.26,21.26,0,0,0,56,203.13Z" style="fill:#263238"></path><path d="M74,168.12c-.1,0,.08-1.25,0-3.26a23.8,23.8,0,0,0-5.41-14.4c-1.28-1.55-2.24-2.37-2.17-2.44s.27.16.71.52a14.92,14.92,0,0,1,1.74,1.68A21,21,0,0,1,71,153.08,24.63,24.63,0,0,1,73,157a23.12,23.12,0,0,1,1.12,4.25,19.64,19.64,0,0,1,.26,3.57,16.5,16.5,0,0,1-.19,2.41A3.28,3.28,0,0,1,74,168.12Z" style="fill:#263238"></path><g style="opacity:0.30000000000000004"><path d="M54.73,208.28a15.82,15.82,0,0,0-9.57,3.64,1.09,1.09,0,0,0-.48.73.79.79,0,0,0,.81.72,2.53,2.53,0,0,0,1.15-.38,22.86,22.86,0,0,1,17.54-1.38l.32-.29A15.79,15.79,0,0,0,54.73,208.28Z"></path></g><path d="M78.65,232.4s0,.12-.05.36a4.28,4.28,0,0,1-.29,1,5.43,5.43,0,0,1-5.17,3.33c-.94,0-1.94,0-3,0-2.11-.05-4.42-.14-6.84-.28-4.85-.27-9.22-.62-12.39-.91-1.58-.15-2.86-.28-3.75-.38a6.65,6.65,0,0,1-1.36-.22,7.26,7.26,0,0,1,1.38,0l3.76.21,12.39.76c2.42.14,4.72.24,6.82.32l3,.08a4.92,4.92,0,0,0,2.44-.47,5.24,5.24,0,0,0,2.56-2.51,6,6,0,0,0,.37-.94C78.58,232.51,78.63,232.39,78.65,232.4Z" style="fill:#263238"></path><path d="M81.79,231.62l13,.48c1.3.05,2.51-1.14,3.07-3l10.18-35.71c.65-2.46-.72-4.45-2.94-4.59l-17.2-1.08c-2.77,0-4.25,1.19-4.74,3.27l-6.7,28.26C75,225.25,77.72,231.47,81.79,231.62Z" style="fill:#263238"></path><path d="M70.65,214.77l3.46-7.33,5.69-1.9-1.74,7c2.23,1.08,5.58,1.64,7.51.57s9.48-8.57,10.9-7.85,2.7,2.44,1.4,4.09-8.38,6.76-6.92,8.27,9.62-5.11,12-4.62,3.86,1.89,2.52,2.91-4.62,4.31-5.2,5.75c.14,1.8,1,4.35.21,4.8a28.69,28.69,0,0,1-6,2.08,62.69,62.69,0,0,0-6.27,2.34,14,14,0,0,1-9.85.22l-1.63-.57a6.3,6.3,0,0,1-4.21-6l.06-5.4Z" style="fill:#ffbe9d"></path><path d="M79.39,213.08a11.22,11.22,0,0,0,.55-1.73l1.28-4.76c.54-2,1.16-4.43,1.84-7.07.34-1.34.69-2.74,1.06-4.18s.57-3.08,1.56-4.15,2.68-1.12,4.11-1.06l4.3.33,7.29.52,4.92.3a10.42,10.42,0,0,0,1.81,0,10.56,10.56,0,0,0-1.79-.26l-4.9-.49-7.29-.65-4.31-.36a9.77,9.77,0,0,0-2.34.1,4,4,0,0,0-2.23,1.13A5.23,5.23,0,0,0,84.12,193c-.21.76-.38,1.5-.56,2.22-.36,1.45-.7,2.86-1,4.2-.64,2.64-1.22,5.05-1.71,7.1s-.82,3.57-1.11,4.81A10.89,10.89,0,0,0,79.39,213.08Z" style="fill:#455a64"></path><path d="M95,195.81a1.28,1.28,0,1,0,1.27-1.28A1.28,1.28,0,0,0,95,195.81Z" style="fill:#fff"></path></g></svg>