<svg width="517" height="918" viewBox="0 0 517 918" fill="none" xmlns="http://www.w3.org/2000/svg">
<path fill-rule="evenodd" clip-rule="evenodd" d="M491.744 3.13378C453.983 -16.6791 299.026 86.3479 251.58 107.564C222.368 120.626 55.0137 223.455 50.3915 261.843C43.183 321.722 140.322 272.699 166.761 272.699C173.989 272.699 204.523 264.531 202.263 269.987C188.183 303.956 -42.0565 512.149 6.99196 555.423C38.3831 583.118 174.641 544.405 191.74 562.218C196.321 566.988 155.697 647.698 146.373 666.197C114.706 729.013 46.6711 907.352 53.8269 916.207C71.6677 938.286 494.582 594.544 479.072 535.721C464.377 479.991 338.993 504.971 291.031 479.991C270.49 469.293 547.719 255.207 513.358 193.157C503.993 176.245 380.157 230.355 352.182 244.837C350.761 245.572 332.274 255.539 331.136 252.315C326.406 238.912 388.861 178.531 426.66 134.375C460.995 94.268 513.358 14.4746 491.744 3.13378Z" fill="#E4F0FF"/>
</svg>
