<svg width="172" height="174" viewBox="0 0 172 174" fill="none" xmlns="http://www.w3.org/2000/svg">
<g clip-path="url(#clip0_3433_17325)">
<path d="M142.28 48.1026C139.938 49.5794 139.238 52.6747 140.715 55.0124C147.823 66.28 151.581 79.3037 151.581 92.6756C151.581 131.655 119.867 163.369 80.8873 163.369C41.9079 163.369 10.1903 131.659 10.1903 92.6795C10.1903 53.7 41.9041 21.9862 80.8835 21.9862C93.7504 21.9862 106.346 25.4755 117.311 32.0792C119.683 33.5063 122.763 32.7411 124.19 30.3728C125.617 28.0007 124.852 24.9208 122.484 23.4937C109.957 15.9526 95.5754 11.9659 80.8873 11.9659C36.3793 11.9659 0.169922 48.1714 0.169922 92.6795C0.169922 137.187 36.3793 173.397 80.8835 173.397C125.388 173.397 161.601 137.187 161.601 92.6795C161.601 77.4098 157.308 62.5381 149.189 49.6674C147.716 47.3259 144.621 46.6257 142.276 48.1026H142.28Z" fill="#BFDBFE"/>
<path d="M80.8836 46.9548C87.3304 46.9548 93.5515 48.2672 99.3671 50.8574C101.892 51.9822 104.857 50.8459 105.982 48.3169C107.107 45.7879 105.971 42.8266 103.442 41.7017C96.3331 38.5376 88.7422 36.9345 80.8836 36.9345C50.1454 36.9345 25.1348 61.9413 25.1348 92.6833C25.1348 123.425 50.1454 148.432 80.8836 148.432C111.622 148.432 136.632 123.425 136.632 92.6833C136.632 84.2202 134.781 76.0861 131.123 68.5106C129.922 66.016 126.922 64.9715 124.435 66.1729C121.941 67.3743 120.896 70.37 122.097 72.8646C125.093 79.0742 126.612 85.743 126.612 92.6872C126.612 117.901 106.101 138.412 80.8874 138.412C55.674 138.412 35.1627 117.901 35.1627 92.6872C35.1627 67.4737 55.674 46.9625 80.8874 46.9625L80.8836 46.9548Z" fill="#BFDBFE"/>
<path d="M153.095 19.4305V0.537659L131.624 20.2684V33.7857L99.0645 66.3336C93.9032 62.7639 87.64 60.6711 80.8871 60.6711C63.1994 60.6711 48.8672 75.0034 48.8672 92.6795C48.8672 110.356 63.1994 124.699 80.8871 124.699C98.5748 124.699 112.896 110.356 112.896 92.6795C112.896 85.3757 110.439 78.6496 106.319 73.2625L138.702 40.8791L152.219 40.9059L172 19.4726L153.095 19.4343V19.4305ZM97.9626 89.4848L80.1104 104.93C79.1692 105.745 78.0061 106.159 76.8392 106.159C75.5613 106.159 74.2949 105.669 73.3307 104.731L64.6878 96.2645C62.7097 94.3362 62.6714 91.153 64.6112 89.1749C66.5395 87.2083 69.7113 87.1701 71.6894 89.0984L77.0381 94.3362L91.3933 81.9093C93.4862 80.092 96.6541 80.3177 98.4714 82.4105C100.273 84.5034 100.052 87.6713 97.9588 89.4886L97.9626 89.4848Z" fill="#BFDBFE"/>
</g>
<defs>
<clipPath id="clip0_3433_17325">
<rect width="171.83" height="172.859" fill="white" transform="translate(0.169922 0.537598)"/>
</clipPath>
</defs>
</svg>
