<?xml version="1.0" encoding="utf-8"?>
<!-- Generator: Adobe Illustrator 28.3.0, SVG Export Plug-In . SVG Version: 6.00 Build 0)  -->
<svg version="1.1" id="Layer_1" xmlns="http://www.w3.org/2000/svg" xmlns:xlink="http://www.w3.org/1999/xlink" x="0px" y="0px"
	 viewBox="0 0 388.7 106.1" style="enable-background:new 0 0 388.7 106.1;" xml:space="preserve">
<style type="text/css">
	.st0{fill:#1C4392;}
	.st1{fill:#FFFFFF;}
	.st2{fill:#DA291C;}
	.st3{fill:#FAAF43;}
	.st4{fill:none;}
	.st5{fill:#90C349;}
	.st6{fill:#FAD8CD;}
</style>
<path class="st0" d="M111.1,97.5L97.9,63H86.1l1.7,1.3c0.7,0.4,1.1,1.1,1.2,1.9c-0.1,0.9-0.3,1.9-0.7,2.7L76.8,98
	c-1.2,3.1-2.4,4.8-3.8,5.9l-1.8,1.2h13.6l-1.3-1.2c-1.1-1-1.6-1.8-1.6-2.4c0-0.8,0.2-1.6,0.5-2.4l3.7-9.3h14.2l3.5,9.4
	c0.4,0.8,0.6,1.6,0.6,2.5c0,0.5-0.5,1-1.5,2.2l-1.1,1.2h15.2l-1.5-1.2C113.4,102.2,111.9,100,111.1,97.5z M88.3,84.3l5.2-13.1
	l4.8,13.1H88.3z"/>
<path class="st0" d="M145.6,80.4c3.3-2,5-4.6,5-7.8c0-6-5.4-9.7-14-9.7h-15.8l1.4,1.2c2,1.7,2.2,3.7,2.2,6.6v26.4
	c0,3-0.1,4.9-2.2,6.7l-1.4,1.2h14.9c11.4,0,18.4-5.2,18.4-13.5C154.2,86.3,151.3,82.5,145.6,80.4z M137,99.3c-1.1,0-2.6-0.1-4.6-0.4
	V84.9c1.5-0.2,3-0.4,4.5-0.4c5.6,0,9.5,3.2,9.5,7.8S142.8,99.3,137,99.3z M135,79.4c-0.9,0-1.7-0.1-2.6-0.2V68.6
	c1.2-0.2,2.4-0.4,3.6-0.4c4.2,0,6.6,2,6.6,5.4C142.5,77.3,139.8,79.4,135,79.4L135,79.4z"/>
<path class="st0" d="M176.7,99.1c-2.3-0.1-4.5-0.3-6.8-0.6V85.2h3c2.9,0,4.8,0.1,5.8,1.2l1.2,1.5v-8.6h-10V69.2
	c1.8-0.4,3.6-0.6,5.4-0.6c2.5-0.1,5,0.6,7,2.1l1.1,0.9V63h-24.9l1.4,1.2c2,1.7,2.2,3.7,2.2,6.6v26.4c0,3-0.1,4.9-2.2,6.7l-1.4,1.2
	h27.1l3.7-10.4l-1.7,1.1C184.4,98,180.6,99.2,176.7,99.1z"/>
<path class="st0" d="M224.5,98.1l-10-13.4c6-2.6,8.7-6.1,8.7-10.7c0-6.6-5.7-11-14.1-11h-16l1.4,1.2c2,1.7,2.2,3.7,2.2,6.6v26.4
	c0,3-0.1,4.9-2.2,6.7l-1.4,1.2h14.8l-1.4-1.2c-2-1.8-2.2-3.7-2.2-6.7V82.9l12.7,17.5c1.9,2.8,5.1,4.5,8.5,4.6l5.4-0.3l-1.2-1.1
	C227.8,101.9,226.1,100.1,224.5,98.1z M204.4,82.8V68.7c1.2-0.2,2.5-0.4,3.8-0.4c4.2,0,7.1,2.5,7.1,6.3c0,4-3,6.5-9.9,8L204.4,82.8z
	"/>
<path class="st0" d="M265.9,67.9c-5.1-4.1-10.4-4.9-16.8-4.9h-16l1.4,1.2c2,1.7,2.1,3.6,2.1,6.6v26.4c0,3-0.1,4.9-2.1,6.7l-1.4,1.2
	h14.1c10.1,0,16-2,20.6-7c3.7-4,5.7-9.3,5.5-14.7C273.4,77.3,270.7,71.6,265.9,67.9z M265.3,83.9c0,9-6.3,15.5-15,15.5
	c-2-0.1-4-0.2-5.9-0.6V69.3c1.8-0.5,3.6-0.7,5.5-0.7C259.2,68.6,265.3,74.6,265.3,83.9L265.3,83.9z"/>
<path class="st0" d="M295.4,99.1c-2.3-0.1-4.5-0.3-6.8-0.6V85.2h3c2.9,0,4.8,0.1,5.8,1.2l1.2,1.5v-8.6h-10V69.2
	c1.8-0.4,3.6-0.6,5.4-0.6c2.5-0.1,5,0.6,7,2.1l1.1,0.9V63h-24.9l1.4,1.2c2,1.7,2.2,3.7,2.2,6.6v26.4c0,3-0.1,4.9-2.2,6.7l-1.4,1.2
	h27.1l3.7-10.4l-1.7,1.1C303.1,98,299.3,99.2,295.4,99.1z"/>
<path class="st0" d="M330,99.1c-2.3-0.1-4.5-0.3-6.7-0.6V85.2h3c2.9,0,4.8,0.1,5.8,1.2l1.2,1.5v-8.6h-10V69.2
	c1.8-0.4,3.6-0.6,5.4-0.6c2.5-0.1,5,0.6,7,2.1l1.1,0.9V63h-24.9l1.4,1.2c2,1.7,2.2,3.7,2.2,6.6v26.4c0,3-0.2,4.9-2.2,6.7l-1.4,1.2
	h27.1l3.7-10.4l-1.7,1.1C337.7,98,333.8,99.2,330,99.1z"/>
<path class="st0" d="M375.7,63l1.4,1.2c2,1.7,2.2,3.7,2.2,6.6v21.4l-23-29.2h-10.5l1.4,1.2c2,1.7,2.2,3.7,2.2,6.6v26.4
	c0,3-0.1,4.9-2.2,6.7l-1.4,1.2h12.9l-1.4-1.2c-2-1.8-2.1-3.7-2.1-6.7V74.4L375,99.4c2.9,3.7,5.5,6.6,9.4,6.7h0.7V70.8
	c0-3,0.2-4.9,2.2-6.6l1.4-1.2L375.7,63z"/>
<path class="st0" d="M104.5,46.2c-1.9,2.5-5.5,3.6-8.5,3.6c-2.9,0.1-5.8-1-7.9-3c-2.3-2.5-2.2-5.4-2.2-8.6V26.5c0-2,0.3-5.1-1.9-5.9
	v-0.1h8.3v0.1c-2.2,0.8-1.9,4-1.9,5.9v11.6c0,5.8,2.4,8.5,6.9,8.5c2.5,0.1,4.8-1,6.4-3c1-1.3,0.9-2.4,0.9-4V26.5
	c0-2,0.3-5.1-1.9-5.9v-0.1h8.3v0.1c-2.2,0.8-2,4-2,6V43c0,2-0.3,5.1,2,6v0.1h-6.4L104.5,46.2z"/>
<path class="st0" d="M121,43.4c0,2.4,0,4.2,2.3,5.5v0.1h-7.7v-0.1c2.3-1.4,2.3-3.1,2.3-5.5V26.1c0-2.4,0-4.2-2.3-5.5v-0.1h6.4l0,0
	c0.1,0.4,0.4,0.8,0.6,1.1l0.6,0.9l15.9,20.1V26.1c0-2.4,0-4.2-2.3-5.5v-0.1h7.7v0.1c-2.3,1.3-2.3,3-2.3,5.5v24.4
	c-3.1-1-4.4-2.5-6.4-5l-14.9-18.9L121,43.4z"/>
<path class="st0" d="M150.6,26.6c0-2,0.3-5.2-1.9-6v-0.1h8.3v0.1c-2.2,0.8-1.9,4-1.9,6V43c0,2-0.3,5.1,1.9,6v0.1h-8.3V49
	c2.2-0.8,1.9-4,1.9-6V26.6z"/>
<path class="st0" d="M180.5,28.3c1.2-3.1,2.6-6.7,0-7.7v-0.1h6.5l-11.5,29.9c-3-2-4-2.3-5.3-5.8l-6.6-17.8c-0.8-2.2-1.5-4.7-3.4-6.2
	v-0.1h6.4V21c0.2,1.4,0.6,2.7,1.2,4l6.9,18.9L180.5,28.3z"/>
<path class="st0" d="M197.3,45.4l5.5,0.5c2.9,0.3,5.8-0.7,8-2.6h0.1l-2,5.7h-18.1v-0.1c2.2-0.8,2-4,2-6V26.6c0-2,0.3-5.2-2-6v-0.1
	h13.9c0.7,0.1,1.4,0,2-0.2h0.1v5.1h-0.1c-1.4-1.6-3.1-1.7-5.1-1.7c-1.5,0-3,0.1-4.4,0.3V32h5.2c0.6,0.1,1.3,0,1.9-0.3h0.1v4.6h-0.1
	c-0.7-1.3-2.5-1.2-3.9-1.2h-3.2L197.3,45.4z"/>
<path class="st0" d="M224.1,20.4c5.8,0,9,3,9,7s-3.4,6.8-6.9,7.6l6.3,7.9c2,2.4,4.4,4.4,7,6.1h-4c-1.9,0.2-3.8-0.6-5-2.2l-5.3-6.6
	l-4-6.1c3.5-0.5,7.5-2.1,7.5-6.2c0-3.1-2.7-5-5.6-4.8c-1,0.1-2,0.2-3,0.4V43c0,2-0.3,5.2,2,6v0.1h-8.3V49c2.2-0.8,1.9-4,1.9-6V26.6
	c0-2,0.3-5.2-1.9-6v-0.1L224.1,20.4z"/>
<path class="st0" d="M258.4,25.6c-1.8-1.8-4.3-2.7-6.8-2.7c-2.5,0-5.6,1-5.6,4c0,6,15,5.9,15,13.9c0,4.7-4.9,9-11.6,9
	c-2.7,0-5.3-0.4-7.8-1.3l-1.3-5.5c2.7,2.3,6,3.5,9.5,3.6c2.5,0,6.2-1.5,6.2-4.5c0-6.8-15-5.6-15-14.8c0-5.5,5.6-7.6,10.9-7.6
	c2.2,0,4.4,0.3,6.5,1L258.4,25.6z"/>
<path class="st0" d="M266.5,26.6c0-2,0.3-5.2-1.9-6v-0.1h8.3v0.1c-2.2,0.8-1.9,4-1.9,6V43c0,2-0.3,5.1,1.9,6v0.1h-8.3V49
	c2.2-0.8,1.9-4,1.9-6V26.6z"/>
<path class="st0" d="M289.3,43.4c0,2.5,0,4.2,2.3,5.5v0.1H283v-0.1c2.2-0.8,1.9-4,1.9-6V23.6h-3.8c-1.9-0.1-3.7,0.5-5.2,1.7h-0.1
	l1.5-5.2h0.1c0.5,0.2,1.1,0.3,1.6,0.3h17.3c0.7,0,1.4-0.1,2-0.3h0.1l-1.4,5.2H297c-0.6-1.5-2.3-1.7-3.7-1.7h-3.9V43.4z"/>
<path class="st0" d="M316.3,43.4c0,2.6,0,3.9,2.2,5.5v0.1H310v-0.1c2.1-1.1,1.8-3.9,1.8-6v-6.4l-7.2-11.6c-1.2-1.9-2-3.3-4.1-4.5h4
	c1.4,0,2.7,0.3,3.3,1.2l7,11.4l5.4-8.1c0.7-1.1,1.7-3.2-0.7-4.3v-0.1h7.6l-10.7,16.1L316.3,43.4z"/>
<path class="st0" d="M368.6,34.4c0,8.9-7.3,15.3-16,15.3s-15.9-6.2-15.9-15.1c0-8.3,7.2-15.2,16.3-15
	C362.1,19.7,368.6,26.6,368.6,34.4z M341.6,34.3c0,6.1,4.3,12.4,11.1,12.4c6.6,0,10.8-4.8,10.8-11.3s-4-12.5-10.9-12.5
	S341.6,27.7,341.6,34.3L341.6,34.3z"/>
<path class="st0" d="M378.4,43c0,2-0.3,5.1,1.8,6v0.1h-8.2V49c2.2-0.8,2-4,2-6V26.6c0-2,0.3-5.2-2-6v-0.1H386c0.7,0.1,1.4,0,2-0.2
	h0.1v5H388c-1.3-1.5-3.1-1.7-5.1-1.7c-1.5,0-3,0.1-4.4,0.3V32h5.2c0.6,0.1,1.3,0,1.9-0.3h0.1v4.6h-0.1c-0.7-1.3-2.5-1.2-3.9-1.2
	h-3.2L378.4,43z"/>
<path class="st1" d="M71.6,20.8v-0.4H0.1v0.4c0,0,0,36.8,0,42.9c0,13.9,12.3,28.6,34.5,41.4l1.3,0.8l1.3-0.8
	c22.2-12.8,34.5-27.5,34.5-41.4C71.6,57.7,71.6,20.8,71.6,20.8z"/>
<path class="st2" d="M35.8,105.5c0-0.4,0-25.5,0-49.2c0-0.1,35.4,0,35.4,0c0,2.7,0,6.2,0,7.5C71.3,87.4,36,104.9,35.8,105.5"/>
<rect x="47.5" y="21.1" class="st3" width="5.8" height="13.7"/>
<rect x="53.3" y="21.1" class="st2" width="5.8" height="13.7"/>
<rect x="59.1" y="21.1" class="st3" width="5.9" height="13.7"/>
<rect x="65.1" y="21.1" class="st2" width="6" height="13.7"/>
<rect x="41.8" y="21.1" class="st2" width="5.7" height="13.7"/>
<rect x="36" y="21.1" class="st3" width="5.8" height="13.6"/>
<rect x="0.4" y="20.8" class="st0" width="35.4" height="35.5"/>
<line class="st4" x1="46.5" y1="85.2" x2="48.4" y2="85.2"/>
<line class="st4" x1="48.4" y1="85.2" x2="50.6" y2="85.2"/>
<polyline class="st1" points="43.7,60.5 43.7,59.5 44.2,59.5 44.2,60.1 44.7,60.1 44.7,59.5 45.3,59.5 45.3,60.1 45.8,60.1 
	45.8,59.5 46.2,59.5 46.2,60.5 43.7,60.5 "/>
<polyline class="st1" points="47.4,60.5 47.4,59.5 47.9,59.5 47.9,60 48.4,60 48.4,59.5 48.9,59.5 48.9,60 49.4,60 49.4,59.5 
	49.8,59.5 49.8,60.5 47.4,60.5 "/>
<polyline class="st1" points="50.9,60.5 50.9,59.4 51.4,59.4 51.4,60 51.9,60 51.9,59.4 52.4,59.4 52.4,60 52.9,60 52.9,59.5 
	53.4,59.5 53.4,60.5 50.9,60.5 "/>
<polyline class="st1" points="44.3,67.3 42.9,77.1 54.3,77.1 52.8,67.3 44.3,67.3 "/>
<polyline class="st1" points="42.8,66 42.8,63.2 54.5,63.2 54.5,66 52.8,67.3 44.3,67.3 42.8,66 "/>
<polyline class="st1" points="40.7,79.1 40.7,85.2 56.3,85.2 56.3,79.1 54.3,77 42.8,77 40.7,79.1 "/>
<line class="st4" x1="47.4" y1="73.6" x2="43.4" y2="73.6"/>
<polyline class="st1" points="43.7,63.1 44,61.3 43.7,60.5 46.2,60.5 45.9,61.3 46.2,63.1 43.7,63.1 "/>
<polyline class="st1" points="47.4,63.1 47.7,61.3 47.4,60.5 49.8,60.5 49.5,61.3 49.8,63.1 47.4,63.1 "/>
<polyline class="st1" points="50.9,63.1 51.2,61.3 50.9,60.5 53.4,60.5 53.1,61.3 53.4,63.1 50.9,63.1 "/>
<path class="st1" d="M43.7,63.1h0.9v-0.9c0.1-0.6,0.7-0.6,0.7,0v0.9h0.9l-0.3-1.7h-1.8L43.7,63.1z"/>
<path class="st1" d="M47.4,63.1h0.9v-0.8c0.1-0.6,0.7-0.6,0.7,0v0.8h0.9l-0.3-1.7h-1.9L47.4,63.1z"/>
<path class="st1" d="M50.9,63.1h0.9v-0.8c0.1-0.6,0.7-0.6,0.7,0v0.8h0.9l-0.3-1.7h-1.9L50.9,63.1z"/>
<path class="st3" d="M18.1,43h2.3c-0.5,1-1,1.9,0,3.3s4.2,5,0.1,8.6h-2.4"/>
<path class="st3" d="M18.1,43h-2.3c0.5,1,1,1.9,0,3.3s-4.3,5-0.1,8.6h2.4"/>
<path class="st3" d="M23.5,49.6c-0.5-0.7-0.6-1.7-0.1-2.4c0.4-1,2.5-3.3,1.7-5.1c-0.6-1.2-2-1.8-3.3-1.2c-0.4,0.2-0.7,0.4-0.9,0.7
	c-0.3,0.6-0.3,1.3,0,1.8c0.2,0.4,0.7,0.5,1.1,0.5c0.4-0.1,0.6-0.5,0.6-0.8c-0.1-0.3-0.3-0.5-0.6-0.6c-0.2,0-0.3,0.1-0.5,0.1
	c-0.1-0.3,0-0.7,0.3-0.9c0.4-0.4,0.9-0.5,1.4-0.3c0.8,0.3,1.4,1.1,1.3,2c-0.2,0.6-0.3,1.4-2.3,2.2c0.2,0.3,0.6,0.4,1,0.3
	c-0.9,1.5-1.4,3,0.1,4.6c0.4,0.4,1,0.3,1.3,0c0.3-0.3,0.3-0.8,0.1-1.2c-0.2-0.2-0.5-0.3-0.8-0.2C23.7,49.3,23.6,49.4,23.5,49.6"/>
<path class="st3" d="M12.6,49.6c0.6-0.7,0.6-1.7,0.1-2.4c-0.4-1-2.5-3.3-1.6-5.1c0.6-1.2,2-1.8,3.3-1.2c0.4,0.2,0.7,0.4,0.9,0.8
	c0.3,0.6,0.3,1.3,0,1.8c-0.2,0.4-0.7,0.5-1.1,0.4c-0.4-0.1-0.6-0.5-0.6-0.8c0.1-0.3,0.3-0.5,0.6-0.5c0.2,0,0.3,0.1,0.5,0.1
	c0.1-0.3,0-0.7-0.3-0.9c-0.4-0.4-0.9-0.5-1.4-0.3c-0.8,0.3-1.4,1.1-1.3,2c0.2,0.7,0.3,1.4,2.3,2.2c-0.2,0.3-0.6,0.4-1,0.3
	c0.9,1.5,1.4,3-0.1,4.6c-0.4,0.4-1,0.3-1.4-0.1c0,0,0,0-0.1-0.1c-0.2-0.3-0.2-0.8,0-1.1c0.2-0.2,0.5-0.3,0.8-0.2
	C12.4,49.3,12.5,49.4,12.6,49.6"/>
<path class="st1" d="M16.1,48.5c-0.1-0.7-0.3-1,0.4-1.8c0.1,1.2,0.3,1.6,1.1,1.8s3,1.4,3.4,2.2s0.1,1.5-0.7,1.2
	c-0.7-0.3-1.4-0.8-1.9-1.5c-0.5-0.6-1.2-1-1.8-1.4c-0.5-0.1-1-0.1-1.4,0.1c0.2-0.7,0.4-0.9,0.8-1C16.1,48.3,16.1,48.4,16.1,48.5z"/>
<path class="st1" d="M16,52.7c0.1,0.5,0.5,0.9,1,1c-0.3-0.5-0.3-1-0.1-1.5c0.2-0.7,0.5-1.3,1.1-1.8c0.7-0.5,1.3-1,1.9-1.6
	c0.5-0.5,0.4-0.9-0.4-1c-1.2-0.1-2.4,0.7-2.7,1.9c-0.8,1.7-0.5,1.9-0.9,2.5c-0.2,0.3-0.6,0.6-0.9,0.8c0.4,0.1,0.8,0.1,1.2,0
	C16.1,52.9,16,52.8,16,52.7z"/>
<path class="st1" d="M19,50.9c-1,0.4-1.1,0.4-1.9,0c-0.5-0.4-1.2-0.6-1.9-0.6c-0.7,0-0.6,0.5-0.6,0.7c0.9,1.3,2.6,1.8,4.1,1.1
	c0.3-0.2,0.6-0.4,0.8-0.6C19.4,51.3,19.2,51.1,19,50.9"/>
<path class="st1" d="M20.3,49.9c0.2-0.3,0.3-0.7,0.2-1.1c0.3,0.2,0.5,0.6,0.5,1c0.4,0,0.8,0.2,1,0.6c-0.3-0.1-0.7,0-1,0.1
	C20.7,50.3,20.5,50.1,20.3,49.9z"/>
<path class="st1" d="M16.9,36.4c-0.1,0-0.2,0.1-0.3,0.1c-0.5-0.7-0.3-1.7,0.3-2.3c0.9,0.8,0.9,1.5,0.6,2.2c-0.2,0-0.2-0.1-0.3,0
	L16.9,36.4"/>
<path class="st5" d="M14.6,35.5c0.4,0,0.7,0,1,0.2c-0.4-1-1.2-3-1.2-3.2C14.3,33.5,14.4,34.5,14.6,35.5z"/>
<path class="st5" d="M19.7,37.8c0.8-1.2,1.9-2.2,3.1-3c-0.4,2.5-1.1,3.2-1.6,3.7c-0.8,0.7-1.3,1.6-1.6,2.6h-0.5h-0.6
	c0-0.8,0.2-1.6,0.5-2.3L19.7,37.8z"/>
<path class="st5" d="M19.8,32.8c-0.3,0.9-0.7,1.7-1.2,2.5l-0.8,2.8l-0.4,2.2c0,0.3,0,0.5,0,0.8h0.7c0-0.9,0.2-1.7,0.6-2.5
	C18.8,38.5,20.2,35,19.8,32.8z"/>
<polygon class="st1" points="20.5,21.2 21.5,21.7 20.5,21.9 21.1,22.5 20.1,22.3 20.7,23.2 19.9,22.8 20.1,23.6 19.3,23 19.4,23.9 
	18.8,23.5 18.5,24.5 18.2,23.8 17.9,24.3 17.6,23.7 16.8,24.4 16.9,23.5 16.2,23.8 16.1,23 15.6,23.5 15.6,22.9 14.9,23.3 
	15.1,22.6 14.2,22.8 14.8,22 13.9,21.9 15,21.3 11.2,21.3 12.1,22.3 10.7,22.8 11.8,23.2 10.1,23.7 11.5,24.2 10,24.9 11.2,25.2 
	9.4,26.5 11.4,26.3 9.8,27.9 11.3,27.7 10,29.5 11.8,28.8 10.9,30.7 12.6,29.6 12.6,31 13.5,30.3 13.5,31.5 14.4,30.7 14.6,31.6 
	15.5,31 15.7,32.2 16.6,31.2 17.2,32.3 17.9,31.3 18.7,32.2 19.1,31.2 20,32.1 20.3,30.8 21.2,32 21.4,30.4 22.7,31.7 22.2,29.6 
	23.7,30.8 23,28.6 24.3,29.5 23.7,28.1 25,28.8 23.7,26.8 25.3,27.6 24.6,26.2 26.4,26.5 23.9,25.1 25.7,25.1 23.9,24.1 25.4,24.1 
	23.6,23.2 25.4,23 23.2,22.2 24.6,21.3 "/>
<path class="st1" d="M14.6,22.3"/>
<path class="st1" d="M16.2,23.6"/>
<path class="st1" d="M20.8,22.2"/>
<path class="st1" d="M19,23.6"/>
<path class="st1" d="M19.4,23.6"/>
<path class="st1" d="M16.2,36.9"/>
<path class="st1" d="M16.2,36.9c0,0.1-0.1,0.3-0.1,0.4c-0.2-0.1-0.4-0.1-0.6,0c-0.6-0.4-1.1-1.1-1.2-1.9c0.9-0.1,1.7,0.3,2.2,1.1
	L16.2,36.9"/>
<path class="st1" d="M17,38.1c0.5,0,0.9-0.4,0.9-0.9c0-0.5-0.4-0.9-0.9-0.9s-0.9,0.4-0.9,0.9c0,0,0,0,0,0
	C16.1,37.7,16.5,38.1,17,38.1C17,38.1,17,38.1,17,38.1z"/>
<path class="st1" d="M17,37.2"/>
<path class="st2" d="M17,37.6c0.2,0,0.4-0.2,0.3-0.4c0-0.2-0.2-0.3-0.3-0.3c-0.2,0-0.4,0.1-0.4,0.3c0,0.2,0.1,0.4,0.3,0.4
	C16.9,37.6,17,37.6,17,37.6"/>
<path class="st2" d="M17,37.2"/>
<path class="st1" d="M18.2,37.1c0.8-0.3,1.5-0.9,1.7-1.8c-0.8-0.2-1.6,0-2.1,0.6c-0.1,0.1-0.3,0.3-0.4,0.5c0.1,0,0.2,0.1,0.2,0.2
	l0.2,0.3"/>
<path class="st1" d="M17.9,37.3c0-0.1,0-0.2,0-0.3c0.9,0,1.7,0.5,2.1,1.3c-0.4,0.2-0.9,0.2-1.3,0.2c-0.4-0.1-0.7-0.4-1-0.7
	c0.1,0,0.1-0.1,0.2-0.2L17.9,37.3"/>
<path class="st5" d="M22,39c0.6-0.3,1.3-0.6,2-0.8c1.6-0.7,3.3-1,5-0.9c0.7,0.1,1.3,0.1,2,0c0.4-0.2-1.3,1.4-3.2,1.1
	c-0.6,0-1.3,0-1.9,0c-0.7,0.1-1.6,0.3-1.4,0.2c0.3,0,0.6,0,0.9,0c0.7,0,1.3,0.1,1.9,0.4c0.7,0.3,1.3,0.8,1.8,1.3
	c0.2,0.3,0.5,0.6,0.8,0.9c0.1,0.1,0.1,0.1,0.3,0.1c0.2,0,0.4,0.1,0.5,0.3c0.1,0.2,0.4,0.1,0.6,0.2c0.3,0.1,0.6,0.4,0.9,0.7
	c0.3,0.3,0.7,0.4,1.1,0.4c-0.7,0.6-1.1,0.7-1.1,0.7c-0.2-0.7-0.4-1.3-1.2-1.5c0.4,0.2,0.7,0.5,0.9,0.9c0.1,0.3,0.1,0.5,0.1,0.8
	c0.1,0.2,0.2,0.4,0.4,0.6c-0.9-0.2-1.6-0.4-1.7-1.1s-0.4-0.8-0.4-0.8c0.1,0.4,0.2,0.7,0.3,1.1c0.1,0.2,0.2,0.4,0.4,0.5
	c0.3,0.2,0.7,0.3,1.1,0.4c-1.2,0-2-0.1-2.1-1.8c-0.1,0.4,0,0.9,0.1,1.3c0.1,0.2,0.3,0.4,0.5,0.5c-0.4,0.3-0.8,0.5-1.4,0.6
	c0.3-0.5,0.3-1.1,0.1-1.7c-0.1-0.3-0.1-0.6,0-0.8c0.1-0.2-0.1-0.4,0-0.6c0-0.1,0-0.3,0-0.4c0-0.1-0.2-0.2-0.3-0.4
	c-0.5-0.5-1-1-1.5-1.4C26.8,39.3,26,39,25.1,39c-1.2,0.1-2.3,0.3-3.4,0.7c0,0,5.8-1.8,7.1,3c0.1,0.5,0.1,1,0,1.5c0,0-1.1-0.8-1.3-1
	c0,0-2.9-4.6-6.9-2h-0.8c0.1-0.7,0.5-1.3,1-1.8c0.6-0.6,1.2-1.2,1.9-1.7c0.7-0.5,3-2.4,3.3-2.8c0.5-0.5,1.1-0.9,1.8-1.3
	c0.8-0.3,1.6-0.5,2.5-0.5c-0.7,0.4-1.3,0.8-1.8,1.4c-0.6,0.6-1.2,1.2-1.8,1.6c-0.4,0.3-1.1,0.8-1.4,1c-0.3,0.2-0.6,0.5-0.9,0.7
	C23.6,38.2,22.8,38.6,22,39"/>
<path class="st5" d="M16.7,41.1h-0.4c-0.7-1.1-1.9-1.9-3.2-2.3c-1.2-0.5-1.4-0.5-2.5-0.9s-2.2-0.7-2.4-1.1s-0.7-1.1-0.7-1.1
	c0.7,0.3,1.4,0.6,2.2,0.7c0.5,0.1,0.9,0.2,1.4,0.3c1.3,0.4,2.6,1,3.7,1.8c0.4,0.3,0.7,0.6,1,1c0.1,0.4-0.3-0.6-0.3-0.6l-0.6-0.7
	c-0.7-0.8-1.6-1.4-2.5-1.9c-1.9-0.9-1.9-1.4-2.2-2.3c0.9,0.2,1.9,0.5,2.7,1c0.3,0.2,0.4,0.3,0.7,0.5c0.7,0.5,1.3,1.2,1.8,1.9"/>
<path class="st5" d="M15.4,37.5c0.9,1,1.6,2.3,2,3.6h-0.6"/>
<path class="st5" d="M14,39.9c-1.3-0.5-2.7-0.3-3.8,0.5c-1.1,0.7-1.6,2-1.4,3.3c0.5-0.4,0.9-0.8,1.3-1.2c0.3-0.5,0.7-1,1.1-1.5
	c1.2-1,2.9-0.9,4,0.2h0.4H16c-0.5-0.9-1.4-1.6-2.5-1.9c-1.3-0.5-2.7-0.5-4,0c-0.9,0.2-1.7,0.7-2.3,1.3c-0.8,0.6-1.1,1.3-1.3,1.4
	s-0.5,0.2-0.5,0.2c-0.6,0.3-1.1,0.9-1.1,1.6c-0.2,0.8-0.2,2,0.2,1.6C4.7,45,5,44.6,5.1,44.1c0.1-0.4,0.1-0.6,0.3-0.9
	c0.1-0.1,0.3-0.2,0.4-0.3c0,0.2-0.1,0.3-0.3,0.5c-0.1,0.1-0.1,0.3-0.1,0.5c-0.1,0.5-0.3,1-0.6,1.4c-0.2,0.2-0.2,0.9,0.3,0.4
	s1.5-1,1.4-2.2c0-0.8-0.2-1,0.2-1.7c0.9-1.1,2.2-1.9,3.7-2.2C11.7,39.3,12.9,39.4,14,39.9"/>
<path class="st1" d="M16.2,37.7c0.1,0.1,0.2,0.2,0.3,0.3c-0.4,0.7-0.4,1.1-2,1.3c0.3-1.1,0.5-1.6,0.9-1.8c0.2-0.1,0.5-0.1,0.7,0v0.1
	L16.2,37.7"/>
<path class="st1" d="M17.2,38c0.1,0,0.3-0.1,0.4-0.2c0.5,0.8,0.3,1.8-0.3,2.5c-0.8-0.5-1.1-1.5-0.7-2.4c0.1,0.1,0.2,0.1,0.3,0.1
	L17.2,38"/>
<rect x="15.8" y="41.8" class="st3" width="4.6" height="1.2"/>
<rect x="15.6" y="54.8" class="st3" width="4.8" height="0.7"/>
<polygon class="st3" points="14.9,21.3 20.5,21.2 21.5,21.7 20.5,21.9 21.1,22.5 20.1,22.4 20.7,23.2 19.8,22.8 20.1,23.6 
	19.3,23.1 19.4,23.9 18.8,23.5 18.5,24.5 18.2,23.8 17.8,24.3 17.6,23.7 16.8,24.4 16.9,23.5 16.2,23.8 16.1,23 15.5,23.5 
	15.5,22.9 14.9,23.3 15.1,22.5 14.2,22.8 14.8,22 13.9,21.9 "/>
<path class="st3" d="M15.2,24.9l-0.8,0.6v3.8c0.4,0.3,0.8,0.5,1.2,0.6c0.3,0.1,0.6,0.2,0.9,0.2c0.4,0,0.8,0.1,1.1,0.3
	c0.3-0.2,0.7-0.3,1.1-0.3c0.3,0,0.6,0,0.9,0c0.5,0,1-0.2,1.4-0.6v-4.2l-0.3,0.2v-0.3l-0.2,0.1v-0.3l-0.3,0.2v3.6
	c-0.2,0.2-0.5,0.3-0.7,0.3c-0.2,0-0.4,0-0.6,0c-0.4,0-0.8,0.1-1.1,0.3c-0.4-0.2-0.8-0.3-1.2-0.2c-0.5,0-0.9-0.1-1.3-0.4L15.2,24.9"
	/>
<path class="st1" d="M16.4,25.3c-0.4-0.1-0.8-0.2-1.2-0.4v4c0.3,0.3,0.8,0.4,1.2,0.4c0.4,0,0.9,0.1,1.3,0.3c0.5-0.2,1-0.3,1.5-0.2
	c0.4,0,0.7-0.2,1-0.4v-3.7c-0.3,0.2-0.7,0.2-1,0.2c-0.5-0.1-1-0.1-1.5,0.1L17,25.3L16.4,25.3z"/>
<path class="st6" d="M16.4,23.6c0.3-0.4,0.5-0.9,0.5-1.4v-1h2c-0.1,0.4-0.2,0.7-0.2,1.1c0.3,1.9,0.1,1.9,0.1,1.9
	c-0.3,0.8-0.7,1.7-0.7,1.7l0.1,0.9c0.1,0.4-0.2,1.1-0.5,1.1s-0.3-0.4-0.3-0.4s0,0.1-0.1-0.4c-0.1-0.6-0.2-1.2-0.3-1.8
	c-0.2,0-0.3-0.1-0.5-0.1c-0.3,0-0.6-0.1-0.9-0.2c0.2-0.5,0.4-0.9,0.7-1.3L16.4,23.6"/>
<path class="st1" d="M6.9,41.7c-0.4,0.7-0.3,0.9-0.3,1.7c0.1,1.2-0.8,1.8-1.4,2.2s-0.6-0.2-0.3-0.4c0.3-0.4,0.5-0.9,0.6-1.4
	c0-0.2,0-0.3,0.1-0.5c0.1-0.1,0.2-0.3,0.3-0.5c-0.2,0.1-0.3,0.2-0.4,0.3c-0.2,0.2-0.2,0.4-0.3,0.9c-0.1,0.5-0.3,1-0.7,1.3
	c-0.4,0.4-0.3-0.8-0.2-1.6c0-0.7,0.5-1.3,1.1-1.6L6,41.9l0.3-0.4L6.9,41.7z"/>
<path class="st1" d="M29.5,42.2c-0.1,0.1,0.1,0,0,0.3c-0.1,0.2-0.2,0.5,0,0.8c0.2,0.5,0.1,1.2-0.1,1.7c0.5,0,1-0.3,1.4-0.6
	c-0.2-0.1-0.4-0.3-0.5-0.5c-0.2-0.4-0.2-0.9-0.1-1.3c0.1,1.8,0.9,1.8,2.1,1.8c-0.4-0.1-0.7-0.2-1.1-0.4c-0.2-0.1-0.4-0.3-0.4-0.5
	c-0.1-0.4-0.1-0.7-0.3-1.1c0,0,0.2,0.1,0.4,0.8s0.8,0.9,1.7,1.1c-0.2-0.1-0.3-0.3-0.4-0.6c0-0.3-0.1-0.5-0.1-0.8
	c-0.2-0.4-0.5-0.7-0.9-0.9c0.8,0.2,1,0.7,1.2,1.5c0,0,0.4,0,1.1-0.7c-0.4,0-0.8-0.2-1.1-0.4c-0.2-0.3-0.5-0.5-0.9-0.7
	c-0.2-0.1-0.5,0-0.6-0.2C30.3,41.7,29.8,41.9,29.5,42.2z"/>
<path class="st2" d="M5.8,65.6c0.4,0,0.8-0.2,1-0.5c0.2-0.3,0.6-0.4,1-0.3c0.4,0.1,0.6,0.1,0.8,0s0.2-0.2,0.7-0.2
	c-0.7-0.7-1.1-0.5-1.7-0.4c-0.6,0.1-1.2-0.2-1.4-0.8l-0.4,0.1c-0.3-0.2-0.8-0.1-0.8-0.1s-1,0.4-1.1-0.4s0.3-0.8,0.3-0.8
	c0.2,0,0.4-0.5,0.4-0.5C4.6,61.1,5,61.2,5,61.2c0.2-0.1,1.1,0.2,1.1,0.2s0,0.1,0.6,0.1S7.1,61,7.1,61c-0.1-0.6-0.8-0.4-0.8-0.4
	c0.5-0.6,2,0.1,2,0.1c0.4-0.5,1.1-0.7,1.7-0.5c0.5-0.5,1.2-0.6,1.8-0.4c0-0.9,1.6-1.3,1.6-1.3c0.2-0.1,0.8-0.9,0.8-0.9
	c0.9,2.5-0.8,2.7-0.8,2.7l0.8-0.1c0.7-0.2,1.3-0.8,1.4-1.5c0.2,1.6,0.1,2.1-0.5,2.7c0.3,0.1,0.6,0,0.9-0.1c-0.2,0.6-0.8,1-1.4,1.1
	c0.6,0,1.2-0.2,1.7-0.5c-0.2,0.5-0.5,1-1,1.2c0.6-0.2,0.9-0.3,1-0.4c-0.4,1.1-0.9,1.4-1.3,1.5c0.4,0,0.8-0.1,1.2-0.3
	c-0.6,1.2-0.9,1.3-1.1,1.4c-0.4,0.1-0.8,0.1-1.1-0.1c0.6,0.4,0.9,0.7,1.1,0.8c-0.6,0.2-1.2,0.2-1.7-0.2c-0.1,0.3,0,0.5,0.1,0.8
	c-0.2,0-0.5-0.2-0.6-0.4l-0.1,0c-0.9,0.2-1.9,0.2-2.8-0.1c-0.3-0.2-0.7-0.1-1.1,0c-0.4,0.1-0.7,0.2-1.1,0.1c-0.3-0.1-0.5,0-0.7,0.2
	c-0.2,0.2-0.7,0.7-1.5-0.1c-0.2-0.2-0.3-0.2-0.5-0.2s-0.2-0.5-0.2-0.6L5.8,65.6"/>
<path class="st1" d="M6.1,63.3"/>
<path class="st1" d="M6.2,63.3C6.4,63.8,7,64.1,7.6,64c0.6-0.1,1-0.3,1.7,0.4c-0.5,0-0.5,0.1-0.7,0.2s-0.3,0.1-0.8,0
	c-0.4-0.1-0.8,0-1,0.3c-0.2,0.3-0.4,0.5-0.9,0.5"/>
<path class="st0" d="M7.5,64.6c-0.5-0.1-1-0.2-1.5-0.5C5.7,64,5.3,64,4.9,64.1c-0.6,0.1-0.5,0.5-1.6,0.1C3.1,64,2.8,64,2.1,64.5
	c-0.3,0.1-0.4,0.5-0.3,0.8c0.1,0.2,0.2,0.3,0.4,0.3c1.2,0.5,1.5,0.6,2.1,0.3c0.3-0.2,0.6-0.3,1-0.3c0.3,0,0.7-0.1,1-0.1
	c0.2,0,0.4-0.2,0.5-0.4C7,64.9,7.2,64.7,7.5,64.6"/>
<path class="st1" d="M10.4,62.6c0.3,0,0.5-0.2,0.5-0.5c0-0.3-0.2-0.5-0.5-0.5c-0.3,0-0.5,0.2-0.5,0.5l0,0
	C9.9,62.3,10.1,62.6,10.4,62.6"/>
<path class="st1" d="M10.4,62.1"/>
<path class="st1" d="M5.2,63.2c-0.1,0.3-0.1,0.6,0,0.9c-0.3-0.1-0.5-0.4-0.6-0.7"/>
<path class="st1" d="M6,65.5c-0.5-0.4-0.2-1.2-0.2-1.2c0.3,0.3,0.4,0.7,0.9,0.8c-0.1,0.1-0.2,0.2-0.3,0.2C6.3,65.4,6.1,65.5,6,65.5"
	/>
<path class="st1" d="M5.1,63.2c0.1,0.4,0.3,0.7,0.6,1c0.1-0.5-0.1-0.5,0.3-0.8"/>
<path class="st1" d="M5.6,63.3c0.1,0.5,0.3,0.9,0.6,1.2c0-0.7,0.2-0.8,0.2-0.8"/>
<path class="st1" d="M9.3,64.4c-0.2,0-0.4,0-0.6,0.2c-0.1,0.1-0.2,0.2-0.3,0.2c0-0.4,0.1-0.9,0.4-1.2C8.8,63.9,9,64.2,9.3,64.4"/>
<path class="st1" d="M6.8,63.5c-0.2,0.1-0.2,0.2-0.2,0.4c0,0,0,0,0,0C6.7,64,6.7,64,6.8,64.1C7,64.1,7.3,64.1,7.4,64
	c0.2-0.1,0.4-0.4,0.4-0.6c0.1-0.6-0.1-1.2-1-1.2c0.3,0.3,0.4,0.8,0.1,1.1C6.9,63.3,6.8,63.4,6.8,63.5"/>
<path class="st1" d="M7.8,64c0.2-0.2,0.4-0.5,0.4-0.8c0.1,0.2,0.2,0.4,0.2,0.6C8.2,63.9,8,63.9,7.8,64"/>
<path class="st2" d="M23.7,65.6c0.4,0,0.8-0.2,1-0.5c0.2-0.3,0.6-0.4,1-0.3c0.4,0.1,0.6,0.1,0.8,0s0.2-0.2,0.7-0.2
	c-0.7-0.7-1.1-0.5-1.7-0.4c-0.6,0.1-1.2-0.2-1.4-0.8l-0.4,0.1c-0.3-0.2-0.8-0.1-0.8-0.1s-1,0.4-1.1-0.4s0.3-0.8,0.3-0.8
	c0.2,0,0.4-0.5,0.4-0.5c0.1-0.5,0.5-0.5,0.5-0.5c0.2-0.1,1.1,0.2,1.1,0.2s0,0.1,0.6,0.1S25,61,25,61c-0.1-0.6-0.8-0.4-0.8-0.4
	c0.5-0.6,2,0.1,2,0.1c0.4-0.5,1.1-0.7,1.7-0.5c0.5-0.5,1.2-0.6,1.8-0.4c0-0.9,1.6-1.3,1.6-1.3c0.2-0.1,0.8-0.9,0.8-0.9
	c1,2.5-0.8,2.7-0.8,2.7l0.8-0.1c0.7-0.2,1.3-0.8,1.5-1.5c0.2,1.6,0,2.1-0.5,2.7c0.3,0.1,0.6,0,0.9-0.1c-0.2,0.6-0.8,1-1.4,1.1
	c0.6,0,1.2-0.2,1.7-0.5c-0.2,0.5-0.5,1-1,1.2c0.4-0.1,0.7-0.2,1-0.4c-0.4,1.1-1,1.4-1.3,1.5c0.4,0,0.9-0.1,1.2-0.3
	c-0.5,1.2-1,1.3-1.1,1.4c-0.4,0.1-0.8,0.1-1.2-0.1c0.6,0.4,0.9,0.7,1.1,0.8c-0.6,0.2-1.2,0.2-1.7-0.2c-0.1,0.3,0,0.5,0,0.8
	c-0.2,0-0.5-0.2-0.6-0.4l0,0c-0.9,0.2-1.9,0.2-2.8-0.1c-0.3-0.2-0.7-0.1-1.1,0c-0.4,0.1-0.7,0.2-1.1,0.1c-0.3-0.1-0.5,0-0.7,0.2
	c-0.2,0.2-0.7,0.7-1.5-0.1c-0.2-0.2-0.3-0.2-0.5-0.2s-0.2-0.5-0.2-0.6L23.7,65.6"/>
<path class="st1" d="M24,63.3"/>
<path class="st1" d="M24.1,63.3c0.2,0.6,0.8,0.9,1.4,0.8c0.6-0.1,1-0.3,1.7,0.4c-0.5,0-0.5,0.1-0.7,0.2s-0.3,0.1-0.8,0
	c-0.4-0.1-0.8,0-1,0.3c-0.3,0.3-0.4,0.5-0.9,0.5"/>
<path class="st0" d="M25.3,64.6c-0.5-0.1-1-0.2-1.5-0.5c-0.3-0.2-0.7-0.2-1.1-0.1c-0.6,0.1-0.5,0.5-1.6,0.1
	c-0.2-0.1-0.5-0.1-1.2,0.3c-0.3,0.1-0.4,0.5-0.3,0.8c0.1,0.2,0.2,0.3,0.4,0.3c1.2,0.5,1.5,0.6,2.1,0.3c0.3-0.2,0.6-0.3,1-0.3
	c0.3,0,0.7-0.1,1-0.1c0.2,0,0.4-0.2,0.5-0.4C24.8,64.9,25.1,64.7,25.3,64.6"/>
<path class="st1" d="M28.2,62.6c0.3,0,0.5-0.2,0.5-0.5c0-0.3-0.2-0.5-0.5-0.5s-0.5,0.2-0.5,0.5l0,0C27.7,62.3,27.9,62.6,28.2,62.6"
	/>
<path class="st1" d="M28.2,62.1"/>
<path class="st1" d="M23.1,63.2c-0.1,0.3-0.1,0.6,0,0.9c-0.3-0.1-0.5-0.4-0.6-0.7"/>
<path class="st1" d="M23.8,65.5c-0.5-0.4-0.2-1.2-0.2-1.2c0.3,0.3,0.4,0.7,0.9,0.8c-0.1,0.1-0.2,0.2-0.3,0.2
	C24.1,65.4,24,65.5,23.8,65.5"/>
<path class="st1" d="M23,63.2c0.1,0.4,0.3,0.7,0.6,1c0.1-0.5-0.1-0.5,0.3-0.8"/>
<path class="st1" d="M23.4,63.3c0.1,0.5,0.3,0.9,0.6,1.2c0-0.7,0.2-0.8,0.2-0.8"/>
<path class="st1" d="M27.1,64.4c-0.2,0-0.4,0-0.6,0.2c-0.1,0.1-0.2,0.2-0.3,0.2c0-0.4,0.1-0.9,0.4-1.2
	C26.6,63.9,26.8,64.2,27.1,64.4"/>
<path class="st1" d="M24.6,63.5c-0.2,0.1-0.2,0.2-0.2,0.4c0,0,0,0,0,0c0.1,0.1,0.1,0.1,0.3,0.2c0.2,0.1,0.4,0.1,0.6-0.1
	c0.2-0.1,0.4-0.4,0.4-0.6c0.1-0.6,0-1.2-1-1.2c0.3,0.3,0.4,0.8,0.1,1.1C24.8,63.3,24.7,63.4,24.6,63.5"/>
<path class="st1" d="M25.7,64c0.2-0.2,0.4-0.5,0.4-0.8c0.1,0.2,0.2,0.4,0.2,0.6C26,63.9,25.8,63.9,25.7,64"/>
<path class="st2" d="M20.1,90.2c0.4,0,0.8-0.2,1-0.5c0.2-0.3,0.6-0.4,1-0.3c0.4,0.1,0.6,0.1,0.8,0s0.2-0.2,0.7-0.2
	c-0.7-0.7-1.1-0.5-1.7-0.4c-0.6,0.1-1.2-0.2-1.4-0.8L20.1,88c-0.3-0.2-0.8-0.1-0.8-0.1s-1,0.4-1.1-0.4s0.3-0.8,0.3-0.8
	c0.2,0,0.4-0.5,0.4-0.5c0.1-0.5,0.5-0.5,0.5-0.5c0.2-0.1,1.1,0.2,1.1,0.2s0,0.1,0.6,0.1s0.5-0.5,0.5-0.5c-0.1-0.6-0.8-0.4-0.8-0.4
	c0.5-0.6,2,0.1,2,0.1c0.4-0.5,1.1-0.7,1.7-0.5c0.5-0.5,1.2-0.6,1.8-0.4c0-0.9,1.6-1.3,1.6-1.3c0.2-0.1,0.8-0.9,0.8-0.9
	c0.9,2.5-0.8,2.7-0.8,2.7l0.8-0.1c0.7-0.2,1.3-0.8,1.4-1.5c0.2,1.6,0,2.1-0.5,2.7c0.3,0.1,0.6,0,0.9-0.1c-0.2,0.6-0.8,1-1.4,1.1
	c0.6,0,1.2-0.2,1.7-0.5c-0.2,0.5-0.5,1-1,1.3c0.4-0.1,0.7-0.2,1-0.4c-0.4,1.1-1,1.4-1.3,1.5c0.4,0,0.9-0.1,1.2-0.3
	c-0.5,1.2-1,1.3-1.1,1.4c-0.4,0.1-0.8,0.1-1.2-0.1c0.6,0.4,0.9,0.7,1.1,0.8c-0.6,0.2-1.2,0.2-1.7-0.2c-0.1,0.3,0,0.5,0.1,0.8
	c-0.2,0-0.5-0.2-0.6-0.4l-0.1,0c-0.9,0.2-1.9,0.2-2.8-0.1c-0.3-0.2-0.7-0.2-1.1,0c-0.4,0.1-0.7,0.2-1.1,0.1c-0.3-0.1-0.5,0-0.7,0.2
	c-0.3,0.4-0.9,0.4-1.3,0.1C20.1,91.2,20,91.1,20,91c-0.2-0.2-0.3-0.2-0.5-0.2s-0.2-0.5-0.2-0.6L20.1,90.2"/>
<path class="st1" d="M20.5,87.9"/>
<path class="st1" d="M20.6,87.9c0.2,0.5,0.8,0.9,1.4,0.8c0.6-0.1,1-0.3,1.7,0.4c-0.5,0-0.5,0.1-0.7,0.2s-0.3,0.1-0.8,0
	c-0.4-0.1-0.8,0-1,0.3c-0.3,0.3-0.4,0.5-0.9,0.5"/>
<path class="st0" d="M21.8,89.3c-0.5-0.1-1-0.2-1.5-0.5c-0.3-0.1-0.7-0.2-1.1-0.1c-0.6,0.1-0.5,0.5-1.6,0.1
	c-0.2-0.1-0.5-0.1-1.2,0.3c-0.3,0.1-0.4,0.5-0.3,0.8c0.1,0.2,0.2,0.3,0.4,0.3c1.2,0.5,1.5,0.6,2.1,0.3c0.3-0.2,0.6-0.3,1-0.3
	c0.3,0,0.7-0.1,1-0.1c0.2-0.1,0.4-0.2,0.5-0.4C21.3,89.5,21.6,89.3,21.8,89.3"/>
<path class="st1" d="M24.7,87.2c0.3,0,0.5-0.2,0.5-0.5c0-0.3-0.2-0.5-0.5-0.5c-0.3,0-0.5,0.2-0.5,0.5c0,0,0,0,0,0
	C24.2,86.9,24.4,87.2,24.7,87.2C24.7,87.2,24.7,87.2,24.7,87.2"/>
<path class="st1" d="M24.7,86.7"/>
<path class="st1" d="M19.6,87.8c-0.1,0.3-0.1,0.6,0,0.9c-0.3-0.1-0.5-0.4-0.6-0.7"/>
<path class="st1" d="M20.3,90.1c-0.5-0.4-0.2-1.2-0.2-1.2c0.3,0.3,0.4,0.7,0.9,0.8c-0.1,0.1-0.2,0.2-0.3,0.3L20.3,90.1"/>
<path class="st1" d="M19.4,87.8c0.1,0.4,0.3,0.7,0.6,1c0.1-0.5-0.1-0.5,0.3-0.8"/>
<path class="st1" d="M19.9,87.9c0.1,0.5,0.3,0.9,0.6,1.2c0-0.7,0.2-0.8,0.2-0.8"/>
<path class="st1" d="M23.6,89c-0.2,0-0.4,0-0.6,0.2c-0.1,0.1-0.2,0.2-0.3,0.2c0-0.4,0.1-0.9,0.4-1.2C23.1,88.5,23.3,88.8,23.6,89"/>
<path class="st1" d="M21.1,88.1c-0.2,0.1-0.2,0.3-0.2,0.4c0,0,0,0,0,0c0.1,0.1,0.1,0.1,0.3,0.2c0.2,0.1,0.4,0,0.6-0.1
	c0.3-0.1,0.4-0.4,0.5-0.6c0.1-0.6,0-1.2-1-1.3c0.3,0.3,0.4,0.8,0.1,1.1C21.3,87.9,21.2,88,21.1,88.1"/>
<path class="st1" d="M22.1,88.6c0.2-0.2,0.4-0.5,0.4-0.7c0.1,0.2,0.2,0.4,0.2,0.6C22.5,88.5,22.3,88.6,22.1,88.6"/>
<path d="M54.5,77l-1.4-9.6l1.5-1.3c0,0,0.1-0.1,0.1-0.1v-2.7c0,0,0-0.1,0-0.1c0,0-0.1,0-0.1,0h-1l-0.3-1.7l0.3-0.9l0,0v-1
	c0-0.1-0.1-0.1-0.1-0.1H53c-0.1,0-0.1,0.1-0.1,0.1v0.5h-0.3v-0.5c0-0.1,0-0.1-0.1-0.1c0,0,0,0,0,0h-0.5c-0.1,0-0.1,0-0.1,0.1v0.5
	h-0.3v-0.5c0-0.1,0-0.1-0.1-0.1c0,0,0,0,0,0h-0.5c-0.1,0-0.1,0-0.1,0.1v1l0,0l0.3,0.9l-0.3,1.7h-0.9l-0.3-1.7l0.3-0.9l0,0v-1
	c0-0.1,0-0.1-0.1-0.1c0,0,0,0,0,0h-0.4c-0.1,0-0.1,0.1-0.1,0.1V60H49v-0.5c0-0.1,0-0.1-0.1-0.1c0,0,0,0,0,0h-0.5
	c-0.1,0-0.1,0-0.1,0.1c0,0,0,0,0,0V60H48v-0.5c0-0.1,0-0.1-0.1-0.1h-0.5c-0.1,0-0.1,0-0.1,0.1c0,0,0,0,0,0v1l0,0l0,0l0.3,0.8
	l-0.3,1.7h-0.9L46,61.3l0.3-0.8l0,0v-1c0-0.1-0.1-0.1-0.1-0.1h-0.4c-0.1,0-0.1,0-0.1,0.1c0,0,0,0,0,0V60h-0.3v-0.5
	c0-0.1-0.1-0.1-0.1-0.1h-0.5c-0.1,0-0.1,0.1-0.1,0.1V60h-0.3v-0.5c0-0.1,0-0.1-0.1-0.1c0,0,0,0,0,0h-0.5c-0.1,0-0.1,0-0.1,0.1v1l0,0
	l0,0l0.3,0.8l-0.3,1.7h-0.9c-0.1,0-0.2,0.1-0.2,0.2l0,0V66c0,0.1,0,0.1,0.1,0.1l1.5,1.2l-1.5,9.6l0,0l-2.1,2c0,0,0,0.1,0,0.1v6.2
	c0,0.1,0.1,0.2,0.2,0.2h15.6c0.1,0,0.2-0.1,0.2-0.2v-6.1c0,0,0-0.1,0-0.1L54.5,77z M54.1,76.8h-1.8V76H54L54.1,76.8z M45.9,63.3v0.3
	h-1.9v-0.3H45.9z M44.7,62.2c0-0.3,0.2-0.4,0.3-0.4l0,0c0.1,0,0.3,0.1,0.3,0.4V63h-0.6V62.2z M45.9,63.8v0.5h-1.9v-0.5H45.9z
	 M44.8,64.5h2v1.2h-2V64.5z M46.8,65.9l0.1,1.1h-1.6l-0.4-1.1H46.8z M49.5,63.4v0.3h-1.9v-0.3H49.5z M48.3,62.2
	c0-0.3,0.2-0.4,0.3-0.4l0,0c0.1,0,0.3,0.1,0.3,0.4V63h-0.6L48.3,62.2z M53.1,63.4v0.3h-1.9v-0.3H53.1z M51.8,62.2
	c0-0.3,0.2-0.4,0.3-0.4l0,0c0.1,0,0.3,0.1,0.3,0.4V63h-0.6L51.8,62.2z M53.1,63.9v0.5h-1.9v-0.5H53.1z M52.2,64.6v1.2h-1.9v-1.2
	H52.2z M52.2,66l-0.5,1.1h-1.4l0.2-1.1H52.2z M46.8,73.7h3.6v1h-3.6V73.7z M46.2,73.5v-1h1.2v1H46.2z M47.6,67.5h1.8v1.1h-1.8V67.5z
	 M47,67.2L46.9,66h1.5v1.1H47z M48.6,66h1.5L50,67.2h-1.4L48.6,66z M50.3,68.8V70h-0.5c0-0.7-0.5-1.2-1.2-1.2s-1.2,0.5-1.2,1.2h-0.5
	v-1.3L50.3,68.8z M51.1,70.2v1h-1.3v-1H51.1z M47.4,70.2v1h-1.3v-1H47.4z M49.8,73.5v-1h1.1v1H49.8z M50.5,73.7h1.6v1h-1.6V73.7z
	 M51.1,73.5v-1h1.5v1H51.1z M51.7,72.4h-1.9v-1h1.9V72.4z M51.3,71.2v-1h1v1H51.3z M51.8,70.1h-1.4v-1.3h1.4V70.1z M51.4,68.6v-1.1
	h1.3l0.2,1.1H51.4z M51.2,67.5v1.1h-1.6v-1.1H51.2z M48.6,65.8v-1.2h1.6v1.2H48.6z M49.5,63.9v0.5h-1.9v-0.5H49.5z M48.5,64.6v1.2
	h-1.6v-1.2H48.5z M47.5,67.5v1.1h-1.6v-1.1H47.5z M45.8,67.5v1.1h-1.5l0.2-1.1H45.8z M45.3,68.8h1.4V70h-1.4V68.8z M45.9,70.2v1h-1
	v-1H45.9z M45.4,71.4h2v1h-2V71.4z M46,72.6v1h-1.5v-1H46z M45,73.7h1.5v1h-1.5L45,73.7z M45.7,74.9v1h-1.6v-1H45.7z M45.1,76h1.7
	v0.9h-1.7V76z M45.9,75.8v-1h1.9v1H45.9z M46.9,76h1.6v0.9h-1.6V76z M47.9,75.8v-1h1.3v1H47.9z M48.6,76h1.5v0.9h-1.5V76z
	 M49.4,75.8v-1h1.9v1H49.4z M50.4,76h1.7v0.9h-1.7V76z M51.4,75.8v-1H53v1H51.4z M53.9,75.8h-0.8v-1h0.6L53.9,75.8z M53.8,74.7h-1.5
	v-1h1.3L53.8,74.7z M53.6,73.5h-0.8v-1h0.6L53.6,73.5z M53.4,72.3h-1.5v-1h1.4L53.4,72.3z M53.2,71.2h-0.8v-1h0.6L53.2,71.2z
	 M53.1,70H52v-1.3h0.9L53.1,70z M52.8,67.1h-0.9l0.5-1.1h1.8L52.8,67.1z M54.3,65.8h-1.9v-1.2h1.9V65.8z M53.3,63.4h1v1h-1V63.4z
	 M51.1,59.6h0.3V60c0,0.1,0,0.1,0.1,0.1h0.5c0.1,0,0.1-0.1,0.1-0.1v-0.5h0.3V60c0,0.1,0,0.1,0.1,0.1H53c0.1,0,0.1-0.1,0.1-0.1v-0.5
	h0.2v0.8h-2.2V59.6z M51.1,60.6h2.1L53,61.3h-1.7L51.1,60.6z M51.3,61.4H53l0.3,1.6h-0.7v-0.7c0-0.3-0.2-0.5-0.4-0.5l0,0
	c-0.2,0-0.4,0.1-0.4,0.5V63h-0.7L51.3,61.4z M49.7,63.4h1.4v1h-1.4L49.7,63.4z M49.4,61.3h-1.7l-0.2-0.7h2.1L49.4,61.3z M47.5,60.4
	v-0.8h0.3v0.5c0,0.1,0,0.1,0.1,0.1c0,0,0,0,0,0h0.5c0.1,0,0.1,0,0.1-0.1c0,0,0,0,0,0v-0.5h0.3v0.5c0,0.1,0,0.1,0.1,0.1c0,0,0,0,0,0
	h0.5c0.1,0,0.1,0,0.1-0.1v-0.5h0.2v0.8H47.5z M47.7,61.4h1.7l0.3,1.6h-0.6v-0.7c0-0.3-0.2-0.5-0.4-0.5l0,0c-0.2,0-0.4,0.1-0.4,0.5
	V63h-0.7L47.7,61.4z M46.1,63.4h1.4v1h-1.4V63.4z M43.9,59.6h0.3v0.5c0,0.1,0,0.1,0.1,0.1h0.5c0.1,0,0.1,0,0.1-0.1v-0.5h0.3v0.5
	c0,0.1,0,0.1,0.1,0.1h0.5c0.1,0,0.1,0,0.1-0.1c0,0,0,0,0,0v-0.5h0.2v0.8h-2.2L43.9,59.6z M43.9,60.6h2.2l-0.2,0.7h-1.7L43.9,60.6z
	 M44.1,61.4h1.7l0.3,1.6h-0.7v-0.7c0-0.3-0.2-0.5-0.4-0.5l0,0c-0.2,0-0.4,0.1-0.4,0.5V63h-0.7L44.1,61.4z M42.9,63.4h1v1h-1V63.4z
	 M42.9,64.5h1.7v1.2h-1.7V64.5z M42.9,66h1.7l0.4,1.1h-0.7L42.9,66z M44.2,68.7h0.9V70h-1.1L44.2,68.7z M44.1,70.2h0.7v1h-0.8
	L44.1,70.2z M43.9,71.4h1.4v1h-1.5L43.9,71.4z M43.7,72.5h0.7v1h-0.8L43.7,72.5z M43.5,73.7h1.4v1h-1.5L43.5,73.7z M43.4,74.8h0.7v1
	h-0.8L43.4,74.8z M43.2,76h1.7v0.9h-1.9L43.2,76z M42.9,77.2h11.4L55,78H42.1L42.9,77.2z M41.9,78.2h13.2l0.8,0.8H41.1L41.9,78.2z
	 M50.6,82.9v-1h1.6v1H50.6z M51.3,83.1v1h-0.7v-1H51.3z M50.6,81.8v-1h0.7v1H50.6z M53.3,80.8v1h-1.9v-1H53.3z M52.4,80.6v-1.4h1.9
	v1.4H52.4z M51.5,83.1h1.9v1h-1.9V83.1z M52.4,82.9v-1h2v1H52.4z M53.5,83.1h1.9v1h-1.9V83.1z M53.5,81.8v-1h1.9v1H53.5z M44.6,82.9
	h-2v-1h2V82.9z M45.5,83.1v1h-1.8v-1H45.5z M43.5,83.1v1h-1.8v-1H43.5z M43.5,80.8v1h-1.9v-1H43.5z M42.7,80.6v-1.4h1.9v1.4H42.7z
	 M43.7,81.8v-1h1.9v1H43.7z M40.9,79.2h1.7v1.4h-1.7V79.2z M40.9,80.8h0.6v1h-0.6V80.8z M40.9,81.9h1.6v1h-1.6V81.9z M40.9,83.1h0.6
	v1h-0.6V83.1z M42.4,85.1h-1.6v-0.9h1.6V85.1z M44.6,85.1h-2v-0.9h2V85.1z M46.4,85.1h-1.6v-0.9h1.6V85.1z M46.4,84.1h-0.7v-1h0.7
	V84.1z M46.4,82.9h-1.6v-1h1.6V82.9z M46.4,81.8h-0.7v-1h0.7V81.8z M48.6,79.7c-0.8,0-1.6,0.3-2.1,0.9h-1.8v-1.4h7.5v1.4h-1.8
	C50.1,80,49.4,79.7,48.6,79.7L48.6,79.7z M52.3,85.1h-1.6v-0.9h1.6V85.1z M54.4,85.1h-2v-0.9h2V85.1z M56.2,85.1h-1.6v-0.9h1.6V85.1
	z M56.2,84.1h-0.6v-1h0.6V84.1z M56.2,82.9h-1.6v-1h1.6V82.9z M56.2,81.8h-0.6v-1h0.6V81.8z M56.2,80.6h-1.7v-1.4h1.7l0,0L56.2,80.6
	z"/>
<path d="M10.8,65c-0.3-0.1-0.6-0.3-0.7-0.6v-0.1C10,64,10,63.8,9.5,63.7c0,0,0,0-0.1,0c0,0,0,0.1,0.1,0.1c0.3,0,0.4,0.2,0.4,0.5v0.1
	C10.1,64.7,10.4,65,10.8,65c0.3,0.2,0.5,0.3,0.7,0.6l0,0l0,0 M11.5,65.5c-0.2-0.2-0.4-0.4-0.7-0.5L11.5,65.5z"/>
<path d="M11.5,61.3c0,0,0.1-0.3,0.4-0.4c-0.3-0.2-0.8-0.2-1.1-0.1C11.1,60.8,11.2,61,11.5,61.3z"/>
<path d="M9.1,65.2L9.1,65.2L9.1,65.2L9.1,65.2c0,0.1,0,0.3,0.1,0.5h0.1l0,0c0,0,0,0,0-0.1C9.2,65.6,9.1,65.4,9.1,65.2z"/>
<path d="M10.2,65.3C10.2,65.3,10.2,65.3,10.2,65.3c0.1,0.2,0.2,0.4,0.3,0.6 M10.5,65.9L10.5,65.9C10.5,65.9,10.5,65.9,10.5,65.9
	c0-0.3-0.1-0.5-0.2-0.6L10.5,65.9z"/>
<path d="M9.5,65C9.5,65,9.5,64.9,9.5,65C9.5,64.9,9.5,64.9,9.5,65c0,0.2,0,0.4,0.1,0.6l0,0l0,0 M9.6,65.6c-0.1-0.2-0.2-0.4-0.1-0.6
	L9.6,65.6z"/>
<path d="M6.3,66.3c-0.2-0.1-0.2-0.1-0.4-0.4c0,0,0,0-0.1,0 M5.8,66c0.1,0.2,0.2,0.4,0.4,0.5l0.1,0.1l0,0l0,0L5.8,66z"/>
<path d="M10.7,65.3C10.7,65.3,10.6,65.3,10.7,65.3 M10.6,65.4c0.2,0.1,0.4,0.2,0.5,0.5v0.1l0,0l0,0 M11.1,65.8L11.1,65.8
	c-0.1-0.3-0.2-0.4-0.4-0.5L11.1,65.8z"/>
<path d="M8.8,65.2L8.8,65.2c-0.1,0.2-0.1,0.4-0.1,0.6c0,0,0,0,0.1,0l0,0c0,0,0,0,0-0.1C8.8,65.6,8.8,65.4,8.8,65.2
	C8.8,65.2,8.8,65.2,8.8,65.2z"/>
<path d="M8.4,65.3C8.4,65.3,8.4,65.3,8.4,65.3c-0.1,0.2-0.1,0.4-0.1,0.7c0,0,0,0,0.1,0l0,0 M8.4,65.9c0-0.2,0-0.4,0-0.6c0,0,0,0,0,0
	L8.4,65.9z"/>
<path d="M6.7,66.2c-0.1-0.1-0.3-0.2-0.3-0.4 M6.4,65.9C6.4,65.9,6.4,65.9,6.4,65.9c0,0.2,0.2,0.4,0.3,0.5h0.1L6.4,65.9z"/>
<path d="M7.8,65.5L7.8,65.5L7.8,65.5c0,0.2,0,0.4,0,0.5c0,0,0,0,0.1,0l0,0c0,0,0.1,0,0-0.1C7.8,65.8,7.7,65.7,7.8,65.5L7.8,65.5z"/>
<path d="M6.8,65.8L6.8,65.8L6.8,65.8c0,0.1,0,0.2,0.1,0.3l0,0l0,0l0,0 M6.9,66.1L6.9,66.1c0-0.1-0.1-0.1-0.1-0.2L6.9,66.1z"/>
<path d="M2.2,65.7c0.5,0.3,1,0.4,1.5,0.5c0.2,0,0.5-0.1,0.7-0.2c0.2-0.1,0.3-0.2,0.5-0.2c0,0.1,0,0.5,0.3,0.5h0.1
	c0.1,0,0.2,0,0.3,0.2c0.2,0.3,0.5,0.4,0.9,0.5c0.3,0,0.5-0.1,0.7-0.3l0.1-0.1c0.2-0.2,0.4-0.2,0.6-0.1c0.4,0.1,0.8,0.1,1.2-0.1
	c0.3-0.2,0.7-0.2,1,0c0.9,0.3,1.9,0.3,2.8,0.1l0,0c0.2,0.2,0.4,0.3,0.6,0.4c0,0,0.1,0,0.1,0c0,0,0-0.1,0-0.1c0-0.2,0-0.4,0-0.5
	c0.5,0.3,1.1,0.3,1.7,0.1c0,0,0.1-0.1,0.1-0.1c0,0,0-0.1-0.1-0.1c-0.1-0.1-0.2-0.2-0.4-0.3l-0.2-0.2c0.2,0,0.4,0,0.6-0.1l0.1,0
	c0.2-0.1,0.6-0.3,1.1-1.4c0,0,0-0.1,0-0.1c0,0-0.1,0-0.1,0c0,0,0,0,0,0c-0.2,0.1-0.3,0.2-0.5,0.2c0.4-0.3,0.7-0.8,0.8-1.3
	c0,0,0-0.1,0-0.1c0,0-0.1,0-0.1,0c-0.1,0.1-0.2,0.2-0.4,0.2c0.2-0.3,0.4-0.6,0.5-0.9c0,0,0-0.1,0-0.1c0,0-0.1,0-0.1,0c0,0,0,0,0,0
	c-0.2,0.2-0.5,0.3-0.8,0.3c0.3-0.2,0.5-0.5,0.7-0.8c0,0,0-0.1,0-0.1c0,0-0.1,0-0.1,0c-0.2,0.1-0.4,0.2-0.6,0.1
	c0.5-0.6,0.6-1.2,0.4-2.7c0,0-0.1-0.1-0.1-0.1c0,0-0.1,0-0.1,0.1c-0.1,0.7-0.7,1.3-1.4,1.4h-0.1c0.1-0.1,0.2-0.2,0.3-0.4
	c0.3-0.7,0.3-1.5-0.1-2.2c0,0-0.1-0.1-0.1,0c0,0,0,0,0,0c-0.1,0.1-0.2,0.3-0.3,0.4c-0.2,0.3-0.5,0.5-0.9,0.6c-0.6,0.1-1,0.5-1.3,1.1
	c-0.2-0.1-0.4-0.1-0.6-0.1c-0.5,0-0.9,0.2-1.2,0.5c-0.5-0.2-1.1-0.1-1.4,0.3c-0.2,0.2-0.2,0.2-0.4,0.1l-0.2-0.1
	c-0.5-0.3-1.2-0.3-1.7,0.1c0,0,0,0.1,0,0.1c0,0,0.1,0.1,0.1,0.1c0.2,0,0.4,0,0.6,0.1c0.1,0.1,0.1,0.2,0.1,0.2c0,0.1,0,0.2-0.1,0.2
	c-0.1,0.1-0.2,0.1-0.3,0.1H6.7H6.3c-0.1,0-0.1,0-0.2-0.1c-0.2-0.1-0.4-0.2-0.7-0.2l0,0c-0.3,0-0.5,0.1-0.7,0.3l0,0
	c-0.1,0.3-0.2,0.5-0.5,0.6C4.1,62.1,4,62.3,4,62.4c-0.1,0.3,0,0.6,0.1,0.8c0.2,0.2,0.4,0.3,0.7,0.3h0.2C5,63.7,5.1,63.9,5.3,64H5.1
	c-0.2,0-0.3,0.1-0.4,0.1c-0.2,0.1-0.4,0.2-1.1-0.1C3.3,64,3,64,2.3,64.4c-0.3,0.1-0.4,0.4-0.4,0.7C1.9,65.4,2,65.6,2.2,65.7z
	 M15.2,61.4c0,0,0,0.1,0,0.1c0,0,0,0.1,0.1,0.1c0.2,0,0.5,0,0.7,0c-0.3,0.4-0.7,0.7-1.2,0.8c-0.1,0-0.1,0.1-0.1,0.1
	c0,0.1,0.1,0.1,0.1,0.1c0.5,0,1-0.2,1.5-0.4c-0.2,0.4-0.5,0.7-0.8,0.9c0,0,0,0,0,0c-0.5,0.1-1.1,0.1-1.6,0c0.4-0.4,0.7-0.9,1-1.4
	l0,0c0,0,0,0-0.1,0c-0.2,0.1-0.3,0.1-0.5,0.1h0.1c0.7-0.4,1.2-1,1.5-1.6C15.7,60.7,15.5,61.1,15.2,61.4L15.2,61.4z M14.3,59.6
	c-0.1,0.3-0.4,0.5-0.6,0.6h-0.2h-0.2c0.3-0.2,0.5-0.5,0.7-0.8l0,0l0,0c0,0-0.2,0-0.5,0c0.4-0.2,0.7-0.5,0.9-0.8
	C14.6,59,14.5,59.3,14.3,59.6L14.3,59.6z M6.1,61.4h0.4h0.2c0.2,0,0.3,0,0.4-0.1c0.1-0.1,0.2-0.2,0.2-0.4c0-0.1,0-0.3-0.1-0.4
	c-0.1-0.1-0.2-0.1-0.3-0.1c0.4-0.1,0.8-0.1,1.1,0.1l0.2,0.1c0.2,0.1,0.4,0.2,0.6-0.2c0.3-0.3,0.7-0.4,1.1-0.2c0,0-0.1,0.1-0.1,0.1
	c0,0,0,0.1,0,0.1c0,0,0.1,0,0.1,0c0.3-0.4,0.7-0.7,1.2-0.7l0,0c0.2,0,0.4,0.1,0.6,0.2l0,0c0.1,0.1,0.2,0.1,0.3,0.2c0,0,0.1,0,0.1,0
	c0,0,0-0.1,0-0.1c0,0,0,0,0,0c-0.1-0.1-0.2-0.2-0.3-0.2c0.2-0.5,0.6-0.9,1.1-1c0.4-0.1,0.8-0.3,1-0.7c0.1-0.1,0.1-0.2,0.2-0.3
	c0.1,0.2,0.1,0.4,0.2,0.6c-0.3,0.4-0.6,0.7-1,0.9l-0.1,0.1c0,0,0,0,0,0.1s0,0,0,0c0.2,0,0.4,0,0.6,0c-0.2,0.3-0.5,0.6-0.8,0.8
	c-0.6,0.1-0.9,0.5-0.9,1.3c0,0,0,0.1,0.1,0.1s0.1,0,0.1-0.1c0-0.9,0.4-1.1,1.1-1.2h0.2l0,0l0.6-0.1c0.6-0.1,1.1-0.6,1.4-1.1
	c0,0.2,0,0.5,0,0.6c-0.3,0.8-0.8,1.4-1.6,1.8l-0.2,0.1 M13.9,61.7L13.9,61.7c0.2,0,0.4,0,0.6,0c-0.3,0.5-0.6,0.9-1,1.3c0,0,0,0,0,0
	l0,0c0.3,0,0.7,0.1,1,0.1c0.3,0,0.6,0,0.8,0c0,0,0.1,0,0.1,0c0.2-0.1,0.5-0.2,0.7-0.3c-0.2,0.5-0.6,1-1.1,1.1c0,0-0.1,0.1-0.1,0.1
	c0,0.1,0,0.1,0.1,0.1c0.3,0,0.7-0.1,1-0.2c-0.1,0.3-0.3,0.6-0.5,0.8c-0.8-0.1-1.6-0.4-2.3-0.9 M13.1,63.9
	C13.1,63.9,13.1,63.9,13.1,63.9c0.7,0.5,1.5,0.9,2.3,1c-0.1,0.1-0.2,0.1-0.3,0.2l-0.1,0c-0.3,0.1-0.7,0.1-1-0.1c0,0-0.1,0-0.1,0
	c0,0,0,0.1,0,0.1c0.3,0.2,0.6,0.4,0.8,0.5l0.2,0.2c-0.1,0-0.3,0-0.4,0c-0.5-0.3-1-0.7-1.4-1.1c0,0,0,0-0.1,0 M13,64.8
	c0.4,0.4,0.8,0.8,1.3,1.1c-0.3,0-0.6-0.1-0.8-0.3c0,0-0.1,0-0.1,0c0,0-0.1,0-0.1,0.1c0,0.2,0,0.4,0,0.6c-0.1-0.1-0.3-0.1-0.4-0.3
	l0,0v0l0,0c-0.2-0.3-0.3-0.6-0.4-0.9 M12.5,65.1C12.5,65.1,12.5,65.1,12.5,65.1c0.1,0.4,0.2,0.6,0.3,0.9c-0.9,0.2-1.8,0.2-2.7-0.1
	c-0.4-0.2-0.8-0.1-1.1,0c-0.3,0.1-0.7,0.1-1,0.1c-0.3-0.1-0.6,0-0.8,0.2L7,66.3c-0.2,0.2-0.6,0.5-1.2-0.1c-0.1-0.2-0.3-0.3-0.5-0.2
	H5.2c-0.1,0-0.1-0.2-0.1-0.4h0.2c0.3,0,0.7-0.1,1-0.1c0.2-0.1,0.4-0.2,0.5-0.4c0.2-0.2,0.4-0.3,0.6-0.4l0,0c0.1,0,0.2,0,0.3,0
	c0.2,0,0.3,0.1,0.5,0.1c0.1,0,0.3,0,0.4-0.1l0.1-0.1c0.1-0.1,0.1-0.1,0.5-0.1c0,0,0.1,0,0.1-0.1c0,0,0-0.1,0-0.1
	C9.3,64,9.1,63.9,9,63.8c-0.1-0.2-0.2-0.3-0.2-0.5l0,0l0,0c-0.1,0.1-0.1,0.2-0.2,0.3H8.5c0-0.2-0.1-0.4-0.2-0.6l0,0l0,0l0,0
	c0,0.2-0.1,0.4-0.3,0.6H8H7.9c0.2-0.1,0.3-0.3,0.3-0.6c0.1-0.3,0-0.7-0.2-0.9c-0.2-0.2-0.5-0.4-0.9-0.4H7.1c0,0,0,0,0,0
	c0.2,0.2,0.3,0.4,0.3,0.7c-0.1,0.3-0.2,0.5-0.5,0.6c-0.1,0-0.1,0.1-0.2,0.2c-0.1-0.1-0.1-0.2-0.2-0.3c0.2-0.1,0.3-0.3,0.3-0.6
	c0-0.3-0.1-0.6-0.4-0.7c-0.2-0.1-0.3-0.3-0.4-0.5c0-0.1,0-0.1-0.1-0.2c0,0,0,0,0-0.1c0,0.1,0,0.3,0,0.4L12.5,65.1z M6,65.4
	c-0.2-0.3-0.2-0.7-0.1-1l0.1,0.1c0.2,0.3,0.4,0.5,0.7,0.6c-0.1,0.1-0.2,0.2-0.3,0.2L6,65.4z M5.7,63.4c0.2,0.1,0.3,0.1,0.5,0
	c0,0.1,0.1,0.2,0.2,0.2c-0.1,0.2-0.2,0.4-0.2,0.7C5.9,64.1,5.8,63.8,5.7,63.4L5.7,63.4z M5.8,64.1L5.8,64.1C5.8,64,5.8,64,5.8,64.1
	L5.8,64.1L5.8,64.1z M6.5,63.8L6.5,63.8c0.1,0.1,0.1,0.2,0.1,0.2c0,0.1,0.1,0.1,0.1,0.1l0.1,0.1c0.1,0,0.2,0.1,0.2,0h0.2
	c0.1,0,0.3,0,0.4,0l0.2,0c0.2-0.1,0.4-0.1,0.6-0.1c-0.1,0.2-0.1,0.4-0.1,0.6c-0.1,0-0.3,0-0.4-0.1c-0.1,0-0.3,0-0.4,0l0,0
	c-0.4-0.1-0.8-0.2-1.2-0.4C6.3,64.1,6.3,63.9,6.5,63.8L6.5,63.8z M6.7,63.8c0-0.1,0.1-0.1,0.1-0.2l0,0c0.3-0.2,0.5-0.4,0.5-0.7
	c0-0.2-0.1-0.5-0.2-0.6c0.3,0,0.5,0.1,0.6,0.3c0.2,0.3,0.2,0.6,0.1,0.9c0,0.3-0.2,0.5-0.4,0.6l0,0c-0.2,0.1-0.4,0.1-0.6,0.1L6.8,64
	c0,0,0,0-0.1-0.1C6.6,63.9,6.6,63.8,6.7,63.8L6.7,63.8z M8,64c0.1-0.1,0.2-0.3,0.2-0.5c0.1,0.1,0.1,0.3,0.1,0.4L8,64z M8.7,63.7
	C8.8,64,9,64.3,9.2,64.5c-0.2,0-0.3,0.1-0.5,0.2H8.6c-0.1,0.1-0.1,0.1-0.2,0.1C8.4,64.4,8.5,64,8.7,63.7L8.7,63.7z M4,63.2
	C3.9,63,3.9,62.7,4,62.5c0-0.1,0.1-0.2,0.2-0.2c0.3-0.1,0.5-0.4,0.6-0.7c0.1-0.1,0.3-0.2,0.4-0.2l0,0c0.2,0,0.4,0.1,0.5,0.3l0.1,0.1
	C5.8,62,6,62.2,6.2,62.3c0.2,0.1,0.3,0.3,0.3,0.5c0,0.2-0.1,0.3-0.2,0.4c-0.3,0.2-0.4,0.1-0.5,0.1l0,0c-0.3-0.2-0.7-0.1-1,0
	C4.5,63.4,4.2,63.3,4,63.2L4,63.2z M5.2,63.4c0.1,0,0.3,0,0.4,0c0,0.1,0.1,0.3,0.1,0.4c0,0.1,0,0.1,0,0.2c0,0.1,0,0.1,0,0.2
	C5.4,63.9,5.3,63.6,5.2,63.4L5.2,63.4z M5.4,64L5.4,64c-0.1,0-0.1-0.1-0.1-0.1L5.4,64z M4.8,63.5L4.8,63.5l0.3-0.1
	c0,0.1,0.1,0.2,0.1,0.3c0,0.1,0,0.2,0,0.4C5,63.9,4.8,63.7,4.8,63.5L4.8,63.5z M2.2,64.6c0.3-0.2,0.6-0.3,0.9-0.4c0.1,0,0.2,0,0.2,0
	c0.8,0.3,1,0.2,1.2,0.1c0.1-0.1,0.3-0.1,0.4-0.1c0.2,0,0.4,0,0.6,0l0.1,0.1l0,0l0,0l0,0l0,0l0,0l0.2,0.1h0.1C6,64.5,6,64.5,6.1,64.6
	l0,0c0,0,0,0,0,0l0,0c0.3,0.1,0.6,0.2,0.8,0.3c-0.2,0.1-0.3,0.2-0.4,0.4l0,0c-0.3-0.1-0.5-0.3-0.7-0.6l-0.1-0.2 M5.7,64.4L5.7,64.4
	c-0.1,0.4-0.1,0.8,0.1,1.1c-0.2,0-0.4,0.1-0.5,0.1H5.1c-0.2,0-0.4,0-0.9,0.3s-0.8,0.2-2-0.3c-0.2-0.1-0.4-0.2-0.4-0.5
	c0-0.3,0.1-0.5,0.4-0.6L5.7,64.4z"/>
<path d="M9.4,62.6C9.4,62.6,9.4,62.6,9.4,62.6L9.4,62.6 M9.4,62.5c-0.1-0.1-0.2-0.2-0.4-0.3c0.1-0.2,0.1-0.3,0-0.5
	c0.1,0,0.2-0.1,0.2-0.1c0.2,0,0.5,0,0.8,0c-0.1,0.1-0.2,0.3-0.2,0.4c0,0.3,0.2,0.5,0.5,0.5c0,0,0,0,0,0h0.1c0,0.1,0.1,0.2,0.1,0.3
	l0,0v-0.1c0,0,0-0.1,0.1-0.1l0.1-0.1h0.1c0.1,0,0.2,0,0.3,0h0.1l-0.4-0.2c0,0,0-0.1,0-0.1c0,0,0-0.1,0-0.1c0,0,0-0.1,0-0.1v0l0,0
	l0,0c0-0.1-0.1-0.1-0.2-0.2l-0.1-0.1c0,0,0,0-0.1,0c-0.3,0.1-0.7,0.2-1.1,0.1H9.2c-0.1,0.1-0.2,0.1-0.3,0.1l0,0l0,0v0.5l0,0l0,0
	C9.3,62.4,9.4,62.6,9.4,62.5L9.4,62.5z M10.6,61.7l0.2,0.2l0,0c0,0.1,0,0.2,0,0.2l0,0c-0.2-0.1-0.3-0.2-0.4-0.4l0,0
	c0,0.2,0,0.4,0.1,0.6h-0.1c-0.2,0-0.4-0.3-0.4-0.5c0-0.2,0.2-0.3,0.4-0.4C10.4,61.6,10.5,61.6,10.6,61.7z"/>
<path d="M5.9,63c0.1,0,0.1,0,0.2,0c0.1-0.1,0.2-0.2,0.1-0.4l0,0c0-0.1-0.2-0.2-0.3-0.2c0,0,0,0-0.1,0c-0.1,0.1-0.1,0.1-0.1,0.2
	c0,0,0,0.1,0.1,0.1c-0.1,0-0.1,0.1-0.2,0.1c0,0,0,0-0.1,0c0,0,0,0,0,0.1C5.7,63,5.8,63,5.9,63z M6,62.7L6,62.7c0,0-0.1,0-0.1-0.1
	c0-0.1,0-0.1,0.1-0.1c0,0,0.1,0,0.1,0c0.1,0,0.1,0.1,0.1,0.1l0,0c0,0.1,0,0.2-0.1,0.2c-0.1,0-0.1,0-0.2,0C5.9,62.8,6,62.8,6,62.7
	L6,62.7z"/>
<path d="M4.5,62.2L4.5,62.2c-0.1,0-0.3,0-0.4,0.2c-0.1,0.1-0.1,0.3,0,0.5h0.1c0,0,0,0,0-0.1c0-0.1,0-0.1,0.1-0.2
	c0.1,0.1,0.1,0.1,0.2,0.1c0.1,0,0.2-0.1,0.2-0.1c0-0.1,0-0.1,0-0.2C4.6,62.4,4.6,62.3,4.5,62.2z M4.6,62.6c0,0-0.1,0.1-0.1,0.1
	c0,0,0,0-0.1-0.1l0,0l0,0c-0.1,0-0.1,0.1-0.1,0.1c0-0.1,0-0.1,0-0.2c0,0,0.2-0.1,0.2-0.1l0,0C4.6,62.4,4.6,62.4,4.6,62.6
	C4.7,62.6,4.6,62.5,4.6,62.6L4.6,62.6z"/>
<path d="M28.6,65c-0.3-0.1-0.6-0.3-0.7-0.6v-0.1c-0.1-0.3-0.1-0.5-0.5-0.6h-0.1v0.1c0.3,0,0.4,0.2,0.4,0.5v0.1
	C27.9,64.7,28.2,65,28.6,65c0.2,0.2,0.5,0.3,0.7,0.6l0,0l0,0c0,0,0-0.1,0-0.1C29.1,65.3,28.9,65.1,28.6,65z"/>
<path d="M29.3,61.3c0.1-0.2,0.2-0.3,0.4-0.4c-0.4-0.2-0.8-0.2-1.1-0.1C28.9,60.8,29.1,61,29.3,61.3z"/>
<path d="M27,65.2L27,65.2L27,65.2c-0.1,0.2,0,0.4,0,0.6l0,0l0,0c0,0,0,0,0-0.1C27,65.6,27,65.4,27,65.2L27,65.2z"/>
<path d="M28.1,65.4c0.1,0.1,0.2,0.3,0.3,0.5c0,0,0,0,0,0l0,0c0,0,0,0,0-0.1C28.3,65.6,28.2,65.4,28.1,65.4L28.1,65.4z"/>
<path d="M27.3,65C27.3,65,27.3,64.9,27.3,65C27.3,64.9,27.3,64.9,27.3,65c-0.1,0.2,0,0.4,0.1,0.6h0.1l0,0 M27.5,65.6
	c-0.1-0.2-0.2-0.4-0.1-0.6L27.5,65.6z"/>
<path d="M24.1,66.3c-0.2-0.1-0.2-0.1-0.4-0.4 M23.6,66c0.1,0.2,0.2,0.4,0.4,0.5l0.1,0.1l0,0l0,0c0,0,0,0,0-0.1L23.6,66z"/>
<path d="M28.5,65.3C28.5,65.3,28.5,65.3,28.5,65.3c0.2,0.1,0.4,0.3,0.5,0.5c0,0,0,0,0,0.1s0,0,0,0l0,0c0,0,0-0.1,0-0.1v-0.1
	C28.9,65.6,28.7,65.4,28.5,65.3L28.5,65.3z"/>
<path d="M26.6,65.2C26.6,65.2,26.6,65.2,26.6,65.2c-0.1,0.2-0.1,0.4-0.1,0.6c0,0,0,0,0.1,0l0,0 M26.6,65.8c0-0.2,0-0.4,0-0.6
	c0,0,0,0,0,0L26.6,65.8z"/>
<path d="M26.3,65.3L26.3,65.3c-0.1,0.2-0.1,0.4-0.1,0.7c0,0,0,0,0.1,0l0,0 M26.3,65.9c0-0.2,0-0.4,0-0.6c0,0,0,0,0,0V65.9z"/>
<path d="M24.6,66.2c-0.2-0.1-0.3-0.2-0.3-0.4c0,0,0,0-0.1,0 M24.2,65.9c0,0.2,0.2,0.3,0.3,0.4h0.1c0,0,0,0,0-0.1L24.2,65.9z"/>
<path d="M25.6,65.5L25.6,65.5L25.6,65.5L25.6,65.5c0,0.1,0,0.3,0,0.5c0,0,0,0,0.1,0l0,0c0,0,0,0,0-0.1
	C25.6,65.8,25.6,65.7,25.6,65.5z"/>
<path d="M24.7,65.8C24.7,65.8,24.6,65.8,24.7,65.8c-0.1-0.1-0.1,0-0.1,0l0,0c0,0.1,0.1,0.2,0.2,0.3l0,0l0,0l0,0 M24.7,66.1
	L24.7,66.1c-0.1-0.1-0.1-0.2-0.1-0.2L24.7,66.1z"/>
<path d="M20,65.7c0.5,0.3,1,0.4,1.5,0.5c0.3,0,0.5-0.1,0.7-0.2c0.2-0.1,0.3-0.2,0.5-0.2c0,0.1,0.1,0.5,0.3,0.5h0.1
	c0.1,0,0.2,0,0.3,0.2c0.2,0.3,0.5,0.4,0.9,0.5c0.3,0,0.5-0.1,0.7-0.3l0.1-0.1c0.2-0.2,0.4-0.2,0.6-0.1c0.4,0.1,0.8,0.1,1.2-0.1
	c0.3-0.2,0.7-0.2,1,0c0.9,0.3,1.9,0.3,2.8,0.1l0,0c0.2,0.2,0.4,0.3,0.6,0.4c0,0,0.1,0,0.1,0c0,0,0-0.1,0-0.1c0,0-0.1-0.1,0-0.5
	c0.5,0.3,1.1,0.3,1.7,0.1c0,0,0.1-0.1,0.1-0.1c0,0,0-0.1,0-0.1c-0.1-0.1-0.2-0.2-0.4-0.3l-0.2-0.2c0.2,0,0.4,0,0.6-0.1l0.1,0
	c0.2-0.1,0.6-0.3,1.1-1.4c0,0,0-0.1,0-0.1c0,0-0.1,0-0.1,0c0,0,0,0,0,0c-0.2,0.1-0.4,0.2-0.5,0.2c0.4-0.3,0.7-0.8,0.8-1.3
	c0,0,0-0.1,0-0.1c0,0-0.1,0-0.1,0c-0.1,0.1-0.2,0.2-0.4,0.2c0.2-0.3,0.4-0.6,0.5-0.9c0-0.1,0-0.1-0.1-0.1c0,0-0.1,0-0.1,0
	c-0.2,0.2-0.5,0.3-0.8,0.3c0.3-0.2,0.5-0.5,0.7-0.8c0,0,0-0.1,0-0.1c0,0-0.1,0-0.1,0c-0.2,0.1-0.4,0.2-0.7,0.1
	c0.5-0.6,0.6-1.2,0.4-2.7c0,0,0-0.1-0.1-0.1c0,0-0.1,0-0.1,0.1c-0.1,0.7-0.7,1.3-1.4,1.4h-0.1c0.1-0.1,0.2-0.2,0.3-0.4
	c0.3-0.7,0.3-1.5-0.1-2.2c0,0,0-0.1-0.1-0.1c0,0-0.1,0-0.1,0c-0.1,0.2-0.2,0.3-0.3,0.4c-0.2,0.3-0.5,0.5-0.9,0.6
	c-0.6,0.1-1,0.5-1.3,1.1c-0.2-0.1-0.4-0.1-0.6-0.1c-0.4,0-0.9,0.2-1.2,0.5c-0.5-0.2-1.1-0.1-1.4,0.3c-0.2,0.2-0.2,0.2-0.4,0.1
	l-0.2-0.1c-0.5-0.3-1.2-0.3-1.7,0.1c0,0,0,0.1,0,0.1c0,0,0.1,0.1,0.1,0.1c0.2,0,0.4,0,0.6,0.1c0.1,0.1,0.1,0.2,0.1,0.2
	c0,0.1,0,0.2-0.1,0.2c-0.1,0.1-0.2,0.1-0.3,0.1h-0.2h-0.4c-0.1,0-0.1,0-0.2-0.1c-0.2-0.1-0.4-0.2-0.7-0.2l0,0
	c-0.3,0-0.5,0.1-0.7,0.3l0,0c-0.1,0.3-0.3,0.5-0.5,0.6c-0.1,0.1-0.2,0.2-0.3,0.4c-0.1,0.3,0,0.6,0.1,0.8c0.2,0.2,0.4,0.3,0.7,0.3
	c0.1,0,0.1,0,0.2,0c0.1,0.2,0.2,0.4,0.4,0.5h-0.2c-0.2,0-0.3,0.1-0.5,0.1c-0.2,0.1-0.4,0.2-1.1-0.1c-0.3-0.1-0.6-0.1-1.3,0.3
	c-0.3,0.1-0.4,0.4-0.4,0.7C19.6,65.3,19.7,65.6,20,65.7z M33,61.4c0,0,0,0.1,0,0.1c0,0,0,0.1,0.1,0.1c0.2,0,0.5,0,0.7,0
	c-0.3,0.4-0.7,0.7-1.2,0.8c-0.1,0-0.1,0.1-0.1,0.1c0,0,0,0,0,0c0,0.1,0.1,0.1,0.1,0.1c0.5,0,1-0.2,1.5-0.4c-0.2,0.4-0.4,0.7-0.8,0.9
	c0,0,0,0,0,0c-0.5,0.1-1.1,0.1-1.6,0c0.4-0.4,0.7-0.9,1-1.4l0,0l0,0c-0.2,0.1-0.3,0.1-0.5,0.1h0.1c0.7-0.4,1.2-1,1.5-1.6
	C33.7,60.7,33.4,61.1,33,61.4L33,61.4z M32.2,59.6c-0.1,0.3-0.4,0.5-0.6,0.6h-0.2h-0.1c0.3-0.2,0.5-0.5,0.7-0.8l0,0l0,0
	c0,0-0.2,0-0.5,0c0.4-0.2,0.7-0.5,1-0.8C32.4,59,32.4,59.3,32.2,59.6L32.2,59.6z M23.9,61.4h0.4h0.2c0.2,0,0.3,0,0.4-0.1
	c0.1-0.1,0.2-0.2,0.2-0.4c0-0.1,0-0.3-0.1-0.4c-0.1-0.1-0.2-0.1-0.3-0.1c0.4-0.1,0.8-0.1,1.1,0.1l0.2,0.1c0.2,0.1,0.4,0.2,0.6-0.2
	c0.3-0.3,0.7-0.4,1.1-0.2l-0.1,0.1c0,0,0,0.1,0,0.1c0,0,0.1,0,0.1,0c0.3-0.4,0.7-0.7,1.2-0.7l0,0c0.2,0,0.4,0.1,0.6,0.2l0,0
	c0.1,0.1,0.2,0.1,0.3,0.2c0,0,0.1,0,0.1,0c0,0,0-0.1,0-0.1c-0.1-0.1-0.2-0.2-0.3-0.2c0.2-0.5,0.6-0.9,1.1-1c0.4-0.1,0.8-0.3,1-0.7
	c0.1-0.1,0.1-0.2,0.2-0.3c0.1,0.2,0.1,0.4,0.2,0.6c-0.3,0.4-0.6,0.7-1,0.9l-0.1,0.1c0,0,0,0,0,0.1c0,0,0,0,0,0c0.2,0,0.4,0,0.6,0
	c-0.2,0.3-0.5,0.6-0.8,0.8c-0.6,0.1-0.9,0.5-0.9,1.3c0,0.1,0,0.1,0.1,0.1c0.1,0,0.1,0,0.1-0.1c0,0,0,0,0,0c0-0.9,0.4-1.1,1.1-1.2
	h0.2l0,0l0.6-0.1c0.6-0.1,1.1-0.6,1.4-1.1c0,0.2,0,0.5,0,0.6c-0.3,0.8-0.8,1.4-1.5,1.8l-0.2,0.1c0,0,0,0,0,0c0,0,0,0,0,0
	c0.2,0,0.4,0,0.6,0c-0.3,0.5-0.6,0.9-1,1.3c0,0,0,0,0,0s0,0,0,0c0.3,0,0.7,0.1,1,0.1c0.4,0,0.6,0,0.8,0c0,0,0.1,0,0.1,0
	c0.3-0.1,0.5-0.2,0.7-0.3c-0.2,0.5-0.6,1-1.1,1.1c-0.1,0-0.1,0.1-0.1,0.1c0,0,0.1,0.1,0.1,0.1c0.3,0,0.7-0.1,1-0.2
	c-0.1,0.3-0.3,0.6-0.5,0.8c-0.8-0.1-1.6-0.4-2.3-0.9 M31,63.9c0.7,0.5,1.5,0.8,2.3,0.9C33.2,64.9,33.1,65,33,65l-0.1,0
	c-0.4,0.1-0.7,0.1-1-0.1c0,0-0.1,0-0.1,0c0,0,0,0.1,0,0.1c0.4,0.2,0.6,0.4,0.8,0.5l0.2,0.2c-0.1,0-0.2,0-0.4,0
	c-0.5-0.2-0.9-0.5-1.2-0.9c0,0,0,0-0.1,0c0,0,0,0,0,0.1c0.4,0.4,0.8,0.8,1.3,1.1c-0.3,0-0.6-0.1-0.9-0.3c0,0-0.1,0-0.1,0
	c0,0-0.1,0-0.1,0.1c0,0.2,0,0.4,0,0.6c-0.1-0.1-0.3-0.1-0.4-0.3l0,0l0,0l0,0c-0.2-0.3-0.3-0.6-0.4-0.9c0,0,0,0-0.1,0 M30.5,65.4
	c0.1,0.3,0.2,0.6,0.3,0.8c-0.9,0.2-1.8,0.2-2.7-0.1c-0.4-0.2-0.8-0.1-1.1,0c-0.3,0.1-0.7,0.1-1,0.1c-0.3-0.1-0.6,0-0.8,0.2L25,66.5
	c-0.2,0.2-0.6,0.5-1.2-0.1c-0.1-0.2-0.3-0.2-0.5-0.2h-0.2c-0.1,0-0.1-0.2-0.1-0.4h0.2c0.3,0,0.7-0.1,1-0.1c0.2-0.1,0.4-0.2,0.6-0.4
	c0.2-0.2,0.4-0.3,0.6-0.4l0,0c0.1,0,0.2,0,0.4,0c0.2,0,0.3,0.1,0.5,0.1c0.1,0,0.3,0,0.4-0.1l0.1-0.1c0.1-0.1,0.1-0.1,0.5-0.1
	c0,0,0.1,0,0.1-0.1c0,0,0-0.1,0-0.1c-0.1-0.1-0.2-0.2-0.4-0.3c-0.1-0.2-0.2-0.3-0.2-0.5l0,0c0,0,0,0-0.1,0c0,0-0.1,0.1-0.2,0.3h-0.1
	c0-0.2-0.1-0.4-0.2-0.6c0,0,0,0-0.1,0l0,0l0,0c0,0.2-0.1,0.4-0.2,0.6h-0.1h-0.1c0.2-0.1,0.3-0.3,0.3-0.6c0.2-0.5-0.1-1.1-0.6-1.3
	c-0.1,0-0.2-0.1-0.4,0c0,0,0,0-0.1,0 M24.9,62.1c0.2,0.2,0.3,0.4,0.3,0.7c-0.1,0.3-0.2,0.5-0.5,0.6c-0.1,0-0.1,0.1-0.2,0.2
	c-0.1-0.1-0.1-0.2-0.2-0.3c0.2-0.1,0.3-0.3,0.3-0.6c0-0.3-0.1-0.6-0.4-0.7c-0.2-0.1-0.3-0.3-0.4-0.5c0-0.1,0-0.1-0.1-0.2
	c0,0,0,0,0-0.1c0,0,0,0.1,0,0.1L24.9,62.1z M23.8,65.4c-0.2-0.3-0.2-0.7-0.1-1l0.1,0.1c0.2,0.3,0.4,0.5,0.7,0.6
	c-0.1,0.1-0.2,0.2-0.3,0.2L23.8,65.4z M23.5,63.4c0.2,0.1,0.3,0.1,0.5,0c0.1,0.1,0.1,0.2,0.2,0.2C24,63.9,24,64.1,24,64.4
	C23.8,64.1,23.6,63.8,23.5,63.4L23.5,63.4z M23.6,64.1L23.6,64.1L23.6,64.1L23.6,64.1z M24.3,63.8L24.3,63.8
	c0.1,0.1,0.1,0.2,0.1,0.2c0,0.1,0.1,0.1,0.1,0.1l0.1,0.1c0.1,0,0.2,0.1,0.2,0h0.2c0.1,0,0.3,0,0.4,0l0.2,0c0.2-0.1,0.4-0.1,0.6-0.1
	c-0.1,0.2-0.1,0.4-0.1,0.6c-0.1,0-0.3,0-0.4-0.1c-0.1,0-0.3,0-0.4,0l0,0c-0.4-0.1-0.8-0.2-1.2-0.4C24.1,64.1,24.2,63.9,24.3,63.8
	L24.3,63.8z M24.5,63.8c0-0.1,0.1-0.1,0.1-0.2l0,0c0.3-0.2,0.5-0.4,0.5-0.7c0-0.2-0.1-0.5-0.2-0.6c0.3,0,0.5,0.1,0.6,0.3
	c0.2,0.3,0.2,0.6,0.1,0.9c0,0.3-0.2,0.5-0.4,0.6l0,0c-0.2,0.1-0.4,0.1-0.6,0.1L24.6,64c0,0-0.1,0-0.1-0.1
	C24.4,63.9,24.4,63.8,24.5,63.8L24.5,63.8z M25.8,64c0.1-0.1,0.2-0.3,0.2-0.5c0.1,0.1,0.1,0.3,0.1,0.4L25.8,64z M26.5,63.7
	c0.1,0.3,0.2,0.6,0.5,0.8c-0.2,0-0.3,0.1-0.5,0.2l0,0c-0.1,0.1-0.1,0.1-0.2,0.1C26.3,64.4,26.3,64,26.5,63.7L26.5,63.7z M21.8,63.2
	c-0.1-0.2-0.1-0.4,0-0.7c0-0.1,0.1-0.2,0.2-0.2c0.3-0.1,0.5-0.4,0.6-0.7c0.1-0.1,0.3-0.2,0.5-0.2l0,0c0.2,0,0.4,0.1,0.5,0.3
	c0,0,0.1,0.1,0.1,0.1c0.1,0.2,0.2,0.4,0.5,0.5c0.2,0.1,0.3,0.3,0.3,0.5c0,0.2-0.1,0.3-0.2,0.4c-0.3,0.2-0.4,0.1-0.5,0.1l0,0
	c-0.3-0.2-0.7-0.1-1,0C22.3,63.4,22,63.3,21.8,63.2L21.8,63.2z M23,63.4c0.1,0,0.3,0,0.4,0c0,0.1,0.1,0.3,0.1,0.4c0,0.1,0,0.1,0,0.2
	c0,0.1,0,0.1,0,0.2C23.3,63.9,23.1,63.6,23,63.4L23,63.4z M23.2,64L23.2,64c-0.1,0-0.1-0.1-0.1-0.1C23.2,63.9,23.2,64,23.2,64
	L23.2,64z M22.6,63.5L22.6,63.5l0.3-0.1c0,0.1,0,0.2,0.1,0.3c0,0.1,0,0.2,0,0.4C22.8,63.9,22.7,63.7,22.6,63.5L22.6,63.5z M20,64.6
	c0.3-0.2,0.6-0.3,0.9-0.4c0.1,0,0.2,0,0.2,0c0.8,0.3,1,0.2,1.2,0.1c0.1-0.1,0.3-0.1,0.4-0.1c0.2,0,0.4,0,0.6,0l0.1,0.1l0,0l0,0l0,0
	l0,0l0,0l0.2,0.1l0,0c0.1,0.1,0.1,0.1,0.2,0.2h0.2c0,0,0,0,0,0l0,0c0.3,0.1,0.6,0.2,0.8,0.3c-0.2,0.1-0.3,0.2-0.4,0.4l0,0
	c-0.3-0.1-0.5-0.3-0.7-0.6c0-0.1-0.1-0.1-0.1-0.2s0,0-0.1,0s0,0,0,0c-0.1,0.4-0.1,0.8,0.1,1.1c-0.2,0-0.4,0.1-0.5,0.1H23
	c-0.2,0-0.4,0-0.9,0.3s-0.8,0.2-2-0.3c-0.2-0.1-0.4-0.2-0.4-0.5C19.7,64.9,19.8,64.7,20,64.6L20,64.6z"/>
<path d="M27.2,62.6C27.2,62.6,27.2,62.6,27.2,62.6L27.2,62.6 M27.3,62.5c-0.1-0.1-0.2-0.2-0.4-0.3c0.1-0.2,0.1-0.3,0-0.5
	c0.1,0,0.2-0.1,0.2-0.1c0.2,0,0.5,0,0.7,0c-0.1,0.1-0.2,0.3-0.2,0.4c0,0.3,0.2,0.5,0.5,0.5c0,0,0,0,0,0h0.1c0,0.1,0.1,0.2,0.1,0.3
	l0,0c0,0,0,0,0-0.1c0,0,0-0.1,0.1-0.1l0.1-0.1h0.1c0.1,0,0.2,0,0.3,0h0.2c-0.1-0.1-0.2-0.1-0.4-0.2c0,0,0,0,0-0.1c0,0,0-0.1,0-0.1
	c0,0,0-0.1,0-0.1V62l0,0c0-0.1-0.1-0.1-0.2-0.2l-0.1-0.1l0,0c-0.3,0.1-0.7,0.2-1.1,0.1h-0.1c-0.1,0.1-0.2,0.1-0.3,0.1l0,0l0,0v0.5
	l0,0l0,0C27.1,62.4,27.1,62.5,27.3,62.5L27.3,62.5z M28.4,61.7l0.2,0.2l0,0c0,0.1,0,0.2,0,0.2l0,0c-0.1-0.1-0.3-0.2-0.4-0.4l0,0
	c0,0.2,0,0.4,0.1,0.6h-0.1c-0.2,0-0.4-0.3-0.4-0.5c0-0.2,0.2-0.3,0.4-0.4C28.3,61.6,28.4,61.6,28.4,61.7z"/>
<path d="M23.7,63c0.1,0,0.1,0,0.2,0c0.1-0.1,0.2-0.2,0.1-0.4l0,0c0-0.1-0.1-0.2-0.2-0.2c-0.1,0-0.1,0-0.2,0
	c-0.1,0.1-0.1,0.1-0.1,0.2c0,0,0,0.1,0.1,0.1c0,0-0.1,0.1-0.2,0.1c0,0-0.1,0-0.1,0 M23.4,62.9c0.1,0,0.2,0.1,0.3,0.1L23.4,62.9z
	 M23.8,62.8C23.8,62.8,23.8,62.8,23.8,62.8L23.8,62.8c-0.1,0-0.1,0-0.1-0.1c0-0.1,0-0.1,0.1-0.1c0,0,0.1,0,0.1,0
	c0.1,0,0.1,0.1,0.1,0.1l0,0c0,0.1,0,0.2-0.1,0.2c-0.1,0-0.1,0-0.2,0C23.8,62.8,23.8,62.8,23.8,62.8L23.8,62.8z"/>
<path d="M22.4,62.2L22.4,62.2c-0.1,0-0.3,0-0.4,0.2c-0.1,0.1-0.1,0.3,0,0.5h0.1c0,0,0-0.1,0-0.1c0-0.1,0-0.1,0.1-0.2
	c0,0.1,0.1,0.1,0.1,0.1c0.1,0,0.2-0.1,0.2-0.1c0-0.1,0-0.1,0-0.2C22.5,62.4,22.4,62.3,22.4,62.2z M22.5,62.6c0,0-0.1,0.1-0.1,0.1
	c0,0-0.1,0-0.1-0.1s0,0,0,0l0,0c-0.1,0-0.1,0.1-0.1,0.1c0-0.1,0-0.1,0-0.2c0.1-0.1,0.1-0.1,0.2-0.1l0,0
	C22.4,62.4,22.5,62.4,22.5,62.6C22.5,62.5,22.5,62.5,22.5,62.6z"/>
<path d="M25.1,89.6c-0.3,0-0.6-0.3-0.7-0.6v-0.1c-0.1-0.3-0.1-0.5-0.5-0.6c0,0-0.1,0-0.1,0v0c0.3,0,0.4,0.2,0.4,0.5V89
	C24.3,89.4,24.6,89.6,25.1,89.6c0.2,0.2,0.5,0.4,0.7,0.6l0,0l0,0c0,0,0,0,0-0.1C25.6,89.9,25.3,89.7,25.1,89.6z"/>
<path d="M25.8,86c0.1-0.2,0.2-0.3,0.4-0.4c-0.4-0.2-0.8-0.2-1.1-0.1C25.4,85.5,25.5,85.7,25.8,86z"/>
<path d="M23.5,89.8L23.5,89.8L23.5,89.8L23.5,89.8c0,0.1,0,0.3,0.1,0.5l0,0l0,0c0,0,0,0,0-0.1C23.5,90.2,23.5,90,23.5,89.8z"/>
<path d="M24.6,90c0.1,0.1,0.2,0.3,0.2,0.5c0,0,0,0,0.1,0l0,0 M24.9,90.5c0-0.2-0.1-0.4-0.3-0.6L24.9,90.5z"/>
<path d="M23.8,89.6L23.8,89.6C23.8,89.6,23.7,89.6,23.8,89.6c-0.1,0.2,0,0.5,0.1,0.7l0,0l0,0c0,0,0-0.1,0-0.1
	C23.8,90.1,23.8,89.9,23.8,89.6z"/>
<path d="M20.6,91c-0.2-0.1-0.3-0.2-0.4-0.4 M20.1,90.6C20.1,90.6,20.1,90.6,20.1,90.6c0.1,0.3,0.2,0.4,0.4,0.5l0.1,0l0,0l0,0
	c0,0,0,0,0-0.1L20.1,90.6z"/>
<path d="M25.1,90c0.2,0.1,0.4,0.2,0.5,0.5l0.1,0.1l0,0l0,0c0,0,0,0,0-0.1v-0.1C25.5,90.2,25.3,90,25.1,90L25.1,90z"/>
<path d="M23.1,89.8C23.1,89.8,23.1,89.8,23.1,89.8c-0.1,0.2-0.1,0.4-0.1,0.6l0,0l0,0c0,0,0,0,0-0.1C23,90.2,23,90,23.1,89.8
	L23.1,89.8z"/>
<path d="M22.8,90C22.7,90,22.7,90,22.8,90c-0.1,0.3-0.1,0.5-0.1,0.7 M22.8,90.7L22.8,90.7C22.8,90.7,22.8,90.7,22.8,90.7
	c0-0.3,0-0.5,0.1-0.7c0,0,0-0.1-0.1-0.1V90.7z"/>
<path d="M21.1,90.8c-0.1-0.1-0.3-0.2-0.3-0.3c0,0,0,0-0.1,0c0,0,0,0,0,0.1c0,0.2,0.2,0.3,0.3,0.4l0,0l0,0l0,0V90.8z"/>
<path d="M22.1,90.1C22.1,90.1,22.1,90.1,22.1,90.1L22.1,90.1C22.1,90.1,22,90.1,22.1,90.1c-0.1,0.1,0,0.3,0,0.5l0,0l0,0
	c0,0,0,0,0-0.1C22.1,90.4,22.1,90.3,22.1,90.1z"/>
<path d="M21.1,90.4C21.1,90.4,21.1,90.4,21.1,90.4c-0.1,0-0.1,0-0.1,0c0,0.1,0.1,0.2,0.2,0.3l0,0l0,0l0,0c0,0,0,0,0-0.1l0,0
	C21.2,90.6,21.1,90.5,21.1,90.4z"/>
<path d="M18.3,86.6c-0.1,0.1-0.2,0.2-0.3,0.4c-0.1,0.3,0,0.6,0.1,0.8c0.2,0.2,0.4,0.3,0.7,0.3c0.1,0,0.1,0,0.2,0
	c0.1,0.2,0.2,0.4,0.4,0.5h-0.2c-0.2,0-0.3,0.1-0.5,0.2c-0.2,0.1-0.4,0.2-1.1-0.1c-0.3-0.1-0.6-0.1-1.3,0.3c-0.3,0.1-0.4,0.4-0.4,0.7
	c0,0.3,0.2,0.5,0.5,0.6c0.5,0.2,1,0.4,1.5,0.5c0.3,0,0.5-0.1,0.7-0.2c0.2-0.1,0.3-0.2,0.5-0.2c0,0.1,0,0.5,0.3,0.6h0.1
	c0.1,0,0.2,0,0.3,0.2c0.2,0.3,0.5,0.4,0.9,0.5c0.3,0,0.5-0.1,0.7-0.3c0,0,0,0,0.1-0.1c0.2-0.2,0.4-0.2,0.6-0.1
	c0.4,0.1,0.8,0.1,1.2-0.1c0.3-0.2,0.7-0.2,1,0c0.9,0.3,1.9,0.3,2.8,0.1l0,0c0.2,0.2,0.4,0.3,0.6,0.4c0,0,0.1,0,0.1,0
	c0,0,0-0.1,0-0.1c0,0-0.1-0.1-0.1-0.5c0.5,0.3,1.1,0.3,1.7,0.1c0,0,0.1,0,0.1-0.1c0,0,0-0.1,0-0.1c-0.1-0.1-0.2-0.2-0.4-0.3L29,90.2
	c0.2,0,0.4,0,0.6-0.1h0.1c0.2-0.1,0.6-0.3,1.1-1.4c0,0,0-0.1,0-0.1c0,0-0.1,0-0.1,0c-0.2,0.1-0.4,0.2-0.5,0.2
	c0.4-0.3,0.7-0.8,0.8-1.3c0,0,0-0.1,0-0.1c0,0,0,0,0,0c0,0-0.1,0-0.1,0c-0.1,0.1-0.2,0.2-0.4,0.2c0.2-0.3,0.4-0.6,0.5-0.9
	c0,0,0-0.1,0-0.1c0,0-0.1,0-0.1,0c-0.2,0.2-0.5,0.3-0.8,0.3c0.3-0.2,0.5-0.5,0.7-0.8c0,0,0-0.1,0-0.1c0,0-0.1,0-0.1,0
	C30.3,86,30.1,86,29.9,86c0.5-0.6,0.6-1.2,0.4-2.7c0,0,0-0.1-0.1-0.1c-0.1,0-0.1,0-0.1,0.1c-0.1,0.7-0.7,1.3-1.4,1.4h-0.1
	c0.1-0.1,0.2-0.2,0.3-0.4c0.3-0.7,0.3-1.5-0.1-2.2c0,0,0,0-0.1-0.1c0,0-0.1,0-0.1,0l-0.4,0.4c-0.2,0.3-0.5,0.5-0.9,0.6
	c-0.6,0.1-1,0.5-1.3,1.1c-0.2-0.1-0.4-0.1-0.6-0.1c-0.5,0-0.9,0.2-1.2,0.5C24,84.5,23.4,84.6,23,85c-0.2,0.2-0.2,0.2-0.4,0.1
	L22.4,85c-0.5-0.3-1.2-0.3-1.7,0.1c0,0,0,0.1,0,0.1c0,0,0.1,0.1,0.1,0.1c0.2,0,0.4,0,0.6,0.1c0.1,0.1,0.1,0.2,0.1,0.2
	c0,0.1,0,0.2-0.1,0.2c-0.1,0.1-0.2,0.1-0.3,0.1h-0.2h-0.4c-0.1,0-0.1,0-0.2-0.1c-0.2-0.1-0.4-0.2-0.7-0.2l0,0
	c-0.3,0-0.5,0.1-0.7,0.4l0,0C18.9,86.3,18.6,86.5,18.3,86.6z M19.1,88.1L19.1,88.1l0.3-0.1c0,0.1,0,0.2,0.1,0.3c0,0.1,0,0.2,0,0.4
	C19.3,88.5,19.2,88.3,19.1,88.1z M19.5,87.9c0.1,0,0.3,0,0.4,0c0,0.1,0.1,0.3,0.1,0.4c0,0.1,0,0.1,0,0.2c0,0.1,0,0.1,0,0.2
	C19.8,88.5,19.6,88.2,19.5,87.9z M19.7,88.6L19.7,88.6c-0.1,0-0.1-0.1-0.1-0.1C19.6,88.5,19.7,88.5,19.7,88.6z M18.6,90.4
	c-0.6,0.3-0.8,0.2-2-0.3c-0.2-0.1-0.4-0.2-0.4-0.5c0-0.2,0.1-0.4,0.3-0.5c0.3-0.2,0.6-0.3,0.9-0.4c0.1,0,0.2,0,0.2,0
	c0.8,0.3,1,0.2,1.2,0.1c0.1-0.1,0.3-0.1,0.4-0.1c0.2,0,0.4,0,0.6,0l0.1,0.1l0,0h0.1l0,0l0,0c0.1,0,0.2,0,0.2,0.1l0,0l0.2,0.2h0.1
	l0,0l0,0c0.3,0.1,0.6,0.2,0.8,0.3c-0.2,0.1-0.3,0.2-0.4,0.4l0,0c-0.3-0.1-0.5-0.3-0.7-0.6L20.1,89l0,0l0,0c-0.1,0.4-0.1,0.8,0.1,1.1
	l-0.5,0.1h-0.1C19.2,90.1,18.8,90.2,18.6,90.4z M21,88.7l0.1,0c0.1,0,0.2,0,0.2,0h0.2c0.1,0,0.3,0,0.4,0l0.2,0
	c0.2,0,0.4-0.1,0.6-0.1c-0.1,0.2-0.1,0.4-0.1,0.6c-0.1,0-0.3,0-0.4-0.1c-0.1,0-0.3,0-0.4,0l0,0c-0.4-0.1-0.8-0.2-1.2-0.4
	c0-0.2,0.1-0.3,0.1-0.5l0.1,0.1c0,0,0,0.1,0.1,0.1C20.9,88.6,21,88.6,21,88.7L21,88.7z M20.9,88.3c0-0.1,0.1-0.1,0.2-0.2l0,0
	c0.3-0.1,0.5-0.4,0.5-0.7c0-0.2-0.1-0.5-0.2-0.6c0.3,0,0.5,0.1,0.6,0.3c0.2,0.3,0.2,0.6,0.1,0.9c0,0.3-0.2,0.5-0.4,0.6l0,0
	c-0.2,0.1-0.4,0.1-0.6,0.1l-0.1-0.1c0,0-0.1,0-0.1-0.1C20.9,88.4,20.9,88.4,20.9,88.3L20.9,88.3z M22.3,88.5
	c0.1-0.1,0.2-0.3,0.2-0.5c0.1,0.1,0.1,0.3,0.1,0.4L22.3,88.5z M23,88.2c0.1,0.3,0.2,0.6,0.5,0.8c-0.2,0-0.3,0.1-0.5,0.2h-0.1
	c-0.1,0.1-0.1,0.1-0.2,0.1C22.7,88.9,22.8,88.6,23,88.2L23,88.2z M20.5,88.9c-0.2-0.3-0.4-0.6-0.5-0.9c0.2,0.1,0.3,0.1,0.5,0
	c0,0.1,0.1,0.2,0.2,0.2C20.5,88.5,20.5,88.7,20.5,88.9L20.5,88.9z M20.1,88.6L20.1,88.6L20.1,88.6L20.1,88.6
	C20.1,88.6,20.1,88.6,20.1,88.6L20.1,88.6z M20.9,89.8c-0.1,0.1-0.2,0.2-0.3,0.2h-0.3c-0.2-0.3-0.2-0.6-0.1-1c0,0,0,0.1,0.1,0.1
	C20.4,89.4,20.6,89.6,20.9,89.8L20.9,89.8z M29.5,86c0,0,0,0.1,0,0.1c0,0,0,0.1,0.1,0.1c0.2,0.1,0.5,0.1,0.7,0
	c-0.2,0.5-0.7,0.8-1.2,0.8C29,87,29,87,29,87.1c0,0,0,0,0,0c0,0.1,0.1,0.1,0.1,0.1c0.5,0,1-0.1,1.5-0.4c-0.2,0.4-0.4,0.7-0.8,0.9
	l0,0c-0.5,0.1-1.1,0.1-1.6,0c0.4-0.4,0.7-0.9,1-1.4 M29.1,86.3C29.1,86.3,29.1,86.3,29.1,86.3c-0.2,0.1-0.4,0.1-0.6,0.1h0.1
	c0.7-0.4,1.2-1,1.5-1.6c0,0.5-0.3,0.9-0.6,1.2L29.1,86.3z M28.7,84.2c-0.1,0.3-0.4,0.5-0.6,0.6h-0.2h-0.1c0.3-0.2,0.5-0.5,0.7-0.8
	l0,0l0,0c0,0-0.2,0-0.5,0c0.4-0.2,0.7-0.5,0.9-0.8C28.9,83.6,28.8,83.9,28.7,84.2L28.7,84.2z M20.4,86.1h0.4H21c0.2,0,0.3,0,0.4-0.1
	c0.1-0.1,0.2-0.2,0.2-0.4c0-0.1,0-0.3-0.1-0.4c-0.1-0.1-0.2-0.1-0.3-0.1c0.4-0.1,0.8-0.1,1.1,0.1c0.1,0,0.1,0.1,0.2,0.1
	c0.2,0.1,0.4,0.2,0.6-0.2c0.3-0.3,0.7-0.4,1.1-0.3l-0.1,0.1c0,0,0,0.1,0,0.1c0,0,0,0,0,0c0,0,0.1,0,0.1,0c0.3-0.4,0.7-0.7,1.2-0.7
	l0,0c0.2,0,0.4,0.1,0.6,0.2l0,0c0.1,0.1,0.2,0.1,0.3,0.2c0,0,0.1,0,0.1,0c0,0,0-0.1,0-0.1c-0.1-0.1-0.2-0.2-0.3-0.2
	c0.2-0.5,0.6-0.9,1.1-1c0.4-0.1,0.8-0.3,1-0.7l0.2-0.3c0.1,0.2,0.1,0.4,0.2,0.6c-0.3,0.4-0.6,0.7-1,0.9c0,0-0.1,0-0.1,0.1
	c0,0,0,0,0,0c0,0,0,0,0.1,0c0.2,0,0.4,0,0.6,0c-0.2,0.3-0.5,0.6-0.8,0.8c-0.6,0.1-0.9,0.4-0.9,1.3c0,0.1,0,0.1,0.1,0.1
	c0.1,0,0.1,0,0.1-0.1c0,0,0,0,0,0c0.1-0.9,0.4-1,1.1-1.2h0.2l0,0l0.6-0.1c0.6-0.1,1.1-0.6,1.4-1.1c0,0.2,0,0.4,0,0.6
	c-0.3,0.8-0.8,1.4-1.6,1.8l-0.2,0.1l0,0c0,0,0,0,0.1,0c0.2,0,0.4,0,0.6,0c-0.3,0.5-0.6,0.9-1,1.3c0,0,0,0,0,0l0,0
	c0.3,0.1,0.7,0.1,1,0.1c0.4,0,0.6,0,0.8,0s0.1,0.1,0.1,0c0.3-0.1,0.5-0.2,0.7-0.3c-0.2,0.5-0.6,1-1.1,1.1c-0.1,0-0.1,0-0.1,0.1
	s0,0.1,0.1,0.1c0.3,0,0.7-0.1,1-0.2c-0.1,0.3-0.3,0.6-0.5,0.8c-0.8-0.1-1.6-0.4-2.3-0.9c0,0,0,0-0.1,0 M27.4,88.5
	c0.7,0.5,1.5,0.8,2.3,0.9c-0.1,0.1-0.2,0.1-0.3,0.2l-0.1,0.1c-0.3,0.1-0.7,0-1-0.1c0,0-0.1,0-0.1,0c0,0,0,0.1,0,0.1
	c0.3,0.2,0.6,0.4,0.7,0.5l0.2,0.2c-0.1,0-0.3,0.1-0.4,0.1c-0.5-0.3-1-0.7-1.4-1.2 M27.4,89.3C27.4,89.3,27.4,89.4,27.4,89.3
	c0.4,0.5,0.8,0.8,1.3,1.1c-0.3,0-0.6-0.1-0.9-0.3c0,0-0.1,0-0.1,0c0,0-0.1,0.1-0.1,0.1c0,0.2,0,0.4,0,0.6c-0.1-0.1-0.3-0.1-0.4-0.3
	l0,0l-0.1,0l0,0c-0.2-0.3-0.3-0.6-0.4-0.9c0,0,0,0-0.1,0c0,0,0,0,0,0.1c0.1,0.3,0.2,0.6,0.3,0.9c-0.9,0.2-1.8,0.2-2.7-0.1
	c-0.4-0.2-0.8-0.1-1.1,0c-0.3,0.1-0.7,0.1-1,0.1c-0.3-0.1-0.6,0-0.8,0.2l-0.1,0.1c-0.2,0.2-0.6,0.5-1.2-0.1
	c-0.1-0.2-0.3-0.3-0.5-0.2h-0.1c-0.1,0-0.1-0.2-0.1-0.4h0.2c0.3,0,0.7-0.1,1-0.1c0.2-0.1,0.4-0.2,0.6-0.4c0.2-0.2,0.4-0.3,0.6-0.4
	l0,0c0.1,0,0.2,0,0.4,0c0.2,0,0.3,0.1,0.5,0.1c0.1,0,0.3,0,0.4-0.1l0.1-0.1c0.1-0.1,0.1-0.1,0.5-0.1c0,0,0.1,0,0.1-0.1
	c0,0,0-0.1,0-0.1c-0.1-0.1-0.2-0.2-0.4-0.3c-0.1-0.2-0.2-0.3-0.2-0.5l0,0c0,0,0,0-0.1,0c-0.1,0.1-0.1,0.2-0.2,0.3h-0.1
	c0-0.2-0.1-0.4-0.2-0.6c0,0,0,0-0.1,0l0,0l0,0c0,0.2-0.1,0.4-0.3,0.6h-0.2h-0.1c0.2-0.1,0.3-0.3,0.3-0.5c0.1-0.3,0-0.7-0.1-0.9
	c-0.2-0.2-0.5-0.4-0.9-0.4c0,0,0,0-0.1,0c0,0,0,0,0,0.1c0.2,0.2,0.3,0.4,0.3,0.7c-0.1,0.3-0.2,0.5-0.5,0.6c-0.1,0-0.1,0.1-0.2,0.1
	c-0.1-0.1-0.1-0.2-0.2-0.3c0.2-0.1,0.3-0.3,0.3-0.6c0-0.3-0.1-0.5-0.4-0.7c-0.2-0.1-0.3-0.3-0.4-0.5c0,0,0-0.1-0.1-0.2l-0.1,0
	c0,0.2,0.1,0.3,0.3,0.4L27.4,89.3z M19,86.1c0.1-0.1,0.3-0.2,0.5-0.2l0,0c0.2,0,0.4,0.1,0.5,0.3c0,0,0.1,0.1,0.1,0.1
	c0.1,0.2,0.2,0.4,0.5,0.5c0.2,0.1,0.3,0.3,0.3,0.5c0,0.2-0.1,0.3-0.2,0.4c-0.3,0.2-0.4,0.1-0.5,0.1l0,0c-0.3-0.2-0.7-0.1-1,0
	c-0.3,0.1-0.6,0-0.8-0.1c-0.1-0.2-0.1-0.4-0.1-0.7c0-0.1,0.1-0.2,0.2-0.2C18.7,86.7,19,86.4,19,86.1L19,86.1z"/>
<path d="M23.7,87.2L23.7,87.2L23.7,87.2 M23.7,87.1c-0.1-0.1-0.2-0.2-0.4-0.3c0.1-0.2,0.1-0.3,0-0.5c0.1,0,0.2-0.1,0.2-0.1
	c0.2,0.1,0.5,0.1,0.7,0c-0.1,0.1-0.2,0.2-0.2,0.4c0,0.3,0.2,0.5,0.5,0.5c0,0,0,0,0,0h0.1c0,0.1,0.1,0.2,0.1,0.3l0,0c0,0,0,0,0-0.1
	l0.1-0.1l0.1-0.1h0.1c0.1,0,0.2,0,0.3,0h0.1c-0.1-0.1-0.2-0.1-0.4-0.2c0,0,0-0.1,0-0.1c0,0,0-0.1,0-0.1c0,0,0-0.1,0-0.1v-0.1l0,0
	c0-0.1-0.1-0.2-0.2-0.2l-0.1-0.1 M24.7,86.2c-0.3,0.1-0.7,0.2-1.1,0.1h-0.1c-0.1,0.1-0.2,0.1-0.3,0.2l0,0c0,0,0,0,0,0
	c0.1,0.1,0,0.5,0,0.5l0,0l0,0c0.4,0,0.5,0.2,0.5,0.2L24.7,86.2z M24.9,86.3l0.2,0.2l0,0c0,0.1,0,0.2,0,0.3l0,0
	c-0.2-0.1-0.3-0.2-0.4-0.4l0,0c0,0.2,0,0.4,0.1,0.6h-0.1c-0.2,0-0.4-0.3-0.4-0.5c0-0.2,0.2-0.3,0.4-0.4
	C24.8,86.2,24.8,86.3,24.9,86.3L24.9,86.3z"/>
<path d="M20.2,87.6c0.1,0,0.1,0,0.2,0c0.1-0.1,0.2-0.2,0.1-0.4l0,0c0-0.1-0.1-0.2-0.2-0.2c-0.1,0-0.1,0-0.2,0
	c-0.1,0.1-0.1,0.1-0.1,0.2c0,0,0,0.1,0.1,0.1c0,0-0.1,0.1-0.2,0.1c0,0-0.1,0-0.1,0c0,0,0,0,0,0.1C20,87.5,20.1,87.6,20.2,87.6z
	 M20.3,87.3L20.3,87.3h-0.1c0-0.1,0-0.1,0.1-0.1c0,0,0.1,0,0.1,0c0.1,0,0.1,0.1,0.1,0.1l0,0c0,0,0,0.2-0.1,0.2c-0.1,0-0.1,0-0.2,0
	C20.2,87.5,20.3,87.4,20.3,87.3L20.3,87.3z"/>
<path d="M18.6,87.5L18.6,87.5C18.6,87.5,18.6,87.4,18.6,87.5c0-0.1,0-0.2,0.1-0.2c0,0.1,0.1,0.1,0.1,0.1c0.1,0,0.2-0.1,0.2-0.1
	c0-0.1,0-0.1,0-0.2c0-0.2-0.1-0.2-0.2-0.2l0,0c-0.1,0-0.3,0-0.4,0.1c-0.1,0.1-0.1,0.3,0,0.5L18.6,87.5z M18.6,87
	c0,0,0.2-0.1,0.2-0.1l0,0c0.1,0,0.1,0,0.1,0.1c0,0,0,0.1,0,0.1c0,0-0.1,0.1-0.1,0.1c0,0,0,0-0.1-0.1c0,0,0,0,0,0l0,0
	c-0.1,0-0.1,0.1-0.1,0.1C18.6,87.2,18.6,87.1,18.6,87L18.6,87z"/>
<path d="M24.1,46.3c0.7-1.1,1.8-2.9,1.1-4.3c-0.4-0.9-1.2-1.4-2.2-1.5c-0.9-0.1-1.7,0.3-2.2,1c-0.3,0.6-0.3,1.3,0,1.9
	c0.3,0.4,0.7,0.6,1.2,0.5c0.2,0,0.4-0.2,0.5-0.3c0.1-0.2,0.2-0.4,0.1-0.6c-0.1-0.3-0.4-0.5-0.7-0.6c-0.1,0-0.3,0-0.4,0.1
	c0-0.2,0.1-0.5,0.2-0.7c0.4-0.3,0.9-0.4,1.3-0.3c0.4,0.1,0.8,0.5,1,0.9c0.2,0.3,0.3,0.7,0.2,1v0.1c-0.2,0.6-0.4,1.2-2.2,2
	c0,0-0.1,0-0.1,0.1c0,0,0,0.1,0,0.1c0.2,0.2,0.5,0.4,0.9,0.4c-0.5,0.8-0.8,1.7-0.8,2.7c-0.4-0.8-0.9-1.6-1.5-2.3l-0.2-0.2
	c-1-1.3-0.5-2.2,0-3.2c0,0,0-0.1,0-0.1l0,0v-1.1c0,0,0-0.1-0.1-0.1h-4.6c0,0-0.1,0-0.1,0.1v1.1l0,0c0,0,0,0.1,0,0.1
	c0.5,0.9,1,1.8,0,3.2c0,0.1-0.1,0.2-0.2,0.2c-0.6,0.7-1.1,1.5-1.5,2.4c0.1-1-0.2-1.9-0.7-2.7c0.3,0,0.7-0.1,0.9-0.4c0,0,0-0.1,0-0.1
	c0,0,0-0.1-0.1-0.1c-1.8-0.8-2-1.4-2.2-2v-0.1c-0.1-0.3,0-0.7,0.2-1c0.2-0.4,0.6-0.7,1-0.9c0.5-0.2,1-0.1,1.3,0.3
	c0.2,0.2,0.3,0.4,0.2,0.7c-0.1-0.1-0.3-0.1-0.4-0.1c-0.3,0.1-0.6,0.3-0.7,0.6c0,0.2,0,0.4,0.1,0.6c0.1,0.2,0.3,0.3,0.5,0.3
	c0.5,0.1,0.9-0.1,1.2-0.5c0.3-0.6,0.3-1.3,0-2c-0.5-0.7-1.3-1.1-2.2-1c-0.9,0.1-1.8,0.6-2.2,1.5c-0.7,1.4,0.4,3.2,1.1,4.3
	c0.2,0.3,0.4,0.6,0.5,0.9c0.4,0.7,0.4,1.5,0,2.2c-0.1-0.1-0.1-0.2-0.2-0.2c-0.3-0.1-0.7-0.1-0.9,0.2c-0.3,0.3-0.3,0.8-0.1,1.2
	c0.1,0.2,0.4,0.4,0.6,0.5h0.2c0.3,0,0.6-0.1,0.8-0.3c0.3-0.3,0.5-0.6,0.6-0.9c-0.4,1.5-0.1,3.3,1.9,5.1v0.7h5v-0.7h0.1
	c2-1.7,2.3-3.5,2-5c0.2,0.3,0.3,0.5,0.6,0.8c0.2,0.2,0.5,0.3,0.8,0.3h0.2c0.3,0,0.5-0.2,0.6-0.5c0.3-0.4,0.3-0.9,0-1.2
	c-0.2-0.2-0.6-0.3-0.9-0.2c-0.1,0.1-0.2,0.1-0.2,0.2c-0.4-0.7-0.4-1.5,0-2.2C23.8,46.9,23.9,46.6,24.1,46.3z M15.9,41.9h4.5v1h-4.5
	V41.9z M12.9,50.6c-0.2,0.2-0.5,0.3-0.8,0.2c-0.2,0-0.4-0.2-0.5-0.4c-0.2-0.3-0.2-0.7,0-1c0.1-0.1,0.3-0.2,0.5-0.2
	c0.1,0,0.1,0,0.2,0c0.1,0.1,0.2,0.2,0.2,0.3c0,0,0.1,0,0.1,0c0,0,0.1,0,0.1,0c0.6-0.7,0.6-1.7,0.1-2.5c-0.2-0.3-0.3-0.6-0.5-0.9
	c-0.7-1.2-1.8-2.8-1.1-4.1c0.4-0.8,1.1-1.3,2-1.4c0.8-0.1,1.5,0.3,2,0.9c0.3,0.5,0.3,1.2,0,1.8c-0.2,0.3-0.6,0.5-1,0.4
	c-0.2,0-0.3-0.1-0.4-0.3c-0.1-0.1-0.1-0.3-0.1-0.5c0.1-0.2,0.3-0.4,0.5-0.5l0,0c0.1,0,0.3,0.1,0.4,0.1l0,0c0,0,0.1,0,0.1,0
	c0,0,0,0,0.1-0.1c0.1-0.4,0-0.8-0.3-1c-0.4-0.4-1-0.5-1.5-0.3c-0.5,0.1-0.9,0.5-1.1,1c-0.2,0.3-0.3,0.8-0.2,1.2v0.1
	c0.2,0.6,0.4,1.3,2.2,2.1c-0.2,0.2-0.4,0.2-0.7,0.2h-0.1c0,0-0.1,0-0.1,0c0,0,0,0.1,0,0.1C13.7,47.3,14.4,48.9,12.9,50.6L12.9,50.6z
	 M20.3,55.4h-4.6v-0.5h4.6V55.4z M20.5,54.7h-4.8c-3.8-3.3-1.3-6.6,0-8.2l0.2-0.2c0.8-0.9,0.8-2.3,0.1-3.2h4.3
	c-0.7,1-0.7,2.3,0.1,3.2l0.2,0.2C21.7,48.2,24.2,51.4,20.5,54.7L20.5,54.7z M23.5,49.6C23.5,49.7,23.6,49.7,23.5,49.6
	c0.1,0,0.2,0,0.2-0.1c0.1-0.1,0.1-0.2,0.2-0.3c0.2-0.1,0.5,0,0.7,0.2c0.2,0.3,0.2,0.7,0,1c-0.1,0.2-0.3,0.3-0.5,0.4
	c-0.3,0-0.6,0-0.8-0.2c-1.5-1.7-0.9-3.2,0-4.5c0,0,0-0.1,0-0.1c0,0-0.1-0.1-0.1-0.1H23c-0.2,0-0.5,0-0.7-0.2c1.8-0.8,2-1.5,2.2-2.1
	v-0.1c0.1-0.4,0-0.8-0.2-1.2c-0.2-0.5-0.6-0.8-1.1-1c-0.5-0.2-1.1-0.1-1.5,0.3c-0.3,0.2-0.4,0.6-0.3,1c0,0,0,0.1,0.1,0.1
	c0,0,0.1,0,0.1,0l0,0c0.1-0.1,0.3-0.1,0.4-0.1c0.2,0.1,0.4,0.3,0.5,0.5c0,0.2,0,0.3-0.1,0.5c-0.1,0.1-0.2,0.2-0.4,0.2
	c-0.4,0.1-0.8-0.1-1-0.4c-0.3-0.5-0.3-1.2,0-1.7c0.5-0.6,1.2-1,2-0.9c0.9,0.1,1.6,0.6,2,1.4c0.6,1.3-0.4,2.9-1.1,4.1
	c-0.2,0.3-0.4,0.6-0.5,0.9C22.8,47.9,22.9,48.9,23.5,49.6L23.5,49.6z"/>
<path d="M20.4,48.8c0.1,0.3,0,0.7-0.2,1c-0.2-0.2-0.5-0.3-0.7-0.5c0.1-0.1,0.3-0.3,0.4-0.4c0.3-0.3,0.4-0.6,0.3-0.8
	s-0.3-0.3-0.7-0.3c-0.7-0.1-1.4,0.2-1.9,0.6c-0.6-0.2-0.8-0.6-0.9-1.7c0,0,0-0.1-0.1-0.1c0,0-0.1,0-0.1,0C16,47,15.8,47.6,16,48.1
	c-0.4,0.2-0.7,0.5-0.8,1c0,0,0,0.1,0,0.1c0,0,0.1,0,0.1,0c0.4-0.2,0.9-0.2,1.4-0.1c0.1,0,0.2,0.1,0.2,0.1c-0.1,0.1-0.2,0.3-0.2,0.4
	c-0.1,0.3-0.2,0.5-0.3,0.7c-0.3-0.2-0.7-0.3-1.1-0.2c-0.2,0-0.5,0.1-0.6,0.2c-0.1,0.2-0.1,0.4,0,0.6c0.3,0.5,0.7,0.9,1.2,1.1v0
	c-0.2,0.3-0.5,0.6-0.9,0.7c0,0-0.1,0-0.1,0.1c0,0,0,0.1,0.1,0.1c0.4,0.1,0.8,0.1,1.2,0c0.2,0.3,0.5,0.6,0.9,0.7l0,0c0,0,0.1,0,0.1,0
	c0,0,0-0.1,0-0.1c-0.2-0.4-0.3-0.8-0.2-1.2c0.2,0,0.4,0.1,0.6,0.1c0.4,0,0.8-0.1,1.2-0.3l0.1-0.1c0.3-0.2,0.6-0.3,0.8-0.6
	c0.2,0.2,0.5,0.3,0.7,0.4c0.1,0,0.2,0.1,0.4,0.1c0.2,0,0.3-0.1,0.4-0.2c0.2-0.4,0.2-0.9,0-1.2c0,0-0.1-0.1-0.1-0.2
	c0.3-0.1,0.6-0.1,0.8-0.1c0,0,0.1,0,0.1,0c0,0,0-0.1,0-0.1c-0.2-0.4-0.6-0.6-1-0.6c0-0.4-0.2-0.8-0.5-1
	C20.5,48.7,20.4,48.7,20.4,48.8C20.4,48.7,20.4,48.8,20.4,48.8z M16.7,49c-0.4-0.1-0.9-0.1-1.3,0c0.1-0.5,0.4-0.6,0.6-0.7l0,0
	c0,0.1,0,0.2,0.1,0.2c0,0,0.1,0.1,0.1,0.1c0,0,0,0,0,0c0.1,0,0.1-0.1,0.1-0.1c0-0.1,0-0.1,0-0.2l0,0c0,0,0-0.1,0-0.1c0,0,0,0,0,0
	c-0.1-0.4,0-0.8,0.3-1.1c0.1,0.9,0.3,1.3,0.9,1.6c-0.2,0.2-0.3,0.3-0.4,0.5C17,49.1,16.9,49,16.7,49L16.7,49z M16.8,49.8
	c0.3-0.6,0.7-1.2,1.3-1.5c0,0.3,0.2,0.6,0.4,0.7l0,0l0,0 M18.6,48.9c-0.2-0.1-0.4-0.4-0.4-0.7C18.5,48,19,48,19.4,48
	c0.3,0,0.5,0.1,0.6,0.2l0,0c-0.2,0-0.4,0.1-0.6,0.2 M19.4,48.5L19.4,48.5L19.4,48.5c0.1-0.1,0.3-0.2,0.5-0.2c0,0.2-0.1,0.3-0.2,0.5
	c-0.6,0.6-1.2,1.1-1.9,1.6c-0.2,0.2-0.4,0.4-0.5,0.6l-0.1,0l0,0l-0.3-0.2l-0.3-0.1c0.2-0.3,0.3-0.5,0.4-0.8L19.4,48.5z M18.2,50.3
	c0.1,0.1,0.2,0.2,0.2,0.2l0.3,0.4c-0.7,0.3-0.9,0.3-1.3,0.1c0.1-0.2,0.3-0.4,0.5-0.5L18.2,50.3z M16.2,53c0-0.1-0.1-0.2-0.1-0.3
	c0,0-0.1,0-0.1,0c0,0-0.1,0.1-0.1,0.1c0,0,0,0,0,0c0,0.1,0,0.1,0.1,0.2c-0.3,0-0.5,0-0.8,0c0.3-0.2,0.5-0.4,0.7-0.7c0,0,0,0,0-0.1
	c0.2,0.1,0.4,0.2,0.6,0.2l0,0c-0.1,0.4,0,0.8,0.1,1.1C16.5,53.5,16.3,53.2,16.2,53L16.2,53z M18.8,52L18.6,52
	c-0.6,0.3-1.3,0.4-2,0.2c-0.8-0.1-1.4-0.6-1.8-1.3c0-0.1,0-0.2,0-0.3c0.3,0,0.4,0.1,0.5,0.3l0,0l0,0 M15.3,50.9
	c-0.1-0.2-0.3-0.3-0.6-0.3l0,0c0,0,0.2-0.2,0.4-0.2h0.1c0.3,0,0.7,0.1,1,0.2c0,0.3,0,0.5-0.3,0.6c0,0,0,0,0,0.1c0,0,0,0,0.1,0l0,0
	c0.3-0.1,0.4-0.4,0.4-0.7l0.3,0.1l0.3,0.2l0,0l0.2,0.1l0,0c0.6,0.3,0.8,0.3,1.7-0.1l0.2,0.2l0.1,0.1l0.2,0.1
	c-0.2,0.2-0.4,0.4-0.6,0.6L15.3,50.9z M21.1,51.7L21.1,51.7c-0.3-0.3-0.5-0.5-0.7-0.6c0,0,0,0-0.1,0c0,0,0,0,0,0.1
	c0.2,0.1,0.4,0.3,0.6,0.5l0.1,0.1c-0.2,0.1-0.3,0.1-0.5,0c-0.4-0.1-0.7-0.4-1-0.6L19.3,51l-0.1-0.1c0,0-0.1-0.1-0.1-0.1l0,0
	c-0.1-0.1-0.3-0.3-0.4-0.5c-0.1-0.1-0.1-0.2-0.2-0.2c0.3-0.2,0.6-0.5,0.9-0.7c0.3,0.2,0.7,0.4,1,0.7l0.1,0c0.2,0.2,0.4,0.4,0.6,0.6
	C21.2,51.2,21.2,51.6,21.1,51.7L21.1,51.7z M20.7,49c0.2,0.2,0.3,0.5,0.2,0.7c0,0.1,0,0.1,0.1,0.1h0c0.3,0,0.6,0.1,0.8,0.4
	c-0.3,0-0.5,0-0.8,0.1l-0.1-0.1l-0.2-0.2l-0.1,0l-0.2-0.2C20.6,49.6,20.6,49.3,20.7,49L20.7,49z"/>
<path d="M19.3,48.2C19.3,48.1,19.2,48.1,19.3,48.2c-0.1-0.1-0.1,0-0.1,0C19.1,48.2,19.1,48.3,19.3,48.2
	C19.2,48.3,19.3,48.2,19.3,48.2L19.3,48.2z"/>
<path d="M20.5,51C20.5,51,20.6,51.1,20.5,51c0.1,0.1,0.1,0,0.1,0S20.6,50.9,20.5,51L20.5,51C20.6,50.9,20.5,51,20.5,51z"/>
<path d="M15.4,50.6C15.4,50.6,15.4,50.6,15.4,50.6c0.1,0.1,0.1,0,0.1,0C15.5,50.5,15.5,50.5,15.4,50.6
	C15.5,50.5,15.4,50.6,15.4,50.6z"/>
<path d="M19.6,50.4c-0.1,0.1-0.1,0.3-0.1,0.4l0,0l0,0c0,0,0,0,0-0.1C19.5,50.6,19.5,50.5,19.6,50.4c0.1-0.1,0.3-0.2,0.5-0.2
	c0,0,0,0,0.1,0c0,0,0,0-0.1,0C19.9,50.2,19.7,50.3,19.6,50.4z"/>
<path d="M15.2,41.2L15.2,41.2h0.5H16c0,0,0,0,0.1,0c0,0,0-0.1,0-0.1c-0.5-0.9-1.3-1.5-2.3-1.8l-0.3-0.1c-1.3-0.5-2.7-0.5-4,0H9.5
	c-0.8,0.3-1.6,0.7-2.3,1.3c-0.4,0.3-0.7,0.7-1,1.1l-0.1,0.1l-0.2,0.2l0,0l-0.5,0.2c-0.7,0.3-1.1,0.9-1.2,1.6
	c-0.1,0.5-0.2,1.1-0.1,1.6c0,0.1,0.1,0.1,0.1,0.1c0.1,0,0.1,0,0.3-0.1s0.1-0.2,0.2-0.2v-0.1c0.1-0.1,0.1-0.2,0.2-0.3v-0.1
	c0-0.1,0.1-0.2,0.1-0.3c0,0,0,0,0,0c0-0.1,0.1-0.3,0.1-0.4c0-0.1,0-0.1,0-0.2c0-0.2,0.1-0.5,0.3-0.7c0.1-0.1,0.2-0.1,0.2-0.2
	c0,0.1-0.1,0.1-0.1,0.1l-0.1,0.1c-0.1,0.2-0.1,0.3-0.1,0.5c-0.1,0.5-0.3,1-0.5,1.4c-0.2,0.2-0.2,0.5-0.1,0.6l0,0
	c0,0,0.1,0.1,0.2,0.1c0.1,0,0.3-0.1,0.4-0.2l0.2-0.1c0.8-0.4,1.3-1.2,1.3-2.1c0-0.1,0-0.3,0-0.4c-0.1-0.4,0-0.9,0.3-1.3l0,0
	c0.9-1.1,2.2-1.9,3.6-2.1l0.4,0c0.6-0.1,1.1-0.1,1.7,0c-0.2,0-0.4,0-0.6,0c-0.7,0.1-1.4,0.3-2,0.7c-1.1,0.7-1.7,2.1-1.4,3.4
	c0,0,0,0,0,0.1c0,0,0.1,0,0.1,0c0.5-0.4,0.9-0.8,1.3-1.3l0.3-0.5c0.2-0.4,0.5-0.7,0.8-1C12.2,39.9,14,40,15.2,41.2
	C15.1,41.1,15.1,41.2,15.2,41.2z M6.6,43.1c0,0.1,0,0.2,0,0.4c0,0.8-0.5,1.6-1.2,2l-0.2,0.1c-0.2,0.1-0.3,0.2-0.3,0.1s0-0.3,0.1-0.4
	c0.3-0.4,0.5-0.9,0.6-1.5c0-0.3,0-0.3,0.1-0.4c0,0,0-0.1,0.1-0.1c0.1-0.1,0.2-0.3,0.2-0.4l0,0c0,0,0,0,0-0.1l0,0l0,0
	c-0.2,0.1-0.3,0.2-0.5,0.3c-0.2,0.2-0.3,0.5-0.3,0.8V44c-0.1,0.5-0.3,0.9-0.6,1.3c-0.1,0.1-0.1,0.1-0.1,0.1l0,0
	c-0.1-0.5,0-1,0.1-1.5c0-0.7,0.5-1.3,1.1-1.5c0,0,0.3-0.1,0.5-0.2l0,0L6.1,42c0.1,0,0.1-0.1,0.1-0.2l0.1-0.1l0.5,0.1
	C6.6,42.2,6.5,42.6,6.6,43.1z M10.3,41.9c-0.1,0.1-0.2,0.3-0.3,0.5c-0.4,0.4-0.8,0.8-1.2,1.1c-0.2-1.2,0.3-2.4,1.3-3.1
	c0.6-0.4,1.2-0.6,1.9-0.7c0.6,0,1.2,0,1.8,0.3c0,0,0.1,0,0.1,0c0,0,0-0.1,0-0.1c-0.9-0.5-2-0.6-3-0.4l-0.4,0
	c-1.4,0.3-2.7,1.1-3.7,2.2l-0.5-0.1c0.3-0.3,0.5-0.7,0.9-0.9c0.6-0.6,1.4-1,2.2-1.3h0.1c1.3-0.4,2.6-0.4,3.9,0l0.3,0.1
	c0.9,0.2,1.6,0.8,2.1,1.6h-0.6c-1.1-1.1-2.9-1.2-4.1-0.1C10.9,41.2,10.6,41.5,10.3,41.9z"/>
<path d="M22.6,37.5c-0.7,0.5-1.3,1.1-1.9,1.7l-0.1,0.1c-0.1,0.1-0.2,0.3-0.3,0.4c0.3-0.5,0.6-0.9,1-1.2c0.6-0.5,1.2-1.2,1.6-3.7
	c0,0,0-0.1,0-0.1c0,0-0.1,0-0.1,0c-1.3,0.8-2.3,1.8-3.2,3l0,0c-0.1-0.1-0.3-0.3-0.4-0.4c0.1-0.4,0.2-0.8,0.3-1.1l0,0
	c0.2-0.3,0.3-0.6,0.4-0.9c0,0,0,0,0-0.1l0,0h-0.1c0.2-0.8,0.2-1.6,0.1-2.5c0,0,0-0.1-0.1-0.1c0,0-0.1,0-0.1,0.1
	c-0.3,0.9-0.7,1.7-1.2,2.5c0,0,0,0,0,0c-0.3,0.1-0.6,0.3-0.8,0.6L17.7,36c0.1-0.7-0.2-1.4-0.8-1.8c0,0-0.1,0-0.1,0
	c-0.6,0.5-0.8,1.3-0.5,2c-0.2-0.2-0.4-0.4-0.6-0.5c-0.2-0.5-0.4-1.2-0.7-1.8s-0.5-1.3-0.5-1.4c0,0,0-0.1-0.1-0.1l0,0
	c0,0-0.1,0-0.1,0.1c-0.1,1,0,1.9,0.2,2.9h-0.2h-0.1c0,0,0,0,0,0.1c0.1,0.4,0.3,0.9,0.6,1.2c-0.3-0.4-0.7-0.8-1.2-1.1l-0.4-0.2
	c-0.1-0.1-0.2-0.1-0.4-0.2c-0.8-0.5-1.7-0.8-2.7-1c0,0-0.1,0-0.1,0c0,0,0,0.1,0,0.1l0.1,0.3c0.3,0.7,0.5,1.2,2.1,2
	c0.9,0.5,1.7,1.1,2.4,1.8c0,0,0,0.1-0.1,0.1c-1.1-0.7-2.3-1.3-3.6-1.7c-0.5-0.1-0.9-0.3-1.4-0.3C9,36.3,8.3,36,7.6,35.7
	c0,0-0.1,0-0.1,0c0,0,0,0.1,0,0.1c0,0,0.5,0.7,0.7,1.1s1.3,0.8,2.5,1.2l0.6,0.2c0.7,0.2,1,0.3,1.9,0.7c1.3,0.3,2.4,1.1,3.1,2.2
	c0,0,0,0,0.1,0l0,0h0.4h0.6c0,0,0,0,0.1,0l0,0h0.1h0.7l0,0c0,0,0.1,0,0.1-0.1c0,0,0-0.1,0-0.2c0-0.8,0.2-1.5,0.5-2.2h0.2L19,38.8
	c-0.4,0.7-0.5,1.5-0.5,2.3c0,0,0,0,0,0.1c0,0,0,0,0.1,0l0,0h0.6h0.5l0,0l0,0h0.1h0.8h0.1c0.9-0.7,2.1-0.9,3.2-0.7
	c1.5,0.5,2.7,1.4,3.6,2.7c0.2,0.2,1.3,1,1.3,1c0,0,0.1,0,0.1,0c0,0,0,0,0.1,0c0.1-0.5,0.1-1,0-1.5c-0.3-1.1-1-2.1-2.1-2.7
	c-1.2-0.6-2.5-0.8-3.8-0.6c0.7-0.2,1.4-0.3,2.1-0.3h0.2c0.8,0,1.5,0.3,2.2,0.7c0.6,0.4,1.1,0.9,1.5,1.4c0.1,0.1,0.1,0.1,0.2,0.2
	c0,0,0.1,0.1,0.1,0.1c0,0.1,0,0.1,0,0.2c0,0.1,0,0.1,0,0.2c0,0.1,0,0.2,0,0.2v0.1c0,0,0,0.1,0,0.1l0,0c0,0,0,0.1,0,0.1l0,0v0.1
	c-0.1,0.2-0.1,0.5,0,0.7l0,0c0,0,0,0,0,0.1c0.2,0.5,0.1,1.1-0.1,1.5l0,0l0,0c0,0,0,0,0.1,0l0,0c0.5,0,1-0.3,1.4-0.6c0,0,0,0,0-0.1
	l0,0c0,0,0,0,0-0.1c-0.2-0.1-0.3-0.3-0.5-0.5c-0.1-0.1-0.1-0.2-0.1-0.3c0.1,0.2,0.2,0.4,0.3,0.6l0.2,0.1h0.1c0.5,0.2,1,0.3,1.5,0.3
	l0,0c0,0,0.1,0,0.1-0.1l0,0c0,0,0-0.1-0.1-0.1c-0.2,0-0.4-0.1-0.7-0.2l0.2,0.1l0.1,0l0.5,0.1l0,0c0,0,0.1,0,0.1,0c0,0,0,0,0,0
	c0,0,0,0,0,0s0,0,0,0c-0.1-0.1-0.2-0.2-0.3-0.4c0-0.1-0.1-0.1-0.1-0.2v-0.2l0,0l0,0l0,0c0,0,0.5,0,1.1-0.7c0,0,0-0.1,0-0.1l0,0
	c0,0,0,0-0.1,0h0h-0.2h-0.1l-0.2-0.1h-0.1c-0.1-0.1-0.2-0.1-0.3-0.2c-0.2-0.3-0.5-0.6-0.9-0.7c-0.1,0-0.2,0-0.2,0
	c-0.1,0-0.2,0-0.3-0.1l0,0c-0.1-0.2-0.3-0.3-0.6-0.3h-0.1c-0.1,0-0.1,0-0.2-0.1c-0.2-0.2-0.4-0.4-0.5-0.6l-0.2-0.2
	c-0.9-1.1-2.2-1.7-3.6-1.7l0.4,0c0.6,0,1.2,0,1.9,0c1.2,0.1,2.5-0.3,3.4-1.2c0,0,0-0.1,0-0.1c0,0-0.1,0-0.1,0c-0.7,0.1-1.3,0.1-2,0
	c-1.7,0-3.5,0.3-5.1,0.9l-0.4,0.1c0.2-0.1,0.5-0.3,0.8-0.3l0,0c0.3-0.2,0.7-0.4,1-0.7c0.3-0.2,0.9-0.7,1.4-1
	c0.7-0.5,1.3-1.1,1.8-1.7c0.5-0.5,1.1-1,1.7-1.4c0,0,0-0.1,0-0.1c0,0,0-0.1-0.1-0.1c-0.9,0-1.7,0.1-2.5,0.5l-0.2,0.1
	c-0.6,0.3-1.1,0.7-1.6,1.2C25.6,35.1,23.4,37,22.6,37.5z M19.1,37.3c-0.2-0.1-0.4-0.2-0.6-0.2c0.3-0.1,0.6-0.3,0.9-0.6
	C19.2,36.8,19.2,37.1,19.1,37.3z M19.8,33.2c0,0.7,0,1.4-0.1,2.1c-0.3,0-0.6,0-0.9,0C19,34.7,19.5,33.7,19.8,33.2L19.8,33.2z
	 M17.9,36c0.5-0.6,1.2-0.8,1.9-0.6c-0.2,0.7-0.7,1.3-1.4,1.6L18.2,37h-0.2c0,0,0-0.1,0-0.1l0,0c0-0.1-0.1-0.2-0.1-0.3v0l0,0
	l-0.1-0.1l-0.1-0.1C17.7,36.3,17.9,36,17.9,36z M16.3,37.5c0-0.1,0-0.1,0-0.2l0,0c0,0,0,0,0-0.1l0,0c0-0.2,0.1-0.5,0.3-0.6l0,0
	l0.1,0l0,0c0.1,0,0.1-0.1,0.2-0.1c0.1,0,0.2,0,0.2,0l0,0c0.1,0,0.1,0,0.2,0h0.1c0.1,0,0.1,0.1,0.2,0.1l0,0l0,0l0,0
	c0.1,0.1,0.1,0.1,0.1,0.2l0,0c0,0.1,0,0.1,0,0.2l0,0c0,0,0,0,0,0.1c0,0,0,0,0,0l0,0c0,0.1,0,0.1,0,0.2l0,0c0,0.1-0.1,0.1-0.1,0.2
	l0,0l0,0h-0.1l0,0c-0.1,0.1-0.3,0.2-0.5,0.2h-0.1l0,0h-0.2l0,0c-0.2-0.1-0.4-0.2-0.4-0.4l0,0L16.3,37.5z M16.9,34.3
	c0.7,0.4,0.9,1.3,0.5,2c-0.1-0.1-0.3-0.1-0.4-0.1l0,0h-0.1c-0.1,0-0.2,0-0.4,0.1C16.2,35.7,16.4,34.9,16.9,34.3L16.9,34.3z
	 M14.5,32.9c0.1,0.2,0.2,0.6,0.4,1s0.5,1.1,0.6,1.6c-0.3-0.1-0.5-0.2-0.8-0.2C14.5,34.6,14.4,33.7,14.5,32.9L14.5,32.9z M14.5,35.5
	L14.5,35.5c0.8-0.1,1.5,0.3,1.9,1c-0.2,0.2-0.3,0.4-0.3,0.7l0,0c-0.2,0-0.3,0-0.5,0C15,36.8,14.6,36.2,14.5,35.5L14.5,35.5z
	 M15.5,37.3L15.5,37.3L15.5,37.3L15.2,37C15.3,37.1,15.3,37.2,15.5,37.3L15.5,37.3z M12.5,36.3c-1.6-0.8-1.8-1.2-2.1-1.9l-0.1-0.2
	c0.9,0.2,1.7,0.5,2.5,1l0.4,0.2c0.1,0.1,0.2,0.1,0.4,0.2c0.6,0.5,1.2,1.1,1.7,1.8c-0.2,0.2-0.3,0.4-0.4,0.6
	C14.1,37.4,13.3,36.8,12.5,36.3L12.5,36.3z M15.5,37.4c0.1-0.1,0.3-0.1,0.4-0.1c0.1,0,0.2,0,0.2,0l0.1,0.2l0,0v0.1l0,0
	c0.1,0.1,0.2,0.2,0.3,0.2c0,0-0.1,0.1-0.1,0.1c-0.3,0.5-0.5,0.9-1.7,1C14.9,38.2,15.1,37.6,15.5,37.4L15.5,37.4z M16.4,38.4
	c0,0,0,0.1,0,0.2S16.4,38.6,16.4,38.4L16.4,38.4z M16.7,40.9h-0.3c-0.8-1.1-1.9-1.9-3.2-2.3c-1-0.4-1.3-0.5-1.9-0.7l-0.6-0.2
	c-1.1-0.3-2.1-0.7-2.4-1.1l-0.6-0.9c0.6,0.3,1.3,0.5,2,0.6c0.5,0.1,0.9,0.2,1.4,0.3c1.3,0.4,2.5,1,3.6,1.8c-0.1,0.2-0.1,0.4-0.2,0.7
	c0,0,0,0,0,0.1c0,0,0,0,0.1,0l0,0c0.3,0,0.6-0.1,0.9-0.1c0.1,0.1,0.2,0.3,0.3,0.4c0.1,0.1,0.1,0.1,0.1,0.1l0,0c0,0,0,0,0.1,0
	c0,0,0,0,0-0.1l0,0v-0.1c-0.1-0.2-0.1-0.3-0.2-0.5c0.2-0.1,0.4-0.2,0.5-0.4l0.1,0.2c0,0.5,0.2,0.9,0.6,1.2c0.1,0.3,0.2,0.5,0.3,0.8
	L16.7,40.9z M17.4,40.9c-0.1-0.2-0.1-0.4-0.2-0.6l0,0h0.1c0,0,0,0,0.1,0c0-0.1,0.1-0.1,0.1-0.2v0.1C17.4,40.5,17.4,40.7,17.4,40.9
	L17.4,40.9z M17.3,40.2c-0.7-0.5-1-1.4-0.6-2.1h0.1c0.1,0,0.1,0,0.2,0h0.1H17c0.1,0,0.2,0,0.3-0.1l0.2-0.1l0,0
	C17.9,38.7,17.8,39.6,17.3,40.2L17.3,40.2z M17.7,38L17.7,38l0.1,0.1L17.7,38z M18.1,40.8c0,0,0,0.1,0,0.1h-0.6c0-0.2,0-0.4,0-0.7
	l0.1-0.5l0,0c0.2-0.4,0.3-0.9,0.2-1.4l0,0v-0.3c0.2,0.2,0.4,0.3,0.7,0.4l0,0C18.2,39.3,18.1,40.1,18.1,40.8L18.1,40.8z M18.7,38.4
	L18.7,38.4c-0.4-0.1-0.7-0.3-0.9-0.6c0,0,0.1-0.1,0.1-0.1l0,0v-0.1l0,0l0,0l0,0v-0.2v-0.1c0,0,0,0,0-0.1l0,0c0.8,0,1.5,0.4,1.9,1.1
	C19.4,38.5,19,38.5,18.7,38.4L18.7,38.4z M19.7,40.9h-1c0-0.7,0.2-1.5,0.5-2.1l0.1-0.2c0.2,0,0.5-0.1,0.7-0.2l0,0c0,0,0,0,0-0.1
	c-0.1-0.1-0.2-0.3-0.3-0.4v-0.1c0.8-1.2,1.8-2.2,3-2.9c-0.4,2.3-1,3-1.5,3.5C20.4,39.1,19.9,40,19.7,40.9L19.7,40.9z M30.7,41.6
	L30.7,41.6c0,0.1,0.1,0.1,0.2,0.1l0,0c0.1,0,0.1,0,0.2,0c0.1,0,0.1,0,0.2,0c0.3,0.1,0.5,0.3,0.7,0.5l0.1,0.1
	c0.1,0.1,0.3,0.2,0.4,0.3c0.2,0.1,0.4,0.1,0.5,0.2c-0.2,0.2-0.5,0.4-0.8,0.5c-0.1-0.5-0.3-0.9-0.7-1.2c0,0,0,0-0.1-0.1
	c-0.1,0-0.1-0.1-0.2-0.1c-0.1-0.1-0.2-0.1-0.3-0.1l0,0c0,0-0.1,0-0.1,0c0,0,0,0.1,0,0.1c0.3,0.2,0.6,0.4,0.8,0.6l0,0l0,0.1l0.1,0.1
	c0.1,0.2,0.1,0.3,0.1,0.5c0,0.1,0,0.2,0,0.3c0,0.2,0.1,0.3,0.2,0.4c-0.5,0-0.9-0.3-1.2-0.7c-0.1-0.1-0.1-0.2-0.1-0.3
	c0-0.3-0.1-0.5-0.3-0.7c0-0.1-0.1-0.1-0.1-0.1c0,0-0.1,0-0.1,0c0,0,0,0.1,0,0.1c0.1,0.1,0.1,0.3,0.1,0.4v0c0,0.1,0,0.2,0.1,0.4v0.1
	c0,0,0,0.1,0,0.1c0,0.1,0.1,0.3,0.2,0.4l0,0c0.1,0.1,0.1,0.1,0.2,0.2c0.2,0.1,0.3,0.2,0.5,0.2c-0.6,0-1.1-0.3-1.3-0.9
	c-0.1-0.3-0.1-0.5-0.1-0.8c0,0,0-0.1-0.1-0.1c0,0-0.1,0-0.1,0.1c0,0,0,0,0,0c-0.1,0.5,0,1.1,0.3,1.5c0.1,0.1,0.1,0.2,0.2,0.3
	c0.1,0.1,0.1,0.1,0.2,0.2c-0.3,0.3-0.7,0.4-1.1,0.5c0,0,0-0.1,0-0.1c0.2-0.4,0.2-0.8,0.1-1.1c0-0.1,0-0.2-0.1-0.3s0-0.1,0-0.2
	c0-0.1,0-0.3,0-0.4v-0.1c0,0,0-0.1,0-0.1c0-0.1,0-0.1,0-0.2v-0.1l0,0C29.7,42,30.2,41.8,30.7,41.6L30.7,41.6z M31.3,44l-0.2,0
	c-0.2-0.1-0.3-0.3-0.4-0.5c0,0,0,0,0-0.1c0.1,0.1,0.1,0.3,0.2,0.4l0.1,0.1C31.1,44,31.2,44,31.3,44L31.3,44z M27.7,33.7l0.2-0.1
	c0.7-0.3,1.4-0.5,2.2-0.4c-0.6,0.3-1.1,0.8-1.6,1.3c-0.5,0.6-1.1,1.1-1.8,1.6c-0.4,0.3-1.1,0.8-1.4,1c-0.3,0.2-0.6,0.5-0.9,0.6
	c-0.7,0.3-1.4,0.6-2,1c-0.1,0.1-0.2,0.1-0.4,0.2c0,0,0,0.1,0,0.1c0,0,0,0,0,0c0,0,0.1,0,0.1,0l0,0l0,0l0.3-0.2
	c0.5-0.3,1.1-0.5,1.6-0.6c1.6-0.7,3.3-1,5-0.9c0.6,0.1,1.3,0.1,1.9,0c-0.9,0.7-2,1-3.1,0.9c-0.6,0-1.3,0-1.9,0c-0.4,0-0.8,0.1-1,0.2
	h-0.1c-0.1,0-0.2,0-0.3,0c0,0-0.1,0.1-0.1,0.1c0,0.1,0,0.1,0.4,0c0.2,0,0.4,0,0.6,0c0.7,0,1.3,0.1,1.9,0.4c0.7,0.3,1.3,0.8,1.8,1.3
	l0.2,0.2c0.2,0.2,0.4,0.5,0.6,0.6c0.1,0.1,0.2,0.1,0.3,0.1h0.1c0.1,0,0.3,0.1,0.4,0.2c-0.4,0.1-0.7,0.3-1,0.5c0,0,0-0.1,0-0.1
	c0-0.1,0-0.1,0-0.2c0-0.1,0-0.2,0-0.2c0-0.1-0.1-0.2-0.2-0.2c-0.1-0.1-0.1-0.1-0.2-0.2c-0.5-0.5-1-1-1.6-1.4
	c-0.7-0.4-1.5-0.7-2.3-0.7h-0.2h-0.2c-1.1,0.1-2.2,0.4-3.3,0.8c0,0-0.1,0-0.1,0.1c0,0,0,0,0,0c0,0,0.1,0.1,0.1,0c0,0,2.9-0.9,5,0.3
	c1,0.5,1.7,1.5,2,2.6c0,0.4,0,0.9,0,1.3c-0.4-0.3-0.8-0.6-1.2-0.9c-0.9-1.3-2.2-2.3-3.6-2.8c-1.2-0.2-2.4,0-3.4,0.7H20
	c0.1-0.6,0.4-1.1,0.9-1.6l0.1-0.1c0.6-0.6,1.2-1.2,1.9-1.7c0.7-0.5,3-2.4,3.4-2.8C26.6,34.3,27.1,34,27.7,33.7L27.7,33.7z"/>
<path d="M71.6,20.8v-0.4H0.1v0.4c0,0,0,36.8,0,42.9c0,13.9,12.3,28.6,34.5,41.4l1.3,0.8l1.3-0.8c22.2-12.8,34.5-27.5,34.5-41.4
	C71.6,57.7,71.6,20.8,71.6,20.8z M12.7,30.8v-1.4l-1.6,1l0.9-1.8l-1.8,0.7l1.2-1.7l-1.4,0.2l1.6-1.5l-1.9,0.2l1.6-1.3l-1.1-0.2
	l1.4-0.7l-1.3-0.5l1.6-0.5L11,22.8l1.3-0.4l-0.9-0.9l3.2-0.1L13.5,22l1,0.1L13.9,23l1-0.2l-0.2,0.8l0.7-0.4v0.6l0.6-0.4v0.7
	c-0.2,0.3-0.4,0.7-0.6,1.1l-0.3-0.1h-0.1H15l0,0v4l0,0c0.4,0.3,0.8,0.4,1.2,0.4c0.4,0,0.9,0.1,1.3,0.3l0,0v0.2
	c-0.3-0.2-0.6-0.3-1-0.3h-0.3c-0.5,0-1-0.2-1.4-0.5v-3.9 M14.8,25C14.7,25,14.7,25.1,14.8,25l-0.1,4l0,0c0.5,0.3,1,0.5,1.5,0.5h0.3
	c0.4,0,0.7,0.1,1,0.3V30c-0.3-0.2-0.6-0.3-0.9-0.2h-0.3c-0.6-0.1-1.2-0.3-1.7-0.6v-3.9c0,0,0,0-0.1,0 M14.5,25.3v3.9l0,0l0,0l0,0
	l0,0l0,0c0.5,0.3,1.1,0.6,1.8,0.6h0.3c0.3,0,0.7,0.1,0.9,0.3v0.2c-0.3-0.2-0.7-0.3-1.1-0.3l-0.6-0.1c-0.5-0.2-1-0.4-1.4-0.7v-3.9
	c0,0,0-0.1-0.1,0c0,0-0.1,0-0.1,0v3.9l0,0c0.5,0.3,1,0.5,1.5,0.7l0.7,0.1c0.4,0,0.8,0.1,1.1,0.3h0.1l0,0c0.3-0.2,0.7-0.3,1.1-0.3
	c0.8,0.1,1.6-0.1,2.2-0.6l0,0v-4.2l0,0l0,0l-0.2,0.1v-0.2c0,0,0,0,0,0h-0.1l-0.2,0.1V25c0,0,0,0,0,0h-0.1l-0.2,0.1l0,0c0,0,0,0,0,0
	h-0.1c-0.3,0.1-0.6,0.2-0.9,0.2h-0.1c-0.2-0.1-0.5-0.1-0.7-0.1c0.1-0.3,0.2-0.6,0.4-0.9l0,0c0,0,0.1-0.1,0.1-0.6l0.5,0.3l-0.1-0.8
	l0.8,0.6L19.9,23l1,0.4l-0.6-0.9l1,0.1L20.7,22l1.1-0.2l-0.9-0.4l3.3,0.1l-1.3,0.8l2,0.7l-1.7,0.2L25,24L23.5,24l1.8,1h-1.8l2.4,1.3
	l-1.5-0.2l0.7,1.2l-1.6-0.8l1.2,2l-1.2-0.6l0.6,1.2l-1.2-0.8l0.7,2.2l-1.4-1.2l0.5,2l-1.3-1.2l-0.2,1.5l-0.9-1.2L20,31.8L19.1,31
	l-0.4,1l-0.9-0.9l-0.6,1l-0.6-1L15.7,32l-0.2-1.1l-0.9,0.6l-0.2-0.9l-0.9,0.7l0.1-1.1L14.5,25.3z M20.8,25.6l0.1-0.1v4
	c-0.6,0.5-1.3,0.7-2.1,0.6c-0.4,0-0.8,0.1-1.1,0.3v-0.2c0.3-0.2,0.6-0.3,1-0.2H19c1,0,1.2-0.2,1.5-0.4l0.3-0.2c0,0,0,0,0,0
	L20.8,25.6z M20.4,29.4c-0.3,0.2-0.5,0.3-1.5,0.4h-0.2c-0.4,0-0.7,0.1-1,0.2v-0.2c0.3-0.2,0.7-0.3,1.1-0.3H19c0.5,0,1-0.1,1.4-0.5
	c0,0,0,0,0,0v-3.7l0.1-0.1v3.9L20.4,29.4z M20.4,25.4L20.4,25.4v3.7c-0.4,0.3-0.9,0.4-1.3,0.4h-0.2c-0.4,0-0.8,0-1.1,0.3v-0.2
	c0.4-0.2,0.9-0.3,1.4-0.2l0,0c0.4,0,0.7-0.2,1-0.4l0,0v-3.6l0.2-0.1L20.4,25.4z M20.2,28.9c-0.3,0.2-0.6,0.3-1,0.4
	c-0.5-0.1-1,0-1.4,0.2V28l0,0c0.2,0,0.3-0.2,0.4-0.3c0.2-0.2,0.2-0.5,0.2-0.8L18.2,26c0-0.1,0.1-0.3,0.2-0.6l0,0
	c0.2,0,0.5,0,0.7,0.1c0.3,0,0.6-0.1,0.9-0.2L20.2,28.9z M18.2,26L18.2,26l0.1,0.9c0.1,0.2,0,0.5-0.1,0.7c-0.1,0.1-0.2,0.2-0.3,0.3
	c0,0-0.1,0-0.1,0c-0.1-0.1-0.1-0.2-0.1-0.3c0-0.1,0-0.1,0-0.2c0.1,0,0.1-0.1,0.2-0.1c0,0,0.1,0,0.1,0 M18,27.3
	c0-0.1-0.1-0.1-0.1-0.1c-0.1,0-0.2,0-0.3,0.1c0-0.1,0-0.1-0.1-0.2c-0.1-0.6-0.2-1.2-0.3-1.8c0,0,0,0-0.1-0.1c-0.2,0-0.4-0.1-0.5-0.1
	c-0.3,0-0.6-0.1-0.8-0.2c0.1-0.4,0.7-1.2,0.7-1.2l0.1-0.1l0,0c0.3-0.4,0.5-0.9,0.5-1.4v-0.9h1.9c-0.1,0.3-0.1,0.7-0.1,1
	c0.1,0.6,0.2,1.2,0.1,1.8l0,0c-0.4,0.8-0.7,1.7-0.7,1.7L18,27.3z M17.6,28c0,0,0.1,0,0.1,0v1.5c-0.4-0.2-0.8-0.3-1.3-0.2
	c-0.4,0-0.8-0.1-1.1-0.4V25c0.4,0.2,0.7,0.3,1.1,0.4c0.1,0,0.6,0,0.6,0c0.1,0.6,0.2,1.1,0.3,1.7c0,0.1,0.1,0.3,0.1,0.4l0,0
	C17.4,27.6,17.5,27.8,17.6,28L17.6,28z M16.9,21.3v1c0,0.5-0.2,0.9-0.5,1.3l0,0l-0.1-0.7l-0.6,0.4v-0.5l-0.6,0.3l0.2-0.6l-0.8,0.2
	l0.6-0.8h-0.7l1.1-0.6L16.9,21.3C17,21.3,16.8,21.2,16.9,21.3L16.9,21.3z M21.2,21.7l-0.9,0.2l0.5,0.5L20,22.3l0.5,0.7l-0.8-0.3
	l0.2,0.8l-0.7-0.5l0.1,0.8L19,23.5c0-0.3-0.1-0.6-0.1-1.1c0-0.4,0-0.7,0.2-1.1l0,0h1.1L21.2,21.7z M35.6,105l-0.6-0.4
	c-12.5-7.2-21.8-15-27.5-22.9l11.4-6l16.8,9.5L35.6,105z M35.6,76.6L18.7,67L3.5,75.1c-1.7-3.5-2.6-7.4-2.7-11.3v-7.1h34.8
	L35.6,76.6z M35.6,56.1H0.8c0-11.7,0-31.9,0-34.9h12.1h-2l1,1l-1.4,0.5l1.1,0.5l-1.7,0.5l1.4,0.5L9.7,25l1.3,0.2l-1.9,1.4l2-0.2
	l-1.6,1.6l1.6-0.2l-1.4,1.9l1.9-0.7l-1,2l1.8-1.2v1.5l0.9-0.7l-0.1,1.2l1-0.8l0.2,0.9l0.9-0.6l0.2,1.2l1-1l0.6,1.1l0.7-1.1l0.9,0.9
	l0.4-1l0.9,0.9l0.3-1.3l0.9,1.2l0.2-1.6l1.5,1.4l-0.5-2.1l1.5,1.2l-0.7-2.3l1.4,0.9l-0.7-1.4l1.4,0.7l-1.3-2l1.6,0.8l-0.8-1.5
	l2.2,0.3l-2.6-1.4h1.8l-1.9-1l1.6-0.1l-1.9-0.9l1.9-0.2l-2.4-0.9l1.6-1H23h12.5L35.6,56.1z M70.9,56.1H36.1V35h34.7
	C70.9,41.9,70.9,50.1,70.9,56.1L70.9,56.1z M42,21.3h5.4v13.5H42L42,21.3z M59.3,21.3h5.6v13.5h-5.6V21.3z M53.5,21.3H59v13.5h-5.5
	V21.3z M47.7,21.3h5.5v13.5h-5.5V21.3z M65.2,34.7V21.2h5.6c0,1.5,0,6.9,0,13.5L65.2,34.7z M41.7,21.2v13.5h-5.5V21.2H41.7z
	 M36.8,104.5l-0.6,0.4V56.6h34.8c0,3.3,0,5.9,0,7.1C70.9,82.1,49.5,97.2,36.8,104.5z"/>
<path class="st0" d="M7.5,14V1.9L5.1,2.1l0.4-1.6l4-0.4V14H7.5z"/>
<path class="st0" d="M27.4,10.3V14h-2v-3.7h-5.5l-0.3-1.6L26,0.3h1.3v8.5h1.6v1.6L27.4,10.3z M25.4,3.7c-0.4,0.6-0.8,1.2-1.2,1.7
	l-2.5,3.3h3.8V5.4C25.4,4.9,25.4,4.3,25.4,3.7L25.4,3.7z"/>
<path class="st0" d="M41.5,14.4l-1.9-0.9c2.5-1.1,4.5-3.1,5.7-5.6c-0.6,0.6-1.4,0.9-2.2,0.9c-2.4,0.1-4.3-1.8-4.4-4.2
	c0-0.1,0-0.2,0-0.3C38.6,2,40.6,0,43,0c0.1,0,0.2,0,0.3,0c2.5-0.1,4.6,2,4.7,4.5c0,0.2,0,0.3,0,0.5C47.9,8.6,45.2,12.6,41.5,14.4z
	 M43.2,1.8c-1.5,0-2.7,1.3-2.7,2.8c0,1.5,1.3,2.7,2.8,2.7c1.2,0,2.2-0.8,2.5-2c0-0.2,0-0.4,0-0.7C45.9,3.1,44.7,1.8,43.2,1.8z"/>
<path class="st0" d="M61.2,14.2c-0.9,0-1.8-0.2-2.6-0.5l-0.2-1.9c0.8,0.5,1.8,0.8,2.7,0.8c1.5,0,2.8-1.2,2.8-2.8S62.7,7,61.2,7l0,0
	c-0.8,0-1.6,0.1-2.4,0.4L59,0.3h6L64.7,2h-3.8l-0.1,3.3c0.2,0,0.4,0,0.6-0.1C63.8,5.1,65.9,7,66,9.4c0,0.1,0,0.3,0,0.4
	C66.1,12.2,64.4,14.2,61.2,14.2z"/>
</svg>
