<svg width="172" height="144" viewBox="0 0 172 144" fill="none" xmlns="http://www.w3.org/2000/svg">
<g clip-path="url(#clip0_3434_17329)">
<path d="M86.2491 67.9682C73.38 67.9682 62.9453 78.4332 62.9453 91.3397C62.9453 104.246 73.38 114.711 86.2491 114.711C88.3046 114.711 90.2956 114.44 92.198 113.939C89.9047 111.789 88.4618 108.737 88.4618 105.337C88.4618 98.8297 93.7215 93.5547 100.21 93.5547C103.6 93.5547 106.643 95.0018 108.787 97.3018C109.287 95.3979 109.557 93.3971 109.557 91.3356C109.557 78.4291 99.1222 67.9641 86.2531 67.9641L86.2491 67.9682Z" fill="#BFDBFE"/>
<path d="M149.059 63.9463C137.004 52.503 116.324 38.8609 86.2488 38.8609C63.0055 38.8609 41.467 47.5272 23.967 63.922C10.8118 76.2464 4.57273 88.5264 4.31478 89.0437C3.61752 90.4383 3.58931 92.0753 4.24223 93.4901C4.48406 94.0115 10.2677 106.356 23.2335 118.729C35.228 130.176 55.8959 143.822 86.2529 143.822C118.726 143.822 139.305 130.136 150.848 118.656C163.399 106.174 168.203 93.676 168.405 93.1505C168.896 91.849 168.836 90.4059 168.243 89.1488C167.998 88.6314 162.081 76.303 149.063 63.9463H149.059ZM30.5406 111.591C21.9679 103.482 16.8171 95.2605 14.6649 91.4245C16.9541 87.5765 22.4073 79.3063 31.1895 71.1453C34.9539 67.6488 38.8795 64.5728 42.9543 61.9009C37.2553 70.3005 33.9221 80.4381 33.9221 91.3397C33.9221 102.241 37.5293 113.159 43.6394 121.74C39.0448 118.866 34.6718 115.495 30.5446 111.587L30.5406 111.591ZM86.2488 133.6C63.0176 133.6 44.115 114.642 44.115 91.3437C44.115 68.045 63.0176 49.0874 86.2488 49.0874C109.48 49.0874 128.383 68.045 128.383 91.3437C128.383 114.642 109.48 133.6 86.2488 133.6ZM143.348 111.712C138.519 116.457 133.211 120.423 127.456 123.632C134.412 114.719 138.58 103.515 138.58 91.3437C138.58 80.1309 135.041 69.7346 129.044 61.1976C133.493 64.015 137.741 67.3133 141.772 71.1089C150.586 79.4033 155.862 87.819 157.966 91.5499C156.184 95.2686 151.65 103.551 143.348 111.712Z" fill="#BFDBFE"/>
<path d="M86.2489 28.2827C89.6264 28.2827 92.363 25.5381 92.363 22.1508V6.66948C92.363 3.28219 89.6264 0.537598 86.2489 0.537598C82.8714 0.537598 80.1348 3.28219 80.1348 6.66948V22.1467C80.1348 25.534 82.8714 28.2786 86.2489 28.2786V28.2827Z" fill="#BFDBFE"/>
<path d="M169.977 28.5535C167.466 26.2859 163.601 26.488 161.339 29.0062L151.014 40.5101C148.753 43.0283 148.954 46.9047 151.465 49.1723C152.634 50.2273 154.097 50.7487 155.556 50.7487C157.228 50.7487 158.897 50.0656 160.102 48.7196L170.428 37.2157C172.689 34.6975 172.488 30.8211 169.977 28.5535Z" fill="#BFDBFE"/>
<path d="M16.9424 50.7487C18.4014 50.7487 19.8644 50.2273 21.0333 49.1723C23.5442 46.9047 23.7457 43.0283 21.4847 40.5101L11.1588 29.0062C8.89771 26.488 5.03256 26.2859 2.52162 28.5535C0.0106764 30.8211 -0.190844 34.6975 2.07021 37.2157L12.3961 48.7196C13.6052 50.0656 15.2698 50.7487 16.9424 50.7487Z" fill="#BFDBFE"/>
</g>
<defs>
<clipPath id="clip0_3434_17329">
<rect width="171.502" height="143.285" fill="white" transform="translate(0.498047 0.537598)"/>
</clipPath>
</defs>
</svg>
