<svg width="1191" height="509" viewBox="0 0 1191 509" fill="none" xmlns="http://www.w3.org/2000/svg">
<rect x="0.5" y="0.827148" width="1189.53" height="507.173" rx="4.5" stroke="#9747FF" stroke-dasharray="10 5"/>
<g clip-path="url(#clip0_2974_21506)">
<path d="M1120.55 244.263L1119.82 243.473C1119.82 243.881 1120.09 244.22 1120.45 244.284C1120.49 244.292 1120.53 244.296 1120.58 244.296L1120.55 244.263ZM1091.33 222.381C1090.91 222.381 1090.57 222.751 1090.57 223.206V243.473C1090.57 243.927 1090.91 244.296 1091.33 244.296C1091.75 244.296 1092.08 243.927 1092.08 243.473V223.206C1092.08 222.751 1091.75 222.381 1091.33 222.381ZM1120.33 197.491C1119.91 197.491 1119.57 197.861 1119.57 198.315V243.473C1119.57 243.927 1119.91 244.296 1120.33 244.296C1120.37 244.296 1120.41 244.292 1120.45 244.284C1120.48 244.28 1120.51 244.271 1120.55 244.263C1120.86 244.16 1121.08 243.845 1121.08 243.473V198.315C1121.08 197.861 1120.75 197.491 1120.33 197.491ZM1133.9 194.154C1128.64 194.222 1125.44 193.437 1123.68 191.54C1121.32 189.01 1121.32 184.391 1121.33 177.397V137.7C1121.33 137.399 1121.18 137.135 1120.96 136.993C1120.85 136.918 1120.72 136.877 1120.58 136.877H1091.33C1091.19 136.877 1091.06 136.918 1090.94 136.993C1090.72 137.135 1090.57 137.399 1090.57 137.7V209.032C1090.57 209.486 1090.91 209.855 1091.33 209.855C1091.64 209.855 1091.91 209.642 1092.03 209.346V209.342C1092.06 209.246 1092.08 209.142 1092.08 209.032V138.525H1119.82V138.641L1119.82 177.395C1119.81 184.804 1119.81 189.697 1122.61 192.717C1124.69 194.946 1128.14 195.923 1133.91 195.802H1170.53V194.154H1133.9Z" fill="#F5F5F5"/>
<path d="M1117.56 105.719H1094.34C1093.92 105.719 1093.58 106.088 1093.58 106.543V129.381C1093.58 129.837 1093.92 130.206 1094.34 130.206H1117.56C1117.98 130.206 1118.32 129.837 1118.32 129.381V106.543C1118.32 106.088 1117.98 105.719 1117.56 105.719ZM1116.81 128.557H1095.1V107.368H1116.81V128.557Z" fill="#F5F5F5"/>
<path d="M1111.89 92.4746L1111.62 91.4287H1101.14L1100.88 92.4746C1100.78 92.8396 1100.48 93.0764 1100.15 93.0764H1112.62C1112.29 93.0764 1111.98 92.8396 1111.89 92.4746ZM1111.89 92.4746L1111.62 91.4287H1101.14L1100.88 92.4746C1100.78 92.8396 1100.48 93.0764 1100.15 93.0764H1112.62C1112.29 93.0764 1111.98 92.8396 1111.89 92.4746ZM1120.9 92.1758C1120.9 92.149 1120.89 92.1222 1120.89 92.0968C1120.88 92.07 1120.88 92.0447 1120.87 92.0193C1120.86 92.001 1120.86 91.9826 1120.85 91.9643C1120.85 91.9559 1120.85 91.9488 1120.84 91.9418L1120.84 91.9319C1120.73 91.6359 1120.46 91.4287 1120.14 91.4287H1092.19C1091.87 91.4287 1091.61 91.6359 1091.49 91.9319L1091.49 91.9531C1091.48 91.9601 1091.48 91.9657 1091.48 91.9728C1091.47 91.9883 1091.47 92.0038 1091.46 92.0193C1091.46 92.0419 1091.45 92.0644 1091.45 92.087C1091.44 92.1123 1091.44 92.1391 1091.44 92.1659C1091.44 92.1659 1091.44 92.1659 1091.44 92.1687C1091.43 92.1941 1091.43 92.2195 1091.43 92.2448V101.505C1091.43 101.961 1091.77 102.329 1092.19 102.329H1120.14C1120.56 102.329 1120.9 101.961 1120.9 101.505V92.2547C1120.9 92.2279 1120.9 92.2011 1120.9 92.1758ZM1092.95 100.681V93.0764H1119.39V100.681H1092.95ZM1111.89 92.4746L1111.62 91.4287H1101.14L1100.88 92.4746C1100.78 92.8396 1100.48 93.0764 1100.15 93.0764H1112.62C1112.29 93.0764 1111.98 92.8396 1111.89 92.4746ZM1111.89 92.4746L1111.62 91.4287H1101.14L1100.88 92.4746C1100.78 92.8396 1100.48 93.0764 1100.15 93.0764H1112.62C1112.29 93.0764 1111.98 92.8396 1111.89 92.4746Z" fill="#F5F5F5"/>
<path d="M1109.28 75.504V74.6794H1105.63V75.504C1105.63 75.9607 1105.97 76.3272 1106.38 76.3272H1110.04C1109.62 76.3272 1109.28 75.9607 1109.28 75.504ZM1109.28 75.504V74.6794H1105.63V75.504C1105.63 75.9607 1105.97 76.3272 1106.38 76.3272H1110.04C1109.62 76.3272 1109.28 75.9607 1109.28 75.504ZM1120.9 92.1758C1120.9 92.149 1120.89 92.1222 1120.89 92.0968C1120.88 92.0701 1120.88 92.0447 1120.87 92.0193C1120.86 92.001 1120.86 91.9827 1120.85 91.9643C1120.85 91.9559 1120.85 91.9488 1120.84 91.9418L1120.84 91.9319L1114.66 75.3405L1114.61 75.1939C1114.49 74.8838 1114.22 74.6794 1113.91 74.6794H1098.21C1098 74.6794 1097.81 74.7711 1097.67 74.9275C1097.6 75.005 1097.54 75.0981 1097.51 75.2038L1091.49 91.9319L1091.49 91.9531C1091.48 91.9601 1091.48 91.9657 1091.48 91.9728C1091.47 91.9883 1091.47 92.0038 1091.46 92.0193C1091.46 92.0419 1091.45 92.0644 1091.45 92.087C1091.44 92.1123 1091.44 92.1391 1091.44 92.1659C1091.44 92.1659 1091.44 92.1659 1091.44 92.1687C1091.43 92.1941 1091.43 92.2195 1091.43 92.2448V92.2871C1091.44 92.4408 1091.48 92.5888 1091.56 92.7184C1091.71 92.944 1091.94 93.0764 1092.19 93.0764H1120.14C1120.39 93.0764 1120.63 92.9425 1120.77 92.7142C1120.86 92.5761 1120.9 92.4154 1120.9 92.2547C1120.9 92.2279 1120.9 92.2011 1120.9 92.1758ZM1093.3 91.4287L1098.73 76.3272H1113.4L1119.02 91.4287H1093.3ZM1109.28 75.504V74.6794H1105.63V75.504C1105.63 75.9607 1105.97 76.3272 1106.38 76.3272H1110.04C1109.62 76.3272 1109.28 75.9607 1109.28 75.504ZM1109.28 75.504V74.6794H1105.63V75.504C1105.63 75.9607 1105.97 76.3272 1106.38 76.3272H1110.04C1109.62 76.3272 1109.28 75.9607 1109.28 75.504Z" fill="#F5F5F5"/>
<path d="M1105.63 75.5041V74.6795H1103.59V75.5041C1103.59 75.9608 1103.25 76.3273 1102.83 76.3273H1106.38C1105.97 76.3273 1105.63 75.9608 1105.63 75.5041ZM1105.63 75.5041V74.6795H1103.59V75.5041C1103.59 75.9608 1103.25 76.3273 1102.83 76.3273H1106.38C1105.97 76.3273 1105.63 75.9608 1105.63 75.5041ZM1114.66 63.4795C1114.66 63.4598 1114.66 63.4415 1114.66 63.4217C1114.65 63.4091 1114.65 63.395 1114.65 63.3823C1114.65 63.3682 1114.64 63.3555 1114.64 63.3414C1114.64 63.3386 1114.64 63.3358 1114.64 63.3329C1114.64 63.3188 1114.63 63.3048 1114.63 63.2907C1114.63 63.2907 1114.63 63.2897 1114.63 63.2878C1114.53 62.9622 1114.24 62.7311 1113.91 62.7311H1098.43C1098.12 62.7311 1097.85 62.9355 1097.73 63.2286C1097.73 63.2315 1097.73 63.2343 1097.73 63.2385C1097.72 63.2596 1097.71 63.2808 1097.71 63.3033C1097.7 63.3372 1097.69 63.371 1097.68 63.4062C1097.68 63.4274 1097.68 63.4485 1097.68 63.4697C1097.67 63.4979 1097.67 63.526 1097.67 63.5542V75.5041C1097.67 75.9608 1098.01 76.3273 1098.43 76.3273H1113.91C1114.33 76.3273 1114.67 75.9608 1114.67 75.5041V63.5486C1114.67 63.5246 1114.67 63.5021 1114.66 63.4795ZM1099.18 74.6795V64.3788H1113.16V74.6795H1099.18ZM1105.63 75.5041V74.6795H1103.59V75.5041C1103.59 75.9608 1103.25 76.3273 1102.83 76.3273H1106.38C1105.97 76.3273 1105.63 75.9608 1105.63 75.5041ZM1105.63 75.5041V74.6795H1103.59V75.5041C1103.59 75.9608 1103.25 76.3273 1102.83 76.3273H1106.38C1105.97 76.3273 1105.63 75.9608 1105.63 75.5041Z" fill="#F5F5F5"/>
<path d="M1114.66 63.4794C1114.66 63.4597 1114.66 63.4414 1114.66 63.4216C1114.65 63.409 1114.65 63.3949 1114.65 63.3822C1114.65 63.3681 1114.64 63.3554 1114.64 63.3413C1114.64 63.3385 1114.64 63.3357 1114.64 63.3328C1114.64 63.3187 1114.63 63.3046 1114.63 63.2906C1114.63 63.2906 1114.63 63.2896 1114.63 63.2877C1114.62 63.2751 1114.62 63.261 1114.62 63.2483C1110.37 51.6043 1107.93 39.6459 1107.15 26.6967C1107.14 24.8291 1107.06 22.9432 1106.92 21.0882C1106.89 20.6428 1106.59 20.2961 1106.13 20.3299C1105.72 20.3525 1105.4 20.7302 1105.41 21.1728C1105.46 23.0362 1105.53 24.8967 1105.64 26.7559C1105.72 38.7467 1103.06 51.0094 1097.74 63.1989C1097.74 63.2088 1097.74 63.2187 1097.73 63.2285C1097.73 63.2314 1097.73 63.2342 1097.73 63.2384C1097.72 63.2595 1097.71 63.2807 1097.71 63.3032C1097.7 63.3371 1097.69 63.3709 1097.68 63.4061C1097.68 63.4273 1097.68 63.4484 1097.68 63.4696C1097.67 63.4977 1097.67 63.5259 1097.67 63.5541C1097.67 63.7092 1097.71 63.8614 1097.79 63.9967C1097.93 64.2349 1098.17 64.3787 1098.43 64.3787H1113.91C1114.16 64.3787 1114.4 64.2434 1114.54 64.0179C1114.62 63.8797 1114.67 63.7176 1114.67 63.5541V63.5485C1114.67 63.5245 1114.67 63.502 1114.66 63.4794ZM1099.62 62.731C1103.26 54.0864 1105.6 45.4137 1106.6 36.817C1107.78 45.7844 1109.83 54.3415 1112.8 62.731H1099.62Z" fill="#F5F5F5"/>
<path d="M1105.95 108.53C1101.21 108.53 1097.35 112.735 1097.35 117.906C1097.35 123.078 1101.21 127.398 1105.95 127.398C1110.7 127.398 1114.67 123.143 1114.67 117.906C1114.67 112.67 1110.76 108.53 1105.95 108.53ZM1105.95 125.75C1102.04 125.75 1098.86 122.231 1098.86 117.906C1098.86 113.582 1102.04 110.178 1105.95 110.178C1109.86 110.178 1113.16 113.646 1113.16 117.906C1113.16 122.167 1109.92 125.75 1105.95 125.75Z" fill="#F5F5F5"/>
<path d="M1123.58 100.681H1088.75C1088.33 100.681 1087.99 101.049 1087.99 101.505V137.817C1087.99 138.271 1088.33 138.64 1088.75 138.64H1123.58C1124 138.64 1124.34 138.271 1124.34 137.817V101.505C1124.34 101.049 1124 100.681 1123.58 100.681ZM1122.83 136.993H1089.51V102.329H1122.83V136.993Z" fill="#F5F5F5"/>
<path d="M1105.63 120.018C1105.42 120.018 1105.21 119.928 1105.07 119.743L1102.38 116.465C1102.1 116.123 1102.13 115.602 1102.44 115.3C1102.74 114.993 1103.23 115.023 1103.51 115.364L1106.19 118.645C1106.48 118.985 1106.45 119.505 1106.14 119.809C1105.99 119.95 1105.81 120.018 1105.63 120.018H1105.63Z" fill="#F5F5F5"/>
<path d="M1105.63 120.018C1105.37 120.018 1105.11 119.867 1104.97 119.595C1104.77 119.198 1104.9 118.696 1105.26 118.473L1110.64 115.195C1111.01 114.968 1111.47 115.111 1111.67 115.512C1111.87 115.909 1111.75 116.411 1111.38 116.632L1106 119.911C1105.88 119.986 1105.76 120.017 1105.63 120.017L1105.63 120.018Z" fill="#F5F5F5"/>
<path d="M1100.15 93.0766C1100.08 93.0766 1100.01 93.0695 1099.95 93.0484C1099.55 92.9257 1099.31 92.4747 1099.42 92.0321L1103.4 76.3343C1103.51 75.8974 1103.93 75.638 1104.33 75.7607C1104.73 75.8833 1104.97 76.3343 1104.86 76.7783L1100.88 92.4747C1100.79 92.8398 1100.48 93.0766 1100.15 93.0766H1100.15Z" fill="#F5F5F5"/>
<path d="M1102.83 76.3272C1102.41 76.3272 1102.08 75.9607 1102.08 75.504V70.9344C1102.08 70.4791 1102.41 70.1112 1102.83 70.1112C1103.25 70.1112 1103.59 70.4791 1103.59 70.9344V75.504C1103.59 75.9607 1103.25 76.3272 1102.83 76.3272Z" fill="#F5F5F5"/>
<path d="M1106.38 76.3272C1105.97 76.3272 1105.63 75.9607 1105.63 75.504V70.9344C1105.63 70.4791 1105.97 70.1112 1106.38 70.1112C1106.8 70.1112 1107.14 70.4791 1107.14 70.9344V75.504C1107.14 75.9607 1106.8 76.3272 1106.38 76.3272Z" fill="#F5F5F5"/>
<path d="M1110.04 76.3272C1109.62 76.3272 1109.28 75.9607 1109.28 75.504V70.9344C1109.28 70.4791 1109.62 70.1112 1110.04 70.1112C1110.45 70.1112 1110.79 70.4791 1110.79 70.9344V75.504C1110.79 75.9607 1110.45 76.3272 1110.04 76.3272Z" fill="#F5F5F5"/>
<path d="M1097.57 101.394C1097.15 101.394 1096.81 101.025 1096.81 100.571V96.8258C1096.81 96.3677 1097.15 96.0012 1097.57 96.0012C1097.98 96.0012 1098.32 96.3677 1098.32 96.8258V100.571C1098.32 101.026 1097.99 101.394 1097.57 101.394Z" fill="#F5F5F5"/>
<path d="M1101.87 101.394C1101.45 101.394 1101.11 101.025 1101.11 100.571V96.8258C1101.11 96.3677 1101.45 96.0012 1101.87 96.0012C1102.29 96.0012 1102.62 96.3677 1102.62 96.8258V100.571C1102.62 101.026 1102.28 101.394 1101.87 101.394Z" fill="#F5F5F5"/>
<path d="M1106.38 101.394C1105.97 101.394 1105.63 101.025 1105.63 100.571V96.8258C1105.63 96.3677 1105.97 96.0012 1106.38 96.0012C1106.8 96.0012 1107.14 96.3677 1107.14 96.8258V100.571C1107.14 101.026 1106.8 101.394 1106.38 101.394Z" fill="#F5F5F5"/>
<path d="M1110.36 101.394C1109.94 101.394 1109.61 101.025 1109.61 100.571V96.8258C1109.61 96.3677 1109.94 96.0012 1110.36 96.0012C1110.78 96.0012 1111.12 96.3677 1111.12 96.8258V100.571C1111.12 101.026 1110.78 101.394 1110.36 101.394Z" fill="#F5F5F5"/>
<path d="M1114.34 101.394C1113.92 101.394 1113.58 101.025 1113.58 100.571V96.8258C1113.58 96.3677 1113.92 96.0012 1114.34 96.0012C1114.76 96.0012 1115.1 96.3677 1115.1 96.8258V100.571C1115.1 101.026 1114.76 101.394 1114.34 101.394Z" fill="#F5F5F5"/>
<path d="M1112.62 93.0766C1112.29 93.0766 1111.98 92.8384 1111.89 92.4747L1107.91 76.7783C1107.8 76.34 1108.03 75.8833 1108.44 75.7607C1108.84 75.638 1109.26 75.8974 1109.37 76.3343L1113.35 92.0321C1113.46 92.4705 1113.23 92.9257 1112.82 93.0484C1112.76 93.0695 1112.69 93.0766 1112.62 93.0766H1112.62Z" fill="#F5F5F5"/>
<path d="M1102.94 244.413C1102.52 244.413 1102.19 244.044 1102.19 243.589V144.841C1102.19 144.386 1102.52 144.016 1102.94 144.016C1103.36 144.016 1103.7 144.386 1103.7 144.841V243.589C1103.7 244.044 1103.36 244.413 1102.94 244.413Z" fill="#F5F5F5"/>
<path d="M1108.64 244.413C1108.22 244.413 1107.88 244.044 1107.88 243.589V144.841C1107.88 144.386 1108.22 144.016 1108.64 144.016C1109.06 144.016 1109.39 144.386 1109.39 144.841V243.589C1109.39 244.044 1109.06 244.413 1108.64 244.413Z" fill="#F5F5F5"/>
<path d="M1114.45 244.413C1114.03 244.413 1113.69 244.044 1113.69 243.589V144.841C1113.69 144.386 1114.03 144.016 1114.45 144.016C1114.86 144.016 1115.2 144.386 1115.2 144.841V243.589C1115.2 244.044 1114.87 244.413 1114.45 244.413Z" fill="#F5F5F5"/>
<path d="M1097.46 244.413C1097.04 244.413 1096.7 244.044 1096.7 243.589V144.841C1096.7 144.386 1097.04 144.016 1097.46 144.016C1097.87 144.016 1098.21 144.386 1098.21 144.841V243.589C1098.21 244.044 1097.87 244.413 1097.46 244.413Z" fill="#F5F5F5"/>
<path d="M1097.57 138.287C1097.15 138.287 1096.81 137.917 1096.81 137.464V133.835C1096.81 133.38 1097.15 133.012 1097.57 133.012C1097.98 133.012 1098.32 133.38 1098.32 133.835V137.464C1098.32 137.919 1097.99 138.287 1097.57 138.287Z" fill="#F5F5F5"/>
<path d="M1101.87 138.287C1101.45 138.287 1101.11 137.917 1101.11 137.464V133.835C1101.11 133.38 1101.45 133.012 1101.87 133.012C1102.29 133.012 1102.62 133.38 1102.62 133.835V137.464C1102.62 137.919 1102.28 138.287 1101.87 138.287Z" fill="#F5F5F5"/>
<path d="M1106.38 138.287C1105.97 138.287 1105.63 137.917 1105.63 137.464V133.835C1105.63 133.38 1105.97 133.012 1106.38 133.012C1106.8 133.012 1107.14 133.38 1107.14 133.835V137.464C1107.14 137.919 1106.8 138.287 1106.38 138.287Z" fill="#F5F5F5"/>
<path d="M1110.36 138.287C1109.94 138.287 1109.61 137.917 1109.61 137.464V133.835C1109.61 133.38 1109.94 133.012 1110.36 133.012C1110.78 133.012 1111.12 133.38 1111.12 133.835V137.464C1111.12 137.919 1110.78 138.287 1110.36 138.287Z" fill="#F5F5F5"/>
<path d="M1114.34 138.287C1113.92 138.287 1113.58 137.917 1113.58 137.464V133.835C1113.58 133.38 1113.92 133.012 1114.34 133.012C1114.76 133.012 1115.1 133.38 1115.1 133.835V137.464C1115.1 137.919 1114.76 138.287 1114.34 138.287Z" fill="#F5F5F5"/>
<path d="M1087.89 215.365C1085.58 215.365 1083.69 213.365 1083.69 210.905V190.525C1083.69 190.069 1084.03 189.7 1084.45 189.7C1084.87 189.7 1085.2 190.069 1085.2 190.525V210.905C1085.2 212.481 1086.38 213.717 1087.89 213.717C1089.31 213.717 1090.47 212.455 1090.47 210.905L1090.57 207.364C1090.59 206.91 1090.91 206.554 1091.35 206.568C1091.77 206.582 1092.1 206.961 1092.08 207.416L1091.98 210.929C1091.98 213.363 1090.15 215.363 1087.89 215.363V215.365Z" fill="#F5F5F5"/>
<path d="M1077.57 195.919C1077.15 195.919 1076.81 195.55 1076.81 195.094V188.886C1076.81 186.364 1078.7 184.313 1081.01 184.313C1083.33 184.313 1085.08 186.302 1085.2 188.839V192.284C1085.2 192.738 1084.87 193.107 1084.45 193.107C1084.03 193.107 1083.69 192.738 1083.69 192.284V188.884C1083.61 187.266 1082.43 185.961 1081.01 185.961C1079.59 185.961 1078.32 187.303 1078.32 188.884V195.093C1078.32 195.548 1077.98 195.918 1077.57 195.918V195.919Z" fill="#F5F5F5"/>
<path d="M1078.32 194.509C1078.32 194.853 1078.29 195.187 1078.22 195.509C1077.8 197.486 1076.17 198.964 1074.23 198.964H944.533V197.316H1074.23C1075.66 197.316 1076.81 196.057 1076.81 194.509C1076.81 194.05 1077.15 193.685 1077.57 193.685C1077.99 193.685 1078.32 194.05 1078.32 194.509Z" fill="#F5F5F5"/>
<path d="M1088.44 78.844H1084.57C1084.15 78.844 1083.81 78.4761 1083.81 78.0194C1083.81 77.5627 1084.15 77.1948 1084.57 77.1948H1088.44C1088.86 77.1948 1089.2 77.5641 1089.2 78.0194C1089.2 78.4747 1088.86 78.844 1088.44 78.844Z" fill="#F5F5F5"/>
<path d="M1091.35 78.7257C1090.93 78.7257 1090.59 78.3578 1090.59 77.9011C1090.59 77.4444 1090.93 77.0765 1091.35 77.0765C1091.41 77.0765 1091.54 77.0765 1091.62 77.0681C1091.91 76.8905 1092.28 76.9384 1092.53 77.2132C1092.82 77.5388 1092.82 78.059 1092.52 78.3803C1092.19 78.7242 1091.7 78.7242 1091.35 78.7242V78.7257Z" fill="#F5F5F5"/>
<path d="M1091.45 75.2131C1091.13 75.216 1090.83 74.989 1090.73 74.6367C1090.04 72.2898 1088 70.6477 1085.75 70.6477C1083.51 70.6477 1081.58 72.2532 1080.89 74.6367C1080.76 75.0708 1080.34 75.3104 1079.94 75.1765C1079.54 75.037 1079.32 74.5732 1079.44 74.1391C1080.34 71.0635 1082.88 69 1085.75 69C1088.63 69 1091.29 71.1115 1092.17 74.1391C1092.3 74.5732 1092.08 75.037 1091.68 75.1765C1091.6 75.2005 1091.53 75.2131 1091.45 75.2131H1091.45Z" fill="#F5F5F5"/>
<path d="M1080.49 76.6198C1080.17 76.6198 1079.87 76.4013 1079.77 76.056C1079.54 75.3089 1078.83 74.7451 1078.12 74.7451C1077.32 74.7451 1076.64 75.2624 1076.5 75.9742C1076.41 76.4182 1075.99 76.6818 1075.59 76.6029C1075.19 76.5042 1074.93 76.063 1075.02 75.6176C1075.31 74.156 1076.62 73.0974 1078.12 73.0974C1079.5 73.0974 1080.76 74.0982 1081.2 75.5359C1081.34 75.97 1081.12 76.4366 1080.72 76.5775C1080.65 76.6085 1080.57 76.6198 1080.49 76.6198H1080.49Z" fill="#F5F5F5"/>
<path d="M1158.77 133.683C1158.57 133.683 1158.38 133.602 1158.23 133.44C1153.54 128.324 1155.09 125.464 1155.97 124.471C1157.66 122.564 1161.1 122.499 1162.9 124.345C1163.83 125.299 1165.52 128.084 1161.16 133.294C1160.88 133.632 1160.4 133.654 1160.09 133.346C1159.78 133.041 1159.76 132.517 1160.04 132.181C1162.47 129.274 1163.14 126.855 1161.86 125.547C1160.68 124.33 1158.16 124.373 1157.05 125.617C1155.85 126.975 1156.67 129.402 1159.3 132.274C1159.6 132.596 1159.6 133.117 1159.3 133.44C1159.15 133.602 1158.96 133.683 1158.77 133.683H1158.77Z" fill="#F5F5F5"/>
<path fill-rule="evenodd" clip-rule="evenodd" d="M1159.1 134.146L1160.38 134.028C1161.24 134.028 1161.89 134.614 1161.89 135.556C1162 136.372 1161.35 137.073 1160.6 137.194H1159.2C1158.34 137.308 1157.7 136.607 1157.7 135.786C1157.59 134.845 1158.23 134.145 1159.09 134.145L1159.1 134.146Z" fill="#F5F5F5"/>
<path d="M1136.16 112.053C1136.01 112.053 1135.85 111.978 1135.74 111.836C1135.08 111.009 1134.47 110.582 1133.94 110.573H1133.93C1133.5 110.573 1133.06 110.84 1132.6 111.384C1132.39 111.63 1132.03 111.647 1131.8 111.415C1131.57 111.184 1131.56 110.792 1131.77 110.541C1132.45 109.74 1133.18 109.337 1133.93 109.337H1133.96C1134.84 109.353 1135.7 109.906 1136.6 111.026C1136.8 111.285 1136.77 111.674 1136.54 111.898C1136.43 112 1136.3 112.053 1136.17 112.053H1136.16Z" fill="#F5F5F5"/>
<path d="M1136.16 112.053C1136.03 112.053 1135.9 112 1135.79 111.898C1135.56 111.674 1135.53 111.285 1135.74 111.026C1136.61 109.923 1137.52 109.351 1138.43 109.337H1138.47C1139.25 109.337 1139.99 109.74 1140.67 110.541C1140.88 110.792 1140.87 111.184 1140.64 111.415C1140.41 111.647 1140.05 111.63 1139.84 111.384C1139.38 110.845 1138.92 110.573 1138.47 110.573H1138.45C1137.88 110.584 1137.25 111.009 1136.59 111.836C1136.48 111.977 1136.32 112.053 1136.16 112.053H1136.16Z" fill="#F5F5F5"/>
<path d="M1132.83 128.684C1132.65 128.684 1132.46 128.609 1132.31 128.46C1132.01 128.144 1132 127.622 1132.28 127.294L1134.11 125.191C1134.25 125.025 1134.4 124.879 1134.66 124.932C1134.86 124.932 1135.05 125.016 1135.2 125.173L1137.02 127.157C1137.32 127.479 1137.32 128.003 1137.02 128.324C1136.73 128.647 1136.25 128.65 1135.95 128.324L1134.68 126.936L1133.38 128.426C1133.23 128.598 1133.03 128.684 1132.83 128.684Z" fill="#F5F5F5"/>
<path d="M1092.76 59.756C1092.58 59.756 1092.4 59.6869 1092.25 59.5502C1091.94 59.2471 1091.91 58.7256 1092.19 58.3831L1093.91 56.2773C1094.04 56.1138 1094.24 56.0095 1094.44 56.001C1094.65 55.9897 1094.84 56.0729 1095 56.2251L1096.82 58.1012C1097.13 58.4127 1097.14 58.9342 1096.85 59.2669C1096.57 59.6009 1096.1 59.615 1095.78 59.3007L1094.52 58.011L1093.32 59.4825C1093.17 59.6629 1092.97 59.7588 1092.76 59.7588V59.756Z" fill="#F5F5F5"/>
<path d="M1147.64 101.092C1147.22 101.092 1146.88 100.726 1146.88 100.269C1146.88 99.8122 1147.22 99.4443 1147.64 99.4443C1147.85 99.4443 1148.21 99.426 1148.63 99.4034C1149.25 99.3682 1150.01 99.3287 1150.65 99.3287C1151.07 99.3287 1151.41 99.698 1151.41 100.152C1151.41 100.606 1151.07 100.975 1150.65 100.975C1150.03 100.975 1149.3 101.016 1148.7 101.05C1148.25 101.072 1147.87 101.091 1147.64 101.091V101.092Z" fill="#F5F5F5"/>
<path d="M1153.02 98.1602C1152.69 98.1602 1152.39 97.9305 1152.29 97.5696C1151.83 95.8782 1150.28 94.6491 1148.61 94.6491C1146.93 94.6491 1145.38 95.8782 1144.93 97.5696C1144.81 98.0052 1144.38 98.2547 1143.98 98.1292C1143.58 97.9996 1143.35 97.5415 1143.47 97.1045C1144.11 94.7252 1146.27 93 1148.6 93C1150.94 93 1153.1 94.7267 1153.74 97.1045C1153.86 97.5401 1153.63 97.9981 1153.23 98.1292C1153.16 98.1518 1153.08 98.1602 1153.01 98.1602H1153.02Z" fill="#F5F5F5"/>
<path d="M1144.52 99.3372C1144.22 99.3372 1143.93 99.1328 1143.81 98.803C1143.51 97.9178 1142.97 97.8135 1142.59 97.8135C1142.05 97.8135 1141.62 98.1687 1141.49 98.7156C1141.39 99.1539 1140.99 99.4288 1140.57 99.316C1140.17 99.2019 1139.92 98.7551 1140.02 98.3125C1140.32 97.0284 1141.35 96.1658 1142.59 96.1658C1143.82 96.1658 1144.78 96.9171 1145.23 98.2251C1145.38 98.6522 1145.18 99.1272 1144.79 99.2879C1144.7 99.3259 1144.61 99.34 1144.52 99.34L1144.52 99.3372Z" fill="#F5F5F5"/>
</g>
<path d="M945 198L925 198" stroke="#F5F5F5" stroke-width="1.5"/>
<g clip-path="url(#clip1_2974_21506)">
<path d="M1120.55 488.349L1119.82 487.56C1119.82 487.967 1120.09 488.307 1120.45 488.37C1120.49 488.378 1120.53 488.383 1120.58 488.383L1120.55 488.349ZM1091.33 466.468C1090.91 466.468 1090.57 466.837 1090.57 467.292V487.56C1090.57 488.013 1090.91 488.383 1091.33 488.383C1091.75 488.383 1092.08 488.013 1092.08 487.56V467.292C1092.08 466.837 1091.75 466.468 1091.33 466.468ZM1120.33 441.577C1119.91 441.577 1119.57 441.948 1119.57 442.401V487.56C1119.57 488.013 1119.91 488.383 1120.33 488.383C1120.37 488.383 1120.41 488.378 1120.45 488.37C1120.48 488.366 1120.51 488.357 1120.55 488.349C1120.86 488.246 1121.08 487.932 1121.08 487.56V442.401C1121.08 441.948 1120.75 441.577 1120.33 441.577ZM1133.9 438.241C1128.64 438.308 1125.44 437.523 1123.68 435.626C1121.32 433.096 1121.32 428.477 1121.33 421.483V381.787C1121.33 381.485 1121.18 381.221 1120.96 381.079C1120.85 381.004 1120.72 380.964 1120.58 380.964H1091.33C1091.19 380.964 1091.06 381.004 1090.94 381.079C1090.72 381.221 1090.57 381.485 1090.57 381.787V453.118C1090.57 453.572 1090.91 453.941 1091.33 453.941C1091.64 453.941 1091.91 453.728 1092.03 453.432V453.428C1092.06 453.332 1092.08 453.228 1092.08 453.118V382.611H1119.82V382.727L1119.82 421.481C1119.81 428.89 1119.81 433.784 1122.61 436.803C1124.69 439.033 1128.14 440.01 1133.91 439.888H1170.53V438.241H1133.9Z" fill="#F5F5F5"/>
<path d="M1117.56 349.805H1094.34C1093.92 349.805 1093.58 350.174 1093.58 350.629V373.468C1093.58 373.923 1093.92 374.292 1094.34 374.292H1117.56C1117.98 374.292 1118.32 373.923 1118.32 373.468V350.629C1118.32 350.174 1117.98 349.805 1117.56 349.805ZM1116.81 372.643H1095.1V351.454H1116.81V372.643Z" fill="#F5F5F5"/>
<path d="M1111.89 336.561L1111.62 335.515H1101.14L1100.88 336.561C1100.78 336.926 1100.48 337.163 1100.15 337.163H1112.62C1112.29 337.163 1111.98 336.926 1111.89 336.561ZM1111.89 336.561L1111.62 335.515H1101.14L1100.88 336.561C1100.78 336.926 1100.48 337.163 1100.15 337.163H1112.62C1112.29 337.163 1111.98 336.926 1111.89 336.561ZM1120.9 336.262C1120.9 336.235 1120.89 336.209 1120.89 336.183C1120.88 336.156 1120.88 336.131 1120.87 336.106C1120.86 336.087 1120.86 336.069 1120.85 336.051C1120.85 336.042 1120.85 336.035 1120.84 336.028L1120.84 336.018C1120.73 335.722 1120.46 335.515 1120.14 335.515H1092.19C1091.87 335.515 1091.61 335.722 1091.49 336.018L1091.49 336.039C1091.48 336.047 1091.48 336.052 1091.48 336.059C1091.47 336.075 1091.47 336.09 1091.46 336.106C1091.46 336.128 1091.45 336.151 1091.45 336.173C1091.44 336.199 1091.44 336.226 1091.44 336.252C1091.44 336.252 1091.44 336.252 1091.44 336.255C1091.43 336.281 1091.43 336.306 1091.43 336.331V345.592C1091.43 346.047 1091.77 346.415 1092.19 346.415H1120.14C1120.56 346.415 1120.9 346.047 1120.9 345.592V336.341C1120.9 336.314 1120.9 336.288 1120.9 336.262ZM1092.95 344.767V337.163H1119.39V344.767H1092.95ZM1111.89 336.561L1111.62 335.515H1101.14L1100.88 336.561C1100.78 336.926 1100.48 337.163 1100.15 337.163H1112.62C1112.29 337.163 1111.98 336.926 1111.89 336.561ZM1111.89 336.561L1111.62 335.515H1101.14L1100.88 336.561C1100.78 336.926 1100.48 337.163 1100.15 337.163H1112.62C1112.29 337.163 1111.98 336.926 1111.89 336.561Z" fill="#F5F5F5"/>
<path d="M1109.28 319.59V318.766H1105.63V319.59C1105.63 320.047 1105.97 320.413 1106.38 320.413H1110.04C1109.62 320.413 1109.28 320.047 1109.28 319.59ZM1109.28 319.59V318.766H1105.63V319.59C1105.63 320.047 1105.97 320.413 1106.38 320.413H1110.04C1109.62 320.413 1109.28 320.047 1109.28 319.59ZM1120.9 336.262C1120.9 336.235 1120.89 336.209 1120.89 336.183C1120.88 336.156 1120.88 336.131 1120.87 336.106C1120.86 336.087 1120.86 336.069 1120.85 336.051C1120.85 336.042 1120.85 336.035 1120.84 336.028L1120.84 336.018L1114.66 319.427L1114.61 319.28C1114.49 318.97 1114.22 318.766 1113.91 318.766H1098.21C1098 318.766 1097.81 318.857 1097.67 319.014C1097.6 319.091 1097.54 319.184 1097.51 319.29L1091.49 336.018L1091.49 336.039C1091.48 336.046 1091.48 336.052 1091.48 336.059C1091.47 336.075 1091.47 336.09 1091.46 336.106C1091.46 336.128 1091.45 336.151 1091.45 336.173C1091.44 336.199 1091.44 336.225 1091.44 336.252C1091.44 336.252 1091.44 336.252 1091.44 336.255C1091.43 336.28 1091.43 336.306 1091.43 336.331V336.373C1091.44 336.527 1091.48 336.675 1091.56 336.805C1091.71 337.03 1091.94 337.163 1092.19 337.163H1120.14C1120.39 337.163 1120.63 337.029 1120.77 336.801C1120.86 336.662 1120.9 336.502 1120.9 336.341C1120.9 336.314 1120.9 336.287 1120.9 336.262ZM1093.3 335.515L1098.73 320.413H1113.4L1119.02 335.515H1093.3ZM1109.28 319.59V318.766H1105.63V319.59C1105.63 320.047 1105.97 320.413 1106.38 320.413H1110.04C1109.62 320.413 1109.28 320.047 1109.28 319.59ZM1109.28 319.59V318.766H1105.63V319.59C1105.63 320.047 1105.97 320.413 1106.38 320.413H1110.04C1109.62 320.413 1109.28 320.047 1109.28 319.59Z" fill="#F5F5F5"/>
<path d="M1105.63 319.59V318.766H1103.59V319.59C1103.59 320.047 1103.25 320.414 1102.83 320.414H1106.38C1105.97 320.414 1105.63 320.047 1105.63 319.59ZM1105.63 319.59V318.766H1103.59V319.59C1103.59 320.047 1103.25 320.414 1102.83 320.414H1106.38C1105.97 320.414 1105.63 320.047 1105.63 319.59ZM1114.66 307.566C1114.66 307.546 1114.66 307.528 1114.66 307.508C1114.65 307.495 1114.65 307.481 1114.65 307.469C1114.65 307.454 1114.64 307.442 1114.64 307.428C1114.64 307.425 1114.64 307.422 1114.64 307.419C1114.64 307.405 1114.63 307.391 1114.63 307.377C1114.63 307.377 1114.63 307.376 1114.63 307.374C1114.53 307.049 1114.24 306.817 1113.91 306.817H1098.43C1098.12 306.817 1097.85 307.022 1097.73 307.315C1097.73 307.318 1097.73 307.321 1097.73 307.325C1097.72 307.346 1097.71 307.367 1097.71 307.39C1097.7 307.423 1097.69 307.457 1097.68 307.493C1097.68 307.514 1097.68 307.535 1097.68 307.556C1097.67 307.584 1097.67 307.612 1097.67 307.641V319.59C1097.67 320.047 1098.01 320.414 1098.43 320.414H1113.91C1114.33 320.414 1114.67 320.047 1114.67 319.59V307.635C1114.67 307.611 1114.67 307.588 1114.66 307.566ZM1099.18 318.766V308.465H1113.16V318.766H1099.18ZM1105.63 319.59V318.766H1103.59V319.59C1103.59 320.047 1103.25 320.414 1102.83 320.414H1106.38C1105.97 320.414 1105.63 320.047 1105.63 319.59ZM1105.63 319.59V318.766H1103.59V319.59C1103.59 320.047 1103.25 320.414 1102.83 320.414H1106.38C1105.97 320.414 1105.63 320.047 1105.63 319.59Z" fill="#F5F5F5"/>
<path d="M1114.66 307.566C1114.66 307.546 1114.66 307.528 1114.66 307.508C1114.65 307.495 1114.65 307.481 1114.65 307.468C1114.65 307.454 1114.64 307.442 1114.64 307.428C1114.64 307.425 1114.64 307.422 1114.64 307.419C1114.64 307.405 1114.63 307.391 1114.63 307.377C1114.63 307.377 1114.63 307.376 1114.63 307.374C1114.62 307.361 1114.62 307.347 1114.62 307.335C1110.37 295.691 1107.93 283.732 1107.15 270.783C1107.14 268.915 1107.06 267.029 1106.92 265.175C1106.89 264.729 1106.59 264.382 1106.13 264.416C1105.72 264.439 1105.4 264.817 1105.41 265.259C1105.46 267.122 1105.53 268.983 1105.64 270.842C1105.72 282.833 1103.06 295.096 1097.74 307.285C1097.74 307.295 1097.74 307.305 1097.73 307.315C1097.73 307.318 1097.73 307.32 1097.73 307.325C1097.72 307.346 1097.71 307.367 1097.71 307.39C1097.7 307.423 1097.69 307.457 1097.68 307.492C1097.68 307.514 1097.68 307.535 1097.68 307.556C1097.67 307.584 1097.67 307.612 1097.67 307.64C1097.67 307.795 1097.71 307.948 1097.79 308.083C1097.93 308.321 1098.17 308.465 1098.43 308.465H1113.91C1114.16 308.465 1114.4 308.33 1114.54 308.104C1114.62 307.966 1114.67 307.804 1114.67 307.64V307.635C1114.67 307.611 1114.67 307.588 1114.66 307.566ZM1099.62 306.817C1103.26 298.173 1105.6 289.5 1106.6 280.903C1107.78 289.871 1109.83 298.428 1112.8 306.817H1099.62Z" fill="#F5F5F5"/>
<path d="M1105.95 352.617C1101.21 352.617 1097.35 356.821 1097.35 361.993C1097.35 367.164 1101.21 371.484 1105.95 371.484C1110.7 371.484 1114.67 367.229 1114.67 361.993C1114.67 356.756 1110.76 352.617 1105.95 352.617ZM1105.95 369.837C1102.04 369.837 1098.86 366.317 1098.86 361.993C1098.86 357.668 1102.04 354.264 1105.95 354.264C1109.86 354.264 1113.16 357.732 1113.16 361.993C1113.16 366.254 1109.92 369.837 1105.95 369.837Z" fill="#F5F5F5"/>
<path d="M1123.58 344.767H1088.75C1088.33 344.767 1087.99 345.135 1087.99 345.592V381.904C1087.99 382.357 1088.33 382.727 1088.75 382.727H1123.58C1124 382.727 1124.34 382.357 1124.34 381.904V345.592C1124.34 345.135 1124 344.767 1123.58 344.767ZM1122.83 381.079H1089.51V346.415H1122.83V381.079Z" fill="#F5F5F5"/>
<path d="M1105.63 364.104C1105.42 364.104 1105.21 364.014 1105.07 363.829L1102.38 360.551C1102.1 360.21 1102.13 359.688 1102.44 359.387C1102.74 359.079 1103.23 359.109 1103.51 359.45L1106.19 362.731C1106.48 363.071 1106.45 363.591 1106.14 363.896C1105.99 364.037 1105.81 364.104 1105.63 364.104H1105.63Z" fill="#F5F5F5"/>
<path d="M1105.63 364.104C1105.37 364.104 1105.11 363.953 1104.97 363.681C1104.77 363.284 1104.9 362.782 1105.26 362.559L1110.64 359.281C1111.01 359.054 1111.47 359.198 1111.67 359.598C1111.87 359.996 1111.75 360.497 1111.38 360.719L1106 363.997C1105.88 364.072 1105.76 364.103 1105.63 364.103L1105.63 364.104Z" fill="#F5F5F5"/>
<path d="M1100.15 337.163C1100.08 337.163 1100.01 337.156 1099.95 337.135C1099.55 337.012 1099.31 336.561 1099.42 336.118L1103.4 320.421C1103.51 319.984 1103.93 319.724 1104.33 319.847C1104.73 319.97 1104.97 320.421 1104.86 320.865L1100.88 336.561C1100.79 336.926 1100.48 337.163 1100.15 337.163H1100.15Z" fill="#F5F5F5"/>
<path d="M1102.83 320.413C1102.41 320.413 1102.08 320.047 1102.08 319.59V315.021C1102.08 314.565 1102.41 314.198 1102.83 314.198C1103.25 314.198 1103.59 314.565 1103.59 315.021V319.59C1103.59 320.047 1103.25 320.413 1102.83 320.413Z" fill="#F5F5F5"/>
<path d="M1106.38 320.413C1105.97 320.413 1105.63 320.047 1105.63 319.59V315.021C1105.63 314.565 1105.97 314.198 1106.38 314.198C1106.8 314.198 1107.14 314.565 1107.14 315.021V319.59C1107.14 320.047 1106.8 320.413 1106.38 320.413Z" fill="#F5F5F5"/>
<path d="M1110.04 320.413C1109.62 320.413 1109.28 320.047 1109.28 319.59V315.021C1109.28 314.565 1109.62 314.198 1110.04 314.198C1110.45 314.198 1110.79 314.565 1110.79 315.021V319.59C1110.79 320.047 1110.45 320.413 1110.04 320.413Z" fill="#F5F5F5"/>
<path d="M1097.57 345.48C1097.15 345.48 1096.81 345.111 1096.81 344.657V340.912C1096.81 340.454 1097.15 340.088 1097.57 340.088C1097.98 340.088 1098.32 340.454 1098.32 340.912V344.657C1098.32 345.112 1097.99 345.48 1097.57 345.48Z" fill="#F5F5F5"/>
<path d="M1101.87 345.48C1101.45 345.48 1101.11 345.111 1101.11 344.657V340.912C1101.11 340.454 1101.45 340.088 1101.87 340.088C1102.29 340.088 1102.62 340.454 1102.62 340.912V344.657C1102.62 345.112 1102.28 345.48 1101.87 345.48Z" fill="#F5F5F5"/>
<path d="M1106.38 345.48C1105.97 345.48 1105.63 345.111 1105.63 344.657V340.912C1105.63 340.454 1105.97 340.088 1106.38 340.088C1106.8 340.088 1107.14 340.454 1107.14 340.912V344.657C1107.14 345.112 1106.8 345.48 1106.38 345.48Z" fill="#F5F5F5"/>
<path d="M1110.36 345.48C1109.94 345.48 1109.61 345.111 1109.61 344.657V340.912C1109.61 340.454 1109.94 340.088 1110.36 340.088C1110.78 340.088 1111.12 340.454 1111.12 340.912V344.657C1111.12 345.112 1110.78 345.48 1110.36 345.48Z" fill="#F5F5F5"/>
<path d="M1114.34 345.48C1113.92 345.48 1113.58 345.111 1113.58 344.657V340.912C1113.58 340.454 1113.92 340.088 1114.34 340.088C1114.76 340.088 1115.1 340.454 1115.1 340.912V344.657C1115.1 345.112 1114.76 345.48 1114.34 345.48Z" fill="#F5F5F5"/>
<path d="M1112.62 337.163C1112.29 337.163 1111.98 336.925 1111.89 336.561L1107.91 320.865C1107.8 320.426 1108.03 319.97 1108.44 319.847C1108.84 319.724 1109.26 319.984 1109.37 320.421L1113.35 336.118C1113.46 336.557 1113.23 337.012 1112.82 337.135C1112.76 337.156 1112.69 337.163 1112.62 337.163H1112.62Z" fill="#F5F5F5"/>
<path d="M1102.94 488.5C1102.52 488.5 1102.19 488.13 1102.19 487.675V388.927C1102.19 388.472 1102.52 388.103 1102.94 388.103C1103.36 388.103 1103.7 388.472 1103.7 388.927V487.675C1103.7 488.13 1103.36 488.5 1102.94 488.5Z" fill="#F5F5F5"/>
<path d="M1108.64 488.5C1108.22 488.5 1107.88 488.13 1107.88 487.675V388.927C1107.88 388.472 1108.22 388.103 1108.64 388.103C1109.06 388.103 1109.39 388.472 1109.39 388.927V487.675C1109.39 488.13 1109.06 488.5 1108.64 488.5Z" fill="#F5F5F5"/>
<path d="M1114.45 488.5C1114.03 488.5 1113.69 488.13 1113.69 487.675V388.927C1113.69 388.472 1114.03 388.103 1114.45 388.103C1114.86 388.103 1115.2 388.472 1115.2 388.927V487.675C1115.2 488.13 1114.87 488.5 1114.45 488.5Z" fill="#F5F5F5"/>
<path d="M1097.46 488.5C1097.04 488.5 1096.7 488.13 1096.7 487.675V388.927C1096.7 388.472 1097.04 388.103 1097.46 388.103C1097.87 388.103 1098.21 388.472 1098.21 388.927V487.675C1098.21 488.13 1097.87 488.5 1097.46 488.5Z" fill="#F5F5F5"/>
<path d="M1097.57 382.373C1097.15 382.373 1096.81 382.004 1096.81 381.55V377.922C1096.81 377.467 1097.15 377.099 1097.57 377.099C1097.98 377.099 1098.32 377.467 1098.32 377.922V381.55C1098.32 382.005 1097.99 382.373 1097.57 382.373Z" fill="#F5F5F5"/>
<path d="M1101.87 382.373C1101.45 382.373 1101.11 382.004 1101.11 381.55V377.922C1101.11 377.467 1101.45 377.099 1101.87 377.099C1102.29 377.099 1102.62 377.467 1102.62 377.922V381.55C1102.62 382.005 1102.28 382.373 1101.87 382.373Z" fill="#F5F5F5"/>
<path d="M1106.38 382.373C1105.97 382.373 1105.63 382.004 1105.63 381.55V377.922C1105.63 377.467 1105.97 377.099 1106.38 377.099C1106.8 377.099 1107.14 377.467 1107.14 377.922V381.55C1107.14 382.005 1106.8 382.373 1106.38 382.373Z" fill="#F5F5F5"/>
<path d="M1110.36 382.373C1109.94 382.373 1109.61 382.004 1109.61 381.55V377.922C1109.61 377.467 1109.94 377.099 1110.36 377.099C1110.78 377.099 1111.12 377.467 1111.12 377.922V381.55C1111.12 382.005 1110.78 382.373 1110.36 382.373Z" fill="#F5F5F5"/>
<path d="M1114.34 382.373C1113.92 382.373 1113.58 382.004 1113.58 381.55V377.922C1113.58 377.467 1113.92 377.099 1114.34 377.099C1114.76 377.099 1115.1 377.467 1115.1 377.922V381.55C1115.1 382.005 1114.76 382.373 1114.34 382.373Z" fill="#F5F5F5"/>
<path d="M1087.89 459.451C1085.58 459.451 1083.69 457.451 1083.69 454.991V434.611C1083.69 434.156 1084.03 433.786 1084.45 433.786C1084.87 433.786 1085.2 434.156 1085.2 434.611V454.991C1085.2 456.567 1086.38 457.803 1087.89 457.803C1089.31 457.803 1090.47 456.542 1090.47 454.991L1090.57 451.451C1090.59 450.997 1090.91 450.64 1091.35 450.654C1091.77 450.668 1092.1 451.047 1092.08 451.503L1091.98 455.015C1091.98 457.449 1090.15 459.45 1087.89 459.45V459.451Z" fill="#F5F5F5"/>
<path d="M1077.57 440.005C1077.15 440.005 1076.81 439.636 1076.81 439.181V432.972C1076.81 430.45 1078.7 428.399 1081.01 428.399C1083.33 428.399 1085.08 430.388 1085.2 432.925V436.37C1085.2 436.824 1084.87 437.193 1084.45 437.193C1084.03 437.193 1083.69 436.824 1083.69 436.37V432.97C1083.61 431.352 1082.43 430.047 1081.01 430.047C1079.59 430.047 1078.32 431.389 1078.32 432.97V439.179C1078.32 439.635 1077.98 440.004 1077.57 440.004V440.005Z" fill="#F5F5F5"/>
<path d="M1078.32 438.596C1078.32 438.94 1078.29 439.274 1078.22 439.595C1077.8 441.573 1076.17 443.05 1074.23 443.05H944.533V441.402H1074.23C1075.66 441.402 1076.81 440.143 1076.81 438.596C1076.81 438.136 1077.15 437.771 1077.57 437.771C1077.99 437.771 1078.32 438.136 1078.32 438.596Z" fill="#F5F5F5"/>
<path d="M1080.15 318.773H1076.27C1075.86 318.773 1075.52 318.405 1075.52 317.948C1075.52 317.492 1075.86 317.124 1076.27 317.124H1080.15C1080.57 317.124 1080.91 317.493 1080.91 317.948C1080.91 318.403 1080.57 318.773 1080.15 318.773Z" fill="#F5F5F5"/>
<path d="M1083.05 318.654C1082.63 318.654 1082.3 318.287 1082.3 317.83C1082.3 317.373 1082.63 317.005 1083.05 317.005C1083.12 317.005 1083.25 317.005 1083.32 316.997C1083.62 316.819 1083.99 316.867 1084.24 317.142C1084.53 317.468 1084.52 317.988 1084.22 318.309C1083.9 318.653 1083.41 318.653 1083.05 318.653V318.654Z" fill="#F5F5F5"/>
<path d="M1083.16 315.142C1082.84 315.145 1082.54 314.918 1082.44 314.565C1081.75 312.219 1079.7 310.577 1077.46 310.577C1075.22 310.577 1073.29 312.182 1072.59 314.565C1072.47 315 1072.04 315.239 1071.64 315.105C1071.24 314.966 1071.02 314.502 1071.15 314.068C1072.05 310.992 1074.59 308.929 1077.46 308.929C1080.33 308.929 1082.99 311.04 1083.88 314.068C1084.01 314.502 1083.79 314.966 1083.39 315.105C1083.31 315.129 1083.23 315.142 1083.16 315.142H1083.16Z" fill="#F5F5F5"/>
<path d="M1072.19 316.549C1071.88 316.549 1071.58 316.33 1071.48 315.985C1071.25 315.238 1070.54 314.674 1069.83 314.674C1069.03 314.674 1068.35 315.191 1068.21 315.903C1068.11 316.347 1067.7 316.611 1067.3 316.532C1066.89 316.433 1066.64 315.992 1066.72 315.546C1067.02 314.085 1068.33 313.026 1069.83 313.026C1071.21 313.026 1072.47 314.027 1072.91 315.465C1073.04 315.899 1072.83 316.365 1072.43 316.506C1072.36 316.537 1072.27 316.549 1072.19 316.549H1072.19Z" fill="#F5F5F5"/>
<path d="M1125.63 317.486C1125.43 317.486 1125.24 317.406 1125.09 317.243C1120.39 312.127 1121.94 309.267 1122.83 308.275C1124.52 306.368 1127.96 306.303 1129.76 308.148C1130.69 309.102 1132.38 311.887 1128.01 317.097C1127.74 317.435 1127.25 317.458 1126.95 317.149C1126.64 316.845 1126.61 316.32 1126.9 315.985C1129.33 313.077 1130 310.658 1128.72 309.35C1127.54 308.134 1125.02 308.176 1123.91 309.421C1122.7 310.778 1123.52 313.205 1126.16 316.078C1126.46 316.399 1126.46 316.921 1126.16 317.243C1126.01 317.406 1125.82 317.486 1125.62 317.486H1125.63Z" fill="#F5F5F5"/>
<path fill-rule="evenodd" clip-rule="evenodd" d="M1125.95 317.95L1127.24 317.831C1128.1 317.831 1128.74 318.418 1128.74 319.359C1128.85 320.175 1128.21 320.876 1127.46 320.997H1126.06C1125.2 321.111 1124.55 320.411 1124.55 319.589C1124.45 318.649 1125.09 317.948 1125.95 317.948L1125.95 317.95Z" fill="#F5F5F5"/>
<path d="M1136.16 336.139C1136.01 336.139 1135.85 336.065 1135.74 335.922C1135.08 335.095 1134.47 334.668 1133.94 334.659H1133.93C1133.5 334.659 1133.06 334.926 1132.6 335.47C1132.39 335.717 1132.03 335.734 1131.8 335.501C1131.57 335.27 1131.56 334.878 1131.77 334.627C1132.45 333.826 1133.18 333.423 1133.93 333.423H1133.96C1134.84 333.439 1135.7 333.993 1136.6 335.112C1136.8 335.371 1136.77 335.76 1136.54 335.984C1136.43 336.086 1136.3 336.139 1136.17 336.139H1136.16Z" fill="#F5F5F5"/>
<path d="M1136.16 336.139C1136.03 336.139 1135.9 336.086 1135.79 335.984C1135.56 335.76 1135.53 335.371 1135.74 335.112C1136.61 334.01 1137.52 333.437 1138.43 333.423H1138.47C1139.25 333.423 1139.99 333.826 1140.67 334.627C1140.88 334.878 1140.87 335.27 1140.64 335.501C1140.41 335.734 1140.05 335.717 1139.84 335.47C1139.38 334.932 1138.92 334.659 1138.47 334.659H1138.45C1137.88 334.671 1137.25 335.095 1136.59 335.922C1136.48 336.063 1136.32 336.139 1136.16 336.139H1136.16Z" fill="#F5F5F5"/>
<path d="M1132.83 372.77C1132.65 372.77 1132.46 372.695 1132.31 372.546C1132.01 372.23 1132 371.709 1132.28 371.38L1134.11 369.277C1134.25 369.111 1134.4 368.966 1134.66 369.018C1134.86 369.018 1135.05 369.102 1135.2 369.259L1137.02 371.243C1137.32 371.565 1137.32 372.089 1137.02 372.411C1136.73 372.733 1136.25 372.736 1135.95 372.411L1134.68 371.022L1133.38 372.512C1133.23 372.684 1133.03 372.77 1132.83 372.77Z" fill="#F5F5F5"/>
<path d="M1086.81 297.689C1086.64 297.689 1086.46 297.62 1086.31 297.484C1086 297.18 1085.97 296.659 1086.25 296.316L1087.96 294.211C1088.1 294.047 1088.29 293.943 1088.5 293.934C1088.71 293.923 1088.9 294.006 1089.05 294.158L1090.88 296.035C1091.18 296.346 1091.2 296.868 1090.91 297.2C1090.63 297.534 1090.15 297.548 1089.84 297.234L1088.58 295.944L1087.38 297.416C1087.23 297.596 1087.02 297.692 1086.81 297.692V297.689Z" fill="#F5F5F5"/>
<path d="M1143.37 360.355C1142.95 360.355 1142.62 359.989 1142.62 359.532C1142.62 359.075 1142.95 358.707 1143.37 358.707C1143.58 358.707 1143.94 358.689 1144.36 358.666C1144.98 358.631 1145.74 358.592 1146.38 358.592C1146.8 358.592 1147.14 358.961 1147.14 359.415C1147.14 359.869 1146.8 360.238 1146.38 360.238C1145.76 360.238 1145.03 360.279 1144.43 360.313C1143.98 360.335 1143.6 360.354 1143.37 360.354V360.355Z" fill="#F5F5F5"/>
<path d="M1149.18 360.117H1148.64C1148.22 360.117 1147.88 359.75 1147.88 359.294C1147.88 358.837 1148.22 358.47 1148.64 358.47H1149.18C1149.59 358.47 1149.93 358.84 1149.93 359.294C1149.93 359.747 1149.59 360.117 1149.18 360.117Z" fill="#F5F5F5"/>
<path d="M1148.75 357.423C1148.42 357.423 1148.12 357.193 1148.02 356.833C1147.56 355.141 1146.01 353.912 1144.34 353.912C1142.66 353.912 1141.11 355.141 1140.66 356.833C1140.54 357.268 1140.11 357.518 1139.71 357.392C1139.32 357.262 1139.08 356.804 1139.2 356.367C1139.84 353.988 1142 352.263 1144.33 352.263C1146.67 352.263 1148.83 353.99 1149.47 356.367C1149.59 356.803 1149.36 357.261 1148.96 357.392C1148.89 357.415 1148.81 357.423 1148.74 357.423H1148.75Z" fill="#F5F5F5"/>
<path d="M1140.25 358.6C1139.95 358.6 1139.66 358.396 1139.54 358.066C1139.24 357.181 1138.7 357.076 1138.32 357.076C1137.78 357.076 1137.35 357.432 1137.22 357.979C1137.12 358.417 1136.72 358.692 1136.3 358.579C1135.9 358.465 1135.65 358.018 1135.75 357.575C1136.05 356.291 1137.08 355.429 1138.32 355.429C1139.55 355.429 1140.51 356.18 1140.96 357.488C1141.11 357.915 1140.91 358.39 1140.52 358.551C1140.43 358.589 1140.34 358.603 1140.25 358.603L1140.25 358.6Z" fill="#F5F5F5"/>
</g>
<path d="M944.534 442.206L20 442.206" stroke="#F5F5F5" stroke-width="1.5"/>
<defs>
<clipPath id="clip0_2974_21506">
<rect width="226" height="224.086" fill="white" transform="translate(944.533 20.3271)"/>
</clipPath>
<clipPath id="clip1_2974_21506">
<rect width="226" height="224.086" fill="white" transform="translate(944.533 264.413)"/>
</clipPath>
</defs>
</svg>
